%TF.GenerationSoftware,KiCad,Pcbnew,8.0.5*%
%TF.CreationDate,2024-12-09T00:18:15-08:00*%
%TF.ProjectId,newbatt,6e657762-6174-4742-9e6b-696361645f70,3*%
%TF.SameCoordinates,Original*%
%TF.FileFunction,Legend,Bot*%
%TF.FilePolarity,Positive*%
%FSLAX46Y46*%
G04 Gerber Fmt 4.6, Leading zero omitted, Abs format (unit mm)*
G04 Created by KiCad (PCBNEW 8.0.5) date 2024-12-09 00:18:15*
%MOMM*%
%LPD*%
G01*
G04 APERTURE LIST*
%ADD10C,0.150000*%
%ADD11C,3.600000*%
%ADD12C,5.700000*%
%ADD13R,1.700000X1.700000*%
%ADD14O,1.700000X1.700000*%
%ADD15C,1.900000*%
%ADD16C,1.700000*%
%ADD17C,0.508000*%
G04 APERTURE END LIST*
D10*
X147083333Y-23024819D02*
X147083333Y-23739104D01*
X147083333Y-23739104D02*
X147130952Y-23881961D01*
X147130952Y-23881961D02*
X147226190Y-23977200D01*
X147226190Y-23977200D02*
X147369047Y-24024819D01*
X147369047Y-24024819D02*
X147464285Y-24024819D01*
X146654761Y-23120057D02*
X146607142Y-23072438D01*
X146607142Y-23072438D02*
X146511904Y-23024819D01*
X146511904Y-23024819D02*
X146273809Y-23024819D01*
X146273809Y-23024819D02*
X146178571Y-23072438D01*
X146178571Y-23072438D02*
X146130952Y-23120057D01*
X146130952Y-23120057D02*
X146083333Y-23215295D01*
X146083333Y-23215295D02*
X146083333Y-23310533D01*
X146083333Y-23310533D02*
X146130952Y-23453390D01*
X146130952Y-23453390D02*
X146702380Y-24024819D01*
X146702380Y-24024819D02*
X146083333Y-24024819D01*
%LPC*%
D11*
%TO.C,H4*%
X149500000Y-55250000D03*
D12*
X149500000Y-55250000D03*
%TD*%
D11*
%TO.C,H1*%
X19500000Y-19750000D03*
D12*
X19500000Y-19750000D03*
%TD*%
D11*
%TO.C,H3*%
X149500000Y-19750000D03*
D12*
X149500000Y-19750000D03*
%TD*%
D13*
%TO.C,J2*%
X149500000Y-26070000D03*
D14*
X149500000Y-28610000D03*
X149500000Y-31150000D03*
X149500000Y-33690000D03*
X149500000Y-36230000D03*
X149500000Y-38770000D03*
X149500000Y-41310000D03*
X149500000Y-43850000D03*
X149500000Y-46390000D03*
X149500000Y-48930000D03*
%TD*%
D15*
%TO.C,J1*%
X138050000Y-24700000D03*
D16*
X138050000Y-20400000D03*
%TD*%
D17*
%TO.C,U1*%
X125750000Y-35425200D03*
X125750000Y-36212600D03*
X125750000Y-37000000D03*
%TD*%
D13*
%TO.C,TH1*%
X105100000Y-39075000D03*
D14*
X105100000Y-36535000D03*
%TD*%
D11*
%TO.C,H2*%
X19500000Y-55250000D03*
D12*
X19500000Y-55250000D03*
%TD*%
%LPD*%
M02*
