%TF.GenerationSoftware,KiCad,Pcbnew,8.0.3*%
%TF.CreationDate,2024-07-30T15:51:15-07:00*%
%TF.ProjectId,Soil Power Sensor,536f696c-2050-46f7-9765-722053656e73,2.2.1*%
%TF.SameCoordinates,Original*%
%TF.FileFunction,Drillmap*%
%TF.FilePolarity,Positive*%
%FSLAX45Y45*%
G04 Gerber Fmt 4.5, Leading zero omitted, Abs format (unit mm)*
G04 Created by KiCad (PCBNEW 8.0.3) date 2024-07-30 15:51:15*
%MOMM*%
%LPD*%
G01*
G04 APERTURE LIST*
%ADD10C,0.050000*%
%ADD11C,0.200000*%
G04 APERTURE END LIST*
D10*
X11300000Y-9180163D02*
X25000000Y-9180163D01*
X25000000Y-4680163D02*
G75*
G02*
X25099997Y-4780163I0J-99997D01*
G01*
X11200000Y-4780163D02*
X11200000Y-9080163D01*
X25100000Y-9080163D02*
X25100000Y-4780163D01*
X25100000Y-9080163D02*
G75*
G02*
X25000000Y-9180160I-100000J3D01*
G01*
X11300000Y-4680163D02*
X25000000Y-4680163D01*
X11300000Y-9180163D02*
G75*
G02*
X11199997Y-9080163I0J100003D01*
G01*
X11200000Y-4780163D02*
G75*
G02*
X11300000Y-4680160I100000J3D01*
G01*
D11*
X11458277Y-9494147D02*
X11458277Y-9294147D01*
X11458277Y-9294147D02*
X11505896Y-9294147D01*
X11505896Y-9294147D02*
X11534467Y-9303671D01*
X11534467Y-9303671D02*
X11553515Y-9322719D01*
X11553515Y-9322719D02*
X11563039Y-9341766D01*
X11563039Y-9341766D02*
X11572562Y-9379861D01*
X11572562Y-9379861D02*
X11572562Y-9408433D01*
X11572562Y-9408433D02*
X11563039Y-9446528D01*
X11563039Y-9446528D02*
X11553515Y-9465576D01*
X11553515Y-9465576D02*
X11534467Y-9484623D01*
X11534467Y-9484623D02*
X11505896Y-9494147D01*
X11505896Y-9494147D02*
X11458277Y-9494147D01*
X11658277Y-9494147D02*
X11658277Y-9360814D01*
X11658277Y-9398909D02*
X11667801Y-9379861D01*
X11667801Y-9379861D02*
X11677324Y-9370338D01*
X11677324Y-9370338D02*
X11696372Y-9360814D01*
X11696372Y-9360814D02*
X11715420Y-9360814D01*
X11782086Y-9494147D02*
X11782086Y-9360814D01*
X11782086Y-9294147D02*
X11772562Y-9303671D01*
X11772562Y-9303671D02*
X11782086Y-9313195D01*
X11782086Y-9313195D02*
X11791610Y-9303671D01*
X11791610Y-9303671D02*
X11782086Y-9294147D01*
X11782086Y-9294147D02*
X11782086Y-9313195D01*
X11905896Y-9494147D02*
X11886848Y-9484623D01*
X11886848Y-9484623D02*
X11877324Y-9465576D01*
X11877324Y-9465576D02*
X11877324Y-9294147D01*
X12010658Y-9494147D02*
X11991610Y-9484623D01*
X11991610Y-9484623D02*
X11982086Y-9465576D01*
X11982086Y-9465576D02*
X11982086Y-9294147D01*
X12239229Y-9494147D02*
X12239229Y-9294147D01*
X12239229Y-9294147D02*
X12305896Y-9437004D01*
X12305896Y-9437004D02*
X12372562Y-9294147D01*
X12372562Y-9294147D02*
X12372562Y-9494147D01*
X12553515Y-9494147D02*
X12553515Y-9389385D01*
X12553515Y-9389385D02*
X12543991Y-9370338D01*
X12543991Y-9370338D02*
X12524943Y-9360814D01*
X12524943Y-9360814D02*
X12486848Y-9360814D01*
X12486848Y-9360814D02*
X12467801Y-9370338D01*
X12553515Y-9484623D02*
X12534467Y-9494147D01*
X12534467Y-9494147D02*
X12486848Y-9494147D01*
X12486848Y-9494147D02*
X12467801Y-9484623D01*
X12467801Y-9484623D02*
X12458277Y-9465576D01*
X12458277Y-9465576D02*
X12458277Y-9446528D01*
X12458277Y-9446528D02*
X12467801Y-9427480D01*
X12467801Y-9427480D02*
X12486848Y-9417957D01*
X12486848Y-9417957D02*
X12534467Y-9417957D01*
X12534467Y-9417957D02*
X12553515Y-9408433D01*
X12648753Y-9360814D02*
X12648753Y-9560814D01*
X12648753Y-9370338D02*
X12667801Y-9360814D01*
X12667801Y-9360814D02*
X12705896Y-9360814D01*
X12705896Y-9360814D02*
X12724943Y-9370338D01*
X12724943Y-9370338D02*
X12734467Y-9379861D01*
X12734467Y-9379861D02*
X12743991Y-9398909D01*
X12743991Y-9398909D02*
X12743991Y-9456052D01*
X12743991Y-9456052D02*
X12734467Y-9475099D01*
X12734467Y-9475099D02*
X12724943Y-9484623D01*
X12724943Y-9484623D02*
X12705896Y-9494147D01*
X12705896Y-9494147D02*
X12667801Y-9494147D01*
X12667801Y-9494147D02*
X12648753Y-9484623D01*
X12829705Y-9475099D02*
X12839229Y-9484623D01*
X12839229Y-9484623D02*
X12829705Y-9494147D01*
X12829705Y-9494147D02*
X12820182Y-9484623D01*
X12820182Y-9484623D02*
X12829705Y-9475099D01*
X12829705Y-9475099D02*
X12829705Y-9494147D01*
X12829705Y-9370338D02*
X12839229Y-9379861D01*
X12839229Y-9379861D02*
X12829705Y-9389385D01*
X12829705Y-9389385D02*
X12820182Y-9379861D01*
X12820182Y-9379861D02*
X12829705Y-9370338D01*
X12829705Y-9370338D02*
X12829705Y-9389385D01*
M02*
