G04 #@! TF.GenerationSoftware,KiCad,Pcbnew,7.0.10*
G04 #@! TF.CreationDate,2024-03-08T00:31:45-08:00*
G04 #@! TF.ProjectId,Soil Power Sensor,536f696c-2050-46f7-9765-722053656e73,2.2.0*
G04 #@! TF.SameCoordinates,Original*
G04 #@! TF.FileFunction,Soldermask,Top*
G04 #@! TF.FilePolarity,Negative*
%FSLAX46Y46*%
G04 Gerber Fmt 4.6, Leading zero omitted, Abs format (unit mm)*
G04 Created by KiCad (PCBNEW 7.0.10) date 2024-03-08 00:31:45*
%MOMM*%
%LPD*%
G01*
G04 APERTURE LIST*
G04 Aperture macros list*
%AMRoundRect*
0 Rectangle with rounded corners*
0 $1 Rounding radius*
0 $2 $3 $4 $5 $6 $7 $8 $9 X,Y pos of 4 corners*
0 Add a 4 corners polygon primitive as box body*
4,1,4,$2,$3,$4,$5,$6,$7,$8,$9,$2,$3,0*
0 Add four circle primitives for the rounded corners*
1,1,$1+$1,$2,$3*
1,1,$1+$1,$4,$5*
1,1,$1+$1,$6,$7*
1,1,$1+$1,$8,$9*
0 Add four rect primitives between the rounded corners*
20,1,$1+$1,$2,$3,$4,$5,0*
20,1,$1+$1,$4,$5,$6,$7,0*
20,1,$1+$1,$6,$7,$8,$9,0*
20,1,$1+$1,$8,$9,$2,$3,0*%
%AMFreePoly0*
4,1,19,0.500000,-0.750000,0.000000,-0.750000,0.000000,-0.744911,-0.071157,-0.744911,-0.207708,-0.704816,-0.327430,-0.627875,-0.420627,-0.520320,-0.479746,-0.390866,-0.500000,-0.250000,-0.500000,0.250000,-0.479746,0.390866,-0.420627,0.520320,-0.327430,0.627875,-0.207708,0.704816,-0.071157,0.744911,0.000000,0.744911,0.000000,0.750000,0.500000,0.750000,0.500000,-0.750000,0.500000,-0.750000,
$1*%
%AMFreePoly1*
4,1,19,0.000000,0.744911,0.071157,0.744911,0.207708,0.704816,0.327430,0.627875,0.420627,0.520320,0.479746,0.390866,0.500000,0.250000,0.500000,-0.250000,0.479746,-0.390866,0.420627,-0.520320,0.327430,-0.627875,0.207708,-0.704816,0.071157,-0.744911,0.000000,-0.744911,0.000000,-0.750000,-0.500000,-0.750000,-0.500000,0.750000,0.000000,0.750000,0.000000,0.744911,0.000000,0.744911,
$1*%
G04 Aperture macros list end*
%ADD10R,2.000000X2.000000*%
%ADD11RoundRect,0.200000X0.200000X0.275000X-0.200000X0.275000X-0.200000X-0.275000X0.200000X-0.275000X0*%
%ADD12RoundRect,0.200000X-0.200000X-0.275000X0.200000X-0.275000X0.200000X0.275000X-0.200000X0.275000X0*%
%ADD13R,1.500000X1.000000*%
%ADD14R,1.000000X1.500000*%
%ADD15RoundRect,0.150000X0.512500X0.150000X-0.512500X0.150000X-0.512500X-0.150000X0.512500X-0.150000X0*%
%ADD16R,2.800000X1.000000*%
%ADD17RoundRect,0.150000X-0.587500X-0.150000X0.587500X-0.150000X0.587500X0.150000X-0.587500X0.150000X0*%
%ADD18R,2.600000X2.600000*%
%ADD19C,2.600000*%
%ADD20R,2.600000X1.000000*%
%ADD21R,1.000000X2.600000*%
%ADD22R,1.000000X2.300000*%
%ADD23R,2.300000X1.000000*%
%ADD24R,1.000000X1.000000*%
%ADD25C,5.700000*%
%ADD26C,3.600000*%
%ADD27RoundRect,0.150000X0.150000X-0.587500X0.150000X0.587500X-0.150000X0.587500X-0.150000X-0.587500X0*%
%ADD28C,1.500000*%
%ADD29RoundRect,0.225000X-0.225000X-0.250000X0.225000X-0.250000X0.225000X0.250000X-0.225000X0.250000X0*%
%ADD30RoundRect,0.225000X0.225000X0.250000X-0.225000X0.250000X-0.225000X-0.250000X0.225000X-0.250000X0*%
%ADD31R,1.700000X1.700000*%
%ADD32O,1.700000X1.700000*%
%ADD33RoundRect,0.101600X-0.450000X-0.250000X0.450000X-0.250000X0.450000X0.250000X-0.450000X0.250000X0*%
%ADD34RoundRect,0.101600X-0.990000X-0.265000X0.990000X-0.265000X0.990000X0.265000X-0.990000X0.265000X0*%
%ADD35RoundRect,0.125000X-0.537500X-0.125000X0.537500X-0.125000X0.537500X0.125000X-0.537500X0.125000X0*%
%ADD36RoundRect,0.101600X-2.150000X-0.825000X2.150000X-0.825000X2.150000X0.825000X-2.150000X0.825000X0*%
%ADD37RoundRect,0.150000X-0.512500X-0.150000X0.512500X-0.150000X0.512500X0.150000X-0.512500X0.150000X0*%
%ADD38RoundRect,0.102000X0.350000X0.350000X-0.350000X0.350000X-0.350000X-0.350000X0.350000X-0.350000X0*%
%ADD39RoundRect,0.102000X0.750000X0.450000X-0.750000X0.450000X-0.750000X-0.450000X0.750000X-0.450000X0*%
%ADD40RoundRect,0.200000X-0.275000X0.200000X-0.275000X-0.200000X0.275000X-0.200000X0.275000X0.200000X0*%
%ADD41FreePoly0,270.000000*%
%ADD42FreePoly1,270.000000*%
%ADD43RoundRect,0.076650X-0.809950X-0.229950X0.809950X-0.229950X0.809950X0.229950X-0.809950X0.229950X0*%
%ADD44RoundRect,0.101600X-1.385000X-0.325000X1.385000X-0.325000X1.385000X0.325000X-1.385000X0.325000X0*%
%ADD45FreePoly1,90.000000*%
%ADD46FreePoly0,90.000000*%
%ADD47RoundRect,0.225000X-0.250000X0.225000X-0.250000X-0.225000X0.250000X-0.225000X0.250000X0.225000X0*%
%ADD48RoundRect,0.200000X0.275000X-0.200000X0.275000X0.200000X-0.275000X0.200000X-0.275000X-0.200000X0*%
%ADD49RoundRect,0.050000X-0.225000X0.750000X-0.225000X-0.750000X0.225000X-0.750000X0.225000X0.750000X0*%
G04 APERTURE END LIST*
D10*
X212000000Y-51500000D03*
D11*
X183325000Y-63000000D03*
X181675000Y-63000000D03*
X170500000Y-62000000D03*
X168850000Y-62000000D03*
D12*
X168850000Y-66000000D03*
X170500000Y-66000000D03*
D13*
X210500000Y-84300000D03*
X210500000Y-83000000D03*
X210500000Y-81700000D03*
D14*
X196250000Y-74250000D03*
X194950000Y-74250000D03*
D15*
X177812500Y-70000000D03*
X177812500Y-69050000D03*
X177812500Y-68100000D03*
X175537500Y-68100000D03*
X175537500Y-70000000D03*
D16*
X189900000Y-70000000D03*
X184100000Y-70000000D03*
X184100000Y-74000000D03*
X189900000Y-74000000D03*
X206000000Y-74000000D03*
X200200000Y-74000000D03*
X200200000Y-70000000D03*
X206000000Y-70000000D03*
D17*
X177675000Y-63000000D03*
X175800000Y-63950000D03*
X175800000Y-62050000D03*
D18*
X180550000Y-53050000D03*
D19*
X175550000Y-53050000D03*
X170550000Y-53050000D03*
D20*
X139658455Y-80500000D03*
X157158455Y-50000000D03*
D21*
X163658455Y-56500000D03*
D22*
X163658455Y-51650000D03*
D23*
X134808455Y-80500000D03*
D22*
X133158455Y-78850000D03*
D21*
X133158455Y-56500000D03*
D22*
X133158455Y-51650000D03*
D21*
X163658455Y-61500000D03*
D24*
X163658455Y-80500000D03*
D23*
X162008455Y-50000000D03*
D21*
X163658455Y-69000000D03*
D20*
X144658455Y-80500000D03*
X144658455Y-50000000D03*
D21*
X163658455Y-74000000D03*
X133158455Y-61500000D03*
X133158455Y-74000000D03*
D20*
X139658455Y-50000000D03*
D24*
X133158455Y-80500000D03*
X133158455Y-50000000D03*
D23*
X134808455Y-50000000D03*
D22*
X163658455Y-78850000D03*
D21*
X133158455Y-69000000D03*
D20*
X152158455Y-50000000D03*
D23*
X162008455Y-80500000D03*
D24*
X163658455Y-50000000D03*
D20*
X157158455Y-80500000D03*
X152158455Y-80500000D03*
D18*
X121000000Y-59000000D03*
D19*
X121000000Y-64000000D03*
X121000000Y-69000000D03*
X121000000Y-74000000D03*
X121000000Y-79000000D03*
D25*
X246500000Y-87000000D03*
D26*
X246500000Y-87000000D03*
D25*
X246500000Y-51500000D03*
D26*
X246500000Y-51500000D03*
X116500000Y-87000000D03*
D25*
X116500000Y-87000000D03*
D26*
X116500000Y-51500000D03*
D25*
X116500000Y-51500000D03*
D27*
X169675000Y-70125000D03*
X170625000Y-72000000D03*
X168725000Y-72000000D03*
D28*
X207500000Y-51500000D03*
D12*
X149675000Y-57000000D03*
X151325000Y-57000000D03*
D29*
X159725000Y-67500000D03*
X161275000Y-67500000D03*
D30*
X151225000Y-74000000D03*
X152775000Y-74000000D03*
X151225000Y-77500000D03*
X152775000Y-77500000D03*
X160850000Y-53500000D03*
X159300000Y-53500000D03*
D12*
X149040000Y-70500000D03*
X150690000Y-70500000D03*
D31*
X170775000Y-81500000D03*
D32*
X168235000Y-81500000D03*
D29*
X159725000Y-71000000D03*
X161275000Y-71000000D03*
D28*
X136250000Y-87250000D03*
X160500000Y-87500000D03*
D33*
X203500000Y-60095000D03*
X203500000Y-61365000D03*
X203500000Y-62635000D03*
X203500000Y-63905000D03*
X209500000Y-63905000D03*
X209500000Y-62635000D03*
X209500000Y-61365000D03*
X209500000Y-60095000D03*
D11*
X204175000Y-83000000D03*
X205825000Y-83000000D03*
D34*
X136570000Y-54190000D03*
X136570000Y-55460000D03*
X136570000Y-56730000D03*
X136570000Y-58000000D03*
X141500000Y-58000000D03*
X141500000Y-56730000D03*
X141500000Y-55460000D03*
X141500000Y-54190000D03*
D12*
X146525000Y-67000000D03*
X144875000Y-67000000D03*
D30*
X148000000Y-77500000D03*
X146450000Y-77500000D03*
D12*
X139180000Y-64000000D03*
X137530000Y-64000000D03*
D28*
X144333333Y-87500000D03*
D12*
X200325000Y-80500000D03*
X198675000Y-80500000D03*
D30*
X156775000Y-67500000D03*
X155225000Y-67500000D03*
D29*
X146450000Y-74000000D03*
X148000000Y-74000000D03*
D30*
X194825000Y-69000000D03*
X196375000Y-69000000D03*
D35*
X139500000Y-67200000D03*
X139500000Y-67850000D03*
X139500000Y-68500000D03*
X139500000Y-69150000D03*
X137225000Y-69150000D03*
X137225000Y-68500000D03*
X137225000Y-67850000D03*
X137225000Y-67200000D03*
D29*
X154575000Y-53500000D03*
X156125000Y-53500000D03*
D36*
X239843331Y-62172127D03*
X239843331Y-64712127D03*
X239843331Y-67252127D03*
X239843331Y-69792127D03*
X239843331Y-72332127D03*
X239843331Y-74872127D03*
X239843331Y-77412127D03*
X239843331Y-79952127D03*
X239843331Y-82492127D03*
X239843331Y-85032127D03*
X239843331Y-87572127D03*
X239843331Y-90112127D03*
X216843331Y-90112127D03*
X216843331Y-87572127D03*
X216843331Y-85032127D03*
X216843331Y-82492127D03*
X216843331Y-79952127D03*
X216843331Y-77412127D03*
X216843331Y-74872127D03*
X216843331Y-72332127D03*
X216843331Y-69792127D03*
X216843331Y-67252127D03*
X216843331Y-64712127D03*
X216843331Y-62172127D03*
D37*
X140737500Y-74840000D03*
X140737500Y-75790000D03*
X140737500Y-76740000D03*
X143012500Y-76740000D03*
X143012500Y-74840000D03*
D30*
X137775000Y-76000000D03*
X136225000Y-76000000D03*
D29*
X200275000Y-85000000D03*
X198725000Y-85000000D03*
X200275000Y-89500000D03*
X198725000Y-89500000D03*
D38*
X182190000Y-83700000D03*
X183290000Y-83700000D03*
X184390000Y-83700000D03*
X182190000Y-84800000D03*
X183290000Y-84800000D03*
X184390000Y-84800000D03*
X182190000Y-85900000D03*
X183290000Y-85900000D03*
X184390000Y-85900000D03*
D39*
X175500000Y-91000000D03*
X175500000Y-89500000D03*
X175500000Y-88000000D03*
X175500000Y-86500000D03*
X175500000Y-85000000D03*
X175500000Y-83500000D03*
X175500000Y-82000000D03*
X175500000Y-80500000D03*
X175500000Y-79000000D03*
X193000000Y-79000000D03*
X193000000Y-80500000D03*
X193000000Y-82000000D03*
X193000000Y-83500000D03*
X193000000Y-85000000D03*
X193000000Y-86500000D03*
X193000000Y-88000000D03*
X193000000Y-89500000D03*
X193000000Y-91000000D03*
D40*
X248750000Y-80900000D03*
X248750000Y-79250000D03*
D28*
X152416666Y-87500000D03*
D30*
X178275000Y-74000000D03*
X176725000Y-74000000D03*
D41*
X128500000Y-85000000D03*
D42*
X128500000Y-86300000D03*
D12*
X144595000Y-54000000D03*
X146245000Y-54000000D03*
D43*
X145030000Y-59525000D03*
X145030000Y-60175000D03*
X145030000Y-60825000D03*
X145030000Y-61475000D03*
X145030000Y-62125000D03*
X145030000Y-62775000D03*
X145030000Y-63425000D03*
X145030000Y-64075000D03*
X150770000Y-64075000D03*
X150770000Y-63425000D03*
X150770000Y-62775000D03*
X150770000Y-62125000D03*
X150770000Y-61475000D03*
X150770000Y-60825000D03*
X150770000Y-60175000D03*
X150770000Y-59525000D03*
D32*
X246750000Y-68805000D03*
X246750000Y-66265000D03*
D31*
X246750000Y-63725000D03*
D44*
X191250000Y-49210000D03*
X195280000Y-49210000D03*
X191250000Y-50480000D03*
X195280000Y-50480000D03*
X191250000Y-51750000D03*
X195280000Y-51750000D03*
X191250000Y-53020000D03*
X195280000Y-53020000D03*
X191250000Y-54290000D03*
X195280000Y-54290000D03*
D45*
X128500000Y-71500000D03*
D46*
X128500000Y-72800000D03*
D12*
X144595000Y-57000000D03*
X146245000Y-57000000D03*
D11*
X170325000Y-88000000D03*
X168675000Y-88000000D03*
D28*
X246750000Y-74265000D03*
D47*
X160565000Y-76385000D03*
X160565000Y-74835000D03*
D28*
X246750000Y-58265000D03*
D37*
X157955000Y-74625000D03*
X157955000Y-76525000D03*
X155680000Y-76525000D03*
X155680000Y-75575000D03*
X155680000Y-74625000D03*
D45*
X128500000Y-78200000D03*
D46*
X128500000Y-79500000D03*
D12*
X146500000Y-70500000D03*
X144850000Y-70500000D03*
D48*
X128500000Y-66325000D03*
X128500000Y-64675000D03*
D29*
X205775000Y-87500000D03*
X204225000Y-87500000D03*
D12*
X149075000Y-67000000D03*
X150725000Y-67000000D03*
X149675000Y-54000000D03*
X151325000Y-54000000D03*
D48*
X245000000Y-79250000D03*
X245000000Y-80900000D03*
D49*
X160900000Y-63465000D03*
X160250000Y-63465000D03*
X159600000Y-63465000D03*
X158950000Y-63465000D03*
X158300000Y-63465000D03*
X157650000Y-63465000D03*
X157000000Y-63465000D03*
X156350000Y-63465000D03*
X156350000Y-57665000D03*
X157000000Y-57665000D03*
X157650000Y-57665000D03*
X158300000Y-57665000D03*
X158950000Y-57665000D03*
X159600000Y-57665000D03*
X160250000Y-57665000D03*
X160900000Y-57665000D03*
M02*
