G04 #@! TF.GenerationSoftware,KiCad,Pcbnew,8.0.6*
G04 #@! TF.CreationDate,2024-12-07T18:03:21-08:00*
G04 #@! TF.ProjectId,Soil Power Sensor,536f696c-2050-46f7-9765-722053656e73,2.2.3*
G04 #@! TF.SameCoordinates,Original*
G04 #@! TF.FileFunction,Legend,Bot*
G04 #@! TF.FilePolarity,Positive*
%FSLAX46Y46*%
G04 Gerber Fmt 4.6, Leading zero omitted, Abs format (unit mm)*
G04 Created by KiCad (PCBNEW 8.0.6) date 2024-12-07 18:03:21*
%MOMM*%
%LPD*%
G01*
G04 APERTURE LIST*
%ADD10C,0.000000*%
%ADD11C,0.100000*%
%ADD12C,0.254000*%
%ADD13R,1.700000X1.700000*%
%ADD14O,1.700000X1.700000*%
%ADD15C,3.600000*%
%ADD16C,5.700000*%
%ADD17R,2.600000X2.600000*%
%ADD18C,2.600000*%
G04 APERTURE END LIST*
D10*
G36*
X237665859Y-51073082D02*
G01*
X237698449Y-51074074D01*
X237712337Y-51074944D01*
X237724874Y-51076117D01*
X237736249Y-51077634D01*
X237746652Y-51079534D01*
X237756273Y-51081856D01*
X237765302Y-51084642D01*
X237773928Y-51087931D01*
X237782341Y-51091763D01*
X237790732Y-51096179D01*
X237799288Y-51101217D01*
X237808201Y-51106919D01*
X237817661Y-51113324D01*
X237834384Y-51125533D01*
X237850216Y-51138406D01*
X237865152Y-51151906D01*
X237879187Y-51165994D01*
X237892316Y-51180633D01*
X237904534Y-51195783D01*
X237915837Y-51211408D01*
X237926218Y-51227470D01*
X237935675Y-51243929D01*
X237944200Y-51260749D01*
X237951790Y-51277890D01*
X237958440Y-51295316D01*
X237964145Y-51312988D01*
X237968899Y-51330868D01*
X237972699Y-51348919D01*
X237975538Y-51367101D01*
X237977412Y-51385377D01*
X237978317Y-51403710D01*
X237978247Y-51422060D01*
X237977197Y-51440390D01*
X237975162Y-51458663D01*
X237972138Y-51476839D01*
X237968120Y-51494881D01*
X237963102Y-51512751D01*
X237957080Y-51530411D01*
X237950049Y-51547823D01*
X237942004Y-51564949D01*
X237932939Y-51581751D01*
X237922851Y-51598190D01*
X237911734Y-51614229D01*
X237899583Y-51629830D01*
X237886394Y-51644955D01*
X237880042Y-51651729D01*
X237873570Y-51658407D01*
X237860446Y-51671325D01*
X237847394Y-51683399D01*
X237834782Y-51694321D01*
X237828758Y-51699253D01*
X237822982Y-51703781D01*
X237817502Y-51707866D01*
X237812363Y-51711470D01*
X237807612Y-51714555D01*
X237803296Y-51717080D01*
X237799460Y-51719009D01*
X237796150Y-51720302D01*
X237793916Y-51721056D01*
X237791794Y-51721870D01*
X237789781Y-51722753D01*
X237787873Y-51723715D01*
X237786070Y-51724763D01*
X237784367Y-51725907D01*
X237782762Y-51727156D01*
X237781252Y-51728518D01*
X237779835Y-51730002D01*
X237778509Y-51731617D01*
X237777270Y-51733372D01*
X237776116Y-51735276D01*
X237775044Y-51737338D01*
X237774051Y-51739566D01*
X237773136Y-51741969D01*
X237772294Y-51744557D01*
X237771524Y-51747337D01*
X237770824Y-51750320D01*
X237770189Y-51753513D01*
X237769618Y-51756926D01*
X237769108Y-51760567D01*
X237768656Y-51764446D01*
X237768260Y-51768570D01*
X237767917Y-51772950D01*
X237767624Y-51777593D01*
X237767379Y-51782510D01*
X237767021Y-51793195D01*
X237766821Y-51805078D01*
X237766760Y-51818228D01*
X237767301Y-51842693D01*
X237768912Y-51867042D01*
X237771571Y-51891247D01*
X237775258Y-51915281D01*
X237785629Y-51962722D01*
X237799857Y-52009143D01*
X237817774Y-52054322D01*
X237839213Y-52098035D01*
X237864005Y-52140061D01*
X237891983Y-52180178D01*
X237922978Y-52218162D01*
X237956822Y-52253791D01*
X237993349Y-52286844D01*
X238032389Y-52317097D01*
X238073774Y-52344328D01*
X238117338Y-52368315D01*
X238162911Y-52388835D01*
X238186399Y-52397725D01*
X238210327Y-52405666D01*
X238223022Y-52409428D01*
X238235930Y-52412935D01*
X238249062Y-52416188D01*
X238262431Y-52419190D01*
X238276052Y-52421942D01*
X238289937Y-52424445D01*
X238318552Y-52428714D01*
X238348383Y-52432011D01*
X238379534Y-52434349D01*
X238412112Y-52435742D01*
X238446221Y-52436203D01*
X238583247Y-52436203D01*
X238583247Y-53009797D01*
X238548585Y-52999930D01*
X238514588Y-52991407D01*
X238477620Y-52984262D01*
X238438099Y-52978481D01*
X238396447Y-52974049D01*
X238353083Y-52970955D01*
X238308428Y-52969183D01*
X238262901Y-52968721D01*
X238216923Y-52969555D01*
X238170914Y-52971672D01*
X238125294Y-52975058D01*
X238080484Y-52979700D01*
X238036902Y-52985585D01*
X237994970Y-52992698D01*
X237955108Y-53001026D01*
X237917735Y-53010556D01*
X237883271Y-53021275D01*
X237830674Y-53041026D01*
X237779216Y-53063648D01*
X237729016Y-53089031D01*
X237680192Y-53117063D01*
X237632861Y-53147635D01*
X237587142Y-53180635D01*
X237543152Y-53215953D01*
X237501010Y-53253479D01*
X237460834Y-53293102D01*
X237422742Y-53334711D01*
X237386851Y-53378196D01*
X237353280Y-53423446D01*
X237322147Y-53470350D01*
X237293569Y-53518798D01*
X237267665Y-53568680D01*
X237244553Y-53619884D01*
X237231995Y-53650977D01*
X237220834Y-53681414D01*
X237210990Y-53712222D01*
X237202380Y-53744428D01*
X237194924Y-53779059D01*
X237188540Y-53817140D01*
X237183147Y-53859699D01*
X237178663Y-53907761D01*
X237175007Y-53962354D01*
X237172097Y-54024503D01*
X237169853Y-54095236D01*
X237168192Y-54175578D01*
X237167033Y-54266556D01*
X237166295Y-54369198D01*
X237165757Y-54613574D01*
X237165557Y-55293910D01*
X237113181Y-55327827D01*
X237096326Y-55339622D01*
X237080003Y-55352776D01*
X237064289Y-55367160D01*
X237049260Y-55382641D01*
X237034993Y-55399090D01*
X237021565Y-55416375D01*
X237009052Y-55434364D01*
X236997531Y-55452928D01*
X236987078Y-55471935D01*
X236977771Y-55491253D01*
X236969685Y-55510753D01*
X236962897Y-55530303D01*
X236957485Y-55549772D01*
X236953524Y-55569028D01*
X236952111Y-55578536D01*
X236951091Y-55587942D01*
X236950471Y-55597230D01*
X236950263Y-55606382D01*
X236950761Y-55622199D01*
X236952235Y-55638013D01*
X236954651Y-55653791D01*
X236957977Y-55669501D01*
X236962181Y-55685109D01*
X236967231Y-55700582D01*
X236973094Y-55715889D01*
X236979738Y-55730996D01*
X236987130Y-55745871D01*
X236995238Y-55760481D01*
X237004030Y-55774793D01*
X237013472Y-55788775D01*
X237023534Y-55802394D01*
X237034182Y-55815617D01*
X237045384Y-55828411D01*
X237057107Y-55840744D01*
X237069320Y-55852583D01*
X237081989Y-55863895D01*
X237095083Y-55874648D01*
X237108568Y-55884808D01*
X237122414Y-55894344D01*
X237136586Y-55903222D01*
X237151054Y-55911410D01*
X237165783Y-55918875D01*
X237180743Y-55925584D01*
X237195901Y-55931505D01*
X237211223Y-55936605D01*
X237226679Y-55940851D01*
X237242235Y-55944210D01*
X237257859Y-55946650D01*
X237273519Y-55948138D01*
X237289182Y-55948641D01*
X237305124Y-55948134D01*
X237321033Y-55946636D01*
X237336878Y-55944179D01*
X237352627Y-55940794D01*
X237368249Y-55936515D01*
X237383712Y-55931372D01*
X237398987Y-55925399D01*
X237414040Y-55918628D01*
X237428841Y-55911090D01*
X237443358Y-55902818D01*
X237457562Y-55893844D01*
X237471419Y-55884200D01*
X237484899Y-55873919D01*
X237497970Y-55863032D01*
X237510602Y-55851572D01*
X237522763Y-55839571D01*
X237534421Y-55827062D01*
X237545546Y-55814075D01*
X237556106Y-55800644D01*
X237566070Y-55786801D01*
X237575407Y-55772577D01*
X237584085Y-55758006D01*
X237592074Y-55743118D01*
X237599341Y-55727947D01*
X237605855Y-55712525D01*
X237611586Y-55696883D01*
X237616502Y-55681055D01*
X237620572Y-55665071D01*
X237623764Y-55648965D01*
X237626048Y-55632768D01*
X237627391Y-55616512D01*
X237627763Y-55600231D01*
X237627449Y-55591209D01*
X237626652Y-55581963D01*
X237623674Y-55562899D01*
X237618951Y-55543235D01*
X237612606Y-55523168D01*
X237604763Y-55502897D01*
X237595544Y-55482619D01*
X237585073Y-55462531D01*
X237573473Y-55442830D01*
X237560867Y-55423715D01*
X237547377Y-55405381D01*
X237533128Y-55388027D01*
X237518242Y-55371850D01*
X237502842Y-55357048D01*
X237487051Y-55343818D01*
X237470993Y-55332356D01*
X237454791Y-55322862D01*
X237412426Y-55300822D01*
X237412426Y-54595804D01*
X237413367Y-54235925D01*
X237416901Y-54007353D01*
X237419974Y-53931064D01*
X237424095Y-53874111D01*
X237429397Y-53831996D01*
X237436015Y-53800223D01*
X237443766Y-53772597D01*
X237452511Y-53745379D01*
X237472892Y-53692253D01*
X237496978Y-53641009D01*
X237524593Y-53591812D01*
X237555556Y-53544825D01*
X237589691Y-53500212D01*
X237626817Y-53458137D01*
X237666758Y-53418765D01*
X237709335Y-53382259D01*
X237754368Y-53348784D01*
X237801680Y-53318504D01*
X237851093Y-53291582D01*
X237902428Y-53268183D01*
X237955506Y-53248471D01*
X238010149Y-53232609D01*
X238038001Y-53226174D01*
X238066179Y-53220763D01*
X238094094Y-53216573D01*
X238123789Y-53213290D01*
X238154967Y-53210895D01*
X238187332Y-53209369D01*
X238220586Y-53208694D01*
X238254432Y-53208850D01*
X238288574Y-53209820D01*
X238322714Y-53211583D01*
X238356555Y-53214122D01*
X238389800Y-53217417D01*
X238422153Y-53221450D01*
X238453316Y-53226201D01*
X238482992Y-53231653D01*
X238510884Y-53237786D01*
X238536696Y-53244582D01*
X238560130Y-53252021D01*
X238593796Y-53264795D01*
X238627135Y-53279388D01*
X238660036Y-53295708D01*
X238692390Y-53313662D01*
X238724089Y-53333158D01*
X238755022Y-53354102D01*
X238785079Y-53376402D01*
X238814153Y-53399967D01*
X238842133Y-53424701D01*
X238868909Y-53450515D01*
X238894373Y-53477313D01*
X238918414Y-53505005D01*
X238940924Y-53533497D01*
X238961793Y-53562697D01*
X238980912Y-53592512D01*
X238998170Y-53622849D01*
X239012911Y-53651205D01*
X239026039Y-53678246D01*
X239037646Y-53704610D01*
X239047822Y-53730936D01*
X239056659Y-53757862D01*
X239064248Y-53786028D01*
X239070682Y-53816072D01*
X239076050Y-53848634D01*
X239080445Y-53884351D01*
X239083957Y-53923862D01*
X239086678Y-53967807D01*
X239088700Y-54016825D01*
X239090114Y-54071553D01*
X239091010Y-54132631D01*
X239091618Y-54276392D01*
X239091618Y-54661998D01*
X239681382Y-55252345D01*
X239626091Y-55351216D01*
X239613521Y-55373065D01*
X239598965Y-55397290D01*
X239582945Y-55423088D01*
X239565981Y-55449652D01*
X239548594Y-55476178D01*
X239531305Y-55501861D01*
X239514635Y-55525896D01*
X239499104Y-55547478D01*
X239427410Y-55644868D01*
X239059243Y-55276941D01*
X238691077Y-54909015D01*
X238690917Y-54415921D01*
X238690172Y-54133229D01*
X238688730Y-54042716D01*
X238686042Y-53977669D01*
X238681708Y-53931771D01*
X238678798Y-53914029D01*
X238675326Y-53898705D01*
X238666497Y-53872154D01*
X238654821Y-53845800D01*
X238647340Y-53830521D01*
X238639384Y-53815725D01*
X238630959Y-53801414D01*
X238622071Y-53787592D01*
X238612725Y-53774261D01*
X238602926Y-53761424D01*
X238592680Y-53749084D01*
X238581992Y-53737244D01*
X238570867Y-53725906D01*
X238559312Y-53715074D01*
X238547330Y-53704750D01*
X238534929Y-53694938D01*
X238522113Y-53685639D01*
X238508888Y-53676858D01*
X238495259Y-53668596D01*
X238481231Y-53660857D01*
X238466810Y-53653643D01*
X238452002Y-53646957D01*
X238436811Y-53640803D01*
X238421244Y-53635182D01*
X238405305Y-53630099D01*
X238389000Y-53625555D01*
X238372335Y-53621553D01*
X238355315Y-53618098D01*
X238337945Y-53615190D01*
X238320231Y-53612833D01*
X238302178Y-53611030D01*
X238283791Y-53609784D01*
X238265077Y-53609098D01*
X238246040Y-53608974D01*
X238226686Y-53609416D01*
X238207020Y-53610426D01*
X238175265Y-53613363D01*
X238144709Y-53617948D01*
X238115355Y-53624176D01*
X238087206Y-53632046D01*
X238060268Y-53641554D01*
X238034544Y-53652697D01*
X238010038Y-53665474D01*
X237986755Y-53679881D01*
X237964698Y-53695916D01*
X237943871Y-53713576D01*
X237924279Y-53732858D01*
X237905926Y-53753759D01*
X237888815Y-53776276D01*
X237872951Y-53800408D01*
X237858337Y-53826151D01*
X237844979Y-53853502D01*
X237839578Y-53866029D01*
X237837127Y-53872479D01*
X237834835Y-53879339D01*
X237832697Y-53886821D01*
X237830707Y-53895141D01*
X237828860Y-53904510D01*
X237827150Y-53915144D01*
X237825572Y-53927256D01*
X237824122Y-53941059D01*
X237822792Y-53956768D01*
X237821578Y-53974595D01*
X237820475Y-53994755D01*
X237819476Y-54017461D01*
X237817773Y-54071368D01*
X237816425Y-54138023D01*
X237815388Y-54219137D01*
X237814621Y-54316420D01*
X237814078Y-54431581D01*
X237813496Y-54722374D01*
X237813297Y-55105194D01*
X237812936Y-56287561D01*
X238044018Y-56287561D01*
X238044018Y-55139361D01*
X238045213Y-54429322D01*
X238048011Y-54209402D01*
X238053432Y-54059860D01*
X238062346Y-53965930D01*
X238068384Y-53935205D01*
X238075621Y-53912845D01*
X238084165Y-53897006D01*
X238094126Y-53885840D01*
X238118729Y-53870148D01*
X238122465Y-53868452D01*
X238127212Y-53866804D01*
X238132898Y-53865212D01*
X238139449Y-53863685D01*
X238146795Y-53862231D01*
X238154862Y-53860858D01*
X238163580Y-53859576D01*
X238172875Y-53858392D01*
X238192910Y-53856355D01*
X238214391Y-53854816D01*
X238236740Y-53853842D01*
X238248061Y-53853589D01*
X238259382Y-53853502D01*
X238291855Y-53853771D01*
X238305712Y-53854159D01*
X238318163Y-53854762D01*
X238329340Y-53855614D01*
X238339380Y-53856750D01*
X238348416Y-53858205D01*
X238356582Y-53860013D01*
X238364013Y-53862207D01*
X238370844Y-53864824D01*
X238377209Y-53867897D01*
X238383242Y-53871461D01*
X238389078Y-53875551D01*
X238394851Y-53880200D01*
X238400696Y-53885443D01*
X238406746Y-53891316D01*
X238444559Y-53929129D01*
X238444559Y-55001377D01*
X238968344Y-55524991D01*
X239492128Y-56048606D01*
X239491768Y-56788151D01*
X239490827Y-57194395D01*
X239489456Y-57327767D01*
X239487133Y-57424408D01*
X239483595Y-57491644D01*
X239478576Y-57536803D01*
X239471813Y-57567212D01*
X239463042Y-57590196D01*
X239452023Y-57609638D01*
X239431063Y-57642071D01*
X239364647Y-57738634D01*
X239274447Y-57865338D01*
X239171114Y-58007636D01*
X238967654Y-58280824D01*
X238888831Y-58382619D01*
X238839481Y-58441819D01*
X238834239Y-58447230D01*
X238828516Y-58452828D01*
X238822370Y-58458570D01*
X238815856Y-58464412D01*
X238809031Y-58470312D01*
X238801951Y-58476225D01*
X238787252Y-58487919D01*
X238772211Y-58499145D01*
X238764702Y-58504475D01*
X238757277Y-58509558D01*
X238749992Y-58514350D01*
X238742903Y-58518808D01*
X238736066Y-58522889D01*
X238729538Y-58526549D01*
X238718439Y-58532370D01*
X238712874Y-58535009D01*
X238707045Y-58537477D01*
X238700763Y-58539780D01*
X238693835Y-58541924D01*
X238686072Y-58543917D01*
X238677284Y-58545766D01*
X238667279Y-58547476D01*
X238655868Y-58549054D01*
X238642860Y-58550508D01*
X238628065Y-58551845D01*
X238611292Y-58553069D01*
X238592350Y-58554190D01*
X238571050Y-58555212D01*
X238547200Y-58556144D01*
X238520611Y-58556991D01*
X238491092Y-58557760D01*
X238422502Y-58559093D01*
X238339906Y-58560196D01*
X238241781Y-58561123D01*
X238126604Y-58561927D01*
X237992850Y-58562662D01*
X237663521Y-58564140D01*
X236659125Y-58568422D01*
X236649796Y-59530406D01*
X236303174Y-60152230D01*
X236118383Y-60481170D01*
X236052076Y-60596108D01*
X235998887Y-60684976D01*
X235955612Y-60752985D01*
X235919044Y-60805349D01*
X235885979Y-60847279D01*
X235853212Y-60883988D01*
X235749872Y-60993922D01*
X235749214Y-59827203D01*
X235748555Y-58660485D01*
X235838414Y-58559863D01*
X236240242Y-58555280D01*
X236642070Y-58550695D01*
X236642070Y-58321073D01*
X236233352Y-58321073D01*
X236085000Y-58321371D01*
X235970705Y-58322922D01*
X235924406Y-58324477D01*
X235884314Y-58326716D01*
X235849660Y-58329763D01*
X235819675Y-58333742D01*
X235793590Y-58338775D01*
X235770637Y-58344988D01*
X235750045Y-58352502D01*
X235731046Y-58361443D01*
X235712871Y-58371933D01*
X235694752Y-58384096D01*
X235655601Y-58413936D01*
X235649142Y-58419319D01*
X235642483Y-58425380D01*
X235635670Y-58432059D01*
X235628745Y-58439300D01*
X235621754Y-58447045D01*
X235614738Y-58455236D01*
X235607744Y-58463814D01*
X235600814Y-58472723D01*
X235593993Y-58481905D01*
X235587324Y-58491301D01*
X235580852Y-58500854D01*
X235574620Y-58510507D01*
X235568672Y-58520200D01*
X235563052Y-58529877D01*
X235557804Y-58539480D01*
X235552973Y-58548951D01*
X235509792Y-58636884D01*
X235505591Y-59894744D01*
X235501389Y-61152605D01*
X235442690Y-61176091D01*
X235424244Y-61182998D01*
X235403734Y-61189810D01*
X235381427Y-61196478D01*
X235357586Y-61202954D01*
X235306363Y-61215138D01*
X235252188Y-61225974D01*
X235197179Y-61235076D01*
X235143456Y-61242056D01*
X235117740Y-61244629D01*
X235093139Y-61246527D01*
X235069921Y-61247702D01*
X235048349Y-61248104D01*
X234947569Y-61248104D01*
X234947622Y-60508647D01*
X234948616Y-60190067D01*
X234951554Y-59958437D01*
X234956366Y-59817047D01*
X234959453Y-59781220D01*
X234961163Y-59772204D01*
X234962983Y-59769187D01*
X234965949Y-59768859D01*
X234969370Y-59767896D01*
X234973217Y-59766329D01*
X234977459Y-59764187D01*
X234987009Y-59758302D01*
X234997780Y-59750484D01*
X235009535Y-59740976D01*
X235022032Y-59730022D01*
X235035034Y-59717863D01*
X235048300Y-59704743D01*
X235061592Y-59690906D01*
X235074669Y-59676593D01*
X235087293Y-59662048D01*
X235099224Y-59647514D01*
X235110223Y-59633233D01*
X235120051Y-59619450D01*
X235128467Y-59606406D01*
X235135233Y-59594345D01*
X235139586Y-59585524D01*
X235143510Y-59576930D01*
X235147020Y-59568484D01*
X235150126Y-59560109D01*
X235152842Y-59551730D01*
X235155179Y-59543268D01*
X235157150Y-59534647D01*
X235158768Y-59525790D01*
X235160044Y-59516619D01*
X235160991Y-59507058D01*
X235161622Y-59497030D01*
X235161949Y-59486457D01*
X235161984Y-59475263D01*
X235161739Y-59463371D01*
X235161227Y-59450704D01*
X235160461Y-59437184D01*
X235158554Y-59415722D01*
X235155613Y-59394932D01*
X235151645Y-59374823D01*
X235146655Y-59355407D01*
X235140651Y-59336694D01*
X235133639Y-59318697D01*
X235125626Y-59301426D01*
X235116617Y-59284891D01*
X235106620Y-59269105D01*
X235095640Y-59254077D01*
X235083685Y-59239820D01*
X235070761Y-59226343D01*
X235056874Y-59213659D01*
X235042030Y-59201778D01*
X235026237Y-59190710D01*
X235009501Y-59180468D01*
X234947859Y-59145267D01*
X234947991Y-58829455D01*
X234948947Y-58705079D01*
X234952007Y-58600732D01*
X234954486Y-58555032D01*
X234957682Y-58513093D01*
X234961660Y-58474502D01*
X234966482Y-58438842D01*
X234972214Y-58405698D01*
X234978919Y-58374656D01*
X234986660Y-58345300D01*
X234995501Y-58317215D01*
X234999744Y-58305670D01*
X236657623Y-58305670D01*
X237611757Y-58305670D01*
X237985043Y-58304598D01*
X238296090Y-58301680D01*
X238512420Y-58297361D01*
X238574917Y-58294816D01*
X238601555Y-58292087D01*
X238601556Y-58292088D01*
X238603856Y-58290866D01*
X238606823Y-58288704D01*
X238614703Y-58281636D01*
X238625076Y-58271031D01*
X238637828Y-58257034D01*
X238652840Y-58239792D01*
X238669997Y-58219449D01*
X238710275Y-58170046D01*
X238757726Y-58109993D01*
X238811417Y-58040455D01*
X238870412Y-57962599D01*
X238933776Y-57877592D01*
X239230330Y-57476682D01*
X239230330Y-55840448D01*
X239148629Y-55906994D01*
X239110224Y-55937020D01*
X239068630Y-55967228D01*
X239024579Y-55997166D01*
X238978800Y-56026382D01*
X238932026Y-56054423D01*
X238884986Y-56080837D01*
X238838412Y-56105173D01*
X238793033Y-56126979D01*
X238706545Y-56166575D01*
X238706545Y-57144215D01*
X238667775Y-57220415D01*
X238662848Y-57229333D01*
X238656140Y-57240266D01*
X238637851Y-57267568D01*
X238613838Y-57301096D01*
X238585034Y-57339625D01*
X238552370Y-57381928D01*
X238516780Y-57426780D01*
X238479194Y-57472956D01*
X238440545Y-57519229D01*
X238389793Y-57578601D01*
X238346045Y-57628417D01*
X238308316Y-57669651D01*
X238275621Y-57703274D01*
X238260855Y-57717535D01*
X238246977Y-57730260D01*
X238233866Y-57741567D01*
X238221399Y-57751581D01*
X238209452Y-57760421D01*
X238197902Y-57768211D01*
X238186626Y-57775070D01*
X238175501Y-57781121D01*
X238098916Y-57820400D01*
X237378270Y-57824823D01*
X236657623Y-57829256D01*
X236657623Y-58305670D01*
X234999744Y-58305670D01*
X235005507Y-58289986D01*
X235016741Y-58263197D01*
X235029267Y-58236434D01*
X235043148Y-58209282D01*
X235055398Y-58187487D01*
X235069153Y-58165369D01*
X235084275Y-58143069D01*
X235100626Y-58120732D01*
X235118065Y-58098499D01*
X235136453Y-58076515D01*
X235155653Y-58054922D01*
X235175524Y-58033863D01*
X235195928Y-58013481D01*
X235216726Y-57993919D01*
X235237779Y-57975321D01*
X235258947Y-57957829D01*
X235280092Y-57941587D01*
X235301075Y-57926736D01*
X235321756Y-57913422D01*
X235341997Y-57901785D01*
X235369710Y-57887231D01*
X235396123Y-57874343D01*
X235422116Y-57863022D01*
X235448566Y-57853167D01*
X235462238Y-57848758D01*
X235476354Y-57844678D01*
X235491024Y-57840914D01*
X235506358Y-57837453D01*
X235522465Y-57834284D01*
X235539456Y-57831394D01*
X235555325Y-57829256D01*
X235576529Y-57826398D01*
X235618455Y-57822367D01*
X235666113Y-57819199D01*
X235720382Y-57816793D01*
X235782140Y-57815051D01*
X235852268Y-57813870D01*
X235931644Y-57813151D01*
X236121655Y-57812697D01*
X236642202Y-57812697D01*
X236642202Y-57566210D01*
X236140875Y-57566210D01*
X235890812Y-57567312D01*
X235796064Y-57568842D01*
X235718026Y-57571159D01*
X235654090Y-57574366D01*
X235601648Y-57578564D01*
X235558089Y-57583853D01*
X235520807Y-57590337D01*
X235451138Y-57607287D01*
X235383043Y-57629378D01*
X235316782Y-57656360D01*
X235252613Y-57687985D01*
X235190794Y-57724006D01*
X235131585Y-57764175D01*
X235075243Y-57808243D01*
X235022028Y-57855961D01*
X234972199Y-57907083D01*
X234926013Y-57961360D01*
X234883729Y-58018544D01*
X234845607Y-58078387D01*
X234811904Y-58140640D01*
X234782880Y-58205056D01*
X234758793Y-58271386D01*
X234739901Y-58339383D01*
X234736881Y-58353323D01*
X234734101Y-58368570D01*
X234731555Y-58385254D01*
X234729235Y-58403500D01*
X234727136Y-58423438D01*
X234725250Y-58445196D01*
X234722094Y-58494678D01*
X234719715Y-58552972D01*
X234718059Y-58621098D01*
X234717074Y-58700081D01*
X234716709Y-58790942D01*
X234716449Y-59145267D01*
X234659283Y-59176077D01*
X234653217Y-59179563D01*
X234646845Y-59183630D01*
X234640220Y-59188230D01*
X234633396Y-59193312D01*
X234626425Y-59198826D01*
X234619361Y-59204722D01*
X234612258Y-59210950D01*
X234605169Y-59217460D01*
X234598146Y-59224202D01*
X234591244Y-59231126D01*
X234584515Y-59238182D01*
X234578013Y-59245320D01*
X234571791Y-59252490D01*
X234565902Y-59259641D01*
X234560400Y-59266724D01*
X234555338Y-59273689D01*
X234547837Y-59284554D01*
X234541174Y-59294613D01*
X234535302Y-59304060D01*
X234530170Y-59313090D01*
X234525731Y-59321897D01*
X234521934Y-59330678D01*
X234520262Y-59335119D01*
X234518731Y-59339626D01*
X234517338Y-59344224D01*
X234516074Y-59348937D01*
X234513913Y-59358805D01*
X234512198Y-59369426D01*
X234510882Y-59380995D01*
X234509915Y-59393706D01*
X234509248Y-59407754D01*
X234508832Y-59423334D01*
X234508619Y-59440642D01*
X234508559Y-59459871D01*
X234508849Y-59495590D01*
X234509271Y-59510938D01*
X234509931Y-59524837D01*
X234510869Y-59537457D01*
X234512123Y-59548967D01*
X234513734Y-59559536D01*
X234515742Y-59569334D01*
X234518185Y-59578529D01*
X234521105Y-59587291D01*
X234524540Y-59595790D01*
X234528529Y-59604195D01*
X234533114Y-59612674D01*
X234538333Y-59621398D01*
X234544226Y-59630535D01*
X234550833Y-59640255D01*
X234555457Y-59646665D01*
X234560576Y-59653280D01*
X234566136Y-59660050D01*
X234572084Y-59666924D01*
X234578367Y-59673851D01*
X234584932Y-59680781D01*
X234591725Y-59687663D01*
X234598695Y-59694445D01*
X234605787Y-59701079D01*
X234612949Y-59707512D01*
X234620127Y-59713695D01*
X234627268Y-59719576D01*
X234634319Y-59725105D01*
X234641228Y-59730231D01*
X234647941Y-59734904D01*
X234654404Y-59739072D01*
X234715703Y-59776889D01*
X234716095Y-60488707D01*
X234716487Y-61200524D01*
X234653644Y-61178352D01*
X234630768Y-61169885D01*
X234607811Y-61160605D01*
X234584810Y-61150535D01*
X234561802Y-61139698D01*
X234538824Y-61128117D01*
X234515913Y-61115814D01*
X234493107Y-61102814D01*
X234470442Y-61089139D01*
X234447955Y-61074811D01*
X234425685Y-61059855D01*
X234403667Y-61044292D01*
X234381939Y-61028147D01*
X234360538Y-61011441D01*
X234339501Y-60994198D01*
X234318865Y-60976442D01*
X234298667Y-60958194D01*
X234191044Y-60858552D01*
X234196332Y-59485827D01*
X234199943Y-58695670D01*
X234205302Y-58273985D01*
X234209753Y-58158797D01*
X234215980Y-58084699D01*
X234224430Y-58034682D01*
X234235549Y-57991736D01*
X234253825Y-57931490D01*
X234274523Y-57872787D01*
X234297607Y-57815674D01*
X234323045Y-57760196D01*
X234350801Y-57706400D01*
X234380840Y-57654332D01*
X234413129Y-57604037D01*
X234447632Y-57555563D01*
X234451377Y-57550805D01*
X236657632Y-57550805D01*
X237339746Y-57550805D01*
X237699998Y-57550000D01*
X237911245Y-57546617D01*
X237974282Y-57543504D01*
X238016015Y-57539203D01*
X238041760Y-57533532D01*
X238056833Y-57526308D01*
X238056824Y-57526309D01*
X238061262Y-57522766D01*
X238067294Y-57517269D01*
X238074813Y-57509932D01*
X238083718Y-57500872D01*
X238105261Y-57478047D01*
X238131088Y-57449722D01*
X238160363Y-57416826D01*
X238192251Y-57380285D01*
X238225916Y-57341030D01*
X238260522Y-57299987D01*
X238429247Y-57098162D01*
X238429247Y-56253156D01*
X238394586Y-56262868D01*
X238384557Y-56265197D01*
X238369275Y-56268104D01*
X238349497Y-56271471D01*
X238325983Y-56275183D01*
X238299490Y-56279124D01*
X238270776Y-56283177D01*
X238240600Y-56287226D01*
X238209720Y-56291156D01*
X238059517Y-56309733D01*
X238059157Y-56548985D01*
X238058822Y-56616863D01*
X238057888Y-56672643D01*
X238056191Y-56718060D01*
X238053569Y-56754851D01*
X238049857Y-56784749D01*
X238047542Y-56797657D01*
X238044894Y-56809493D01*
X238041891Y-56820473D01*
X238038514Y-56830816D01*
X238030557Y-56850455D01*
X238022976Y-56865409D01*
X238013697Y-56880780D01*
X238002891Y-56896417D01*
X237990726Y-56912167D01*
X237977373Y-56927881D01*
X237963001Y-56943408D01*
X237947780Y-56958595D01*
X237931879Y-56973293D01*
X237915469Y-56987350D01*
X237898719Y-57000615D01*
X237881798Y-57012937D01*
X237864877Y-57024165D01*
X237848124Y-57034149D01*
X237831711Y-57042736D01*
X237815806Y-57049777D01*
X237800579Y-57055120D01*
X237791072Y-57057366D01*
X237778034Y-57059457D01*
X237761419Y-57061395D01*
X237741180Y-57063180D01*
X237689646Y-57066299D01*
X237623064Y-57068826D01*
X237541064Y-57070773D01*
X237443275Y-57072149D01*
X237329329Y-57072967D01*
X237198855Y-57073237D01*
X236657632Y-57073237D01*
X236657632Y-57550805D01*
X234451377Y-57550805D01*
X234484316Y-57508955D01*
X234523145Y-57464258D01*
X234564086Y-57421520D01*
X234607103Y-57380786D01*
X234652163Y-57342102D01*
X234699230Y-57305515D01*
X234748271Y-57271070D01*
X234799250Y-57238814D01*
X234823587Y-57224735D01*
X234849298Y-57210832D01*
X234876162Y-57197185D01*
X234903959Y-57183875D01*
X234932467Y-57170985D01*
X234961465Y-57158595D01*
X235020049Y-57135642D01*
X235049193Y-57125242D01*
X235077944Y-57115668D01*
X235106081Y-57107002D01*
X235133382Y-57099325D01*
X235159628Y-57092719D01*
X235184596Y-57087264D01*
X235208067Y-57083043D01*
X235229818Y-57080136D01*
X235309595Y-57071620D01*
X235351233Y-57141537D01*
X235359990Y-57155524D01*
X235369201Y-57168828D01*
X235378885Y-57181462D01*
X235389060Y-57193439D01*
X235399743Y-57204772D01*
X235410953Y-57215474D01*
X235422708Y-57225559D01*
X235435025Y-57235040D01*
X235447924Y-57243929D01*
X235461421Y-57252240D01*
X235475535Y-57259987D01*
X235490285Y-57267182D01*
X235505688Y-57273838D01*
X235521763Y-57279970D01*
X235538526Y-57285589D01*
X235555998Y-57290709D01*
X235568520Y-57293749D01*
X235581261Y-57296096D01*
X235594193Y-57297763D01*
X235607287Y-57298765D01*
X235620514Y-57299114D01*
X235633846Y-57298825D01*
X235660714Y-57296388D01*
X235687663Y-57291562D01*
X235714465Y-57284457D01*
X235740895Y-57275183D01*
X235766724Y-57263851D01*
X235791727Y-57250570D01*
X235815676Y-57235449D01*
X235838345Y-57218600D01*
X235859506Y-57200131D01*
X235878933Y-57180152D01*
X235887925Y-57169631D01*
X235896398Y-57158774D01*
X235904325Y-57147594D01*
X235911676Y-57136106D01*
X235918423Y-57124323D01*
X235924538Y-57112258D01*
X235943055Y-57073237D01*
X235950366Y-57057830D01*
X236642164Y-57057830D01*
X236642164Y-56826749D01*
X235949554Y-56826749D01*
X235934529Y-56811345D01*
X235868358Y-56743503D01*
X235848271Y-56723748D01*
X235828367Y-56705894D01*
X235808580Y-56689922D01*
X235788840Y-56675811D01*
X235769080Y-56663541D01*
X235759170Y-56658091D01*
X235749230Y-56653093D01*
X235739250Y-56648545D01*
X235729222Y-56644446D01*
X235719138Y-56640791D01*
X235708989Y-56637579D01*
X235698766Y-56634808D01*
X235688462Y-56632474D01*
X235678066Y-56630575D01*
X235667572Y-56629110D01*
X235656970Y-56628074D01*
X235646251Y-56627466D01*
X235635408Y-56627283D01*
X235624431Y-56627523D01*
X235602043Y-56629261D01*
X235579020Y-56632659D01*
X235555292Y-56637698D01*
X235530792Y-56644358D01*
X235517801Y-56648862D01*
X235504017Y-56654764D01*
X235489642Y-56661903D01*
X235474878Y-56670120D01*
X235459926Y-56679254D01*
X235444990Y-56689147D01*
X235430269Y-56699638D01*
X235415966Y-56710568D01*
X235402284Y-56721777D01*
X235389423Y-56733107D01*
X235377585Y-56744396D01*
X235366973Y-56755485D01*
X235357788Y-56766215D01*
X235350232Y-56776426D01*
X235344506Y-56785959D01*
X235342393Y-56790421D01*
X235340813Y-56794653D01*
X235340120Y-56796644D01*
X235339322Y-56798567D01*
X235338414Y-56800425D01*
X235337393Y-56802219D01*
X235336253Y-56803952D01*
X235334990Y-56805625D01*
X235333600Y-56807239D01*
X235332077Y-56808798D01*
X235330417Y-56810303D01*
X235328615Y-56811755D01*
X235326667Y-56813157D01*
X235324569Y-56814510D01*
X235322314Y-56815817D01*
X235319900Y-56817079D01*
X235317321Y-56818299D01*
X235314572Y-56819477D01*
X235311650Y-56820616D01*
X235308549Y-56821719D01*
X235305264Y-56822786D01*
X235301792Y-56823819D01*
X235298127Y-56824821D01*
X235294265Y-56825794D01*
X235290201Y-56826739D01*
X235285931Y-56827658D01*
X235276753Y-56829426D01*
X235266693Y-56831114D01*
X235255716Y-56832736D01*
X235243783Y-56834309D01*
X235203136Y-56840212D01*
X235161601Y-56847845D01*
X235119352Y-56857136D01*
X235076567Y-56868016D01*
X235033422Y-56880414D01*
X234990094Y-56894259D01*
X234946759Y-56909482D01*
X234903593Y-56926011D01*
X234860774Y-56943777D01*
X234818476Y-56962709D01*
X234776877Y-56982737D01*
X234736154Y-57003791D01*
X234696482Y-57025799D01*
X234658038Y-57048692D01*
X234620998Y-57072399D01*
X234585539Y-57096851D01*
X234562579Y-57113935D01*
X234538512Y-57133032D01*
X234513559Y-57153911D01*
X234487943Y-57176346D01*
X234461885Y-57200108D01*
X234435607Y-57224969D01*
X234409332Y-57250699D01*
X234383280Y-57277071D01*
X234357675Y-57303856D01*
X234332738Y-57330826D01*
X234308691Y-57357753D01*
X234285756Y-57384408D01*
X234264154Y-57410562D01*
X234244109Y-57435988D01*
X234225841Y-57460457D01*
X234209573Y-57483740D01*
X234194157Y-57507305D01*
X234178907Y-57531847D01*
X234163864Y-57557277D01*
X234149067Y-57583508D01*
X234120376Y-57638021D01*
X234093156Y-57694680D01*
X234067731Y-57752781D01*
X234044423Y-57811621D01*
X234033664Y-57841097D01*
X234023556Y-57870494D01*
X234014138Y-57899724D01*
X234005452Y-57928698D01*
X233999248Y-57950570D01*
X233993801Y-57971641D01*
X233991343Y-57982473D01*
X233989050Y-57993822D01*
X233986915Y-58005927D01*
X233984931Y-58019026D01*
X233983089Y-58033359D01*
X233981381Y-58049164D01*
X233979801Y-58066681D01*
X233978339Y-58086148D01*
X233975740Y-58131889D01*
X233973523Y-58188300D01*
X233971625Y-58257293D01*
X233969982Y-58340778D01*
X233968533Y-58440668D01*
X233967214Y-58558875D01*
X233964716Y-58857886D01*
X233961987Y-59253104D01*
X233953916Y-60454727D01*
X233875324Y-60316079D01*
X233765974Y-60120930D01*
X233613432Y-59846441D01*
X233430132Y-59515452D01*
X233430396Y-58737251D01*
X233431449Y-58324085D01*
X233435285Y-58069857D01*
X233438749Y-57985677D01*
X233443511Y-57921230D01*
X233449773Y-57869850D01*
X233457736Y-57824870D01*
X233491497Y-57683321D01*
X233534501Y-57546664D01*
X233586437Y-57415214D01*
X233646994Y-57289288D01*
X233715859Y-57169205D01*
X233792721Y-57055280D01*
X233877268Y-56947831D01*
X233969189Y-56847176D01*
X234068171Y-56753630D01*
X234173904Y-56667511D01*
X234286075Y-56589137D01*
X234404373Y-56518823D01*
X234528487Y-56456888D01*
X234658103Y-56403649D01*
X234792912Y-56359421D01*
X234932601Y-56324524D01*
X234949770Y-56321204D01*
X234969104Y-56318099D01*
X235015235Y-56312476D01*
X235072940Y-56307556D01*
X235144165Y-56303238D01*
X235150344Y-56302966D01*
X236657624Y-56302966D01*
X236657624Y-56811345D01*
X237156001Y-56811345D01*
X237374151Y-56810243D01*
X237539585Y-56806983D01*
X237601834Y-56804566D01*
X237650067Y-56801636D01*
X237684003Y-56798201D01*
X237703363Y-56794270D01*
X237703362Y-56794269D01*
X237710520Y-56791638D01*
X237717322Y-56788844D01*
X237723775Y-56785861D01*
X237729889Y-56782661D01*
X237735671Y-56779218D01*
X237741131Y-56775504D01*
X237746277Y-56771494D01*
X237751117Y-56767160D01*
X237755660Y-56762475D01*
X237759914Y-56757413D01*
X237763888Y-56751947D01*
X237767590Y-56746049D01*
X237771029Y-56739694D01*
X237774213Y-56732855D01*
X237777151Y-56725503D01*
X237779850Y-56717614D01*
X237782321Y-56709160D01*
X237784571Y-56700113D01*
X237786608Y-56690448D01*
X237788441Y-56680137D01*
X237790079Y-56669154D01*
X237791530Y-56657472D01*
X237792803Y-56645064D01*
X237793905Y-56631903D01*
X237794846Y-56617963D01*
X237795635Y-56603216D01*
X237796786Y-56571196D01*
X237797427Y-56535628D01*
X237797625Y-56496298D01*
X237797625Y-56302966D01*
X236657624Y-56302966D01*
X235150344Y-56302966D01*
X235230853Y-56299422D01*
X235334952Y-56296007D01*
X235458405Y-56292894D01*
X235603157Y-56289982D01*
X236158613Y-56279857D01*
X236275937Y-56221842D01*
X236310467Y-56203594D01*
X236343462Y-56183774D01*
X236374893Y-56162424D01*
X236404726Y-56139585D01*
X236432931Y-56115297D01*
X236459476Y-56089604D01*
X236484329Y-56062545D01*
X236507458Y-56034162D01*
X236528832Y-56004496D01*
X236548419Y-55973589D01*
X236566187Y-55941482D01*
X236582105Y-55908217D01*
X236596141Y-55873834D01*
X236608263Y-55838376D01*
X236618440Y-55801882D01*
X236626640Y-55764395D01*
X236630074Y-55724140D01*
X236633131Y-55642932D01*
X236638015Y-55366347D01*
X236641093Y-54952014D01*
X236642163Y-54417308D01*
X236642827Y-53715578D01*
X236646262Y-53329914D01*
X236649694Y-53223701D01*
X236654630Y-53158218D01*
X236661339Y-53120704D01*
X236670093Y-53098395D01*
X236672350Y-53094381D01*
X236675050Y-53090181D01*
X236678221Y-53085776D01*
X236681888Y-53081145D01*
X236686078Y-53076268D01*
X236690817Y-53071125D01*
X236702051Y-53059963D01*
X236715802Y-53047498D01*
X236732280Y-53033571D01*
X236751698Y-53018021D01*
X236774269Y-53000688D01*
X236800204Y-52981413D01*
X236829714Y-52960035D01*
X236863013Y-52936395D01*
X236900311Y-52910332D01*
X236941821Y-52881687D01*
X236987755Y-52850300D01*
X237093743Y-52778658D01*
X237489462Y-52512599D01*
X237489462Y-51748890D01*
X237422505Y-51701695D01*
X237404750Y-51688284D01*
X237388150Y-51673938D01*
X237372703Y-51658718D01*
X237358409Y-51642688D01*
X237345269Y-51625910D01*
X237333282Y-51608447D01*
X237322448Y-51590361D01*
X237312766Y-51571715D01*
X237304236Y-51552572D01*
X237296857Y-51532995D01*
X237290631Y-51513045D01*
X237285555Y-51492786D01*
X237281630Y-51472280D01*
X237278856Y-51451590D01*
X237277232Y-51430779D01*
X237276865Y-51414652D01*
X237551917Y-51414652D01*
X237552186Y-51418939D01*
X237552734Y-51423208D01*
X237553561Y-51427449D01*
X237554667Y-51431651D01*
X237556053Y-51435806D01*
X237557720Y-51439902D01*
X237559667Y-51443929D01*
X237561894Y-51447879D01*
X237564403Y-51451740D01*
X237567194Y-51455503D01*
X237570266Y-51459157D01*
X237573620Y-51462693D01*
X237577257Y-51466101D01*
X237581177Y-51469370D01*
X237585380Y-51472490D01*
X237593234Y-51477907D01*
X237600334Y-51482579D01*
X237606778Y-51486499D01*
X237609783Y-51488174D01*
X237612661Y-51489659D01*
X237615421Y-51490952D01*
X237618078Y-51492052D01*
X237620642Y-51492959D01*
X237623126Y-51493671D01*
X237625542Y-51494188D01*
X237627901Y-51494509D01*
X237630216Y-51494632D01*
X237632498Y-51494557D01*
X237634760Y-51494283D01*
X237637013Y-51493810D01*
X237639270Y-51493135D01*
X237641543Y-51492258D01*
X237643843Y-51491179D01*
X237646182Y-51489896D01*
X237648573Y-51488408D01*
X237651028Y-51486715D01*
X237653558Y-51484815D01*
X237656175Y-51482709D01*
X237661720Y-51477869D01*
X237667758Y-51472189D01*
X237674385Y-51465661D01*
X237674382Y-51465661D01*
X237678161Y-51461742D01*
X237681680Y-51457808D01*
X237684936Y-51453863D01*
X237687932Y-51449909D01*
X237690667Y-51445949D01*
X237693142Y-51441987D01*
X237695356Y-51438027D01*
X237697309Y-51434071D01*
X237699003Y-51430122D01*
X237700437Y-51426184D01*
X237701611Y-51422259D01*
X237702526Y-51418352D01*
X237703182Y-51414465D01*
X237703579Y-51410601D01*
X237703717Y-51406764D01*
X237703596Y-51402957D01*
X237703217Y-51399183D01*
X237702581Y-51395445D01*
X237701686Y-51391746D01*
X237700533Y-51388090D01*
X237699123Y-51384480D01*
X237697456Y-51380919D01*
X237695532Y-51377410D01*
X237693350Y-51373956D01*
X237690913Y-51370561D01*
X237688218Y-51367228D01*
X237685268Y-51363960D01*
X237682061Y-51360759D01*
X237678599Y-51357630D01*
X237674881Y-51354576D01*
X237670908Y-51351599D01*
X237666679Y-51348704D01*
X237660327Y-51344595D01*
X237654589Y-51341033D01*
X237649379Y-51338020D01*
X237644609Y-51335555D01*
X237642361Y-51334527D01*
X237640191Y-51333637D01*
X237638086Y-51332884D01*
X237636036Y-51332267D01*
X237634030Y-51331788D01*
X237632057Y-51331445D01*
X237630105Y-51331240D01*
X237628165Y-51331171D01*
X237626225Y-51331240D01*
X237624274Y-51331445D01*
X237622301Y-51331788D01*
X237620295Y-51332267D01*
X237618245Y-51332884D01*
X237616140Y-51333637D01*
X237613969Y-51334527D01*
X237611722Y-51335555D01*
X237606951Y-51338020D01*
X237601742Y-51341033D01*
X237596005Y-51344595D01*
X237589652Y-51348704D01*
X237585236Y-51351766D01*
X237581092Y-51354981D01*
X237577222Y-51358338D01*
X237573625Y-51361827D01*
X237570302Y-51365438D01*
X237567253Y-51369162D01*
X237564479Y-51372987D01*
X237561980Y-51376905D01*
X237559756Y-51380904D01*
X237557808Y-51384976D01*
X237556136Y-51389109D01*
X237554740Y-51393295D01*
X237553620Y-51397523D01*
X237552778Y-51401782D01*
X237552213Y-51406064D01*
X237551926Y-51410357D01*
X237551917Y-51414652D01*
X237276865Y-51414652D01*
X237276758Y-51409910D01*
X237277433Y-51389044D01*
X237279258Y-51368244D01*
X237282232Y-51347574D01*
X237286355Y-51327096D01*
X237291626Y-51306873D01*
X237298045Y-51286967D01*
X237305612Y-51267440D01*
X237314326Y-51248356D01*
X237324188Y-51229778D01*
X237335197Y-51211767D01*
X237347352Y-51194386D01*
X237360654Y-51177699D01*
X237375101Y-51161768D01*
X237390695Y-51146654D01*
X237407433Y-51132423D01*
X237425317Y-51119134D01*
X237436379Y-51111565D01*
X237446580Y-51104863D01*
X237456146Y-51098977D01*
X237465302Y-51093853D01*
X237474276Y-51089439D01*
X237478765Y-51087482D01*
X237483292Y-51085684D01*
X237487888Y-51084036D01*
X237492578Y-51082534D01*
X237497393Y-51081170D01*
X237502360Y-51079938D01*
X237507507Y-51078831D01*
X237512863Y-51077843D01*
X237524314Y-51076198D01*
X237536939Y-51074948D01*
X237550964Y-51074044D01*
X237566615Y-51073431D01*
X237584118Y-51073058D01*
X237625587Y-51072823D01*
X237665859Y-51073082D01*
G37*
D11*
X193397153Y-59098576D02*
X196900000Y-59098576D01*
X196900000Y-62601423D01*
X193397153Y-62601423D01*
X193397153Y-59098576D01*
G36*
X193397153Y-59098576D02*
G01*
X196900000Y-59098576D01*
X196900000Y-62601423D01*
X193397153Y-62601423D01*
X193397153Y-59098576D01*
G37*
X198897153Y-59098576D02*
X202400000Y-59098576D01*
X202400000Y-62601423D01*
X198897153Y-62601423D01*
X198897153Y-59098576D01*
G36*
X198897153Y-59098576D02*
G01*
X202400000Y-59098576D01*
X202400000Y-62601423D01*
X198897153Y-62601423D01*
X198897153Y-59098576D01*
G37*
X183883200Y-48472000D02*
X241858600Y-48472000D01*
X241858600Y-90050000D01*
X183883200Y-90050000D01*
X183883200Y-48472000D01*
D10*
G36*
X238972944Y-51065512D02*
G01*
X238992500Y-51066683D01*
X239011574Y-51068621D01*
X239030153Y-51071316D01*
X239048227Y-51074758D01*
X239065786Y-51078936D01*
X239082820Y-51083841D01*
X239099317Y-51089462D01*
X239115267Y-51095789D01*
X239130660Y-51102811D01*
X239145486Y-51110518D01*
X239159733Y-51118900D01*
X239173391Y-51127946D01*
X239186450Y-51137646D01*
X239198899Y-51147990D01*
X239210728Y-51158967D01*
X239221925Y-51170568D01*
X239232481Y-51182781D01*
X239242385Y-51195597D01*
X239251627Y-51209004D01*
X239260196Y-51222994D01*
X239268081Y-51237555D01*
X239275272Y-51252677D01*
X239281758Y-51268351D01*
X239287529Y-51284564D01*
X239292575Y-51301308D01*
X239296884Y-51318572D01*
X239300446Y-51336346D01*
X239303252Y-51354619D01*
X239305289Y-51373380D01*
X239306549Y-51392621D01*
X239307019Y-51412329D01*
X239306566Y-51434865D01*
X239305033Y-51456678D01*
X239302409Y-51477789D01*
X239298686Y-51498215D01*
X239293853Y-51517974D01*
X239287903Y-51537087D01*
X239280825Y-51555571D01*
X239272611Y-51573445D01*
X239263250Y-51590727D01*
X239252734Y-51607437D01*
X239241054Y-51623593D01*
X239228199Y-51639213D01*
X239214162Y-51654317D01*
X239198932Y-51668922D01*
X239182500Y-51683049D01*
X239164857Y-51696714D01*
X239091682Y-51750604D01*
X239092134Y-52158877D01*
X239092586Y-52567149D01*
X239449337Y-52805933D01*
X239544168Y-52869799D01*
X239622782Y-52923682D01*
X239686620Y-52968676D01*
X239737123Y-53005876D01*
X239775731Y-53036378D01*
X239803886Y-53061275D01*
X239814494Y-53071965D01*
X239823029Y-53081663D01*
X239829671Y-53090508D01*
X239834600Y-53098637D01*
X239839348Y-53108305D01*
X239841506Y-53113429D01*
X239843524Y-53118915D01*
X239845405Y-53124892D01*
X239847154Y-53131487D01*
X239848773Y-53138828D01*
X239850266Y-53147043D01*
X239851637Y-53156259D01*
X239852888Y-53166604D01*
X239854024Y-53178206D01*
X239855048Y-53191192D01*
X239855963Y-53205690D01*
X239856773Y-53221828D01*
X239858090Y-53259533D01*
X239859027Y-53305328D01*
X239859613Y-53360236D01*
X239859873Y-53425277D01*
X239859837Y-53501473D01*
X239858983Y-53691415D01*
X239857271Y-53938233D01*
X239853598Y-54288231D01*
X239848443Y-54546435D01*
X239841766Y-54714287D01*
X239837845Y-54764784D01*
X239833528Y-54793234D01*
X239806405Y-54896771D01*
X239796756Y-54931856D01*
X239789164Y-54957587D01*
X239783216Y-54975291D01*
X239778497Y-54986294D01*
X239776470Y-54989698D01*
X239774595Y-54991923D01*
X239772821Y-54993137D01*
X239771096Y-54993505D01*
X239770321Y-54993228D01*
X239769010Y-54992406D01*
X239764841Y-54989181D01*
X239758700Y-54983940D01*
X239750701Y-54976790D01*
X239729582Y-54957201D01*
X239702385Y-54931281D01*
X239670014Y-54899900D01*
X239633372Y-54863927D01*
X239593363Y-54824231D01*
X239550889Y-54781680D01*
X239550957Y-54781680D01*
X239340510Y-54569855D01*
X239333522Y-54200125D01*
X239330270Y-54059727D01*
X239325718Y-53947069D01*
X239322626Y-53899319D01*
X239318816Y-53856316D01*
X239314155Y-53817332D01*
X239308512Y-53781636D01*
X239301756Y-53748499D01*
X239293756Y-53717193D01*
X239284381Y-53686988D01*
X239273498Y-53657155D01*
X239260977Y-53626965D01*
X239246686Y-53595688D01*
X239212269Y-53526958D01*
X239198416Y-53501522D01*
X239183053Y-53475604D01*
X239166341Y-53449389D01*
X239148439Y-53423061D01*
X239129508Y-53396805D01*
X239109706Y-53370804D01*
X239089194Y-53345244D01*
X239068131Y-53320308D01*
X239046678Y-53296180D01*
X239024994Y-53273046D01*
X239003238Y-53251090D01*
X238981570Y-53230495D01*
X238960151Y-53211446D01*
X238939139Y-53194128D01*
X238918695Y-53178725D01*
X238898978Y-53165421D01*
X238829845Y-53121745D01*
X238829817Y-52432748D01*
X238829789Y-51743750D01*
X238787425Y-51721622D01*
X238777430Y-51716160D01*
X238767689Y-51710351D01*
X238758206Y-51704202D01*
X238748985Y-51697722D01*
X238740030Y-51690917D01*
X238731345Y-51683795D01*
X238722935Y-51676363D01*
X238714804Y-51668629D01*
X238706955Y-51660600D01*
X238699394Y-51652284D01*
X238692124Y-51643688D01*
X238685149Y-51634820D01*
X238678474Y-51625687D01*
X238672103Y-51616297D01*
X238666039Y-51606656D01*
X238660288Y-51596773D01*
X238654853Y-51586655D01*
X238649738Y-51576309D01*
X238644948Y-51565743D01*
X238640487Y-51554965D01*
X238636358Y-51543981D01*
X238632567Y-51532799D01*
X238629117Y-51521427D01*
X238626013Y-51509872D01*
X238623258Y-51498141D01*
X238620857Y-51486243D01*
X238618814Y-51474184D01*
X238617133Y-51461972D01*
X238615818Y-51449614D01*
X238614874Y-51437119D01*
X238614304Y-51424492D01*
X238614120Y-51412186D01*
X238882002Y-51412186D01*
X238882212Y-51417894D01*
X238882817Y-51423555D01*
X238883818Y-51429142D01*
X238885218Y-51434626D01*
X238887018Y-51439980D01*
X238889220Y-51445176D01*
X238891825Y-51450187D01*
X238894837Y-51454983D01*
X238898255Y-51459538D01*
X238902083Y-51463824D01*
X238906323Y-51467813D01*
X238910975Y-51471478D01*
X238916042Y-51474789D01*
X238921526Y-51477721D01*
X238927428Y-51480244D01*
X238930775Y-51481434D01*
X238934115Y-51482473D01*
X238937448Y-51483361D01*
X238940773Y-51484098D01*
X238944090Y-51484684D01*
X238947398Y-51485119D01*
X238950697Y-51485404D01*
X238953986Y-51485539D01*
X238957265Y-51485523D01*
X238960534Y-51485358D01*
X238963791Y-51485043D01*
X238967036Y-51484578D01*
X238970270Y-51483964D01*
X238973490Y-51483200D01*
X238976698Y-51482288D01*
X238979892Y-51481226D01*
X238983072Y-51480016D01*
X238986237Y-51478657D01*
X238992522Y-51475495D01*
X238998743Y-51471740D01*
X239004896Y-51467395D01*
X239010977Y-51462460D01*
X239016982Y-51456937D01*
X239022907Y-51450828D01*
X239028748Y-51444133D01*
X239032253Y-51439443D01*
X239035142Y-51434592D01*
X239037437Y-51429605D01*
X239039157Y-51424505D01*
X239040323Y-51419317D01*
X239040956Y-51414066D01*
X239041076Y-51408776D01*
X239040703Y-51403471D01*
X239039857Y-51398175D01*
X239038560Y-51392913D01*
X239036831Y-51387709D01*
X239034691Y-51382587D01*
X239032161Y-51377572D01*
X239029261Y-51372688D01*
X239026010Y-51367960D01*
X239022431Y-51363411D01*
X239018542Y-51359066D01*
X239014365Y-51354949D01*
X239009920Y-51351085D01*
X239005227Y-51347498D01*
X239000307Y-51344212D01*
X238995180Y-51341252D01*
X238989867Y-51338641D01*
X238984388Y-51336405D01*
X238978763Y-51334567D01*
X238973013Y-51333153D01*
X238967158Y-51332185D01*
X238961219Y-51331689D01*
X238955217Y-51331688D01*
X238949171Y-51332208D01*
X238943101Y-51333272D01*
X238937029Y-51334905D01*
X238930812Y-51337158D01*
X238924957Y-51339837D01*
X238919468Y-51342913D01*
X238914346Y-51346359D01*
X238909593Y-51350148D01*
X238905211Y-51354251D01*
X238901201Y-51358640D01*
X238897566Y-51363289D01*
X238894307Y-51368168D01*
X238891426Y-51373251D01*
X238888925Y-51378509D01*
X238886806Y-51383915D01*
X238885071Y-51389440D01*
X238883721Y-51395058D01*
X238882758Y-51400740D01*
X238882185Y-51406459D01*
X238882002Y-51412186D01*
X238614120Y-51412186D01*
X238614113Y-51411742D01*
X238614514Y-51392644D01*
X238615708Y-51373940D01*
X238617682Y-51355645D01*
X238620422Y-51337771D01*
X238623914Y-51320333D01*
X238628145Y-51303346D01*
X238633100Y-51286822D01*
X238638768Y-51270775D01*
X238645133Y-51255220D01*
X238652183Y-51240171D01*
X238659904Y-51225641D01*
X238668281Y-51211644D01*
X238677303Y-51198195D01*
X238686954Y-51185307D01*
X238697222Y-51172993D01*
X238708093Y-51161269D01*
X238719552Y-51150148D01*
X238731588Y-51139643D01*
X238744185Y-51129769D01*
X238757331Y-51120539D01*
X238771012Y-51111968D01*
X238785214Y-51104069D01*
X238799924Y-51096856D01*
X238815128Y-51090344D01*
X238830812Y-51084546D01*
X238846963Y-51079475D01*
X238863568Y-51075147D01*
X238880612Y-51071574D01*
X238898082Y-51068771D01*
X238915965Y-51066752D01*
X238934247Y-51065530D01*
X238952914Y-51065120D01*
X238972944Y-51065512D01*
G37*
D11*
X204247153Y-59098576D02*
X207750000Y-59098576D01*
X207750000Y-62601423D01*
X204247153Y-62601423D01*
X204247153Y-59098576D01*
G36*
X204247153Y-59098576D02*
G01*
X207750000Y-59098576D01*
X207750000Y-62601423D01*
X204247153Y-62601423D01*
X204247153Y-59098576D01*
G37*
D12*
X230804190Y-51958792D02*
X230994666Y-52054030D01*
X230994666Y-52054030D02*
X231375619Y-52054030D01*
X231375619Y-52054030D02*
X231566095Y-51958792D01*
X231566095Y-51958792D02*
X231661333Y-51768315D01*
X231661333Y-51768315D02*
X231661333Y-51006411D01*
X231661333Y-51006411D02*
X231566095Y-50815934D01*
X231566095Y-50815934D02*
X231375619Y-50720696D01*
X231375619Y-50720696D02*
X230994666Y-50720696D01*
X230994666Y-50720696D02*
X230804190Y-50815934D01*
X230804190Y-50815934D02*
X230708952Y-51006411D01*
X230708952Y-51006411D02*
X230708952Y-51196887D01*
X230708952Y-51196887D02*
X231661333Y-51387363D01*
X229851809Y-50720696D02*
X229851809Y-52054030D01*
X229851809Y-50911172D02*
X229756571Y-50815934D01*
X229756571Y-50815934D02*
X229566095Y-50720696D01*
X229566095Y-50720696D02*
X229280380Y-50720696D01*
X229280380Y-50720696D02*
X229089904Y-50815934D01*
X229089904Y-50815934D02*
X228994666Y-51006411D01*
X228994666Y-51006411D02*
X228994666Y-52054030D01*
X228327999Y-50720696D02*
X227566095Y-50720696D01*
X228042285Y-50054030D02*
X228042285Y-51768315D01*
X228042285Y-51768315D02*
X227947047Y-51958792D01*
X227947047Y-51958792D02*
X227756571Y-52054030D01*
X227756571Y-52054030D02*
X227566095Y-52054030D01*
X226994666Y-51958792D02*
X226804190Y-52054030D01*
X226804190Y-52054030D02*
X226423238Y-52054030D01*
X226423238Y-52054030D02*
X226232761Y-51958792D01*
X226232761Y-51958792D02*
X226137523Y-51768315D01*
X226137523Y-51768315D02*
X226137523Y-51673077D01*
X226137523Y-51673077D02*
X226232761Y-51482601D01*
X226232761Y-51482601D02*
X226423238Y-51387363D01*
X226423238Y-51387363D02*
X226708952Y-51387363D01*
X226708952Y-51387363D02*
X226899428Y-51292125D01*
X226899428Y-51292125D02*
X226994666Y-51101649D01*
X226994666Y-51101649D02*
X226994666Y-51006411D01*
X226994666Y-51006411D02*
X226899428Y-50815934D01*
X226899428Y-50815934D02*
X226708952Y-50720696D01*
X226708952Y-50720696D02*
X226423238Y-50720696D01*
X226423238Y-50720696D02*
X226232761Y-50815934D01*
X225280380Y-51292125D02*
X223756571Y-51292125D01*
X222804190Y-50720696D02*
X222804190Y-52054030D01*
X222804190Y-50911172D02*
X222708952Y-50815934D01*
X222708952Y-50815934D02*
X222518476Y-50720696D01*
X222518476Y-50720696D02*
X222232761Y-50720696D01*
X222232761Y-50720696D02*
X222042285Y-50815934D01*
X222042285Y-50815934D02*
X221947047Y-51006411D01*
X221947047Y-51006411D02*
X221947047Y-52054030D01*
X220708952Y-52054030D02*
X220899428Y-51958792D01*
X220899428Y-51958792D02*
X220994666Y-51863553D01*
X220994666Y-51863553D02*
X221089904Y-51673077D01*
X221089904Y-51673077D02*
X221089904Y-51101649D01*
X221089904Y-51101649D02*
X220994666Y-50911172D01*
X220994666Y-50911172D02*
X220899428Y-50815934D01*
X220899428Y-50815934D02*
X220708952Y-50720696D01*
X220708952Y-50720696D02*
X220423237Y-50720696D01*
X220423237Y-50720696D02*
X220232761Y-50815934D01*
X220232761Y-50815934D02*
X220137523Y-50911172D01*
X220137523Y-50911172D02*
X220042285Y-51101649D01*
X220042285Y-51101649D02*
X220042285Y-51673077D01*
X220042285Y-51673077D02*
X220137523Y-51863553D01*
X220137523Y-51863553D02*
X220232761Y-51958792D01*
X220232761Y-51958792D02*
X220423237Y-52054030D01*
X220423237Y-52054030D02*
X220708952Y-52054030D01*
X218327999Y-52054030D02*
X218327999Y-50054030D01*
X218327999Y-51958792D02*
X218518475Y-52054030D01*
X218518475Y-52054030D02*
X218899428Y-52054030D01*
X218899428Y-52054030D02*
X219089904Y-51958792D01*
X219089904Y-51958792D02*
X219185142Y-51863553D01*
X219185142Y-51863553D02*
X219280380Y-51673077D01*
X219280380Y-51673077D02*
X219280380Y-51101649D01*
X219280380Y-51101649D02*
X219185142Y-50911172D01*
X219185142Y-50911172D02*
X219089904Y-50815934D01*
X219089904Y-50815934D02*
X218899428Y-50720696D01*
X218899428Y-50720696D02*
X218518475Y-50720696D01*
X218518475Y-50720696D02*
X218327999Y-50815934D01*
X216613713Y-51958792D02*
X216804189Y-52054030D01*
X216804189Y-52054030D02*
X217185142Y-52054030D01*
X217185142Y-52054030D02*
X217375618Y-51958792D01*
X217375618Y-51958792D02*
X217470856Y-51768315D01*
X217470856Y-51768315D02*
X217470856Y-51006411D01*
X217470856Y-51006411D02*
X217375618Y-50815934D01*
X217375618Y-50815934D02*
X217185142Y-50720696D01*
X217185142Y-50720696D02*
X216804189Y-50720696D01*
X216804189Y-50720696D02*
X216613713Y-50815934D01*
X216613713Y-50815934D02*
X216518475Y-51006411D01*
X216518475Y-51006411D02*
X216518475Y-51196887D01*
X216518475Y-51196887D02*
X217470856Y-51387363D01*
X231661333Y-53464394D02*
X231566095Y-53369156D01*
X231566095Y-53369156D02*
X231375619Y-53273918D01*
X231375619Y-53273918D02*
X230899428Y-53273918D01*
X230899428Y-53273918D02*
X230708952Y-53369156D01*
X230708952Y-53369156D02*
X230613714Y-53464394D01*
X230613714Y-53464394D02*
X230518476Y-53654870D01*
X230518476Y-53654870D02*
X230518476Y-53845346D01*
X230518476Y-53845346D02*
X230613714Y-54131060D01*
X230613714Y-54131060D02*
X231756571Y-55273918D01*
X231756571Y-55273918D02*
X230518476Y-55273918D01*
X229280381Y-53273918D02*
X229089904Y-53273918D01*
X229089904Y-53273918D02*
X228899428Y-53369156D01*
X228899428Y-53369156D02*
X228804190Y-53464394D01*
X228804190Y-53464394D02*
X228708952Y-53654870D01*
X228708952Y-53654870D02*
X228613714Y-54035822D01*
X228613714Y-54035822D02*
X228613714Y-54512013D01*
X228613714Y-54512013D02*
X228708952Y-54892965D01*
X228708952Y-54892965D02*
X228804190Y-55083441D01*
X228804190Y-55083441D02*
X228899428Y-55178680D01*
X228899428Y-55178680D02*
X229089904Y-55273918D01*
X229089904Y-55273918D02*
X229280381Y-55273918D01*
X229280381Y-55273918D02*
X229470857Y-55178680D01*
X229470857Y-55178680D02*
X229566095Y-55083441D01*
X229566095Y-55083441D02*
X229661333Y-54892965D01*
X229661333Y-54892965D02*
X229756571Y-54512013D01*
X229756571Y-54512013D02*
X229756571Y-54035822D01*
X229756571Y-54035822D02*
X229661333Y-53654870D01*
X229661333Y-53654870D02*
X229566095Y-53464394D01*
X229566095Y-53464394D02*
X229470857Y-53369156D01*
X229470857Y-53369156D02*
X229280381Y-53273918D01*
X227851809Y-53464394D02*
X227756571Y-53369156D01*
X227756571Y-53369156D02*
X227566095Y-53273918D01*
X227566095Y-53273918D02*
X227089904Y-53273918D01*
X227089904Y-53273918D02*
X226899428Y-53369156D01*
X226899428Y-53369156D02*
X226804190Y-53464394D01*
X226804190Y-53464394D02*
X226708952Y-53654870D01*
X226708952Y-53654870D02*
X226708952Y-53845346D01*
X226708952Y-53845346D02*
X226804190Y-54131060D01*
X226804190Y-54131060D02*
X227947047Y-55273918D01*
X227947047Y-55273918D02*
X226708952Y-55273918D01*
X224994666Y-53940584D02*
X224994666Y-55273918D01*
X225470857Y-53178680D02*
X225947047Y-54607251D01*
X225947047Y-54607251D02*
X224708952Y-54607251D01*
X223947047Y-54512013D02*
X222423238Y-54512013D01*
X220423238Y-55273918D02*
X221566095Y-55273918D01*
X220994667Y-55273918D02*
X220994667Y-53273918D01*
X220994667Y-53273918D02*
X221185143Y-53559632D01*
X221185143Y-53559632D02*
X221375619Y-53750108D01*
X221375619Y-53750108D02*
X221566095Y-53845346D01*
X219661333Y-53464394D02*
X219566095Y-53369156D01*
X219566095Y-53369156D02*
X219375619Y-53273918D01*
X219375619Y-53273918D02*
X218899428Y-53273918D01*
X218899428Y-53273918D02*
X218708952Y-53369156D01*
X218708952Y-53369156D02*
X218613714Y-53464394D01*
X218613714Y-53464394D02*
X218518476Y-53654870D01*
X218518476Y-53654870D02*
X218518476Y-53845346D01*
X218518476Y-53845346D02*
X218613714Y-54131060D01*
X218613714Y-54131060D02*
X219756571Y-55273918D01*
X219756571Y-55273918D02*
X218518476Y-55273918D01*
X217661333Y-54512013D02*
X216137524Y-54512013D01*
X214804191Y-53273918D02*
X214613714Y-53273918D01*
X214613714Y-53273918D02*
X214423238Y-53369156D01*
X214423238Y-53369156D02*
X214328000Y-53464394D01*
X214328000Y-53464394D02*
X214232762Y-53654870D01*
X214232762Y-53654870D02*
X214137524Y-54035822D01*
X214137524Y-54035822D02*
X214137524Y-54512013D01*
X214137524Y-54512013D02*
X214232762Y-54892965D01*
X214232762Y-54892965D02*
X214328000Y-55083441D01*
X214328000Y-55083441D02*
X214423238Y-55178680D01*
X214423238Y-55178680D02*
X214613714Y-55273918D01*
X214613714Y-55273918D02*
X214804191Y-55273918D01*
X214804191Y-55273918D02*
X214994667Y-55178680D01*
X214994667Y-55178680D02*
X215089905Y-55083441D01*
X215089905Y-55083441D02*
X215185143Y-54892965D01*
X215185143Y-54892965D02*
X215280381Y-54512013D01*
X215280381Y-54512013D02*
X215280381Y-54035822D01*
X215280381Y-54035822D02*
X215185143Y-53654870D01*
X215185143Y-53654870D02*
X215089905Y-53464394D01*
X215089905Y-53464394D02*
X214994667Y-53369156D01*
X214994667Y-53369156D02*
X214804191Y-53273918D01*
X213470857Y-53273918D02*
X212137524Y-53273918D01*
X212137524Y-53273918D02*
X212994667Y-55273918D01*
X231661333Y-56684282D02*
X231566095Y-56589044D01*
X231566095Y-56589044D02*
X231375619Y-56493806D01*
X231375619Y-56493806D02*
X230899428Y-56493806D01*
X230899428Y-56493806D02*
X230708952Y-56589044D01*
X230708952Y-56589044D02*
X230613714Y-56684282D01*
X230613714Y-56684282D02*
X230518476Y-56874758D01*
X230518476Y-56874758D02*
X230518476Y-57065234D01*
X230518476Y-57065234D02*
X230613714Y-57350948D01*
X230613714Y-57350948D02*
X231756571Y-58493806D01*
X231756571Y-58493806D02*
X230518476Y-58493806D01*
X229661333Y-58303329D02*
X229566095Y-58398568D01*
X229566095Y-58398568D02*
X229661333Y-58493806D01*
X229661333Y-58493806D02*
X229756571Y-58398568D01*
X229756571Y-58398568D02*
X229661333Y-58303329D01*
X229661333Y-58303329D02*
X229661333Y-58493806D01*
X228804190Y-56684282D02*
X228708952Y-56589044D01*
X228708952Y-56589044D02*
X228518476Y-56493806D01*
X228518476Y-56493806D02*
X228042285Y-56493806D01*
X228042285Y-56493806D02*
X227851809Y-56589044D01*
X227851809Y-56589044D02*
X227756571Y-56684282D01*
X227756571Y-56684282D02*
X227661333Y-56874758D01*
X227661333Y-56874758D02*
X227661333Y-57065234D01*
X227661333Y-57065234D02*
X227756571Y-57350948D01*
X227756571Y-57350948D02*
X228899428Y-58493806D01*
X228899428Y-58493806D02*
X227661333Y-58493806D01*
X226804190Y-58303329D02*
X226708952Y-58398568D01*
X226708952Y-58398568D02*
X226804190Y-58493806D01*
X226804190Y-58493806D02*
X226899428Y-58398568D01*
X226899428Y-58398568D02*
X226804190Y-58303329D01*
X226804190Y-58303329D02*
X226804190Y-58493806D01*
X226042285Y-56493806D02*
X224804190Y-56493806D01*
X224804190Y-56493806D02*
X225470857Y-57255710D01*
X225470857Y-57255710D02*
X225185142Y-57255710D01*
X225185142Y-57255710D02*
X224994666Y-57350948D01*
X224994666Y-57350948D02*
X224899428Y-57446187D01*
X224899428Y-57446187D02*
X224804190Y-57636663D01*
X224804190Y-57636663D02*
X224804190Y-58112853D01*
X224804190Y-58112853D02*
X224899428Y-58303329D01*
X224899428Y-58303329D02*
X224994666Y-58398568D01*
X224994666Y-58398568D02*
X225185142Y-58493806D01*
X225185142Y-58493806D02*
X225756571Y-58493806D01*
X225756571Y-58493806D02*
X225947047Y-58398568D01*
X225947047Y-58398568D02*
X226042285Y-58303329D01*
X231185143Y-59713694D02*
X230994666Y-59713694D01*
X230994666Y-59713694D02*
X230804190Y-59808932D01*
X230804190Y-59808932D02*
X230708952Y-59904170D01*
X230708952Y-59904170D02*
X230613714Y-60094646D01*
X230613714Y-60094646D02*
X230518476Y-60475598D01*
X230518476Y-60475598D02*
X230518476Y-60951789D01*
X230518476Y-60951789D02*
X230613714Y-61332741D01*
X230613714Y-61332741D02*
X230708952Y-61523217D01*
X230708952Y-61523217D02*
X230804190Y-61618456D01*
X230804190Y-61618456D02*
X230994666Y-61713694D01*
X230994666Y-61713694D02*
X231185143Y-61713694D01*
X231185143Y-61713694D02*
X231375619Y-61618456D01*
X231375619Y-61618456D02*
X231470857Y-61523217D01*
X231470857Y-61523217D02*
X231566095Y-61332741D01*
X231566095Y-61332741D02*
X231661333Y-60951789D01*
X231661333Y-60951789D02*
X231661333Y-60475598D01*
X231661333Y-60475598D02*
X231566095Y-60094646D01*
X231566095Y-60094646D02*
X231470857Y-59904170D01*
X231470857Y-59904170D02*
X231375619Y-59808932D01*
X231375619Y-59808932D02*
X231185143Y-59713694D01*
X229280381Y-59713694D02*
X229089904Y-59713694D01*
X229089904Y-59713694D02*
X228899428Y-59808932D01*
X228899428Y-59808932D02*
X228804190Y-59904170D01*
X228804190Y-59904170D02*
X228708952Y-60094646D01*
X228708952Y-60094646D02*
X228613714Y-60475598D01*
X228613714Y-60475598D02*
X228613714Y-60951789D01*
X228613714Y-60951789D02*
X228708952Y-61332741D01*
X228708952Y-61332741D02*
X228804190Y-61523217D01*
X228804190Y-61523217D02*
X228899428Y-61618456D01*
X228899428Y-61618456D02*
X229089904Y-61713694D01*
X229089904Y-61713694D02*
X229280381Y-61713694D01*
X229280381Y-61713694D02*
X229470857Y-61618456D01*
X229470857Y-61618456D02*
X229566095Y-61523217D01*
X229566095Y-61523217D02*
X229661333Y-61332741D01*
X229661333Y-61332741D02*
X229756571Y-60951789D01*
X229756571Y-60951789D02*
X229756571Y-60475598D01*
X229756571Y-60475598D02*
X229661333Y-60094646D01*
X229661333Y-60094646D02*
X229566095Y-59904170D01*
X229566095Y-59904170D02*
X229470857Y-59808932D01*
X229470857Y-59808932D02*
X229280381Y-59713694D01*
X227756571Y-61523217D02*
X227661333Y-61618456D01*
X227661333Y-61618456D02*
X227756571Y-61713694D01*
X227756571Y-61713694D02*
X227851809Y-61618456D01*
X227851809Y-61618456D02*
X227756571Y-61523217D01*
X227756571Y-61523217D02*
X227756571Y-61713694D01*
X227756571Y-60475598D02*
X227661333Y-60570836D01*
X227661333Y-60570836D02*
X227756571Y-60666075D01*
X227756571Y-60666075D02*
X227851809Y-60570836D01*
X227851809Y-60570836D02*
X227756571Y-60475598D01*
X227756571Y-60475598D02*
X227756571Y-60666075D01*
X226518476Y-60570836D02*
X226708952Y-60475598D01*
X226708952Y-60475598D02*
X226804190Y-60380360D01*
X226804190Y-60380360D02*
X226899428Y-60189884D01*
X226899428Y-60189884D02*
X226899428Y-60094646D01*
X226899428Y-60094646D02*
X226804190Y-59904170D01*
X226804190Y-59904170D02*
X226708952Y-59808932D01*
X226708952Y-59808932D02*
X226518476Y-59713694D01*
X226518476Y-59713694D02*
X226137523Y-59713694D01*
X226137523Y-59713694D02*
X225947047Y-59808932D01*
X225947047Y-59808932D02*
X225851809Y-59904170D01*
X225851809Y-59904170D02*
X225756571Y-60094646D01*
X225756571Y-60094646D02*
X225756571Y-60189884D01*
X225756571Y-60189884D02*
X225851809Y-60380360D01*
X225851809Y-60380360D02*
X225947047Y-60475598D01*
X225947047Y-60475598D02*
X226137523Y-60570836D01*
X226137523Y-60570836D02*
X226518476Y-60570836D01*
X226518476Y-60570836D02*
X226708952Y-60666075D01*
X226708952Y-60666075D02*
X226804190Y-60761313D01*
X226804190Y-60761313D02*
X226899428Y-60951789D01*
X226899428Y-60951789D02*
X226899428Y-61332741D01*
X226899428Y-61332741D02*
X226804190Y-61523217D01*
X226804190Y-61523217D02*
X226708952Y-61618456D01*
X226708952Y-61618456D02*
X226518476Y-61713694D01*
X226518476Y-61713694D02*
X226137523Y-61713694D01*
X226137523Y-61713694D02*
X225947047Y-61618456D01*
X225947047Y-61618456D02*
X225851809Y-61523217D01*
X225851809Y-61523217D02*
X225756571Y-61332741D01*
X225756571Y-61332741D02*
X225756571Y-60951789D01*
X225756571Y-60951789D02*
X225851809Y-60761313D01*
X225851809Y-60761313D02*
X225947047Y-60666075D01*
X225947047Y-60666075D02*
X226137523Y-60570836D01*
X224518476Y-59713694D02*
X224327999Y-59713694D01*
X224327999Y-59713694D02*
X224137523Y-59808932D01*
X224137523Y-59808932D02*
X224042285Y-59904170D01*
X224042285Y-59904170D02*
X223947047Y-60094646D01*
X223947047Y-60094646D02*
X223851809Y-60475598D01*
X223851809Y-60475598D02*
X223851809Y-60951789D01*
X223851809Y-60951789D02*
X223947047Y-61332741D01*
X223947047Y-61332741D02*
X224042285Y-61523217D01*
X224042285Y-61523217D02*
X224137523Y-61618456D01*
X224137523Y-61618456D02*
X224327999Y-61713694D01*
X224327999Y-61713694D02*
X224518476Y-61713694D01*
X224518476Y-61713694D02*
X224708952Y-61618456D01*
X224708952Y-61618456D02*
X224804190Y-61523217D01*
X224804190Y-61523217D02*
X224899428Y-61332741D01*
X224899428Y-61332741D02*
X224994666Y-60951789D01*
X224994666Y-60951789D02*
X224994666Y-60475598D01*
X224994666Y-60475598D02*
X224899428Y-60094646D01*
X224899428Y-60094646D02*
X224804190Y-59904170D01*
X224804190Y-59904170D02*
X224708952Y-59808932D01*
X224708952Y-59808932D02*
X224518476Y-59713694D01*
X222994666Y-61523217D02*
X222899428Y-61618456D01*
X222899428Y-61618456D02*
X222994666Y-61713694D01*
X222994666Y-61713694D02*
X223089904Y-61618456D01*
X223089904Y-61618456D02*
X222994666Y-61523217D01*
X222994666Y-61523217D02*
X222994666Y-61713694D01*
X222994666Y-60475598D02*
X222899428Y-60570836D01*
X222899428Y-60570836D02*
X222994666Y-60666075D01*
X222994666Y-60666075D02*
X223089904Y-60570836D01*
X223089904Y-60570836D02*
X222994666Y-60475598D01*
X222994666Y-60475598D02*
X222994666Y-60666075D01*
X222042285Y-60666075D02*
X221375618Y-60666075D01*
X221089904Y-61713694D02*
X222042285Y-61713694D01*
X222042285Y-61713694D02*
X222042285Y-59713694D01*
X222042285Y-59713694D02*
X221089904Y-59713694D01*
X219185142Y-61713694D02*
X220327999Y-61713694D01*
X219756571Y-61713694D02*
X219756571Y-59713694D01*
X219756571Y-59713694D02*
X219947047Y-59999408D01*
X219947047Y-59999408D02*
X220137523Y-60189884D01*
X220137523Y-60189884D02*
X220327999Y-60285122D01*
X218327999Y-61523217D02*
X218232761Y-61618456D01*
X218232761Y-61618456D02*
X218327999Y-61713694D01*
X218327999Y-61713694D02*
X218423237Y-61618456D01*
X218423237Y-61618456D02*
X218327999Y-61523217D01*
X218327999Y-61523217D02*
X218327999Y-61713694D01*
X218327999Y-60475598D02*
X218232761Y-60570836D01*
X218232761Y-60570836D02*
X218327999Y-60666075D01*
X218327999Y-60666075D02*
X218423237Y-60570836D01*
X218423237Y-60570836D02*
X218327999Y-60475598D01*
X218327999Y-60475598D02*
X218327999Y-60666075D01*
X216327999Y-61713694D02*
X217470856Y-61713694D01*
X216899428Y-61713694D02*
X216899428Y-59713694D01*
X216899428Y-59713694D02*
X217089904Y-59999408D01*
X217089904Y-59999408D02*
X217280380Y-60189884D01*
X217280380Y-60189884D02*
X217470856Y-60285122D01*
X214518475Y-59713694D02*
X215470856Y-59713694D01*
X215470856Y-59713694D02*
X215566094Y-60666075D01*
X215566094Y-60666075D02*
X215470856Y-60570836D01*
X215470856Y-60570836D02*
X215280380Y-60475598D01*
X215280380Y-60475598D02*
X214804189Y-60475598D01*
X214804189Y-60475598D02*
X214613713Y-60570836D01*
X214613713Y-60570836D02*
X214518475Y-60666075D01*
X214518475Y-60666075D02*
X214423237Y-60856551D01*
X214423237Y-60856551D02*
X214423237Y-61332741D01*
X214423237Y-61332741D02*
X214518475Y-61523217D01*
X214518475Y-61523217D02*
X214613713Y-61618456D01*
X214613713Y-61618456D02*
X214804189Y-61713694D01*
X214804189Y-61713694D02*
X215280380Y-61713694D01*
X215280380Y-61713694D02*
X215470856Y-61618456D01*
X215470856Y-61618456D02*
X215566094Y-61523217D01*
X213566094Y-61523217D02*
X213470856Y-61618456D01*
X213470856Y-61618456D02*
X213566094Y-61713694D01*
X213566094Y-61713694D02*
X213661332Y-61618456D01*
X213661332Y-61618456D02*
X213566094Y-61523217D01*
X213566094Y-61523217D02*
X213566094Y-61713694D01*
X213566094Y-60475598D02*
X213470856Y-60570836D01*
X213470856Y-60570836D02*
X213566094Y-60666075D01*
X213566094Y-60666075D02*
X213661332Y-60570836D01*
X213661332Y-60570836D02*
X213566094Y-60475598D01*
X213566094Y-60475598D02*
X213566094Y-60666075D01*
X212232761Y-59713694D02*
X212042284Y-59713694D01*
X212042284Y-59713694D02*
X211851808Y-59808932D01*
X211851808Y-59808932D02*
X211756570Y-59904170D01*
X211756570Y-59904170D02*
X211661332Y-60094646D01*
X211661332Y-60094646D02*
X211566094Y-60475598D01*
X211566094Y-60475598D02*
X211566094Y-60951789D01*
X211566094Y-60951789D02*
X211661332Y-61332741D01*
X211661332Y-61332741D02*
X211756570Y-61523217D01*
X211756570Y-61523217D02*
X211851808Y-61618456D01*
X211851808Y-61618456D02*
X212042284Y-61713694D01*
X212042284Y-61713694D02*
X212232761Y-61713694D01*
X212232761Y-61713694D02*
X212423237Y-61618456D01*
X212423237Y-61618456D02*
X212518475Y-61523217D01*
X212518475Y-61523217D02*
X212613713Y-61332741D01*
X212613713Y-61332741D02*
X212708951Y-60951789D01*
X212708951Y-60951789D02*
X212708951Y-60475598D01*
X212708951Y-60475598D02*
X212613713Y-60094646D01*
X212613713Y-60094646D02*
X212518475Y-59904170D01*
X212518475Y-59904170D02*
X212423237Y-59808932D01*
X212423237Y-59808932D02*
X212232761Y-59713694D01*
X209756570Y-59713694D02*
X210708951Y-59713694D01*
X210708951Y-59713694D02*
X210804189Y-60666075D01*
X210804189Y-60666075D02*
X210708951Y-60570836D01*
X210708951Y-60570836D02*
X210518475Y-60475598D01*
X210518475Y-60475598D02*
X210042284Y-60475598D01*
X210042284Y-60475598D02*
X209851808Y-60570836D01*
X209851808Y-60570836D02*
X209756570Y-60666075D01*
X209756570Y-60666075D02*
X209661332Y-60856551D01*
X209661332Y-60856551D02*
X209661332Y-61332741D01*
X209661332Y-61332741D02*
X209756570Y-61523217D01*
X209756570Y-61523217D02*
X209851808Y-61618456D01*
X209851808Y-61618456D02*
X210042284Y-61713694D01*
X210042284Y-61713694D02*
X210518475Y-61713694D01*
X210518475Y-61713694D02*
X210708951Y-61618456D01*
X210708951Y-61618456D02*
X210804189Y-61523217D01*
X208804189Y-61523217D02*
X208708951Y-61618456D01*
X208708951Y-61618456D02*
X208804189Y-61713694D01*
X208804189Y-61713694D02*
X208899427Y-61618456D01*
X208899427Y-61618456D02*
X208804189Y-61523217D01*
X208804189Y-61523217D02*
X208804189Y-61713694D01*
X208804189Y-60475598D02*
X208708951Y-60570836D01*
X208708951Y-60570836D02*
X208804189Y-60666075D01*
X208804189Y-60666075D02*
X208899427Y-60570836D01*
X208899427Y-60570836D02*
X208804189Y-60475598D01*
X208804189Y-60475598D02*
X208804189Y-60666075D01*
X203280378Y-61523217D02*
X203185140Y-61618456D01*
X203185140Y-61618456D02*
X203280378Y-61713694D01*
X203280378Y-61713694D02*
X203375616Y-61618456D01*
X203375616Y-61618456D02*
X203280378Y-61523217D01*
X203280378Y-61523217D02*
X203280378Y-61713694D01*
X203280378Y-60475598D02*
X203185140Y-60570836D01*
X203185140Y-60570836D02*
X203280378Y-60666075D01*
X203280378Y-60666075D02*
X203375616Y-60570836D01*
X203375616Y-60570836D02*
X203280378Y-60475598D01*
X203280378Y-60475598D02*
X203280378Y-60666075D01*
X197756567Y-61523217D02*
X197661329Y-61618456D01*
X197661329Y-61618456D02*
X197756567Y-61713694D01*
X197756567Y-61713694D02*
X197851805Y-61618456D01*
X197851805Y-61618456D02*
X197756567Y-61523217D01*
X197756567Y-61523217D02*
X197756567Y-61713694D01*
X197756567Y-60475598D02*
X197661329Y-60570836D01*
X197661329Y-60570836D02*
X197756567Y-60666075D01*
X197756567Y-60666075D02*
X197851805Y-60570836D01*
X197851805Y-60570836D02*
X197756567Y-60475598D01*
X197756567Y-60475598D02*
X197756567Y-60666075D01*
%LPC*%
D13*
X246400000Y-58100000D03*
D14*
X246400000Y-60640000D03*
X246400000Y-63180000D03*
X246400000Y-65720000D03*
X246400000Y-68260000D03*
X246400000Y-70800000D03*
X246400000Y-73340000D03*
X246400000Y-75880000D03*
X246400000Y-78420000D03*
X246400000Y-80960000D03*
D15*
X116500000Y-51500000D03*
D16*
X116500000Y-51500000D03*
D15*
X116500000Y-87000000D03*
D16*
X116500000Y-87000000D03*
D17*
X180550000Y-53050000D03*
D18*
X175550000Y-53050000D03*
X170550000Y-53050000D03*
D13*
X128500000Y-66800000D03*
D14*
X128500000Y-64260000D03*
D15*
X246500000Y-51500000D03*
D16*
X246500000Y-51500000D03*
D13*
X169060000Y-79060000D03*
D14*
X171600000Y-79060000D03*
X169060000Y-81600000D03*
X171600000Y-81600000D03*
X169060000Y-84140000D03*
X171600000Y-84140000D03*
X169060000Y-86680000D03*
X171600000Y-86680000D03*
X169060000Y-89220000D03*
X171600000Y-89220000D03*
D17*
X118000000Y-59000000D03*
D18*
X118000000Y-64000000D03*
X118000000Y-69000000D03*
X118000000Y-74000000D03*
X118000000Y-79000000D03*
D15*
X246500000Y-87000000D03*
D16*
X246500000Y-87000000D03*
%LPD*%
M02*
