%TF.GenerationSoftware,KiCad,Pcbnew,8.0.6*%
%TF.CreationDate,2024-12-07T18:03:22-08:00*%
%TF.ProjectId,Soil Power Sensor,536f696c-2050-46f7-9765-722053656e73,2.2.3*%
%TF.SameCoordinates,Original*%
%TF.FileFunction,Drillmap*%
%TF.FilePolarity,Positive*%
%FSLAX45Y45*%
G04 Gerber Fmt 4.5, Leading zero omitted, Abs format (unit mm)*
G04 Created by KiCad (PCBNEW 8.0.6) date 2024-12-07 18:03:22*
%MOMM*%
%LPD*%
G01*
G04 APERTURE LIST*
%ADD10C,0.050000*%
%ADD11C,0.200000*%
%ADD12C,0.100000*%
%ADD13C,0.130000*%
%ADD14C,0.320000*%
G04 APERTURE END LIST*
D10*
X11300000Y-9180163D02*
X25000000Y-9180163D01*
X25000000Y-4680163D02*
G75*
G02*
X25099997Y-4780163I0J-99997D01*
G01*
X11200000Y-4780163D02*
X11200000Y-9080163D01*
X25100000Y-9080163D02*
X25100000Y-4780163D01*
X25100000Y-9080163D02*
G75*
G02*
X25000000Y-9180160I-100000J3D01*
G01*
X11300000Y-4680163D02*
X25000000Y-4680163D01*
X11300000Y-9180163D02*
G75*
G02*
X11199997Y-9080163I0J100003D01*
G01*
X11200000Y-4780163D02*
G75*
G02*
X11300000Y-4680160I100000J3D01*
G01*
D11*
D12*
X12835000Y-5790000D02*
X12865000Y-5820000D01*
X12865000Y-5790000D02*
X12835000Y-5820000D01*
X12835000Y-7200000D02*
X12865000Y-7230000D01*
X12865000Y-7200000D02*
X12835000Y-7230000D01*
X13642000Y-5658000D02*
X13672000Y-5688000D01*
X13672000Y-5658000D02*
X13642000Y-5688000D01*
X13642000Y-5785000D02*
X13672000Y-5815000D01*
X13672000Y-5785000D02*
X13642000Y-5815000D01*
X13645000Y-7185000D02*
X13675000Y-7215000D01*
X13675000Y-7185000D02*
X13645000Y-7215000D01*
X13885000Y-6165000D02*
X13915000Y-6195000D01*
X13915000Y-6165000D02*
X13885000Y-6195000D01*
X13965000Y-7185000D02*
X13995000Y-7215000D01*
X13995000Y-7185000D02*
X13965000Y-7215000D01*
X14058750Y-7659000D02*
X14088750Y-7689000D01*
X14088750Y-7659000D02*
X14058750Y-7689000D01*
X14125000Y-6885000D02*
X14155000Y-6915000D01*
X14155000Y-6885000D02*
X14125000Y-6915000D01*
X14135000Y-5404000D02*
X14165000Y-5434000D01*
X14165000Y-5404000D02*
X14135000Y-5434000D01*
X14445000Y-7805000D02*
X14475000Y-7835000D01*
X14475000Y-7805000D02*
X14445000Y-7835000D01*
X14645000Y-5885000D02*
X14675000Y-5915000D01*
X14675000Y-5885000D02*
X14645000Y-5915000D01*
X14645000Y-6205000D02*
X14675000Y-6235000D01*
X14675000Y-6205000D02*
X14645000Y-6235000D01*
X14885000Y-6065000D02*
X14915000Y-6095000D01*
X14915000Y-6065000D02*
X14885000Y-6095000D01*
X14925000Y-6205000D02*
X14955000Y-6235000D01*
X14955000Y-6205000D02*
X14925000Y-6235000D01*
X14945000Y-7565000D02*
X14975000Y-7595000D01*
X14975000Y-7565000D02*
X14945000Y-7595000D01*
X15054000Y-7035000D02*
X15084000Y-7065000D01*
X15084000Y-7035000D02*
X15054000Y-7065000D01*
X15062000Y-6262500D02*
X15092000Y-6292500D01*
X15092000Y-6262500D02*
X15062000Y-6292500D01*
X15085000Y-5825000D02*
X15115000Y-5855000D01*
X15115000Y-5825000D02*
X15085000Y-5855000D01*
X15205000Y-6327500D02*
X15235000Y-6357500D01*
X15235000Y-6327500D02*
X15205000Y-6357500D01*
X15262500Y-7385000D02*
X15292500Y-7415000D01*
X15292500Y-7385000D02*
X15262500Y-7415000D01*
X15265000Y-7565000D02*
X15295000Y-7595000D01*
X15295000Y-7565000D02*
X15265000Y-7595000D01*
X15310000Y-8405000D02*
X15340000Y-8435000D01*
X15340000Y-8405000D02*
X15310000Y-8435000D01*
X15485000Y-7085000D02*
X15515000Y-7115000D01*
X15515000Y-7085000D02*
X15485000Y-7115000D01*
X15502500Y-7327500D02*
X15532500Y-7357500D01*
X15532500Y-7327500D02*
X15502500Y-7357500D01*
X15565000Y-5945000D02*
X15595000Y-5975000D01*
X15595000Y-5945000D02*
X15565000Y-5975000D01*
X15619800Y-6331500D02*
X15649800Y-6361500D01*
X15649800Y-6331500D02*
X15619800Y-6361500D01*
X15665000Y-5985000D02*
X15695000Y-6015000D01*
X15695000Y-5985000D02*
X15665000Y-6015000D01*
X15670000Y-6605000D02*
X15700000Y-6635000D01*
X15700000Y-6605000D02*
X15670000Y-6635000D01*
X15685000Y-6845000D02*
X15715000Y-6875000D01*
X15715000Y-6845000D02*
X15685000Y-6875000D01*
X15855000Y-7255000D02*
X15885000Y-7285000D01*
X15885000Y-7255000D02*
X15855000Y-7285000D01*
X15905000Y-7705000D02*
X15935000Y-7735000D01*
X15935000Y-7705000D02*
X15905000Y-7735000D01*
X16095000Y-7895000D02*
X16125000Y-7925000D01*
X16125000Y-7895000D02*
X16095000Y-7925000D01*
X16220000Y-6605000D02*
X16250000Y-6635000D01*
X16250000Y-6605000D02*
X16220000Y-6635000D01*
X16225000Y-7690000D02*
X16255000Y-7720000D01*
X16255000Y-7690000D02*
X16225000Y-7720000D01*
X16365000Y-8460000D02*
X16395000Y-8490000D01*
X16395000Y-8460000D02*
X16365000Y-8490000D01*
X16982500Y-7585000D02*
X17012500Y-7615000D01*
X17012500Y-7585000D02*
X16982500Y-7615000D01*
X17040000Y-6005000D02*
X17070000Y-6035000D01*
X17070000Y-6005000D02*
X17040000Y-6035000D01*
X17285000Y-6110000D02*
X17315000Y-6140000D01*
X17315000Y-6110000D02*
X17285000Y-6140000D01*
X17325000Y-7502700D02*
X17355000Y-7532700D01*
X17355000Y-7502700D02*
X17325000Y-7532700D01*
X17345000Y-7245000D02*
X17375000Y-7275000D01*
X17375000Y-7245000D02*
X17345000Y-7275000D01*
X17425000Y-7765000D02*
X17455000Y-7795000D01*
X17455000Y-7765000D02*
X17425000Y-7795000D01*
X17485000Y-8485000D02*
X17515000Y-8515000D01*
X17515000Y-8485000D02*
X17485000Y-8515000D01*
X17565000Y-8745000D02*
X17595000Y-8775000D01*
X17595000Y-8745000D02*
X17565000Y-8775000D01*
X17775000Y-7735000D02*
X17805000Y-7765000D01*
X17805000Y-7735000D02*
X17775000Y-7765000D01*
X17776407Y-7632300D02*
X17806407Y-7662300D01*
X17806407Y-7632300D02*
X17776407Y-7662300D01*
X17852300Y-7945000D02*
X17882300Y-7975000D01*
X17882300Y-7945000D02*
X17852300Y-7975000D01*
X17852300Y-8474336D02*
X17882300Y-8504336D01*
X17882300Y-8474336D02*
X17852300Y-8504336D01*
X17905000Y-7105000D02*
X17935000Y-7135000D01*
X17935000Y-7105000D02*
X17905000Y-7135000D01*
X17925000Y-6565000D02*
X17955000Y-6595000D01*
X17955000Y-6565000D02*
X17925000Y-6595000D01*
X17945000Y-7385000D02*
X17975000Y-7415000D01*
X17975000Y-7385000D02*
X17945000Y-7415000D01*
X18039700Y-8039700D02*
X18069700Y-8069700D01*
X18069700Y-8039700D02*
X18039700Y-8069700D01*
X18320000Y-6910000D02*
X18350000Y-6940000D01*
X18350000Y-6910000D02*
X18320000Y-6940000D01*
X18435000Y-6345000D02*
X18465000Y-6375000D01*
X18465000Y-6345000D02*
X18435000Y-6375000D01*
X18435000Y-6445000D02*
X18465000Y-6475000D01*
X18465000Y-6445000D02*
X18435000Y-6475000D01*
X18500000Y-5880000D02*
X18530000Y-5910000D01*
X18530000Y-5880000D02*
X18500000Y-5910000D01*
X18680000Y-6710000D02*
X18710000Y-6740000D01*
X18710000Y-6710000D02*
X18680000Y-6740000D01*
X18810000Y-7800000D02*
X18840000Y-7830000D01*
X18840000Y-7800000D02*
X18810000Y-7830000D01*
X18865000Y-8330000D02*
X18895000Y-8360000D01*
X18895000Y-8330000D02*
X18865000Y-8360000D01*
X18985000Y-6005000D02*
X19015000Y-6035000D01*
X19015000Y-6005000D02*
X18985000Y-6035000D01*
X19130000Y-5680000D02*
X19160000Y-5710000D01*
X19160000Y-5680000D02*
X19130000Y-5710000D01*
X19240000Y-6945000D02*
X19270000Y-6975000D01*
X19270000Y-6945000D02*
X19240000Y-6975000D01*
X19285000Y-8805000D02*
X19315000Y-8835000D01*
X19315000Y-8805000D02*
X19285000Y-8835000D01*
X19335000Y-5466000D02*
X19365000Y-5496000D01*
X19365000Y-5466000D02*
X19335000Y-5496000D01*
X19370000Y-6130000D02*
X19400000Y-6160000D01*
X19400000Y-6130000D02*
X19370000Y-6160000D01*
X19375000Y-6255000D02*
X19405000Y-6285000D01*
X19405000Y-6255000D02*
X19375000Y-6285000D01*
X19585000Y-5874000D02*
X19615000Y-5904000D01*
X19615000Y-5874000D02*
X19585000Y-5904000D01*
X19645000Y-8785000D02*
X19675000Y-8815000D01*
X19675000Y-8785000D02*
X19645000Y-8815000D01*
X19670000Y-8045000D02*
X19700000Y-8075000D01*
X19700000Y-8045000D02*
X19670000Y-8075000D01*
X19705000Y-7210000D02*
X19735000Y-7240000D01*
X19735000Y-7210000D02*
X19705000Y-7240000D01*
X19875000Y-8635000D02*
X19905000Y-8665000D01*
X19905000Y-8635000D02*
X19875000Y-8665000D01*
X19905000Y-8275000D02*
X19935000Y-8305000D01*
X19935000Y-8275000D02*
X19905000Y-8305000D01*
X20025000Y-5395000D02*
X20055000Y-5425000D01*
X20055000Y-5395000D02*
X20025000Y-5425000D01*
X20035000Y-7325000D02*
X20065000Y-7355000D01*
X20065000Y-7325000D02*
X20035000Y-7355000D01*
X20042800Y-8845000D02*
X20072800Y-8875000D01*
X20072800Y-8845000D02*
X20042800Y-8875000D01*
X20070000Y-6145000D02*
X20100000Y-6175000D01*
X20100000Y-6145000D02*
X20070000Y-6175000D01*
X20195000Y-5395000D02*
X20225000Y-5425000D01*
X20225000Y-5395000D02*
X20195000Y-5425000D01*
X20252300Y-8655000D02*
X20282300Y-8685000D01*
X20282300Y-8655000D02*
X20252300Y-8685000D01*
X20365000Y-7847700D02*
X20395000Y-7877700D01*
X20395000Y-7847700D02*
X20365000Y-7877700D01*
X20366900Y-8165000D02*
X20396900Y-8195000D01*
X20396900Y-8165000D02*
X20366900Y-8195000D01*
X20465235Y-8819765D02*
X20495235Y-8849765D01*
X20495235Y-8819765D02*
X20465235Y-8849765D01*
X20810000Y-7485000D02*
X20840000Y-7515000D01*
X20840000Y-7485000D02*
X20810000Y-7515000D01*
X20885000Y-5425000D02*
X20915000Y-5455000D01*
X20915000Y-5425000D02*
X20885000Y-5455000D01*
X20957000Y-8107000D02*
X20987000Y-8137000D01*
X20987000Y-8107000D02*
X20957000Y-8137000D01*
X20960000Y-5869000D02*
X20990000Y-5899000D01*
X20990000Y-5869000D02*
X20960000Y-5899000D01*
X21025000Y-5340000D02*
X21055000Y-5370000D01*
X21055000Y-5340000D02*
X21025000Y-5370000D01*
X21085000Y-6955000D02*
X21115000Y-6985000D01*
X21115000Y-6955000D02*
X21085000Y-6985000D01*
X21085000Y-8645000D02*
X21115000Y-8675000D01*
X21115000Y-8645000D02*
X21085000Y-8675000D01*
X21149600Y-7865000D02*
X21179600Y-7895000D01*
X21179600Y-7865000D02*
X21149600Y-7895000D01*
X21395000Y-7835000D02*
X21425000Y-7865000D01*
X21425000Y-7835000D02*
X21395000Y-7865000D01*
X22785000Y-8145000D02*
X22815000Y-8175000D01*
X22815000Y-8145000D02*
X22785000Y-8175000D01*
X23969333Y-6456213D02*
X23999333Y-6486213D01*
X23999333Y-6456213D02*
X23969333Y-6486213D01*
X23969333Y-8488213D02*
X23999333Y-8518213D01*
X23999333Y-8488213D02*
X23969333Y-8518213D01*
X23969333Y-8996213D02*
X23999333Y-9026213D01*
X23999333Y-8996213D02*
X23969333Y-9026213D01*
X24122500Y-5825000D02*
X24152500Y-5855000D01*
X24152500Y-5825000D02*
X24122500Y-5855000D01*
X24285000Y-5825000D02*
X24315000Y-5855000D01*
X24315000Y-5825000D02*
X24285000Y-5855000D01*
X12900000Y-6426000D02*
G75*
G02*
X12800000Y-6426000I-50000J0D01*
G01*
X12800000Y-6426000D02*
G75*
G02*
X12900000Y-6426000I50000J0D01*
G01*
X12900000Y-6680000D02*
G75*
G02*
X12800000Y-6680000I-50000J0D01*
G01*
X12800000Y-6680000D02*
G75*
G02*
X12900000Y-6680000I50000J0D01*
G01*
X16956000Y-7906000D02*
G75*
G02*
X16856000Y-7906000I-50000J0D01*
G01*
X16856000Y-7906000D02*
G75*
G02*
X16956000Y-7906000I50000J0D01*
G01*
X16956000Y-8160000D02*
G75*
G02*
X16856000Y-8160000I-50000J0D01*
G01*
X16856000Y-8160000D02*
G75*
G02*
X16956000Y-8160000I50000J0D01*
G01*
X16956000Y-8414000D02*
G75*
G02*
X16856000Y-8414000I-50000J0D01*
G01*
X16856000Y-8414000D02*
G75*
G02*
X16956000Y-8414000I50000J0D01*
G01*
X16956000Y-8668000D02*
G75*
G02*
X16856000Y-8668000I-50000J0D01*
G01*
X16856000Y-8668000D02*
G75*
G02*
X16956000Y-8668000I50000J0D01*
G01*
X16956000Y-8922000D02*
G75*
G02*
X16856000Y-8922000I-50000J0D01*
G01*
X16856000Y-8922000D02*
G75*
G02*
X16956000Y-8922000I50000J0D01*
G01*
X17210000Y-7906000D02*
G75*
G02*
X17110000Y-7906000I-50000J0D01*
G01*
X17110000Y-7906000D02*
G75*
G02*
X17210000Y-7906000I50000J0D01*
G01*
X17210000Y-8160000D02*
G75*
G02*
X17110000Y-8160000I-50000J0D01*
G01*
X17110000Y-8160000D02*
G75*
G02*
X17210000Y-8160000I50000J0D01*
G01*
X17210000Y-8414000D02*
G75*
G02*
X17110000Y-8414000I-50000J0D01*
G01*
X17110000Y-8414000D02*
G75*
G02*
X17210000Y-8414000I50000J0D01*
G01*
X17210000Y-8668000D02*
G75*
G02*
X17110000Y-8668000I-50000J0D01*
G01*
X17110000Y-8668000D02*
G75*
G02*
X17210000Y-8668000I50000J0D01*
G01*
X17210000Y-8922000D02*
G75*
G02*
X17110000Y-8922000I-50000J0D01*
G01*
X17110000Y-8922000D02*
G75*
G02*
X17210000Y-8922000I50000J0D01*
G01*
X24690000Y-5810000D02*
G75*
G02*
X24590000Y-5810000I-50000J0D01*
G01*
X24590000Y-5810000D02*
G75*
G02*
X24690000Y-5810000I50000J0D01*
G01*
X24690000Y-6064000D02*
G75*
G02*
X24590000Y-6064000I-50000J0D01*
G01*
X24590000Y-6064000D02*
G75*
G02*
X24690000Y-6064000I50000J0D01*
G01*
X24690000Y-6318000D02*
G75*
G02*
X24590000Y-6318000I-50000J0D01*
G01*
X24590000Y-6318000D02*
G75*
G02*
X24690000Y-6318000I50000J0D01*
G01*
X24690000Y-6572000D02*
G75*
G02*
X24590000Y-6572000I-50000J0D01*
G01*
X24590000Y-6572000D02*
G75*
G02*
X24690000Y-6572000I50000J0D01*
G01*
X24690000Y-6826000D02*
G75*
G02*
X24590000Y-6826000I-50000J0D01*
G01*
X24590000Y-6826000D02*
G75*
G02*
X24690000Y-6826000I50000J0D01*
G01*
X24690000Y-7080000D02*
G75*
G02*
X24590000Y-7080000I-50000J0D01*
G01*
X24590000Y-7080000D02*
G75*
G02*
X24690000Y-7080000I50000J0D01*
G01*
X24690000Y-7334000D02*
G75*
G02*
X24590000Y-7334000I-50000J0D01*
G01*
X24590000Y-7334000D02*
G75*
G02*
X24690000Y-7334000I50000J0D01*
G01*
X24690000Y-7588000D02*
G75*
G02*
X24590000Y-7588000I-50000J0D01*
G01*
X24590000Y-7588000D02*
G75*
G02*
X24690000Y-7588000I50000J0D01*
G01*
X24690000Y-7842000D02*
G75*
G02*
X24590000Y-7842000I-50000J0D01*
G01*
X24590000Y-7842000D02*
G75*
G02*
X24690000Y-7842000I50000J0D01*
G01*
X24690000Y-8096000D02*
G75*
G02*
X24590000Y-8096000I-50000J0D01*
G01*
X24590000Y-8096000D02*
G75*
G02*
X24690000Y-8096000I50000J0D01*
G01*
D13*
X11800000Y-5835000D02*
X11800000Y-5965000D01*
X11735000Y-5900000D02*
X11865000Y-5900000D01*
X11800000Y-6335000D02*
X11800000Y-6465000D01*
X11735000Y-6400000D02*
X11865000Y-6400000D01*
X11800000Y-6835000D02*
X11800000Y-6965000D01*
X11735000Y-6900000D02*
X11865000Y-6900000D01*
X11800000Y-7335000D02*
X11800000Y-7465000D01*
X11735000Y-7400000D02*
X11865000Y-7400000D01*
X11800000Y-7835000D02*
X11800000Y-7965000D01*
X11735000Y-7900000D02*
X11865000Y-7900000D01*
X17055000Y-5240000D02*
X17055000Y-5370000D01*
X16990000Y-5305000D02*
X17120000Y-5305000D01*
X17555000Y-5240000D02*
X17555000Y-5370000D01*
X17490000Y-5305000D02*
X17620000Y-5305000D01*
X18055000Y-5240000D02*
X18055000Y-5370000D01*
X17990000Y-5305000D02*
X18120000Y-5305000D01*
D14*
X11763138Y-5263138D02*
X11763138Y-5036862D01*
X11536862Y-5036862D01*
X11536862Y-5263138D01*
X11763138Y-5263138D01*
X11763138Y-8813138D02*
X11763138Y-8586862D01*
X11536862Y-8586862D01*
X11536862Y-8813138D01*
X11763138Y-8813138D01*
X24763138Y-5263138D02*
X24763138Y-5036862D01*
X24536862Y-5036862D01*
X24536862Y-5263138D01*
X24763138Y-5263138D01*
X24763138Y-8813138D02*
X24763138Y-8586862D01*
X24536862Y-8586862D01*
X24536862Y-8813138D01*
X24763138Y-8813138D01*
D11*
X11458277Y-9494147D02*
X11458277Y-9294147D01*
X11458277Y-9294147D02*
X11505896Y-9294147D01*
X11505896Y-9294147D02*
X11534467Y-9303671D01*
X11534467Y-9303671D02*
X11553515Y-9322719D01*
X11553515Y-9322719D02*
X11563039Y-9341766D01*
X11563039Y-9341766D02*
X11572562Y-9379861D01*
X11572562Y-9379861D02*
X11572562Y-9408433D01*
X11572562Y-9408433D02*
X11563039Y-9446528D01*
X11563039Y-9446528D02*
X11553515Y-9465576D01*
X11553515Y-9465576D02*
X11534467Y-9484623D01*
X11534467Y-9484623D02*
X11505896Y-9494147D01*
X11505896Y-9494147D02*
X11458277Y-9494147D01*
X11658277Y-9494147D02*
X11658277Y-9360814D01*
X11658277Y-9398909D02*
X11667801Y-9379861D01*
X11667801Y-9379861D02*
X11677324Y-9370338D01*
X11677324Y-9370338D02*
X11696372Y-9360814D01*
X11696372Y-9360814D02*
X11715420Y-9360814D01*
X11782086Y-9494147D02*
X11782086Y-9360814D01*
X11782086Y-9294147D02*
X11772562Y-9303671D01*
X11772562Y-9303671D02*
X11782086Y-9313195D01*
X11782086Y-9313195D02*
X11791610Y-9303671D01*
X11791610Y-9303671D02*
X11782086Y-9294147D01*
X11782086Y-9294147D02*
X11782086Y-9313195D01*
X11905896Y-9494147D02*
X11886848Y-9484623D01*
X11886848Y-9484623D02*
X11877324Y-9465576D01*
X11877324Y-9465576D02*
X11877324Y-9294147D01*
X12010658Y-9494147D02*
X11991610Y-9484623D01*
X11991610Y-9484623D02*
X11982086Y-9465576D01*
X11982086Y-9465576D02*
X11982086Y-9294147D01*
X12239229Y-9494147D02*
X12239229Y-9294147D01*
X12239229Y-9294147D02*
X12305896Y-9437004D01*
X12305896Y-9437004D02*
X12372562Y-9294147D01*
X12372562Y-9294147D02*
X12372562Y-9494147D01*
X12553515Y-9494147D02*
X12553515Y-9389385D01*
X12553515Y-9389385D02*
X12543991Y-9370338D01*
X12543991Y-9370338D02*
X12524943Y-9360814D01*
X12524943Y-9360814D02*
X12486848Y-9360814D01*
X12486848Y-9360814D02*
X12467801Y-9370338D01*
X12553515Y-9484623D02*
X12534467Y-9494147D01*
X12534467Y-9494147D02*
X12486848Y-9494147D01*
X12486848Y-9494147D02*
X12467801Y-9484623D01*
X12467801Y-9484623D02*
X12458277Y-9465576D01*
X12458277Y-9465576D02*
X12458277Y-9446528D01*
X12458277Y-9446528D02*
X12467801Y-9427480D01*
X12467801Y-9427480D02*
X12486848Y-9417957D01*
X12486848Y-9417957D02*
X12534467Y-9417957D01*
X12534467Y-9417957D02*
X12553515Y-9408433D01*
X12648753Y-9360814D02*
X12648753Y-9560814D01*
X12648753Y-9370338D02*
X12667801Y-9360814D01*
X12667801Y-9360814D02*
X12705896Y-9360814D01*
X12705896Y-9360814D02*
X12724943Y-9370338D01*
X12724943Y-9370338D02*
X12734467Y-9379861D01*
X12734467Y-9379861D02*
X12743991Y-9398909D01*
X12743991Y-9398909D02*
X12743991Y-9456052D01*
X12743991Y-9456052D02*
X12734467Y-9475099D01*
X12734467Y-9475099D02*
X12724943Y-9484623D01*
X12724943Y-9484623D02*
X12705896Y-9494147D01*
X12705896Y-9494147D02*
X12667801Y-9494147D01*
X12667801Y-9494147D02*
X12648753Y-9484623D01*
X12829705Y-9475099D02*
X12839229Y-9484623D01*
X12839229Y-9484623D02*
X12829705Y-9494147D01*
X12829705Y-9494147D02*
X12820182Y-9484623D01*
X12820182Y-9484623D02*
X12829705Y-9475099D01*
X12829705Y-9475099D02*
X12829705Y-9494147D01*
X12829705Y-9370338D02*
X12839229Y-9379861D01*
X12839229Y-9379861D02*
X12829705Y-9389385D01*
X12829705Y-9389385D02*
X12820182Y-9379861D01*
X12820182Y-9379861D02*
X12829705Y-9370338D01*
X12829705Y-9370338D02*
X12829705Y-9389385D01*
D12*
X11167500Y-9807663D02*
X11197500Y-9837663D01*
X11197500Y-9807663D02*
X11167500Y-9837663D01*
D11*
X11496372Y-9714147D02*
X11515420Y-9714147D01*
X11515420Y-9714147D02*
X11534467Y-9723671D01*
X11534467Y-9723671D02*
X11543991Y-9733195D01*
X11543991Y-9733195D02*
X11553515Y-9752242D01*
X11553515Y-9752242D02*
X11563039Y-9790338D01*
X11563039Y-9790338D02*
X11563039Y-9837957D01*
X11563039Y-9837957D02*
X11553515Y-9876052D01*
X11553515Y-9876052D02*
X11543991Y-9895099D01*
X11543991Y-9895099D02*
X11534467Y-9904623D01*
X11534467Y-9904623D02*
X11515420Y-9914147D01*
X11515420Y-9914147D02*
X11496372Y-9914147D01*
X11496372Y-9914147D02*
X11477324Y-9904623D01*
X11477324Y-9904623D02*
X11467801Y-9895099D01*
X11467801Y-9895099D02*
X11458277Y-9876052D01*
X11458277Y-9876052D02*
X11448753Y-9837957D01*
X11448753Y-9837957D02*
X11448753Y-9790338D01*
X11448753Y-9790338D02*
X11458277Y-9752242D01*
X11458277Y-9752242D02*
X11467801Y-9733195D01*
X11467801Y-9733195D02*
X11477324Y-9723671D01*
X11477324Y-9723671D02*
X11496372Y-9714147D01*
X11648753Y-9895099D02*
X11658277Y-9904623D01*
X11658277Y-9904623D02*
X11648753Y-9914147D01*
X11648753Y-9914147D02*
X11639229Y-9904623D01*
X11639229Y-9904623D02*
X11648753Y-9895099D01*
X11648753Y-9895099D02*
X11648753Y-9914147D01*
X11724943Y-9714147D02*
X11848753Y-9714147D01*
X11848753Y-9714147D02*
X11782086Y-9790338D01*
X11782086Y-9790338D02*
X11810658Y-9790338D01*
X11810658Y-9790338D02*
X11829705Y-9799861D01*
X11829705Y-9799861D02*
X11839229Y-9809385D01*
X11839229Y-9809385D02*
X11848753Y-9828433D01*
X11848753Y-9828433D02*
X11848753Y-9876052D01*
X11848753Y-9876052D02*
X11839229Y-9895099D01*
X11839229Y-9895099D02*
X11829705Y-9904623D01*
X11829705Y-9904623D02*
X11810658Y-9914147D01*
X11810658Y-9914147D02*
X11753515Y-9914147D01*
X11753515Y-9914147D02*
X11734467Y-9904623D01*
X11734467Y-9904623D02*
X11724943Y-9895099D01*
X11972562Y-9714147D02*
X11991610Y-9714147D01*
X11991610Y-9714147D02*
X12010658Y-9723671D01*
X12010658Y-9723671D02*
X12020182Y-9733195D01*
X12020182Y-9733195D02*
X12029705Y-9752242D01*
X12029705Y-9752242D02*
X12039229Y-9790338D01*
X12039229Y-9790338D02*
X12039229Y-9837957D01*
X12039229Y-9837957D02*
X12029705Y-9876052D01*
X12029705Y-9876052D02*
X12020182Y-9895099D01*
X12020182Y-9895099D02*
X12010658Y-9904623D01*
X12010658Y-9904623D02*
X11991610Y-9914147D01*
X11991610Y-9914147D02*
X11972562Y-9914147D01*
X11972562Y-9914147D02*
X11953515Y-9904623D01*
X11953515Y-9904623D02*
X11943991Y-9895099D01*
X11943991Y-9895099D02*
X11934467Y-9876052D01*
X11934467Y-9876052D02*
X11924943Y-9837957D01*
X11924943Y-9837957D02*
X11924943Y-9790338D01*
X11924943Y-9790338D02*
X11934467Y-9752242D01*
X11934467Y-9752242D02*
X11943991Y-9733195D01*
X11943991Y-9733195D02*
X11953515Y-9723671D01*
X11953515Y-9723671D02*
X11972562Y-9714147D01*
X12163039Y-9714147D02*
X12182086Y-9714147D01*
X12182086Y-9714147D02*
X12201134Y-9723671D01*
X12201134Y-9723671D02*
X12210658Y-9733195D01*
X12210658Y-9733195D02*
X12220182Y-9752242D01*
X12220182Y-9752242D02*
X12229705Y-9790338D01*
X12229705Y-9790338D02*
X12229705Y-9837957D01*
X12229705Y-9837957D02*
X12220182Y-9876052D01*
X12220182Y-9876052D02*
X12210658Y-9895099D01*
X12210658Y-9895099D02*
X12201134Y-9904623D01*
X12201134Y-9904623D02*
X12182086Y-9914147D01*
X12182086Y-9914147D02*
X12163039Y-9914147D01*
X12163039Y-9914147D02*
X12143991Y-9904623D01*
X12143991Y-9904623D02*
X12134467Y-9895099D01*
X12134467Y-9895099D02*
X12124943Y-9876052D01*
X12124943Y-9876052D02*
X12115420Y-9837957D01*
X12115420Y-9837957D02*
X12115420Y-9790338D01*
X12115420Y-9790338D02*
X12124943Y-9752242D01*
X12124943Y-9752242D02*
X12134467Y-9733195D01*
X12134467Y-9733195D02*
X12143991Y-9723671D01*
X12143991Y-9723671D02*
X12163039Y-9714147D01*
X12315420Y-9914147D02*
X12315420Y-9780814D01*
X12315420Y-9799861D02*
X12324943Y-9790338D01*
X12324943Y-9790338D02*
X12343991Y-9780814D01*
X12343991Y-9780814D02*
X12372563Y-9780814D01*
X12372563Y-9780814D02*
X12391610Y-9790338D01*
X12391610Y-9790338D02*
X12401134Y-9809385D01*
X12401134Y-9809385D02*
X12401134Y-9914147D01*
X12401134Y-9809385D02*
X12410658Y-9790338D01*
X12410658Y-9790338D02*
X12429705Y-9780814D01*
X12429705Y-9780814D02*
X12458277Y-9780814D01*
X12458277Y-9780814D02*
X12477324Y-9790338D01*
X12477324Y-9790338D02*
X12486848Y-9809385D01*
X12486848Y-9809385D02*
X12486848Y-9914147D01*
X12582086Y-9914147D02*
X12582086Y-9780814D01*
X12582086Y-9799861D02*
X12591610Y-9790338D01*
X12591610Y-9790338D02*
X12610658Y-9780814D01*
X12610658Y-9780814D02*
X12639229Y-9780814D01*
X12639229Y-9780814D02*
X12658277Y-9790338D01*
X12658277Y-9790338D02*
X12667801Y-9809385D01*
X12667801Y-9809385D02*
X12667801Y-9914147D01*
X12667801Y-9809385D02*
X12677324Y-9790338D01*
X12677324Y-9790338D02*
X12696372Y-9780814D01*
X12696372Y-9780814D02*
X12724943Y-9780814D01*
X12724943Y-9780814D02*
X12743991Y-9790338D01*
X12743991Y-9790338D02*
X12753515Y-9809385D01*
X12753515Y-9809385D02*
X12753515Y-9914147D01*
X13143991Y-9704623D02*
X12972563Y-9961766D01*
X13401134Y-9714147D02*
X13420182Y-9714147D01*
X13420182Y-9714147D02*
X13439229Y-9723671D01*
X13439229Y-9723671D02*
X13448753Y-9733195D01*
X13448753Y-9733195D02*
X13458277Y-9752242D01*
X13458277Y-9752242D02*
X13467801Y-9790338D01*
X13467801Y-9790338D02*
X13467801Y-9837957D01*
X13467801Y-9837957D02*
X13458277Y-9876052D01*
X13458277Y-9876052D02*
X13448753Y-9895099D01*
X13448753Y-9895099D02*
X13439229Y-9904623D01*
X13439229Y-9904623D02*
X13420182Y-9914147D01*
X13420182Y-9914147D02*
X13401134Y-9914147D01*
X13401134Y-9914147D02*
X13382086Y-9904623D01*
X13382086Y-9904623D02*
X13372563Y-9895099D01*
X13372563Y-9895099D02*
X13363039Y-9876052D01*
X13363039Y-9876052D02*
X13353515Y-9837957D01*
X13353515Y-9837957D02*
X13353515Y-9790338D01*
X13353515Y-9790338D02*
X13363039Y-9752242D01*
X13363039Y-9752242D02*
X13372563Y-9733195D01*
X13372563Y-9733195D02*
X13382086Y-9723671D01*
X13382086Y-9723671D02*
X13401134Y-9714147D01*
X13553515Y-9895099D02*
X13563039Y-9904623D01*
X13563039Y-9904623D02*
X13553515Y-9914147D01*
X13553515Y-9914147D02*
X13543991Y-9904623D01*
X13543991Y-9904623D02*
X13553515Y-9895099D01*
X13553515Y-9895099D02*
X13553515Y-9914147D01*
X13686848Y-9714147D02*
X13705896Y-9714147D01*
X13705896Y-9714147D02*
X13724944Y-9723671D01*
X13724944Y-9723671D02*
X13734467Y-9733195D01*
X13734467Y-9733195D02*
X13743991Y-9752242D01*
X13743991Y-9752242D02*
X13753515Y-9790338D01*
X13753515Y-9790338D02*
X13753515Y-9837957D01*
X13753515Y-9837957D02*
X13743991Y-9876052D01*
X13743991Y-9876052D02*
X13734467Y-9895099D01*
X13734467Y-9895099D02*
X13724944Y-9904623D01*
X13724944Y-9904623D02*
X13705896Y-9914147D01*
X13705896Y-9914147D02*
X13686848Y-9914147D01*
X13686848Y-9914147D02*
X13667801Y-9904623D01*
X13667801Y-9904623D02*
X13658277Y-9895099D01*
X13658277Y-9895099D02*
X13648753Y-9876052D01*
X13648753Y-9876052D02*
X13639229Y-9837957D01*
X13639229Y-9837957D02*
X13639229Y-9790338D01*
X13639229Y-9790338D02*
X13648753Y-9752242D01*
X13648753Y-9752242D02*
X13658277Y-9733195D01*
X13658277Y-9733195D02*
X13667801Y-9723671D01*
X13667801Y-9723671D02*
X13686848Y-9714147D01*
X13943991Y-9914147D02*
X13829706Y-9914147D01*
X13886848Y-9914147D02*
X13886848Y-9714147D01*
X13886848Y-9714147D02*
X13867801Y-9742719D01*
X13867801Y-9742719D02*
X13848753Y-9761766D01*
X13848753Y-9761766D02*
X13829706Y-9771290D01*
X14134467Y-9914147D02*
X14020182Y-9914147D01*
X14077325Y-9914147D02*
X14077325Y-9714147D01*
X14077325Y-9714147D02*
X14058277Y-9742719D01*
X14058277Y-9742719D02*
X14039229Y-9761766D01*
X14039229Y-9761766D02*
X14020182Y-9771290D01*
X14248753Y-9799861D02*
X14229706Y-9790338D01*
X14229706Y-9790338D02*
X14220182Y-9780814D01*
X14220182Y-9780814D02*
X14210658Y-9761766D01*
X14210658Y-9761766D02*
X14210658Y-9752242D01*
X14210658Y-9752242D02*
X14220182Y-9733195D01*
X14220182Y-9733195D02*
X14229706Y-9723671D01*
X14229706Y-9723671D02*
X14248753Y-9714147D01*
X14248753Y-9714147D02*
X14286848Y-9714147D01*
X14286848Y-9714147D02*
X14305896Y-9723671D01*
X14305896Y-9723671D02*
X14315420Y-9733195D01*
X14315420Y-9733195D02*
X14324944Y-9752242D01*
X14324944Y-9752242D02*
X14324944Y-9761766D01*
X14324944Y-9761766D02*
X14315420Y-9780814D01*
X14315420Y-9780814D02*
X14305896Y-9790338D01*
X14305896Y-9790338D02*
X14286848Y-9799861D01*
X14286848Y-9799861D02*
X14248753Y-9799861D01*
X14248753Y-9799861D02*
X14229706Y-9809385D01*
X14229706Y-9809385D02*
X14220182Y-9818909D01*
X14220182Y-9818909D02*
X14210658Y-9837957D01*
X14210658Y-9837957D02*
X14210658Y-9876052D01*
X14210658Y-9876052D02*
X14220182Y-9895099D01*
X14220182Y-9895099D02*
X14229706Y-9904623D01*
X14229706Y-9904623D02*
X14248753Y-9914147D01*
X14248753Y-9914147D02*
X14286848Y-9914147D01*
X14286848Y-9914147D02*
X14305896Y-9904623D01*
X14305896Y-9904623D02*
X14315420Y-9895099D01*
X14315420Y-9895099D02*
X14324944Y-9876052D01*
X14324944Y-9876052D02*
X14324944Y-9837957D01*
X14324944Y-9837957D02*
X14315420Y-9818909D01*
X14315420Y-9818909D02*
X14305896Y-9809385D01*
X14305896Y-9809385D02*
X14286848Y-9799861D01*
X14401134Y-9714147D02*
X14401134Y-9752242D01*
X14477325Y-9714147D02*
X14477325Y-9752242D01*
X14772563Y-9990338D02*
X14763039Y-9980814D01*
X14763039Y-9980814D02*
X14743991Y-9952242D01*
X14743991Y-9952242D02*
X14734468Y-9933195D01*
X14734468Y-9933195D02*
X14724944Y-9904623D01*
X14724944Y-9904623D02*
X14715420Y-9857004D01*
X14715420Y-9857004D02*
X14715420Y-9818909D01*
X14715420Y-9818909D02*
X14724944Y-9771290D01*
X14724944Y-9771290D02*
X14734468Y-9742719D01*
X14734468Y-9742719D02*
X14743991Y-9723671D01*
X14743991Y-9723671D02*
X14763039Y-9695099D01*
X14763039Y-9695099D02*
X14772563Y-9685576D01*
X14858277Y-9914147D02*
X14896372Y-9914147D01*
X14896372Y-9914147D02*
X14915420Y-9904623D01*
X14915420Y-9904623D02*
X14924944Y-9895099D01*
X14924944Y-9895099D02*
X14943991Y-9866528D01*
X14943991Y-9866528D02*
X14953515Y-9828433D01*
X14953515Y-9828433D02*
X14953515Y-9752242D01*
X14953515Y-9752242D02*
X14943991Y-9733195D01*
X14943991Y-9733195D02*
X14934468Y-9723671D01*
X14934468Y-9723671D02*
X14915420Y-9714147D01*
X14915420Y-9714147D02*
X14877325Y-9714147D01*
X14877325Y-9714147D02*
X14858277Y-9723671D01*
X14858277Y-9723671D02*
X14848753Y-9733195D01*
X14848753Y-9733195D02*
X14839229Y-9752242D01*
X14839229Y-9752242D02*
X14839229Y-9799861D01*
X14839229Y-9799861D02*
X14848753Y-9818909D01*
X14848753Y-9818909D02*
X14858277Y-9828433D01*
X14858277Y-9828433D02*
X14877325Y-9837957D01*
X14877325Y-9837957D02*
X14915420Y-9837957D01*
X14915420Y-9837957D02*
X14934468Y-9828433D01*
X14934468Y-9828433D02*
X14943991Y-9818909D01*
X14943991Y-9818909D02*
X14953515Y-9799861D01*
X15124944Y-9714147D02*
X15086848Y-9714147D01*
X15086848Y-9714147D02*
X15067801Y-9723671D01*
X15067801Y-9723671D02*
X15058277Y-9733195D01*
X15058277Y-9733195D02*
X15039229Y-9761766D01*
X15039229Y-9761766D02*
X15029706Y-9799861D01*
X15029706Y-9799861D02*
X15029706Y-9876052D01*
X15029706Y-9876052D02*
X15039229Y-9895099D01*
X15039229Y-9895099D02*
X15048753Y-9904623D01*
X15048753Y-9904623D02*
X15067801Y-9914147D01*
X15067801Y-9914147D02*
X15105896Y-9914147D01*
X15105896Y-9914147D02*
X15124944Y-9904623D01*
X15124944Y-9904623D02*
X15134468Y-9895099D01*
X15134468Y-9895099D02*
X15143991Y-9876052D01*
X15143991Y-9876052D02*
X15143991Y-9828433D01*
X15143991Y-9828433D02*
X15134468Y-9809385D01*
X15134468Y-9809385D02*
X15124944Y-9799861D01*
X15124944Y-9799861D02*
X15105896Y-9790338D01*
X15105896Y-9790338D02*
X15067801Y-9790338D01*
X15067801Y-9790338D02*
X15048753Y-9799861D01*
X15048753Y-9799861D02*
X15039229Y-9809385D01*
X15039229Y-9809385D02*
X15029706Y-9828433D01*
X15382087Y-9914147D02*
X15382087Y-9714147D01*
X15467801Y-9914147D02*
X15467801Y-9809385D01*
X15467801Y-9809385D02*
X15458277Y-9790338D01*
X15458277Y-9790338D02*
X15439230Y-9780814D01*
X15439230Y-9780814D02*
X15410658Y-9780814D01*
X15410658Y-9780814D02*
X15391610Y-9790338D01*
X15391610Y-9790338D02*
X15382087Y-9799861D01*
X15591610Y-9914147D02*
X15572563Y-9904623D01*
X15572563Y-9904623D02*
X15563039Y-9895099D01*
X15563039Y-9895099D02*
X15553515Y-9876052D01*
X15553515Y-9876052D02*
X15553515Y-9818909D01*
X15553515Y-9818909D02*
X15563039Y-9799861D01*
X15563039Y-9799861D02*
X15572563Y-9790338D01*
X15572563Y-9790338D02*
X15591610Y-9780814D01*
X15591610Y-9780814D02*
X15620182Y-9780814D01*
X15620182Y-9780814D02*
X15639230Y-9790338D01*
X15639230Y-9790338D02*
X15648753Y-9799861D01*
X15648753Y-9799861D02*
X15658277Y-9818909D01*
X15658277Y-9818909D02*
X15658277Y-9876052D01*
X15658277Y-9876052D02*
X15648753Y-9895099D01*
X15648753Y-9895099D02*
X15639230Y-9904623D01*
X15639230Y-9904623D02*
X15620182Y-9914147D01*
X15620182Y-9914147D02*
X15591610Y-9914147D01*
X15772563Y-9914147D02*
X15753515Y-9904623D01*
X15753515Y-9904623D02*
X15743991Y-9885576D01*
X15743991Y-9885576D02*
X15743991Y-9714147D01*
X15924944Y-9904623D02*
X15905896Y-9914147D01*
X15905896Y-9914147D02*
X15867801Y-9914147D01*
X15867801Y-9914147D02*
X15848753Y-9904623D01*
X15848753Y-9904623D02*
X15839230Y-9885576D01*
X15839230Y-9885576D02*
X15839230Y-9809385D01*
X15839230Y-9809385D02*
X15848753Y-9790338D01*
X15848753Y-9790338D02*
X15867801Y-9780814D01*
X15867801Y-9780814D02*
X15905896Y-9780814D01*
X15905896Y-9780814D02*
X15924944Y-9790338D01*
X15924944Y-9790338D02*
X15934468Y-9809385D01*
X15934468Y-9809385D02*
X15934468Y-9828433D01*
X15934468Y-9828433D02*
X15839230Y-9847480D01*
X16010658Y-9904623D02*
X16029706Y-9914147D01*
X16029706Y-9914147D02*
X16067801Y-9914147D01*
X16067801Y-9914147D02*
X16086849Y-9904623D01*
X16086849Y-9904623D02*
X16096372Y-9885576D01*
X16096372Y-9885576D02*
X16096372Y-9876052D01*
X16096372Y-9876052D02*
X16086849Y-9857004D01*
X16086849Y-9857004D02*
X16067801Y-9847480D01*
X16067801Y-9847480D02*
X16039230Y-9847480D01*
X16039230Y-9847480D02*
X16020182Y-9837957D01*
X16020182Y-9837957D02*
X16010658Y-9818909D01*
X16010658Y-9818909D02*
X16010658Y-9809385D01*
X16010658Y-9809385D02*
X16020182Y-9790338D01*
X16020182Y-9790338D02*
X16039230Y-9780814D01*
X16039230Y-9780814D02*
X16067801Y-9780814D01*
X16067801Y-9780814D02*
X16086849Y-9790338D01*
X16163039Y-9990338D02*
X16172563Y-9980814D01*
X16172563Y-9980814D02*
X16191611Y-9952242D01*
X16191611Y-9952242D02*
X16201134Y-9933195D01*
X16201134Y-9933195D02*
X16210658Y-9904623D01*
X16210658Y-9904623D02*
X16220182Y-9857004D01*
X16220182Y-9857004D02*
X16220182Y-9818909D01*
X16220182Y-9818909D02*
X16210658Y-9771290D01*
X16210658Y-9771290D02*
X16201134Y-9742719D01*
X16201134Y-9742719D02*
X16191611Y-9723671D01*
X16191611Y-9723671D02*
X16172563Y-9695099D01*
X16172563Y-9695099D02*
X16163039Y-9685576D01*
D12*
X11197500Y-10086663D02*
G75*
G02*
X11097500Y-10086663I-50000J0D01*
G01*
X11097500Y-10086663D02*
G75*
G02*
X11197500Y-10086663I50000J0D01*
G01*
D11*
X11563039Y-10178147D02*
X11448753Y-10178147D01*
X11505896Y-10178147D02*
X11505896Y-9978147D01*
X11505896Y-9978147D02*
X11486848Y-10006719D01*
X11486848Y-10006719D02*
X11467801Y-10025766D01*
X11467801Y-10025766D02*
X11448753Y-10035290D01*
X11648753Y-10159099D02*
X11658277Y-10168623D01*
X11658277Y-10168623D02*
X11648753Y-10178147D01*
X11648753Y-10178147D02*
X11639229Y-10168623D01*
X11639229Y-10168623D02*
X11648753Y-10159099D01*
X11648753Y-10159099D02*
X11648753Y-10178147D01*
X11782086Y-9978147D02*
X11801134Y-9978147D01*
X11801134Y-9978147D02*
X11820182Y-9987671D01*
X11820182Y-9987671D02*
X11829705Y-9997195D01*
X11829705Y-9997195D02*
X11839229Y-10016242D01*
X11839229Y-10016242D02*
X11848753Y-10054338D01*
X11848753Y-10054338D02*
X11848753Y-10101957D01*
X11848753Y-10101957D02*
X11839229Y-10140052D01*
X11839229Y-10140052D02*
X11829705Y-10159099D01*
X11829705Y-10159099D02*
X11820182Y-10168623D01*
X11820182Y-10168623D02*
X11801134Y-10178147D01*
X11801134Y-10178147D02*
X11782086Y-10178147D01*
X11782086Y-10178147D02*
X11763039Y-10168623D01*
X11763039Y-10168623D02*
X11753515Y-10159099D01*
X11753515Y-10159099D02*
X11743991Y-10140052D01*
X11743991Y-10140052D02*
X11734467Y-10101957D01*
X11734467Y-10101957D02*
X11734467Y-10054338D01*
X11734467Y-10054338D02*
X11743991Y-10016242D01*
X11743991Y-10016242D02*
X11753515Y-9997195D01*
X11753515Y-9997195D02*
X11763039Y-9987671D01*
X11763039Y-9987671D02*
X11782086Y-9978147D01*
X11972562Y-9978147D02*
X11991610Y-9978147D01*
X11991610Y-9978147D02*
X12010658Y-9987671D01*
X12010658Y-9987671D02*
X12020182Y-9997195D01*
X12020182Y-9997195D02*
X12029705Y-10016242D01*
X12029705Y-10016242D02*
X12039229Y-10054338D01*
X12039229Y-10054338D02*
X12039229Y-10101957D01*
X12039229Y-10101957D02*
X12029705Y-10140052D01*
X12029705Y-10140052D02*
X12020182Y-10159099D01*
X12020182Y-10159099D02*
X12010658Y-10168623D01*
X12010658Y-10168623D02*
X11991610Y-10178147D01*
X11991610Y-10178147D02*
X11972562Y-10178147D01*
X11972562Y-10178147D02*
X11953515Y-10168623D01*
X11953515Y-10168623D02*
X11943991Y-10159099D01*
X11943991Y-10159099D02*
X11934467Y-10140052D01*
X11934467Y-10140052D02*
X11924943Y-10101957D01*
X11924943Y-10101957D02*
X11924943Y-10054338D01*
X11924943Y-10054338D02*
X11934467Y-10016242D01*
X11934467Y-10016242D02*
X11943991Y-9997195D01*
X11943991Y-9997195D02*
X11953515Y-9987671D01*
X11953515Y-9987671D02*
X11972562Y-9978147D01*
X12163039Y-9978147D02*
X12182086Y-9978147D01*
X12182086Y-9978147D02*
X12201134Y-9987671D01*
X12201134Y-9987671D02*
X12210658Y-9997195D01*
X12210658Y-9997195D02*
X12220182Y-10016242D01*
X12220182Y-10016242D02*
X12229705Y-10054338D01*
X12229705Y-10054338D02*
X12229705Y-10101957D01*
X12229705Y-10101957D02*
X12220182Y-10140052D01*
X12220182Y-10140052D02*
X12210658Y-10159099D01*
X12210658Y-10159099D02*
X12201134Y-10168623D01*
X12201134Y-10168623D02*
X12182086Y-10178147D01*
X12182086Y-10178147D02*
X12163039Y-10178147D01*
X12163039Y-10178147D02*
X12143991Y-10168623D01*
X12143991Y-10168623D02*
X12134467Y-10159099D01*
X12134467Y-10159099D02*
X12124943Y-10140052D01*
X12124943Y-10140052D02*
X12115420Y-10101957D01*
X12115420Y-10101957D02*
X12115420Y-10054338D01*
X12115420Y-10054338D02*
X12124943Y-10016242D01*
X12124943Y-10016242D02*
X12134467Y-9997195D01*
X12134467Y-9997195D02*
X12143991Y-9987671D01*
X12143991Y-9987671D02*
X12163039Y-9978147D01*
X12315420Y-10178147D02*
X12315420Y-10044814D01*
X12315420Y-10063861D02*
X12324943Y-10054338D01*
X12324943Y-10054338D02*
X12343991Y-10044814D01*
X12343991Y-10044814D02*
X12372563Y-10044814D01*
X12372563Y-10044814D02*
X12391610Y-10054338D01*
X12391610Y-10054338D02*
X12401134Y-10073385D01*
X12401134Y-10073385D02*
X12401134Y-10178147D01*
X12401134Y-10073385D02*
X12410658Y-10054338D01*
X12410658Y-10054338D02*
X12429705Y-10044814D01*
X12429705Y-10044814D02*
X12458277Y-10044814D01*
X12458277Y-10044814D02*
X12477324Y-10054338D01*
X12477324Y-10054338D02*
X12486848Y-10073385D01*
X12486848Y-10073385D02*
X12486848Y-10178147D01*
X12582086Y-10178147D02*
X12582086Y-10044814D01*
X12582086Y-10063861D02*
X12591610Y-10054338D01*
X12591610Y-10054338D02*
X12610658Y-10044814D01*
X12610658Y-10044814D02*
X12639229Y-10044814D01*
X12639229Y-10044814D02*
X12658277Y-10054338D01*
X12658277Y-10054338D02*
X12667801Y-10073385D01*
X12667801Y-10073385D02*
X12667801Y-10178147D01*
X12667801Y-10073385D02*
X12677324Y-10054338D01*
X12677324Y-10054338D02*
X12696372Y-10044814D01*
X12696372Y-10044814D02*
X12724943Y-10044814D01*
X12724943Y-10044814D02*
X12743991Y-10054338D01*
X12743991Y-10054338D02*
X12753515Y-10073385D01*
X12753515Y-10073385D02*
X12753515Y-10178147D01*
X13143991Y-9968623D02*
X12972563Y-10225766D01*
X13401134Y-9978147D02*
X13420182Y-9978147D01*
X13420182Y-9978147D02*
X13439229Y-9987671D01*
X13439229Y-9987671D02*
X13448753Y-9997195D01*
X13448753Y-9997195D02*
X13458277Y-10016242D01*
X13458277Y-10016242D02*
X13467801Y-10054338D01*
X13467801Y-10054338D02*
X13467801Y-10101957D01*
X13467801Y-10101957D02*
X13458277Y-10140052D01*
X13458277Y-10140052D02*
X13448753Y-10159099D01*
X13448753Y-10159099D02*
X13439229Y-10168623D01*
X13439229Y-10168623D02*
X13420182Y-10178147D01*
X13420182Y-10178147D02*
X13401134Y-10178147D01*
X13401134Y-10178147D02*
X13382086Y-10168623D01*
X13382086Y-10168623D02*
X13372563Y-10159099D01*
X13372563Y-10159099D02*
X13363039Y-10140052D01*
X13363039Y-10140052D02*
X13353515Y-10101957D01*
X13353515Y-10101957D02*
X13353515Y-10054338D01*
X13353515Y-10054338D02*
X13363039Y-10016242D01*
X13363039Y-10016242D02*
X13372563Y-9997195D01*
X13372563Y-9997195D02*
X13382086Y-9987671D01*
X13382086Y-9987671D02*
X13401134Y-9978147D01*
X13553515Y-10159099D02*
X13563039Y-10168623D01*
X13563039Y-10168623D02*
X13553515Y-10178147D01*
X13553515Y-10178147D02*
X13543991Y-10168623D01*
X13543991Y-10168623D02*
X13553515Y-10159099D01*
X13553515Y-10159099D02*
X13553515Y-10178147D01*
X13686848Y-9978147D02*
X13705896Y-9978147D01*
X13705896Y-9978147D02*
X13724944Y-9987671D01*
X13724944Y-9987671D02*
X13734467Y-9997195D01*
X13734467Y-9997195D02*
X13743991Y-10016242D01*
X13743991Y-10016242D02*
X13753515Y-10054338D01*
X13753515Y-10054338D02*
X13753515Y-10101957D01*
X13753515Y-10101957D02*
X13743991Y-10140052D01*
X13743991Y-10140052D02*
X13734467Y-10159099D01*
X13734467Y-10159099D02*
X13724944Y-10168623D01*
X13724944Y-10168623D02*
X13705896Y-10178147D01*
X13705896Y-10178147D02*
X13686848Y-10178147D01*
X13686848Y-10178147D02*
X13667801Y-10168623D01*
X13667801Y-10168623D02*
X13658277Y-10159099D01*
X13658277Y-10159099D02*
X13648753Y-10140052D01*
X13648753Y-10140052D02*
X13639229Y-10101957D01*
X13639229Y-10101957D02*
X13639229Y-10054338D01*
X13639229Y-10054338D02*
X13648753Y-10016242D01*
X13648753Y-10016242D02*
X13658277Y-9997195D01*
X13658277Y-9997195D02*
X13667801Y-9987671D01*
X13667801Y-9987671D02*
X13686848Y-9978147D01*
X13820182Y-9978147D02*
X13943991Y-9978147D01*
X13943991Y-9978147D02*
X13877325Y-10054338D01*
X13877325Y-10054338D02*
X13905896Y-10054338D01*
X13905896Y-10054338D02*
X13924944Y-10063861D01*
X13924944Y-10063861D02*
X13934467Y-10073385D01*
X13934467Y-10073385D02*
X13943991Y-10092433D01*
X13943991Y-10092433D02*
X13943991Y-10140052D01*
X13943991Y-10140052D02*
X13934467Y-10159099D01*
X13934467Y-10159099D02*
X13924944Y-10168623D01*
X13924944Y-10168623D02*
X13905896Y-10178147D01*
X13905896Y-10178147D02*
X13848753Y-10178147D01*
X13848753Y-10178147D02*
X13829706Y-10168623D01*
X13829706Y-10168623D02*
X13820182Y-10159099D01*
X14039229Y-10178147D02*
X14077325Y-10178147D01*
X14077325Y-10178147D02*
X14096372Y-10168623D01*
X14096372Y-10168623D02*
X14105896Y-10159099D01*
X14105896Y-10159099D02*
X14124944Y-10130528D01*
X14124944Y-10130528D02*
X14134467Y-10092433D01*
X14134467Y-10092433D02*
X14134467Y-10016242D01*
X14134467Y-10016242D02*
X14124944Y-9997195D01*
X14124944Y-9997195D02*
X14115420Y-9987671D01*
X14115420Y-9987671D02*
X14096372Y-9978147D01*
X14096372Y-9978147D02*
X14058277Y-9978147D01*
X14058277Y-9978147D02*
X14039229Y-9987671D01*
X14039229Y-9987671D02*
X14029706Y-9997195D01*
X14029706Y-9997195D02*
X14020182Y-10016242D01*
X14020182Y-10016242D02*
X14020182Y-10063861D01*
X14020182Y-10063861D02*
X14029706Y-10082909D01*
X14029706Y-10082909D02*
X14039229Y-10092433D01*
X14039229Y-10092433D02*
X14058277Y-10101957D01*
X14058277Y-10101957D02*
X14096372Y-10101957D01*
X14096372Y-10101957D02*
X14115420Y-10092433D01*
X14115420Y-10092433D02*
X14124944Y-10082909D01*
X14124944Y-10082909D02*
X14134467Y-10063861D01*
X14305896Y-10044814D02*
X14305896Y-10178147D01*
X14258277Y-9968623D02*
X14210658Y-10111480D01*
X14210658Y-10111480D02*
X14334467Y-10111480D01*
X14401134Y-9978147D02*
X14401134Y-10016242D01*
X14477325Y-9978147D02*
X14477325Y-10016242D01*
X14772563Y-10254338D02*
X14763039Y-10244814D01*
X14763039Y-10244814D02*
X14743991Y-10216242D01*
X14743991Y-10216242D02*
X14734468Y-10197195D01*
X14734468Y-10197195D02*
X14724944Y-10168623D01*
X14724944Y-10168623D02*
X14715420Y-10121004D01*
X14715420Y-10121004D02*
X14715420Y-10082909D01*
X14715420Y-10082909D02*
X14724944Y-10035290D01*
X14724944Y-10035290D02*
X14734468Y-10006719D01*
X14734468Y-10006719D02*
X14743991Y-9987671D01*
X14743991Y-9987671D02*
X14763039Y-9959099D01*
X14763039Y-9959099D02*
X14772563Y-9949576D01*
X14839229Y-9997195D02*
X14848753Y-9987671D01*
X14848753Y-9987671D02*
X14867801Y-9978147D01*
X14867801Y-9978147D02*
X14915420Y-9978147D01*
X14915420Y-9978147D02*
X14934468Y-9987671D01*
X14934468Y-9987671D02*
X14943991Y-9997195D01*
X14943991Y-9997195D02*
X14953515Y-10016242D01*
X14953515Y-10016242D02*
X14953515Y-10035290D01*
X14953515Y-10035290D02*
X14943991Y-10063861D01*
X14943991Y-10063861D02*
X14829706Y-10178147D01*
X14829706Y-10178147D02*
X14953515Y-10178147D01*
X15029706Y-9997195D02*
X15039229Y-9987671D01*
X15039229Y-9987671D02*
X15058277Y-9978147D01*
X15058277Y-9978147D02*
X15105896Y-9978147D01*
X15105896Y-9978147D02*
X15124944Y-9987671D01*
X15124944Y-9987671D02*
X15134468Y-9997195D01*
X15134468Y-9997195D02*
X15143991Y-10016242D01*
X15143991Y-10016242D02*
X15143991Y-10035290D01*
X15143991Y-10035290D02*
X15134468Y-10063861D01*
X15134468Y-10063861D02*
X15020182Y-10178147D01*
X15020182Y-10178147D02*
X15143991Y-10178147D01*
X15382087Y-10178147D02*
X15382087Y-9978147D01*
X15467801Y-10178147D02*
X15467801Y-10073385D01*
X15467801Y-10073385D02*
X15458277Y-10054338D01*
X15458277Y-10054338D02*
X15439230Y-10044814D01*
X15439230Y-10044814D02*
X15410658Y-10044814D01*
X15410658Y-10044814D02*
X15391610Y-10054338D01*
X15391610Y-10054338D02*
X15382087Y-10063861D01*
X15591610Y-10178147D02*
X15572563Y-10168623D01*
X15572563Y-10168623D02*
X15563039Y-10159099D01*
X15563039Y-10159099D02*
X15553515Y-10140052D01*
X15553515Y-10140052D02*
X15553515Y-10082909D01*
X15553515Y-10082909D02*
X15563039Y-10063861D01*
X15563039Y-10063861D02*
X15572563Y-10054338D01*
X15572563Y-10054338D02*
X15591610Y-10044814D01*
X15591610Y-10044814D02*
X15620182Y-10044814D01*
X15620182Y-10044814D02*
X15639230Y-10054338D01*
X15639230Y-10054338D02*
X15648753Y-10063861D01*
X15648753Y-10063861D02*
X15658277Y-10082909D01*
X15658277Y-10082909D02*
X15658277Y-10140052D01*
X15658277Y-10140052D02*
X15648753Y-10159099D01*
X15648753Y-10159099D02*
X15639230Y-10168623D01*
X15639230Y-10168623D02*
X15620182Y-10178147D01*
X15620182Y-10178147D02*
X15591610Y-10178147D01*
X15772563Y-10178147D02*
X15753515Y-10168623D01*
X15753515Y-10168623D02*
X15743991Y-10149576D01*
X15743991Y-10149576D02*
X15743991Y-9978147D01*
X15924944Y-10168623D02*
X15905896Y-10178147D01*
X15905896Y-10178147D02*
X15867801Y-10178147D01*
X15867801Y-10178147D02*
X15848753Y-10168623D01*
X15848753Y-10168623D02*
X15839230Y-10149576D01*
X15839230Y-10149576D02*
X15839230Y-10073385D01*
X15839230Y-10073385D02*
X15848753Y-10054338D01*
X15848753Y-10054338D02*
X15867801Y-10044814D01*
X15867801Y-10044814D02*
X15905896Y-10044814D01*
X15905896Y-10044814D02*
X15924944Y-10054338D01*
X15924944Y-10054338D02*
X15934468Y-10073385D01*
X15934468Y-10073385D02*
X15934468Y-10092433D01*
X15934468Y-10092433D02*
X15839230Y-10111480D01*
X16010658Y-10168623D02*
X16029706Y-10178147D01*
X16029706Y-10178147D02*
X16067801Y-10178147D01*
X16067801Y-10178147D02*
X16086849Y-10168623D01*
X16086849Y-10168623D02*
X16096372Y-10149576D01*
X16096372Y-10149576D02*
X16096372Y-10140052D01*
X16096372Y-10140052D02*
X16086849Y-10121004D01*
X16086849Y-10121004D02*
X16067801Y-10111480D01*
X16067801Y-10111480D02*
X16039230Y-10111480D01*
X16039230Y-10111480D02*
X16020182Y-10101957D01*
X16020182Y-10101957D02*
X16010658Y-10082909D01*
X16010658Y-10082909D02*
X16010658Y-10073385D01*
X16010658Y-10073385D02*
X16020182Y-10054338D01*
X16020182Y-10054338D02*
X16039230Y-10044814D01*
X16039230Y-10044814D02*
X16067801Y-10044814D01*
X16067801Y-10044814D02*
X16086849Y-10054338D01*
X16163039Y-10254338D02*
X16172563Y-10244814D01*
X16172563Y-10244814D02*
X16191611Y-10216242D01*
X16191611Y-10216242D02*
X16201134Y-10197195D01*
X16201134Y-10197195D02*
X16210658Y-10168623D01*
X16210658Y-10168623D02*
X16220182Y-10121004D01*
X16220182Y-10121004D02*
X16220182Y-10082909D01*
X16220182Y-10082909D02*
X16210658Y-10035290D01*
X16210658Y-10035290D02*
X16201134Y-10006719D01*
X16201134Y-10006719D02*
X16191611Y-9987671D01*
X16191611Y-9987671D02*
X16172563Y-9959099D01*
X16172563Y-9959099D02*
X16163039Y-9949576D01*
D13*
X11132500Y-10285663D02*
X11132500Y-10415663D01*
X11067500Y-10350663D02*
X11197500Y-10350663D01*
D11*
X11563039Y-10442147D02*
X11448753Y-10442147D01*
X11505896Y-10442147D02*
X11505896Y-10242147D01*
X11505896Y-10242147D02*
X11486848Y-10270719D01*
X11486848Y-10270719D02*
X11467801Y-10289766D01*
X11467801Y-10289766D02*
X11448753Y-10299290D01*
X11648753Y-10423099D02*
X11658277Y-10432623D01*
X11658277Y-10432623D02*
X11648753Y-10442147D01*
X11648753Y-10442147D02*
X11639229Y-10432623D01*
X11639229Y-10432623D02*
X11648753Y-10423099D01*
X11648753Y-10423099D02*
X11648753Y-10442147D01*
X11724943Y-10242147D02*
X11848753Y-10242147D01*
X11848753Y-10242147D02*
X11782086Y-10318338D01*
X11782086Y-10318338D02*
X11810658Y-10318338D01*
X11810658Y-10318338D02*
X11829705Y-10327861D01*
X11829705Y-10327861D02*
X11839229Y-10337385D01*
X11839229Y-10337385D02*
X11848753Y-10356433D01*
X11848753Y-10356433D02*
X11848753Y-10404052D01*
X11848753Y-10404052D02*
X11839229Y-10423099D01*
X11839229Y-10423099D02*
X11829705Y-10432623D01*
X11829705Y-10432623D02*
X11810658Y-10442147D01*
X11810658Y-10442147D02*
X11753515Y-10442147D01*
X11753515Y-10442147D02*
X11734467Y-10432623D01*
X11734467Y-10432623D02*
X11724943Y-10423099D01*
X11972562Y-10242147D02*
X11991610Y-10242147D01*
X11991610Y-10242147D02*
X12010658Y-10251671D01*
X12010658Y-10251671D02*
X12020182Y-10261195D01*
X12020182Y-10261195D02*
X12029705Y-10280242D01*
X12029705Y-10280242D02*
X12039229Y-10318338D01*
X12039229Y-10318338D02*
X12039229Y-10365957D01*
X12039229Y-10365957D02*
X12029705Y-10404052D01*
X12029705Y-10404052D02*
X12020182Y-10423099D01*
X12020182Y-10423099D02*
X12010658Y-10432623D01*
X12010658Y-10432623D02*
X11991610Y-10442147D01*
X11991610Y-10442147D02*
X11972562Y-10442147D01*
X11972562Y-10442147D02*
X11953515Y-10432623D01*
X11953515Y-10432623D02*
X11943991Y-10423099D01*
X11943991Y-10423099D02*
X11934467Y-10404052D01*
X11934467Y-10404052D02*
X11924943Y-10365957D01*
X11924943Y-10365957D02*
X11924943Y-10318338D01*
X11924943Y-10318338D02*
X11934467Y-10280242D01*
X11934467Y-10280242D02*
X11943991Y-10261195D01*
X11943991Y-10261195D02*
X11953515Y-10251671D01*
X11953515Y-10251671D02*
X11972562Y-10242147D01*
X12163039Y-10242147D02*
X12182086Y-10242147D01*
X12182086Y-10242147D02*
X12201134Y-10251671D01*
X12201134Y-10251671D02*
X12210658Y-10261195D01*
X12210658Y-10261195D02*
X12220182Y-10280242D01*
X12220182Y-10280242D02*
X12229705Y-10318338D01*
X12229705Y-10318338D02*
X12229705Y-10365957D01*
X12229705Y-10365957D02*
X12220182Y-10404052D01*
X12220182Y-10404052D02*
X12210658Y-10423099D01*
X12210658Y-10423099D02*
X12201134Y-10432623D01*
X12201134Y-10432623D02*
X12182086Y-10442147D01*
X12182086Y-10442147D02*
X12163039Y-10442147D01*
X12163039Y-10442147D02*
X12143991Y-10432623D01*
X12143991Y-10432623D02*
X12134467Y-10423099D01*
X12134467Y-10423099D02*
X12124943Y-10404052D01*
X12124943Y-10404052D02*
X12115420Y-10365957D01*
X12115420Y-10365957D02*
X12115420Y-10318338D01*
X12115420Y-10318338D02*
X12124943Y-10280242D01*
X12124943Y-10280242D02*
X12134467Y-10261195D01*
X12134467Y-10261195D02*
X12143991Y-10251671D01*
X12143991Y-10251671D02*
X12163039Y-10242147D01*
X12315420Y-10442147D02*
X12315420Y-10308814D01*
X12315420Y-10327861D02*
X12324943Y-10318338D01*
X12324943Y-10318338D02*
X12343991Y-10308814D01*
X12343991Y-10308814D02*
X12372563Y-10308814D01*
X12372563Y-10308814D02*
X12391610Y-10318338D01*
X12391610Y-10318338D02*
X12401134Y-10337385D01*
X12401134Y-10337385D02*
X12401134Y-10442147D01*
X12401134Y-10337385D02*
X12410658Y-10318338D01*
X12410658Y-10318338D02*
X12429705Y-10308814D01*
X12429705Y-10308814D02*
X12458277Y-10308814D01*
X12458277Y-10308814D02*
X12477324Y-10318338D01*
X12477324Y-10318338D02*
X12486848Y-10337385D01*
X12486848Y-10337385D02*
X12486848Y-10442147D01*
X12582086Y-10442147D02*
X12582086Y-10308814D01*
X12582086Y-10327861D02*
X12591610Y-10318338D01*
X12591610Y-10318338D02*
X12610658Y-10308814D01*
X12610658Y-10308814D02*
X12639229Y-10308814D01*
X12639229Y-10308814D02*
X12658277Y-10318338D01*
X12658277Y-10318338D02*
X12667801Y-10337385D01*
X12667801Y-10337385D02*
X12667801Y-10442147D01*
X12667801Y-10337385D02*
X12677324Y-10318338D01*
X12677324Y-10318338D02*
X12696372Y-10308814D01*
X12696372Y-10308814D02*
X12724943Y-10308814D01*
X12724943Y-10308814D02*
X12743991Y-10318338D01*
X12743991Y-10318338D02*
X12753515Y-10337385D01*
X12753515Y-10337385D02*
X12753515Y-10442147D01*
X13143991Y-10232623D02*
X12972563Y-10489766D01*
X13401134Y-10242147D02*
X13420182Y-10242147D01*
X13420182Y-10242147D02*
X13439229Y-10251671D01*
X13439229Y-10251671D02*
X13448753Y-10261195D01*
X13448753Y-10261195D02*
X13458277Y-10280242D01*
X13458277Y-10280242D02*
X13467801Y-10318338D01*
X13467801Y-10318338D02*
X13467801Y-10365957D01*
X13467801Y-10365957D02*
X13458277Y-10404052D01*
X13458277Y-10404052D02*
X13448753Y-10423099D01*
X13448753Y-10423099D02*
X13439229Y-10432623D01*
X13439229Y-10432623D02*
X13420182Y-10442147D01*
X13420182Y-10442147D02*
X13401134Y-10442147D01*
X13401134Y-10442147D02*
X13382086Y-10432623D01*
X13382086Y-10432623D02*
X13372563Y-10423099D01*
X13372563Y-10423099D02*
X13363039Y-10404052D01*
X13363039Y-10404052D02*
X13353515Y-10365957D01*
X13353515Y-10365957D02*
X13353515Y-10318338D01*
X13353515Y-10318338D02*
X13363039Y-10280242D01*
X13363039Y-10280242D02*
X13372563Y-10261195D01*
X13372563Y-10261195D02*
X13382086Y-10251671D01*
X13382086Y-10251671D02*
X13401134Y-10242147D01*
X13553515Y-10423099D02*
X13563039Y-10432623D01*
X13563039Y-10432623D02*
X13553515Y-10442147D01*
X13553515Y-10442147D02*
X13543991Y-10432623D01*
X13543991Y-10432623D02*
X13553515Y-10423099D01*
X13553515Y-10423099D02*
X13553515Y-10442147D01*
X13686848Y-10242147D02*
X13705896Y-10242147D01*
X13705896Y-10242147D02*
X13724944Y-10251671D01*
X13724944Y-10251671D02*
X13734467Y-10261195D01*
X13734467Y-10261195D02*
X13743991Y-10280242D01*
X13743991Y-10280242D02*
X13753515Y-10318338D01*
X13753515Y-10318338D02*
X13753515Y-10365957D01*
X13753515Y-10365957D02*
X13743991Y-10404052D01*
X13743991Y-10404052D02*
X13734467Y-10423099D01*
X13734467Y-10423099D02*
X13724944Y-10432623D01*
X13724944Y-10432623D02*
X13705896Y-10442147D01*
X13705896Y-10442147D02*
X13686848Y-10442147D01*
X13686848Y-10442147D02*
X13667801Y-10432623D01*
X13667801Y-10432623D02*
X13658277Y-10423099D01*
X13658277Y-10423099D02*
X13648753Y-10404052D01*
X13648753Y-10404052D02*
X13639229Y-10365957D01*
X13639229Y-10365957D02*
X13639229Y-10318338D01*
X13639229Y-10318338D02*
X13648753Y-10280242D01*
X13648753Y-10280242D02*
X13658277Y-10261195D01*
X13658277Y-10261195D02*
X13667801Y-10251671D01*
X13667801Y-10251671D02*
X13686848Y-10242147D01*
X13934467Y-10242147D02*
X13839229Y-10242147D01*
X13839229Y-10242147D02*
X13829706Y-10337385D01*
X13829706Y-10337385D02*
X13839229Y-10327861D01*
X13839229Y-10327861D02*
X13858277Y-10318338D01*
X13858277Y-10318338D02*
X13905896Y-10318338D01*
X13905896Y-10318338D02*
X13924944Y-10327861D01*
X13924944Y-10327861D02*
X13934467Y-10337385D01*
X13934467Y-10337385D02*
X13943991Y-10356433D01*
X13943991Y-10356433D02*
X13943991Y-10404052D01*
X13943991Y-10404052D02*
X13934467Y-10423099D01*
X13934467Y-10423099D02*
X13924944Y-10432623D01*
X13924944Y-10432623D02*
X13905896Y-10442147D01*
X13905896Y-10442147D02*
X13858277Y-10442147D01*
X13858277Y-10442147D02*
X13839229Y-10432623D01*
X13839229Y-10432623D02*
X13829706Y-10423099D01*
X14134467Y-10442147D02*
X14020182Y-10442147D01*
X14077325Y-10442147D02*
X14077325Y-10242147D01*
X14077325Y-10242147D02*
X14058277Y-10270719D01*
X14058277Y-10270719D02*
X14039229Y-10289766D01*
X14039229Y-10289766D02*
X14020182Y-10299290D01*
X14210658Y-10261195D02*
X14220182Y-10251671D01*
X14220182Y-10251671D02*
X14239229Y-10242147D01*
X14239229Y-10242147D02*
X14286848Y-10242147D01*
X14286848Y-10242147D02*
X14305896Y-10251671D01*
X14305896Y-10251671D02*
X14315420Y-10261195D01*
X14315420Y-10261195D02*
X14324944Y-10280242D01*
X14324944Y-10280242D02*
X14324944Y-10299290D01*
X14324944Y-10299290D02*
X14315420Y-10327861D01*
X14315420Y-10327861D02*
X14201134Y-10442147D01*
X14201134Y-10442147D02*
X14324944Y-10442147D01*
X14401134Y-10242147D02*
X14401134Y-10280242D01*
X14477325Y-10242147D02*
X14477325Y-10280242D01*
X14772563Y-10518338D02*
X14763039Y-10508814D01*
X14763039Y-10508814D02*
X14743991Y-10480242D01*
X14743991Y-10480242D02*
X14734468Y-10461195D01*
X14734468Y-10461195D02*
X14724944Y-10432623D01*
X14724944Y-10432623D02*
X14715420Y-10385004D01*
X14715420Y-10385004D02*
X14715420Y-10346909D01*
X14715420Y-10346909D02*
X14724944Y-10299290D01*
X14724944Y-10299290D02*
X14734468Y-10270719D01*
X14734468Y-10270719D02*
X14743991Y-10251671D01*
X14743991Y-10251671D02*
X14763039Y-10223099D01*
X14763039Y-10223099D02*
X14772563Y-10213576D01*
X14877325Y-10327861D02*
X14858277Y-10318338D01*
X14858277Y-10318338D02*
X14848753Y-10308814D01*
X14848753Y-10308814D02*
X14839229Y-10289766D01*
X14839229Y-10289766D02*
X14839229Y-10280242D01*
X14839229Y-10280242D02*
X14848753Y-10261195D01*
X14848753Y-10261195D02*
X14858277Y-10251671D01*
X14858277Y-10251671D02*
X14877325Y-10242147D01*
X14877325Y-10242147D02*
X14915420Y-10242147D01*
X14915420Y-10242147D02*
X14934468Y-10251671D01*
X14934468Y-10251671D02*
X14943991Y-10261195D01*
X14943991Y-10261195D02*
X14953515Y-10280242D01*
X14953515Y-10280242D02*
X14953515Y-10289766D01*
X14953515Y-10289766D02*
X14943991Y-10308814D01*
X14943991Y-10308814D02*
X14934468Y-10318338D01*
X14934468Y-10318338D02*
X14915420Y-10327861D01*
X14915420Y-10327861D02*
X14877325Y-10327861D01*
X14877325Y-10327861D02*
X14858277Y-10337385D01*
X14858277Y-10337385D02*
X14848753Y-10346909D01*
X14848753Y-10346909D02*
X14839229Y-10365957D01*
X14839229Y-10365957D02*
X14839229Y-10404052D01*
X14839229Y-10404052D02*
X14848753Y-10423099D01*
X14848753Y-10423099D02*
X14858277Y-10432623D01*
X14858277Y-10432623D02*
X14877325Y-10442147D01*
X14877325Y-10442147D02*
X14915420Y-10442147D01*
X14915420Y-10442147D02*
X14934468Y-10432623D01*
X14934468Y-10432623D02*
X14943991Y-10423099D01*
X14943991Y-10423099D02*
X14953515Y-10404052D01*
X14953515Y-10404052D02*
X14953515Y-10365957D01*
X14953515Y-10365957D02*
X14943991Y-10346909D01*
X14943991Y-10346909D02*
X14934468Y-10337385D01*
X14934468Y-10337385D02*
X14915420Y-10327861D01*
X15191610Y-10442147D02*
X15191610Y-10242147D01*
X15277325Y-10442147D02*
X15277325Y-10337385D01*
X15277325Y-10337385D02*
X15267801Y-10318338D01*
X15267801Y-10318338D02*
X15248753Y-10308814D01*
X15248753Y-10308814D02*
X15220182Y-10308814D01*
X15220182Y-10308814D02*
X15201134Y-10318338D01*
X15201134Y-10318338D02*
X15191610Y-10327861D01*
X15401134Y-10442147D02*
X15382087Y-10432623D01*
X15382087Y-10432623D02*
X15372563Y-10423099D01*
X15372563Y-10423099D02*
X15363039Y-10404052D01*
X15363039Y-10404052D02*
X15363039Y-10346909D01*
X15363039Y-10346909D02*
X15372563Y-10327861D01*
X15372563Y-10327861D02*
X15382087Y-10318338D01*
X15382087Y-10318338D02*
X15401134Y-10308814D01*
X15401134Y-10308814D02*
X15429706Y-10308814D01*
X15429706Y-10308814D02*
X15448753Y-10318338D01*
X15448753Y-10318338D02*
X15458277Y-10327861D01*
X15458277Y-10327861D02*
X15467801Y-10346909D01*
X15467801Y-10346909D02*
X15467801Y-10404052D01*
X15467801Y-10404052D02*
X15458277Y-10423099D01*
X15458277Y-10423099D02*
X15448753Y-10432623D01*
X15448753Y-10432623D02*
X15429706Y-10442147D01*
X15429706Y-10442147D02*
X15401134Y-10442147D01*
X15582087Y-10442147D02*
X15563039Y-10432623D01*
X15563039Y-10432623D02*
X15553515Y-10413576D01*
X15553515Y-10413576D02*
X15553515Y-10242147D01*
X15734468Y-10432623D02*
X15715420Y-10442147D01*
X15715420Y-10442147D02*
X15677325Y-10442147D01*
X15677325Y-10442147D02*
X15658277Y-10432623D01*
X15658277Y-10432623D02*
X15648753Y-10413576D01*
X15648753Y-10413576D02*
X15648753Y-10337385D01*
X15648753Y-10337385D02*
X15658277Y-10318338D01*
X15658277Y-10318338D02*
X15677325Y-10308814D01*
X15677325Y-10308814D02*
X15715420Y-10308814D01*
X15715420Y-10308814D02*
X15734468Y-10318338D01*
X15734468Y-10318338D02*
X15743991Y-10337385D01*
X15743991Y-10337385D02*
X15743991Y-10356433D01*
X15743991Y-10356433D02*
X15648753Y-10375480D01*
X15820182Y-10432623D02*
X15839230Y-10442147D01*
X15839230Y-10442147D02*
X15877325Y-10442147D01*
X15877325Y-10442147D02*
X15896372Y-10432623D01*
X15896372Y-10432623D02*
X15905896Y-10413576D01*
X15905896Y-10413576D02*
X15905896Y-10404052D01*
X15905896Y-10404052D02*
X15896372Y-10385004D01*
X15896372Y-10385004D02*
X15877325Y-10375480D01*
X15877325Y-10375480D02*
X15848753Y-10375480D01*
X15848753Y-10375480D02*
X15829706Y-10365957D01*
X15829706Y-10365957D02*
X15820182Y-10346909D01*
X15820182Y-10346909D02*
X15820182Y-10337385D01*
X15820182Y-10337385D02*
X15829706Y-10318338D01*
X15829706Y-10318338D02*
X15848753Y-10308814D01*
X15848753Y-10308814D02*
X15877325Y-10308814D01*
X15877325Y-10308814D02*
X15896372Y-10318338D01*
X15972563Y-10518338D02*
X15982087Y-10508814D01*
X15982087Y-10508814D02*
X16001134Y-10480242D01*
X16001134Y-10480242D02*
X16010658Y-10461195D01*
X16010658Y-10461195D02*
X16020182Y-10432623D01*
X16020182Y-10432623D02*
X16029706Y-10385004D01*
X16029706Y-10385004D02*
X16029706Y-10346909D01*
X16029706Y-10346909D02*
X16020182Y-10299290D01*
X16020182Y-10299290D02*
X16010658Y-10270719D01*
X16010658Y-10270719D02*
X16001134Y-10251671D01*
X16001134Y-10251671D02*
X15982087Y-10223099D01*
X15982087Y-10223099D02*
X15972563Y-10213576D01*
X11168211Y-10685375D02*
X11168211Y-10543952D01*
X11026789Y-10543952D01*
X11026789Y-10685375D01*
X11168211Y-10685375D01*
X11439229Y-10506147D02*
X11563039Y-10506147D01*
X11563039Y-10506147D02*
X11496372Y-10582338D01*
X11496372Y-10582338D02*
X11524943Y-10582338D01*
X11524943Y-10582338D02*
X11543991Y-10591861D01*
X11543991Y-10591861D02*
X11553515Y-10601385D01*
X11553515Y-10601385D02*
X11563039Y-10620433D01*
X11563039Y-10620433D02*
X11563039Y-10668052D01*
X11563039Y-10668052D02*
X11553515Y-10687099D01*
X11553515Y-10687099D02*
X11543991Y-10696623D01*
X11543991Y-10696623D02*
X11524943Y-10706147D01*
X11524943Y-10706147D02*
X11467801Y-10706147D01*
X11467801Y-10706147D02*
X11448753Y-10696623D01*
X11448753Y-10696623D02*
X11439229Y-10687099D01*
X11648753Y-10687099D02*
X11658277Y-10696623D01*
X11658277Y-10696623D02*
X11648753Y-10706147D01*
X11648753Y-10706147D02*
X11639229Y-10696623D01*
X11639229Y-10696623D02*
X11648753Y-10687099D01*
X11648753Y-10687099D02*
X11648753Y-10706147D01*
X11734467Y-10525195D02*
X11743991Y-10515671D01*
X11743991Y-10515671D02*
X11763039Y-10506147D01*
X11763039Y-10506147D02*
X11810658Y-10506147D01*
X11810658Y-10506147D02*
X11829705Y-10515671D01*
X11829705Y-10515671D02*
X11839229Y-10525195D01*
X11839229Y-10525195D02*
X11848753Y-10544242D01*
X11848753Y-10544242D02*
X11848753Y-10563290D01*
X11848753Y-10563290D02*
X11839229Y-10591861D01*
X11839229Y-10591861D02*
X11724943Y-10706147D01*
X11724943Y-10706147D02*
X11848753Y-10706147D01*
X11972562Y-10506147D02*
X11991610Y-10506147D01*
X11991610Y-10506147D02*
X12010658Y-10515671D01*
X12010658Y-10515671D02*
X12020182Y-10525195D01*
X12020182Y-10525195D02*
X12029705Y-10544242D01*
X12029705Y-10544242D02*
X12039229Y-10582338D01*
X12039229Y-10582338D02*
X12039229Y-10629957D01*
X12039229Y-10629957D02*
X12029705Y-10668052D01*
X12029705Y-10668052D02*
X12020182Y-10687099D01*
X12020182Y-10687099D02*
X12010658Y-10696623D01*
X12010658Y-10696623D02*
X11991610Y-10706147D01*
X11991610Y-10706147D02*
X11972562Y-10706147D01*
X11972562Y-10706147D02*
X11953515Y-10696623D01*
X11953515Y-10696623D02*
X11943991Y-10687099D01*
X11943991Y-10687099D02*
X11934467Y-10668052D01*
X11934467Y-10668052D02*
X11924943Y-10629957D01*
X11924943Y-10629957D02*
X11924943Y-10582338D01*
X11924943Y-10582338D02*
X11934467Y-10544242D01*
X11934467Y-10544242D02*
X11943991Y-10525195D01*
X11943991Y-10525195D02*
X11953515Y-10515671D01*
X11953515Y-10515671D02*
X11972562Y-10506147D01*
X12163039Y-10506147D02*
X12182086Y-10506147D01*
X12182086Y-10506147D02*
X12201134Y-10515671D01*
X12201134Y-10515671D02*
X12210658Y-10525195D01*
X12210658Y-10525195D02*
X12220182Y-10544242D01*
X12220182Y-10544242D02*
X12229705Y-10582338D01*
X12229705Y-10582338D02*
X12229705Y-10629957D01*
X12229705Y-10629957D02*
X12220182Y-10668052D01*
X12220182Y-10668052D02*
X12210658Y-10687099D01*
X12210658Y-10687099D02*
X12201134Y-10696623D01*
X12201134Y-10696623D02*
X12182086Y-10706147D01*
X12182086Y-10706147D02*
X12163039Y-10706147D01*
X12163039Y-10706147D02*
X12143991Y-10696623D01*
X12143991Y-10696623D02*
X12134467Y-10687099D01*
X12134467Y-10687099D02*
X12124943Y-10668052D01*
X12124943Y-10668052D02*
X12115420Y-10629957D01*
X12115420Y-10629957D02*
X12115420Y-10582338D01*
X12115420Y-10582338D02*
X12124943Y-10544242D01*
X12124943Y-10544242D02*
X12134467Y-10525195D01*
X12134467Y-10525195D02*
X12143991Y-10515671D01*
X12143991Y-10515671D02*
X12163039Y-10506147D01*
X12315420Y-10706147D02*
X12315420Y-10572814D01*
X12315420Y-10591861D02*
X12324943Y-10582338D01*
X12324943Y-10582338D02*
X12343991Y-10572814D01*
X12343991Y-10572814D02*
X12372563Y-10572814D01*
X12372563Y-10572814D02*
X12391610Y-10582338D01*
X12391610Y-10582338D02*
X12401134Y-10601385D01*
X12401134Y-10601385D02*
X12401134Y-10706147D01*
X12401134Y-10601385D02*
X12410658Y-10582338D01*
X12410658Y-10582338D02*
X12429705Y-10572814D01*
X12429705Y-10572814D02*
X12458277Y-10572814D01*
X12458277Y-10572814D02*
X12477324Y-10582338D01*
X12477324Y-10582338D02*
X12486848Y-10601385D01*
X12486848Y-10601385D02*
X12486848Y-10706147D01*
X12582086Y-10706147D02*
X12582086Y-10572814D01*
X12582086Y-10591861D02*
X12591610Y-10582338D01*
X12591610Y-10582338D02*
X12610658Y-10572814D01*
X12610658Y-10572814D02*
X12639229Y-10572814D01*
X12639229Y-10572814D02*
X12658277Y-10582338D01*
X12658277Y-10582338D02*
X12667801Y-10601385D01*
X12667801Y-10601385D02*
X12667801Y-10706147D01*
X12667801Y-10601385D02*
X12677324Y-10582338D01*
X12677324Y-10582338D02*
X12696372Y-10572814D01*
X12696372Y-10572814D02*
X12724943Y-10572814D01*
X12724943Y-10572814D02*
X12743991Y-10582338D01*
X12743991Y-10582338D02*
X12753515Y-10601385D01*
X12753515Y-10601385D02*
X12753515Y-10706147D01*
X13143991Y-10496623D02*
X12972563Y-10753766D01*
X13401134Y-10506147D02*
X13420182Y-10506147D01*
X13420182Y-10506147D02*
X13439229Y-10515671D01*
X13439229Y-10515671D02*
X13448753Y-10525195D01*
X13448753Y-10525195D02*
X13458277Y-10544242D01*
X13458277Y-10544242D02*
X13467801Y-10582338D01*
X13467801Y-10582338D02*
X13467801Y-10629957D01*
X13467801Y-10629957D02*
X13458277Y-10668052D01*
X13458277Y-10668052D02*
X13448753Y-10687099D01*
X13448753Y-10687099D02*
X13439229Y-10696623D01*
X13439229Y-10696623D02*
X13420182Y-10706147D01*
X13420182Y-10706147D02*
X13401134Y-10706147D01*
X13401134Y-10706147D02*
X13382086Y-10696623D01*
X13382086Y-10696623D02*
X13372563Y-10687099D01*
X13372563Y-10687099D02*
X13363039Y-10668052D01*
X13363039Y-10668052D02*
X13353515Y-10629957D01*
X13353515Y-10629957D02*
X13353515Y-10582338D01*
X13353515Y-10582338D02*
X13363039Y-10544242D01*
X13363039Y-10544242D02*
X13372563Y-10525195D01*
X13372563Y-10525195D02*
X13382086Y-10515671D01*
X13382086Y-10515671D02*
X13401134Y-10506147D01*
X13553515Y-10687099D02*
X13563039Y-10696623D01*
X13563039Y-10696623D02*
X13553515Y-10706147D01*
X13553515Y-10706147D02*
X13543991Y-10696623D01*
X13543991Y-10696623D02*
X13553515Y-10687099D01*
X13553515Y-10687099D02*
X13553515Y-10706147D01*
X13753515Y-10706147D02*
X13639229Y-10706147D01*
X13696372Y-10706147D02*
X13696372Y-10506147D01*
X13696372Y-10506147D02*
X13677325Y-10534719D01*
X13677325Y-10534719D02*
X13658277Y-10553766D01*
X13658277Y-10553766D02*
X13639229Y-10563290D01*
X13829706Y-10525195D02*
X13839229Y-10515671D01*
X13839229Y-10515671D02*
X13858277Y-10506147D01*
X13858277Y-10506147D02*
X13905896Y-10506147D01*
X13905896Y-10506147D02*
X13924944Y-10515671D01*
X13924944Y-10515671D02*
X13934467Y-10525195D01*
X13934467Y-10525195D02*
X13943991Y-10544242D01*
X13943991Y-10544242D02*
X13943991Y-10563290D01*
X13943991Y-10563290D02*
X13934467Y-10591861D01*
X13934467Y-10591861D02*
X13820182Y-10706147D01*
X13820182Y-10706147D02*
X13943991Y-10706147D01*
X14115420Y-10506147D02*
X14077325Y-10506147D01*
X14077325Y-10506147D02*
X14058277Y-10515671D01*
X14058277Y-10515671D02*
X14048753Y-10525195D01*
X14048753Y-10525195D02*
X14029706Y-10553766D01*
X14029706Y-10553766D02*
X14020182Y-10591861D01*
X14020182Y-10591861D02*
X14020182Y-10668052D01*
X14020182Y-10668052D02*
X14029706Y-10687099D01*
X14029706Y-10687099D02*
X14039229Y-10696623D01*
X14039229Y-10696623D02*
X14058277Y-10706147D01*
X14058277Y-10706147D02*
X14096372Y-10706147D01*
X14096372Y-10706147D02*
X14115420Y-10696623D01*
X14115420Y-10696623D02*
X14124944Y-10687099D01*
X14124944Y-10687099D02*
X14134467Y-10668052D01*
X14134467Y-10668052D02*
X14134467Y-10620433D01*
X14134467Y-10620433D02*
X14124944Y-10601385D01*
X14124944Y-10601385D02*
X14115420Y-10591861D01*
X14115420Y-10591861D02*
X14096372Y-10582338D01*
X14096372Y-10582338D02*
X14058277Y-10582338D01*
X14058277Y-10582338D02*
X14039229Y-10591861D01*
X14039229Y-10591861D02*
X14029706Y-10601385D01*
X14029706Y-10601385D02*
X14020182Y-10620433D01*
X14258277Y-10506147D02*
X14277325Y-10506147D01*
X14277325Y-10506147D02*
X14296372Y-10515671D01*
X14296372Y-10515671D02*
X14305896Y-10525195D01*
X14305896Y-10525195D02*
X14315420Y-10544242D01*
X14315420Y-10544242D02*
X14324944Y-10582338D01*
X14324944Y-10582338D02*
X14324944Y-10629957D01*
X14324944Y-10629957D02*
X14315420Y-10668052D01*
X14315420Y-10668052D02*
X14305896Y-10687099D01*
X14305896Y-10687099D02*
X14296372Y-10696623D01*
X14296372Y-10696623D02*
X14277325Y-10706147D01*
X14277325Y-10706147D02*
X14258277Y-10706147D01*
X14258277Y-10706147D02*
X14239229Y-10696623D01*
X14239229Y-10696623D02*
X14229706Y-10687099D01*
X14229706Y-10687099D02*
X14220182Y-10668052D01*
X14220182Y-10668052D02*
X14210658Y-10629957D01*
X14210658Y-10629957D02*
X14210658Y-10582338D01*
X14210658Y-10582338D02*
X14220182Y-10544242D01*
X14220182Y-10544242D02*
X14229706Y-10525195D01*
X14229706Y-10525195D02*
X14239229Y-10515671D01*
X14239229Y-10515671D02*
X14258277Y-10506147D01*
X14401134Y-10506147D02*
X14401134Y-10544242D01*
X14477325Y-10506147D02*
X14477325Y-10544242D01*
X14772563Y-10782338D02*
X14763039Y-10772814D01*
X14763039Y-10772814D02*
X14743991Y-10744242D01*
X14743991Y-10744242D02*
X14734468Y-10725195D01*
X14734468Y-10725195D02*
X14724944Y-10696623D01*
X14724944Y-10696623D02*
X14715420Y-10649004D01*
X14715420Y-10649004D02*
X14715420Y-10610909D01*
X14715420Y-10610909D02*
X14724944Y-10563290D01*
X14724944Y-10563290D02*
X14734468Y-10534719D01*
X14734468Y-10534719D02*
X14743991Y-10515671D01*
X14743991Y-10515671D02*
X14763039Y-10487099D01*
X14763039Y-10487099D02*
X14772563Y-10477576D01*
X14934468Y-10572814D02*
X14934468Y-10706147D01*
X14886848Y-10496623D02*
X14839229Y-10639480D01*
X14839229Y-10639480D02*
X14963039Y-10639480D01*
X15191610Y-10706147D02*
X15191610Y-10506147D01*
X15277325Y-10706147D02*
X15277325Y-10601385D01*
X15277325Y-10601385D02*
X15267801Y-10582338D01*
X15267801Y-10582338D02*
X15248753Y-10572814D01*
X15248753Y-10572814D02*
X15220182Y-10572814D01*
X15220182Y-10572814D02*
X15201134Y-10582338D01*
X15201134Y-10582338D02*
X15191610Y-10591861D01*
X15401134Y-10706147D02*
X15382087Y-10696623D01*
X15382087Y-10696623D02*
X15372563Y-10687099D01*
X15372563Y-10687099D02*
X15363039Y-10668052D01*
X15363039Y-10668052D02*
X15363039Y-10610909D01*
X15363039Y-10610909D02*
X15372563Y-10591861D01*
X15372563Y-10591861D02*
X15382087Y-10582338D01*
X15382087Y-10582338D02*
X15401134Y-10572814D01*
X15401134Y-10572814D02*
X15429706Y-10572814D01*
X15429706Y-10572814D02*
X15448753Y-10582338D01*
X15448753Y-10582338D02*
X15458277Y-10591861D01*
X15458277Y-10591861D02*
X15467801Y-10610909D01*
X15467801Y-10610909D02*
X15467801Y-10668052D01*
X15467801Y-10668052D02*
X15458277Y-10687099D01*
X15458277Y-10687099D02*
X15448753Y-10696623D01*
X15448753Y-10696623D02*
X15429706Y-10706147D01*
X15429706Y-10706147D02*
X15401134Y-10706147D01*
X15582087Y-10706147D02*
X15563039Y-10696623D01*
X15563039Y-10696623D02*
X15553515Y-10677576D01*
X15553515Y-10677576D02*
X15553515Y-10506147D01*
X15734468Y-10696623D02*
X15715420Y-10706147D01*
X15715420Y-10706147D02*
X15677325Y-10706147D01*
X15677325Y-10706147D02*
X15658277Y-10696623D01*
X15658277Y-10696623D02*
X15648753Y-10677576D01*
X15648753Y-10677576D02*
X15648753Y-10601385D01*
X15648753Y-10601385D02*
X15658277Y-10582338D01*
X15658277Y-10582338D02*
X15677325Y-10572814D01*
X15677325Y-10572814D02*
X15715420Y-10572814D01*
X15715420Y-10572814D02*
X15734468Y-10582338D01*
X15734468Y-10582338D02*
X15743991Y-10601385D01*
X15743991Y-10601385D02*
X15743991Y-10620433D01*
X15743991Y-10620433D02*
X15648753Y-10639480D01*
X15820182Y-10696623D02*
X15839230Y-10706147D01*
X15839230Y-10706147D02*
X15877325Y-10706147D01*
X15877325Y-10706147D02*
X15896372Y-10696623D01*
X15896372Y-10696623D02*
X15905896Y-10677576D01*
X15905896Y-10677576D02*
X15905896Y-10668052D01*
X15905896Y-10668052D02*
X15896372Y-10649004D01*
X15896372Y-10649004D02*
X15877325Y-10639480D01*
X15877325Y-10639480D02*
X15848753Y-10639480D01*
X15848753Y-10639480D02*
X15829706Y-10629957D01*
X15829706Y-10629957D02*
X15820182Y-10610909D01*
X15820182Y-10610909D02*
X15820182Y-10601385D01*
X15820182Y-10601385D02*
X15829706Y-10582338D01*
X15829706Y-10582338D02*
X15848753Y-10572814D01*
X15848753Y-10572814D02*
X15877325Y-10572814D01*
X15877325Y-10572814D02*
X15896372Y-10582338D01*
X15972563Y-10782338D02*
X15982087Y-10772814D01*
X15982087Y-10772814D02*
X16001134Y-10744242D01*
X16001134Y-10744242D02*
X16010658Y-10725195D01*
X16010658Y-10725195D02*
X16020182Y-10696623D01*
X16020182Y-10696623D02*
X16029706Y-10649004D01*
X16029706Y-10649004D02*
X16029706Y-10610909D01*
X16029706Y-10610909D02*
X16020182Y-10563290D01*
X16020182Y-10563290D02*
X16010658Y-10534719D01*
X16010658Y-10534719D02*
X16001134Y-10515671D01*
X16001134Y-10515671D02*
X15982087Y-10487099D01*
X15982087Y-10487099D02*
X15972563Y-10477576D01*
M02*
