G04 #@! TF.GenerationSoftware,KiCad,Pcbnew,8.0.4*
G04 #@! TF.CreationDate,2024-09-08T07:48:53-07:00*
G04 #@! TF.ProjectId,Soil Power Sensor,536f696c-2050-46f7-9765-722053656e73,2.2.2*
G04 #@! TF.SameCoordinates,Original*
G04 #@! TF.FileFunction,Legend,Top*
G04 #@! TF.FilePolarity,Positive*
%FSLAX46Y46*%
G04 Gerber Fmt 4.6, Leading zero omitted, Abs format (unit mm)*
G04 Created by KiCad (PCBNEW 8.0.4) date 2024-09-08 07:48:53*
%MOMM*%
%LPD*%
G01*
G04 APERTURE LIST*
G04 Aperture macros list*
%AMRoundRect*
0 Rectangle with rounded corners*
0 $1 Rounding radius*
0 $2 $3 $4 $5 $6 $7 $8 $9 X,Y pos of 4 corners*
0 Add a 4 corners polygon primitive as box body*
4,1,4,$2,$3,$4,$5,$6,$7,$8,$9,$2,$3,0*
0 Add four circle primitives for the rounded corners*
1,1,$1+$1,$2,$3*
1,1,$1+$1,$4,$5*
1,1,$1+$1,$6,$7*
1,1,$1+$1,$8,$9*
0 Add four rect primitives between the rounded corners*
20,1,$1+$1,$2,$3,$4,$5,0*
20,1,$1+$1,$4,$5,$6,$7,0*
20,1,$1+$1,$6,$7,$8,$9,0*
20,1,$1+$1,$8,$9,$2,$3,0*%
%AMFreePoly0*
4,1,19,0.500000,-0.750000,0.000000,-0.750000,0.000000,-0.744911,-0.071157,-0.744911,-0.207708,-0.704816,-0.327430,-0.627875,-0.420627,-0.520320,-0.479746,-0.390866,-0.500000,-0.250000,-0.500000,0.250000,-0.479746,0.390866,-0.420627,0.520320,-0.327430,0.627875,-0.207708,0.704816,-0.071157,0.744911,0.000000,0.744911,0.000000,0.750000,0.500000,0.750000,0.500000,-0.750000,0.500000,-0.750000,
$1*%
%AMFreePoly1*
4,1,19,0.000000,0.744911,0.071157,0.744911,0.207708,0.704816,0.327430,0.627875,0.420627,0.520320,0.479746,0.390866,0.500000,0.250000,0.500000,-0.250000,0.479746,-0.390866,0.420627,-0.520320,0.327430,-0.627875,0.207708,-0.704816,0.071157,-0.744911,0.000000,-0.744911,0.000000,-0.750000,-0.500000,-0.750000,-0.500000,0.750000,0.000000,0.750000,0.000000,0.744911,0.000000,0.744911,
$1*%
G04 Aperture macros list end*
%ADD10C,0.000000*%
%ADD11C,0.150000*%
%ADD12C,0.100000*%
%ADD13C,0.300000*%
%ADD14C,0.120000*%
%ADD15C,0.152400*%
%ADD16C,0.600000*%
%ADD17C,0.127000*%
%ADD18C,0.200000*%
%ADD19C,0.682456*%
%ADD20C,0.550000*%
%ADD21C,0.558000*%
%ADD22C,1.500000*%
%ADD23RoundRect,0.200000X-0.200000X-0.275000X0.200000X-0.275000X0.200000X0.275000X-0.200000X0.275000X0*%
%ADD24R,2.000000X2.000000*%
%ADD25RoundRect,0.225000X-0.225000X-0.250000X0.225000X-0.250000X0.225000X0.250000X-0.225000X0.250000X0*%
%ADD26RoundRect,0.225000X0.225000X0.250000X-0.225000X0.250000X-0.225000X-0.250000X0.225000X-0.250000X0*%
%ADD27RoundRect,0.150000X-0.587500X-0.150000X0.587500X-0.150000X0.587500X0.150000X-0.587500X0.150000X0*%
%ADD28C,3.600000*%
%ADD29C,5.700000*%
%ADD30RoundRect,0.200000X0.200000X0.275000X-0.200000X0.275000X-0.200000X-0.275000X0.200000X-0.275000X0*%
%ADD31RoundRect,0.101600X-0.990000X-0.265000X0.990000X-0.265000X0.990000X0.265000X-0.990000X0.265000X0*%
%ADD32R,1.500000X1.000000*%
%ADD33R,2.600000X2.600000*%
%ADD34C,2.600000*%
%ADD35RoundRect,0.150000X0.150000X0.625000X-0.150000X0.625000X-0.150000X-0.625000X0.150000X-0.625000X0*%
%ADD36RoundRect,0.250000X0.350000X0.650000X-0.350000X0.650000X-0.350000X-0.650000X0.350000X-0.650000X0*%
%ADD37RoundRect,0.125000X-0.537500X-0.125000X0.537500X-0.125000X0.537500X0.125000X-0.537500X0.125000X0*%
%ADD38RoundRect,0.101600X-2.150000X-0.825000X2.150000X-0.825000X2.150000X0.825000X-2.150000X0.825000X0*%
%ADD39RoundRect,0.150000X-0.512500X-0.150000X0.512500X-0.150000X0.512500X0.150000X-0.512500X0.150000X0*%
%ADD40R,2.800000X1.000000*%
%ADD41RoundRect,0.102000X0.750000X0.450000X-0.750000X0.450000X-0.750000X-0.450000X0.750000X-0.450000X0*%
%ADD42RoundRect,0.102000X0.350000X0.350000X-0.350000X0.350000X-0.350000X-0.350000X0.350000X-0.350000X0*%
%ADD43RoundRect,0.200000X-0.275000X0.200000X-0.275000X-0.200000X0.275000X-0.200000X0.275000X0.200000X0*%
%ADD44R,0.500000X0.800000*%
%ADD45R,0.400000X0.800000*%
%ADD46R,1.000000X1.000000*%
%ADD47R,1.000000X2.300000*%
%ADD48R,1.000000X2.600000*%
%ADD49R,2.300000X1.000000*%
%ADD50R,2.600000X1.000000*%
%ADD51FreePoly0,270.000000*%
%ADD52FreePoly1,270.000000*%
%ADD53RoundRect,0.076650X-0.809950X-0.229950X0.809950X-0.229950X0.809950X0.229950X-0.809950X0.229950X0*%
%ADD54RoundRect,0.150000X0.512500X0.150000X-0.512500X0.150000X-0.512500X-0.150000X0.512500X-0.150000X0*%
%ADD55RoundRect,0.101600X1.385000X0.325000X-1.385000X0.325000X-1.385000X-0.325000X1.385000X-0.325000X0*%
%ADD56FreePoly0,90.000000*%
%ADD57FreePoly1,90.000000*%
%ADD58R,0.850000X1.100000*%
%ADD59R,0.750000X1.100000*%
%ADD60R,1.200000X1.000000*%
%ADD61R,1.550000X1.350000*%
%ADD62R,1.900000X1.350000*%
%ADD63R,1.170000X1.800000*%
%ADD64RoundRect,0.225000X-0.250000X0.225000X-0.250000X-0.225000X0.250000X-0.225000X0.250000X0.225000X0*%
%ADD65RoundRect,0.164042X0.635958X-0.335958X0.635958X0.335958X-0.635958X0.335958X-0.635958X-0.335958X0*%
%ADD66R,1.500000X0.600000*%
%ADD67RoundRect,0.200000X0.275000X-0.200000X0.275000X0.200000X-0.275000X0.200000X-0.275000X-0.200000X0*%
%ADD68RoundRect,0.150000X0.150000X-0.587500X0.150000X0.587500X-0.150000X0.587500X-0.150000X-0.587500X0*%
%ADD69R,1.700000X1.700000*%
%ADD70O,1.700000X1.700000*%
%ADD71RoundRect,0.050000X-0.225000X0.750000X-0.225000X-0.750000X0.225000X-0.750000X0.225000X0.750000X0*%
G04 APERTURE END LIST*
D10*
G36*
X126727981Y-48704287D02*
G01*
X126737759Y-48704872D01*
X126747296Y-48705841D01*
X126756585Y-48707189D01*
X126765622Y-48708910D01*
X126774402Y-48710999D01*
X126782919Y-48713452D01*
X126791167Y-48716262D01*
X126799143Y-48719426D01*
X126806839Y-48722937D01*
X126814252Y-48726790D01*
X126821375Y-48730981D01*
X126828205Y-48735504D01*
X126834734Y-48740354D01*
X126840959Y-48745526D01*
X126846873Y-48751015D01*
X126852472Y-48756815D01*
X126857750Y-48762921D01*
X126862702Y-48769329D01*
X126867323Y-48776033D01*
X126871607Y-48783028D01*
X126875549Y-48790309D01*
X126879145Y-48797870D01*
X126882388Y-48805706D01*
X126885274Y-48813813D01*
X126887796Y-48822185D01*
X126889951Y-48830817D01*
X126891732Y-48839704D01*
X126893135Y-48848840D01*
X126894154Y-48858221D01*
X126894783Y-48867841D01*
X126895019Y-48877696D01*
X126894792Y-48888963D01*
X126894025Y-48899870D01*
X126892714Y-48910425D01*
X126890852Y-48920638D01*
X126888436Y-48930518D01*
X126885461Y-48940074D01*
X126881922Y-48949316D01*
X126877814Y-48958253D01*
X126873134Y-48966895D01*
X126867876Y-48975249D01*
X126862036Y-48983327D01*
X126855609Y-48991138D01*
X126848590Y-48998689D01*
X126840975Y-49005992D01*
X126832759Y-49013055D01*
X126823938Y-49019888D01*
X126787350Y-49046833D01*
X126787576Y-49250969D01*
X126787802Y-49455106D01*
X126966178Y-49574498D01*
X127013593Y-49606430D01*
X127052900Y-49633372D01*
X127084819Y-49655869D01*
X127110070Y-49674469D01*
X127129375Y-49689720D01*
X127143452Y-49702169D01*
X127148756Y-49707513D01*
X127153024Y-49712363D01*
X127156345Y-49716785D01*
X127158809Y-49720849D01*
X127161183Y-49725684D01*
X127162262Y-49728245D01*
X127163271Y-49730988D01*
X127164212Y-49733977D01*
X127165086Y-49737275D01*
X127165896Y-49740945D01*
X127166642Y-49745053D01*
X127167327Y-49749661D01*
X127167953Y-49754833D01*
X127168521Y-49760634D01*
X127169033Y-49767127D01*
X127169491Y-49774376D01*
X127169895Y-49782445D01*
X127170554Y-49801297D01*
X127171023Y-49824195D01*
X127171315Y-49851649D01*
X127171446Y-49884170D01*
X127171427Y-49922268D01*
X127171000Y-50017239D01*
X127170145Y-50140647D01*
X127168308Y-50315647D01*
X127165730Y-50444748D01*
X127162392Y-50528675D01*
X127160431Y-50553923D01*
X127158273Y-50568148D01*
X127144712Y-50619917D01*
X127139887Y-50637459D01*
X127136091Y-50650325D01*
X127133117Y-50659177D01*
X127130758Y-50664678D01*
X127129744Y-50666380D01*
X127128807Y-50667493D01*
X127127920Y-50668100D01*
X127127057Y-50668283D01*
X127126669Y-50668145D01*
X127126014Y-50667734D01*
X127123929Y-50666122D01*
X127120859Y-50663501D01*
X127116860Y-50659926D01*
X127106300Y-50650131D01*
X127092701Y-50637172D01*
X127076516Y-50621481D01*
X127058195Y-50603495D01*
X127038191Y-50583647D01*
X127016954Y-50562371D01*
X127016988Y-50562371D01*
X126911764Y-50456458D01*
X126908270Y-50271594D01*
X126906644Y-50201395D01*
X126904368Y-50145065D01*
X126902822Y-50121190D01*
X126900917Y-50099689D01*
X126898586Y-50080197D01*
X126895765Y-50062349D01*
X126892387Y-50045781D01*
X126888387Y-50030128D01*
X126883699Y-50015025D01*
X126878258Y-50000109D01*
X126871997Y-49985013D01*
X126864852Y-49969375D01*
X126847644Y-49935010D01*
X126840717Y-49922292D01*
X126833035Y-49909333D01*
X126824679Y-49896225D01*
X126815729Y-49883062D01*
X126806263Y-49869933D01*
X126796362Y-49856933D01*
X126786106Y-49844153D01*
X126775575Y-49831685D01*
X126764848Y-49819621D01*
X126754006Y-49808054D01*
X126743128Y-49797076D01*
X126732294Y-49786778D01*
X126721584Y-49777254D01*
X126711078Y-49768595D01*
X126700856Y-49760894D01*
X126690998Y-49754242D01*
X126656431Y-49732403D01*
X126656417Y-49387905D01*
X126656404Y-49043406D01*
X126635221Y-49032342D01*
X126630224Y-49029611D01*
X126625353Y-49026706D01*
X126620612Y-49023632D01*
X126616001Y-49020392D01*
X126611524Y-49016989D01*
X126607181Y-49013428D01*
X126602976Y-49009712D01*
X126598911Y-49005845D01*
X126594987Y-49001831D01*
X126591206Y-48997673D01*
X126587571Y-48993375D01*
X126584084Y-48988941D01*
X126580746Y-48984375D01*
X126577560Y-48979679D01*
X126574529Y-48974859D01*
X126571653Y-48969918D01*
X126568935Y-48964859D01*
X126566378Y-48959686D01*
X126563983Y-48954403D01*
X126561752Y-48949013D01*
X126559688Y-48943521D01*
X126557793Y-48937930D01*
X126556068Y-48932244D01*
X126554515Y-48926467D01*
X126553138Y-48920602D01*
X126551937Y-48914652D01*
X126550916Y-48908623D01*
X126550075Y-48902517D01*
X126549418Y-48896338D01*
X126548946Y-48890090D01*
X126548661Y-48883777D01*
X126548569Y-48877624D01*
X126682510Y-48877624D01*
X126682615Y-48880478D01*
X126682918Y-48883309D01*
X126683418Y-48886102D01*
X126684118Y-48888844D01*
X126685018Y-48891521D01*
X126686119Y-48894119D01*
X126687422Y-48896624D01*
X126688927Y-48899023D01*
X126690637Y-48901300D01*
X126692551Y-48903443D01*
X126694670Y-48905438D01*
X126696996Y-48907270D01*
X126699530Y-48908926D01*
X126702272Y-48910391D01*
X126705223Y-48911653D01*
X126706896Y-48912248D01*
X126708567Y-48912768D01*
X126710233Y-48913212D01*
X126711896Y-48913580D01*
X126713554Y-48913873D01*
X126715208Y-48914091D01*
X126716857Y-48914233D01*
X126718502Y-48914300D01*
X126720142Y-48914293D01*
X126721776Y-48914210D01*
X126723404Y-48914052D01*
X126725027Y-48913820D01*
X126726644Y-48913513D01*
X126728254Y-48913131D01*
X126729858Y-48912675D01*
X126731455Y-48912144D01*
X126733045Y-48911539D01*
X126734628Y-48910860D01*
X126737770Y-48909278D01*
X126740881Y-48907401D01*
X126743957Y-48905228D01*
X126746997Y-48902761D01*
X126750000Y-48900000D01*
X126752962Y-48896945D01*
X126755883Y-48893598D01*
X126757635Y-48891253D01*
X126759080Y-48888827D01*
X126760227Y-48886333D01*
X126761088Y-48883783D01*
X126761671Y-48881190D01*
X126761987Y-48878564D01*
X126762047Y-48875919D01*
X126761860Y-48873266D01*
X126761438Y-48870618D01*
X126760789Y-48867987D01*
X126759925Y-48865385D01*
X126758855Y-48862825D01*
X126757590Y-48860317D01*
X126756139Y-48857875D01*
X126754514Y-48855511D01*
X126752724Y-48853236D01*
X126750780Y-48851064D01*
X126748691Y-48849006D01*
X126746469Y-48847074D01*
X126744123Y-48845280D01*
X126741663Y-48843637D01*
X126739099Y-48842157D01*
X126736442Y-48840852D01*
X126733703Y-48839734D01*
X126730890Y-48838815D01*
X126728016Y-48838107D01*
X126725088Y-48837623D01*
X126722119Y-48837375D01*
X126719117Y-48837375D01*
X126716094Y-48837635D01*
X126713060Y-48838167D01*
X126710024Y-48838983D01*
X126706915Y-48840110D01*
X126703988Y-48841449D01*
X126701243Y-48842987D01*
X126698682Y-48844711D01*
X126696306Y-48846605D01*
X126694114Y-48848656D01*
X126692110Y-48850851D01*
X126690292Y-48853175D01*
X126688662Y-48855615D01*
X126687222Y-48858156D01*
X126685972Y-48860785D01*
X126684912Y-48863488D01*
X126684044Y-48866251D01*
X126683369Y-48869060D01*
X126682888Y-48871901D01*
X126682601Y-48874760D01*
X126682510Y-48877624D01*
X126548569Y-48877624D01*
X126548566Y-48877402D01*
X126548766Y-48867853D01*
X126549363Y-48858501D01*
X126550350Y-48849353D01*
X126551720Y-48840417D01*
X126553466Y-48831698D01*
X126555581Y-48823204D01*
X126558059Y-48814942D01*
X126560893Y-48806919D01*
X126564076Y-48799141D01*
X126567601Y-48791617D01*
X126571461Y-48784352D01*
X126575650Y-48777353D01*
X126580160Y-48770629D01*
X126584986Y-48764184D01*
X126590120Y-48758028D01*
X126595555Y-48752166D01*
X126601285Y-48746605D01*
X126607303Y-48741352D01*
X126613602Y-48736415D01*
X126620175Y-48731800D01*
X126627015Y-48727515D01*
X126634116Y-48723565D01*
X126641471Y-48719959D01*
X126649073Y-48716703D01*
X126656915Y-48713804D01*
X126664991Y-48711269D01*
X126673293Y-48709104D01*
X126681815Y-48707318D01*
X126690550Y-48705917D01*
X126699491Y-48704907D01*
X126708632Y-48704296D01*
X126717966Y-48704091D01*
X126727981Y-48704287D01*
G37*
G36*
X126074439Y-48708072D02*
G01*
X126090733Y-48708568D01*
X126097677Y-48709003D01*
X126103946Y-48709590D01*
X126109633Y-48710348D01*
X126114835Y-48711298D01*
X126119646Y-48712459D01*
X126124160Y-48713852D01*
X126128473Y-48715497D01*
X126132680Y-48717413D01*
X126136875Y-48719620D01*
X126141153Y-48722140D01*
X126145610Y-48724990D01*
X126150339Y-48728193D01*
X126158701Y-48734297D01*
X126166617Y-48740734D01*
X126174085Y-48747484D01*
X126181102Y-48754528D01*
X126187667Y-48761847D01*
X126193776Y-48769423D01*
X126199427Y-48777235D01*
X126204618Y-48785266D01*
X126209346Y-48793495D01*
X126213609Y-48801905D01*
X126217404Y-48810476D01*
X126220729Y-48819189D01*
X126223581Y-48828025D01*
X126225959Y-48836965D01*
X126227858Y-48845990D01*
X126229278Y-48855081D01*
X126230215Y-48864220D01*
X126230667Y-48873386D01*
X126230632Y-48882561D01*
X126230107Y-48891726D01*
X126229090Y-48900862D01*
X126227578Y-48909951D01*
X126225569Y-48918972D01*
X126223060Y-48927907D01*
X126220049Y-48936737D01*
X126216533Y-48945443D01*
X126212511Y-48954006D01*
X126207979Y-48962406D01*
X126202935Y-48970626D01*
X126197376Y-48978646D01*
X126191301Y-48986446D01*
X126184706Y-48994009D01*
X126181530Y-48997395D01*
X126178294Y-49000735D01*
X126171732Y-49007193D01*
X126165206Y-49013231D01*
X126158900Y-49018691D01*
X126155888Y-49021157D01*
X126153000Y-49023421D01*
X126150260Y-49025464D01*
X126147691Y-49027266D01*
X126145315Y-49028808D01*
X126143157Y-49030071D01*
X126141239Y-49031035D01*
X126139584Y-49031682D01*
X126138467Y-49032059D01*
X126137406Y-49032466D01*
X126136399Y-49032908D01*
X126135446Y-49033388D01*
X126134544Y-49033913D01*
X126133692Y-49034485D01*
X126132890Y-49035109D01*
X126132135Y-49035790D01*
X126131427Y-49036532D01*
X126130763Y-49037340D01*
X126130144Y-49038217D01*
X126129567Y-49039169D01*
X126129031Y-49040200D01*
X126128535Y-49041314D01*
X126128077Y-49042516D01*
X126127656Y-49043809D01*
X126127271Y-49045200D01*
X126126921Y-49046691D01*
X126126603Y-49048288D01*
X126126318Y-49049994D01*
X126126063Y-49051815D01*
X126125837Y-49053754D01*
X126125639Y-49055816D01*
X126125467Y-49058006D01*
X126125321Y-49060328D01*
X126125198Y-49062786D01*
X126125019Y-49068129D01*
X126124920Y-49074070D01*
X126124889Y-49080645D01*
X126125160Y-49092878D01*
X126125965Y-49105052D01*
X126127295Y-49117155D01*
X126129138Y-49129172D01*
X126134323Y-49152892D01*
X126141437Y-49176103D01*
X126150396Y-49198692D01*
X126161115Y-49220549D01*
X126173512Y-49241562D01*
X126187500Y-49261620D01*
X126202998Y-49280612D01*
X126219920Y-49298427D01*
X126238183Y-49314953D01*
X126257703Y-49330079D01*
X126278396Y-49343695D01*
X126300178Y-49355688D01*
X126322965Y-49365948D01*
X126334709Y-49370394D01*
X126346672Y-49374364D01*
X126353020Y-49376245D01*
X126359474Y-49377998D01*
X126366040Y-49379625D01*
X126372725Y-49381126D01*
X126379535Y-49382502D01*
X126386477Y-49383754D01*
X126400785Y-49385888D01*
X126415700Y-49387537D01*
X126431276Y-49388706D01*
X126447565Y-49389402D01*
X126464620Y-49389632D01*
X126533133Y-49389632D01*
X126533133Y-49676430D01*
X126515802Y-49671496D01*
X126498803Y-49667235D01*
X126480319Y-49663662D01*
X126460559Y-49660771D01*
X126439732Y-49658556D01*
X126418051Y-49657008D01*
X126395723Y-49656122D01*
X126372960Y-49655891D01*
X126349971Y-49656309D01*
X126326966Y-49657367D01*
X126304156Y-49659060D01*
X126281751Y-49661381D01*
X126259960Y-49664323D01*
X126238994Y-49667880D01*
X126219063Y-49672044D01*
X126200376Y-49676809D01*
X126183145Y-49682168D01*
X126156846Y-49692044D01*
X126131117Y-49703355D01*
X126106017Y-49716046D01*
X126081605Y-49730063D01*
X126057939Y-49745348D01*
X126035080Y-49761849D01*
X126013085Y-49779508D01*
X125992014Y-49798271D01*
X125971926Y-49818082D01*
X125952880Y-49838887D01*
X125934935Y-49860629D01*
X125918149Y-49883254D01*
X125902582Y-49906706D01*
X125888294Y-49930930D01*
X125875342Y-49955871D01*
X125863786Y-49981473D01*
X125857506Y-49997019D01*
X125851926Y-50012238D01*
X125847004Y-50027642D01*
X125842699Y-50043745D01*
X125838971Y-50061060D01*
X125835779Y-50080101D01*
X125833082Y-50101380D01*
X125830840Y-50125412D01*
X125829012Y-50152708D01*
X125827558Y-50183783D01*
X125826435Y-50219149D01*
X125825605Y-50259320D01*
X125825026Y-50304809D01*
X125824657Y-50356130D01*
X125824388Y-50478318D01*
X125824288Y-50818486D01*
X125798100Y-50835445D01*
X125789672Y-50841342D01*
X125781511Y-50847919D01*
X125773654Y-50855111D01*
X125766139Y-50862852D01*
X125759006Y-50871076D01*
X125752292Y-50879718D01*
X125746035Y-50888713D01*
X125740274Y-50897995D01*
X125735048Y-50907498D01*
X125730394Y-50917158D01*
X125726351Y-50926908D01*
X125722958Y-50936682D01*
X125720251Y-50946417D01*
X125718271Y-50956045D01*
X125717565Y-50960799D01*
X125717054Y-50965502D01*
X125716745Y-50970146D01*
X125716640Y-50974722D01*
X125716890Y-50982631D01*
X125717626Y-50990538D01*
X125718834Y-50998427D01*
X125720498Y-51006281D01*
X125722600Y-51014085D01*
X125725125Y-51021822D01*
X125728056Y-51029476D01*
X125731378Y-51037029D01*
X125735074Y-51044467D01*
X125739128Y-51051772D01*
X125743524Y-51058928D01*
X125748245Y-51065919D01*
X125753276Y-51072728D01*
X125758600Y-51079339D01*
X125764201Y-51085736D01*
X125770062Y-51091903D01*
X125776169Y-51097822D01*
X125782503Y-51103478D01*
X125789050Y-51108855D01*
X125795793Y-51113935D01*
X125802716Y-51118703D01*
X125809802Y-51123142D01*
X125817036Y-51127236D01*
X125824401Y-51130969D01*
X125831881Y-51134323D01*
X125839459Y-51137284D01*
X125847121Y-51139833D01*
X125854849Y-51141956D01*
X125862627Y-51143636D01*
X125870439Y-51144856D01*
X125878268Y-51145600D01*
X125886100Y-51145851D01*
X125894071Y-51145598D01*
X125902026Y-51144849D01*
X125909948Y-51143620D01*
X125917822Y-51141928D01*
X125925633Y-51139788D01*
X125933365Y-51137217D01*
X125941002Y-51134231D01*
X125948529Y-51130845D01*
X125955929Y-51127076D01*
X125963188Y-51122940D01*
X125970290Y-51118453D01*
X125977218Y-51113631D01*
X125983958Y-51108490D01*
X125990494Y-51103047D01*
X125996810Y-51097317D01*
X126002890Y-51091317D01*
X126008720Y-51085062D01*
X126014282Y-51078568D01*
X126019562Y-51071853D01*
X126024544Y-51064931D01*
X126029213Y-51057820D01*
X126033552Y-51050534D01*
X126037546Y-51043090D01*
X126041179Y-51035505D01*
X126044437Y-51027793D01*
X126047302Y-51019973D01*
X126049760Y-51012058D01*
X126051795Y-51004066D01*
X126053391Y-50996013D01*
X126054533Y-50987915D01*
X126055204Y-50979787D01*
X126055391Y-50971646D01*
X126055233Y-50967136D01*
X126054835Y-50962513D01*
X126053346Y-50952980D01*
X126050984Y-50943148D01*
X126047812Y-50933115D01*
X126043890Y-50922980D01*
X126039281Y-50912841D01*
X126034046Y-50902797D01*
X126028245Y-50892946D01*
X126021942Y-50883388D01*
X126015198Y-50874222D01*
X126008073Y-50865545D01*
X126000630Y-50857456D01*
X125992930Y-50850055D01*
X125985035Y-50843440D01*
X125977006Y-50837709D01*
X125968904Y-50832962D01*
X125947722Y-50821942D01*
X125947722Y-50469433D01*
X125948192Y-50289494D01*
X125949959Y-50175207D01*
X125951496Y-50137063D01*
X125953556Y-50108586D01*
X125956208Y-50087529D01*
X125959516Y-50071643D01*
X125963392Y-50057829D01*
X125967764Y-50044221D01*
X125977955Y-50017658D01*
X125989998Y-49992036D01*
X126003805Y-49967437D01*
X126019287Y-49943943D01*
X126036354Y-49921637D01*
X126054918Y-49900600D01*
X126074888Y-49880913D01*
X126096176Y-49862661D01*
X126118693Y-49845923D01*
X126142349Y-49830783D01*
X126167055Y-49817322D01*
X126192723Y-49805622D01*
X126219262Y-49795766D01*
X126246583Y-49787836D01*
X126260510Y-49784618D01*
X126274598Y-49781912D01*
X126288556Y-49779817D01*
X126303403Y-49778176D01*
X126318993Y-49776978D01*
X126335175Y-49776216D01*
X126351802Y-49775878D01*
X126368725Y-49775956D01*
X126385796Y-49776441D01*
X126402866Y-49777323D01*
X126419786Y-49778592D01*
X126436409Y-49780239D01*
X126452585Y-49782256D01*
X126468167Y-49784632D01*
X126483005Y-49787358D01*
X126496951Y-49790424D01*
X126509857Y-49793822D01*
X126521574Y-49797541D01*
X126538407Y-49803928D01*
X126555076Y-49811225D01*
X126571527Y-49819385D01*
X126587704Y-49828362D01*
X126603553Y-49838110D01*
X126619020Y-49848582D01*
X126634049Y-49859732D01*
X126648585Y-49871514D01*
X126662575Y-49883882D01*
X126675964Y-49896788D01*
X126688695Y-49910188D01*
X126700716Y-49924034D01*
X126711971Y-49938280D01*
X126722406Y-49952879D01*
X126731965Y-49967787D01*
X126740594Y-49982955D01*
X126747965Y-49997134D01*
X126754529Y-50010654D01*
X126760332Y-50023836D01*
X126765420Y-50036999D01*
X126769838Y-50050462D01*
X126773633Y-50064545D01*
X126776850Y-50079567D01*
X126779534Y-50095848D01*
X126781731Y-50113706D01*
X126783487Y-50133462D01*
X126784848Y-50155435D01*
X126785859Y-50179943D01*
X126786566Y-50207307D01*
X126787014Y-50237847D01*
X126787318Y-50309727D01*
X126787318Y-50502530D01*
X127082200Y-50797703D01*
X127054554Y-50847139D01*
X127048269Y-50858063D01*
X127040991Y-50870176D01*
X127032981Y-50883075D01*
X127024499Y-50896357D01*
X127015806Y-50909620D01*
X127007161Y-50922462D01*
X126998826Y-50934479D01*
X126991061Y-50945270D01*
X126955214Y-50993965D01*
X126771131Y-50810002D01*
X126587048Y-50626039D01*
X126586968Y-50379492D01*
X126586595Y-50238145D01*
X126585874Y-50192889D01*
X126584530Y-50160366D01*
X126582363Y-50137417D01*
X126580908Y-50128545D01*
X126579172Y-50120883D01*
X126574758Y-50107608D01*
X126568920Y-50094431D01*
X126565179Y-50086791D01*
X126561201Y-50079393D01*
X126556989Y-50072238D01*
X126552545Y-50065327D01*
X126547871Y-50058661D01*
X126542972Y-50052243D01*
X126537849Y-50046073D01*
X126532505Y-50040153D01*
X126526943Y-50034484D01*
X126521165Y-50029068D01*
X126515174Y-50023906D01*
X126508974Y-50019000D01*
X126502566Y-50014351D01*
X126495953Y-50009960D01*
X126489138Y-50005829D01*
X126482124Y-50001959D01*
X126474914Y-49998352D01*
X126467510Y-49995010D01*
X126459915Y-49991932D01*
X126452131Y-49989122D01*
X126444162Y-49986580D01*
X126436009Y-49984308D01*
X126427677Y-49982308D01*
X126419166Y-49980580D01*
X126410481Y-49979126D01*
X126401624Y-49977948D01*
X126392598Y-49977046D01*
X126383405Y-49976423D01*
X126374047Y-49976080D01*
X126364529Y-49976018D01*
X126354852Y-49976239D01*
X126345019Y-49976744D01*
X126329142Y-49978213D01*
X126313864Y-49980505D01*
X126299186Y-49983619D01*
X126285112Y-49987554D01*
X126271643Y-49992308D01*
X126258781Y-49997880D01*
X126246528Y-50004268D01*
X126234887Y-50011472D01*
X126223858Y-50019489D01*
X126213445Y-50028319D01*
X126203649Y-50037960D01*
X126194472Y-50048410D01*
X126185916Y-50059669D01*
X126177984Y-50071735D01*
X126170678Y-50084607D01*
X126163998Y-50098282D01*
X126161298Y-50104546D01*
X126160072Y-50107771D01*
X126158926Y-50111200D01*
X126157857Y-50114942D01*
X126156862Y-50119101D01*
X126155939Y-50123786D01*
X126155084Y-50129103D01*
X126154295Y-50135159D01*
X126153570Y-50142061D01*
X126152905Y-50149915D01*
X126152298Y-50158829D01*
X126151746Y-50168909D01*
X126151247Y-50180262D01*
X126150395Y-50207215D01*
X126149721Y-50240543D01*
X126149203Y-50281100D01*
X126148819Y-50329741D01*
X126148548Y-50387321D01*
X126148257Y-50532718D01*
X126148157Y-50724128D01*
X126147977Y-51315311D01*
X126263518Y-51315311D01*
X126263518Y-50741212D01*
X126264116Y-50386192D01*
X126265514Y-50276232D01*
X126268225Y-50201461D01*
X126272682Y-50154496D01*
X126275701Y-50139133D01*
X126279319Y-50127954D01*
X126283592Y-50120034D01*
X126288572Y-50114451D01*
X126300873Y-50106605D01*
X126302742Y-50105757D01*
X126305115Y-50104933D01*
X126307958Y-50104137D01*
X126311234Y-50103373D01*
X126314906Y-50102646D01*
X126318940Y-50101960D01*
X126323299Y-50101319D01*
X126327946Y-50100727D01*
X126337964Y-50099709D01*
X126348704Y-50098939D01*
X126359879Y-50098452D01*
X126365539Y-50098325D01*
X126371200Y-50098282D01*
X126387437Y-50098417D01*
X126394365Y-50098611D01*
X126400590Y-50098912D01*
X126406179Y-50099338D01*
X126411199Y-50099906D01*
X126415717Y-50100634D01*
X126419800Y-50101537D01*
X126423516Y-50102635D01*
X126426931Y-50103943D01*
X126430114Y-50105480D01*
X126433130Y-50107262D01*
X126436048Y-50109306D01*
X126438935Y-50111631D01*
X126441857Y-50114253D01*
X126444882Y-50117189D01*
X126463789Y-50136095D01*
X126463789Y-50672219D01*
X126725681Y-50934027D01*
X126987573Y-51195834D01*
X126987393Y-51565607D01*
X126986922Y-51768728D01*
X126986237Y-51835414D01*
X126985076Y-51883735D01*
X126983306Y-51917353D01*
X126980797Y-51939933D01*
X126977416Y-51955137D01*
X126973030Y-51966629D01*
X126967520Y-51976350D01*
X126957040Y-51992567D01*
X126923833Y-52040848D01*
X126878732Y-52104200D01*
X126827066Y-52175349D01*
X126725336Y-52311943D01*
X126685924Y-52362841D01*
X126661249Y-52392441D01*
X126658628Y-52395146D01*
X126655767Y-52397945D01*
X126652694Y-52400816D01*
X126649437Y-52403737D01*
X126646025Y-52406687D01*
X126642485Y-52409644D01*
X126635135Y-52415490D01*
X126627614Y-52421104D01*
X126623860Y-52423768D01*
X126620148Y-52426310D01*
X126616505Y-52428706D01*
X126612960Y-52430935D01*
X126609542Y-52432976D01*
X126606278Y-52434806D01*
X126600728Y-52437716D01*
X126597946Y-52439036D01*
X126595032Y-52440270D01*
X126591890Y-52441421D01*
X126588427Y-52442493D01*
X126584545Y-52443490D01*
X126580151Y-52444414D01*
X126575149Y-52445269D01*
X126569443Y-52446058D01*
X126562939Y-52446785D01*
X126555541Y-52447453D01*
X126547155Y-52448066D01*
X126537684Y-52448626D01*
X126527034Y-52449137D01*
X126515109Y-52449603D01*
X126501815Y-52450026D01*
X126487055Y-52450411D01*
X126452760Y-52451078D01*
X126411462Y-52451629D01*
X126362400Y-52452092D01*
X126304811Y-52452494D01*
X126237934Y-52452862D01*
X126073269Y-52453601D01*
X125571072Y-52455742D01*
X125566407Y-52936734D01*
X125393096Y-53247646D01*
X125300701Y-53412116D01*
X125267547Y-53469585D01*
X125240953Y-53514019D01*
X125219315Y-53548024D01*
X125201031Y-53574205D01*
X125184499Y-53595170D01*
X125168115Y-53613525D01*
X125116445Y-53668492D01*
X125116116Y-53085132D01*
X125115787Y-52501773D01*
X125160716Y-52451463D01*
X125361630Y-52449171D01*
X125562544Y-52446879D01*
X125562544Y-52332068D01*
X125358185Y-52332068D01*
X125284009Y-52332216D01*
X125226861Y-52332992D01*
X125203712Y-52333769D01*
X125183666Y-52334889D01*
X125166339Y-52336412D01*
X125151346Y-52338402D01*
X125138304Y-52340919D01*
X125126827Y-52344025D01*
X125116531Y-52347782D01*
X125107032Y-52352252D01*
X125097945Y-52357497D01*
X125088885Y-52363579D01*
X125069309Y-52378499D01*
X125066080Y-52381191D01*
X125062751Y-52384221D01*
X125059344Y-52387561D01*
X125055882Y-52391181D01*
X125052386Y-52395053D01*
X125048878Y-52399149D01*
X125045381Y-52403438D01*
X125041916Y-52407893D01*
X125038506Y-52412483D01*
X125035171Y-52417182D01*
X125031935Y-52421958D01*
X125028819Y-52426784D01*
X125025845Y-52431631D01*
X125023035Y-52436470D01*
X125020411Y-52441271D01*
X125017995Y-52446007D01*
X124996405Y-52489973D01*
X124994304Y-53118903D01*
X124992204Y-53747833D01*
X124962854Y-53759576D01*
X124953631Y-53763030D01*
X124943376Y-53766436D01*
X124932222Y-53769770D01*
X124920302Y-53773008D01*
X124894691Y-53779100D01*
X124867603Y-53784518D01*
X124840098Y-53789069D01*
X124813237Y-53792559D01*
X124800379Y-53793846D01*
X124788079Y-53794795D01*
X124776469Y-53795382D01*
X124765683Y-53795583D01*
X124715294Y-53795583D01*
X124715320Y-53425855D01*
X124715817Y-53266564D01*
X124717286Y-53150750D01*
X124719692Y-53080055D01*
X124721236Y-53062141D01*
X124722091Y-53057633D01*
X124723000Y-53056124D01*
X124724484Y-53055960D01*
X124726194Y-53055479D01*
X124728117Y-53054695D01*
X124730238Y-53053625D01*
X124735013Y-53050682D01*
X124740399Y-53046773D01*
X124746276Y-53042019D01*
X124752525Y-53036542D01*
X124759026Y-53030463D01*
X124765659Y-53023903D01*
X124772305Y-53016984D01*
X124778844Y-53009827D01*
X124785156Y-53002555D01*
X124791121Y-52995288D01*
X124796621Y-52988148D01*
X124801534Y-52981256D01*
X124805743Y-52974734D01*
X124809126Y-52968703D01*
X124811302Y-52964293D01*
X124813264Y-52959996D01*
X124815019Y-52955773D01*
X124816572Y-52951586D01*
X124817930Y-52947396D01*
X124819098Y-52943165D01*
X124820084Y-52938855D01*
X124820893Y-52934426D01*
X124821531Y-52929840D01*
X124822005Y-52925060D01*
X124822320Y-52920046D01*
X124822483Y-52914760D01*
X124822501Y-52909163D01*
X124822378Y-52903217D01*
X124822123Y-52896883D01*
X124821739Y-52890123D01*
X124820786Y-52879392D01*
X124819316Y-52868997D01*
X124817331Y-52858942D01*
X124814837Y-52849234D01*
X124811835Y-52839878D01*
X124808329Y-52830880D01*
X124804322Y-52822244D01*
X124799818Y-52813977D01*
X124794819Y-52806083D01*
X124789329Y-52798570D01*
X124783352Y-52791441D01*
X124776889Y-52784703D01*
X124769946Y-52778361D01*
X124762524Y-52772420D01*
X124754628Y-52766886D01*
X124746260Y-52761765D01*
X124715439Y-52744164D01*
X124715505Y-52586259D01*
X124715983Y-52524070D01*
X124717513Y-52471897D01*
X124718752Y-52449047D01*
X124720350Y-52428078D01*
X124722339Y-52408782D01*
X124724750Y-52390952D01*
X124727616Y-52374380D01*
X124730968Y-52358859D01*
X124734839Y-52344181D01*
X124739260Y-52330138D01*
X124741381Y-52324366D01*
X125570321Y-52324366D01*
X126047387Y-52324366D01*
X126234031Y-52323830D01*
X126389554Y-52322371D01*
X126497719Y-52320212D01*
X126528967Y-52318939D01*
X126542287Y-52317574D01*
X126542287Y-52317575D01*
X126543437Y-52316964D01*
X126544921Y-52315883D01*
X126548860Y-52312349D01*
X126554047Y-52307047D01*
X126560423Y-52300048D01*
X126567929Y-52291427D01*
X126576507Y-52281255D01*
X126596646Y-52256554D01*
X126620372Y-52226527D01*
X126647218Y-52191758D01*
X126676715Y-52152831D01*
X126708397Y-52110327D01*
X126856674Y-51909872D01*
X126856674Y-51091755D01*
X126815824Y-51125028D01*
X126796621Y-51140041D01*
X126775824Y-51155145D01*
X126753798Y-51170114D01*
X126730909Y-51184722D01*
X126707522Y-51198742D01*
X126684002Y-51211950D01*
X126660715Y-51224118D01*
X126638026Y-51235020D01*
X126594782Y-51254818D01*
X126594782Y-51743638D01*
X126575396Y-51781739D01*
X126572933Y-51786197D01*
X126569579Y-51791664D01*
X126560434Y-51805315D01*
X126548428Y-51822079D01*
X126534026Y-51841343D01*
X126517694Y-51862495D01*
X126499899Y-51884921D01*
X126481106Y-51908009D01*
X126461782Y-51931146D01*
X126436406Y-51960832D01*
X126414531Y-51985740D01*
X126395667Y-52006356D01*
X126379320Y-52023168D01*
X126371936Y-52030299D01*
X126364998Y-52036661D01*
X126358442Y-52042315D01*
X126352208Y-52047321D01*
X126346235Y-52051742D01*
X126340460Y-52055636D01*
X126334822Y-52059066D01*
X126329260Y-52062092D01*
X126290967Y-52081731D01*
X125930644Y-52083942D01*
X125570321Y-52086159D01*
X125570321Y-52324366D01*
X124741381Y-52324366D01*
X124744263Y-52316524D01*
X124749880Y-52303130D01*
X124756142Y-52289748D01*
X124763083Y-52276172D01*
X124769208Y-52265275D01*
X124776086Y-52254215D01*
X124783647Y-52243066D01*
X124791822Y-52231897D01*
X124800541Y-52220781D01*
X124809736Y-52209788D01*
X124819335Y-52198992D01*
X124829271Y-52188462D01*
X124839473Y-52178271D01*
X124849872Y-52168491D01*
X124860398Y-52159192D01*
X124870982Y-52150446D01*
X124881555Y-52142324D01*
X124892046Y-52134899D01*
X124902387Y-52128242D01*
X124912507Y-52122424D01*
X124926364Y-52115147D01*
X124939571Y-52108703D01*
X124952567Y-52103042D01*
X124965792Y-52098115D01*
X124972628Y-52095910D01*
X124979686Y-52093870D01*
X124987021Y-52091988D01*
X124994688Y-52090258D01*
X125002742Y-52088673D01*
X125011237Y-52087228D01*
X125019171Y-52086159D01*
X125029774Y-52084730D01*
X125050736Y-52082714D01*
X125074565Y-52081130D01*
X125101700Y-52079928D01*
X125132579Y-52079056D01*
X125167643Y-52078466D01*
X125207331Y-52078107D01*
X125302336Y-52077879D01*
X125562610Y-52077879D01*
X125562610Y-51954636D01*
X125311946Y-51954636D01*
X125186915Y-51955187D01*
X125139541Y-51955952D01*
X125100522Y-51957111D01*
X125068554Y-51958714D01*
X125042333Y-51960813D01*
X125020554Y-51963458D01*
X125001912Y-51966699D01*
X124967078Y-51975175D01*
X124933031Y-51986220D01*
X124899900Y-51999711D01*
X124867815Y-52015524D01*
X124836906Y-52033534D01*
X124807301Y-52053618D01*
X124779131Y-52075652D01*
X124752523Y-52099512D01*
X124727608Y-52125073D01*
X124704515Y-52152211D01*
X124683374Y-52180803D01*
X124664312Y-52210724D01*
X124647461Y-52241851D01*
X124632949Y-52274059D01*
X124620905Y-52307224D01*
X124611460Y-52341222D01*
X124609950Y-52348192D01*
X124608560Y-52355816D01*
X124607286Y-52364158D01*
X124606126Y-52373281D01*
X124605077Y-52383250D01*
X124604134Y-52394129D01*
X124602556Y-52418870D01*
X124601366Y-52448017D01*
X124600538Y-52482080D01*
X124600046Y-52521571D01*
X124599863Y-52567002D01*
X124599733Y-52744164D01*
X124571150Y-52759570D01*
X124568117Y-52761312D01*
X124564931Y-52763346D01*
X124561619Y-52765646D01*
X124558207Y-52768187D01*
X124554721Y-52770944D01*
X124551190Y-52773892D01*
X124547638Y-52777006D01*
X124544093Y-52780261D01*
X124540582Y-52783632D01*
X124537131Y-52787094D01*
X124533766Y-52790622D01*
X124530515Y-52794191D01*
X124527404Y-52797776D01*
X124524460Y-52801351D01*
X124521709Y-52804893D01*
X124519178Y-52808375D01*
X124515427Y-52813808D01*
X124512096Y-52818838D01*
X124509160Y-52823561D01*
X124506594Y-52828076D01*
X124504374Y-52832480D01*
X124502476Y-52836870D01*
X124501640Y-52839090D01*
X124500875Y-52841344D01*
X124500178Y-52843643D01*
X124499546Y-52845999D01*
X124498465Y-52850934D01*
X124497608Y-52856244D01*
X124496950Y-52862028D01*
X124496467Y-52868384D01*
X124496133Y-52875408D01*
X124495925Y-52883198D01*
X124495818Y-52891852D01*
X124495788Y-52901467D01*
X124495933Y-52919326D01*
X124496145Y-52927000D01*
X124496475Y-52933950D01*
X124496943Y-52940260D01*
X124497571Y-52946014D01*
X124498376Y-52951299D01*
X124499380Y-52956198D01*
X124500602Y-52960795D01*
X124502061Y-52965177D01*
X124503779Y-52969426D01*
X124505774Y-52973628D01*
X124508066Y-52977868D01*
X124510675Y-52982230D01*
X124513622Y-52986798D01*
X124516925Y-52991658D01*
X124519238Y-52994863D01*
X124521797Y-52998171D01*
X124524577Y-53001556D01*
X124527551Y-53004993D01*
X124530692Y-53008457D01*
X124533975Y-53011922D01*
X124537372Y-53015362D01*
X124540856Y-53018754D01*
X124544402Y-53022070D01*
X124547983Y-53025287D01*
X124551572Y-53028378D01*
X124555143Y-53031319D01*
X124558669Y-53034083D01*
X124562123Y-53036646D01*
X124565479Y-53038983D01*
X124568711Y-53041067D01*
X124599360Y-53059975D01*
X124599556Y-53415884D01*
X124599752Y-53771793D01*
X124568331Y-53760707D01*
X124556893Y-53756473D01*
X124545415Y-53751834D01*
X124533914Y-53746799D01*
X124522410Y-53741380D01*
X124510921Y-53735589D01*
X124499466Y-53729438D01*
X124488062Y-53722938D01*
X124476730Y-53716100D01*
X124465487Y-53708937D01*
X124454351Y-53701458D01*
X124443342Y-53693677D01*
X124432478Y-53685604D01*
X124421778Y-53677251D01*
X124411259Y-53668630D01*
X124400941Y-53659752D01*
X124390843Y-53650628D01*
X124337031Y-53600807D01*
X124339675Y-52914445D01*
X124341480Y-52519366D01*
X124344160Y-52308524D01*
X124346385Y-52250929D01*
X124349499Y-52213880D01*
X124353724Y-52188872D01*
X124359284Y-52167399D01*
X124368422Y-52137276D01*
X124378770Y-52107924D01*
X124390313Y-52079368D01*
X124403031Y-52051629D01*
X124416909Y-52024731D01*
X124431929Y-51998697D01*
X124448073Y-51973550D01*
X124465325Y-51949313D01*
X124467197Y-51946934D01*
X125570325Y-51946934D01*
X125911382Y-51946934D01*
X126091508Y-51946531D01*
X126197132Y-51944839D01*
X126228650Y-51943283D01*
X126249517Y-51941133D01*
X126262389Y-51938297D01*
X126269926Y-51934685D01*
X126269921Y-51934685D01*
X126272140Y-51932914D01*
X126275156Y-51930165D01*
X126278916Y-51926497D01*
X126283368Y-51921967D01*
X126294139Y-51910555D01*
X126307053Y-51896392D01*
X126321690Y-51879944D01*
X126337634Y-51861674D01*
X126354467Y-51842046D01*
X126371770Y-51821525D01*
X126456133Y-51720612D01*
X126456133Y-51298109D01*
X126438802Y-51302965D01*
X126433787Y-51304130D01*
X126426146Y-51305583D01*
X126416258Y-51307267D01*
X126404500Y-51309123D01*
X126391254Y-51311093D01*
X126376897Y-51313119D01*
X126361809Y-51315144D01*
X126346369Y-51317109D01*
X126271268Y-51326397D01*
X126271088Y-51446024D01*
X126270920Y-51479963D01*
X126270453Y-51507853D01*
X126269604Y-51530561D01*
X126268293Y-51548956D01*
X126266438Y-51563906D01*
X126265280Y-51570360D01*
X126263956Y-51576277D01*
X126262455Y-51581768D01*
X126260766Y-51586939D01*
X126256787Y-51596758D01*
X126252997Y-51604236D01*
X126248358Y-51611921D01*
X126242954Y-51619739D01*
X126236872Y-51627615D01*
X126230196Y-51635472D01*
X126223009Y-51643235D01*
X126215399Y-51650828D01*
X126207449Y-51658177D01*
X126199243Y-51665206D01*
X126190868Y-51671838D01*
X126182408Y-51677999D01*
X126173947Y-51683614D01*
X126165571Y-51688605D01*
X126157364Y-51692899D01*
X126149412Y-51696420D01*
X126141799Y-51699091D01*
X126137045Y-51700214D01*
X126130526Y-51701260D01*
X126122218Y-51702228D01*
X126112099Y-51703121D01*
X126086332Y-51704681D01*
X126053041Y-51705944D01*
X126012041Y-51706917D01*
X125963147Y-51707606D01*
X125906173Y-51708014D01*
X125840937Y-51708149D01*
X125570325Y-51708149D01*
X125570325Y-51946934D01*
X124467197Y-51946934D01*
X124483667Y-51926008D01*
X124503082Y-51903660D01*
X124523552Y-51882291D01*
X124545061Y-51861924D01*
X124567590Y-51842582D01*
X124591124Y-51824288D01*
X124615645Y-51807066D01*
X124641134Y-51790938D01*
X124653303Y-51783899D01*
X124666158Y-51776947D01*
X124679590Y-51770123D01*
X124693488Y-51763469D01*
X124707742Y-51757023D01*
X124722242Y-51750828D01*
X124751534Y-51739352D01*
X124766106Y-51734152D01*
X124780481Y-51729365D01*
X124794549Y-51725032D01*
X124808200Y-51721194D01*
X124821323Y-51717890D01*
X124833807Y-51715163D01*
X124845542Y-51713052D01*
X124856418Y-51711599D01*
X124896306Y-51707341D01*
X124917125Y-51742300D01*
X124921504Y-51749293D01*
X124926110Y-51755945D01*
X124930952Y-51762262D01*
X124936039Y-51768250D01*
X124941381Y-51773917D01*
X124946986Y-51779268D01*
X124952863Y-51784311D01*
X124959022Y-51789051D01*
X124965471Y-51793495D01*
X124972219Y-51797651D01*
X124979277Y-51801524D01*
X124986652Y-51805122D01*
X124994353Y-51808450D01*
X125002390Y-51811516D01*
X125010772Y-51814325D01*
X125019508Y-51816885D01*
X125025769Y-51818405D01*
X125032140Y-51819579D01*
X125038605Y-51820413D01*
X125045152Y-51820913D01*
X125051766Y-51821088D01*
X125058432Y-51820944D01*
X125071866Y-51819725D01*
X125085340Y-51817312D01*
X125098742Y-51813759D01*
X125111956Y-51809123D01*
X125124871Y-51803457D01*
X125137372Y-51796816D01*
X125149347Y-51789256D01*
X125160681Y-51780831D01*
X125171262Y-51771596D01*
X125180975Y-51761607D01*
X125185471Y-51756347D01*
X125189708Y-51750918D01*
X125193671Y-51745328D01*
X125197347Y-51739584D01*
X125200720Y-51733692D01*
X125203778Y-51727660D01*
X125213036Y-51708149D01*
X125216692Y-51700446D01*
X125562591Y-51700446D01*
X125562591Y-51584905D01*
X125216286Y-51584905D01*
X125208774Y-51577204D01*
X125175688Y-51543283D01*
X125165644Y-51533405D01*
X125155693Y-51524478D01*
X125145799Y-51516492D01*
X125135929Y-51509437D01*
X125126049Y-51503302D01*
X125121094Y-51500576D01*
X125116124Y-51498077D01*
X125111134Y-51495804D01*
X125106120Y-51493754D01*
X125101078Y-51491927D01*
X125096004Y-51490321D01*
X125090892Y-51488935D01*
X125085740Y-51487768D01*
X125080542Y-51486819D01*
X125075295Y-51486086D01*
X125069994Y-51485568D01*
X125064635Y-51485264D01*
X125059213Y-51485173D01*
X125053725Y-51485293D01*
X125042531Y-51486161D01*
X125031019Y-51487861D01*
X125019155Y-51490380D01*
X125006905Y-51493710D01*
X125000409Y-51495962D01*
X124993517Y-51498913D01*
X124986330Y-51502483D01*
X124978948Y-51506591D01*
X124971472Y-51511158D01*
X124964004Y-51516104D01*
X124956643Y-51521350D01*
X124949492Y-51526815D01*
X124942651Y-51532420D01*
X124936220Y-51538084D01*
X124930302Y-51543729D01*
X124924996Y-51549273D01*
X124920403Y-51554639D01*
X124916625Y-51559744D01*
X124913762Y-51564510D01*
X124912706Y-51566741D01*
X124911916Y-51568857D01*
X124911569Y-51569853D01*
X124911170Y-51570815D01*
X124910716Y-51571744D01*
X124910205Y-51572641D01*
X124909636Y-51573507D01*
X124909004Y-51574343D01*
X124908309Y-51575151D01*
X124907547Y-51575930D01*
X124906717Y-51576682D01*
X124905817Y-51577409D01*
X124904843Y-51578109D01*
X124903793Y-51578786D01*
X124902666Y-51579440D01*
X124901459Y-51580071D01*
X124900169Y-51580680D01*
X124898795Y-51581270D01*
X124897334Y-51581839D01*
X124895783Y-51582390D01*
X124894141Y-51582924D01*
X124892405Y-51583441D01*
X124890572Y-51583942D01*
X124888641Y-51584428D01*
X124886609Y-51584900D01*
X124884474Y-51585360D01*
X124879885Y-51586244D01*
X124874856Y-51587088D01*
X124869367Y-51587899D01*
X124863401Y-51588685D01*
X124843077Y-51591637D01*
X124822309Y-51595453D01*
X124801185Y-51600099D01*
X124779793Y-51605539D01*
X124758220Y-51611738D01*
X124736556Y-51618660D01*
X124714889Y-51626272D01*
X124693306Y-51634537D01*
X124671896Y-51643420D01*
X124650747Y-51652886D01*
X124629948Y-51662900D01*
X124609586Y-51673426D01*
X124589750Y-51684431D01*
X124570528Y-51695877D01*
X124552008Y-51707731D01*
X124534279Y-51719956D01*
X124522799Y-51728499D01*
X124510765Y-51738047D01*
X124498289Y-51748487D01*
X124485480Y-51759704D01*
X124472451Y-51771585D01*
X124459313Y-51784015D01*
X124446175Y-51796880D01*
X124433149Y-51810066D01*
X124420347Y-51823459D01*
X124407878Y-51836944D01*
X124395855Y-51850407D01*
X124384387Y-51863735D01*
X124373586Y-51876812D01*
X124363563Y-51889525D01*
X124354429Y-51901759D01*
X124346295Y-51913401D01*
X124338588Y-51925183D01*
X124330963Y-51937454D01*
X124323441Y-51950170D01*
X124316043Y-51963285D01*
X124301697Y-51990541D01*
X124288087Y-52018871D01*
X124275374Y-52047922D01*
X124263720Y-52077341D01*
X124258341Y-52092080D01*
X124253287Y-52106778D01*
X124248578Y-52121393D01*
X124244235Y-52135880D01*
X124241133Y-52146816D01*
X124238410Y-52157351D01*
X124237180Y-52162768D01*
X124236034Y-52168442D01*
X124234967Y-52174494D01*
X124233974Y-52181044D01*
X124233053Y-52188210D01*
X124232200Y-52196113D01*
X124231409Y-52204871D01*
X124230678Y-52214605D01*
X124229379Y-52237476D01*
X124228271Y-52265681D01*
X124227321Y-52300177D01*
X124226500Y-52341920D01*
X124225775Y-52391865D01*
X124225116Y-52450969D01*
X124223867Y-52600474D01*
X124222502Y-52798083D01*
X124218467Y-53398895D01*
X124179171Y-53329570D01*
X124124496Y-53231996D01*
X124048225Y-53094752D01*
X123956575Y-52929257D01*
X123956707Y-52540156D01*
X123957233Y-52333573D01*
X123959152Y-52206459D01*
X123960883Y-52164369D01*
X123963265Y-52132146D01*
X123966396Y-52106456D01*
X123970377Y-52083966D01*
X123987257Y-52013192D01*
X124008760Y-51944863D01*
X124034728Y-51879138D01*
X124065006Y-51816175D01*
X124099438Y-51756133D01*
X124137869Y-51699171D01*
X124180143Y-51645447D01*
X124226103Y-51595119D01*
X124275595Y-51548346D01*
X124328461Y-51505287D01*
X124384547Y-51466099D01*
X124443696Y-51430943D01*
X124505752Y-51399975D01*
X124570561Y-51373355D01*
X124637965Y-51351242D01*
X124707810Y-51333793D01*
X124716394Y-51332133D01*
X124726061Y-51330580D01*
X124749126Y-51327769D01*
X124777979Y-51325309D01*
X124813591Y-51323150D01*
X124816681Y-51323014D01*
X125570321Y-51323014D01*
X125570321Y-51577204D01*
X125819510Y-51577204D01*
X125928585Y-51576653D01*
X126011301Y-51575023D01*
X126042426Y-51573814D01*
X126066542Y-51572349D01*
X126083510Y-51570631D01*
X126093191Y-51568666D01*
X126093190Y-51568665D01*
X126096769Y-51567350D01*
X126100170Y-51565953D01*
X126103397Y-51564461D01*
X126106453Y-51562861D01*
X126109345Y-51561140D01*
X126112075Y-51559283D01*
X126114648Y-51557278D01*
X126117068Y-51555111D01*
X126119339Y-51552768D01*
X126121466Y-51550237D01*
X126123453Y-51547504D01*
X126125304Y-51544556D01*
X126127023Y-51541378D01*
X126128615Y-51537958D01*
X126130084Y-51534283D01*
X126131434Y-51530338D01*
X126132669Y-51526111D01*
X126133794Y-51521588D01*
X126134813Y-51516755D01*
X126135730Y-51511600D01*
X126136549Y-51506108D01*
X126137274Y-51500267D01*
X126137910Y-51494063D01*
X126138462Y-51487483D01*
X126138932Y-51480512D01*
X126139326Y-51473139D01*
X126139902Y-51457129D01*
X126140222Y-51439345D01*
X126140322Y-51419680D01*
X126140322Y-51323014D01*
X125570321Y-51323014D01*
X124816681Y-51323014D01*
X124856936Y-51321242D01*
X124908985Y-51319535D01*
X124970711Y-51317978D01*
X125043088Y-51316522D01*
X125320816Y-51311460D01*
X125379478Y-51282452D01*
X125396742Y-51273328D01*
X125413240Y-51263418D01*
X125428955Y-51252743D01*
X125443872Y-51241323D01*
X125457975Y-51229180D01*
X125471247Y-51216333D01*
X125483673Y-51202803D01*
X125495238Y-51188612D01*
X125505925Y-51173779D01*
X125515718Y-51158326D01*
X125524603Y-51142272D01*
X125532562Y-51125639D01*
X125539580Y-51108448D01*
X125545641Y-51090719D01*
X125550729Y-51072472D01*
X125554829Y-51053729D01*
X125556546Y-51033601D01*
X125558075Y-50992997D01*
X125560517Y-50854704D01*
X125562055Y-50647538D01*
X125562591Y-50380185D01*
X125562923Y-50029320D01*
X125564640Y-49836488D01*
X125566356Y-49783382D01*
X125568824Y-49750640D01*
X125572179Y-49731883D01*
X125576556Y-49720728D01*
X125577684Y-49718721D01*
X125579034Y-49716622D01*
X125580619Y-49714419D01*
X125582453Y-49712103D01*
X125584548Y-49709665D01*
X125586918Y-49707094D01*
X125592535Y-49701513D01*
X125599410Y-49695280D01*
X125607649Y-49688316D01*
X125617358Y-49680541D01*
X125628644Y-49671875D01*
X125641611Y-49662238D01*
X125656366Y-49651549D01*
X125673015Y-49639728D01*
X125691665Y-49626697D01*
X125712420Y-49612375D01*
X125735387Y-49596681D01*
X125788380Y-49560860D01*
X125986240Y-49427830D01*
X125986240Y-49045976D01*
X125952762Y-49022378D01*
X125943884Y-49015673D01*
X125935584Y-49008500D01*
X125927860Y-49000890D01*
X125920714Y-48992875D01*
X125914144Y-48984486D01*
X125908150Y-48975755D01*
X125902733Y-48966712D01*
X125897892Y-48957389D01*
X125893627Y-48947817D01*
X125889938Y-48938028D01*
X125886824Y-48928053D01*
X125884286Y-48917924D01*
X125882324Y-48907671D01*
X125880937Y-48897326D01*
X125880125Y-48886921D01*
X125879942Y-48878857D01*
X126017467Y-48878857D01*
X126017602Y-48881001D01*
X126017876Y-48883135D01*
X126018289Y-48885255D01*
X126018843Y-48887357D01*
X126019536Y-48889434D01*
X126020369Y-48891482D01*
X126021342Y-48893496D01*
X126022456Y-48895470D01*
X126023711Y-48897401D01*
X126025106Y-48899282D01*
X126026642Y-48901110D01*
X126028319Y-48902878D01*
X126030138Y-48904581D01*
X126032098Y-48906216D01*
X126034199Y-48907776D01*
X126038126Y-48910485D01*
X126041676Y-48912820D01*
X126044898Y-48914780D01*
X126046401Y-48915618D01*
X126047839Y-48916360D01*
X126049220Y-48917007D01*
X126050548Y-48917557D01*
X126051830Y-48918011D01*
X126053072Y-48918367D01*
X126054280Y-48918625D01*
X126055459Y-48918785D01*
X126056617Y-48918847D01*
X126057758Y-48918810D01*
X126058889Y-48918673D01*
X126060016Y-48918436D01*
X126061144Y-48918098D01*
X126062280Y-48917660D01*
X126063430Y-48917120D01*
X126064600Y-48916479D01*
X126065796Y-48915735D01*
X126067023Y-48914889D01*
X126068288Y-48913939D01*
X126069596Y-48912885D01*
X126072369Y-48910465D01*
X126075388Y-48907625D01*
X126078702Y-48904362D01*
X126078700Y-48904362D01*
X126080590Y-48902402D01*
X126082349Y-48900435D01*
X126083977Y-48898462D01*
X126085475Y-48896485D01*
X126086843Y-48894506D01*
X126088080Y-48892525D01*
X126089187Y-48890544D01*
X126090164Y-48888566D01*
X126091010Y-48886592D01*
X126091727Y-48884623D01*
X126092315Y-48882661D01*
X126092772Y-48880707D01*
X126093100Y-48878764D01*
X126093298Y-48876832D01*
X126093367Y-48874913D01*
X126093307Y-48873010D01*
X126093118Y-48871122D01*
X126092799Y-48869254D01*
X126092352Y-48867404D01*
X126091776Y-48865576D01*
X126091071Y-48863771D01*
X126090237Y-48861991D01*
X126089275Y-48860236D01*
X126088184Y-48858509D01*
X126086965Y-48856812D01*
X126085618Y-48855145D01*
X126084143Y-48853511D01*
X126082540Y-48851911D01*
X126080808Y-48850346D01*
X126078949Y-48848819D01*
X126076963Y-48847331D01*
X126074849Y-48845883D01*
X126071672Y-48843828D01*
X126068804Y-48842048D01*
X126066199Y-48840541D01*
X126063814Y-48839308D01*
X126062690Y-48838795D01*
X126061604Y-48838349D01*
X126060552Y-48837973D01*
X126059527Y-48837665D01*
X126058524Y-48837425D01*
X126057537Y-48837254D01*
X126056562Y-48837151D01*
X126055592Y-48837117D01*
X126054622Y-48837151D01*
X126053646Y-48837254D01*
X126052660Y-48837425D01*
X126051657Y-48837665D01*
X126050632Y-48837973D01*
X126049579Y-48838349D01*
X126048494Y-48838795D01*
X126047370Y-48839308D01*
X126044985Y-48840541D01*
X126042380Y-48842048D01*
X126039511Y-48843828D01*
X126036335Y-48845883D01*
X126034127Y-48847414D01*
X126032055Y-48849022D01*
X126030120Y-48850700D01*
X126028321Y-48852445D01*
X126026660Y-48854250D01*
X126025136Y-48856112D01*
X126023749Y-48858025D01*
X126022499Y-48859983D01*
X126021387Y-48861983D01*
X126020413Y-48864019D01*
X126019577Y-48866086D01*
X126018879Y-48868179D01*
X126018319Y-48870292D01*
X126017898Y-48872422D01*
X126017615Y-48874563D01*
X126017472Y-48876709D01*
X126017467Y-48878857D01*
X125879942Y-48878857D01*
X125879888Y-48876486D01*
X125880226Y-48866053D01*
X125881138Y-48855653D01*
X125882625Y-48845318D01*
X125884686Y-48835079D01*
X125887322Y-48824967D01*
X125890531Y-48815014D01*
X125894315Y-48805251D01*
X125898672Y-48795709D01*
X125903603Y-48786420D01*
X125909107Y-48777414D01*
X125915185Y-48768724D01*
X125921836Y-48760380D01*
X125929060Y-48752415D01*
X125936856Y-48744858D01*
X125945226Y-48737742D01*
X125954168Y-48731098D01*
X125959699Y-48727314D01*
X125964799Y-48723963D01*
X125969582Y-48721019D01*
X125974160Y-48718457D01*
X125978647Y-48716251D01*
X125980891Y-48715272D01*
X125983155Y-48714373D01*
X125985453Y-48713549D01*
X125987798Y-48712798D01*
X125990206Y-48712116D01*
X125992689Y-48711500D01*
X125995263Y-48710947D01*
X125997940Y-48710453D01*
X126003666Y-48709630D01*
X126009978Y-48709005D01*
X126016991Y-48708553D01*
X126024816Y-48708247D01*
X126033568Y-48708060D01*
X126054303Y-48707942D01*
X126074439Y-48708072D01*
G37*
D11*
X203836779Y-54869819D02*
X203836779Y-53869819D01*
X204265350Y-53965057D02*
X204312969Y-53917438D01*
X204312969Y-53917438D02*
X204408207Y-53869819D01*
X204408207Y-53869819D02*
X204646302Y-53869819D01*
X204646302Y-53869819D02*
X204741540Y-53917438D01*
X204741540Y-53917438D02*
X204789159Y-53965057D01*
X204789159Y-53965057D02*
X204836778Y-54060295D01*
X204836778Y-54060295D02*
X204836778Y-54155533D01*
X204836778Y-54155533D02*
X204789159Y-54298390D01*
X204789159Y-54298390D02*
X204217731Y-54869819D01*
X204217731Y-54869819D02*
X204836778Y-54869819D01*
X205836778Y-54774580D02*
X205789159Y-54822200D01*
X205789159Y-54822200D02*
X205646302Y-54869819D01*
X205646302Y-54869819D02*
X205551064Y-54869819D01*
X205551064Y-54869819D02*
X205408207Y-54822200D01*
X205408207Y-54822200D02*
X205312969Y-54726961D01*
X205312969Y-54726961D02*
X205265350Y-54631723D01*
X205265350Y-54631723D02*
X205217731Y-54441247D01*
X205217731Y-54441247D02*
X205217731Y-54298390D01*
X205217731Y-54298390D02*
X205265350Y-54107914D01*
X205265350Y-54107914D02*
X205312969Y-54012676D01*
X205312969Y-54012676D02*
X205408207Y-53917438D01*
X205408207Y-53917438D02*
X205551064Y-53869819D01*
X205551064Y-53869819D02*
X205646302Y-53869819D01*
X205646302Y-53869819D02*
X205789159Y-53917438D01*
X205789159Y-53917438D02*
X205836778Y-53965057D01*
X174738095Y-58002438D02*
X174642857Y-57954819D01*
X174642857Y-57954819D02*
X174500000Y-57954819D01*
X174500000Y-57954819D02*
X174357143Y-58002438D01*
X174357143Y-58002438D02*
X174261905Y-58097676D01*
X174261905Y-58097676D02*
X174214286Y-58192914D01*
X174214286Y-58192914D02*
X174166667Y-58383390D01*
X174166667Y-58383390D02*
X174166667Y-58526247D01*
X174166667Y-58526247D02*
X174214286Y-58716723D01*
X174214286Y-58716723D02*
X174261905Y-58811961D01*
X174261905Y-58811961D02*
X174357143Y-58907200D01*
X174357143Y-58907200D02*
X174500000Y-58954819D01*
X174500000Y-58954819D02*
X174595238Y-58954819D01*
X174595238Y-58954819D02*
X174738095Y-58907200D01*
X174738095Y-58907200D02*
X174785714Y-58859580D01*
X174785714Y-58859580D02*
X174785714Y-58526247D01*
X174785714Y-58526247D02*
X174595238Y-58526247D01*
X175214286Y-58954819D02*
X175214286Y-57954819D01*
X175214286Y-57954819D02*
X175785714Y-58954819D01*
X175785714Y-58954819D02*
X175785714Y-57954819D01*
X176261905Y-58954819D02*
X176261905Y-57954819D01*
X176261905Y-57954819D02*
X176500000Y-57954819D01*
X176500000Y-57954819D02*
X176642857Y-58002438D01*
X176642857Y-58002438D02*
X176738095Y-58097676D01*
X176738095Y-58097676D02*
X176785714Y-58192914D01*
X176785714Y-58192914D02*
X176833333Y-58383390D01*
X176833333Y-58383390D02*
X176833333Y-58526247D01*
X176833333Y-58526247D02*
X176785714Y-58716723D01*
X176785714Y-58716723D02*
X176738095Y-58811961D01*
X176738095Y-58811961D02*
X176642857Y-58907200D01*
X176642857Y-58907200D02*
X176500000Y-58954819D01*
X176500000Y-58954819D02*
X176261905Y-58954819D01*
X123138095Y-78502438D02*
X123042857Y-78454819D01*
X123042857Y-78454819D02*
X122900000Y-78454819D01*
X122900000Y-78454819D02*
X122757143Y-78502438D01*
X122757143Y-78502438D02*
X122661905Y-78597676D01*
X122661905Y-78597676D02*
X122614286Y-78692914D01*
X122614286Y-78692914D02*
X122566667Y-78883390D01*
X122566667Y-78883390D02*
X122566667Y-79026247D01*
X122566667Y-79026247D02*
X122614286Y-79216723D01*
X122614286Y-79216723D02*
X122661905Y-79311961D01*
X122661905Y-79311961D02*
X122757143Y-79407200D01*
X122757143Y-79407200D02*
X122900000Y-79454819D01*
X122900000Y-79454819D02*
X122995238Y-79454819D01*
X122995238Y-79454819D02*
X123138095Y-79407200D01*
X123138095Y-79407200D02*
X123185714Y-79359580D01*
X123185714Y-79359580D02*
X123185714Y-79026247D01*
X123185714Y-79026247D02*
X122995238Y-79026247D01*
X123614286Y-79454819D02*
X123614286Y-78454819D01*
X123614286Y-78454819D02*
X124185714Y-79454819D01*
X124185714Y-79454819D02*
X124185714Y-78454819D01*
X124661905Y-79454819D02*
X124661905Y-78454819D01*
X124661905Y-78454819D02*
X124900000Y-78454819D01*
X124900000Y-78454819D02*
X125042857Y-78502438D01*
X125042857Y-78502438D02*
X125138095Y-78597676D01*
X125138095Y-78597676D02*
X125185714Y-78692914D01*
X125185714Y-78692914D02*
X125233333Y-78883390D01*
X125233333Y-78883390D02*
X125233333Y-79026247D01*
X125233333Y-79026247D02*
X125185714Y-79216723D01*
X125185714Y-79216723D02*
X125138095Y-79311961D01*
X125138095Y-79311961D02*
X125042857Y-79407200D01*
X125042857Y-79407200D02*
X124900000Y-79454819D01*
X124900000Y-79454819D02*
X124661905Y-79454819D01*
D12*
X166566888Y-81372419D02*
X167138316Y-81372419D01*
X166852602Y-82372419D02*
X166852602Y-81372419D01*
X167376412Y-81372419D02*
X168043078Y-82372419D01*
X168043078Y-81372419D02*
X167376412Y-82372419D01*
X167045513Y-79780153D02*
X166712180Y-79303962D01*
X166474085Y-79780153D02*
X166474085Y-78780153D01*
X166474085Y-78780153D02*
X166855037Y-78780153D01*
X166855037Y-78780153D02*
X166950275Y-78827772D01*
X166950275Y-78827772D02*
X166997894Y-78875391D01*
X166997894Y-78875391D02*
X167045513Y-78970629D01*
X167045513Y-78970629D02*
X167045513Y-79113486D01*
X167045513Y-79113486D02*
X166997894Y-79208724D01*
X166997894Y-79208724D02*
X166950275Y-79256343D01*
X166950275Y-79256343D02*
X166855037Y-79303962D01*
X166855037Y-79303962D02*
X166474085Y-79303962D01*
X167378847Y-78780153D02*
X168045513Y-79780153D01*
X168045513Y-78780153D02*
X167378847Y-79780153D01*
D11*
X123047619Y-58454819D02*
X123380952Y-59454819D01*
X123380952Y-59454819D02*
X123714285Y-58454819D01*
X124047619Y-59073866D02*
X124809524Y-59073866D01*
X124428571Y-59454819D02*
X124428571Y-58692914D01*
X130452380Y-87454819D02*
X130119047Y-86978628D01*
X129880952Y-87454819D02*
X129880952Y-86454819D01*
X129880952Y-86454819D02*
X130261904Y-86454819D01*
X130261904Y-86454819D02*
X130357142Y-86502438D01*
X130357142Y-86502438D02*
X130404761Y-86550057D01*
X130404761Y-86550057D02*
X130452380Y-86645295D01*
X130452380Y-86645295D02*
X130452380Y-86788152D01*
X130452380Y-86788152D02*
X130404761Y-86883390D01*
X130404761Y-86883390D02*
X130357142Y-86931009D01*
X130357142Y-86931009D02*
X130261904Y-86978628D01*
X130261904Y-86978628D02*
X129880952Y-86978628D01*
X130880952Y-86931009D02*
X131214285Y-86931009D01*
X131357142Y-87454819D02*
X130880952Y-87454819D01*
X130880952Y-87454819D02*
X130880952Y-86454819D01*
X130880952Y-86454819D02*
X131357142Y-86454819D01*
X132119047Y-86931009D02*
X131785714Y-86931009D01*
X131785714Y-87454819D02*
X131785714Y-86454819D01*
X131785714Y-86454819D02*
X132261904Y-86454819D01*
X132642857Y-87073866D02*
X133404762Y-87073866D01*
X133023809Y-87454819D02*
X133023809Y-86692914D01*
X134404761Y-87454819D02*
X133833333Y-87454819D01*
X134119047Y-87454819D02*
X134119047Y-86454819D01*
X134119047Y-86454819D02*
X134023809Y-86597676D01*
X134023809Y-86597676D02*
X133928571Y-86692914D01*
X133928571Y-86692914D02*
X133833333Y-86740533D01*
X134690476Y-86454819D02*
X135023809Y-87454819D01*
X135023809Y-87454819D02*
X135357142Y-86454819D01*
X136119047Y-86454819D02*
X135928571Y-86454819D01*
X135928571Y-86454819D02*
X135833333Y-86502438D01*
X135833333Y-86502438D02*
X135785714Y-86550057D01*
X135785714Y-86550057D02*
X135690476Y-86692914D01*
X135690476Y-86692914D02*
X135642857Y-86883390D01*
X135642857Y-86883390D02*
X135642857Y-87264342D01*
X135642857Y-87264342D02*
X135690476Y-87359580D01*
X135690476Y-87359580D02*
X135738095Y-87407200D01*
X135738095Y-87407200D02*
X135833333Y-87454819D01*
X135833333Y-87454819D02*
X136023809Y-87454819D01*
X136023809Y-87454819D02*
X136119047Y-87407200D01*
X136119047Y-87407200D02*
X136166666Y-87359580D01*
X136166666Y-87359580D02*
X136214285Y-87264342D01*
X136214285Y-87264342D02*
X136214285Y-87026247D01*
X136214285Y-87026247D02*
X136166666Y-86931009D01*
X136166666Y-86931009D02*
X136119047Y-86883390D01*
X136119047Y-86883390D02*
X136023809Y-86835771D01*
X136023809Y-86835771D02*
X135833333Y-86835771D01*
X135833333Y-86835771D02*
X135738095Y-86883390D01*
X135738095Y-86883390D02*
X135690476Y-86931009D01*
X135690476Y-86931009D02*
X135642857Y-87026247D01*
X137119047Y-86454819D02*
X136642857Y-86454819D01*
X136642857Y-86454819D02*
X136595238Y-86931009D01*
X136595238Y-86931009D02*
X136642857Y-86883390D01*
X136642857Y-86883390D02*
X136738095Y-86835771D01*
X136738095Y-86835771D02*
X136976190Y-86835771D01*
X136976190Y-86835771D02*
X137071428Y-86883390D01*
X137071428Y-86883390D02*
X137119047Y-86931009D01*
X137119047Y-86931009D02*
X137166666Y-87026247D01*
X137166666Y-87026247D02*
X137166666Y-87264342D01*
X137166666Y-87264342D02*
X137119047Y-87359580D01*
X137119047Y-87359580D02*
X137071428Y-87407200D01*
X137071428Y-87407200D02*
X136976190Y-87454819D01*
X136976190Y-87454819D02*
X136738095Y-87454819D01*
X136738095Y-87454819D02*
X136642857Y-87407200D01*
X136642857Y-87407200D02*
X136595238Y-87359580D01*
X212416667Y-57204819D02*
X212750000Y-58204819D01*
X212750000Y-58204819D02*
X213083333Y-57204819D01*
X213988095Y-58109580D02*
X213940476Y-58157200D01*
X213940476Y-58157200D02*
X213797619Y-58204819D01*
X213797619Y-58204819D02*
X213702381Y-58204819D01*
X213702381Y-58204819D02*
X213559524Y-58157200D01*
X213559524Y-58157200D02*
X213464286Y-58061961D01*
X213464286Y-58061961D02*
X213416667Y-57966723D01*
X213416667Y-57966723D02*
X213369048Y-57776247D01*
X213369048Y-57776247D02*
X213369048Y-57633390D01*
X213369048Y-57633390D02*
X213416667Y-57442914D01*
X213416667Y-57442914D02*
X213464286Y-57347676D01*
X213464286Y-57347676D02*
X213559524Y-57252438D01*
X213559524Y-57252438D02*
X213702381Y-57204819D01*
X213702381Y-57204819D02*
X213797619Y-57204819D01*
X213797619Y-57204819D02*
X213940476Y-57252438D01*
X213940476Y-57252438D02*
X213988095Y-57300057D01*
X214988095Y-58109580D02*
X214940476Y-58157200D01*
X214940476Y-58157200D02*
X214797619Y-58204819D01*
X214797619Y-58204819D02*
X214702381Y-58204819D01*
X214702381Y-58204819D02*
X214559524Y-58157200D01*
X214559524Y-58157200D02*
X214464286Y-58061961D01*
X214464286Y-58061961D02*
X214416667Y-57966723D01*
X214416667Y-57966723D02*
X214369048Y-57776247D01*
X214369048Y-57776247D02*
X214369048Y-57633390D01*
X214369048Y-57633390D02*
X214416667Y-57442914D01*
X214416667Y-57442914D02*
X214464286Y-57347676D01*
X214464286Y-57347676D02*
X214559524Y-57252438D01*
X214559524Y-57252438D02*
X214702381Y-57204819D01*
X214702381Y-57204819D02*
X214797619Y-57204819D01*
X214797619Y-57204819D02*
X214940476Y-57252438D01*
X214940476Y-57252438D02*
X214988095Y-57300057D01*
X149738095Y-87073866D02*
X150500000Y-87073866D01*
X150119047Y-87454819D02*
X150119047Y-86692914D01*
X150880952Y-86454819D02*
X151499999Y-86454819D01*
X151499999Y-86454819D02*
X151166666Y-86835771D01*
X151166666Y-86835771D02*
X151309523Y-86835771D01*
X151309523Y-86835771D02*
X151404761Y-86883390D01*
X151404761Y-86883390D02*
X151452380Y-86931009D01*
X151452380Y-86931009D02*
X151499999Y-87026247D01*
X151499999Y-87026247D02*
X151499999Y-87264342D01*
X151499999Y-87264342D02*
X151452380Y-87359580D01*
X151452380Y-87359580D02*
X151404761Y-87407200D01*
X151404761Y-87407200D02*
X151309523Y-87454819D01*
X151309523Y-87454819D02*
X151023809Y-87454819D01*
X151023809Y-87454819D02*
X150928571Y-87407200D01*
X150928571Y-87407200D02*
X150880952Y-87359580D01*
X151785714Y-86454819D02*
X152119047Y-87454819D01*
X152119047Y-87454819D02*
X152452380Y-86454819D01*
X152690476Y-86454819D02*
X153309523Y-86454819D01*
X153309523Y-86454819D02*
X152976190Y-86835771D01*
X152976190Y-86835771D02*
X153119047Y-86835771D01*
X153119047Y-86835771D02*
X153214285Y-86883390D01*
X153214285Y-86883390D02*
X153261904Y-86931009D01*
X153261904Y-86931009D02*
X153309523Y-87026247D01*
X153309523Y-87026247D02*
X153309523Y-87264342D01*
X153309523Y-87264342D02*
X153261904Y-87359580D01*
X153261904Y-87359580D02*
X153214285Y-87407200D01*
X153214285Y-87407200D02*
X153119047Y-87454819D01*
X153119047Y-87454819D02*
X152833333Y-87454819D01*
X152833333Y-87454819D02*
X152738095Y-87407200D01*
X152738095Y-87407200D02*
X152690476Y-87359580D01*
D12*
X165903755Y-83928140D02*
X165808517Y-83880521D01*
X165808517Y-83880521D02*
X165665660Y-83880521D01*
X165665660Y-83880521D02*
X165522803Y-83928140D01*
X165522803Y-83928140D02*
X165427565Y-84023378D01*
X165427565Y-84023378D02*
X165379946Y-84118616D01*
X165379946Y-84118616D02*
X165332327Y-84309092D01*
X165332327Y-84309092D02*
X165332327Y-84451949D01*
X165332327Y-84451949D02*
X165379946Y-84642425D01*
X165379946Y-84642425D02*
X165427565Y-84737663D01*
X165427565Y-84737663D02*
X165522803Y-84832902D01*
X165522803Y-84832902D02*
X165665660Y-84880521D01*
X165665660Y-84880521D02*
X165760898Y-84880521D01*
X165760898Y-84880521D02*
X165903755Y-84832902D01*
X165903755Y-84832902D02*
X165951374Y-84785282D01*
X165951374Y-84785282D02*
X165951374Y-84451949D01*
X165951374Y-84451949D02*
X165760898Y-84451949D01*
X166379946Y-84880521D02*
X166379946Y-83880521D01*
X166379946Y-83880521D02*
X166951374Y-84880521D01*
X166951374Y-84880521D02*
X166951374Y-83880521D01*
X167427565Y-84880521D02*
X167427565Y-83880521D01*
X167427565Y-83880521D02*
X167665660Y-83880521D01*
X167665660Y-83880521D02*
X167808517Y-83928140D01*
X167808517Y-83928140D02*
X167903755Y-84023378D01*
X167903755Y-84023378D02*
X167951374Y-84118616D01*
X167951374Y-84118616D02*
X167998993Y-84309092D01*
X167998993Y-84309092D02*
X167998993Y-84451949D01*
X167998993Y-84451949D02*
X167951374Y-84642425D01*
X167951374Y-84642425D02*
X167903755Y-84737663D01*
X167903755Y-84737663D02*
X167808517Y-84832902D01*
X167808517Y-84832902D02*
X167665660Y-84880521D01*
X167665660Y-84880521D02*
X167427565Y-84880521D01*
X185887217Y-65348609D02*
X186030074Y-65396228D01*
X186030074Y-65396228D02*
X186077693Y-65443847D01*
X186077693Y-65443847D02*
X186125312Y-65539085D01*
X186125312Y-65539085D02*
X186125312Y-65681942D01*
X186125312Y-65681942D02*
X186077693Y-65777180D01*
X186077693Y-65777180D02*
X186030074Y-65824800D01*
X186030074Y-65824800D02*
X185934836Y-65872419D01*
X185934836Y-65872419D02*
X185553884Y-65872419D01*
X185553884Y-65872419D02*
X185553884Y-64872419D01*
X185553884Y-64872419D02*
X185887217Y-64872419D01*
X185887217Y-64872419D02*
X185982455Y-64920038D01*
X185982455Y-64920038D02*
X186030074Y-64967657D01*
X186030074Y-64967657D02*
X186077693Y-65062895D01*
X186077693Y-65062895D02*
X186077693Y-65158133D01*
X186077693Y-65158133D02*
X186030074Y-65253371D01*
X186030074Y-65253371D02*
X185982455Y-65300990D01*
X185982455Y-65300990D02*
X185887217Y-65348609D01*
X185887217Y-65348609D02*
X185553884Y-65348609D01*
X186744360Y-64872419D02*
X186934836Y-64872419D01*
X186934836Y-64872419D02*
X187030074Y-64920038D01*
X187030074Y-64920038D02*
X187125312Y-65015276D01*
X187125312Y-65015276D02*
X187172931Y-65205752D01*
X187172931Y-65205752D02*
X187172931Y-65539085D01*
X187172931Y-65539085D02*
X187125312Y-65729561D01*
X187125312Y-65729561D02*
X187030074Y-65824800D01*
X187030074Y-65824800D02*
X186934836Y-65872419D01*
X186934836Y-65872419D02*
X186744360Y-65872419D01*
X186744360Y-65872419D02*
X186649122Y-65824800D01*
X186649122Y-65824800D02*
X186553884Y-65729561D01*
X186553884Y-65729561D02*
X186506265Y-65539085D01*
X186506265Y-65539085D02*
X186506265Y-65205752D01*
X186506265Y-65205752D02*
X186553884Y-65015276D01*
X186553884Y-65015276D02*
X186649122Y-64920038D01*
X186649122Y-64920038D02*
X186744360Y-64872419D01*
X187791979Y-64872419D02*
X187982455Y-64872419D01*
X187982455Y-64872419D02*
X188077693Y-64920038D01*
X188077693Y-64920038D02*
X188172931Y-65015276D01*
X188172931Y-65015276D02*
X188220550Y-65205752D01*
X188220550Y-65205752D02*
X188220550Y-65539085D01*
X188220550Y-65539085D02*
X188172931Y-65729561D01*
X188172931Y-65729561D02*
X188077693Y-65824800D01*
X188077693Y-65824800D02*
X187982455Y-65872419D01*
X187982455Y-65872419D02*
X187791979Y-65872419D01*
X187791979Y-65872419D02*
X187696741Y-65824800D01*
X187696741Y-65824800D02*
X187601503Y-65729561D01*
X187601503Y-65729561D02*
X187553884Y-65539085D01*
X187553884Y-65539085D02*
X187553884Y-65205752D01*
X187553884Y-65205752D02*
X187601503Y-65015276D01*
X187601503Y-65015276D02*
X187696741Y-64920038D01*
X187696741Y-64920038D02*
X187791979Y-64872419D01*
X188506265Y-64872419D02*
X189077693Y-64872419D01*
X188791979Y-65872419D02*
X188791979Y-64872419D01*
D13*
X245054510Y-72800828D02*
X245054510Y-74015114D01*
X245054510Y-74015114D02*
X245125939Y-74157971D01*
X245125939Y-74157971D02*
X245197368Y-74229400D01*
X245197368Y-74229400D02*
X245340225Y-74300828D01*
X245340225Y-74300828D02*
X245625939Y-74300828D01*
X245625939Y-74300828D02*
X245768796Y-74229400D01*
X245768796Y-74229400D02*
X245840225Y-74157971D01*
X245840225Y-74157971D02*
X245911653Y-74015114D01*
X245911653Y-74015114D02*
X245911653Y-72800828D01*
X246554511Y-74229400D02*
X246768797Y-74300828D01*
X246768797Y-74300828D02*
X247125939Y-74300828D01*
X247125939Y-74300828D02*
X247268797Y-74229400D01*
X247268797Y-74229400D02*
X247340225Y-74157971D01*
X247340225Y-74157971D02*
X247411654Y-74015114D01*
X247411654Y-74015114D02*
X247411654Y-73872257D01*
X247411654Y-73872257D02*
X247340225Y-73729400D01*
X247340225Y-73729400D02*
X247268797Y-73657971D01*
X247268797Y-73657971D02*
X247125939Y-73586542D01*
X247125939Y-73586542D02*
X246840225Y-73515114D01*
X246840225Y-73515114D02*
X246697368Y-73443685D01*
X246697368Y-73443685D02*
X246625939Y-73372257D01*
X246625939Y-73372257D02*
X246554511Y-73229400D01*
X246554511Y-73229400D02*
X246554511Y-73086542D01*
X246554511Y-73086542D02*
X246625939Y-72943685D01*
X246625939Y-72943685D02*
X246697368Y-72872257D01*
X246697368Y-72872257D02*
X246840225Y-72800828D01*
X246840225Y-72800828D02*
X247197368Y-72800828D01*
X247197368Y-72800828D02*
X247411654Y-72872257D01*
X248554510Y-73515114D02*
X248768796Y-73586542D01*
X248768796Y-73586542D02*
X248840225Y-73657971D01*
X248840225Y-73657971D02*
X248911653Y-73800828D01*
X248911653Y-73800828D02*
X248911653Y-74015114D01*
X248911653Y-74015114D02*
X248840225Y-74157971D01*
X248840225Y-74157971D02*
X248768796Y-74229400D01*
X248768796Y-74229400D02*
X248625939Y-74300828D01*
X248625939Y-74300828D02*
X248054510Y-74300828D01*
X248054510Y-74300828D02*
X248054510Y-72800828D01*
X248054510Y-72800828D02*
X248554510Y-72800828D01*
X248554510Y-72800828D02*
X248697368Y-72872257D01*
X248697368Y-72872257D02*
X248768796Y-72943685D01*
X248768796Y-72943685D02*
X248840225Y-73086542D01*
X248840225Y-73086542D02*
X248840225Y-73229400D01*
X248840225Y-73229400D02*
X248768796Y-73372257D01*
X248768796Y-73372257D02*
X248697368Y-73443685D01*
X248697368Y-73443685D02*
X248554510Y-73515114D01*
X248554510Y-73515114D02*
X248054510Y-73515114D01*
D11*
X163289160Y-48822200D02*
X163432017Y-48869819D01*
X163432017Y-48869819D02*
X163670112Y-48869819D01*
X163670112Y-48869819D02*
X163765350Y-48822200D01*
X163765350Y-48822200D02*
X163812969Y-48774580D01*
X163812969Y-48774580D02*
X163860588Y-48679342D01*
X163860588Y-48679342D02*
X163860588Y-48584104D01*
X163860588Y-48584104D02*
X163812969Y-48488866D01*
X163812969Y-48488866D02*
X163765350Y-48441247D01*
X163765350Y-48441247D02*
X163670112Y-48393628D01*
X163670112Y-48393628D02*
X163479636Y-48346009D01*
X163479636Y-48346009D02*
X163384398Y-48298390D01*
X163384398Y-48298390D02*
X163336779Y-48250771D01*
X163336779Y-48250771D02*
X163289160Y-48155533D01*
X163289160Y-48155533D02*
X163289160Y-48060295D01*
X163289160Y-48060295D02*
X163336779Y-47965057D01*
X163336779Y-47965057D02*
X163384398Y-47917438D01*
X163384398Y-47917438D02*
X163479636Y-47869819D01*
X163479636Y-47869819D02*
X163717731Y-47869819D01*
X163717731Y-47869819D02*
X163860588Y-47917438D01*
X164289160Y-48869819D02*
X164289160Y-47869819D01*
X164289160Y-47869819D02*
X164527255Y-47869819D01*
X164527255Y-47869819D02*
X164670112Y-47917438D01*
X164670112Y-47917438D02*
X164765350Y-48012676D01*
X164765350Y-48012676D02*
X164812969Y-48107914D01*
X164812969Y-48107914D02*
X164860588Y-48298390D01*
X164860588Y-48298390D02*
X164860588Y-48441247D01*
X164860588Y-48441247D02*
X164812969Y-48631723D01*
X164812969Y-48631723D02*
X164765350Y-48726961D01*
X164765350Y-48726961D02*
X164670112Y-48822200D01*
X164670112Y-48822200D02*
X164527255Y-48869819D01*
X164527255Y-48869819D02*
X164289160Y-48869819D01*
X165289160Y-48869819D02*
X165289160Y-47869819D01*
X166289159Y-48869819D02*
X165717731Y-48869819D01*
X166003445Y-48869819D02*
X166003445Y-47869819D01*
X166003445Y-47869819D02*
X165908207Y-48012676D01*
X165908207Y-48012676D02*
X165812969Y-48107914D01*
X165812969Y-48107914D02*
X165717731Y-48155533D01*
X166670112Y-47965057D02*
X166717731Y-47917438D01*
X166717731Y-47917438D02*
X166812969Y-47869819D01*
X166812969Y-47869819D02*
X167051064Y-47869819D01*
X167051064Y-47869819D02*
X167146302Y-47917438D01*
X167146302Y-47917438D02*
X167193921Y-47965057D01*
X167193921Y-47965057D02*
X167241540Y-48060295D01*
X167241540Y-48060295D02*
X167241540Y-48155533D01*
X167241540Y-48155533D02*
X167193921Y-48298390D01*
X167193921Y-48298390D02*
X166622493Y-48869819D01*
X166622493Y-48869819D02*
X167241540Y-48869819D01*
D12*
X165220256Y-76322550D02*
X165553589Y-77322550D01*
X165553589Y-77322550D02*
X165886922Y-76322550D01*
X166791684Y-77227311D02*
X166744065Y-77274931D01*
X166744065Y-77274931D02*
X166601208Y-77322550D01*
X166601208Y-77322550D02*
X166505970Y-77322550D01*
X166505970Y-77322550D02*
X166363113Y-77274931D01*
X166363113Y-77274931D02*
X166267875Y-77179692D01*
X166267875Y-77179692D02*
X166220256Y-77084454D01*
X166220256Y-77084454D02*
X166172637Y-76893978D01*
X166172637Y-76893978D02*
X166172637Y-76751121D01*
X166172637Y-76751121D02*
X166220256Y-76560645D01*
X166220256Y-76560645D02*
X166267875Y-76465407D01*
X166267875Y-76465407D02*
X166363113Y-76370169D01*
X166363113Y-76370169D02*
X166505970Y-76322550D01*
X166505970Y-76322550D02*
X166601208Y-76322550D01*
X166601208Y-76322550D02*
X166744065Y-76370169D01*
X166744065Y-76370169D02*
X166791684Y-76417788D01*
X167791684Y-77227311D02*
X167744065Y-77274931D01*
X167744065Y-77274931D02*
X167601208Y-77322550D01*
X167601208Y-77322550D02*
X167505970Y-77322550D01*
X167505970Y-77322550D02*
X167363113Y-77274931D01*
X167363113Y-77274931D02*
X167267875Y-77179692D01*
X167267875Y-77179692D02*
X167220256Y-77084454D01*
X167220256Y-77084454D02*
X167172637Y-76893978D01*
X167172637Y-76893978D02*
X167172637Y-76751121D01*
X167172637Y-76751121D02*
X167220256Y-76560645D01*
X167220256Y-76560645D02*
X167267875Y-76465407D01*
X167267875Y-76465407D02*
X167363113Y-76370169D01*
X167363113Y-76370169D02*
X167505970Y-76322550D01*
X167505970Y-76322550D02*
X167601208Y-76322550D01*
X167601208Y-76322550D02*
X167744065Y-76370169D01*
X167744065Y-76370169D02*
X167791684Y-76417788D01*
D11*
X179166667Y-57954819D02*
X179500000Y-58954819D01*
X179500000Y-58954819D02*
X179833333Y-57954819D01*
X180738095Y-58859580D02*
X180690476Y-58907200D01*
X180690476Y-58907200D02*
X180547619Y-58954819D01*
X180547619Y-58954819D02*
X180452381Y-58954819D01*
X180452381Y-58954819D02*
X180309524Y-58907200D01*
X180309524Y-58907200D02*
X180214286Y-58811961D01*
X180214286Y-58811961D02*
X180166667Y-58716723D01*
X180166667Y-58716723D02*
X180119048Y-58526247D01*
X180119048Y-58526247D02*
X180119048Y-58383390D01*
X180119048Y-58383390D02*
X180166667Y-58192914D01*
X180166667Y-58192914D02*
X180214286Y-58097676D01*
X180214286Y-58097676D02*
X180309524Y-58002438D01*
X180309524Y-58002438D02*
X180452381Y-57954819D01*
X180452381Y-57954819D02*
X180547619Y-57954819D01*
X180547619Y-57954819D02*
X180690476Y-58002438D01*
X180690476Y-58002438D02*
X180738095Y-58050057D01*
X181738095Y-58859580D02*
X181690476Y-58907200D01*
X181690476Y-58907200D02*
X181547619Y-58954819D01*
X181547619Y-58954819D02*
X181452381Y-58954819D01*
X181452381Y-58954819D02*
X181309524Y-58907200D01*
X181309524Y-58907200D02*
X181214286Y-58811961D01*
X181214286Y-58811961D02*
X181166667Y-58716723D01*
X181166667Y-58716723D02*
X181119048Y-58526247D01*
X181119048Y-58526247D02*
X181119048Y-58383390D01*
X181119048Y-58383390D02*
X181166667Y-58192914D01*
X181166667Y-58192914D02*
X181214286Y-58097676D01*
X181214286Y-58097676D02*
X181309524Y-58002438D01*
X181309524Y-58002438D02*
X181452381Y-57954819D01*
X181452381Y-57954819D02*
X181547619Y-57954819D01*
X181547619Y-57954819D02*
X181690476Y-58002438D01*
X181690476Y-58002438D02*
X181738095Y-58050057D01*
X123280953Y-69454819D02*
X123280953Y-68454819D01*
X123757143Y-69073866D02*
X124519048Y-69073866D01*
X124138095Y-69454819D02*
X124138095Y-68692914D01*
D13*
X245554510Y-57515114D02*
X245768796Y-57586542D01*
X245768796Y-57586542D02*
X245840225Y-57657971D01*
X245840225Y-57657971D02*
X245911653Y-57800828D01*
X245911653Y-57800828D02*
X245911653Y-58015114D01*
X245911653Y-58015114D02*
X245840225Y-58157971D01*
X245840225Y-58157971D02*
X245768796Y-58229400D01*
X245768796Y-58229400D02*
X245625939Y-58300828D01*
X245625939Y-58300828D02*
X245054510Y-58300828D01*
X245054510Y-58300828D02*
X245054510Y-56800828D01*
X245054510Y-56800828D02*
X245554510Y-56800828D01*
X245554510Y-56800828D02*
X245697368Y-56872257D01*
X245697368Y-56872257D02*
X245768796Y-56943685D01*
X245768796Y-56943685D02*
X245840225Y-57086542D01*
X245840225Y-57086542D02*
X245840225Y-57229400D01*
X245840225Y-57229400D02*
X245768796Y-57372257D01*
X245768796Y-57372257D02*
X245697368Y-57443685D01*
X245697368Y-57443685D02*
X245554510Y-57515114D01*
X245554510Y-57515114D02*
X245054510Y-57515114D01*
X246483082Y-57872257D02*
X247197368Y-57872257D01*
X246340225Y-58300828D02*
X246840225Y-56800828D01*
X246840225Y-56800828D02*
X247340225Y-58300828D01*
X247625939Y-56800828D02*
X248483082Y-56800828D01*
X248054510Y-58300828D02*
X248054510Y-56800828D01*
D11*
X157671503Y-89556286D02*
X158433408Y-89556286D01*
X158814360Y-88937239D02*
X159433407Y-88937239D01*
X159433407Y-88937239D02*
X159100074Y-89318191D01*
X159100074Y-89318191D02*
X159242931Y-89318191D01*
X159242931Y-89318191D02*
X159338169Y-89365810D01*
X159338169Y-89365810D02*
X159385788Y-89413429D01*
X159385788Y-89413429D02*
X159433407Y-89508667D01*
X159433407Y-89508667D02*
X159433407Y-89746762D01*
X159433407Y-89746762D02*
X159385788Y-89842000D01*
X159385788Y-89842000D02*
X159338169Y-89889620D01*
X159338169Y-89889620D02*
X159242931Y-89937239D01*
X159242931Y-89937239D02*
X158957217Y-89937239D01*
X158957217Y-89937239D02*
X158861979Y-89889620D01*
X158861979Y-89889620D02*
X158814360Y-89842000D01*
X159719122Y-88937239D02*
X160052455Y-89937239D01*
X160052455Y-89937239D02*
X160385788Y-88937239D01*
X160623884Y-88937239D02*
X161242931Y-88937239D01*
X161242931Y-88937239D02*
X160909598Y-89318191D01*
X160909598Y-89318191D02*
X161052455Y-89318191D01*
X161052455Y-89318191D02*
X161147693Y-89365810D01*
X161147693Y-89365810D02*
X161195312Y-89413429D01*
X161195312Y-89413429D02*
X161242931Y-89508667D01*
X161242931Y-89508667D02*
X161242931Y-89746762D01*
X161242931Y-89746762D02*
X161195312Y-89842000D01*
X161195312Y-89842000D02*
X161147693Y-89889620D01*
X161147693Y-89889620D02*
X161052455Y-89937239D01*
X161052455Y-89937239D02*
X160766741Y-89937239D01*
X160766741Y-89937239D02*
X160671503Y-89889620D01*
X160671503Y-89889620D02*
X160623884Y-89842000D01*
X170047619Y-58954819D02*
X170047619Y-57954819D01*
X170047619Y-57954819D02*
X170285714Y-57954819D01*
X170285714Y-57954819D02*
X170428571Y-58002438D01*
X170428571Y-58002438D02*
X170523809Y-58097676D01*
X170523809Y-58097676D02*
X170571428Y-58192914D01*
X170571428Y-58192914D02*
X170619047Y-58383390D01*
X170619047Y-58383390D02*
X170619047Y-58526247D01*
X170619047Y-58526247D02*
X170571428Y-58716723D01*
X170571428Y-58716723D02*
X170523809Y-58811961D01*
X170523809Y-58811961D02*
X170428571Y-58907200D01*
X170428571Y-58907200D02*
X170285714Y-58954819D01*
X170285714Y-58954819D02*
X170047619Y-58954819D01*
X171476190Y-58954819D02*
X171476190Y-58431009D01*
X171476190Y-58431009D02*
X171428571Y-58335771D01*
X171428571Y-58335771D02*
X171333333Y-58288152D01*
X171333333Y-58288152D02*
X171142857Y-58288152D01*
X171142857Y-58288152D02*
X171047619Y-58335771D01*
X171476190Y-58907200D02*
X171380952Y-58954819D01*
X171380952Y-58954819D02*
X171142857Y-58954819D01*
X171142857Y-58954819D02*
X171047619Y-58907200D01*
X171047619Y-58907200D02*
X171000000Y-58811961D01*
X171000000Y-58811961D02*
X171000000Y-58716723D01*
X171000000Y-58716723D02*
X171047619Y-58621485D01*
X171047619Y-58621485D02*
X171142857Y-58573866D01*
X171142857Y-58573866D02*
X171380952Y-58573866D01*
X171380952Y-58573866D02*
X171476190Y-58526247D01*
X171809524Y-58288152D02*
X172190476Y-58288152D01*
X171952381Y-57954819D02*
X171952381Y-58811961D01*
X171952381Y-58811961D02*
X172000000Y-58907200D01*
X172000000Y-58907200D02*
X172095238Y-58954819D01*
X172095238Y-58954819D02*
X172190476Y-58954819D01*
X172952381Y-58954819D02*
X172952381Y-58431009D01*
X172952381Y-58431009D02*
X172904762Y-58335771D01*
X172904762Y-58335771D02*
X172809524Y-58288152D01*
X172809524Y-58288152D02*
X172619048Y-58288152D01*
X172619048Y-58288152D02*
X172523810Y-58335771D01*
X172952381Y-58907200D02*
X172857143Y-58954819D01*
X172857143Y-58954819D02*
X172619048Y-58954819D01*
X172619048Y-58954819D02*
X172523810Y-58907200D01*
X172523810Y-58907200D02*
X172476191Y-58811961D01*
X172476191Y-58811961D02*
X172476191Y-58716723D01*
X172476191Y-58716723D02*
X172523810Y-58621485D01*
X172523810Y-58621485D02*
X172619048Y-58573866D01*
X172619048Y-58573866D02*
X172857143Y-58573866D01*
X172857143Y-58573866D02*
X172952381Y-58526247D01*
D12*
X201875312Y-65622419D02*
X201541979Y-65146228D01*
X201303884Y-65622419D02*
X201303884Y-64622419D01*
X201303884Y-64622419D02*
X201684836Y-64622419D01*
X201684836Y-64622419D02*
X201780074Y-64670038D01*
X201780074Y-64670038D02*
X201827693Y-64717657D01*
X201827693Y-64717657D02*
X201875312Y-64812895D01*
X201875312Y-64812895D02*
X201875312Y-64955752D01*
X201875312Y-64955752D02*
X201827693Y-65050990D01*
X201827693Y-65050990D02*
X201780074Y-65098609D01*
X201780074Y-65098609D02*
X201684836Y-65146228D01*
X201684836Y-65146228D02*
X201303884Y-65146228D01*
X202256265Y-65574800D02*
X202399122Y-65622419D01*
X202399122Y-65622419D02*
X202637217Y-65622419D01*
X202637217Y-65622419D02*
X202732455Y-65574800D01*
X202732455Y-65574800D02*
X202780074Y-65527180D01*
X202780074Y-65527180D02*
X202827693Y-65431942D01*
X202827693Y-65431942D02*
X202827693Y-65336704D01*
X202827693Y-65336704D02*
X202780074Y-65241466D01*
X202780074Y-65241466D02*
X202732455Y-65193847D01*
X202732455Y-65193847D02*
X202637217Y-65146228D01*
X202637217Y-65146228D02*
X202446741Y-65098609D01*
X202446741Y-65098609D02*
X202351503Y-65050990D01*
X202351503Y-65050990D02*
X202303884Y-65003371D01*
X202303884Y-65003371D02*
X202256265Y-64908133D01*
X202256265Y-64908133D02*
X202256265Y-64812895D01*
X202256265Y-64812895D02*
X202303884Y-64717657D01*
X202303884Y-64717657D02*
X202351503Y-64670038D01*
X202351503Y-64670038D02*
X202446741Y-64622419D01*
X202446741Y-64622419D02*
X202684836Y-64622419D01*
X202684836Y-64622419D02*
X202827693Y-64670038D01*
X203113408Y-64622419D02*
X203684836Y-64622419D01*
X203399122Y-65622419D02*
X203399122Y-64622419D01*
D11*
X123280953Y-74454819D02*
X123280953Y-73454819D01*
X123757143Y-74073866D02*
X124519048Y-74073866D01*
X139928571Y-89954819D02*
X139595238Y-89478628D01*
X139357143Y-89954819D02*
X139357143Y-88954819D01*
X139357143Y-88954819D02*
X139738095Y-88954819D01*
X139738095Y-88954819D02*
X139833333Y-89002438D01*
X139833333Y-89002438D02*
X139880952Y-89050057D01*
X139880952Y-89050057D02*
X139928571Y-89145295D01*
X139928571Y-89145295D02*
X139928571Y-89288152D01*
X139928571Y-89288152D02*
X139880952Y-89383390D01*
X139880952Y-89383390D02*
X139833333Y-89431009D01*
X139833333Y-89431009D02*
X139738095Y-89478628D01*
X139738095Y-89478628D02*
X139357143Y-89478628D01*
X140357143Y-89431009D02*
X140690476Y-89431009D01*
X140833333Y-89954819D02*
X140357143Y-89954819D01*
X140357143Y-89954819D02*
X140357143Y-88954819D01*
X140357143Y-88954819D02*
X140833333Y-88954819D01*
X141595238Y-89431009D02*
X141261905Y-89431009D01*
X141261905Y-89954819D02*
X141261905Y-88954819D01*
X141261905Y-88954819D02*
X141738095Y-88954819D01*
X142119048Y-89573866D02*
X142880953Y-89573866D01*
X142500000Y-89954819D02*
X142500000Y-89192914D01*
X143261905Y-88954819D02*
X143880952Y-88954819D01*
X143880952Y-88954819D02*
X143547619Y-89335771D01*
X143547619Y-89335771D02*
X143690476Y-89335771D01*
X143690476Y-89335771D02*
X143785714Y-89383390D01*
X143785714Y-89383390D02*
X143833333Y-89431009D01*
X143833333Y-89431009D02*
X143880952Y-89526247D01*
X143880952Y-89526247D02*
X143880952Y-89764342D01*
X143880952Y-89764342D02*
X143833333Y-89859580D01*
X143833333Y-89859580D02*
X143785714Y-89907200D01*
X143785714Y-89907200D02*
X143690476Y-89954819D01*
X143690476Y-89954819D02*
X143404762Y-89954819D01*
X143404762Y-89954819D02*
X143309524Y-89907200D01*
X143309524Y-89907200D02*
X143261905Y-89859580D01*
X144166667Y-88954819D02*
X144500000Y-89954819D01*
X144500000Y-89954819D02*
X144833333Y-88954819D01*
X145071429Y-88954819D02*
X145690476Y-88954819D01*
X145690476Y-88954819D02*
X145357143Y-89335771D01*
X145357143Y-89335771D02*
X145500000Y-89335771D01*
X145500000Y-89335771D02*
X145595238Y-89383390D01*
X145595238Y-89383390D02*
X145642857Y-89431009D01*
X145642857Y-89431009D02*
X145690476Y-89526247D01*
X145690476Y-89526247D02*
X145690476Y-89764342D01*
X145690476Y-89764342D02*
X145642857Y-89859580D01*
X145642857Y-89859580D02*
X145595238Y-89907200D01*
X145595238Y-89907200D02*
X145500000Y-89954819D01*
X145500000Y-89954819D02*
X145214286Y-89954819D01*
X145214286Y-89954819D02*
X145119048Y-89907200D01*
X145119048Y-89907200D02*
X145071429Y-89859580D01*
X122947619Y-63454819D02*
X123280952Y-64454819D01*
X123280952Y-64454819D02*
X123614285Y-63454819D01*
X123947619Y-64073866D02*
X124709524Y-64073866D01*
X115289160Y-83084104D02*
X115765350Y-83084104D01*
X115193922Y-83369819D02*
X115527255Y-82369819D01*
X115527255Y-82369819D02*
X115860588Y-83369819D01*
X116193922Y-82703152D02*
X116193922Y-83369819D01*
X116193922Y-82798390D02*
X116241541Y-82750771D01*
X116241541Y-82750771D02*
X116336779Y-82703152D01*
X116336779Y-82703152D02*
X116479636Y-82703152D01*
X116479636Y-82703152D02*
X116574874Y-82750771D01*
X116574874Y-82750771D02*
X116622493Y-82846009D01*
X116622493Y-82846009D02*
X116622493Y-83369819D01*
X117527255Y-83369819D02*
X117527255Y-82846009D01*
X117527255Y-82846009D02*
X117479636Y-82750771D01*
X117479636Y-82750771D02*
X117384398Y-82703152D01*
X117384398Y-82703152D02*
X117193922Y-82703152D01*
X117193922Y-82703152D02*
X117098684Y-82750771D01*
X117527255Y-83322200D02*
X117432017Y-83369819D01*
X117432017Y-83369819D02*
X117193922Y-83369819D01*
X117193922Y-83369819D02*
X117098684Y-83322200D01*
X117098684Y-83322200D02*
X117051065Y-83226961D01*
X117051065Y-83226961D02*
X117051065Y-83131723D01*
X117051065Y-83131723D02*
X117098684Y-83036485D01*
X117098684Y-83036485D02*
X117193922Y-82988866D01*
X117193922Y-82988866D02*
X117432017Y-82988866D01*
X117432017Y-82988866D02*
X117527255Y-82941247D01*
X118146303Y-83369819D02*
X118051065Y-83322200D01*
X118051065Y-83322200D02*
X118003446Y-83226961D01*
X118003446Y-83226961D02*
X118003446Y-82369819D01*
X118670113Y-83369819D02*
X118574875Y-83322200D01*
X118574875Y-83322200D02*
X118527256Y-83274580D01*
X118527256Y-83274580D02*
X118479637Y-83179342D01*
X118479637Y-83179342D02*
X118479637Y-82893628D01*
X118479637Y-82893628D02*
X118527256Y-82798390D01*
X118527256Y-82798390D02*
X118574875Y-82750771D01*
X118574875Y-82750771D02*
X118670113Y-82703152D01*
X118670113Y-82703152D02*
X118812970Y-82703152D01*
X118812970Y-82703152D02*
X118908208Y-82750771D01*
X118908208Y-82750771D02*
X118955827Y-82798390D01*
X118955827Y-82798390D02*
X119003446Y-82893628D01*
X119003446Y-82893628D02*
X119003446Y-83179342D01*
X119003446Y-83179342D02*
X118955827Y-83274580D01*
X118955827Y-83274580D02*
X118908208Y-83322200D01*
X118908208Y-83322200D02*
X118812970Y-83369819D01*
X118812970Y-83369819D02*
X118670113Y-83369819D01*
X119860589Y-82703152D02*
X119860589Y-83512676D01*
X119860589Y-83512676D02*
X119812970Y-83607914D01*
X119812970Y-83607914D02*
X119765351Y-83655533D01*
X119765351Y-83655533D02*
X119670113Y-83703152D01*
X119670113Y-83703152D02*
X119527256Y-83703152D01*
X119527256Y-83703152D02*
X119432018Y-83655533D01*
X119860589Y-83322200D02*
X119765351Y-83369819D01*
X119765351Y-83369819D02*
X119574875Y-83369819D01*
X119574875Y-83369819D02*
X119479637Y-83322200D01*
X119479637Y-83322200D02*
X119432018Y-83274580D01*
X119432018Y-83274580D02*
X119384399Y-83179342D01*
X119384399Y-83179342D02*
X119384399Y-82893628D01*
X119384399Y-82893628D02*
X119432018Y-82798390D01*
X119432018Y-82798390D02*
X119479637Y-82750771D01*
X119479637Y-82750771D02*
X119574875Y-82703152D01*
X119574875Y-82703152D02*
X119765351Y-82703152D01*
X119765351Y-82703152D02*
X119860589Y-82750771D01*
X212488095Y-52454819D02*
X213059523Y-52454819D01*
X212773809Y-53454819D02*
X212773809Y-52454819D01*
X213392857Y-53454819D02*
X213392857Y-52454819D01*
X213392857Y-52454819D02*
X213773809Y-52454819D01*
X213773809Y-52454819D02*
X213869047Y-52502438D01*
X213869047Y-52502438D02*
X213916666Y-52550057D01*
X213916666Y-52550057D02*
X213964285Y-52645295D01*
X213964285Y-52645295D02*
X213964285Y-52788152D01*
X213964285Y-52788152D02*
X213916666Y-52883390D01*
X213916666Y-52883390D02*
X213869047Y-52931009D01*
X213869047Y-52931009D02*
X213773809Y-52978628D01*
X213773809Y-52978628D02*
X213392857Y-52978628D01*
X214869047Y-52454819D02*
X214392857Y-52454819D01*
X214392857Y-52454819D02*
X214345238Y-52931009D01*
X214345238Y-52931009D02*
X214392857Y-52883390D01*
X214392857Y-52883390D02*
X214488095Y-52835771D01*
X214488095Y-52835771D02*
X214726190Y-52835771D01*
X214726190Y-52835771D02*
X214821428Y-52883390D01*
X214821428Y-52883390D02*
X214869047Y-52931009D01*
X214869047Y-52931009D02*
X214916666Y-53026247D01*
X214916666Y-53026247D02*
X214916666Y-53264342D01*
X214916666Y-53264342D02*
X214869047Y-53359580D01*
X214869047Y-53359580D02*
X214821428Y-53407200D01*
X214821428Y-53407200D02*
X214726190Y-53454819D01*
X214726190Y-53454819D02*
X214488095Y-53454819D01*
X214488095Y-53454819D02*
X214392857Y-53407200D01*
X214392857Y-53407200D02*
X214345238Y-53359580D01*
X150333333Y-56024819D02*
X150000000Y-55548628D01*
X149761905Y-56024819D02*
X149761905Y-55024819D01*
X149761905Y-55024819D02*
X150142857Y-55024819D01*
X150142857Y-55024819D02*
X150238095Y-55072438D01*
X150238095Y-55072438D02*
X150285714Y-55120057D01*
X150285714Y-55120057D02*
X150333333Y-55215295D01*
X150333333Y-55215295D02*
X150333333Y-55358152D01*
X150333333Y-55358152D02*
X150285714Y-55453390D01*
X150285714Y-55453390D02*
X150238095Y-55501009D01*
X150238095Y-55501009D02*
X150142857Y-55548628D01*
X150142857Y-55548628D02*
X149761905Y-55548628D01*
X150666667Y-55024819D02*
X151333333Y-55024819D01*
X151333333Y-55024819D02*
X150904762Y-56024819D01*
X212488095Y-47204819D02*
X213059523Y-47204819D01*
X212773809Y-48204819D02*
X212773809Y-47204819D01*
X213392857Y-48204819D02*
X213392857Y-47204819D01*
X213392857Y-47204819D02*
X213773809Y-47204819D01*
X213773809Y-47204819D02*
X213869047Y-47252438D01*
X213869047Y-47252438D02*
X213916666Y-47300057D01*
X213916666Y-47300057D02*
X213964285Y-47395295D01*
X213964285Y-47395295D02*
X213964285Y-47538152D01*
X213964285Y-47538152D02*
X213916666Y-47633390D01*
X213916666Y-47633390D02*
X213869047Y-47681009D01*
X213869047Y-47681009D02*
X213773809Y-47728628D01*
X213773809Y-47728628D02*
X213392857Y-47728628D01*
X214821428Y-47204819D02*
X214630952Y-47204819D01*
X214630952Y-47204819D02*
X214535714Y-47252438D01*
X214535714Y-47252438D02*
X214488095Y-47300057D01*
X214488095Y-47300057D02*
X214392857Y-47442914D01*
X214392857Y-47442914D02*
X214345238Y-47633390D01*
X214345238Y-47633390D02*
X214345238Y-48014342D01*
X214345238Y-48014342D02*
X214392857Y-48109580D01*
X214392857Y-48109580D02*
X214440476Y-48157200D01*
X214440476Y-48157200D02*
X214535714Y-48204819D01*
X214535714Y-48204819D02*
X214726190Y-48204819D01*
X214726190Y-48204819D02*
X214821428Y-48157200D01*
X214821428Y-48157200D02*
X214869047Y-48109580D01*
X214869047Y-48109580D02*
X214916666Y-48014342D01*
X214916666Y-48014342D02*
X214916666Y-47776247D01*
X214916666Y-47776247D02*
X214869047Y-47681009D01*
X214869047Y-47681009D02*
X214821428Y-47633390D01*
X214821428Y-47633390D02*
X214726190Y-47585771D01*
X214726190Y-47585771D02*
X214535714Y-47585771D01*
X214535714Y-47585771D02*
X214440476Y-47633390D01*
X214440476Y-47633390D02*
X214392857Y-47681009D01*
X214392857Y-47681009D02*
X214345238Y-47776247D01*
X160333333Y-66359580D02*
X160285714Y-66407200D01*
X160285714Y-66407200D02*
X160142857Y-66454819D01*
X160142857Y-66454819D02*
X160047619Y-66454819D01*
X160047619Y-66454819D02*
X159904762Y-66407200D01*
X159904762Y-66407200D02*
X159809524Y-66311961D01*
X159809524Y-66311961D02*
X159761905Y-66216723D01*
X159761905Y-66216723D02*
X159714286Y-66026247D01*
X159714286Y-66026247D02*
X159714286Y-65883390D01*
X159714286Y-65883390D02*
X159761905Y-65692914D01*
X159761905Y-65692914D02*
X159809524Y-65597676D01*
X159809524Y-65597676D02*
X159904762Y-65502438D01*
X159904762Y-65502438D02*
X160047619Y-65454819D01*
X160047619Y-65454819D02*
X160142857Y-65454819D01*
X160142857Y-65454819D02*
X160285714Y-65502438D01*
X160285714Y-65502438D02*
X160333333Y-65550057D01*
X160809524Y-66454819D02*
X161000000Y-66454819D01*
X161000000Y-66454819D02*
X161095238Y-66407200D01*
X161095238Y-66407200D02*
X161142857Y-66359580D01*
X161142857Y-66359580D02*
X161238095Y-66216723D01*
X161238095Y-66216723D02*
X161285714Y-66026247D01*
X161285714Y-66026247D02*
X161285714Y-65645295D01*
X161285714Y-65645295D02*
X161238095Y-65550057D01*
X161238095Y-65550057D02*
X161190476Y-65502438D01*
X161190476Y-65502438D02*
X161095238Y-65454819D01*
X161095238Y-65454819D02*
X160904762Y-65454819D01*
X160904762Y-65454819D02*
X160809524Y-65502438D01*
X160809524Y-65502438D02*
X160761905Y-65550057D01*
X160761905Y-65550057D02*
X160714286Y-65645295D01*
X160714286Y-65645295D02*
X160714286Y-65883390D01*
X160714286Y-65883390D02*
X160761905Y-65978628D01*
X160761905Y-65978628D02*
X160809524Y-66026247D01*
X160809524Y-66026247D02*
X160904762Y-66073866D01*
X160904762Y-66073866D02*
X161095238Y-66073866D01*
X161095238Y-66073866D02*
X161190476Y-66026247D01*
X161190476Y-66026247D02*
X161238095Y-65978628D01*
X161238095Y-65978628D02*
X161285714Y-65883390D01*
X151833333Y-72859580D02*
X151785714Y-72907200D01*
X151785714Y-72907200D02*
X151642857Y-72954819D01*
X151642857Y-72954819D02*
X151547619Y-72954819D01*
X151547619Y-72954819D02*
X151404762Y-72907200D01*
X151404762Y-72907200D02*
X151309524Y-72811961D01*
X151309524Y-72811961D02*
X151261905Y-72716723D01*
X151261905Y-72716723D02*
X151214286Y-72526247D01*
X151214286Y-72526247D02*
X151214286Y-72383390D01*
X151214286Y-72383390D02*
X151261905Y-72192914D01*
X151261905Y-72192914D02*
X151309524Y-72097676D01*
X151309524Y-72097676D02*
X151404762Y-72002438D01*
X151404762Y-72002438D02*
X151547619Y-71954819D01*
X151547619Y-71954819D02*
X151642857Y-71954819D01*
X151642857Y-71954819D02*
X151785714Y-72002438D01*
X151785714Y-72002438D02*
X151833333Y-72050057D01*
X152690476Y-72288152D02*
X152690476Y-72954819D01*
X152452381Y-71907200D02*
X152214286Y-72621485D01*
X152214286Y-72621485D02*
X152833333Y-72621485D01*
X151833333Y-76359580D02*
X151785714Y-76407200D01*
X151785714Y-76407200D02*
X151642857Y-76454819D01*
X151642857Y-76454819D02*
X151547619Y-76454819D01*
X151547619Y-76454819D02*
X151404762Y-76407200D01*
X151404762Y-76407200D02*
X151309524Y-76311961D01*
X151309524Y-76311961D02*
X151261905Y-76216723D01*
X151261905Y-76216723D02*
X151214286Y-76026247D01*
X151214286Y-76026247D02*
X151214286Y-75883390D01*
X151214286Y-75883390D02*
X151261905Y-75692914D01*
X151261905Y-75692914D02*
X151309524Y-75597676D01*
X151309524Y-75597676D02*
X151404762Y-75502438D01*
X151404762Y-75502438D02*
X151547619Y-75454819D01*
X151547619Y-75454819D02*
X151642857Y-75454819D01*
X151642857Y-75454819D02*
X151785714Y-75502438D01*
X151785714Y-75502438D02*
X151833333Y-75550057D01*
X152738095Y-75454819D02*
X152261905Y-75454819D01*
X152261905Y-75454819D02*
X152214286Y-75931009D01*
X152214286Y-75931009D02*
X152261905Y-75883390D01*
X152261905Y-75883390D02*
X152357143Y-75835771D01*
X152357143Y-75835771D02*
X152595238Y-75835771D01*
X152595238Y-75835771D02*
X152690476Y-75883390D01*
X152690476Y-75883390D02*
X152738095Y-75931009D01*
X152738095Y-75931009D02*
X152785714Y-76026247D01*
X152785714Y-76026247D02*
X152785714Y-76264342D01*
X152785714Y-76264342D02*
X152738095Y-76359580D01*
X152738095Y-76359580D02*
X152690476Y-76407200D01*
X152690476Y-76407200D02*
X152595238Y-76454819D01*
X152595238Y-76454819D02*
X152357143Y-76454819D01*
X152357143Y-76454819D02*
X152261905Y-76407200D01*
X152261905Y-76407200D02*
X152214286Y-76359580D01*
X159683333Y-52359580D02*
X159635714Y-52407200D01*
X159635714Y-52407200D02*
X159492857Y-52454819D01*
X159492857Y-52454819D02*
X159397619Y-52454819D01*
X159397619Y-52454819D02*
X159254762Y-52407200D01*
X159254762Y-52407200D02*
X159159524Y-52311961D01*
X159159524Y-52311961D02*
X159111905Y-52216723D01*
X159111905Y-52216723D02*
X159064286Y-52026247D01*
X159064286Y-52026247D02*
X159064286Y-51883390D01*
X159064286Y-51883390D02*
X159111905Y-51692914D01*
X159111905Y-51692914D02*
X159159524Y-51597676D01*
X159159524Y-51597676D02*
X159254762Y-51502438D01*
X159254762Y-51502438D02*
X159397619Y-51454819D01*
X159397619Y-51454819D02*
X159492857Y-51454819D01*
X159492857Y-51454819D02*
X159635714Y-51502438D01*
X159635714Y-51502438D02*
X159683333Y-51550057D01*
X160254762Y-51883390D02*
X160159524Y-51835771D01*
X160159524Y-51835771D02*
X160111905Y-51788152D01*
X160111905Y-51788152D02*
X160064286Y-51692914D01*
X160064286Y-51692914D02*
X160064286Y-51645295D01*
X160064286Y-51645295D02*
X160111905Y-51550057D01*
X160111905Y-51550057D02*
X160159524Y-51502438D01*
X160159524Y-51502438D02*
X160254762Y-51454819D01*
X160254762Y-51454819D02*
X160445238Y-51454819D01*
X160445238Y-51454819D02*
X160540476Y-51502438D01*
X160540476Y-51502438D02*
X160588095Y-51550057D01*
X160588095Y-51550057D02*
X160635714Y-51645295D01*
X160635714Y-51645295D02*
X160635714Y-51692914D01*
X160635714Y-51692914D02*
X160588095Y-51788152D01*
X160588095Y-51788152D02*
X160540476Y-51835771D01*
X160540476Y-51835771D02*
X160445238Y-51883390D01*
X160445238Y-51883390D02*
X160254762Y-51883390D01*
X160254762Y-51883390D02*
X160159524Y-51931009D01*
X160159524Y-51931009D02*
X160111905Y-51978628D01*
X160111905Y-51978628D02*
X160064286Y-52073866D01*
X160064286Y-52073866D02*
X160064286Y-52264342D01*
X160064286Y-52264342D02*
X160111905Y-52359580D01*
X160111905Y-52359580D02*
X160159524Y-52407200D01*
X160159524Y-52407200D02*
X160254762Y-52454819D01*
X160254762Y-52454819D02*
X160445238Y-52454819D01*
X160445238Y-52454819D02*
X160540476Y-52407200D01*
X160540476Y-52407200D02*
X160588095Y-52359580D01*
X160588095Y-52359580D02*
X160635714Y-52264342D01*
X160635714Y-52264342D02*
X160635714Y-52073866D01*
X160635714Y-52073866D02*
X160588095Y-51978628D01*
X160588095Y-51978628D02*
X160540476Y-51931009D01*
X160540476Y-51931009D02*
X160445238Y-51883390D01*
X149698333Y-69524819D02*
X149365000Y-69048628D01*
X149126905Y-69524819D02*
X149126905Y-68524819D01*
X149126905Y-68524819D02*
X149507857Y-68524819D01*
X149507857Y-68524819D02*
X149603095Y-68572438D01*
X149603095Y-68572438D02*
X149650714Y-68620057D01*
X149650714Y-68620057D02*
X149698333Y-68715295D01*
X149698333Y-68715295D02*
X149698333Y-68858152D01*
X149698333Y-68858152D02*
X149650714Y-68953390D01*
X149650714Y-68953390D02*
X149603095Y-69001009D01*
X149603095Y-69001009D02*
X149507857Y-69048628D01*
X149507857Y-69048628D02*
X149126905Y-69048628D01*
X150174524Y-69524819D02*
X150365000Y-69524819D01*
X150365000Y-69524819D02*
X150460238Y-69477200D01*
X150460238Y-69477200D02*
X150507857Y-69429580D01*
X150507857Y-69429580D02*
X150603095Y-69286723D01*
X150603095Y-69286723D02*
X150650714Y-69096247D01*
X150650714Y-69096247D02*
X150650714Y-68715295D01*
X150650714Y-68715295D02*
X150603095Y-68620057D01*
X150603095Y-68620057D02*
X150555476Y-68572438D01*
X150555476Y-68572438D02*
X150460238Y-68524819D01*
X150460238Y-68524819D02*
X150269762Y-68524819D01*
X150269762Y-68524819D02*
X150174524Y-68572438D01*
X150174524Y-68572438D02*
X150126905Y-68620057D01*
X150126905Y-68620057D02*
X150079286Y-68715295D01*
X150079286Y-68715295D02*
X150079286Y-68953390D01*
X150079286Y-68953390D02*
X150126905Y-69048628D01*
X150126905Y-69048628D02*
X150174524Y-69096247D01*
X150174524Y-69096247D02*
X150269762Y-69143866D01*
X150269762Y-69143866D02*
X150460238Y-69143866D01*
X150460238Y-69143866D02*
X150555476Y-69096247D01*
X150555476Y-69096247D02*
X150603095Y-69048628D01*
X150603095Y-69048628D02*
X150650714Y-68953390D01*
X176642261Y-61150057D02*
X176547023Y-61102438D01*
X176547023Y-61102438D02*
X176451785Y-61007200D01*
X176451785Y-61007200D02*
X176308928Y-60864342D01*
X176308928Y-60864342D02*
X176213690Y-60816723D01*
X176213690Y-60816723D02*
X176118452Y-60816723D01*
X176166071Y-61054819D02*
X176070833Y-61007200D01*
X176070833Y-61007200D02*
X175975595Y-60911961D01*
X175975595Y-60911961D02*
X175927976Y-60721485D01*
X175927976Y-60721485D02*
X175927976Y-60388152D01*
X175927976Y-60388152D02*
X175975595Y-60197676D01*
X175975595Y-60197676D02*
X176070833Y-60102438D01*
X176070833Y-60102438D02*
X176166071Y-60054819D01*
X176166071Y-60054819D02*
X176356547Y-60054819D01*
X176356547Y-60054819D02*
X176451785Y-60102438D01*
X176451785Y-60102438D02*
X176547023Y-60197676D01*
X176547023Y-60197676D02*
X176594642Y-60388152D01*
X176594642Y-60388152D02*
X176594642Y-60721485D01*
X176594642Y-60721485D02*
X176547023Y-60911961D01*
X176547023Y-60911961D02*
X176451785Y-61007200D01*
X176451785Y-61007200D02*
X176356547Y-61054819D01*
X176356547Y-61054819D02*
X176166071Y-61054819D01*
X177547023Y-61054819D02*
X176975595Y-61054819D01*
X177261309Y-61054819D02*
X177261309Y-60054819D01*
X177261309Y-60054819D02*
X177166071Y-60197676D01*
X177166071Y-60197676D02*
X177070833Y-60292914D01*
X177070833Y-60292914D02*
X176975595Y-60340533D01*
X159632142Y-69859580D02*
X159584523Y-69907200D01*
X159584523Y-69907200D02*
X159441666Y-69954819D01*
X159441666Y-69954819D02*
X159346428Y-69954819D01*
X159346428Y-69954819D02*
X159203571Y-69907200D01*
X159203571Y-69907200D02*
X159108333Y-69811961D01*
X159108333Y-69811961D02*
X159060714Y-69716723D01*
X159060714Y-69716723D02*
X159013095Y-69526247D01*
X159013095Y-69526247D02*
X159013095Y-69383390D01*
X159013095Y-69383390D02*
X159060714Y-69192914D01*
X159060714Y-69192914D02*
X159108333Y-69097676D01*
X159108333Y-69097676D02*
X159203571Y-69002438D01*
X159203571Y-69002438D02*
X159346428Y-68954819D01*
X159346428Y-68954819D02*
X159441666Y-68954819D01*
X159441666Y-68954819D02*
X159584523Y-69002438D01*
X159584523Y-69002438D02*
X159632142Y-69050057D01*
X160584523Y-69954819D02*
X160013095Y-69954819D01*
X160298809Y-69954819D02*
X160298809Y-68954819D01*
X160298809Y-68954819D02*
X160203571Y-69097676D01*
X160203571Y-69097676D02*
X160108333Y-69192914D01*
X160108333Y-69192914D02*
X160013095Y-69240533D01*
X161203571Y-68954819D02*
X161298809Y-68954819D01*
X161298809Y-68954819D02*
X161394047Y-69002438D01*
X161394047Y-69002438D02*
X161441666Y-69050057D01*
X161441666Y-69050057D02*
X161489285Y-69145295D01*
X161489285Y-69145295D02*
X161536904Y-69335771D01*
X161536904Y-69335771D02*
X161536904Y-69573866D01*
X161536904Y-69573866D02*
X161489285Y-69764342D01*
X161489285Y-69764342D02*
X161441666Y-69859580D01*
X161441666Y-69859580D02*
X161394047Y-69907200D01*
X161394047Y-69907200D02*
X161298809Y-69954819D01*
X161298809Y-69954819D02*
X161203571Y-69954819D01*
X161203571Y-69954819D02*
X161108333Y-69907200D01*
X161108333Y-69907200D02*
X161060714Y-69859580D01*
X161060714Y-69859580D02*
X161013095Y-69764342D01*
X161013095Y-69764342D02*
X160965476Y-69573866D01*
X160965476Y-69573866D02*
X160965476Y-69335771D01*
X160965476Y-69335771D02*
X161013095Y-69145295D01*
X161013095Y-69145295D02*
X161060714Y-69050057D01*
X161060714Y-69050057D02*
X161108333Y-69002438D01*
X161108333Y-69002438D02*
X161203571Y-68954819D01*
X132238095Y-82204819D02*
X132809523Y-82204819D01*
X132523809Y-83204819D02*
X132523809Y-82204819D01*
X133142857Y-83204819D02*
X133142857Y-82204819D01*
X133142857Y-82204819D02*
X133523809Y-82204819D01*
X133523809Y-82204819D02*
X133619047Y-82252438D01*
X133619047Y-82252438D02*
X133666666Y-82300057D01*
X133666666Y-82300057D02*
X133714285Y-82395295D01*
X133714285Y-82395295D02*
X133714285Y-82538152D01*
X133714285Y-82538152D02*
X133666666Y-82633390D01*
X133666666Y-82633390D02*
X133619047Y-82681009D01*
X133619047Y-82681009D02*
X133523809Y-82728628D01*
X133523809Y-82728628D02*
X133142857Y-82728628D01*
X134666666Y-83204819D02*
X134095238Y-83204819D01*
X134380952Y-83204819D02*
X134380952Y-82204819D01*
X134380952Y-82204819D02*
X134285714Y-82347676D01*
X134285714Y-82347676D02*
X134190476Y-82442914D01*
X134190476Y-82442914D02*
X134095238Y-82490533D01*
X158738095Y-84454819D02*
X159309523Y-84454819D01*
X159023809Y-85454819D02*
X159023809Y-84454819D01*
X159642857Y-85454819D02*
X159642857Y-84454819D01*
X159642857Y-84454819D02*
X160023809Y-84454819D01*
X160023809Y-84454819D02*
X160119047Y-84502438D01*
X160119047Y-84502438D02*
X160166666Y-84550057D01*
X160166666Y-84550057D02*
X160214285Y-84645295D01*
X160214285Y-84645295D02*
X160214285Y-84788152D01*
X160214285Y-84788152D02*
X160166666Y-84883390D01*
X160166666Y-84883390D02*
X160119047Y-84931009D01*
X160119047Y-84931009D02*
X160023809Y-84978628D01*
X160023809Y-84978628D02*
X159642857Y-84978628D01*
X161071428Y-84788152D02*
X161071428Y-85454819D01*
X160833333Y-84407200D02*
X160595238Y-85121485D01*
X160595238Y-85121485D02*
X161214285Y-85121485D01*
X194192142Y-75104819D02*
X193858809Y-74628628D01*
X193620714Y-75104819D02*
X193620714Y-74104819D01*
X193620714Y-74104819D02*
X194001666Y-74104819D01*
X194001666Y-74104819D02*
X194096904Y-74152438D01*
X194096904Y-74152438D02*
X194144523Y-74200057D01*
X194144523Y-74200057D02*
X194192142Y-74295295D01*
X194192142Y-74295295D02*
X194192142Y-74438152D01*
X194192142Y-74438152D02*
X194144523Y-74533390D01*
X194144523Y-74533390D02*
X194096904Y-74581009D01*
X194096904Y-74581009D02*
X194001666Y-74628628D01*
X194001666Y-74628628D02*
X193620714Y-74628628D01*
X195144523Y-75104819D02*
X194573095Y-75104819D01*
X194858809Y-75104819D02*
X194858809Y-74104819D01*
X194858809Y-74104819D02*
X194763571Y-74247676D01*
X194763571Y-74247676D02*
X194668333Y-74342914D01*
X194668333Y-74342914D02*
X194573095Y-74390533D01*
X196049285Y-74104819D02*
X195573095Y-74104819D01*
X195573095Y-74104819D02*
X195525476Y-74581009D01*
X195525476Y-74581009D02*
X195573095Y-74533390D01*
X195573095Y-74533390D02*
X195668333Y-74485771D01*
X195668333Y-74485771D02*
X195906428Y-74485771D01*
X195906428Y-74485771D02*
X196001666Y-74533390D01*
X196001666Y-74533390D02*
X196049285Y-74581009D01*
X196049285Y-74581009D02*
X196096904Y-74676247D01*
X196096904Y-74676247D02*
X196096904Y-74914342D01*
X196096904Y-74914342D02*
X196049285Y-75009580D01*
X196049285Y-75009580D02*
X196001666Y-75057200D01*
X196001666Y-75057200D02*
X195906428Y-75104819D01*
X195906428Y-75104819D02*
X195668333Y-75104819D01*
X195668333Y-75104819D02*
X195573095Y-75057200D01*
X195573095Y-75057200D02*
X195525476Y-75009580D01*
X138386779Y-52219819D02*
X138386779Y-53029342D01*
X138386779Y-53029342D02*
X138434398Y-53124580D01*
X138434398Y-53124580D02*
X138482017Y-53172200D01*
X138482017Y-53172200D02*
X138577255Y-53219819D01*
X138577255Y-53219819D02*
X138767731Y-53219819D01*
X138767731Y-53219819D02*
X138862969Y-53172200D01*
X138862969Y-53172200D02*
X138910588Y-53124580D01*
X138910588Y-53124580D02*
X138958207Y-53029342D01*
X138958207Y-53029342D02*
X138958207Y-52219819D01*
X139958207Y-53219819D02*
X139386779Y-53219819D01*
X139672493Y-53219819D02*
X139672493Y-52219819D01*
X139672493Y-52219819D02*
X139577255Y-52362676D01*
X139577255Y-52362676D02*
X139482017Y-52457914D01*
X139482017Y-52457914D02*
X139386779Y-52505533D01*
X210166666Y-67454819D02*
X210166666Y-68169104D01*
X210166666Y-68169104D02*
X210119047Y-68311961D01*
X210119047Y-68311961D02*
X210023809Y-68407200D01*
X210023809Y-68407200D02*
X209880952Y-68454819D01*
X209880952Y-68454819D02*
X209785714Y-68454819D01*
X210642857Y-68454819D02*
X210642857Y-67454819D01*
X210642857Y-67454819D02*
X211023809Y-67454819D01*
X211023809Y-67454819D02*
X211119047Y-67502438D01*
X211119047Y-67502438D02*
X211166666Y-67550057D01*
X211166666Y-67550057D02*
X211214285Y-67645295D01*
X211214285Y-67645295D02*
X211214285Y-67788152D01*
X211214285Y-67788152D02*
X211166666Y-67883390D01*
X211166666Y-67883390D02*
X211119047Y-67931009D01*
X211119047Y-67931009D02*
X211023809Y-67978628D01*
X211023809Y-67978628D02*
X210642857Y-67978628D01*
X212119047Y-67454819D02*
X211642857Y-67454819D01*
X211642857Y-67454819D02*
X211595238Y-67931009D01*
X211595238Y-67931009D02*
X211642857Y-67883390D01*
X211642857Y-67883390D02*
X211738095Y-67835771D01*
X211738095Y-67835771D02*
X211976190Y-67835771D01*
X211976190Y-67835771D02*
X212071428Y-67883390D01*
X212071428Y-67883390D02*
X212119047Y-67931009D01*
X212119047Y-67931009D02*
X212166666Y-68026247D01*
X212166666Y-68026247D02*
X212166666Y-68264342D01*
X212166666Y-68264342D02*
X212119047Y-68359580D01*
X212119047Y-68359580D02*
X212071428Y-68407200D01*
X212071428Y-68407200D02*
X211976190Y-68454819D01*
X211976190Y-68454819D02*
X211738095Y-68454819D01*
X211738095Y-68454819D02*
X211642857Y-68407200D01*
X211642857Y-68407200D02*
X211595238Y-68359580D01*
X145533333Y-66024819D02*
X145200000Y-65548628D01*
X144961905Y-66024819D02*
X144961905Y-65024819D01*
X144961905Y-65024819D02*
X145342857Y-65024819D01*
X145342857Y-65024819D02*
X145438095Y-65072438D01*
X145438095Y-65072438D02*
X145485714Y-65120057D01*
X145485714Y-65120057D02*
X145533333Y-65215295D01*
X145533333Y-65215295D02*
X145533333Y-65358152D01*
X145533333Y-65358152D02*
X145485714Y-65453390D01*
X145485714Y-65453390D02*
X145438095Y-65501009D01*
X145438095Y-65501009D02*
X145342857Y-65548628D01*
X145342857Y-65548628D02*
X144961905Y-65548628D01*
X145866667Y-65024819D02*
X146485714Y-65024819D01*
X146485714Y-65024819D02*
X146152381Y-65405771D01*
X146152381Y-65405771D02*
X146295238Y-65405771D01*
X146295238Y-65405771D02*
X146390476Y-65453390D01*
X146390476Y-65453390D02*
X146438095Y-65501009D01*
X146438095Y-65501009D02*
X146485714Y-65596247D01*
X146485714Y-65596247D02*
X146485714Y-65834342D01*
X146485714Y-65834342D02*
X146438095Y-65929580D01*
X146438095Y-65929580D02*
X146390476Y-65977200D01*
X146390476Y-65977200D02*
X146295238Y-66024819D01*
X146295238Y-66024819D02*
X146009524Y-66024819D01*
X146009524Y-66024819D02*
X145914286Y-65977200D01*
X145914286Y-65977200D02*
X145866667Y-65929580D01*
X147058333Y-76359580D02*
X147010714Y-76407200D01*
X147010714Y-76407200D02*
X146867857Y-76454819D01*
X146867857Y-76454819D02*
X146772619Y-76454819D01*
X146772619Y-76454819D02*
X146629762Y-76407200D01*
X146629762Y-76407200D02*
X146534524Y-76311961D01*
X146534524Y-76311961D02*
X146486905Y-76216723D01*
X146486905Y-76216723D02*
X146439286Y-76026247D01*
X146439286Y-76026247D02*
X146439286Y-75883390D01*
X146439286Y-75883390D02*
X146486905Y-75692914D01*
X146486905Y-75692914D02*
X146534524Y-75597676D01*
X146534524Y-75597676D02*
X146629762Y-75502438D01*
X146629762Y-75502438D02*
X146772619Y-75454819D01*
X146772619Y-75454819D02*
X146867857Y-75454819D01*
X146867857Y-75454819D02*
X147010714Y-75502438D01*
X147010714Y-75502438D02*
X147058333Y-75550057D01*
X147391667Y-75454819D02*
X148058333Y-75454819D01*
X148058333Y-75454819D02*
X147629762Y-76454819D01*
X181857142Y-61954819D02*
X181523809Y-61478628D01*
X181285714Y-61954819D02*
X181285714Y-60954819D01*
X181285714Y-60954819D02*
X181666666Y-60954819D01*
X181666666Y-60954819D02*
X181761904Y-61002438D01*
X181761904Y-61002438D02*
X181809523Y-61050057D01*
X181809523Y-61050057D02*
X181857142Y-61145295D01*
X181857142Y-61145295D02*
X181857142Y-61288152D01*
X181857142Y-61288152D02*
X181809523Y-61383390D01*
X181809523Y-61383390D02*
X181761904Y-61431009D01*
X181761904Y-61431009D02*
X181666666Y-61478628D01*
X181666666Y-61478628D02*
X181285714Y-61478628D01*
X182809523Y-61954819D02*
X182238095Y-61954819D01*
X182523809Y-61954819D02*
X182523809Y-60954819D01*
X182523809Y-60954819D02*
X182428571Y-61097676D01*
X182428571Y-61097676D02*
X182333333Y-61192914D01*
X182333333Y-61192914D02*
X182238095Y-61240533D01*
X183142857Y-60954819D02*
X183761904Y-60954819D01*
X183761904Y-60954819D02*
X183428571Y-61335771D01*
X183428571Y-61335771D02*
X183571428Y-61335771D01*
X183571428Y-61335771D02*
X183666666Y-61383390D01*
X183666666Y-61383390D02*
X183714285Y-61431009D01*
X183714285Y-61431009D02*
X183761904Y-61526247D01*
X183761904Y-61526247D02*
X183761904Y-61764342D01*
X183761904Y-61764342D02*
X183714285Y-61859580D01*
X183714285Y-61859580D02*
X183666666Y-61907200D01*
X183666666Y-61907200D02*
X183571428Y-61954819D01*
X183571428Y-61954819D02*
X183285714Y-61954819D01*
X183285714Y-61954819D02*
X183190476Y-61907200D01*
X183190476Y-61907200D02*
X183142857Y-61859580D01*
X138188333Y-63024819D02*
X137855000Y-62548628D01*
X137616905Y-63024819D02*
X137616905Y-62024819D01*
X137616905Y-62024819D02*
X137997857Y-62024819D01*
X137997857Y-62024819D02*
X138093095Y-62072438D01*
X138093095Y-62072438D02*
X138140714Y-62120057D01*
X138140714Y-62120057D02*
X138188333Y-62215295D01*
X138188333Y-62215295D02*
X138188333Y-62358152D01*
X138188333Y-62358152D02*
X138140714Y-62453390D01*
X138140714Y-62453390D02*
X138093095Y-62501009D01*
X138093095Y-62501009D02*
X137997857Y-62548628D01*
X137997857Y-62548628D02*
X137616905Y-62548628D01*
X139045476Y-62358152D02*
X139045476Y-63024819D01*
X138807381Y-61977200D02*
X138569286Y-62691485D01*
X138569286Y-62691485D02*
X139188333Y-62691485D01*
X141248095Y-84454819D02*
X141819523Y-84454819D01*
X141533809Y-85454819D02*
X141533809Y-84454819D01*
X142152857Y-85454819D02*
X142152857Y-84454819D01*
X142152857Y-84454819D02*
X142533809Y-84454819D01*
X142533809Y-84454819D02*
X142629047Y-84502438D01*
X142629047Y-84502438D02*
X142676666Y-84550057D01*
X142676666Y-84550057D02*
X142724285Y-84645295D01*
X142724285Y-84645295D02*
X142724285Y-84788152D01*
X142724285Y-84788152D02*
X142676666Y-84883390D01*
X142676666Y-84883390D02*
X142629047Y-84931009D01*
X142629047Y-84931009D02*
X142533809Y-84978628D01*
X142533809Y-84978628D02*
X142152857Y-84978628D01*
X143105238Y-84550057D02*
X143152857Y-84502438D01*
X143152857Y-84502438D02*
X143248095Y-84454819D01*
X143248095Y-84454819D02*
X143486190Y-84454819D01*
X143486190Y-84454819D02*
X143581428Y-84502438D01*
X143581428Y-84502438D02*
X143629047Y-84550057D01*
X143629047Y-84550057D02*
X143676666Y-84645295D01*
X143676666Y-84645295D02*
X143676666Y-84740533D01*
X143676666Y-84740533D02*
X143629047Y-84883390D01*
X143629047Y-84883390D02*
X143057619Y-85454819D01*
X143057619Y-85454819D02*
X143676666Y-85454819D01*
X182432142Y-74954819D02*
X182098809Y-74478628D01*
X181860714Y-74954819D02*
X181860714Y-73954819D01*
X181860714Y-73954819D02*
X182241666Y-73954819D01*
X182241666Y-73954819D02*
X182336904Y-74002438D01*
X182336904Y-74002438D02*
X182384523Y-74050057D01*
X182384523Y-74050057D02*
X182432142Y-74145295D01*
X182432142Y-74145295D02*
X182432142Y-74288152D01*
X182432142Y-74288152D02*
X182384523Y-74383390D01*
X182384523Y-74383390D02*
X182336904Y-74431009D01*
X182336904Y-74431009D02*
X182241666Y-74478628D01*
X182241666Y-74478628D02*
X181860714Y-74478628D01*
X183384523Y-74954819D02*
X182813095Y-74954819D01*
X183098809Y-74954819D02*
X183098809Y-73954819D01*
X183098809Y-73954819D02*
X183003571Y-74097676D01*
X183003571Y-74097676D02*
X182908333Y-74192914D01*
X182908333Y-74192914D02*
X182813095Y-74240533D01*
X184241666Y-74288152D02*
X184241666Y-74954819D01*
X184003571Y-73907200D02*
X183765476Y-74621485D01*
X183765476Y-74621485D02*
X184384523Y-74621485D01*
X165666666Y-52454819D02*
X165666666Y-53169104D01*
X165666666Y-53169104D02*
X165619047Y-53311961D01*
X165619047Y-53311961D02*
X165523809Y-53407200D01*
X165523809Y-53407200D02*
X165380952Y-53454819D01*
X165380952Y-53454819D02*
X165285714Y-53454819D01*
X166571428Y-52788152D02*
X166571428Y-53454819D01*
X166333333Y-52407200D02*
X166095238Y-53121485D01*
X166095238Y-53121485D02*
X166714285Y-53121485D01*
X147058333Y-72929580D02*
X147010714Y-72977200D01*
X147010714Y-72977200D02*
X146867857Y-73024819D01*
X146867857Y-73024819D02*
X146772619Y-73024819D01*
X146772619Y-73024819D02*
X146629762Y-72977200D01*
X146629762Y-72977200D02*
X146534524Y-72881961D01*
X146534524Y-72881961D02*
X146486905Y-72786723D01*
X146486905Y-72786723D02*
X146439286Y-72596247D01*
X146439286Y-72596247D02*
X146439286Y-72453390D01*
X146439286Y-72453390D02*
X146486905Y-72262914D01*
X146486905Y-72262914D02*
X146534524Y-72167676D01*
X146534524Y-72167676D02*
X146629762Y-72072438D01*
X146629762Y-72072438D02*
X146772619Y-72024819D01*
X146772619Y-72024819D02*
X146867857Y-72024819D01*
X146867857Y-72024819D02*
X147010714Y-72072438D01*
X147010714Y-72072438D02*
X147058333Y-72120057D01*
X147915476Y-72024819D02*
X147725000Y-72024819D01*
X147725000Y-72024819D02*
X147629762Y-72072438D01*
X147629762Y-72072438D02*
X147582143Y-72120057D01*
X147582143Y-72120057D02*
X147486905Y-72262914D01*
X147486905Y-72262914D02*
X147439286Y-72453390D01*
X147439286Y-72453390D02*
X147439286Y-72834342D01*
X147439286Y-72834342D02*
X147486905Y-72929580D01*
X147486905Y-72929580D02*
X147534524Y-72977200D01*
X147534524Y-72977200D02*
X147629762Y-73024819D01*
X147629762Y-73024819D02*
X147820238Y-73024819D01*
X147820238Y-73024819D02*
X147915476Y-72977200D01*
X147915476Y-72977200D02*
X147963095Y-72929580D01*
X147963095Y-72929580D02*
X148010714Y-72834342D01*
X148010714Y-72834342D02*
X148010714Y-72596247D01*
X148010714Y-72596247D02*
X147963095Y-72501009D01*
X147963095Y-72501009D02*
X147915476Y-72453390D01*
X147915476Y-72453390D02*
X147820238Y-72405771D01*
X147820238Y-72405771D02*
X147629762Y-72405771D01*
X147629762Y-72405771D02*
X147534524Y-72453390D01*
X147534524Y-72453390D02*
X147486905Y-72501009D01*
X147486905Y-72501009D02*
X147439286Y-72596247D01*
X194156381Y-67109580D02*
X194108762Y-67157200D01*
X194108762Y-67157200D02*
X193965905Y-67204819D01*
X193965905Y-67204819D02*
X193870667Y-67204819D01*
X193870667Y-67204819D02*
X193727810Y-67157200D01*
X193727810Y-67157200D02*
X193632572Y-67061961D01*
X193632572Y-67061961D02*
X193584953Y-66966723D01*
X193584953Y-66966723D02*
X193537334Y-66776247D01*
X193537334Y-66776247D02*
X193537334Y-66633390D01*
X193537334Y-66633390D02*
X193584953Y-66442914D01*
X193584953Y-66442914D02*
X193632572Y-66347676D01*
X193632572Y-66347676D02*
X193727810Y-66252438D01*
X193727810Y-66252438D02*
X193870667Y-66204819D01*
X193870667Y-66204819D02*
X193965905Y-66204819D01*
X193965905Y-66204819D02*
X194108762Y-66252438D01*
X194108762Y-66252438D02*
X194156381Y-66300057D01*
X195108762Y-67204819D02*
X194537334Y-67204819D01*
X194823048Y-67204819D02*
X194823048Y-66204819D01*
X194823048Y-66204819D02*
X194727810Y-66347676D01*
X194727810Y-66347676D02*
X194632572Y-66442914D01*
X194632572Y-66442914D02*
X194537334Y-66490533D01*
X195442096Y-66204819D02*
X196061143Y-66204819D01*
X196061143Y-66204819D02*
X195727810Y-66585771D01*
X195727810Y-66585771D02*
X195870667Y-66585771D01*
X195870667Y-66585771D02*
X195965905Y-66633390D01*
X195965905Y-66633390D02*
X196013524Y-66681009D01*
X196013524Y-66681009D02*
X196061143Y-66776247D01*
X196061143Y-66776247D02*
X196061143Y-67014342D01*
X196061143Y-67014342D02*
X196013524Y-67109580D01*
X196013524Y-67109580D02*
X195965905Y-67157200D01*
X195965905Y-67157200D02*
X195870667Y-67204819D01*
X195870667Y-67204819D02*
X195584953Y-67204819D01*
X195584953Y-67204819D02*
X195489715Y-67157200D01*
X195489715Y-67157200D02*
X195442096Y-67109580D01*
X204466666Y-49454819D02*
X204466666Y-50169104D01*
X204466666Y-50169104D02*
X204419047Y-50311961D01*
X204419047Y-50311961D02*
X204323809Y-50407200D01*
X204323809Y-50407200D02*
X204180952Y-50454819D01*
X204180952Y-50454819D02*
X204085714Y-50454819D01*
X204847619Y-49454819D02*
X205514285Y-49454819D01*
X205514285Y-49454819D02*
X205085714Y-50454819D01*
X137638095Y-65054819D02*
X137638095Y-65864342D01*
X137638095Y-65864342D02*
X137685714Y-65959580D01*
X137685714Y-65959580D02*
X137733333Y-66007200D01*
X137733333Y-66007200D02*
X137828571Y-66054819D01*
X137828571Y-66054819D02*
X138019047Y-66054819D01*
X138019047Y-66054819D02*
X138114285Y-66007200D01*
X138114285Y-66007200D02*
X138161904Y-65959580D01*
X138161904Y-65959580D02*
X138209523Y-65864342D01*
X138209523Y-65864342D02*
X138209523Y-65054819D01*
X138638095Y-65150057D02*
X138685714Y-65102438D01*
X138685714Y-65102438D02*
X138780952Y-65054819D01*
X138780952Y-65054819D02*
X139019047Y-65054819D01*
X139019047Y-65054819D02*
X139114285Y-65102438D01*
X139114285Y-65102438D02*
X139161904Y-65150057D01*
X139161904Y-65150057D02*
X139209523Y-65245295D01*
X139209523Y-65245295D02*
X139209523Y-65340533D01*
X139209523Y-65340533D02*
X139161904Y-65483390D01*
X139161904Y-65483390D02*
X138590476Y-66054819D01*
X138590476Y-66054819D02*
X139209523Y-66054819D01*
X218069110Y-51262946D02*
X218069110Y-52072469D01*
X218069110Y-52072469D02*
X218116729Y-52167707D01*
X218116729Y-52167707D02*
X218164348Y-52215327D01*
X218164348Y-52215327D02*
X218259586Y-52262946D01*
X218259586Y-52262946D02*
X218450062Y-52262946D01*
X218450062Y-52262946D02*
X218545300Y-52215327D01*
X218545300Y-52215327D02*
X218592919Y-52167707D01*
X218592919Y-52167707D02*
X218640538Y-52072469D01*
X218640538Y-52072469D02*
X218640538Y-51262946D01*
X219640538Y-52262946D02*
X219069110Y-52262946D01*
X219354824Y-52262946D02*
X219354824Y-51262946D01*
X219354824Y-51262946D02*
X219259586Y-51405803D01*
X219259586Y-51405803D02*
X219164348Y-51501041D01*
X219164348Y-51501041D02*
X219069110Y-51548660D01*
X220259586Y-51262946D02*
X220354824Y-51262946D01*
X220354824Y-51262946D02*
X220450062Y-51310565D01*
X220450062Y-51310565D02*
X220497681Y-51358184D01*
X220497681Y-51358184D02*
X220545300Y-51453422D01*
X220545300Y-51453422D02*
X220592919Y-51643898D01*
X220592919Y-51643898D02*
X220592919Y-51881993D01*
X220592919Y-51881993D02*
X220545300Y-52072469D01*
X220545300Y-52072469D02*
X220497681Y-52167707D01*
X220497681Y-52167707D02*
X220450062Y-52215327D01*
X220450062Y-52215327D02*
X220354824Y-52262946D01*
X220354824Y-52262946D02*
X220259586Y-52262946D01*
X220259586Y-52262946D02*
X220164348Y-52215327D01*
X220164348Y-52215327D02*
X220116729Y-52167707D01*
X220116729Y-52167707D02*
X220069110Y-52072469D01*
X220069110Y-52072469D02*
X220021491Y-51881993D01*
X220021491Y-51881993D02*
X220021491Y-51643898D01*
X220021491Y-51643898D02*
X220069110Y-51453422D01*
X220069110Y-51453422D02*
X220116729Y-51358184D01*
X220116729Y-51358184D02*
X220164348Y-51310565D01*
X220164348Y-51310565D02*
X220259586Y-51262946D01*
X141113095Y-72844819D02*
X141113095Y-73654342D01*
X141113095Y-73654342D02*
X141160714Y-73749580D01*
X141160714Y-73749580D02*
X141208333Y-73797200D01*
X141208333Y-73797200D02*
X141303571Y-73844819D01*
X141303571Y-73844819D02*
X141494047Y-73844819D01*
X141494047Y-73844819D02*
X141589285Y-73797200D01*
X141589285Y-73797200D02*
X141636904Y-73749580D01*
X141636904Y-73749580D02*
X141684523Y-73654342D01*
X141684523Y-73654342D02*
X141684523Y-72844819D01*
X142065476Y-72844819D02*
X142684523Y-72844819D01*
X142684523Y-72844819D02*
X142351190Y-73225771D01*
X142351190Y-73225771D02*
X142494047Y-73225771D01*
X142494047Y-73225771D02*
X142589285Y-73273390D01*
X142589285Y-73273390D02*
X142636904Y-73321009D01*
X142636904Y-73321009D02*
X142684523Y-73416247D01*
X142684523Y-73416247D02*
X142684523Y-73654342D01*
X142684523Y-73654342D02*
X142636904Y-73749580D01*
X142636904Y-73749580D02*
X142589285Y-73797200D01*
X142589285Y-73797200D02*
X142494047Y-73844819D01*
X142494047Y-73844819D02*
X142208333Y-73844819D01*
X142208333Y-73844819D02*
X142113095Y-73797200D01*
X142113095Y-73797200D02*
X142065476Y-73749580D01*
X136833333Y-74784780D02*
X136785714Y-74832400D01*
X136785714Y-74832400D02*
X136642857Y-74880019D01*
X136642857Y-74880019D02*
X136547619Y-74880019D01*
X136547619Y-74880019D02*
X136404762Y-74832400D01*
X136404762Y-74832400D02*
X136309524Y-74737161D01*
X136309524Y-74737161D02*
X136261905Y-74641923D01*
X136261905Y-74641923D02*
X136214286Y-74451447D01*
X136214286Y-74451447D02*
X136214286Y-74308590D01*
X136214286Y-74308590D02*
X136261905Y-74118114D01*
X136261905Y-74118114D02*
X136309524Y-74022876D01*
X136309524Y-74022876D02*
X136404762Y-73927638D01*
X136404762Y-73927638D02*
X136547619Y-73880019D01*
X136547619Y-73880019D02*
X136642857Y-73880019D01*
X136642857Y-73880019D02*
X136785714Y-73927638D01*
X136785714Y-73927638D02*
X136833333Y-73975257D01*
X137785714Y-74880019D02*
X137214286Y-74880019D01*
X137500000Y-74880019D02*
X137500000Y-73880019D01*
X137500000Y-73880019D02*
X137404762Y-74022876D01*
X137404762Y-74022876D02*
X137309524Y-74118114D01*
X137309524Y-74118114D02*
X137214286Y-74165733D01*
X188382142Y-74859580D02*
X188334523Y-74907200D01*
X188334523Y-74907200D02*
X188191666Y-74954819D01*
X188191666Y-74954819D02*
X188096428Y-74954819D01*
X188096428Y-74954819D02*
X187953571Y-74907200D01*
X187953571Y-74907200D02*
X187858333Y-74811961D01*
X187858333Y-74811961D02*
X187810714Y-74716723D01*
X187810714Y-74716723D02*
X187763095Y-74526247D01*
X187763095Y-74526247D02*
X187763095Y-74383390D01*
X187763095Y-74383390D02*
X187810714Y-74192914D01*
X187810714Y-74192914D02*
X187858333Y-74097676D01*
X187858333Y-74097676D02*
X187953571Y-74002438D01*
X187953571Y-74002438D02*
X188096428Y-73954819D01*
X188096428Y-73954819D02*
X188191666Y-73954819D01*
X188191666Y-73954819D02*
X188334523Y-74002438D01*
X188334523Y-74002438D02*
X188382142Y-74050057D01*
X189334523Y-74954819D02*
X188763095Y-74954819D01*
X189048809Y-74954819D02*
X189048809Y-73954819D01*
X189048809Y-73954819D02*
X188953571Y-74097676D01*
X188953571Y-74097676D02*
X188858333Y-74192914D01*
X188858333Y-74192914D02*
X188763095Y-74240533D01*
X190239285Y-73954819D02*
X189763095Y-73954819D01*
X189763095Y-73954819D02*
X189715476Y-74431009D01*
X189715476Y-74431009D02*
X189763095Y-74383390D01*
X189763095Y-74383390D02*
X189858333Y-74335771D01*
X189858333Y-74335771D02*
X190096428Y-74335771D01*
X190096428Y-74335771D02*
X190191666Y-74383390D01*
X190191666Y-74383390D02*
X190239285Y-74431009D01*
X190239285Y-74431009D02*
X190286904Y-74526247D01*
X190286904Y-74526247D02*
X190286904Y-74764342D01*
X190286904Y-74764342D02*
X190239285Y-74859580D01*
X190239285Y-74859580D02*
X190191666Y-74907200D01*
X190191666Y-74907200D02*
X190096428Y-74954819D01*
X190096428Y-74954819D02*
X189858333Y-74954819D01*
X189858333Y-74954819D02*
X189763095Y-74907200D01*
X189763095Y-74907200D02*
X189715476Y-74859580D01*
X199382142Y-74859580D02*
X199334523Y-74907200D01*
X199334523Y-74907200D02*
X199191666Y-74954819D01*
X199191666Y-74954819D02*
X199096428Y-74954819D01*
X199096428Y-74954819D02*
X198953571Y-74907200D01*
X198953571Y-74907200D02*
X198858333Y-74811961D01*
X198858333Y-74811961D02*
X198810714Y-74716723D01*
X198810714Y-74716723D02*
X198763095Y-74526247D01*
X198763095Y-74526247D02*
X198763095Y-74383390D01*
X198763095Y-74383390D02*
X198810714Y-74192914D01*
X198810714Y-74192914D02*
X198858333Y-74097676D01*
X198858333Y-74097676D02*
X198953571Y-74002438D01*
X198953571Y-74002438D02*
X199096428Y-73954819D01*
X199096428Y-73954819D02*
X199191666Y-73954819D01*
X199191666Y-73954819D02*
X199334523Y-74002438D01*
X199334523Y-74002438D02*
X199382142Y-74050057D01*
X200334523Y-74954819D02*
X199763095Y-74954819D01*
X200048809Y-74954819D02*
X200048809Y-73954819D01*
X200048809Y-73954819D02*
X199953571Y-74097676D01*
X199953571Y-74097676D02*
X199858333Y-74192914D01*
X199858333Y-74192914D02*
X199763095Y-74240533D01*
X201191666Y-74288152D02*
X201191666Y-74954819D01*
X200953571Y-73907200D02*
X200715476Y-74621485D01*
X200715476Y-74621485D02*
X201334523Y-74621485D01*
X185666667Y-69907200D02*
X185809524Y-69954819D01*
X185809524Y-69954819D02*
X186047619Y-69954819D01*
X186047619Y-69954819D02*
X186142857Y-69907200D01*
X186142857Y-69907200D02*
X186190476Y-69859580D01*
X186190476Y-69859580D02*
X186238095Y-69764342D01*
X186238095Y-69764342D02*
X186238095Y-69669104D01*
X186238095Y-69669104D02*
X186190476Y-69573866D01*
X186190476Y-69573866D02*
X186142857Y-69526247D01*
X186142857Y-69526247D02*
X186047619Y-69478628D01*
X186047619Y-69478628D02*
X185857143Y-69431009D01*
X185857143Y-69431009D02*
X185761905Y-69383390D01*
X185761905Y-69383390D02*
X185714286Y-69335771D01*
X185714286Y-69335771D02*
X185666667Y-69240533D01*
X185666667Y-69240533D02*
X185666667Y-69145295D01*
X185666667Y-69145295D02*
X185714286Y-69050057D01*
X185714286Y-69050057D02*
X185761905Y-69002438D01*
X185761905Y-69002438D02*
X185857143Y-68954819D01*
X185857143Y-68954819D02*
X186095238Y-68954819D01*
X186095238Y-68954819D02*
X186238095Y-69002438D01*
X186571429Y-68954819D02*
X186809524Y-69954819D01*
X186809524Y-69954819D02*
X187000000Y-69240533D01*
X187000000Y-69240533D02*
X187190476Y-69954819D01*
X187190476Y-69954819D02*
X187428572Y-68954819D01*
X188333333Y-69954819D02*
X187761905Y-69954819D01*
X188047619Y-69954819D02*
X188047619Y-68954819D01*
X188047619Y-68954819D02*
X187952381Y-69097676D01*
X187952381Y-69097676D02*
X187857143Y-69192914D01*
X187857143Y-69192914D02*
X187761905Y-69240533D01*
X117666666Y-54954819D02*
X117666666Y-55669104D01*
X117666666Y-55669104D02*
X117619047Y-55811961D01*
X117619047Y-55811961D02*
X117523809Y-55907200D01*
X117523809Y-55907200D02*
X117380952Y-55954819D01*
X117380952Y-55954819D02*
X117285714Y-55954819D01*
X118666666Y-55954819D02*
X118095238Y-55954819D01*
X118380952Y-55954819D02*
X118380952Y-54954819D01*
X118380952Y-54954819D02*
X118285714Y-55097676D01*
X118285714Y-55097676D02*
X118190476Y-55192914D01*
X118190476Y-55192914D02*
X118095238Y-55240533D01*
X175238095Y-76454819D02*
X175238095Y-77264342D01*
X175238095Y-77264342D02*
X175285714Y-77359580D01*
X175285714Y-77359580D02*
X175333333Y-77407200D01*
X175333333Y-77407200D02*
X175428571Y-77454819D01*
X175428571Y-77454819D02*
X175619047Y-77454819D01*
X175619047Y-77454819D02*
X175714285Y-77407200D01*
X175714285Y-77407200D02*
X175761904Y-77359580D01*
X175761904Y-77359580D02*
X175809523Y-77264342D01*
X175809523Y-77264342D02*
X175809523Y-76454819D01*
X176428571Y-76883390D02*
X176333333Y-76835771D01*
X176333333Y-76835771D02*
X176285714Y-76788152D01*
X176285714Y-76788152D02*
X176238095Y-76692914D01*
X176238095Y-76692914D02*
X176238095Y-76645295D01*
X176238095Y-76645295D02*
X176285714Y-76550057D01*
X176285714Y-76550057D02*
X176333333Y-76502438D01*
X176333333Y-76502438D02*
X176428571Y-76454819D01*
X176428571Y-76454819D02*
X176619047Y-76454819D01*
X176619047Y-76454819D02*
X176714285Y-76502438D01*
X176714285Y-76502438D02*
X176761904Y-76550057D01*
X176761904Y-76550057D02*
X176809523Y-76645295D01*
X176809523Y-76645295D02*
X176809523Y-76692914D01*
X176809523Y-76692914D02*
X176761904Y-76788152D01*
X176761904Y-76788152D02*
X176714285Y-76835771D01*
X176714285Y-76835771D02*
X176619047Y-76883390D01*
X176619047Y-76883390D02*
X176428571Y-76883390D01*
X176428571Y-76883390D02*
X176333333Y-76931009D01*
X176333333Y-76931009D02*
X176285714Y-76978628D01*
X176285714Y-76978628D02*
X176238095Y-77073866D01*
X176238095Y-77073866D02*
X176238095Y-77264342D01*
X176238095Y-77264342D02*
X176285714Y-77359580D01*
X176285714Y-77359580D02*
X176333333Y-77407200D01*
X176333333Y-77407200D02*
X176428571Y-77454819D01*
X176428571Y-77454819D02*
X176619047Y-77454819D01*
X176619047Y-77454819D02*
X176714285Y-77407200D01*
X176714285Y-77407200D02*
X176761904Y-77359580D01*
X176761904Y-77359580D02*
X176809523Y-77264342D01*
X176809523Y-77264342D02*
X176809523Y-77073866D01*
X176809523Y-77073866D02*
X176761904Y-76978628D01*
X176761904Y-76978628D02*
X176714285Y-76931009D01*
X176714285Y-76931009D02*
X176619047Y-76883390D01*
X248107142Y-78029819D02*
X247773809Y-77553628D01*
X247535714Y-78029819D02*
X247535714Y-77029819D01*
X247535714Y-77029819D02*
X247916666Y-77029819D01*
X247916666Y-77029819D02*
X248011904Y-77077438D01*
X248011904Y-77077438D02*
X248059523Y-77125057D01*
X248059523Y-77125057D02*
X248107142Y-77220295D01*
X248107142Y-77220295D02*
X248107142Y-77363152D01*
X248107142Y-77363152D02*
X248059523Y-77458390D01*
X248059523Y-77458390D02*
X248011904Y-77506009D01*
X248011904Y-77506009D02*
X247916666Y-77553628D01*
X247916666Y-77553628D02*
X247535714Y-77553628D01*
X249059523Y-78029819D02*
X248488095Y-78029819D01*
X248773809Y-78029819D02*
X248773809Y-77029819D01*
X248773809Y-77029819D02*
X248678571Y-77172676D01*
X248678571Y-77172676D02*
X248583333Y-77267914D01*
X248583333Y-77267914D02*
X248488095Y-77315533D01*
X249392857Y-77029819D02*
X250059523Y-77029819D01*
X250059523Y-77029819D02*
X249630952Y-78029819D01*
X169032142Y-60954819D02*
X168698809Y-60478628D01*
X168460714Y-60954819D02*
X168460714Y-59954819D01*
X168460714Y-59954819D02*
X168841666Y-59954819D01*
X168841666Y-59954819D02*
X168936904Y-60002438D01*
X168936904Y-60002438D02*
X168984523Y-60050057D01*
X168984523Y-60050057D02*
X169032142Y-60145295D01*
X169032142Y-60145295D02*
X169032142Y-60288152D01*
X169032142Y-60288152D02*
X168984523Y-60383390D01*
X168984523Y-60383390D02*
X168936904Y-60431009D01*
X168936904Y-60431009D02*
X168841666Y-60478628D01*
X168841666Y-60478628D02*
X168460714Y-60478628D01*
X169984523Y-60954819D02*
X169413095Y-60954819D01*
X169698809Y-60954819D02*
X169698809Y-59954819D01*
X169698809Y-59954819D02*
X169603571Y-60097676D01*
X169603571Y-60097676D02*
X169508333Y-60192914D01*
X169508333Y-60192914D02*
X169413095Y-60240533D01*
X170603571Y-59954819D02*
X170698809Y-59954819D01*
X170698809Y-59954819D02*
X170794047Y-60002438D01*
X170794047Y-60002438D02*
X170841666Y-60050057D01*
X170841666Y-60050057D02*
X170889285Y-60145295D01*
X170889285Y-60145295D02*
X170936904Y-60335771D01*
X170936904Y-60335771D02*
X170936904Y-60573866D01*
X170936904Y-60573866D02*
X170889285Y-60764342D01*
X170889285Y-60764342D02*
X170841666Y-60859580D01*
X170841666Y-60859580D02*
X170794047Y-60907200D01*
X170794047Y-60907200D02*
X170698809Y-60954819D01*
X170698809Y-60954819D02*
X170603571Y-60954819D01*
X170603571Y-60954819D02*
X170508333Y-60907200D01*
X170508333Y-60907200D02*
X170460714Y-60859580D01*
X170460714Y-60859580D02*
X170413095Y-60764342D01*
X170413095Y-60764342D02*
X170365476Y-60573866D01*
X170365476Y-60573866D02*
X170365476Y-60335771D01*
X170365476Y-60335771D02*
X170413095Y-60145295D01*
X170413095Y-60145295D02*
X170460714Y-60050057D01*
X170460714Y-60050057D02*
X170508333Y-60002438D01*
X170508333Y-60002438D02*
X170603571Y-59954819D01*
X176857142Y-72859580D02*
X176809523Y-72907200D01*
X176809523Y-72907200D02*
X176666666Y-72954819D01*
X176666666Y-72954819D02*
X176571428Y-72954819D01*
X176571428Y-72954819D02*
X176428571Y-72907200D01*
X176428571Y-72907200D02*
X176333333Y-72811961D01*
X176333333Y-72811961D02*
X176285714Y-72716723D01*
X176285714Y-72716723D02*
X176238095Y-72526247D01*
X176238095Y-72526247D02*
X176238095Y-72383390D01*
X176238095Y-72383390D02*
X176285714Y-72192914D01*
X176285714Y-72192914D02*
X176333333Y-72097676D01*
X176333333Y-72097676D02*
X176428571Y-72002438D01*
X176428571Y-72002438D02*
X176571428Y-71954819D01*
X176571428Y-71954819D02*
X176666666Y-71954819D01*
X176666666Y-71954819D02*
X176809523Y-72002438D01*
X176809523Y-72002438D02*
X176857142Y-72050057D01*
X177809523Y-72954819D02*
X177238095Y-72954819D01*
X177523809Y-72954819D02*
X177523809Y-71954819D01*
X177523809Y-71954819D02*
X177428571Y-72097676D01*
X177428571Y-72097676D02*
X177333333Y-72192914D01*
X177333333Y-72192914D02*
X177238095Y-72240533D01*
X178190476Y-72050057D02*
X178238095Y-72002438D01*
X178238095Y-72002438D02*
X178333333Y-71954819D01*
X178333333Y-71954819D02*
X178571428Y-71954819D01*
X178571428Y-71954819D02*
X178666666Y-72002438D01*
X178666666Y-72002438D02*
X178714285Y-72050057D01*
X178714285Y-72050057D02*
X178761904Y-72145295D01*
X178761904Y-72145295D02*
X178761904Y-72240533D01*
X178761904Y-72240533D02*
X178714285Y-72383390D01*
X178714285Y-72383390D02*
X178142857Y-72954819D01*
X178142857Y-72954819D02*
X178761904Y-72954819D01*
X205059523Y-74204819D02*
X204726190Y-73728628D01*
X204488095Y-74204819D02*
X204488095Y-73204819D01*
X204488095Y-73204819D02*
X204869047Y-73204819D01*
X204869047Y-73204819D02*
X204964285Y-73252438D01*
X204964285Y-73252438D02*
X205011904Y-73300057D01*
X205011904Y-73300057D02*
X205059523Y-73395295D01*
X205059523Y-73395295D02*
X205059523Y-73538152D01*
X205059523Y-73538152D02*
X205011904Y-73633390D01*
X205011904Y-73633390D02*
X204964285Y-73681009D01*
X204964285Y-73681009D02*
X204869047Y-73728628D01*
X204869047Y-73728628D02*
X204488095Y-73728628D01*
X205488095Y-74204819D02*
X205488095Y-73204819D01*
X205488095Y-73204819D02*
X206059523Y-74204819D01*
X206059523Y-74204819D02*
X206059523Y-73204819D01*
X207059523Y-74204819D02*
X206488095Y-74204819D01*
X206773809Y-74204819D02*
X206773809Y-73204819D01*
X206773809Y-73204819D02*
X206678571Y-73347676D01*
X206678571Y-73347676D02*
X206583333Y-73442914D01*
X206583333Y-73442914D02*
X206488095Y-73490533D01*
X148075121Y-47954819D02*
X148075121Y-48669104D01*
X148075121Y-48669104D02*
X148027502Y-48811961D01*
X148027502Y-48811961D02*
X147932264Y-48907200D01*
X147932264Y-48907200D02*
X147789407Y-48954819D01*
X147789407Y-48954819D02*
X147694169Y-48954819D01*
X148503693Y-48050057D02*
X148551312Y-48002438D01*
X148551312Y-48002438D02*
X148646550Y-47954819D01*
X148646550Y-47954819D02*
X148884645Y-47954819D01*
X148884645Y-47954819D02*
X148979883Y-48002438D01*
X148979883Y-48002438D02*
X149027502Y-48050057D01*
X149027502Y-48050057D02*
X149075121Y-48145295D01*
X149075121Y-48145295D02*
X149075121Y-48240533D01*
X149075121Y-48240533D02*
X149027502Y-48383390D01*
X149027502Y-48383390D02*
X148456074Y-48954819D01*
X148456074Y-48954819D02*
X149075121Y-48954819D01*
X127666666Y-75804819D02*
X127666666Y-76519104D01*
X127666666Y-76519104D02*
X127619047Y-76661961D01*
X127619047Y-76661961D02*
X127523809Y-76757200D01*
X127523809Y-76757200D02*
X127380952Y-76804819D01*
X127380952Y-76804819D02*
X127285714Y-76804819D01*
X128142857Y-76804819D02*
X128142857Y-75804819D01*
X128142857Y-75804819D02*
X128523809Y-75804819D01*
X128523809Y-75804819D02*
X128619047Y-75852438D01*
X128619047Y-75852438D02*
X128666666Y-75900057D01*
X128666666Y-75900057D02*
X128714285Y-75995295D01*
X128714285Y-75995295D02*
X128714285Y-76138152D01*
X128714285Y-76138152D02*
X128666666Y-76233390D01*
X128666666Y-76233390D02*
X128619047Y-76281009D01*
X128619047Y-76281009D02*
X128523809Y-76328628D01*
X128523809Y-76328628D02*
X128142857Y-76328628D01*
X129047619Y-75804819D02*
X129666666Y-75804819D01*
X129666666Y-75804819D02*
X129333333Y-76185771D01*
X129333333Y-76185771D02*
X129476190Y-76185771D01*
X129476190Y-76185771D02*
X129571428Y-76233390D01*
X129571428Y-76233390D02*
X129619047Y-76281009D01*
X129619047Y-76281009D02*
X129666666Y-76376247D01*
X129666666Y-76376247D02*
X129666666Y-76614342D01*
X129666666Y-76614342D02*
X129619047Y-76709580D01*
X129619047Y-76709580D02*
X129571428Y-76757200D01*
X129571428Y-76757200D02*
X129476190Y-76804819D01*
X129476190Y-76804819D02*
X129190476Y-76804819D01*
X129190476Y-76804819D02*
X129095238Y-76757200D01*
X129095238Y-76757200D02*
X129047619Y-76709580D01*
X145253333Y-53024819D02*
X144920000Y-52548628D01*
X144681905Y-53024819D02*
X144681905Y-52024819D01*
X144681905Y-52024819D02*
X145062857Y-52024819D01*
X145062857Y-52024819D02*
X145158095Y-52072438D01*
X145158095Y-52072438D02*
X145205714Y-52120057D01*
X145205714Y-52120057D02*
X145253333Y-52215295D01*
X145253333Y-52215295D02*
X145253333Y-52358152D01*
X145253333Y-52358152D02*
X145205714Y-52453390D01*
X145205714Y-52453390D02*
X145158095Y-52501009D01*
X145158095Y-52501009D02*
X145062857Y-52548628D01*
X145062857Y-52548628D02*
X144681905Y-52548628D01*
X145634286Y-52120057D02*
X145681905Y-52072438D01*
X145681905Y-52072438D02*
X145777143Y-52024819D01*
X145777143Y-52024819D02*
X146015238Y-52024819D01*
X146015238Y-52024819D02*
X146110476Y-52072438D01*
X146110476Y-52072438D02*
X146158095Y-52120057D01*
X146158095Y-52120057D02*
X146205714Y-52215295D01*
X146205714Y-52215295D02*
X146205714Y-52310533D01*
X146205714Y-52310533D02*
X146158095Y-52453390D01*
X146158095Y-52453390D02*
X145586667Y-53024819D01*
X145586667Y-53024819D02*
X146205714Y-53024819D01*
X147306779Y-57994819D02*
X147306779Y-58804342D01*
X147306779Y-58804342D02*
X147354398Y-58899580D01*
X147354398Y-58899580D02*
X147402017Y-58947200D01*
X147402017Y-58947200D02*
X147497255Y-58994819D01*
X147497255Y-58994819D02*
X147687731Y-58994819D01*
X147687731Y-58994819D02*
X147782969Y-58947200D01*
X147782969Y-58947200D02*
X147830588Y-58899580D01*
X147830588Y-58899580D02*
X147878207Y-58804342D01*
X147878207Y-58804342D02*
X147878207Y-57994819D01*
X148782969Y-58328152D02*
X148782969Y-58994819D01*
X148544874Y-57947200D02*
X148306779Y-58661485D01*
X148306779Y-58661485D02*
X148925826Y-58661485D01*
X175738095Y-65954819D02*
X175738095Y-66764342D01*
X175738095Y-66764342D02*
X175785714Y-66859580D01*
X175785714Y-66859580D02*
X175833333Y-66907200D01*
X175833333Y-66907200D02*
X175928571Y-66954819D01*
X175928571Y-66954819D02*
X176119047Y-66954819D01*
X176119047Y-66954819D02*
X176214285Y-66907200D01*
X176214285Y-66907200D02*
X176261904Y-66859580D01*
X176261904Y-66859580D02*
X176309523Y-66764342D01*
X176309523Y-66764342D02*
X176309523Y-65954819D01*
X176690476Y-65954819D02*
X177357142Y-65954819D01*
X177357142Y-65954819D02*
X176928571Y-66954819D01*
X150488095Y-82454819D02*
X151059523Y-82454819D01*
X150773809Y-83454819D02*
X150773809Y-82454819D01*
X151392857Y-83454819D02*
X151392857Y-82454819D01*
X151392857Y-82454819D02*
X151773809Y-82454819D01*
X151773809Y-82454819D02*
X151869047Y-82502438D01*
X151869047Y-82502438D02*
X151916666Y-82550057D01*
X151916666Y-82550057D02*
X151964285Y-82645295D01*
X151964285Y-82645295D02*
X151964285Y-82788152D01*
X151964285Y-82788152D02*
X151916666Y-82883390D01*
X151916666Y-82883390D02*
X151869047Y-82931009D01*
X151869047Y-82931009D02*
X151773809Y-82978628D01*
X151773809Y-82978628D02*
X151392857Y-82978628D01*
X152297619Y-82454819D02*
X152916666Y-82454819D01*
X152916666Y-82454819D02*
X152583333Y-82835771D01*
X152583333Y-82835771D02*
X152726190Y-82835771D01*
X152726190Y-82835771D02*
X152821428Y-82883390D01*
X152821428Y-82883390D02*
X152869047Y-82931009D01*
X152869047Y-82931009D02*
X152916666Y-83026247D01*
X152916666Y-83026247D02*
X152916666Y-83264342D01*
X152916666Y-83264342D02*
X152869047Y-83359580D01*
X152869047Y-83359580D02*
X152821428Y-83407200D01*
X152821428Y-83407200D02*
X152726190Y-83454819D01*
X152726190Y-83454819D02*
X152440476Y-83454819D01*
X152440476Y-83454819D02*
X152345238Y-83407200D01*
X152345238Y-83407200D02*
X152297619Y-83359580D01*
X190657030Y-48539819D02*
X190657030Y-47539819D01*
X190657030Y-47539819D02*
X190895125Y-47539819D01*
X190895125Y-47539819D02*
X191037982Y-47587438D01*
X191037982Y-47587438D02*
X191133220Y-47682676D01*
X191133220Y-47682676D02*
X191180839Y-47777914D01*
X191180839Y-47777914D02*
X191228458Y-47968390D01*
X191228458Y-47968390D02*
X191228458Y-48111247D01*
X191228458Y-48111247D02*
X191180839Y-48301723D01*
X191180839Y-48301723D02*
X191133220Y-48396961D01*
X191133220Y-48396961D02*
X191037982Y-48492200D01*
X191037982Y-48492200D02*
X190895125Y-48539819D01*
X190895125Y-48539819D02*
X190657030Y-48539819D01*
X191609411Y-47635057D02*
X191657030Y-47587438D01*
X191657030Y-47587438D02*
X191752268Y-47539819D01*
X191752268Y-47539819D02*
X191990363Y-47539819D01*
X191990363Y-47539819D02*
X192085601Y-47587438D01*
X192085601Y-47587438D02*
X192133220Y-47635057D01*
X192133220Y-47635057D02*
X192180839Y-47730295D01*
X192180839Y-47730295D02*
X192180839Y-47825533D01*
X192180839Y-47825533D02*
X192133220Y-47968390D01*
X192133220Y-47968390D02*
X191561792Y-48539819D01*
X191561792Y-48539819D02*
X192180839Y-48539819D01*
X127666666Y-57454819D02*
X127666666Y-58169104D01*
X127666666Y-58169104D02*
X127619047Y-58311961D01*
X127619047Y-58311961D02*
X127523809Y-58407200D01*
X127523809Y-58407200D02*
X127380952Y-58454819D01*
X127380952Y-58454819D02*
X127285714Y-58454819D01*
X128142857Y-58454819D02*
X128142857Y-57454819D01*
X128142857Y-57454819D02*
X128523809Y-57454819D01*
X128523809Y-57454819D02*
X128619047Y-57502438D01*
X128619047Y-57502438D02*
X128666666Y-57550057D01*
X128666666Y-57550057D02*
X128714285Y-57645295D01*
X128714285Y-57645295D02*
X128714285Y-57788152D01*
X128714285Y-57788152D02*
X128666666Y-57883390D01*
X128666666Y-57883390D02*
X128619047Y-57931009D01*
X128619047Y-57931009D02*
X128523809Y-57978628D01*
X128523809Y-57978628D02*
X128142857Y-57978628D01*
X129095238Y-57550057D02*
X129142857Y-57502438D01*
X129142857Y-57502438D02*
X129238095Y-57454819D01*
X129238095Y-57454819D02*
X129476190Y-57454819D01*
X129476190Y-57454819D02*
X129571428Y-57502438D01*
X129571428Y-57502438D02*
X129619047Y-57550057D01*
X129619047Y-57550057D02*
X129666666Y-57645295D01*
X129666666Y-57645295D02*
X129666666Y-57740533D01*
X129666666Y-57740533D02*
X129619047Y-57883390D01*
X129619047Y-57883390D02*
X129047619Y-58454819D01*
X129047619Y-58454819D02*
X129666666Y-58454819D01*
X145253333Y-56024819D02*
X144920000Y-55548628D01*
X144681905Y-56024819D02*
X144681905Y-55024819D01*
X144681905Y-55024819D02*
X145062857Y-55024819D01*
X145062857Y-55024819D02*
X145158095Y-55072438D01*
X145158095Y-55072438D02*
X145205714Y-55120057D01*
X145205714Y-55120057D02*
X145253333Y-55215295D01*
X145253333Y-55215295D02*
X145253333Y-55358152D01*
X145253333Y-55358152D02*
X145205714Y-55453390D01*
X145205714Y-55453390D02*
X145158095Y-55501009D01*
X145158095Y-55501009D02*
X145062857Y-55548628D01*
X145062857Y-55548628D02*
X144681905Y-55548628D01*
X146205714Y-56024819D02*
X145634286Y-56024819D01*
X145920000Y-56024819D02*
X145920000Y-55024819D01*
X145920000Y-55024819D02*
X145824762Y-55167676D01*
X145824762Y-55167676D02*
X145729524Y-55262914D01*
X145729524Y-55262914D02*
X145634286Y-55310533D01*
X169389642Y-87734819D02*
X169056309Y-87258628D01*
X168818214Y-87734819D02*
X168818214Y-86734819D01*
X168818214Y-86734819D02*
X169199166Y-86734819D01*
X169199166Y-86734819D02*
X169294404Y-86782438D01*
X169294404Y-86782438D02*
X169342023Y-86830057D01*
X169342023Y-86830057D02*
X169389642Y-86925295D01*
X169389642Y-86925295D02*
X169389642Y-87068152D01*
X169389642Y-87068152D02*
X169342023Y-87163390D01*
X169342023Y-87163390D02*
X169294404Y-87211009D01*
X169294404Y-87211009D02*
X169199166Y-87258628D01*
X169199166Y-87258628D02*
X168818214Y-87258628D01*
X170342023Y-87734819D02*
X169770595Y-87734819D01*
X170056309Y-87734819D02*
X170056309Y-86734819D01*
X170056309Y-86734819D02*
X169961071Y-86877676D01*
X169961071Y-86877676D02*
X169865833Y-86972914D01*
X169865833Y-86972914D02*
X169770595Y-87020533D01*
X170722976Y-86830057D02*
X170770595Y-86782438D01*
X170770595Y-86782438D02*
X170865833Y-86734819D01*
X170865833Y-86734819D02*
X171103928Y-86734819D01*
X171103928Y-86734819D02*
X171199166Y-86782438D01*
X171199166Y-86782438D02*
X171246785Y-86830057D01*
X171246785Y-86830057D02*
X171294404Y-86925295D01*
X171294404Y-86925295D02*
X171294404Y-87020533D01*
X171294404Y-87020533D02*
X171246785Y-87163390D01*
X171246785Y-87163390D02*
X170675357Y-87734819D01*
X170675357Y-87734819D02*
X171294404Y-87734819D01*
X203466666Y-84054819D02*
X203466666Y-84769104D01*
X203466666Y-84769104D02*
X203419047Y-84911961D01*
X203419047Y-84911961D02*
X203323809Y-85007200D01*
X203323809Y-85007200D02*
X203180952Y-85054819D01*
X203180952Y-85054819D02*
X203085714Y-85054819D01*
X204419047Y-84054819D02*
X203942857Y-84054819D01*
X203942857Y-84054819D02*
X203895238Y-84531009D01*
X203895238Y-84531009D02*
X203942857Y-84483390D01*
X203942857Y-84483390D02*
X204038095Y-84435771D01*
X204038095Y-84435771D02*
X204276190Y-84435771D01*
X204276190Y-84435771D02*
X204371428Y-84483390D01*
X204371428Y-84483390D02*
X204419047Y-84531009D01*
X204419047Y-84531009D02*
X204466666Y-84626247D01*
X204466666Y-84626247D02*
X204466666Y-84864342D01*
X204466666Y-84864342D02*
X204419047Y-84959580D01*
X204419047Y-84959580D02*
X204371428Y-85007200D01*
X204371428Y-85007200D02*
X204276190Y-85054819D01*
X204276190Y-85054819D02*
X204038095Y-85054819D01*
X204038095Y-85054819D02*
X203942857Y-85007200D01*
X203942857Y-85007200D02*
X203895238Y-84959580D01*
X159962142Y-73779580D02*
X159914523Y-73827200D01*
X159914523Y-73827200D02*
X159771666Y-73874819D01*
X159771666Y-73874819D02*
X159676428Y-73874819D01*
X159676428Y-73874819D02*
X159533571Y-73827200D01*
X159533571Y-73827200D02*
X159438333Y-73731961D01*
X159438333Y-73731961D02*
X159390714Y-73636723D01*
X159390714Y-73636723D02*
X159343095Y-73446247D01*
X159343095Y-73446247D02*
X159343095Y-73303390D01*
X159343095Y-73303390D02*
X159390714Y-73112914D01*
X159390714Y-73112914D02*
X159438333Y-73017676D01*
X159438333Y-73017676D02*
X159533571Y-72922438D01*
X159533571Y-72922438D02*
X159676428Y-72874819D01*
X159676428Y-72874819D02*
X159771666Y-72874819D01*
X159771666Y-72874819D02*
X159914523Y-72922438D01*
X159914523Y-72922438D02*
X159962142Y-72970057D01*
X160914523Y-73874819D02*
X160343095Y-73874819D01*
X160628809Y-73874819D02*
X160628809Y-72874819D01*
X160628809Y-72874819D02*
X160533571Y-73017676D01*
X160533571Y-73017676D02*
X160438333Y-73112914D01*
X160438333Y-73112914D02*
X160343095Y-73160533D01*
X161866904Y-73874819D02*
X161295476Y-73874819D01*
X161581190Y-73874819D02*
X161581190Y-72874819D01*
X161581190Y-72874819D02*
X161485952Y-73017676D01*
X161485952Y-73017676D02*
X161390714Y-73112914D01*
X161390714Y-73112914D02*
X161295476Y-73160533D01*
D12*
X245466667Y-65909800D02*
X245609524Y-65957419D01*
X245609524Y-65957419D02*
X245847619Y-65957419D01*
X245847619Y-65957419D02*
X245942857Y-65909800D01*
X245942857Y-65909800D02*
X245990476Y-65862180D01*
X245990476Y-65862180D02*
X246038095Y-65766942D01*
X246038095Y-65766942D02*
X246038095Y-65671704D01*
X246038095Y-65671704D02*
X245990476Y-65576466D01*
X245990476Y-65576466D02*
X245942857Y-65528847D01*
X245942857Y-65528847D02*
X245847619Y-65481228D01*
X245847619Y-65481228D02*
X245657143Y-65433609D01*
X245657143Y-65433609D02*
X245561905Y-65385990D01*
X245561905Y-65385990D02*
X245514286Y-65338371D01*
X245514286Y-65338371D02*
X245466667Y-65243133D01*
X245466667Y-65243133D02*
X245466667Y-65147895D01*
X245466667Y-65147895D02*
X245514286Y-65052657D01*
X245514286Y-65052657D02*
X245561905Y-65005038D01*
X245561905Y-65005038D02*
X245657143Y-64957419D01*
X245657143Y-64957419D02*
X245895238Y-64957419D01*
X245895238Y-64957419D02*
X246038095Y-65005038D01*
X246371429Y-64957419D02*
X246609524Y-65957419D01*
X246609524Y-65957419D02*
X246800000Y-65243133D01*
X246800000Y-65243133D02*
X246990476Y-65957419D01*
X246990476Y-65957419D02*
X247228572Y-64957419D01*
X247514286Y-64957419D02*
X248133333Y-64957419D01*
X248133333Y-64957419D02*
X247800000Y-65338371D01*
X247800000Y-65338371D02*
X247942857Y-65338371D01*
X247942857Y-65338371D02*
X248038095Y-65385990D01*
X248038095Y-65385990D02*
X248085714Y-65433609D01*
X248085714Y-65433609D02*
X248133333Y-65528847D01*
X248133333Y-65528847D02*
X248133333Y-65766942D01*
X248133333Y-65766942D02*
X248085714Y-65862180D01*
X248085714Y-65862180D02*
X248038095Y-65909800D01*
X248038095Y-65909800D02*
X247942857Y-65957419D01*
X247942857Y-65957419D02*
X247657143Y-65957419D01*
X247657143Y-65957419D02*
X247561905Y-65909800D01*
X247561905Y-65909800D02*
X247514286Y-65862180D01*
D11*
X205761905Y-56699819D02*
X205761905Y-57509342D01*
X205761905Y-57509342D02*
X205809524Y-57604580D01*
X205809524Y-57604580D02*
X205857143Y-57652200D01*
X205857143Y-57652200D02*
X205952381Y-57699819D01*
X205952381Y-57699819D02*
X206142857Y-57699819D01*
X206142857Y-57699819D02*
X206238095Y-57652200D01*
X206238095Y-57652200D02*
X206285714Y-57604580D01*
X206285714Y-57604580D02*
X206333333Y-57509342D01*
X206333333Y-57509342D02*
X206333333Y-56699819D01*
X207333333Y-57699819D02*
X206761905Y-57699819D01*
X207047619Y-57699819D02*
X207047619Y-56699819D01*
X207047619Y-56699819D02*
X206952381Y-56842676D01*
X206952381Y-56842676D02*
X206857143Y-56937914D01*
X206857143Y-56937914D02*
X206761905Y-56985533D01*
X208285714Y-57699819D02*
X207714286Y-57699819D01*
X208000000Y-57699819D02*
X208000000Y-56699819D01*
X208000000Y-56699819D02*
X207904762Y-56842676D01*
X207904762Y-56842676D02*
X207809524Y-56937914D01*
X207809524Y-56937914D02*
X207714286Y-56985533D01*
X156055595Y-72629819D02*
X156055595Y-73439342D01*
X156055595Y-73439342D02*
X156103214Y-73534580D01*
X156103214Y-73534580D02*
X156150833Y-73582200D01*
X156150833Y-73582200D02*
X156246071Y-73629819D01*
X156246071Y-73629819D02*
X156436547Y-73629819D01*
X156436547Y-73629819D02*
X156531785Y-73582200D01*
X156531785Y-73582200D02*
X156579404Y-73534580D01*
X156579404Y-73534580D02*
X156627023Y-73439342D01*
X156627023Y-73439342D02*
X156627023Y-72629819D01*
X157579404Y-72629819D02*
X157103214Y-72629819D01*
X157103214Y-72629819D02*
X157055595Y-73106009D01*
X157055595Y-73106009D02*
X157103214Y-73058390D01*
X157103214Y-73058390D02*
X157198452Y-73010771D01*
X157198452Y-73010771D02*
X157436547Y-73010771D01*
X157436547Y-73010771D02*
X157531785Y-73058390D01*
X157531785Y-73058390D02*
X157579404Y-73106009D01*
X157579404Y-73106009D02*
X157627023Y-73201247D01*
X157627023Y-73201247D02*
X157627023Y-73439342D01*
X157627023Y-73439342D02*
X157579404Y-73534580D01*
X157579404Y-73534580D02*
X157531785Y-73582200D01*
X157531785Y-73582200D02*
X157436547Y-73629819D01*
X157436547Y-73629819D02*
X157198452Y-73629819D01*
X157198452Y-73629819D02*
X157103214Y-73582200D01*
X157103214Y-73582200D02*
X157055595Y-73534580D01*
X127656666Y-67804819D02*
X127656666Y-68519104D01*
X127656666Y-68519104D02*
X127609047Y-68661961D01*
X127609047Y-68661961D02*
X127513809Y-68757200D01*
X127513809Y-68757200D02*
X127370952Y-68804819D01*
X127370952Y-68804819D02*
X127275714Y-68804819D01*
X128132857Y-68804819D02*
X128132857Y-67804819D01*
X128132857Y-67804819D02*
X128513809Y-67804819D01*
X128513809Y-67804819D02*
X128609047Y-67852438D01*
X128609047Y-67852438D02*
X128656666Y-67900057D01*
X128656666Y-67900057D02*
X128704285Y-67995295D01*
X128704285Y-67995295D02*
X128704285Y-68138152D01*
X128704285Y-68138152D02*
X128656666Y-68233390D01*
X128656666Y-68233390D02*
X128609047Y-68281009D01*
X128609047Y-68281009D02*
X128513809Y-68328628D01*
X128513809Y-68328628D02*
X128132857Y-68328628D01*
X129656666Y-68804819D02*
X129085238Y-68804819D01*
X129370952Y-68804819D02*
X129370952Y-67804819D01*
X129370952Y-67804819D02*
X129275714Y-67947676D01*
X129275714Y-67947676D02*
X129180476Y-68042914D01*
X129180476Y-68042914D02*
X129085238Y-68090533D01*
X145508333Y-69524819D02*
X145175000Y-69048628D01*
X144936905Y-69524819D02*
X144936905Y-68524819D01*
X144936905Y-68524819D02*
X145317857Y-68524819D01*
X145317857Y-68524819D02*
X145413095Y-68572438D01*
X145413095Y-68572438D02*
X145460714Y-68620057D01*
X145460714Y-68620057D02*
X145508333Y-68715295D01*
X145508333Y-68715295D02*
X145508333Y-68858152D01*
X145508333Y-68858152D02*
X145460714Y-68953390D01*
X145460714Y-68953390D02*
X145413095Y-69001009D01*
X145413095Y-69001009D02*
X145317857Y-69048628D01*
X145317857Y-69048628D02*
X144936905Y-69048628D01*
X146413095Y-68524819D02*
X145936905Y-68524819D01*
X145936905Y-68524819D02*
X145889286Y-69001009D01*
X145889286Y-69001009D02*
X145936905Y-68953390D01*
X145936905Y-68953390D02*
X146032143Y-68905771D01*
X146032143Y-68905771D02*
X146270238Y-68905771D01*
X146270238Y-68905771D02*
X146365476Y-68953390D01*
X146365476Y-68953390D02*
X146413095Y-69001009D01*
X146413095Y-69001009D02*
X146460714Y-69096247D01*
X146460714Y-69096247D02*
X146460714Y-69334342D01*
X146460714Y-69334342D02*
X146413095Y-69429580D01*
X146413095Y-69429580D02*
X146365476Y-69477200D01*
X146365476Y-69477200D02*
X146270238Y-69524819D01*
X146270238Y-69524819D02*
X146032143Y-69524819D01*
X146032143Y-69524819D02*
X145936905Y-69477200D01*
X145936905Y-69477200D02*
X145889286Y-69429580D01*
X194107142Y-71142080D02*
X194059523Y-71189700D01*
X194059523Y-71189700D02*
X193916666Y-71237319D01*
X193916666Y-71237319D02*
X193821428Y-71237319D01*
X193821428Y-71237319D02*
X193678571Y-71189700D01*
X193678571Y-71189700D02*
X193583333Y-71094461D01*
X193583333Y-71094461D02*
X193535714Y-70999223D01*
X193535714Y-70999223D02*
X193488095Y-70808747D01*
X193488095Y-70808747D02*
X193488095Y-70665890D01*
X193488095Y-70665890D02*
X193535714Y-70475414D01*
X193535714Y-70475414D02*
X193583333Y-70380176D01*
X193583333Y-70380176D02*
X193678571Y-70284938D01*
X193678571Y-70284938D02*
X193821428Y-70237319D01*
X193821428Y-70237319D02*
X193916666Y-70237319D01*
X193916666Y-70237319D02*
X194059523Y-70284938D01*
X194059523Y-70284938D02*
X194107142Y-70332557D01*
X195059523Y-71237319D02*
X194488095Y-71237319D01*
X194773809Y-71237319D02*
X194773809Y-70237319D01*
X194773809Y-70237319D02*
X194678571Y-70380176D01*
X194678571Y-70380176D02*
X194583333Y-70475414D01*
X194583333Y-70475414D02*
X194488095Y-70523033D01*
X195916666Y-70237319D02*
X195726190Y-70237319D01*
X195726190Y-70237319D02*
X195630952Y-70284938D01*
X195630952Y-70284938D02*
X195583333Y-70332557D01*
X195583333Y-70332557D02*
X195488095Y-70475414D01*
X195488095Y-70475414D02*
X195440476Y-70665890D01*
X195440476Y-70665890D02*
X195440476Y-71046842D01*
X195440476Y-71046842D02*
X195488095Y-71142080D01*
X195488095Y-71142080D02*
X195535714Y-71189700D01*
X195535714Y-71189700D02*
X195630952Y-71237319D01*
X195630952Y-71237319D02*
X195821428Y-71237319D01*
X195821428Y-71237319D02*
X195916666Y-71189700D01*
X195916666Y-71189700D02*
X195964285Y-71142080D01*
X195964285Y-71142080D02*
X196011904Y-71046842D01*
X196011904Y-71046842D02*
X196011904Y-70808747D01*
X196011904Y-70808747D02*
X195964285Y-70713509D01*
X195964285Y-70713509D02*
X195916666Y-70665890D01*
X195916666Y-70665890D02*
X195821428Y-70618271D01*
X195821428Y-70618271D02*
X195630952Y-70618271D01*
X195630952Y-70618271D02*
X195535714Y-70665890D01*
X195535714Y-70665890D02*
X195488095Y-70713509D01*
X195488095Y-70713509D02*
X195440476Y-70808747D01*
X169032142Y-65024819D02*
X168698809Y-64548628D01*
X168460714Y-65024819D02*
X168460714Y-64024819D01*
X168460714Y-64024819D02*
X168841666Y-64024819D01*
X168841666Y-64024819D02*
X168936904Y-64072438D01*
X168936904Y-64072438D02*
X168984523Y-64120057D01*
X168984523Y-64120057D02*
X169032142Y-64215295D01*
X169032142Y-64215295D02*
X169032142Y-64358152D01*
X169032142Y-64358152D02*
X168984523Y-64453390D01*
X168984523Y-64453390D02*
X168936904Y-64501009D01*
X168936904Y-64501009D02*
X168841666Y-64548628D01*
X168841666Y-64548628D02*
X168460714Y-64548628D01*
X169984523Y-65024819D02*
X169413095Y-65024819D01*
X169698809Y-65024819D02*
X169698809Y-64024819D01*
X169698809Y-64024819D02*
X169603571Y-64167676D01*
X169603571Y-64167676D02*
X169508333Y-64262914D01*
X169508333Y-64262914D02*
X169413095Y-64310533D01*
X170936904Y-65024819D02*
X170365476Y-65024819D01*
X170651190Y-65024819D02*
X170651190Y-64024819D01*
X170651190Y-64024819D02*
X170555952Y-64167676D01*
X170555952Y-64167676D02*
X170460714Y-64262914D01*
X170460714Y-64262914D02*
X170365476Y-64310533D01*
X192011905Y-56749819D02*
X192011905Y-57559342D01*
X192011905Y-57559342D02*
X192059524Y-57654580D01*
X192059524Y-57654580D02*
X192107143Y-57702200D01*
X192107143Y-57702200D02*
X192202381Y-57749819D01*
X192202381Y-57749819D02*
X192392857Y-57749819D01*
X192392857Y-57749819D02*
X192488095Y-57702200D01*
X192488095Y-57702200D02*
X192535714Y-57654580D01*
X192535714Y-57654580D02*
X192583333Y-57559342D01*
X192583333Y-57559342D02*
X192583333Y-56749819D01*
X193583333Y-57749819D02*
X193011905Y-57749819D01*
X193297619Y-57749819D02*
X193297619Y-56749819D01*
X193297619Y-56749819D02*
X193202381Y-56892676D01*
X193202381Y-56892676D02*
X193107143Y-56987914D01*
X193107143Y-56987914D02*
X193011905Y-57035533D01*
X193964286Y-56845057D02*
X194011905Y-56797438D01*
X194011905Y-56797438D02*
X194107143Y-56749819D01*
X194107143Y-56749819D02*
X194345238Y-56749819D01*
X194345238Y-56749819D02*
X194440476Y-56797438D01*
X194440476Y-56797438D02*
X194488095Y-56845057D01*
X194488095Y-56845057D02*
X194535714Y-56940295D01*
X194535714Y-56940295D02*
X194535714Y-57035533D01*
X194535714Y-57035533D02*
X194488095Y-57178390D01*
X194488095Y-57178390D02*
X193916667Y-57749819D01*
X193916667Y-57749819D02*
X194535714Y-57749819D01*
X201166667Y-69657200D02*
X201309524Y-69704819D01*
X201309524Y-69704819D02*
X201547619Y-69704819D01*
X201547619Y-69704819D02*
X201642857Y-69657200D01*
X201642857Y-69657200D02*
X201690476Y-69609580D01*
X201690476Y-69609580D02*
X201738095Y-69514342D01*
X201738095Y-69514342D02*
X201738095Y-69419104D01*
X201738095Y-69419104D02*
X201690476Y-69323866D01*
X201690476Y-69323866D02*
X201642857Y-69276247D01*
X201642857Y-69276247D02*
X201547619Y-69228628D01*
X201547619Y-69228628D02*
X201357143Y-69181009D01*
X201357143Y-69181009D02*
X201261905Y-69133390D01*
X201261905Y-69133390D02*
X201214286Y-69085771D01*
X201214286Y-69085771D02*
X201166667Y-68990533D01*
X201166667Y-68990533D02*
X201166667Y-68895295D01*
X201166667Y-68895295D02*
X201214286Y-68800057D01*
X201214286Y-68800057D02*
X201261905Y-68752438D01*
X201261905Y-68752438D02*
X201357143Y-68704819D01*
X201357143Y-68704819D02*
X201595238Y-68704819D01*
X201595238Y-68704819D02*
X201738095Y-68752438D01*
X202071429Y-68704819D02*
X202309524Y-69704819D01*
X202309524Y-69704819D02*
X202500000Y-68990533D01*
X202500000Y-68990533D02*
X202690476Y-69704819D01*
X202690476Y-69704819D02*
X202928572Y-68704819D01*
X203261905Y-68800057D02*
X203309524Y-68752438D01*
X203309524Y-68752438D02*
X203404762Y-68704819D01*
X203404762Y-68704819D02*
X203642857Y-68704819D01*
X203642857Y-68704819D02*
X203738095Y-68752438D01*
X203738095Y-68752438D02*
X203785714Y-68800057D01*
X203785714Y-68800057D02*
X203833333Y-68895295D01*
X203833333Y-68895295D02*
X203833333Y-68990533D01*
X203833333Y-68990533D02*
X203785714Y-69133390D01*
X203785714Y-69133390D02*
X203214286Y-69704819D01*
X203214286Y-69704819D02*
X203833333Y-69704819D01*
X169011905Y-68767319D02*
X169011905Y-67767319D01*
X169011905Y-67767319D02*
X169250000Y-67767319D01*
X169250000Y-67767319D02*
X169392857Y-67814938D01*
X169392857Y-67814938D02*
X169488095Y-67910176D01*
X169488095Y-67910176D02*
X169535714Y-68005414D01*
X169535714Y-68005414D02*
X169583333Y-68195890D01*
X169583333Y-68195890D02*
X169583333Y-68338747D01*
X169583333Y-68338747D02*
X169535714Y-68529223D01*
X169535714Y-68529223D02*
X169488095Y-68624461D01*
X169488095Y-68624461D02*
X169392857Y-68719700D01*
X169392857Y-68719700D02*
X169250000Y-68767319D01*
X169250000Y-68767319D02*
X169011905Y-68767319D01*
X170535714Y-68767319D02*
X169964286Y-68767319D01*
X170250000Y-68767319D02*
X170250000Y-67767319D01*
X170250000Y-67767319D02*
X170154762Y-67910176D01*
X170154762Y-67910176D02*
X170059524Y-68005414D01*
X170059524Y-68005414D02*
X169964286Y-68053033D01*
X169666666Y-74124819D02*
X169666666Y-74839104D01*
X169666666Y-74839104D02*
X169619047Y-74981961D01*
X169619047Y-74981961D02*
X169523809Y-75077200D01*
X169523809Y-75077200D02*
X169380952Y-75124819D01*
X169380952Y-75124819D02*
X169285714Y-75124819D01*
X170047619Y-74124819D02*
X170666666Y-74124819D01*
X170666666Y-74124819D02*
X170333333Y-74505771D01*
X170333333Y-74505771D02*
X170476190Y-74505771D01*
X170476190Y-74505771D02*
X170571428Y-74553390D01*
X170571428Y-74553390D02*
X170619047Y-74601009D01*
X170619047Y-74601009D02*
X170666666Y-74696247D01*
X170666666Y-74696247D02*
X170666666Y-74934342D01*
X170666666Y-74934342D02*
X170619047Y-75029580D01*
X170619047Y-75029580D02*
X170571428Y-75077200D01*
X170571428Y-75077200D02*
X170476190Y-75124819D01*
X170476190Y-75124819D02*
X170190476Y-75124819D01*
X170190476Y-75124819D02*
X170095238Y-75077200D01*
X170095238Y-75077200D02*
X170047619Y-75029580D01*
X149733333Y-66024819D02*
X149400000Y-65548628D01*
X149161905Y-66024819D02*
X149161905Y-65024819D01*
X149161905Y-65024819D02*
X149542857Y-65024819D01*
X149542857Y-65024819D02*
X149638095Y-65072438D01*
X149638095Y-65072438D02*
X149685714Y-65120057D01*
X149685714Y-65120057D02*
X149733333Y-65215295D01*
X149733333Y-65215295D02*
X149733333Y-65358152D01*
X149733333Y-65358152D02*
X149685714Y-65453390D01*
X149685714Y-65453390D02*
X149638095Y-65501009D01*
X149638095Y-65501009D02*
X149542857Y-65548628D01*
X149542857Y-65548628D02*
X149161905Y-65548628D01*
X150304762Y-65453390D02*
X150209524Y-65405771D01*
X150209524Y-65405771D02*
X150161905Y-65358152D01*
X150161905Y-65358152D02*
X150114286Y-65262914D01*
X150114286Y-65262914D02*
X150114286Y-65215295D01*
X150114286Y-65215295D02*
X150161905Y-65120057D01*
X150161905Y-65120057D02*
X150209524Y-65072438D01*
X150209524Y-65072438D02*
X150304762Y-65024819D01*
X150304762Y-65024819D02*
X150495238Y-65024819D01*
X150495238Y-65024819D02*
X150590476Y-65072438D01*
X150590476Y-65072438D02*
X150638095Y-65120057D01*
X150638095Y-65120057D02*
X150685714Y-65215295D01*
X150685714Y-65215295D02*
X150685714Y-65262914D01*
X150685714Y-65262914D02*
X150638095Y-65358152D01*
X150638095Y-65358152D02*
X150590476Y-65405771D01*
X150590476Y-65405771D02*
X150495238Y-65453390D01*
X150495238Y-65453390D02*
X150304762Y-65453390D01*
X150304762Y-65453390D02*
X150209524Y-65501009D01*
X150209524Y-65501009D02*
X150161905Y-65548628D01*
X150161905Y-65548628D02*
X150114286Y-65643866D01*
X150114286Y-65643866D02*
X150114286Y-65834342D01*
X150114286Y-65834342D02*
X150161905Y-65929580D01*
X150161905Y-65929580D02*
X150209524Y-65977200D01*
X150209524Y-65977200D02*
X150304762Y-66024819D01*
X150304762Y-66024819D02*
X150495238Y-66024819D01*
X150495238Y-66024819D02*
X150590476Y-65977200D01*
X150590476Y-65977200D02*
X150638095Y-65929580D01*
X150638095Y-65929580D02*
X150685714Y-65834342D01*
X150685714Y-65834342D02*
X150685714Y-65643866D01*
X150685714Y-65643866D02*
X150638095Y-65548628D01*
X150638095Y-65548628D02*
X150590476Y-65501009D01*
X150590476Y-65501009D02*
X150495238Y-65453390D01*
X150333333Y-53024819D02*
X150000000Y-52548628D01*
X149761905Y-53024819D02*
X149761905Y-52024819D01*
X149761905Y-52024819D02*
X150142857Y-52024819D01*
X150142857Y-52024819D02*
X150238095Y-52072438D01*
X150238095Y-52072438D02*
X150285714Y-52120057D01*
X150285714Y-52120057D02*
X150333333Y-52215295D01*
X150333333Y-52215295D02*
X150333333Y-52358152D01*
X150333333Y-52358152D02*
X150285714Y-52453390D01*
X150285714Y-52453390D02*
X150238095Y-52501009D01*
X150238095Y-52501009D02*
X150142857Y-52548628D01*
X150142857Y-52548628D02*
X149761905Y-52548628D01*
X151190476Y-52024819D02*
X151000000Y-52024819D01*
X151000000Y-52024819D02*
X150904762Y-52072438D01*
X150904762Y-52072438D02*
X150857143Y-52120057D01*
X150857143Y-52120057D02*
X150761905Y-52262914D01*
X150761905Y-52262914D02*
X150714286Y-52453390D01*
X150714286Y-52453390D02*
X150714286Y-52834342D01*
X150714286Y-52834342D02*
X150761905Y-52929580D01*
X150761905Y-52929580D02*
X150809524Y-52977200D01*
X150809524Y-52977200D02*
X150904762Y-53024819D01*
X150904762Y-53024819D02*
X151095238Y-53024819D01*
X151095238Y-53024819D02*
X151190476Y-52977200D01*
X151190476Y-52977200D02*
X151238095Y-52929580D01*
X151238095Y-52929580D02*
X151285714Y-52834342D01*
X151285714Y-52834342D02*
X151285714Y-52596247D01*
X151285714Y-52596247D02*
X151238095Y-52501009D01*
X151238095Y-52501009D02*
X151190476Y-52453390D01*
X151190476Y-52453390D02*
X151095238Y-52405771D01*
X151095238Y-52405771D02*
X150904762Y-52405771D01*
X150904762Y-52405771D02*
X150809524Y-52453390D01*
X150809524Y-52453390D02*
X150761905Y-52501009D01*
X150761905Y-52501009D02*
X150714286Y-52596247D01*
X244357142Y-78029819D02*
X244023809Y-77553628D01*
X243785714Y-78029819D02*
X243785714Y-77029819D01*
X243785714Y-77029819D02*
X244166666Y-77029819D01*
X244166666Y-77029819D02*
X244261904Y-77077438D01*
X244261904Y-77077438D02*
X244309523Y-77125057D01*
X244309523Y-77125057D02*
X244357142Y-77220295D01*
X244357142Y-77220295D02*
X244357142Y-77363152D01*
X244357142Y-77363152D02*
X244309523Y-77458390D01*
X244309523Y-77458390D02*
X244261904Y-77506009D01*
X244261904Y-77506009D02*
X244166666Y-77553628D01*
X244166666Y-77553628D02*
X243785714Y-77553628D01*
X245309523Y-78029819D02*
X244738095Y-78029819D01*
X245023809Y-78029819D02*
X245023809Y-77029819D01*
X245023809Y-77029819D02*
X244928571Y-77172676D01*
X244928571Y-77172676D02*
X244833333Y-77267914D01*
X244833333Y-77267914D02*
X244738095Y-77315533D01*
X246166666Y-77029819D02*
X245976190Y-77029819D01*
X245976190Y-77029819D02*
X245880952Y-77077438D01*
X245880952Y-77077438D02*
X245833333Y-77125057D01*
X245833333Y-77125057D02*
X245738095Y-77267914D01*
X245738095Y-77267914D02*
X245690476Y-77458390D01*
X245690476Y-77458390D02*
X245690476Y-77839342D01*
X245690476Y-77839342D02*
X245738095Y-77934580D01*
X245738095Y-77934580D02*
X245785714Y-77982200D01*
X245785714Y-77982200D02*
X245880952Y-78029819D01*
X245880952Y-78029819D02*
X246071428Y-78029819D01*
X246071428Y-78029819D02*
X246166666Y-77982200D01*
X246166666Y-77982200D02*
X246214285Y-77934580D01*
X246214285Y-77934580D02*
X246261904Y-77839342D01*
X246261904Y-77839342D02*
X246261904Y-77601247D01*
X246261904Y-77601247D02*
X246214285Y-77506009D01*
X246214285Y-77506009D02*
X246166666Y-77458390D01*
X246166666Y-77458390D02*
X246071428Y-77410771D01*
X246071428Y-77410771D02*
X245880952Y-77410771D01*
X245880952Y-77410771D02*
X245785714Y-77458390D01*
X245785714Y-77458390D02*
X245738095Y-77506009D01*
X245738095Y-77506009D02*
X245690476Y-77601247D01*
X157836779Y-54869819D02*
X157836779Y-55679342D01*
X157836779Y-55679342D02*
X157884398Y-55774580D01*
X157884398Y-55774580D02*
X157932017Y-55822200D01*
X157932017Y-55822200D02*
X158027255Y-55869819D01*
X158027255Y-55869819D02*
X158217731Y-55869819D01*
X158217731Y-55869819D02*
X158312969Y-55822200D01*
X158312969Y-55822200D02*
X158360588Y-55774580D01*
X158360588Y-55774580D02*
X158408207Y-55679342D01*
X158408207Y-55679342D02*
X158408207Y-54869819D01*
X159312969Y-54869819D02*
X159122493Y-54869819D01*
X159122493Y-54869819D02*
X159027255Y-54917438D01*
X159027255Y-54917438D02*
X158979636Y-54965057D01*
X158979636Y-54965057D02*
X158884398Y-55107914D01*
X158884398Y-55107914D02*
X158836779Y-55298390D01*
X158836779Y-55298390D02*
X158836779Y-55679342D01*
X158836779Y-55679342D02*
X158884398Y-55774580D01*
X158884398Y-55774580D02*
X158932017Y-55822200D01*
X158932017Y-55822200D02*
X159027255Y-55869819D01*
X159027255Y-55869819D02*
X159217731Y-55869819D01*
X159217731Y-55869819D02*
X159312969Y-55822200D01*
X159312969Y-55822200D02*
X159360588Y-55774580D01*
X159360588Y-55774580D02*
X159408207Y-55679342D01*
X159408207Y-55679342D02*
X159408207Y-55441247D01*
X159408207Y-55441247D02*
X159360588Y-55346009D01*
X159360588Y-55346009D02*
X159312969Y-55298390D01*
X159312969Y-55298390D02*
X159217731Y-55250771D01*
X159217731Y-55250771D02*
X159027255Y-55250771D01*
X159027255Y-55250771D02*
X158932017Y-55298390D01*
X158932017Y-55298390D02*
X158884398Y-55346009D01*
X158884398Y-55346009D02*
X158836779Y-55441247D01*
D14*
X214700000Y-55500000D02*
G75*
G02*
X212800000Y-55500000I-950000J0D01*
G01*
X212800000Y-55500000D02*
G75*
G02*
X214700000Y-55500000I950000J0D01*
G01*
X150262742Y-56477500D02*
X150737258Y-56477500D01*
X150262742Y-57522500D02*
X150737258Y-57522500D01*
X212550000Y-48800000D02*
X214950000Y-48800000D01*
X212550000Y-51200000D02*
X212550000Y-48800000D01*
X214950000Y-48800000D02*
X214950000Y-51200000D01*
X214950000Y-51200000D02*
X212550000Y-51200000D01*
X160359420Y-66990000D02*
X160640580Y-66990000D01*
X160359420Y-68010000D02*
X160640580Y-68010000D01*
X152140580Y-73490000D02*
X151859420Y-73490000D01*
X152140580Y-74510000D02*
X151859420Y-74510000D01*
X152140580Y-76990000D02*
X151859420Y-76990000D01*
X152140580Y-78010000D02*
X151859420Y-78010000D01*
X160215580Y-52990000D02*
X159934420Y-52990000D01*
X160215580Y-54010000D02*
X159934420Y-54010000D01*
X149627742Y-69977500D02*
X150102258Y-69977500D01*
X149627742Y-71022500D02*
X150102258Y-71022500D01*
X176737500Y-61440000D02*
X176087500Y-61440000D01*
X176737500Y-61440000D02*
X177387500Y-61440000D01*
X176737500Y-64560000D02*
X176087500Y-64560000D01*
X176737500Y-64560000D02*
X177387500Y-64560000D01*
X175575000Y-61490000D02*
X175335000Y-61160000D01*
X175815000Y-61160000D01*
X175575000Y-61490000D01*
G36*
X175575000Y-61490000D02*
G01*
X175335000Y-61160000D01*
X175815000Y-61160000D01*
X175575000Y-61490000D01*
G37*
X160359420Y-70490000D02*
X160640580Y-70490000D01*
X160359420Y-71510000D02*
X160640580Y-71510000D01*
X134450000Y-85000000D02*
G75*
G02*
X132550000Y-85000000I-950000J0D01*
G01*
X132550000Y-85000000D02*
G75*
G02*
X134450000Y-85000000I950000J0D01*
G01*
X160950000Y-87500000D02*
G75*
G02*
X159050000Y-87500000I-950000J0D01*
G01*
X159050000Y-87500000D02*
G75*
G02*
X160950000Y-87500000I950000J0D01*
G01*
X195062258Y-75477500D02*
X194587742Y-75477500D01*
X195062258Y-76522500D02*
X194587742Y-76522500D01*
D15*
X137085000Y-53645000D02*
X140985000Y-53645000D01*
X137085000Y-58545000D02*
X137085000Y-53645000D01*
X140985000Y-53645000D02*
X140985000Y-58545000D01*
X140985000Y-58545000D02*
X137085000Y-58545000D01*
D16*
X138324000Y-54571000D02*
G75*
G02*
X138124000Y-54571000I-100000J0D01*
G01*
X138124000Y-54571000D02*
G75*
G02*
X138324000Y-54571000I100000J0D01*
G01*
D14*
X209500000Y-69400000D02*
X209500000Y-70000000D01*
X209800000Y-69700000D02*
X209500000Y-69400000D01*
X209800000Y-69700000D02*
X209500000Y-70000000D01*
X210000000Y-68950000D02*
X212000000Y-68950000D01*
X210000000Y-73050000D02*
X210000000Y-68950000D01*
X212000000Y-68950000D02*
X212000000Y-73050000D01*
X212000000Y-73050000D02*
X210000000Y-73050000D01*
X145462742Y-66477500D02*
X145937258Y-66477500D01*
X145462742Y-67522500D02*
X145937258Y-67522500D01*
X147365580Y-76990000D02*
X147084420Y-76990000D01*
X147365580Y-78010000D02*
X147084420Y-78010000D01*
X182737258Y-62477500D02*
X182262742Y-62477500D01*
X182737258Y-63522500D02*
X182262742Y-63522500D01*
X138117742Y-63477500D02*
X138592258Y-63477500D01*
X138117742Y-64522500D02*
X138592258Y-64522500D01*
X143450000Y-87500000D02*
G75*
G02*
X141550000Y-87500000I-950000J0D01*
G01*
X141550000Y-87500000D02*
G75*
G02*
X143450000Y-87500000I950000J0D01*
G01*
X182837742Y-75477500D02*
X183312258Y-75477500D01*
X182837742Y-76522500D02*
X183312258Y-76522500D01*
X167990000Y-57110000D02*
X167990000Y-47990000D01*
X168896000Y-54438000D02*
X169291000Y-54042000D01*
X169162000Y-54704000D02*
X169542000Y-54324000D01*
X171557000Y-51776000D02*
X171937000Y-51396000D01*
X171808000Y-52058000D02*
X172203000Y-51662000D01*
X173896000Y-54438000D02*
X174291000Y-54042000D01*
X174162000Y-54704000D02*
X174542000Y-54324000D01*
X176557000Y-51776000D02*
X176937000Y-51396000D01*
X176808000Y-52058000D02*
X177203000Y-51662000D01*
X178896000Y-54438000D02*
X179003000Y-54331000D01*
X179162000Y-54704000D02*
X179269000Y-54597000D01*
X181832000Y-51503000D02*
X181938000Y-51396000D01*
X182098000Y-51769000D02*
X182204000Y-51662000D01*
X183110000Y-47990000D02*
X167990000Y-47990000D01*
X183110000Y-48450000D02*
X167990000Y-48450000D01*
X183110000Y-49550000D02*
X167990000Y-49550000D01*
X183110000Y-57110000D02*
X167990000Y-57110000D01*
X183110000Y-57110000D02*
X183110000Y-47990000D01*
X183350000Y-47750000D02*
X182950000Y-47750000D01*
X183350000Y-48390000D02*
X183350000Y-47750000D01*
X172730000Y-53050000D02*
G75*
G02*
X168370000Y-53050000I-2180000J0D01*
G01*
X168370000Y-53050000D02*
G75*
G02*
X172730000Y-53050000I2180000J0D01*
G01*
X177730000Y-53050000D02*
G75*
G02*
X173370000Y-53050000I-2180000J0D01*
G01*
X173370000Y-53050000D02*
G75*
G02*
X177730000Y-53050000I2180000J0D01*
G01*
X182730000Y-53050000D02*
G75*
G02*
X178370000Y-53050000I-2180000J0D01*
G01*
X178370000Y-53050000D02*
G75*
G02*
X182730000Y-53050000I2180000J0D01*
G01*
X147084420Y-73490000D02*
X147365580Y-73490000D01*
X147084420Y-74510000D02*
X147365580Y-74510000D01*
X194939819Y-67740000D02*
X194658659Y-67740000D01*
X194939819Y-68760000D02*
X194658659Y-68760000D01*
X201690000Y-49285000D02*
X201690000Y-51785000D01*
X201690000Y-51785000D02*
X202740000Y-51785000D01*
X206740000Y-47315000D02*
X202860000Y-47315000D01*
X206860000Y-51785000D02*
X206860000Y-52775000D01*
X207910000Y-49285000D02*
X207910000Y-51785000D01*
X207910000Y-51785000D02*
X206860000Y-51785000D01*
X138362500Y-66615000D02*
X137562500Y-66615000D01*
X138362500Y-66615000D02*
X139162500Y-66615000D01*
X138362500Y-69735000D02*
X137562500Y-69735000D01*
X138362500Y-69735000D02*
X139162500Y-69735000D01*
X137062500Y-66690000D02*
X136822500Y-66360000D01*
X137302500Y-66360000D01*
X137062500Y-66690000D01*
G36*
X137062500Y-66690000D02*
G01*
X136822500Y-66360000D01*
X137302500Y-66360000D01*
X137062500Y-66690000D01*
G37*
D17*
X216843331Y-46172127D02*
X239843331Y-46172127D01*
X216843331Y-96172127D02*
X216843331Y-46172127D01*
X239843331Y-46172127D02*
X239843331Y-96172127D01*
X239843331Y-96172127D02*
X216843331Y-96172127D01*
D14*
X141875000Y-74230000D02*
X141075000Y-74230000D01*
X141875000Y-74230000D02*
X142675000Y-74230000D01*
X141875000Y-77350000D02*
X141075000Y-77350000D01*
X141875000Y-77350000D02*
X142675000Y-77350000D01*
X140575000Y-74280000D02*
X140335000Y-73950000D01*
X140815000Y-73950000D01*
X140575000Y-74280000D01*
G36*
X140575000Y-74280000D02*
G01*
X140335000Y-73950000D01*
X140815000Y-73950000D01*
X140575000Y-74280000D01*
G37*
X137140580Y-75490000D02*
X136859420Y-75490000D01*
X137140580Y-76510000D02*
X136859420Y-76510000D01*
X188884420Y-75490000D02*
X189165580Y-75490000D01*
X188884420Y-76510000D02*
X189165580Y-76510000D01*
X199884420Y-75490000D02*
X200165580Y-75490000D01*
X199884420Y-76510000D02*
X200165580Y-76510000D01*
X183790000Y-66290000D02*
X183790000Y-66700000D01*
X183790000Y-68300000D02*
X183790000Y-70700000D01*
X183790000Y-72300000D02*
X183790000Y-72710000D01*
X183790000Y-72710000D02*
X190210000Y-72710000D01*
X190210000Y-66290000D02*
X183790000Y-66290000D01*
X190210000Y-66700000D02*
X190210000Y-66290000D01*
X190210000Y-70700000D02*
X190210000Y-68300000D01*
X190210000Y-72710000D02*
X190210000Y-72430000D01*
X112700000Y-56200000D02*
X112700000Y-56600000D01*
X112940000Y-56440000D02*
X112940000Y-81560000D01*
X113340000Y-56200000D02*
X112700000Y-56200000D01*
X113400000Y-56440000D02*
X113400000Y-81560000D01*
X114500000Y-56440000D02*
X114500000Y-81560000D01*
X116453000Y-57718000D02*
X116346000Y-57612000D01*
X116719000Y-57452000D02*
X116612000Y-57346000D01*
X116726000Y-62993000D02*
X116346000Y-62613000D01*
X116726000Y-67993000D02*
X116346000Y-67613000D01*
X116726000Y-72993000D02*
X116346000Y-72613000D01*
X116726000Y-77993000D02*
X116346000Y-77613000D01*
X117008000Y-62742000D02*
X116612000Y-62347000D01*
X117008000Y-67742000D02*
X116612000Y-67347000D01*
X117008000Y-72742000D02*
X116612000Y-72347000D01*
X117008000Y-77742000D02*
X116612000Y-77347000D01*
X119388000Y-60654000D02*
X119281000Y-60547000D01*
X119388000Y-65654000D02*
X118992000Y-65259000D01*
X119388000Y-70654000D02*
X118992000Y-70259000D01*
X119388000Y-75654000D02*
X118992000Y-75259000D01*
X119388000Y-80654000D02*
X118992000Y-80259000D01*
X119654000Y-60388000D02*
X119547000Y-60281000D01*
X119654000Y-65388000D02*
X119274000Y-65008000D01*
X119654000Y-70388000D02*
X119274000Y-70008000D01*
X119654000Y-75388000D02*
X119274000Y-75008000D01*
X119654000Y-80388000D02*
X119274000Y-80008000D01*
X122060000Y-56440000D02*
X112940000Y-56440000D01*
X122060000Y-56440000D02*
X122060000Y-81560000D01*
X122060000Y-81560000D02*
X112940000Y-81560000D01*
X120180000Y-59000000D02*
G75*
G02*
X115820000Y-59000000I-2180000J0D01*
G01*
X115820000Y-59000000D02*
G75*
G02*
X120180000Y-59000000I2180000J0D01*
G01*
X120180000Y-64000000D02*
G75*
G02*
X115820000Y-64000000I-2180000J0D01*
G01*
X115820000Y-64000000D02*
G75*
G02*
X120180000Y-64000000I2180000J0D01*
G01*
X120180000Y-69000000D02*
G75*
G02*
X115820000Y-69000000I-2180000J0D01*
G01*
X115820000Y-69000000D02*
G75*
G02*
X120180000Y-69000000I2180000J0D01*
G01*
X120180000Y-74000000D02*
G75*
G02*
X115820000Y-74000000I-2180000J0D01*
G01*
X115820000Y-74000000D02*
G75*
G02*
X120180000Y-74000000I2180000J0D01*
G01*
X120180000Y-79000000D02*
G75*
G02*
X115820000Y-79000000I-2180000J0D01*
G01*
X115820000Y-79000000D02*
G75*
G02*
X120180000Y-79000000I2180000J0D01*
G01*
D17*
X175250000Y-78100000D02*
X175250000Y-78230000D01*
X175250000Y-91770000D02*
X175250000Y-98100000D01*
X175250000Y-98100000D02*
X193250000Y-98100000D01*
X193250000Y-78100000D02*
X175250000Y-78100000D01*
X193250000Y-78100000D02*
X193250000Y-78230000D01*
X193250000Y-98100000D02*
X193250000Y-91770000D01*
D18*
X194850000Y-91000000D02*
G75*
G02*
X194650000Y-91000000I-100000J0D01*
G01*
X194650000Y-91000000D02*
G75*
G02*
X194850000Y-91000000I100000J0D01*
G01*
D14*
X248227500Y-79837742D02*
X248227500Y-80312258D01*
X249272500Y-79837742D02*
X249272500Y-80312258D01*
X169912258Y-61477500D02*
X169437742Y-61477500D01*
X169912258Y-62522500D02*
X169437742Y-62522500D01*
X177640580Y-73490000D02*
X177359420Y-73490000D01*
X177640580Y-74510000D02*
X177359420Y-74510000D01*
X204120000Y-75400000D02*
X204120000Y-76400000D01*
X207480000Y-75400000D02*
X207480000Y-76400000D01*
X132758455Y-53100000D02*
X132758455Y-54900000D01*
X132758455Y-58100000D02*
X132758455Y-59900000D01*
X132758455Y-63100000D02*
X132758455Y-67400000D01*
X132758455Y-70600000D02*
X132758455Y-72400000D01*
X132758455Y-75600000D02*
X132758455Y-77400000D01*
X136258455Y-49600000D02*
X138058455Y-49600000D01*
X136258455Y-80900000D02*
X138058455Y-80900000D01*
X141258455Y-49600000D02*
X143058455Y-49600000D01*
X141258455Y-80900000D02*
X143058455Y-80900000D01*
X146258455Y-49600000D02*
X150558455Y-49600000D01*
X146258455Y-80900000D02*
X150558455Y-80900000D01*
X153758455Y-49600000D02*
X155558455Y-49600000D01*
X153758455Y-80900000D02*
X155558455Y-80900000D01*
X158758455Y-49600000D02*
X160558455Y-49600000D01*
X158758455Y-80900000D02*
X160558455Y-80900000D01*
X164058455Y-53100000D02*
X164058455Y-54900000D01*
X164058455Y-58100000D02*
X164058455Y-59900000D01*
X164058455Y-63100000D02*
X164058455Y-67400000D01*
X164058455Y-70600000D02*
X164058455Y-72400000D01*
X164058455Y-75600000D02*
X164058455Y-77400000D01*
X127500000Y-79700000D02*
X127500000Y-78300000D01*
X128200000Y-77600000D02*
X128800000Y-77600000D01*
X128800000Y-80400000D02*
X128200000Y-80400000D01*
X129500000Y-78300000D02*
X129500000Y-79700000D01*
X127500000Y-78300000D02*
G75*
G02*
X128200000Y-77600000I699999J1D01*
G01*
X128200000Y-80400000D02*
G75*
G02*
X127500000Y-79700000I0J700000D01*
G01*
X128800000Y-77600000D02*
G75*
G02*
X129500000Y-78300000I1J-699999D01*
G01*
X129500000Y-79700000D02*
G75*
G02*
X128800000Y-80400000I-700000J0D01*
G01*
X145182742Y-53477500D02*
X145657258Y-53477500D01*
X145182742Y-54522500D02*
X145657258Y-54522500D01*
D17*
X146135000Y-59300000D02*
X149665000Y-59300000D01*
X149665000Y-64300000D02*
X146135000Y-64300000D01*
D16*
X146564000Y-59979000D02*
G75*
G02*
X146364000Y-59979000I-100000J0D01*
G01*
X146364000Y-59979000D02*
G75*
G02*
X146564000Y-59979000I100000J0D01*
G01*
D14*
X176675000Y-67490000D02*
X175875000Y-67490000D01*
X176675000Y-67490000D02*
X177475000Y-67490000D01*
X176675000Y-70610000D02*
X175875000Y-70610000D01*
X176675000Y-70610000D02*
X177475000Y-70610000D01*
X178215000Y-70890000D02*
X177735000Y-70890000D01*
X177975000Y-70560000D01*
X178215000Y-70890000D01*
G36*
X178215000Y-70890000D02*
G01*
X177735000Y-70890000D01*
X177975000Y-70560000D01*
X178215000Y-70890000D01*
G37*
X152700000Y-85000000D02*
G75*
G02*
X150800000Y-85000000I-950000J0D01*
G01*
X150800000Y-85000000D02*
G75*
G02*
X152700000Y-85000000I950000J0D01*
G01*
D15*
X186700000Y-49080000D02*
X196270000Y-49080000D01*
X186700000Y-55460000D02*
X186700000Y-49080000D01*
X196270000Y-49080000D02*
X196270000Y-55460000D01*
X196270000Y-55460000D02*
X186700000Y-55460000D01*
D10*
G36*
X196300000Y-53210000D02*
G01*
X195500000Y-53210000D01*
X195500000Y-51410000D01*
X196300000Y-51410000D01*
X196300000Y-53210000D01*
G37*
D14*
X127500000Y-61200000D02*
X127500000Y-59800000D01*
X128200000Y-59100000D02*
X128800000Y-59100000D01*
X128800000Y-61900000D02*
X128200000Y-61900000D01*
X129500000Y-59800000D02*
X129500000Y-61200000D01*
X127500000Y-59800000D02*
G75*
G02*
X128200000Y-59100000I700000J0D01*
G01*
X128200000Y-61900000D02*
G75*
G02*
X127500000Y-61200000I-1J699999D01*
G01*
X128800000Y-59100000D02*
G75*
G02*
X129500000Y-59800000I0J-700000D01*
G01*
X129500000Y-61200000D02*
G75*
G02*
X128800000Y-61900000I-699999J-1D01*
G01*
X145182742Y-56477500D02*
X145657258Y-56477500D01*
X145182742Y-57522500D02*
X145657258Y-57522500D01*
X170237258Y-88477500D02*
X169762742Y-88477500D01*
X170237258Y-89522500D02*
X169762742Y-89522500D01*
X197690000Y-78780000D02*
X197690000Y-88600000D01*
X198920000Y-78780000D02*
X197690000Y-78780000D01*
X204890000Y-78780000D02*
X201220000Y-78780000D01*
X208390000Y-90420000D02*
X207530000Y-90420000D01*
X209870000Y-78780000D02*
X207190000Y-78780000D01*
X209870000Y-79500000D02*
X209870000Y-78780000D01*
X209870000Y-83200000D02*
X209870000Y-80900000D01*
X209870000Y-89050000D02*
X209870000Y-84600000D01*
X160055000Y-75469420D02*
X160055000Y-75750580D01*
X161075000Y-75469420D02*
X161075000Y-75750580D01*
D12*
X244300000Y-72000000D02*
X249300000Y-72000000D01*
X249300000Y-59000000D01*
X244300000Y-59000000D01*
X244300000Y-72000000D01*
D19*
X247141228Y-70900000D02*
G75*
G02*
X246458772Y-70900000I-341228J0D01*
G01*
X246458772Y-70900000D02*
G75*
G02*
X247141228Y-70900000I341228J0D01*
G01*
D14*
X202500000Y-58840000D02*
X203300000Y-58040000D01*
X202500000Y-63450000D02*
X202500000Y-58840000D01*
X203300000Y-58040000D02*
X211000000Y-58040000D01*
X211000000Y-58040000D02*
X211000000Y-63450000D01*
X211000000Y-63450000D02*
X202500000Y-63450000D01*
D20*
X205775000Y-58950000D02*
G75*
G02*
X205225000Y-58950000I-275000J0D01*
G01*
X205225000Y-58950000D02*
G75*
G02*
X205775000Y-58950000I275000J0D01*
G01*
D14*
X156817500Y-74015000D02*
X156017500Y-74015000D01*
X156817500Y-74015000D02*
X157617500Y-74015000D01*
X156817500Y-77135000D02*
X156017500Y-77135000D01*
X156817500Y-77135000D02*
X157617500Y-77135000D01*
X155517500Y-74065000D02*
X155277500Y-73735000D01*
X155757500Y-73735000D01*
X155517500Y-74065000D01*
G36*
X155517500Y-74065000D02*
G01*
X155277500Y-73735000D01*
X155757500Y-73735000D01*
X155517500Y-74065000D01*
G37*
X127500000Y-71700000D02*
X127500000Y-70300000D01*
X128200000Y-69600000D02*
X128800000Y-69600000D01*
X128800000Y-72400000D02*
X128200000Y-72400000D01*
X129500000Y-70300000D02*
X129500000Y-71700000D01*
X127500000Y-70300000D02*
G75*
G02*
X128200000Y-69600000I700000J0D01*
G01*
X128200000Y-72400000D02*
G75*
G02*
X127500000Y-71700000I-1J699999D01*
G01*
X128800000Y-69600000D02*
G75*
G02*
X129500000Y-70300000I0J-700000D01*
G01*
X129500000Y-71700000D02*
G75*
G02*
X128800000Y-72400000I-699999J-1D01*
G01*
X145437742Y-69977500D02*
X145912258Y-69977500D01*
X145437742Y-71022500D02*
X145912258Y-71022500D01*
X127977500Y-65237258D02*
X127977500Y-64762742D01*
X129022500Y-65237258D02*
X129022500Y-64762742D01*
X194609420Y-71740000D02*
X194890580Y-71740000D01*
X194609420Y-72760000D02*
X194890580Y-72760000D01*
X169437742Y-65477500D02*
X169912258Y-65477500D01*
X169437742Y-66522500D02*
X169912258Y-66522500D01*
X188750000Y-58890000D02*
X189550000Y-58090000D01*
X188750000Y-63500000D02*
X188750000Y-58890000D01*
X189550000Y-58090000D02*
X197250000Y-58090000D01*
X197250000Y-58090000D02*
X197250000Y-63500000D01*
X197250000Y-63500000D02*
X188750000Y-63500000D01*
D20*
X192025000Y-59000000D02*
G75*
G02*
X191475000Y-59000000I-275000J0D01*
G01*
X191475000Y-59000000D02*
G75*
G02*
X192025000Y-59000000I275000J0D01*
G01*
D14*
X199290000Y-66040000D02*
X199290000Y-66450000D01*
X199290000Y-68050000D02*
X199290000Y-70450000D01*
X199290000Y-72050000D02*
X199290000Y-72460000D01*
X199290000Y-72460000D02*
X205710000Y-72460000D01*
X205710000Y-66040000D02*
X199290000Y-66040000D01*
X205710000Y-66450000D02*
X205710000Y-66040000D01*
X205710000Y-70450000D02*
X205710000Y-68050000D01*
X205710000Y-72460000D02*
X205710000Y-72180000D01*
X168115000Y-71062500D02*
X168115000Y-70412500D01*
X168115000Y-71062500D02*
X168115000Y-71712500D01*
X171235000Y-71062500D02*
X171235000Y-70412500D01*
X171235000Y-71062500D02*
X171235000Y-71712500D01*
X168165000Y-72225000D02*
X167835000Y-72465000D01*
X167835000Y-71985000D01*
X168165000Y-72225000D01*
G36*
X168165000Y-72225000D02*
G01*
X167835000Y-72465000D01*
X167835000Y-71985000D01*
X168165000Y-72225000D01*
G37*
X168670000Y-75670000D02*
X170000000Y-75670000D01*
X168670000Y-77000000D02*
X168670000Y-75670000D01*
X168670000Y-78270000D02*
X168670000Y-85950000D01*
X168670000Y-78270000D02*
X171330000Y-78270000D01*
X168670000Y-85950000D02*
X171330000Y-85950000D01*
X171330000Y-78270000D02*
X171330000Y-85950000D01*
X149662742Y-66477500D02*
X150137258Y-66477500D01*
X149662742Y-67522500D02*
X150137258Y-67522500D01*
X150262742Y-53477500D02*
X150737258Y-53477500D01*
X150262742Y-54522500D02*
X150737258Y-54522500D01*
X244477500Y-80312258D02*
X244477500Y-79837742D01*
X245522500Y-80312258D02*
X245522500Y-79837742D01*
D15*
X155900000Y-56165000D02*
X161350000Y-56165000D01*
X155900000Y-64965000D02*
X155900000Y-56165000D01*
X161350000Y-56165000D02*
X161350000Y-64965000D01*
X161350000Y-64965000D02*
X155900000Y-64965000D01*
D21*
X160671000Y-59443000D02*
G75*
G02*
X160113000Y-59443000I-279000J0D01*
G01*
X160113000Y-59443000D02*
G75*
G02*
X160671000Y-59443000I279000J0D01*
G01*
%LPC*%
D22*
X213750000Y-55500000D03*
D23*
X149675000Y-57000000D03*
X151325000Y-57000000D03*
D24*
X213750000Y-50000000D03*
D25*
X159725000Y-67500000D03*
X161275000Y-67500000D03*
D26*
X152775000Y-74000000D03*
X151225000Y-74000000D03*
X152775000Y-77500000D03*
X151225000Y-77500000D03*
X160850000Y-53500000D03*
X159300000Y-53500000D03*
D23*
X149040000Y-70500000D03*
X150690000Y-70500000D03*
D27*
X175800000Y-62050000D03*
X175800000Y-63950000D03*
X177675000Y-63000000D03*
D28*
X116500000Y-51500000D03*
D29*
X116500000Y-51500000D03*
D25*
X159725000Y-71000000D03*
X161275000Y-71000000D03*
D22*
X133500000Y-85000000D03*
X160000000Y-87500000D03*
D30*
X195650000Y-76000000D03*
X194000000Y-76000000D03*
D31*
X136570000Y-54190000D03*
X136570000Y-55460000D03*
X136570000Y-56730000D03*
X136570000Y-58000000D03*
X141500000Y-58000000D03*
X141500000Y-56730000D03*
X141500000Y-55460000D03*
X141500000Y-54190000D03*
D28*
X116500000Y-87000000D03*
D29*
X116500000Y-87000000D03*
D32*
X211000000Y-69700000D03*
X211000000Y-71000000D03*
X211000000Y-72300000D03*
D23*
X144875000Y-67000000D03*
X146525000Y-67000000D03*
D26*
X148000000Y-77500000D03*
X146450000Y-77500000D03*
D30*
X183325000Y-63000000D03*
X181675000Y-63000000D03*
D23*
X137530000Y-64000000D03*
X139180000Y-64000000D03*
D22*
X142500000Y-87500000D03*
D23*
X182250000Y-76000000D03*
X183900000Y-76000000D03*
D33*
X180550000Y-53050000D03*
D34*
X175550000Y-53050000D03*
X170550000Y-53050000D03*
D25*
X146450000Y-74000000D03*
X148000000Y-74000000D03*
D26*
X195574239Y-68250000D03*
X194024239Y-68250000D03*
D35*
X206300000Y-52000000D03*
X205300000Y-52000000D03*
X204300000Y-52000000D03*
X203300000Y-52000000D03*
D36*
X207600000Y-48125000D03*
X202000000Y-48125000D03*
D37*
X137225000Y-67200000D03*
X137225000Y-67850000D03*
X137225000Y-68500000D03*
X137225000Y-69150000D03*
X139500000Y-69150000D03*
X139500000Y-68500000D03*
X139500000Y-67850000D03*
X139500000Y-67200000D03*
D28*
X246500000Y-51500000D03*
D29*
X246500000Y-51500000D03*
D38*
X216843331Y-62172127D03*
X216843331Y-64712127D03*
X216843331Y-67252127D03*
X216843331Y-69792127D03*
X216843331Y-72332127D03*
X216843331Y-74872127D03*
X216843331Y-77412127D03*
X216843331Y-79952127D03*
X216843331Y-82492127D03*
X216843331Y-85032127D03*
X216843331Y-87572127D03*
X216843331Y-90112127D03*
X239843331Y-90112127D03*
X239843331Y-87572127D03*
X239843331Y-85032127D03*
X239843331Y-82492127D03*
X239843331Y-79952127D03*
X239843331Y-77412127D03*
X239843331Y-74872127D03*
X239843331Y-72332127D03*
X239843331Y-69792127D03*
X239843331Y-67252127D03*
X239843331Y-64712127D03*
X239843331Y-62172127D03*
D39*
X140737500Y-74840000D03*
X140737500Y-75790000D03*
X140737500Y-76740000D03*
X143012500Y-76740000D03*
X143012500Y-74840000D03*
D26*
X137775000Y-76000000D03*
X136225000Y-76000000D03*
D25*
X188250000Y-76000000D03*
X189800000Y-76000000D03*
X199250000Y-76000000D03*
X200800000Y-76000000D03*
D40*
X184100000Y-67500000D03*
X189900000Y-67500000D03*
X184100000Y-71500000D03*
X189900000Y-71500000D03*
D33*
X118000000Y-59000000D03*
D34*
X118000000Y-64000000D03*
X118000000Y-69000000D03*
X118000000Y-74000000D03*
X118000000Y-79000000D03*
D41*
X193000000Y-91000000D03*
X193000000Y-89500000D03*
X193000000Y-88000000D03*
X193000000Y-86500000D03*
X193000000Y-85000000D03*
X193000000Y-83500000D03*
X193000000Y-82000000D03*
X193000000Y-80500000D03*
X193000000Y-79000000D03*
X175500000Y-79000000D03*
X175500000Y-80500000D03*
X175500000Y-82000000D03*
X175500000Y-83500000D03*
X175500000Y-85000000D03*
X175500000Y-86500000D03*
X175500000Y-88000000D03*
X175500000Y-89500000D03*
X175500000Y-91000000D03*
D42*
X184390000Y-85900000D03*
X183290000Y-85900000D03*
X182190000Y-85900000D03*
X184390000Y-84800000D03*
X183290000Y-84800000D03*
X182190000Y-84800000D03*
X184390000Y-83700000D03*
X183290000Y-83700000D03*
X182190000Y-83700000D03*
D43*
X248750000Y-79250000D03*
X248750000Y-80900000D03*
D30*
X170500000Y-62000000D03*
X168850000Y-62000000D03*
D26*
X178275000Y-74000000D03*
X176725000Y-74000000D03*
D44*
X204600000Y-76800000D03*
D45*
X205400000Y-76800000D03*
X206200000Y-76800000D03*
D44*
X207000000Y-76800000D03*
X207000000Y-75000000D03*
D45*
X206200000Y-75000000D03*
X205400000Y-75000000D03*
D44*
X204600000Y-75000000D03*
D46*
X133158455Y-50000000D03*
D47*
X133158455Y-51650000D03*
D48*
X133158455Y-56500000D03*
X133158455Y-61500000D03*
X133158455Y-69000000D03*
X133158455Y-74000000D03*
D47*
X133158455Y-78850000D03*
D46*
X133158455Y-80500000D03*
D49*
X134808455Y-50000000D03*
X134808455Y-80500000D03*
D50*
X139658455Y-50000000D03*
X139658455Y-80500000D03*
X144658455Y-50000000D03*
X144658455Y-80500000D03*
X152158455Y-50000000D03*
X152158455Y-80500000D03*
X157158455Y-50000000D03*
X157158455Y-80500000D03*
D49*
X162008455Y-50000000D03*
X162008455Y-80500000D03*
D46*
X163658455Y-50000000D03*
D47*
X163658455Y-51650000D03*
D48*
X163658455Y-56500000D03*
X163658455Y-61500000D03*
X163658455Y-69000000D03*
X163658455Y-74000000D03*
D47*
X163658455Y-78850000D03*
D46*
X163658455Y-80500000D03*
D51*
X128500000Y-78350000D03*
D52*
X128500000Y-79650000D03*
D23*
X144595000Y-54000000D03*
X146245000Y-54000000D03*
D53*
X145030000Y-59525000D03*
X145030000Y-60175000D03*
X145030000Y-60825000D03*
X145030000Y-61475000D03*
X145030000Y-62125000D03*
X145030000Y-62775000D03*
X145030000Y-63425000D03*
X145030000Y-64075000D03*
X150770000Y-64075000D03*
X150770000Y-63425000D03*
X150770000Y-62775000D03*
X150770000Y-62125000D03*
X150770000Y-61475000D03*
X150770000Y-60825000D03*
X150770000Y-60175000D03*
X150770000Y-59525000D03*
D54*
X177812500Y-70000000D03*
X177812500Y-69050000D03*
X177812500Y-68100000D03*
X175537500Y-68100000D03*
X175537500Y-70000000D03*
D22*
X151750000Y-85000000D03*
D55*
X193500000Y-54810000D03*
X189470000Y-54810000D03*
X193500000Y-53540000D03*
X189470000Y-53540000D03*
X193500000Y-52270000D03*
X189470000Y-52270000D03*
X193500000Y-51000000D03*
X189470000Y-51000000D03*
X193500000Y-49730000D03*
X189470000Y-49730000D03*
D56*
X128500000Y-61150000D03*
D57*
X128500000Y-59850000D03*
D23*
X144595000Y-57000000D03*
X146245000Y-57000000D03*
D30*
X170825000Y-89000000D03*
X169175000Y-89000000D03*
D58*
X206905000Y-90050000D03*
X205805000Y-90050000D03*
X204705000Y-90050000D03*
X203605000Y-90050000D03*
X202505000Y-90050000D03*
X201405000Y-90050000D03*
X200305000Y-90050000D03*
D59*
X199255000Y-90050000D03*
D60*
X209540000Y-83900000D03*
X209540000Y-80200000D03*
D61*
X209365000Y-89925000D03*
D62*
X206040000Y-79225000D03*
X200070000Y-79225000D03*
D63*
X198045000Y-89700000D03*
D64*
X160565000Y-74835000D03*
X160565000Y-76385000D03*
D28*
X246500000Y-87000000D03*
D29*
X246500000Y-87000000D03*
D65*
X248000000Y-69500000D03*
X248000000Y-67500000D03*
X248000000Y-63500000D03*
X248000000Y-61500000D03*
X245600000Y-69500000D03*
X245600000Y-67500000D03*
X245600000Y-63500000D03*
X245600000Y-61500000D03*
D66*
X203750000Y-58840000D03*
X203750000Y-60110000D03*
X203750000Y-61380000D03*
X203750000Y-62650000D03*
X209750000Y-62650000D03*
X209750000Y-61380000D03*
X209750000Y-60110000D03*
X209750000Y-58840000D03*
D39*
X155680000Y-74625000D03*
X155680000Y-75575000D03*
X155680000Y-76525000D03*
X157955000Y-76525000D03*
X157955000Y-74625000D03*
D56*
X128500000Y-71650000D03*
D57*
X128500000Y-70350000D03*
D23*
X144850000Y-70500000D03*
X146500000Y-70500000D03*
D67*
X128500000Y-65825000D03*
X128500000Y-64175000D03*
D25*
X193975000Y-72250000D03*
X195525000Y-72250000D03*
D23*
X168850000Y-66000000D03*
X170500000Y-66000000D03*
D66*
X190000000Y-58890000D03*
X190000000Y-60160000D03*
X190000000Y-61430000D03*
X190000000Y-62700000D03*
X196000000Y-62700000D03*
X196000000Y-61430000D03*
X196000000Y-60160000D03*
X196000000Y-58890000D03*
D40*
X199600000Y-67250000D03*
X205400000Y-67250000D03*
X199600000Y-71250000D03*
X205400000Y-71250000D03*
D68*
X168725000Y-72000000D03*
X170625000Y-72000000D03*
X169675000Y-70125000D03*
D69*
X170000000Y-77000000D03*
D70*
X170000000Y-79540000D03*
X170000000Y-82080000D03*
X170000000Y-84620000D03*
D23*
X149075000Y-67000000D03*
X150725000Y-67000000D03*
X149675000Y-54000000D03*
X151325000Y-54000000D03*
D67*
X245000000Y-80900000D03*
X245000000Y-79250000D03*
D71*
X160900000Y-57665000D03*
X160250000Y-57665000D03*
X159600000Y-57665000D03*
X158950000Y-57665000D03*
X158300000Y-57665000D03*
X157650000Y-57665000D03*
X157000000Y-57665000D03*
X156350000Y-57665000D03*
X156350000Y-63465000D03*
X157000000Y-63465000D03*
X157650000Y-63465000D03*
X158300000Y-63465000D03*
X158950000Y-63465000D03*
X159600000Y-63465000D03*
X160250000Y-63465000D03*
X160900000Y-63465000D03*
%LPD*%
M02*
