G04 #@! TF.GenerationSoftware,KiCad,Pcbnew,7.0.10*
G04 #@! TF.CreationDate,2024-03-08T00:31:45-08:00*
G04 #@! TF.ProjectId,Soil Power Sensor,536f696c-2050-46f7-9765-722053656e73,2.2.0*
G04 #@! TF.SameCoordinates,Original*
G04 #@! TF.FileFunction,Copper,L2,Bot*
G04 #@! TF.FilePolarity,Positive*
%FSLAX46Y46*%
G04 Gerber Fmt 4.6, Leading zero omitted, Abs format (unit mm)*
G04 Created by KiCad (PCBNEW 7.0.10) date 2024-03-08 00:31:45*
%MOMM*%
%LPD*%
G01*
G04 APERTURE LIST*
G04 #@! TA.AperFunction,ComponentPad*
%ADD10R,2.600000X2.600000*%
G04 #@! TD*
G04 #@! TA.AperFunction,ComponentPad*
%ADD11C,2.600000*%
G04 #@! TD*
G04 #@! TA.AperFunction,ConnectorPad*
%ADD12C,5.700000*%
G04 #@! TD*
G04 #@! TA.AperFunction,ComponentPad*
%ADD13C,3.600000*%
G04 #@! TD*
G04 #@! TA.AperFunction,ComponentPad*
%ADD14R,1.700000X1.700000*%
G04 #@! TD*
G04 #@! TA.AperFunction,ComponentPad*
%ADD15O,1.700000X1.700000*%
G04 #@! TD*
G04 #@! TA.AperFunction,SMDPad,CuDef*
%ADD16R,3.962400X2.336800*%
G04 #@! TD*
G04 #@! TA.AperFunction,SMDPad,CuDef*
%ADD17R,3.962400X5.080000*%
G04 #@! TD*
G04 #@! TA.AperFunction,ViaPad*
%ADD18C,0.600000*%
G04 #@! TD*
G04 #@! TA.AperFunction,Conductor*
%ADD19C,0.200000*%
G04 #@! TD*
G04 APERTURE END LIST*
D10*
X180550000Y-53050000D03*
D11*
X175550000Y-53050000D03*
X170550000Y-53050000D03*
D10*
X121000000Y-59000000D03*
D11*
X121000000Y-64000000D03*
X121000000Y-69000000D03*
X121000000Y-74000000D03*
X121000000Y-79000000D03*
D12*
X246500000Y-87000000D03*
D13*
X246500000Y-87000000D03*
D12*
X246500000Y-51500000D03*
D13*
X246500000Y-51500000D03*
X116500000Y-87000000D03*
D12*
X116500000Y-87000000D03*
D13*
X116500000Y-51500000D03*
D12*
X116500000Y-51500000D03*
D14*
X170775000Y-81500000D03*
D15*
X168235000Y-81500000D03*
X246750000Y-68805000D03*
X246750000Y-66265000D03*
D14*
X246750000Y-63725000D03*
D16*
X234928131Y-75740987D03*
D17*
X221847131Y-75740987D03*
X199342731Y-75740987D03*
D16*
X186261731Y-75740987D03*
X186414600Y-52000000D03*
D17*
X199495600Y-52000000D03*
X222000000Y-52000000D03*
D16*
X235081000Y-52000000D03*
X234940613Y-87611480D03*
D17*
X221859613Y-87611480D03*
X199355213Y-87611480D03*
D16*
X186274213Y-87611480D03*
X234928131Y-63870494D03*
D17*
X221847131Y-63870494D03*
X199342731Y-63870494D03*
D16*
X186261731Y-63870494D03*
D18*
X179400000Y-65800000D03*
X189800000Y-61000000D03*
X139000000Y-61800000D03*
X149400000Y-62200000D03*
X162800000Y-83000000D03*
X149600000Y-75800000D03*
X159200000Y-77200000D03*
X208400000Y-86800000D03*
X202000000Y-85800000D03*
X207400000Y-77400000D03*
X193600000Y-61400000D03*
X212600000Y-58000000D03*
X181400000Y-69800000D03*
X187000000Y-65600000D03*
X173600000Y-72600000D03*
X190600000Y-89800000D03*
X172200000Y-86000000D03*
X157000000Y-68600000D03*
X152800000Y-75800000D03*
X136600000Y-72000000D03*
X139800000Y-72000000D03*
X152200000Y-69800000D03*
X238600000Y-57400000D03*
X138800000Y-58000000D03*
X152600000Y-72800000D03*
X162000000Y-65200000D03*
X166000000Y-69200000D03*
X167000000Y-58600000D03*
X166800000Y-72400000D03*
X155000000Y-65000000D03*
X155000000Y-71000000D03*
X151000000Y-58400000D03*
X149000000Y-60800000D03*
X144000000Y-55400000D03*
X131000000Y-77000000D03*
X128600000Y-67800000D03*
X128400000Y-76400000D03*
X144600000Y-78200000D03*
X179200000Y-71200000D03*
X235200000Y-61400000D03*
X202600000Y-80600000D03*
X211000000Y-61400000D03*
X210400000Y-80000000D03*
X234000000Y-90400000D03*
X146600000Y-62200000D03*
X146600000Y-59000000D03*
X142000000Y-73200000D03*
X141400000Y-69000000D03*
X228000000Y-81600000D03*
X214200000Y-49200000D03*
X172000000Y-62000000D03*
X152625000Y-62775000D03*
X155800000Y-59600000D03*
X156800000Y-60000000D03*
X154400000Y-62400000D03*
D19*
X214200000Y-49200000D02*
X216000000Y-47400000D01*
X216000000Y-47400000D02*
X247600000Y-47400000D01*
X247600000Y-47400000D02*
X250000000Y-49800000D01*
X250000000Y-49800000D02*
X250000000Y-63015000D01*
X250000000Y-63015000D02*
X246750000Y-66265000D01*
X202000000Y-85800000D02*
X202600000Y-85200000D01*
X202600000Y-85200000D02*
X202600000Y-80600000D01*
X116500000Y-51500000D02*
X113600000Y-54400000D01*
X113600000Y-54400000D02*
X113600000Y-84100000D01*
X113600000Y-84100000D02*
X116500000Y-87000000D01*
X193600000Y-61400000D02*
X195600000Y-59400000D01*
X195600000Y-59400000D02*
X209000000Y-59400000D01*
X209000000Y-59400000D02*
X211000000Y-61400000D01*
X181400000Y-69800000D02*
X182800000Y-69800000D01*
X182800000Y-69800000D02*
X187000000Y-65600000D01*
X175600000Y-84400000D02*
X164200000Y-84400000D01*
X190600000Y-89800000D02*
X176000000Y-89800000D01*
X176000000Y-89800000D02*
X172200000Y-86000000D01*
X157000000Y-68600000D02*
X157000000Y-71600000D01*
X157000000Y-71600000D02*
X152800000Y-75800000D01*
X152625000Y-62775000D02*
X152200000Y-63200000D01*
X152200000Y-63200000D02*
X152200000Y-69800000D01*
X152625000Y-62775000D02*
X155800000Y-59600000D01*
X148473000Y-68673000D02*
X152600000Y-72800000D01*
X138800000Y-58000000D02*
X146400000Y-58000000D01*
X146400000Y-58000000D02*
X148473000Y-60073000D01*
X148473000Y-60073000D02*
X148473000Y-68673000D01*
X144000000Y-55400000D02*
X145400000Y-55400000D01*
X145400000Y-55400000D02*
X149000000Y-59000000D01*
X149000000Y-59000000D02*
X149000000Y-60800000D01*
X146600000Y-59000000D02*
X146600000Y-63800000D01*
X146600000Y-63800000D02*
X141400000Y-69000000D01*
X166000000Y-69200000D02*
X166000000Y-66400000D01*
X166000000Y-66400000D02*
X164800000Y-65200000D01*
X164800000Y-65200000D02*
X162000000Y-65200000D01*
X166800000Y-72400000D02*
X166800000Y-58800000D01*
X166800000Y-58800000D02*
X167000000Y-58600000D01*
X155000000Y-65000000D02*
X155000000Y-71000000D01*
X128600000Y-67800000D02*
X131000000Y-70200000D01*
X131000000Y-70200000D02*
X131000000Y-77000000D01*
X128400000Y-71400000D02*
X128400000Y-76400000D01*
X121000000Y-64000000D02*
X128400000Y-71400000D01*
X172200000Y-78200000D02*
X179200000Y-71200000D01*
X144600000Y-78200000D02*
X172200000Y-78200000D01*
X180550000Y-69850000D02*
X179200000Y-71200000D01*
X180550000Y-53050000D02*
X180550000Y-69850000D01*
X235200000Y-61400000D02*
X233800000Y-60000000D01*
X233800000Y-60000000D02*
X212400000Y-60000000D01*
X212400000Y-60000000D02*
X211000000Y-61400000D01*
X203200000Y-80000000D02*
X202600000Y-80600000D01*
X210400000Y-80000000D02*
X203200000Y-80000000D01*
X210400000Y-80000000D02*
X211000000Y-79400000D01*
X211000000Y-79400000D02*
X211000000Y-61400000D01*
X233978480Y-90378480D02*
X234000000Y-90400000D01*
X140778480Y-90378480D02*
X233978480Y-90378480D01*
X136600000Y-86200000D02*
X140778480Y-90378480D01*
X138600000Y-73200000D02*
X136200000Y-75600000D01*
X142000000Y-73200000D02*
X138600000Y-73200000D01*
X136200000Y-75600000D02*
X136200000Y-85800000D01*
X136200000Y-85800000D02*
X136600000Y-86200000D01*
X142000000Y-69600000D02*
X142000000Y-73200000D01*
X141400000Y-69000000D02*
X142000000Y-69600000D01*
X242700000Y-51500000D02*
X242600000Y-51600000D01*
X246500000Y-51500000D02*
X242700000Y-51500000D01*
X242700000Y-87500000D02*
X242600000Y-87400000D01*
X246500000Y-87500000D02*
X242700000Y-87500000D01*
X186274213Y-87611480D02*
X199355213Y-87611480D01*
X186261731Y-75740987D02*
X186261731Y-87598998D01*
X186261731Y-87598998D02*
X186274213Y-87611480D01*
X199342731Y-75740987D02*
X186261731Y-75740987D01*
X234928131Y-75740987D02*
X221847131Y-75740987D01*
X234928131Y-63870494D02*
X234928131Y-75740987D01*
X221847131Y-63870494D02*
X234928131Y-63870494D01*
X186261731Y-63870494D02*
X199342731Y-63870494D01*
X186414600Y-52000000D02*
X186414600Y-63717625D01*
X186414600Y-63717625D02*
X186261731Y-63870494D01*
X199495600Y-52000000D02*
X186414600Y-52000000D01*
X246750000Y-68805000D02*
X235081000Y-57136000D01*
X235081000Y-57136000D02*
X235081000Y-52000000D01*
X222000000Y-52000000D02*
X235081000Y-52000000D01*
X172000000Y-62000000D02*
X172000000Y-54500000D01*
X172000000Y-54500000D02*
X170550000Y-53050000D01*
X154400000Y-62400000D02*
X156800000Y-60000000D01*
G04 #@! TA.AperFunction,Conductor*
G36*
X165443039Y-48519685D02*
G01*
X165488794Y-48572489D01*
X165500000Y-48624000D01*
X165500000Y-64751403D01*
X165480315Y-64818442D01*
X165427511Y-64864197D01*
X165358353Y-64874141D01*
X165294797Y-64845116D01*
X165288319Y-64839084D01*
X165258199Y-64808964D01*
X165247504Y-64796769D01*
X165228283Y-64771719D01*
X165131869Y-64697738D01*
X165102841Y-64675464D01*
X164956762Y-64614956D01*
X164956760Y-64614955D01*
X164839361Y-64599500D01*
X164800000Y-64594318D01*
X164768697Y-64598439D01*
X164752513Y-64599500D01*
X162582412Y-64599500D01*
X162515373Y-64579815D01*
X162505097Y-64572445D01*
X162502263Y-64570185D01*
X162502262Y-64570184D01*
X162441792Y-64532188D01*
X162349523Y-64474211D01*
X162179254Y-64414631D01*
X162179249Y-64414630D01*
X162000004Y-64394435D01*
X161999996Y-64394435D01*
X161820750Y-64414630D01*
X161820745Y-64414631D01*
X161650476Y-64474211D01*
X161497737Y-64570184D01*
X161370184Y-64697737D01*
X161274211Y-64850476D01*
X161214631Y-65020745D01*
X161214630Y-65020750D01*
X161194435Y-65199996D01*
X161194435Y-65200003D01*
X161214630Y-65379249D01*
X161214631Y-65379254D01*
X161274211Y-65549523D01*
X161370184Y-65702262D01*
X161497738Y-65829816D01*
X161650478Y-65925789D01*
X161712662Y-65947548D01*
X161820745Y-65985368D01*
X161820750Y-65985369D01*
X161999996Y-66005565D01*
X162000000Y-66005565D01*
X162000004Y-66005565D01*
X162179249Y-65985369D01*
X162179252Y-65985368D01*
X162179255Y-65985368D01*
X162349522Y-65925789D01*
X162502262Y-65829816D01*
X162502267Y-65829810D01*
X162505097Y-65827555D01*
X162507275Y-65826665D01*
X162508158Y-65826111D01*
X162508255Y-65826265D01*
X162569783Y-65801145D01*
X162582412Y-65800500D01*
X164499903Y-65800500D01*
X164566942Y-65820185D01*
X164587584Y-65836819D01*
X165363181Y-66612416D01*
X165396666Y-66673739D01*
X165399500Y-66700097D01*
X165399500Y-68617587D01*
X165379815Y-68684626D01*
X165372450Y-68694896D01*
X165370186Y-68697734D01*
X165274211Y-68850476D01*
X165214631Y-69020745D01*
X165214630Y-69020750D01*
X165194435Y-69199996D01*
X165194435Y-69200003D01*
X165214630Y-69379249D01*
X165214631Y-69379254D01*
X165274211Y-69549523D01*
X165370184Y-69702262D01*
X165463681Y-69795759D01*
X165497166Y-69857082D01*
X165500000Y-69883440D01*
X165500000Y-77475500D01*
X165480315Y-77542539D01*
X165427511Y-77588294D01*
X165376000Y-77599500D01*
X145182412Y-77599500D01*
X145115373Y-77579815D01*
X145105097Y-77572445D01*
X145102263Y-77570185D01*
X145102262Y-77570184D01*
X144994165Y-77502262D01*
X144949523Y-77474211D01*
X144779254Y-77414631D01*
X144779249Y-77414630D01*
X144600004Y-77394435D01*
X144599996Y-77394435D01*
X144420750Y-77414630D01*
X144420745Y-77414631D01*
X144250476Y-77474211D01*
X144097737Y-77570184D01*
X143970184Y-77697737D01*
X143874211Y-77850476D01*
X143814631Y-78020745D01*
X143814630Y-78020750D01*
X143794435Y-78199996D01*
X143794435Y-78200003D01*
X143814630Y-78379249D01*
X143814631Y-78379254D01*
X143874211Y-78549523D01*
X143970184Y-78702262D01*
X144097738Y-78829816D01*
X144173203Y-78877234D01*
X144248426Y-78924500D01*
X144250478Y-78925789D01*
X144420745Y-78985368D01*
X144420750Y-78985369D01*
X144599996Y-79005565D01*
X144600000Y-79005565D01*
X144600004Y-79005565D01*
X144779249Y-78985369D01*
X144779252Y-78985368D01*
X144779255Y-78985368D01*
X144949522Y-78925789D01*
X145102262Y-78829816D01*
X145102267Y-78829810D01*
X145105097Y-78827555D01*
X145107275Y-78826665D01*
X145108158Y-78826111D01*
X145108255Y-78826265D01*
X145169783Y-78801145D01*
X145182412Y-78800500D01*
X165376000Y-78800500D01*
X165443039Y-78820185D01*
X165488794Y-78872989D01*
X165500000Y-78924500D01*
X165500000Y-89376000D01*
X165480315Y-89443039D01*
X165427511Y-89488794D01*
X165376000Y-89500000D01*
X140800597Y-89500000D01*
X140733558Y-89480315D01*
X140712916Y-89463681D01*
X136836819Y-85587584D01*
X136803334Y-85526261D01*
X136800500Y-85499903D01*
X136800500Y-75900097D01*
X136820185Y-75833058D01*
X136836819Y-75812416D01*
X136849232Y-75800003D01*
X151994435Y-75800003D01*
X152014630Y-75979249D01*
X152014631Y-75979254D01*
X152074211Y-76149523D01*
X152170184Y-76302262D01*
X152297738Y-76429816D01*
X152450478Y-76525789D01*
X152603258Y-76579249D01*
X152620745Y-76585368D01*
X152620750Y-76585369D01*
X152799996Y-76605565D01*
X152800000Y-76605565D01*
X152800004Y-76605565D01*
X152979249Y-76585369D01*
X152979252Y-76585368D01*
X152979255Y-76585368D01*
X153149522Y-76525789D01*
X153302262Y-76429816D01*
X153429816Y-76302262D01*
X153525789Y-76149522D01*
X153585368Y-75979255D01*
X153595161Y-75892329D01*
X153622226Y-75827918D01*
X153630690Y-75818543D01*
X157391043Y-72058190D01*
X157403223Y-72047509D01*
X157428282Y-72028282D01*
X157524536Y-71902841D01*
X157585044Y-71756762D01*
X157600500Y-71639361D01*
X157605682Y-71600000D01*
X157601561Y-71568697D01*
X157600500Y-71552512D01*
X157600500Y-69182412D01*
X157620185Y-69115373D01*
X157627555Y-69105097D01*
X157629810Y-69102267D01*
X157629816Y-69102262D01*
X157725789Y-68949522D01*
X157785368Y-68779255D01*
X157785369Y-68779249D01*
X157805565Y-68600003D01*
X157805565Y-68599996D01*
X157785369Y-68420750D01*
X157785368Y-68420745D01*
X157743909Y-68302262D01*
X157725789Y-68250478D01*
X157704501Y-68216599D01*
X157629815Y-68097737D01*
X157502262Y-67970184D01*
X157349523Y-67874211D01*
X157179254Y-67814631D01*
X157179249Y-67814630D01*
X157000004Y-67794435D01*
X156999996Y-67794435D01*
X156820750Y-67814630D01*
X156820745Y-67814631D01*
X156650476Y-67874211D01*
X156497737Y-67970184D01*
X156370184Y-68097737D01*
X156274211Y-68250476D01*
X156214631Y-68420745D01*
X156214630Y-68420750D01*
X156194435Y-68599996D01*
X156194435Y-68600003D01*
X156214630Y-68779249D01*
X156214631Y-68779254D01*
X156274211Y-68949523D01*
X156322490Y-69026357D01*
X156369568Y-69101282D01*
X156370185Y-69102263D01*
X156372445Y-69105097D01*
X156373334Y-69107275D01*
X156373889Y-69108158D01*
X156373734Y-69108255D01*
X156398855Y-69169783D01*
X156399500Y-69182412D01*
X156399500Y-71299902D01*
X156379815Y-71366941D01*
X156363181Y-71387583D01*
X152781465Y-74969298D01*
X152720142Y-75002783D01*
X152707668Y-75004837D01*
X152620750Y-75014630D01*
X152450478Y-75074210D01*
X152297737Y-75170184D01*
X152170184Y-75297737D01*
X152074211Y-75450476D01*
X152014631Y-75620745D01*
X152014630Y-75620750D01*
X151994435Y-75799996D01*
X151994435Y-75800003D01*
X136849232Y-75800003D01*
X138812416Y-73836819D01*
X138873739Y-73803334D01*
X138900097Y-73800500D01*
X141417588Y-73800500D01*
X141484627Y-73820185D01*
X141494903Y-73827555D01*
X141497736Y-73829814D01*
X141497738Y-73829816D01*
X141650478Y-73925789D01*
X141820745Y-73985368D01*
X141820750Y-73985369D01*
X141999996Y-74005565D01*
X142000000Y-74005565D01*
X142000004Y-74005565D01*
X142179249Y-73985369D01*
X142179252Y-73985368D01*
X142179255Y-73985368D01*
X142349522Y-73925789D01*
X142502262Y-73829816D01*
X142629816Y-73702262D01*
X142725789Y-73549522D01*
X142785368Y-73379255D01*
X142794043Y-73302262D01*
X142805565Y-73200003D01*
X142805565Y-73199996D01*
X142785369Y-73020750D01*
X142785368Y-73020745D01*
X142770848Y-72979249D01*
X142725789Y-72850478D01*
X142724995Y-72849215D01*
X142692045Y-72796775D01*
X142629816Y-72697738D01*
X142629814Y-72697736D01*
X142629813Y-72697734D01*
X142627550Y-72694896D01*
X142626659Y-72692715D01*
X142626111Y-72691842D01*
X142626264Y-72691745D01*
X142601144Y-72630209D01*
X142600500Y-72617587D01*
X142600500Y-69647487D01*
X142601561Y-69631301D01*
X142605682Y-69600000D01*
X142605682Y-69599998D01*
X142585044Y-69443239D01*
X142585042Y-69443234D01*
X142524538Y-69297163D01*
X142524535Y-69297158D01*
X142522799Y-69294896D01*
X142452450Y-69203215D01*
X142434065Y-69179255D01*
X142428281Y-69171716D01*
X142403229Y-69152494D01*
X142391034Y-69141799D01*
X142336915Y-69087680D01*
X142303430Y-69026357D01*
X142308414Y-68956665D01*
X142336911Y-68912323D01*
X146991044Y-64258189D01*
X147003222Y-64247510D01*
X147028282Y-64228282D01*
X147124536Y-64102841D01*
X147185044Y-63956762D01*
X147199990Y-63843238D01*
X147205683Y-63800000D01*
X147201561Y-63768689D01*
X147200500Y-63752504D01*
X147200500Y-62782412D01*
X147220185Y-62715373D01*
X147227555Y-62705097D01*
X147229810Y-62702267D01*
X147229816Y-62702262D01*
X147325789Y-62549522D01*
X147385368Y-62379255D01*
X147385369Y-62379249D01*
X147405565Y-62200003D01*
X147405565Y-62199996D01*
X147385369Y-62020750D01*
X147385368Y-62020745D01*
X147325788Y-61850476D01*
X147229813Y-61697734D01*
X147227550Y-61694896D01*
X147226659Y-61692715D01*
X147226111Y-61691842D01*
X147226264Y-61691745D01*
X147201144Y-61630209D01*
X147200500Y-61617587D01*
X147200500Y-59949097D01*
X147220185Y-59882058D01*
X147272989Y-59836303D01*
X147342147Y-59826359D01*
X147405703Y-59855384D01*
X147412181Y-59861416D01*
X147836181Y-60285416D01*
X147869666Y-60346739D01*
X147872500Y-60373097D01*
X147872500Y-68625512D01*
X147871439Y-68641697D01*
X147867318Y-68672998D01*
X147867318Y-68673000D01*
X147872500Y-68712360D01*
X147872500Y-68712361D01*
X147887955Y-68829760D01*
X147887956Y-68829762D01*
X147948464Y-68975841D01*
X148034281Y-69087680D01*
X148044719Y-69101283D01*
X148069769Y-69120504D01*
X148081964Y-69131199D01*
X151769298Y-72818533D01*
X151802783Y-72879856D01*
X151804837Y-72892330D01*
X151814630Y-72979249D01*
X151874210Y-73149521D01*
X151905926Y-73199996D01*
X151970184Y-73302262D01*
X152097738Y-73429816D01*
X152250478Y-73525789D01*
X152318306Y-73549523D01*
X152420745Y-73585368D01*
X152420750Y-73585369D01*
X152599996Y-73605565D01*
X152600000Y-73605565D01*
X152600004Y-73605565D01*
X152779249Y-73585369D01*
X152779252Y-73585368D01*
X152779255Y-73585368D01*
X152949522Y-73525789D01*
X153102262Y-73429816D01*
X153229816Y-73302262D01*
X153325789Y-73149522D01*
X153385368Y-72979255D01*
X153395162Y-72892330D01*
X153405565Y-72800003D01*
X153405565Y-72799996D01*
X153385369Y-72620750D01*
X153385368Y-72620745D01*
X153374013Y-72588294D01*
X153325789Y-72450478D01*
X153229816Y-72297738D01*
X153102262Y-72170184D01*
X152949521Y-72074210D01*
X152779249Y-72014630D01*
X152692330Y-72004837D01*
X152627916Y-71977770D01*
X152618533Y-71969298D01*
X151649238Y-71000003D01*
X154194435Y-71000003D01*
X154214630Y-71179249D01*
X154214631Y-71179254D01*
X154274211Y-71349523D01*
X154370184Y-71502262D01*
X154497738Y-71629816D01*
X154650478Y-71725789D01*
X154738988Y-71756760D01*
X154820745Y-71785368D01*
X154820750Y-71785369D01*
X154999996Y-71805565D01*
X155000000Y-71805565D01*
X155000004Y-71805565D01*
X155179249Y-71785369D01*
X155179252Y-71785368D01*
X155179255Y-71785368D01*
X155349522Y-71725789D01*
X155502262Y-71629816D01*
X155629816Y-71502262D01*
X155725789Y-71349522D01*
X155785368Y-71179255D01*
X155785369Y-71179249D01*
X155805565Y-71000003D01*
X155805565Y-70999996D01*
X155785369Y-70820750D01*
X155785368Y-70820745D01*
X155736377Y-70680737D01*
X155725789Y-70650478D01*
X155629816Y-70497738D01*
X155629814Y-70497736D01*
X155629813Y-70497734D01*
X155627550Y-70494896D01*
X155626659Y-70492715D01*
X155626111Y-70491842D01*
X155626264Y-70491745D01*
X155601144Y-70430209D01*
X155600500Y-70417587D01*
X155600500Y-65582412D01*
X155620185Y-65515373D01*
X155627555Y-65505097D01*
X155629810Y-65502267D01*
X155629816Y-65502262D01*
X155725789Y-65349522D01*
X155785368Y-65179255D01*
X155803638Y-65017102D01*
X155805565Y-65000003D01*
X155805565Y-64999996D01*
X155785369Y-64820750D01*
X155785368Y-64820745D01*
X155742326Y-64697738D01*
X155725789Y-64650478D01*
X155703468Y-64614955D01*
X155676758Y-64572445D01*
X155629816Y-64497738D01*
X155502262Y-64370184D01*
X155349523Y-64274211D01*
X155179254Y-64214631D01*
X155179249Y-64214630D01*
X155000004Y-64194435D01*
X154999996Y-64194435D01*
X154820750Y-64214630D01*
X154820745Y-64214631D01*
X154650476Y-64274211D01*
X154497737Y-64370184D01*
X154370184Y-64497737D01*
X154274211Y-64650476D01*
X154214631Y-64820745D01*
X154214630Y-64820750D01*
X154194435Y-64999996D01*
X154194435Y-65000003D01*
X154214630Y-65179249D01*
X154214631Y-65179254D01*
X154274211Y-65349523D01*
X154370185Y-65502263D01*
X154372445Y-65505097D01*
X154373334Y-65507275D01*
X154373889Y-65508158D01*
X154373734Y-65508255D01*
X154398855Y-65569783D01*
X154399500Y-65582412D01*
X154399500Y-70417587D01*
X154379815Y-70484626D01*
X154372450Y-70494896D01*
X154370186Y-70497734D01*
X154274211Y-70650476D01*
X154214631Y-70820745D01*
X154214630Y-70820750D01*
X154194435Y-70999996D01*
X154194435Y-71000003D01*
X151649238Y-71000003D01*
X150449238Y-69800003D01*
X151394435Y-69800003D01*
X151414630Y-69979249D01*
X151414631Y-69979254D01*
X151474211Y-70149523D01*
X151530664Y-70239367D01*
X151570184Y-70302262D01*
X151697738Y-70429816D01*
X151850478Y-70525789D01*
X151958687Y-70563653D01*
X152020745Y-70585368D01*
X152020750Y-70585369D01*
X152199996Y-70605565D01*
X152200000Y-70605565D01*
X152200004Y-70605565D01*
X152379249Y-70585369D01*
X152379252Y-70585368D01*
X152379255Y-70585368D01*
X152549522Y-70525789D01*
X152702262Y-70429816D01*
X152829816Y-70302262D01*
X152925789Y-70149522D01*
X152985368Y-69979255D01*
X152992459Y-69916321D01*
X153005565Y-69800003D01*
X153005565Y-69799996D01*
X152985369Y-69620750D01*
X152985368Y-69620745D01*
X152954383Y-69532195D01*
X152925789Y-69450478D01*
X152921240Y-69443239D01*
X152892645Y-69397730D01*
X152829816Y-69297738D01*
X152829814Y-69297736D01*
X152829813Y-69297734D01*
X152827550Y-69294896D01*
X152826659Y-69292715D01*
X152826111Y-69291842D01*
X152826264Y-69291745D01*
X152801144Y-69230209D01*
X152800500Y-69217587D01*
X152800500Y-63649665D01*
X152820185Y-63582626D01*
X152872989Y-63536871D01*
X152883546Y-63532623D01*
X152906897Y-63524451D01*
X152974522Y-63500789D01*
X153127262Y-63404816D01*
X153254816Y-63277262D01*
X153350789Y-63124522D01*
X153410368Y-62954255D01*
X153420161Y-62867329D01*
X153447226Y-62802918D01*
X153455690Y-62793543D01*
X153496928Y-62752305D01*
X153558249Y-62718822D01*
X153627941Y-62723806D01*
X153683874Y-62765678D01*
X153689600Y-62774015D01*
X153770182Y-62902260D01*
X153770184Y-62902262D01*
X153897738Y-63029816D01*
X153919099Y-63043238D01*
X154048461Y-63124522D01*
X154050478Y-63125789D01*
X154220745Y-63185368D01*
X154220750Y-63185369D01*
X154399996Y-63205565D01*
X154400000Y-63205565D01*
X154400004Y-63205565D01*
X154579249Y-63185369D01*
X154579252Y-63185368D01*
X154579255Y-63185368D01*
X154749522Y-63125789D01*
X154902262Y-63029816D01*
X155029816Y-62902262D01*
X155125789Y-62749522D01*
X155185368Y-62579255D01*
X155195161Y-62492329D01*
X155222226Y-62427918D01*
X155230690Y-62418543D01*
X156818535Y-60830698D01*
X156879856Y-60797215D01*
X156892311Y-60795163D01*
X156979255Y-60785368D01*
X157149522Y-60725789D01*
X157302262Y-60629816D01*
X157429816Y-60502262D01*
X157525789Y-60349522D01*
X157585368Y-60179255D01*
X157605565Y-60000000D01*
X157592276Y-59882058D01*
X157585369Y-59820750D01*
X157585368Y-59820745D01*
X157525788Y-59650476D01*
X157436055Y-59507668D01*
X157429816Y-59497738D01*
X157302262Y-59370184D01*
X157269379Y-59349522D01*
X157149523Y-59274211D01*
X156979254Y-59214631D01*
X156979249Y-59214630D01*
X156800004Y-59194435D01*
X156799996Y-59194435D01*
X156620746Y-59214631D01*
X156620742Y-59214632D01*
X156617767Y-59215673D01*
X156615726Y-59215777D01*
X156613956Y-59216181D01*
X156613885Y-59215870D01*
X156547988Y-59219229D01*
X156487363Y-59184495D01*
X156471828Y-59164600D01*
X156429815Y-59097737D01*
X156302262Y-58970184D01*
X156149523Y-58874211D01*
X155979254Y-58814631D01*
X155979249Y-58814630D01*
X155800004Y-58794435D01*
X155799996Y-58794435D01*
X155620750Y-58814630D01*
X155620745Y-58814631D01*
X155450476Y-58874211D01*
X155297737Y-58970184D01*
X155170184Y-59097737D01*
X155074210Y-59250478D01*
X155014630Y-59420750D01*
X155004837Y-59507668D01*
X154977770Y-59572082D01*
X154969298Y-59581465D01*
X152606465Y-61944298D01*
X152545142Y-61977783D01*
X152532668Y-61979837D01*
X152445750Y-61989630D01*
X152275478Y-62049210D01*
X152122737Y-62145184D01*
X151995184Y-62272737D01*
X151899210Y-62425478D01*
X151839630Y-62595750D01*
X151830258Y-62678933D01*
X151803191Y-62743347D01*
X151782531Y-62763420D01*
X151771715Y-62771719D01*
X151675464Y-62897157D01*
X151614956Y-63043237D01*
X151614955Y-63043239D01*
X151594318Y-63199998D01*
X151594318Y-63199999D01*
X151598439Y-63231301D01*
X151599500Y-63247487D01*
X151599500Y-69217587D01*
X151579815Y-69284626D01*
X151572450Y-69294896D01*
X151570186Y-69297734D01*
X151474211Y-69450476D01*
X151414631Y-69620745D01*
X151414630Y-69620750D01*
X151394435Y-69799996D01*
X151394435Y-69800003D01*
X150449238Y-69800003D01*
X149109819Y-68460584D01*
X149076334Y-68399261D01*
X149073500Y-68372903D01*
X149073500Y-61708097D01*
X149093185Y-61641058D01*
X149145989Y-61595303D01*
X149172691Y-61587905D01*
X149172466Y-61586918D01*
X149179251Y-61585369D01*
X149179253Y-61585368D01*
X149179255Y-61585368D01*
X149349522Y-61525789D01*
X149502262Y-61429816D01*
X149629816Y-61302262D01*
X149725789Y-61149522D01*
X149785368Y-60979255D01*
X149805565Y-60800000D01*
X149805251Y-60797215D01*
X149785369Y-60620750D01*
X149785368Y-60620745D01*
X149725788Y-60450476D01*
X149677167Y-60373097D01*
X149629816Y-60297738D01*
X149629814Y-60297736D01*
X149629813Y-60297734D01*
X149627550Y-60294896D01*
X149626659Y-60292715D01*
X149626111Y-60291842D01*
X149626264Y-60291745D01*
X149601144Y-60230209D01*
X149600500Y-60217587D01*
X149600500Y-59047487D01*
X149601561Y-59031301D01*
X149605682Y-59000000D01*
X149605681Y-58999996D01*
X149585044Y-58843239D01*
X149585042Y-58843234D01*
X149573194Y-58814631D01*
X149524536Y-58697159D01*
X149488733Y-58650500D01*
X149428282Y-58571718D01*
X149428281Y-58571717D01*
X149403228Y-58552493D01*
X149391034Y-58541799D01*
X145858199Y-55008964D01*
X145847504Y-54996769D01*
X145828283Y-54971719D01*
X145731869Y-54897738D01*
X145702841Y-54875464D01*
X145556762Y-54814956D01*
X145556760Y-54814955D01*
X145439361Y-54799500D01*
X145400000Y-54794318D01*
X145368697Y-54798439D01*
X145352513Y-54799500D01*
X144582412Y-54799500D01*
X144515373Y-54779815D01*
X144505097Y-54772445D01*
X144502263Y-54770185D01*
X144502262Y-54770184D01*
X144445496Y-54734515D01*
X144349523Y-54674211D01*
X144179254Y-54614631D01*
X144179249Y-54614630D01*
X144000004Y-54594435D01*
X143999996Y-54594435D01*
X143820750Y-54614630D01*
X143820745Y-54614631D01*
X143650476Y-54674211D01*
X143497737Y-54770184D01*
X143370184Y-54897737D01*
X143274211Y-55050476D01*
X143214631Y-55220745D01*
X143214630Y-55220750D01*
X143194435Y-55399996D01*
X143194435Y-55400003D01*
X143214630Y-55579249D01*
X143214631Y-55579254D01*
X143274211Y-55749523D01*
X143370184Y-55902262D01*
X143497738Y-56029816D01*
X143650478Y-56125789D01*
X143820745Y-56185368D01*
X143820750Y-56185369D01*
X143999996Y-56205565D01*
X144000000Y-56205565D01*
X144000004Y-56205565D01*
X144179249Y-56185369D01*
X144179252Y-56185368D01*
X144179255Y-56185368D01*
X144349522Y-56125789D01*
X144502262Y-56029816D01*
X144502267Y-56029810D01*
X144505097Y-56027555D01*
X144507275Y-56026665D01*
X144508158Y-56026111D01*
X144508255Y-56026265D01*
X144569783Y-56001145D01*
X144582412Y-56000500D01*
X145099903Y-56000500D01*
X145166942Y-56020185D01*
X145187584Y-56036819D01*
X146338584Y-57187819D01*
X146372069Y-57249142D01*
X146367085Y-57318834D01*
X146325213Y-57374767D01*
X146259749Y-57399184D01*
X146250903Y-57399500D01*
X139382412Y-57399500D01*
X139315373Y-57379815D01*
X139305097Y-57372445D01*
X139302263Y-57370185D01*
X139302262Y-57370184D01*
X139220539Y-57318834D01*
X139149523Y-57274211D01*
X138979254Y-57214631D01*
X138979249Y-57214630D01*
X138800004Y-57194435D01*
X138799996Y-57194435D01*
X138620750Y-57214630D01*
X138620745Y-57214631D01*
X138450476Y-57274211D01*
X138297737Y-57370184D01*
X138170184Y-57497737D01*
X138074211Y-57650476D01*
X138014631Y-57820745D01*
X138014630Y-57820750D01*
X137994435Y-57999996D01*
X137994435Y-58000003D01*
X138014630Y-58179249D01*
X138014631Y-58179254D01*
X138074211Y-58349523D01*
X138170184Y-58502262D01*
X138297738Y-58629816D01*
X138450478Y-58725789D01*
X138563837Y-58765455D01*
X138620745Y-58785368D01*
X138620750Y-58785369D01*
X138799996Y-58805565D01*
X138800000Y-58805565D01*
X138800004Y-58805565D01*
X138979249Y-58785369D01*
X138979252Y-58785368D01*
X138979255Y-58785368D01*
X139149522Y-58725789D01*
X139302262Y-58629816D01*
X139302267Y-58629810D01*
X139305097Y-58627555D01*
X139307275Y-58626665D01*
X139308158Y-58626111D01*
X139308255Y-58626265D01*
X139369783Y-58601145D01*
X139382412Y-58600500D01*
X145716937Y-58600500D01*
X145783976Y-58620185D01*
X145829731Y-58672989D01*
X145839675Y-58742147D01*
X145833978Y-58765455D01*
X145814633Y-58820737D01*
X145814630Y-58820750D01*
X145794435Y-58999996D01*
X145794435Y-59000003D01*
X145814630Y-59179249D01*
X145814631Y-59179254D01*
X145874211Y-59349523D01*
X145934515Y-59445496D01*
X145967341Y-59497738D01*
X145970185Y-59502263D01*
X145972445Y-59505097D01*
X145973334Y-59507275D01*
X145973889Y-59508158D01*
X145973734Y-59508255D01*
X145998855Y-59569783D01*
X145999500Y-59582412D01*
X145999500Y-61617587D01*
X145979815Y-61684626D01*
X145972450Y-61694896D01*
X145970186Y-61697734D01*
X145874211Y-61850476D01*
X145814631Y-62020745D01*
X145814630Y-62020750D01*
X145794435Y-62199996D01*
X145794435Y-62200003D01*
X145814630Y-62379249D01*
X145814631Y-62379254D01*
X145874211Y-62549523D01*
X145903255Y-62595745D01*
X145955525Y-62678933D01*
X145970185Y-62702263D01*
X145972445Y-62705097D01*
X145973334Y-62707275D01*
X145973889Y-62708158D01*
X145973734Y-62708255D01*
X145998855Y-62769783D01*
X145999500Y-62782412D01*
X145999500Y-63499902D01*
X145979815Y-63566941D01*
X145963181Y-63587583D01*
X141381465Y-68169298D01*
X141320142Y-68202783D01*
X141307668Y-68204837D01*
X141220750Y-68214630D01*
X141050478Y-68274210D01*
X140897737Y-68370184D01*
X140770184Y-68497737D01*
X140674211Y-68650476D01*
X140614631Y-68820745D01*
X140614630Y-68820750D01*
X140594435Y-68999996D01*
X140594435Y-69000003D01*
X140614630Y-69179249D01*
X140614631Y-69179254D01*
X140674211Y-69349523D01*
X140737646Y-69450478D01*
X140770184Y-69502262D01*
X140897738Y-69629816D01*
X141050478Y-69725789D01*
X141220745Y-69785368D01*
X141289384Y-69793101D01*
X141353796Y-69820166D01*
X141393352Y-69877760D01*
X141399500Y-69916321D01*
X141399500Y-72475500D01*
X141379815Y-72542539D01*
X141327011Y-72588294D01*
X141275500Y-72599500D01*
X138647494Y-72599500D01*
X138631308Y-72598439D01*
X138600001Y-72594317D01*
X138599999Y-72594317D01*
X138443238Y-72614955D01*
X138297157Y-72675464D01*
X138171718Y-72771716D01*
X138152489Y-72796775D01*
X138141798Y-72808965D01*
X135808965Y-75141798D01*
X135796775Y-75152489D01*
X135771716Y-75171718D01*
X135703427Y-75260714D01*
X135703428Y-75260715D01*
X135675463Y-75297159D01*
X135675461Y-75297163D01*
X135614957Y-75443234D01*
X135614955Y-75443239D01*
X135594318Y-75599998D01*
X135594318Y-75599999D01*
X135598439Y-75631301D01*
X135599500Y-75647487D01*
X135599500Y-85752512D01*
X135598439Y-85768697D01*
X135594318Y-85799998D01*
X135594318Y-85800000D01*
X135599500Y-85839360D01*
X135599500Y-85839361D01*
X135614955Y-85956760D01*
X135614956Y-85956762D01*
X135675464Y-86102841D01*
X135771718Y-86228282D01*
X135771719Y-86228283D01*
X135796769Y-86247504D01*
X135808964Y-86258199D01*
X138839084Y-89288319D01*
X138872569Y-89349642D01*
X138867585Y-89419334D01*
X138825713Y-89475267D01*
X138760249Y-89499684D01*
X138751403Y-89500000D01*
X126124000Y-89500000D01*
X126056961Y-89480315D01*
X126011206Y-89427511D01*
X126000000Y-89376000D01*
X126000000Y-82000000D01*
X115124000Y-82000000D01*
X115056961Y-81980315D01*
X115011206Y-81927511D01*
X115000000Y-81876000D01*
X115000000Y-79000004D01*
X119194953Y-79000004D01*
X119215113Y-79269026D01*
X119215113Y-79269028D01*
X119275142Y-79532033D01*
X119275148Y-79532052D01*
X119373709Y-79783181D01*
X119373708Y-79783181D01*
X119508602Y-80016822D01*
X119562294Y-80084151D01*
X119562295Y-80084151D01*
X120397452Y-79248993D01*
X120407188Y-79278956D01*
X120495186Y-79417619D01*
X120614903Y-79530040D01*
X120749510Y-79604041D01*
X119914848Y-80438702D01*
X120097483Y-80563220D01*
X120097485Y-80563221D01*
X120340539Y-80680269D01*
X120340537Y-80680269D01*
X120598337Y-80759790D01*
X120598343Y-80759792D01*
X120865101Y-80799999D01*
X120865110Y-80800000D01*
X121134890Y-80800000D01*
X121134898Y-80799999D01*
X121401656Y-80759792D01*
X121401662Y-80759790D01*
X121659461Y-80680269D01*
X121902521Y-80563218D01*
X122085150Y-80438702D01*
X121247534Y-79601086D01*
X121315629Y-79574126D01*
X121448492Y-79477595D01*
X121553175Y-79351055D01*
X121601631Y-79248079D01*
X122437703Y-80084151D01*
X122437704Y-80084150D01*
X122491393Y-80016828D01*
X122491400Y-80016817D01*
X122626290Y-79783181D01*
X122724851Y-79532052D01*
X122724857Y-79532033D01*
X122784886Y-79269028D01*
X122784886Y-79269026D01*
X122805047Y-79000004D01*
X122805047Y-78999995D01*
X122784886Y-78730973D01*
X122784886Y-78730971D01*
X122724857Y-78467966D01*
X122724851Y-78467947D01*
X122626290Y-78216818D01*
X122626291Y-78216818D01*
X122491397Y-77983177D01*
X122437704Y-77915847D01*
X121602546Y-78751004D01*
X121592812Y-78721044D01*
X121504814Y-78582381D01*
X121385097Y-78469960D01*
X121250489Y-78395958D01*
X122085150Y-77561296D01*
X121902517Y-77436779D01*
X121902516Y-77436778D01*
X121659460Y-77319730D01*
X121659462Y-77319730D01*
X121401662Y-77240209D01*
X121401656Y-77240207D01*
X121134898Y-77200000D01*
X120865101Y-77200000D01*
X120598343Y-77240207D01*
X120598337Y-77240209D01*
X120340538Y-77319730D01*
X120097485Y-77436778D01*
X120097476Y-77436783D01*
X119914848Y-77561296D01*
X120752465Y-78398913D01*
X120684371Y-78425874D01*
X120551508Y-78522405D01*
X120446825Y-78648945D01*
X120398368Y-78751921D01*
X119562295Y-77915848D01*
X119508600Y-77983180D01*
X119373709Y-78216818D01*
X119275148Y-78467947D01*
X119275142Y-78467966D01*
X119215113Y-78730971D01*
X119215113Y-78730973D01*
X119194953Y-78999995D01*
X119194953Y-79000004D01*
X115000000Y-79000004D01*
X115000000Y-74000004D01*
X119194451Y-74000004D01*
X119214616Y-74269101D01*
X119274664Y-74532188D01*
X119274666Y-74532195D01*
X119373257Y-74783398D01*
X119508185Y-75017102D01*
X119607627Y-75141798D01*
X119676442Y-75228089D01*
X119863183Y-75401358D01*
X119874259Y-75411635D01*
X120097226Y-75563651D01*
X120340359Y-75680738D01*
X120598228Y-75760280D01*
X120598229Y-75760280D01*
X120598232Y-75760281D01*
X120865063Y-75800499D01*
X120865068Y-75800499D01*
X120865071Y-75800500D01*
X120865072Y-75800500D01*
X121134928Y-75800500D01*
X121134929Y-75800500D01*
X121134936Y-75800499D01*
X121401767Y-75760281D01*
X121401768Y-75760280D01*
X121401772Y-75760280D01*
X121659641Y-75680738D01*
X121902775Y-75563651D01*
X122125741Y-75411635D01*
X122323561Y-75228085D01*
X122491815Y-75017102D01*
X122626743Y-74783398D01*
X122725334Y-74532195D01*
X122785383Y-74269103D01*
X122805549Y-74000000D01*
X122785383Y-73730897D01*
X122725334Y-73467805D01*
X122626743Y-73216602D01*
X122491815Y-72982898D01*
X122323561Y-72771915D01*
X122323560Y-72771914D01*
X122323557Y-72771910D01*
X122125741Y-72588365D01*
X122125637Y-72588294D01*
X121902775Y-72436349D01*
X121902769Y-72436346D01*
X121902768Y-72436345D01*
X121902767Y-72436344D01*
X121659643Y-72319263D01*
X121659645Y-72319263D01*
X121401773Y-72239720D01*
X121401767Y-72239718D01*
X121134936Y-72199500D01*
X121134929Y-72199500D01*
X120865071Y-72199500D01*
X120865063Y-72199500D01*
X120598232Y-72239718D01*
X120598226Y-72239720D01*
X120340358Y-72319262D01*
X120097230Y-72436346D01*
X119874258Y-72588365D01*
X119676442Y-72771910D01*
X119508185Y-72982898D01*
X119373258Y-73216599D01*
X119373256Y-73216603D01*
X119274666Y-73467804D01*
X119274664Y-73467811D01*
X119214616Y-73730898D01*
X119194451Y-73999995D01*
X119194451Y-74000004D01*
X115000000Y-74000004D01*
X115000000Y-69000004D01*
X119194451Y-69000004D01*
X119214616Y-69269101D01*
X119274664Y-69532188D01*
X119274666Y-69532195D01*
X119373256Y-69783396D01*
X119373258Y-69783400D01*
X119394485Y-69820166D01*
X119508185Y-70017102D01*
X119613787Y-70149522D01*
X119676442Y-70228089D01*
X119863183Y-70401358D01*
X119874259Y-70411635D01*
X120097226Y-70563651D01*
X120340359Y-70680738D01*
X120598228Y-70760280D01*
X120598229Y-70760280D01*
X120598232Y-70760281D01*
X120865063Y-70800499D01*
X120865068Y-70800499D01*
X120865071Y-70800500D01*
X120865072Y-70800500D01*
X121134928Y-70800500D01*
X121134929Y-70800500D01*
X121134936Y-70800499D01*
X121401767Y-70760281D01*
X121401768Y-70760280D01*
X121401772Y-70760280D01*
X121659641Y-70680738D01*
X121902775Y-70563651D01*
X122125741Y-70411635D01*
X122311402Y-70239367D01*
X122323557Y-70228089D01*
X122323557Y-70228087D01*
X122323561Y-70228085D01*
X122491815Y-70017102D01*
X122626743Y-69783398D01*
X122725334Y-69532195D01*
X122785383Y-69269103D01*
X122797959Y-69101282D01*
X122805549Y-69000004D01*
X122805549Y-68999995D01*
X122785383Y-68730898D01*
X122781152Y-68712360D01*
X122725334Y-68467805D01*
X122626743Y-68216602D01*
X122491815Y-67982898D01*
X122323561Y-67771915D01*
X122323560Y-67771914D01*
X122323557Y-67771910D01*
X122125741Y-67588365D01*
X121902775Y-67436349D01*
X121902769Y-67436346D01*
X121902768Y-67436345D01*
X121902767Y-67436344D01*
X121659643Y-67319263D01*
X121659645Y-67319263D01*
X121401773Y-67239720D01*
X121401767Y-67239718D01*
X121134936Y-67199500D01*
X121134929Y-67199500D01*
X120865071Y-67199500D01*
X120865063Y-67199500D01*
X120598232Y-67239718D01*
X120598226Y-67239720D01*
X120340358Y-67319262D01*
X120097230Y-67436346D01*
X119874258Y-67588365D01*
X119676442Y-67771910D01*
X119508185Y-67982898D01*
X119373258Y-68216599D01*
X119373256Y-68216603D01*
X119274666Y-68467804D01*
X119274664Y-68467811D01*
X119214616Y-68730898D01*
X119194451Y-68999995D01*
X119194451Y-69000004D01*
X115000000Y-69000004D01*
X115000000Y-64000004D01*
X119194451Y-64000004D01*
X119214616Y-64269101D01*
X119274664Y-64532188D01*
X119274666Y-64532195D01*
X119373256Y-64783396D01*
X119373258Y-64783400D01*
X119394819Y-64820745D01*
X119508185Y-65017102D01*
X119637493Y-65179249D01*
X119676442Y-65228089D01*
X119863183Y-65401358D01*
X119874259Y-65411635D01*
X120097226Y-65563651D01*
X120340359Y-65680738D01*
X120598228Y-65760280D01*
X120598229Y-65760280D01*
X120598232Y-65760281D01*
X120865063Y-65800499D01*
X120865068Y-65800499D01*
X120865071Y-65800500D01*
X120865072Y-65800500D01*
X121134928Y-65800500D01*
X121134929Y-65800500D01*
X121134936Y-65800499D01*
X121401767Y-65760281D01*
X121401768Y-65760280D01*
X121401772Y-65760280D01*
X121659641Y-65680738D01*
X121696370Y-65663049D01*
X121765309Y-65651696D01*
X121829444Y-65679417D01*
X121837853Y-65687088D01*
X127763181Y-71612416D01*
X127796666Y-71673739D01*
X127799500Y-71700097D01*
X127799500Y-75817587D01*
X127779815Y-75884626D01*
X127772450Y-75894896D01*
X127770186Y-75897734D01*
X127674211Y-76050476D01*
X127614631Y-76220745D01*
X127614630Y-76220750D01*
X127594435Y-76399996D01*
X127594435Y-76400003D01*
X127614630Y-76579249D01*
X127614631Y-76579254D01*
X127674211Y-76749523D01*
X127770184Y-76902262D01*
X127897738Y-77029816D01*
X128050478Y-77125789D01*
X128203258Y-77179249D01*
X128220745Y-77185368D01*
X128220750Y-77185369D01*
X128399996Y-77205565D01*
X128400000Y-77205565D01*
X128400004Y-77205565D01*
X128579249Y-77185369D01*
X128579252Y-77185368D01*
X128579255Y-77185368D01*
X128749522Y-77125789D01*
X128902262Y-77029816D01*
X129029816Y-76902262D01*
X129125789Y-76749522D01*
X129185368Y-76579255D01*
X129191392Y-76525789D01*
X129205565Y-76400003D01*
X129205565Y-76399996D01*
X129185369Y-76220750D01*
X129185368Y-76220745D01*
X129125788Y-76050476D01*
X129092645Y-75997730D01*
X129029816Y-75897738D01*
X129029814Y-75897736D01*
X129029813Y-75897734D01*
X129027550Y-75894896D01*
X129026659Y-75892715D01*
X129026111Y-75891842D01*
X129026264Y-75891745D01*
X129001144Y-75830209D01*
X129000500Y-75817587D01*
X129000500Y-71447487D01*
X129001561Y-71431301D01*
X129005682Y-71400000D01*
X129005682Y-71399998D01*
X128985044Y-71243239D01*
X128985042Y-71243234D01*
X128924538Y-71097163D01*
X128924535Y-71097158D01*
X128880186Y-71039361D01*
X128828281Y-70971717D01*
X128803228Y-70952493D01*
X128791034Y-70941799D01*
X125649238Y-67800003D01*
X127794435Y-67800003D01*
X127814630Y-67979249D01*
X127814631Y-67979254D01*
X127874211Y-68149523D01*
X127937646Y-68250478D01*
X127970184Y-68302262D01*
X128097738Y-68429816D01*
X128250478Y-68525789D01*
X128420745Y-68585368D01*
X128507669Y-68595161D01*
X128572080Y-68622226D01*
X128581465Y-68630700D01*
X130363181Y-70412416D01*
X130396666Y-70473739D01*
X130399500Y-70500097D01*
X130399500Y-76417587D01*
X130379815Y-76484626D01*
X130372450Y-76494896D01*
X130370186Y-76497734D01*
X130274211Y-76650476D01*
X130214631Y-76820745D01*
X130214630Y-76820750D01*
X130194435Y-76999996D01*
X130194435Y-77000003D01*
X130214630Y-77179249D01*
X130214631Y-77179254D01*
X130274211Y-77349523D01*
X130329038Y-77436779D01*
X130370184Y-77502262D01*
X130497738Y-77629816D01*
X130570386Y-77675464D01*
X130605833Y-77697737D01*
X130650478Y-77725789D01*
X130781736Y-77771718D01*
X130820745Y-77785368D01*
X130820750Y-77785369D01*
X130999996Y-77805565D01*
X131000000Y-77805565D01*
X131000004Y-77805565D01*
X131179249Y-77785369D01*
X131179252Y-77785368D01*
X131179255Y-77785368D01*
X131349522Y-77725789D01*
X131502262Y-77629816D01*
X131629816Y-77502262D01*
X131725789Y-77349522D01*
X131785368Y-77179255D01*
X131791392Y-77125789D01*
X131805565Y-77000003D01*
X131805565Y-76999996D01*
X131785369Y-76820750D01*
X131785368Y-76820745D01*
X131725788Y-76650476D01*
X131684878Y-76585368D01*
X131629816Y-76497738D01*
X131629814Y-76497736D01*
X131629813Y-76497734D01*
X131627550Y-76494896D01*
X131626659Y-76492715D01*
X131626111Y-76491842D01*
X131626264Y-76491745D01*
X131601144Y-76430209D01*
X131600500Y-76417587D01*
X131600500Y-70247494D01*
X131601561Y-70231308D01*
X131605683Y-70200000D01*
X131605683Y-70199999D01*
X131599037Y-70149522D01*
X131585044Y-70043238D01*
X131524536Y-69897159D01*
X131472862Y-69829816D01*
X131454343Y-69805681D01*
X131428283Y-69771719D01*
X131403228Y-69752493D01*
X131391034Y-69741799D01*
X129430700Y-67781465D01*
X129397215Y-67720142D01*
X129395163Y-67707686D01*
X129385368Y-67620745D01*
X129325789Y-67450478D01*
X129229816Y-67297738D01*
X129102262Y-67170184D01*
X128949523Y-67074211D01*
X128779254Y-67014631D01*
X128779249Y-67014630D01*
X128600004Y-66994435D01*
X128599996Y-66994435D01*
X128420750Y-67014630D01*
X128420745Y-67014631D01*
X128250476Y-67074211D01*
X128097737Y-67170184D01*
X127970184Y-67297737D01*
X127874211Y-67450476D01*
X127814631Y-67620745D01*
X127814630Y-67620750D01*
X127794435Y-67799996D01*
X127794435Y-67800003D01*
X125649238Y-67800003D01*
X122685811Y-64836576D01*
X122652326Y-64775253D01*
X122657310Y-64705561D01*
X122658032Y-64703673D01*
X122725334Y-64532195D01*
X122785383Y-64269103D01*
X122805549Y-64000000D01*
X122785383Y-63730897D01*
X122725334Y-63467805D01*
X122626743Y-63216602D01*
X122491815Y-62982898D01*
X122323561Y-62771915D01*
X122323560Y-62771914D01*
X122323557Y-62771910D01*
X122125741Y-62588365D01*
X121984888Y-62492333D01*
X121902775Y-62436349D01*
X121902769Y-62436346D01*
X121902768Y-62436345D01*
X121902767Y-62436344D01*
X121659643Y-62319263D01*
X121659645Y-62319263D01*
X121401773Y-62239720D01*
X121401767Y-62239718D01*
X121134936Y-62199500D01*
X121134929Y-62199500D01*
X120865071Y-62199500D01*
X120865063Y-62199500D01*
X120598232Y-62239718D01*
X120598226Y-62239720D01*
X120340358Y-62319262D01*
X120097230Y-62436346D01*
X119874258Y-62588365D01*
X119676442Y-62771910D01*
X119508185Y-62982898D01*
X119373258Y-63216599D01*
X119373256Y-63216603D01*
X119274666Y-63467804D01*
X119274664Y-63467811D01*
X119214616Y-63730898D01*
X119194451Y-63999995D01*
X119194451Y-64000004D01*
X115000000Y-64000004D01*
X115000000Y-60347870D01*
X119199500Y-60347870D01*
X119199501Y-60347876D01*
X119205908Y-60407483D01*
X119256202Y-60542328D01*
X119256206Y-60542335D01*
X119342452Y-60657544D01*
X119342455Y-60657547D01*
X119457664Y-60743793D01*
X119457671Y-60743797D01*
X119592517Y-60794091D01*
X119592516Y-60794091D01*
X119599444Y-60794835D01*
X119652127Y-60800500D01*
X122347872Y-60800499D01*
X122407483Y-60794091D01*
X122542331Y-60743796D01*
X122657546Y-60657546D01*
X122743796Y-60542331D01*
X122794091Y-60407483D01*
X122800500Y-60347873D01*
X122800499Y-57652128D01*
X122794091Y-57592517D01*
X122758740Y-57497737D01*
X122743797Y-57457671D01*
X122743793Y-57457664D01*
X122657547Y-57342455D01*
X122657544Y-57342452D01*
X122542335Y-57256206D01*
X122542328Y-57256202D01*
X122407482Y-57205908D01*
X122407483Y-57205908D01*
X122347883Y-57199501D01*
X122347881Y-57199500D01*
X122347873Y-57199500D01*
X122347864Y-57199500D01*
X119652129Y-57199500D01*
X119652123Y-57199501D01*
X119592516Y-57205908D01*
X119457671Y-57256202D01*
X119457664Y-57256206D01*
X119342455Y-57342452D01*
X119342452Y-57342455D01*
X119256206Y-57457664D01*
X119256202Y-57457671D01*
X119205908Y-57592517D01*
X119199677Y-57650478D01*
X119199501Y-57652123D01*
X119199500Y-57652135D01*
X119199500Y-60347870D01*
X115000000Y-60347870D01*
X115000000Y-55624000D01*
X115019685Y-55556961D01*
X115072489Y-55511206D01*
X115124000Y-55500000D01*
X131000000Y-55500000D01*
X131000000Y-48624000D01*
X131019685Y-48556961D01*
X131072489Y-48511206D01*
X131124000Y-48500000D01*
X165376000Y-48500000D01*
X165443039Y-48519685D01*
G37*
G04 #@! TD.AperFunction*
G04 #@! TA.AperFunction,Conductor*
G36*
X214318441Y-48019685D02*
G01*
X214364196Y-48072489D01*
X214374140Y-48141647D01*
X214345115Y-48205203D01*
X214339096Y-48211667D01*
X214181465Y-48369299D01*
X214120142Y-48402783D01*
X214107668Y-48404837D01*
X214020750Y-48414630D01*
X213850478Y-48474210D01*
X213697737Y-48570184D01*
X213570184Y-48697737D01*
X213474211Y-48850476D01*
X213414631Y-49020745D01*
X213414630Y-49020750D01*
X213394435Y-49199996D01*
X213394435Y-49200003D01*
X213414630Y-49379249D01*
X213414631Y-49379254D01*
X213474211Y-49549523D01*
X213570184Y-49702262D01*
X213697738Y-49829816D01*
X213850478Y-49925789D01*
X214020745Y-49985368D01*
X214020750Y-49985369D01*
X214199996Y-50005565D01*
X214200000Y-50005565D01*
X214200004Y-50005565D01*
X214379249Y-49985369D01*
X214379252Y-49985368D01*
X214379255Y-49985368D01*
X214549522Y-49925789D01*
X214702262Y-49829816D01*
X214829816Y-49702262D01*
X214925789Y-49549522D01*
X214985368Y-49379255D01*
X214995161Y-49292329D01*
X215022226Y-49227918D01*
X215030690Y-49218543D01*
X216212416Y-48036819D01*
X216273739Y-48003334D01*
X216300097Y-48000500D01*
X242876000Y-48000500D01*
X242943039Y-48020185D01*
X242988794Y-48072989D01*
X243000000Y-48124500D01*
X243000000Y-63906403D01*
X242980315Y-63973442D01*
X242927511Y-64019197D01*
X242858353Y-64029141D01*
X242794797Y-64000116D01*
X242788319Y-63994084D01*
X235717819Y-56923584D01*
X235684334Y-56862261D01*
X235681500Y-56835903D01*
X235681500Y-53792899D01*
X235701185Y-53725860D01*
X235753989Y-53680105D01*
X235805500Y-53668899D01*
X237110071Y-53668899D01*
X237110072Y-53668899D01*
X237169683Y-53662491D01*
X237304531Y-53612196D01*
X237419746Y-53525946D01*
X237505996Y-53410731D01*
X237556291Y-53275883D01*
X237562700Y-53216273D01*
X237562699Y-50783728D01*
X237556291Y-50724117D01*
X237505996Y-50589269D01*
X237505995Y-50589268D01*
X237505993Y-50589264D01*
X237419747Y-50474055D01*
X237419744Y-50474052D01*
X237304535Y-50387806D01*
X237304528Y-50387802D01*
X237169682Y-50337508D01*
X237169683Y-50337508D01*
X237110083Y-50331101D01*
X237110081Y-50331100D01*
X237110073Y-50331100D01*
X237110064Y-50331100D01*
X233051929Y-50331100D01*
X233051923Y-50331101D01*
X232992316Y-50337508D01*
X232857471Y-50387802D01*
X232857464Y-50387806D01*
X232742255Y-50474052D01*
X232742252Y-50474055D01*
X232656006Y-50589264D01*
X232656002Y-50589271D01*
X232605708Y-50724117D01*
X232599301Y-50783716D01*
X232599301Y-50783723D01*
X232599300Y-50783735D01*
X232599300Y-51275500D01*
X232579615Y-51342539D01*
X232526811Y-51388294D01*
X232475300Y-51399500D01*
X224605699Y-51399500D01*
X224538660Y-51379815D01*
X224492905Y-51327011D01*
X224481699Y-51275500D01*
X224481699Y-49412129D01*
X224481698Y-49412123D01*
X224481697Y-49412116D01*
X224475291Y-49352517D01*
X224425318Y-49218533D01*
X224424997Y-49217671D01*
X224424993Y-49217664D01*
X224338747Y-49102455D01*
X224338744Y-49102452D01*
X224223535Y-49016206D01*
X224223528Y-49016202D01*
X224088682Y-48965908D01*
X224088683Y-48965908D01*
X224029083Y-48959501D01*
X224029081Y-48959500D01*
X224029073Y-48959500D01*
X224029064Y-48959500D01*
X219970929Y-48959500D01*
X219970923Y-48959501D01*
X219911316Y-48965908D01*
X219776471Y-49016202D01*
X219776464Y-49016206D01*
X219661255Y-49102452D01*
X219661252Y-49102455D01*
X219575006Y-49217664D01*
X219575002Y-49217671D01*
X219524708Y-49352517D01*
X219521834Y-49379254D01*
X219518301Y-49412123D01*
X219518300Y-49412135D01*
X219518300Y-54587870D01*
X219518301Y-54587876D01*
X219524708Y-54647483D01*
X219575002Y-54782328D01*
X219575006Y-54782335D01*
X219661252Y-54897544D01*
X219661255Y-54897547D01*
X219776464Y-54983793D01*
X219776471Y-54983797D01*
X219911317Y-55034091D01*
X219911316Y-55034091D01*
X219918244Y-55034835D01*
X219970927Y-55040500D01*
X224029072Y-55040499D01*
X224088683Y-55034091D01*
X224223531Y-54983796D01*
X224338746Y-54897546D01*
X224424996Y-54782331D01*
X224475291Y-54647483D01*
X224481700Y-54587873D01*
X224481700Y-52724500D01*
X224501385Y-52657461D01*
X224554189Y-52611706D01*
X224605700Y-52600500D01*
X232475301Y-52600500D01*
X232542340Y-52620185D01*
X232588095Y-52672989D01*
X232599301Y-52724500D01*
X232599301Y-53216276D01*
X232605708Y-53275883D01*
X232656002Y-53410728D01*
X232656006Y-53410735D01*
X232742252Y-53525944D01*
X232742255Y-53525947D01*
X232857464Y-53612193D01*
X232857471Y-53612197D01*
X232992317Y-53662491D01*
X232992316Y-53662491D01*
X232999244Y-53663235D01*
X233051927Y-53668900D01*
X234356500Y-53668899D01*
X234423539Y-53688584D01*
X234469294Y-53741387D01*
X234480500Y-53792899D01*
X234480500Y-57088512D01*
X234479439Y-57104697D01*
X234475318Y-57135998D01*
X234475318Y-57136000D01*
X234480500Y-57175360D01*
X234480500Y-57175361D01*
X234495955Y-57292760D01*
X234495956Y-57292762D01*
X234556464Y-57438841D01*
X234652718Y-57564282D01*
X234652719Y-57564283D01*
X234677769Y-57583504D01*
X234689964Y-57594199D01*
X242963681Y-65867916D01*
X242997166Y-65929239D01*
X243000000Y-65955597D01*
X243000000Y-90876000D01*
X242980315Y-90943039D01*
X242927511Y-90988794D01*
X242876000Y-91000000D01*
X234792765Y-91000000D01*
X234725726Y-90980315D01*
X234679971Y-90927511D01*
X234670027Y-90858353D01*
X234687771Y-90810028D01*
X234725788Y-90749523D01*
X234725789Y-90749522D01*
X234785368Y-90579255D01*
X234805565Y-90400000D01*
X234803140Y-90378480D01*
X234785369Y-90220750D01*
X234785368Y-90220745D01*
X234725788Y-90050476D01*
X234629815Y-89897737D01*
X234502262Y-89770184D01*
X234349523Y-89674211D01*
X234179254Y-89614631D01*
X234179249Y-89614630D01*
X234000004Y-89594435D01*
X233999996Y-89594435D01*
X233820750Y-89614630D01*
X233820745Y-89614631D01*
X233650477Y-89674211D01*
X233554481Y-89734529D01*
X233516660Y-89758295D01*
X233515579Y-89758974D01*
X233449607Y-89777980D01*
X224464813Y-89777980D01*
X224397774Y-89758295D01*
X224352019Y-89705491D01*
X224340813Y-89653980D01*
X224340813Y-88827724D01*
X232459413Y-88827724D01*
X232465814Y-88887252D01*
X232465816Y-88887259D01*
X232516058Y-89021966D01*
X232516062Y-89021973D01*
X232602222Y-89137067D01*
X232602225Y-89137070D01*
X232717319Y-89223230D01*
X232717326Y-89223234D01*
X232852033Y-89273476D01*
X232852040Y-89273478D01*
X232911568Y-89279879D01*
X232911585Y-89279880D01*
X232918660Y-89279880D01*
X232918660Y-89279879D01*
X233625766Y-89279879D01*
X233625767Y-89279880D01*
X236255459Y-89279880D01*
X236255459Y-89279879D01*
X234940614Y-87965033D01*
X234940612Y-87965033D01*
X233625766Y-89279879D01*
X232918660Y-89279879D01*
X234587060Y-87611480D01*
X235294166Y-87611480D01*
X236962566Y-89279880D01*
X236969641Y-89279880D01*
X236969657Y-89279879D01*
X237029185Y-89273478D01*
X237029192Y-89273476D01*
X237163899Y-89223234D01*
X237163906Y-89223230D01*
X237279000Y-89137070D01*
X237279003Y-89137067D01*
X237365163Y-89021973D01*
X237365167Y-89021966D01*
X237415409Y-88887259D01*
X237415411Y-88887252D01*
X237421812Y-88827724D01*
X237421813Y-88827707D01*
X237421813Y-86395252D01*
X237421812Y-86395235D01*
X237415411Y-86335707D01*
X237415409Y-86335700D01*
X237365167Y-86200993D01*
X237365163Y-86200986D01*
X237279003Y-86085892D01*
X237279000Y-86085889D01*
X237163906Y-85999729D01*
X237163899Y-85999725D01*
X237029192Y-85949483D01*
X237029185Y-85949481D01*
X236969657Y-85943080D01*
X236962565Y-85943080D01*
X235294166Y-87611480D01*
X234587060Y-87611480D01*
X232918660Y-85943080D01*
X233625766Y-85943080D01*
X234940613Y-87257926D01*
X236255459Y-85943080D01*
X233625766Y-85943080D01*
X232918660Y-85943080D01*
X232911568Y-85943080D01*
X232852040Y-85949481D01*
X232852033Y-85949483D01*
X232717326Y-85999725D01*
X232717319Y-85999729D01*
X232602225Y-86085889D01*
X232602222Y-86085892D01*
X232516062Y-86200986D01*
X232516058Y-86200993D01*
X232465816Y-86335700D01*
X232465814Y-86335707D01*
X232459413Y-86395235D01*
X232459413Y-88827724D01*
X224340813Y-88827724D01*
X224340813Y-85483833D01*
X224340812Y-85483832D01*
X221947294Y-87877351D01*
X221885971Y-87910836D01*
X221816279Y-87905852D01*
X221771932Y-87877351D01*
X219378413Y-85483832D01*
X219378413Y-89653980D01*
X219358728Y-89721019D01*
X219305924Y-89766774D01*
X219254413Y-89777980D01*
X201960913Y-89777980D01*
X201893874Y-89758295D01*
X201848119Y-89705491D01*
X201836913Y-89653980D01*
X201836912Y-86725945D01*
X201856597Y-86658906D01*
X201909400Y-86613151D01*
X201974796Y-86602725D01*
X201992009Y-86604664D01*
X201999999Y-86605565D01*
X202000000Y-86605565D01*
X202000004Y-86605565D01*
X202179249Y-86585369D01*
X202179252Y-86585368D01*
X202179255Y-86585368D01*
X202349522Y-86525789D01*
X202502262Y-86429816D01*
X202629816Y-86302262D01*
X202725789Y-86149522D01*
X202785368Y-85979255D01*
X202795161Y-85892329D01*
X202822226Y-85827918D01*
X202830690Y-85818543D01*
X202991043Y-85658190D01*
X203003223Y-85647509D01*
X203028282Y-85628282D01*
X203124536Y-85502841D01*
X203185044Y-85356762D01*
X203200500Y-85239361D01*
X203205682Y-85200000D01*
X203204949Y-85194435D01*
X203201561Y-85168697D01*
X203200500Y-85152512D01*
X203200500Y-84832290D01*
X219433976Y-84832290D01*
X219433977Y-84832292D01*
X221859613Y-87257927D01*
X221859614Y-87257927D01*
X224285247Y-84832291D01*
X224284165Y-84829391D01*
X224284163Y-84829387D01*
X224198000Y-84714289D01*
X224082906Y-84628129D01*
X224082899Y-84628125D01*
X223948192Y-84577883D01*
X223948185Y-84577881D01*
X223888657Y-84571480D01*
X219830568Y-84571480D01*
X219771040Y-84577881D01*
X219771033Y-84577883D01*
X219636326Y-84628125D01*
X219636319Y-84628129D01*
X219521226Y-84714289D01*
X219435058Y-84829393D01*
X219433976Y-84832290D01*
X203200500Y-84832290D01*
X203200500Y-81182412D01*
X203220185Y-81115373D01*
X203227555Y-81105097D01*
X203229810Y-81102267D01*
X203229816Y-81102262D01*
X203325789Y-80949522D01*
X203385368Y-80779255D01*
X203393101Y-80710616D01*
X203420166Y-80646204D01*
X203477760Y-80606648D01*
X203516321Y-80600500D01*
X209817588Y-80600500D01*
X209884627Y-80620185D01*
X209894903Y-80627555D01*
X209897736Y-80629814D01*
X209897738Y-80629816D01*
X210050478Y-80725789D01*
X210203258Y-80779249D01*
X210220745Y-80785368D01*
X210220750Y-80785369D01*
X210399996Y-80805565D01*
X210400000Y-80805565D01*
X210400004Y-80805565D01*
X210579249Y-80785369D01*
X210579252Y-80785368D01*
X210579255Y-80785368D01*
X210749522Y-80725789D01*
X210902262Y-80629816D01*
X211029816Y-80502262D01*
X211125789Y-80349522D01*
X211185368Y-80179255D01*
X211195161Y-80092329D01*
X211222226Y-80027918D01*
X211230690Y-80018543D01*
X211391043Y-79858190D01*
X211403223Y-79847509D01*
X211428282Y-79828282D01*
X211524536Y-79702841D01*
X211585044Y-79556762D01*
X211600500Y-79439361D01*
X211605682Y-79400000D01*
X211605531Y-79398855D01*
X211601561Y-79368697D01*
X211600500Y-79352512D01*
X211600500Y-61982412D01*
X211620185Y-61915373D01*
X211627555Y-61905097D01*
X211629810Y-61902267D01*
X211629816Y-61902262D01*
X211725789Y-61749522D01*
X211785368Y-61579255D01*
X211795161Y-61492329D01*
X211822226Y-61427918D01*
X211830690Y-61418543D01*
X212612416Y-60636819D01*
X212673739Y-60603334D01*
X212700097Y-60600500D01*
X219703642Y-60600500D01*
X219770681Y-60620185D01*
X219816436Y-60672989D01*
X219826380Y-60742147D01*
X219797355Y-60805703D01*
X219746975Y-60840682D01*
X219623602Y-60886696D01*
X219623595Y-60886700D01*
X219508386Y-60972946D01*
X219508383Y-60972949D01*
X219422137Y-61088158D01*
X219422133Y-61088165D01*
X219371839Y-61223011D01*
X219365432Y-61282610D01*
X219365432Y-61282617D01*
X219365431Y-61282629D01*
X219365431Y-66458364D01*
X219365432Y-66458370D01*
X219371839Y-66517977D01*
X219422133Y-66652822D01*
X219422137Y-66652829D01*
X219508383Y-66768038D01*
X219508386Y-66768041D01*
X219623595Y-66854287D01*
X219623602Y-66854291D01*
X219758448Y-66904585D01*
X219758447Y-66904585D01*
X219765375Y-66905329D01*
X219818058Y-66910994D01*
X223876203Y-66910993D01*
X223935814Y-66904585D01*
X224070662Y-66854290D01*
X224185877Y-66768040D01*
X224272127Y-66652825D01*
X224322422Y-66517977D01*
X224328831Y-66458367D01*
X224328831Y-64594994D01*
X224348516Y-64527955D01*
X224401320Y-64482200D01*
X224452831Y-64470994D01*
X232322432Y-64470994D01*
X232389471Y-64490679D01*
X232435226Y-64543483D01*
X232446432Y-64594994D01*
X232446432Y-65086770D01*
X232452839Y-65146377D01*
X232503133Y-65281222D01*
X232503137Y-65281229D01*
X232589383Y-65396438D01*
X232589386Y-65396441D01*
X232704595Y-65482687D01*
X232704602Y-65482691D01*
X232839448Y-65532985D01*
X232839447Y-65532985D01*
X232846375Y-65533729D01*
X232899058Y-65539394D01*
X234203631Y-65539393D01*
X234270670Y-65559078D01*
X234316425Y-65611881D01*
X234327631Y-65663393D01*
X234327631Y-73948087D01*
X234307946Y-74015126D01*
X234255142Y-74060881D01*
X234203631Y-74072087D01*
X232899060Y-74072087D01*
X232899054Y-74072088D01*
X232839447Y-74078495D01*
X232704602Y-74128789D01*
X232704595Y-74128793D01*
X232589386Y-74215039D01*
X232589383Y-74215042D01*
X232503137Y-74330251D01*
X232503133Y-74330258D01*
X232452839Y-74465104D01*
X232446432Y-74524703D01*
X232446432Y-74524710D01*
X232446431Y-74524722D01*
X232446431Y-75016487D01*
X232426746Y-75083526D01*
X232373942Y-75129281D01*
X232322431Y-75140487D01*
X224452830Y-75140487D01*
X224385791Y-75120802D01*
X224340036Y-75067998D01*
X224328830Y-75016487D01*
X224328830Y-73153116D01*
X224328829Y-73153110D01*
X224328828Y-73153103D01*
X224322422Y-73093504D01*
X224272127Y-72958656D01*
X224272126Y-72958655D01*
X224272124Y-72958651D01*
X224185878Y-72843442D01*
X224185875Y-72843439D01*
X224070666Y-72757193D01*
X224070659Y-72757189D01*
X223935813Y-72706895D01*
X223935814Y-72706895D01*
X223876214Y-72700488D01*
X223876212Y-72700487D01*
X223876204Y-72700487D01*
X223876195Y-72700487D01*
X219818060Y-72700487D01*
X219818054Y-72700488D01*
X219758447Y-72706895D01*
X219623602Y-72757189D01*
X219623595Y-72757193D01*
X219508386Y-72843439D01*
X219508383Y-72843442D01*
X219422137Y-72958651D01*
X219422133Y-72958658D01*
X219371839Y-73093504D01*
X219365432Y-73153103D01*
X219365432Y-73153110D01*
X219365431Y-73153122D01*
X219365431Y-78328857D01*
X219365432Y-78328863D01*
X219371839Y-78388470D01*
X219422133Y-78523315D01*
X219422137Y-78523322D01*
X219508383Y-78638531D01*
X219508386Y-78638534D01*
X219623595Y-78724780D01*
X219623602Y-78724784D01*
X219758448Y-78775078D01*
X219758447Y-78775078D01*
X219765375Y-78775822D01*
X219818058Y-78781487D01*
X223876203Y-78781486D01*
X223935814Y-78775078D01*
X224070662Y-78724783D01*
X224185877Y-78638533D01*
X224272127Y-78523318D01*
X224322422Y-78388470D01*
X224328831Y-78328860D01*
X224328831Y-76465487D01*
X224348516Y-76398448D01*
X224401320Y-76352693D01*
X224452831Y-76341487D01*
X232322432Y-76341487D01*
X232389471Y-76361172D01*
X232435226Y-76413976D01*
X232446432Y-76465487D01*
X232446432Y-76957263D01*
X232452839Y-77016870D01*
X232503133Y-77151715D01*
X232503137Y-77151722D01*
X232589383Y-77266931D01*
X232589386Y-77266934D01*
X232704595Y-77353180D01*
X232704602Y-77353184D01*
X232839448Y-77403478D01*
X232839447Y-77403478D01*
X232846375Y-77404222D01*
X232899058Y-77409887D01*
X236957203Y-77409886D01*
X237016814Y-77403478D01*
X237151662Y-77353183D01*
X237266877Y-77266933D01*
X237353127Y-77151718D01*
X237403422Y-77016870D01*
X237409831Y-76957260D01*
X237409830Y-74524715D01*
X237403422Y-74465104D01*
X237353127Y-74330256D01*
X237353126Y-74330255D01*
X237353124Y-74330251D01*
X237266878Y-74215042D01*
X237266875Y-74215039D01*
X237151666Y-74128793D01*
X237151659Y-74128789D01*
X237016813Y-74078495D01*
X237016814Y-74078495D01*
X236957214Y-74072088D01*
X236957212Y-74072087D01*
X236957204Y-74072087D01*
X236957196Y-74072087D01*
X235652631Y-74072087D01*
X235585592Y-74052402D01*
X235539837Y-73999598D01*
X235528631Y-73948087D01*
X235528631Y-65663393D01*
X235548316Y-65596354D01*
X235601120Y-65550599D01*
X235652631Y-65539393D01*
X236957202Y-65539393D01*
X236957203Y-65539393D01*
X237016814Y-65532985D01*
X237151662Y-65482690D01*
X237266877Y-65396440D01*
X237353127Y-65281225D01*
X237403422Y-65146377D01*
X237409831Y-65086767D01*
X237409830Y-62654222D01*
X237403422Y-62594611D01*
X237353127Y-62459763D01*
X237353126Y-62459762D01*
X237353124Y-62459758D01*
X237266878Y-62344549D01*
X237266875Y-62344546D01*
X237151666Y-62258300D01*
X237151659Y-62258296D01*
X237016813Y-62208002D01*
X237016814Y-62208002D01*
X236957214Y-62201595D01*
X236957212Y-62201594D01*
X236957204Y-62201594D01*
X236957196Y-62201594D01*
X235829846Y-62201594D01*
X235762807Y-62181909D01*
X235717052Y-62129105D01*
X235707108Y-62059947D01*
X235736133Y-61996391D01*
X235742165Y-61989913D01*
X235762295Y-61969783D01*
X235829816Y-61902262D01*
X235925789Y-61749522D01*
X235985368Y-61579255D01*
X235996030Y-61484626D01*
X236005565Y-61400003D01*
X236005565Y-61399996D01*
X235985369Y-61220750D01*
X235985368Y-61220745D01*
X235938976Y-61088165D01*
X235925789Y-61050478D01*
X235829816Y-60897738D01*
X235702262Y-60770184D01*
X235549521Y-60674210D01*
X235401849Y-60622538D01*
X235379255Y-60614632D01*
X235379254Y-60614631D01*
X235379249Y-60614630D01*
X235292330Y-60604837D01*
X235227916Y-60577770D01*
X235218533Y-60569298D01*
X234258199Y-59608964D01*
X234247504Y-59596769D01*
X234228283Y-59571719D01*
X234228279Y-59571716D01*
X234102841Y-59475464D01*
X233956762Y-59414956D01*
X233956760Y-59414955D01*
X233800001Y-59394318D01*
X233800000Y-59394318D01*
X233768697Y-59398439D01*
X233752513Y-59399500D01*
X212447487Y-59399500D01*
X212431302Y-59398439D01*
X212400000Y-59394318D01*
X212399999Y-59394318D01*
X212243239Y-59414955D01*
X212243237Y-59414956D01*
X212097157Y-59475464D01*
X211971718Y-59571716D01*
X211952489Y-59596775D01*
X211941798Y-59608965D01*
X211087680Y-60463083D01*
X211026357Y-60496568D01*
X210956665Y-60491584D01*
X210912318Y-60463083D01*
X209458199Y-59008964D01*
X209447504Y-58996769D01*
X209428283Y-58971719D01*
X209408791Y-58956762D01*
X209302841Y-58875464D01*
X209156762Y-58814956D01*
X209156760Y-58814955D01*
X209039361Y-58799500D01*
X209000000Y-58794318D01*
X208968697Y-58798439D01*
X208952513Y-58799500D01*
X195647487Y-58799500D01*
X195631302Y-58798439D01*
X195600000Y-58794318D01*
X195560639Y-58799500D01*
X195443239Y-58814955D01*
X195443237Y-58814956D01*
X195297157Y-58875464D01*
X195171718Y-58971716D01*
X195152489Y-58996775D01*
X195141798Y-59008965D01*
X193581465Y-60569298D01*
X193520142Y-60602783D01*
X193507668Y-60604837D01*
X193420750Y-60614630D01*
X193250478Y-60674210D01*
X193097737Y-60770184D01*
X192970184Y-60897737D01*
X192874211Y-61050476D01*
X192814631Y-61220745D01*
X192814630Y-61220750D01*
X192794435Y-61399996D01*
X192794435Y-61400003D01*
X192814630Y-61579249D01*
X192814631Y-61579254D01*
X192874211Y-61749523D01*
X192970184Y-61902262D01*
X193097738Y-62029816D01*
X193131828Y-62051236D01*
X193242741Y-62120928D01*
X193250478Y-62125789D01*
X193403258Y-62179249D01*
X193420745Y-62185368D01*
X193420750Y-62185369D01*
X193599996Y-62205565D01*
X193600000Y-62205565D01*
X193600004Y-62205565D01*
X193779249Y-62185369D01*
X193779252Y-62185368D01*
X193779255Y-62185368D01*
X193949522Y-62125789D01*
X194102262Y-62029816D01*
X194229816Y-61902262D01*
X194325789Y-61749522D01*
X194385368Y-61579255D01*
X194395161Y-61492329D01*
X194422226Y-61427918D01*
X194430690Y-61418543D01*
X195812416Y-60036819D01*
X195873739Y-60003334D01*
X195900097Y-60000500D01*
X208699903Y-60000500D01*
X208766942Y-60020185D01*
X208787584Y-60036819D01*
X210169298Y-61418533D01*
X210202783Y-61479856D01*
X210204837Y-61492330D01*
X210214630Y-61579249D01*
X210274210Y-61749521D01*
X210370185Y-61902263D01*
X210372445Y-61905097D01*
X210373334Y-61907275D01*
X210373889Y-61908158D01*
X210373734Y-61908255D01*
X210398855Y-61969783D01*
X210399500Y-61982412D01*
X210399500Y-79083677D01*
X210379815Y-79150716D01*
X210327011Y-79196471D01*
X210289384Y-79206897D01*
X210220750Y-79214630D01*
X210050478Y-79274210D01*
X209897736Y-79370185D01*
X209894903Y-79372445D01*
X209892724Y-79373334D01*
X209891842Y-79373889D01*
X209891744Y-79373734D01*
X209830217Y-79398855D01*
X209817588Y-79399500D01*
X203247487Y-79399500D01*
X203231302Y-79398439D01*
X203200000Y-79394318D01*
X203160639Y-79399500D01*
X203043239Y-79414955D01*
X203043237Y-79414956D01*
X202897160Y-79475463D01*
X202771714Y-79571721D01*
X202752495Y-79596769D01*
X202741800Y-79608965D01*
X202581465Y-79769299D01*
X202520142Y-79802783D01*
X202507668Y-79804837D01*
X202420750Y-79814630D01*
X202250478Y-79874210D01*
X202097737Y-79970184D01*
X201970184Y-80097737D01*
X201874211Y-80250476D01*
X201814631Y-80420745D01*
X201814630Y-80420750D01*
X201794435Y-80599996D01*
X201794435Y-80600003D01*
X201814630Y-80779249D01*
X201814631Y-80779254D01*
X201874211Y-80949523D01*
X201970185Y-81102263D01*
X201972445Y-81105097D01*
X201973334Y-81107275D01*
X201973889Y-81108158D01*
X201973734Y-81108255D01*
X201998855Y-81169783D01*
X201999500Y-81182412D01*
X201999500Y-84749526D01*
X201979815Y-84816565D01*
X201927011Y-84862320D01*
X201857853Y-84872264D01*
X201794297Y-84843239D01*
X201776234Y-84823838D01*
X201720603Y-84749526D01*
X201693959Y-84713934D01*
X201693957Y-84713933D01*
X201693957Y-84713932D01*
X201578748Y-84627686D01*
X201578741Y-84627682D01*
X201443895Y-84577388D01*
X201443896Y-84577388D01*
X201384296Y-84570981D01*
X201384294Y-84570980D01*
X201384286Y-84570980D01*
X201384277Y-84570980D01*
X197326142Y-84570980D01*
X197326136Y-84570981D01*
X197266529Y-84577388D01*
X197131684Y-84627682D01*
X197131677Y-84627686D01*
X197016468Y-84713932D01*
X197016465Y-84713935D01*
X196930219Y-84829144D01*
X196930215Y-84829151D01*
X196879921Y-84963997D01*
X196873514Y-85023596D01*
X196873513Y-85023615D01*
X196873513Y-86886980D01*
X196853828Y-86954019D01*
X196801024Y-86999774D01*
X196749513Y-87010980D01*
X188879912Y-87010980D01*
X188812873Y-86991295D01*
X188767118Y-86938491D01*
X188755912Y-86886980D01*
X188755912Y-86395209D01*
X188755911Y-86395203D01*
X188755910Y-86395196D01*
X188749504Y-86335597D01*
X188699297Y-86200986D01*
X188699210Y-86200751D01*
X188699206Y-86200744D01*
X188612960Y-86085535D01*
X188612957Y-86085532D01*
X188497748Y-85999286D01*
X188497741Y-85999282D01*
X188362895Y-85948988D01*
X188362896Y-85948988D01*
X188303296Y-85942581D01*
X188303294Y-85942580D01*
X188303286Y-85942580D01*
X188303278Y-85942580D01*
X186986231Y-85942580D01*
X186919192Y-85922895D01*
X186873437Y-85870091D01*
X186862231Y-85818580D01*
X186862231Y-77533886D01*
X186881916Y-77466847D01*
X186934720Y-77421092D01*
X186986231Y-77409886D01*
X188290802Y-77409886D01*
X188290803Y-77409886D01*
X188350414Y-77403478D01*
X188485262Y-77353183D01*
X188600477Y-77266933D01*
X188686727Y-77151718D01*
X188737022Y-77016870D01*
X188743431Y-76957260D01*
X188743431Y-76465487D01*
X188763116Y-76398448D01*
X188815920Y-76352693D01*
X188867431Y-76341487D01*
X196737032Y-76341487D01*
X196804071Y-76361172D01*
X196849826Y-76413976D01*
X196861032Y-76465487D01*
X196861032Y-78328863D01*
X196867439Y-78388470D01*
X196917733Y-78523315D01*
X196917737Y-78523322D01*
X197003983Y-78638531D01*
X197003986Y-78638534D01*
X197119195Y-78724780D01*
X197119202Y-78724784D01*
X197254048Y-78775078D01*
X197254047Y-78775078D01*
X197260975Y-78775822D01*
X197313658Y-78781487D01*
X201371803Y-78781486D01*
X201431414Y-78775078D01*
X201566262Y-78724783D01*
X201681477Y-78638533D01*
X201767727Y-78523318D01*
X201818022Y-78388470D01*
X201824431Y-78328860D01*
X201824430Y-73153115D01*
X201818022Y-73093504D01*
X201767727Y-72958656D01*
X201767726Y-72958655D01*
X201767724Y-72958651D01*
X201681478Y-72843442D01*
X201681475Y-72843439D01*
X201566266Y-72757193D01*
X201566259Y-72757189D01*
X201431413Y-72706895D01*
X201431414Y-72706895D01*
X201371814Y-72700488D01*
X201371812Y-72700487D01*
X201371804Y-72700487D01*
X201371795Y-72700487D01*
X197313660Y-72700487D01*
X197313654Y-72700488D01*
X197254047Y-72706895D01*
X197119202Y-72757189D01*
X197119195Y-72757193D01*
X197003986Y-72843439D01*
X197003983Y-72843442D01*
X196917737Y-72958651D01*
X196917733Y-72958658D01*
X196867439Y-73093504D01*
X196861032Y-73153103D01*
X196861032Y-73153110D01*
X196861031Y-73153122D01*
X196861031Y-75016487D01*
X196841346Y-75083526D01*
X196788542Y-75129281D01*
X196737031Y-75140487D01*
X188867430Y-75140487D01*
X188800391Y-75120802D01*
X188754636Y-75067998D01*
X188743430Y-75016487D01*
X188743430Y-74524716D01*
X188743429Y-74524710D01*
X188743428Y-74524703D01*
X188737022Y-74465104D01*
X188686727Y-74330256D01*
X188686726Y-74330255D01*
X188686724Y-74330251D01*
X188600478Y-74215042D01*
X188600475Y-74215039D01*
X188485266Y-74128793D01*
X188485259Y-74128789D01*
X188350413Y-74078495D01*
X188350414Y-74078495D01*
X188290814Y-74072088D01*
X188290812Y-74072087D01*
X188290804Y-74072087D01*
X188290795Y-74072087D01*
X184232660Y-74072087D01*
X184232654Y-74072088D01*
X184173047Y-74078495D01*
X184038202Y-74128789D01*
X184038195Y-74128793D01*
X183922986Y-74215039D01*
X183922983Y-74215042D01*
X183836737Y-74330251D01*
X183836733Y-74330258D01*
X183786439Y-74465104D01*
X183780032Y-74524703D01*
X183780032Y-74524710D01*
X183780031Y-74524722D01*
X183780031Y-76957257D01*
X183780032Y-76957263D01*
X183786439Y-77016870D01*
X183836733Y-77151715D01*
X183836737Y-77151722D01*
X183922983Y-77266931D01*
X183922986Y-77266934D01*
X184038195Y-77353180D01*
X184038202Y-77353184D01*
X184173048Y-77403478D01*
X184173047Y-77403478D01*
X184179975Y-77404222D01*
X184232658Y-77409887D01*
X185537231Y-77409886D01*
X185604270Y-77429571D01*
X185650025Y-77482374D01*
X185661231Y-77533886D01*
X185661231Y-85818580D01*
X185641546Y-85885619D01*
X185588742Y-85931374D01*
X185537231Y-85942580D01*
X184245142Y-85942580D01*
X184245136Y-85942581D01*
X184185529Y-85948988D01*
X184050684Y-85999282D01*
X184050677Y-85999286D01*
X183935468Y-86085532D01*
X183935465Y-86085535D01*
X183849219Y-86200744D01*
X183849215Y-86200751D01*
X183798921Y-86335597D01*
X183792514Y-86395196D01*
X183792514Y-86395203D01*
X183792513Y-86395215D01*
X183792513Y-88827750D01*
X183792514Y-88827756D01*
X183798921Y-88887363D01*
X183852316Y-89030521D01*
X183849254Y-89031662D01*
X183860718Y-89084334D01*
X183836308Y-89149800D01*
X183780378Y-89191677D01*
X183737033Y-89199500D01*
X176300097Y-89199500D01*
X176233058Y-89179815D01*
X176212416Y-89163181D01*
X173536319Y-86487084D01*
X173502834Y-86425761D01*
X173500000Y-86399403D01*
X173500000Y-83000000D01*
X171964435Y-83000000D01*
X171897396Y-82980315D01*
X171851641Y-82927511D01*
X171841697Y-82858353D01*
X171870722Y-82794797D01*
X171890124Y-82776734D01*
X171948432Y-82733083D01*
X171982546Y-82707546D01*
X172068796Y-82592331D01*
X172119091Y-82457483D01*
X172125500Y-82397873D01*
X172125499Y-80602128D01*
X172119091Y-80542517D01*
X172117810Y-80539083D01*
X172068797Y-80407671D01*
X172068793Y-80407664D01*
X171982547Y-80292455D01*
X171982544Y-80292452D01*
X171867335Y-80206206D01*
X171867328Y-80206202D01*
X171732482Y-80155908D01*
X171732483Y-80155908D01*
X171672883Y-80149501D01*
X171672881Y-80149500D01*
X171672873Y-80149500D01*
X171672864Y-80149500D01*
X169877129Y-80149500D01*
X169877123Y-80149501D01*
X169817516Y-80155908D01*
X169682671Y-80206202D01*
X169682664Y-80206206D01*
X169567455Y-80292452D01*
X169567452Y-80292455D01*
X169481206Y-80407664D01*
X169481203Y-80407669D01*
X169432189Y-80539083D01*
X169390317Y-80595016D01*
X169324853Y-80619433D01*
X169256580Y-80604581D01*
X169228326Y-80583430D01*
X169106402Y-80461506D01*
X169106395Y-80461501D01*
X168912834Y-80325967D01*
X168912830Y-80325965D01*
X168698663Y-80226097D01*
X168698659Y-80226096D01*
X168698655Y-80226094D01*
X168470413Y-80164938D01*
X168470403Y-80164936D01*
X168235001Y-80144341D01*
X168234999Y-80144341D01*
X167999596Y-80164936D01*
X167999586Y-80164938D01*
X167771344Y-80226094D01*
X167771337Y-80226096D01*
X167771337Y-80226097D01*
X167719057Y-80250476D01*
X167676405Y-80270365D01*
X167607328Y-80280857D01*
X167543544Y-80252337D01*
X167505304Y-80193861D01*
X167500000Y-80157983D01*
X167500000Y-78924500D01*
X167519685Y-78857461D01*
X167572489Y-78811706D01*
X167624000Y-78800500D01*
X172152513Y-78800500D01*
X172168697Y-78801560D01*
X172200000Y-78805682D01*
X172200001Y-78805682D01*
X172252254Y-78798802D01*
X172356762Y-78785044D01*
X172502841Y-78724536D01*
X172628282Y-78628282D01*
X172647509Y-78603223D01*
X172658190Y-78591043D01*
X179218535Y-72030698D01*
X179279856Y-71997215D01*
X179292311Y-71995163D01*
X179379255Y-71985368D01*
X179549522Y-71925789D01*
X179702262Y-71829816D01*
X179829816Y-71702262D01*
X179925789Y-71549522D01*
X179985368Y-71379255D01*
X179995161Y-71292329D01*
X180022226Y-71227918D01*
X180030690Y-71218543D01*
X180779718Y-70469515D01*
X180841039Y-70436032D01*
X180910731Y-70441016D01*
X180933369Y-70452205D01*
X181050473Y-70525787D01*
X181050477Y-70525788D01*
X181050478Y-70525789D01*
X181177352Y-70570184D01*
X181220745Y-70585368D01*
X181220750Y-70585369D01*
X181399996Y-70605565D01*
X181400000Y-70605565D01*
X181400004Y-70605565D01*
X181579249Y-70585369D01*
X181579252Y-70585368D01*
X181579255Y-70585368D01*
X181749522Y-70525789D01*
X181902262Y-70429816D01*
X181902267Y-70429810D01*
X181905097Y-70427555D01*
X181907275Y-70426665D01*
X181908158Y-70426111D01*
X181908255Y-70426265D01*
X181969783Y-70401145D01*
X181982412Y-70400500D01*
X182752513Y-70400500D01*
X182768697Y-70401560D01*
X182800000Y-70405682D01*
X182800001Y-70405682D01*
X182852254Y-70398802D01*
X182956762Y-70385044D01*
X183102836Y-70324538D01*
X183102837Y-70324538D01*
X183102837Y-70324537D01*
X183102841Y-70324536D01*
X183131869Y-70302262D01*
X183228282Y-70228282D01*
X183247509Y-70203223D01*
X183258190Y-70191043D01*
X187018535Y-66430698D01*
X187079856Y-66397215D01*
X187092311Y-66395163D01*
X187179255Y-66385368D01*
X187349522Y-66325789D01*
X187502262Y-66229816D01*
X187629816Y-66102262D01*
X187725789Y-65949522D01*
X187785368Y-65779255D01*
X187785369Y-65779249D01*
X187799987Y-65649510D01*
X187827053Y-65585096D01*
X187884648Y-65545541D01*
X187923207Y-65539393D01*
X188290802Y-65539393D01*
X188290803Y-65539393D01*
X188350414Y-65532985D01*
X188485262Y-65482690D01*
X188600477Y-65396440D01*
X188686727Y-65281225D01*
X188737022Y-65146377D01*
X188743431Y-65086767D01*
X188743431Y-64594994D01*
X188763116Y-64527955D01*
X188815920Y-64482200D01*
X188867431Y-64470994D01*
X196737032Y-64470994D01*
X196804071Y-64490679D01*
X196849826Y-64543483D01*
X196861032Y-64594994D01*
X196861032Y-66458370D01*
X196867439Y-66517977D01*
X196917733Y-66652822D01*
X196917737Y-66652829D01*
X197003983Y-66768038D01*
X197003986Y-66768041D01*
X197119195Y-66854287D01*
X197119202Y-66854291D01*
X197254048Y-66904585D01*
X197254047Y-66904585D01*
X197260975Y-66905329D01*
X197313658Y-66910994D01*
X201371803Y-66910993D01*
X201431414Y-66904585D01*
X201566262Y-66854290D01*
X201681477Y-66768040D01*
X201767727Y-66652825D01*
X201818022Y-66517977D01*
X201824431Y-66458367D01*
X201824430Y-61282622D01*
X201818022Y-61223011D01*
X201767727Y-61088163D01*
X201767726Y-61088162D01*
X201767724Y-61088158D01*
X201681478Y-60972949D01*
X201681475Y-60972946D01*
X201566266Y-60886700D01*
X201566259Y-60886696D01*
X201431413Y-60836402D01*
X201431414Y-60836402D01*
X201371814Y-60829995D01*
X201371812Y-60829994D01*
X201371804Y-60829994D01*
X201371795Y-60829994D01*
X197313660Y-60829994D01*
X197313654Y-60829995D01*
X197254047Y-60836402D01*
X197119202Y-60886696D01*
X197119195Y-60886700D01*
X197003986Y-60972946D01*
X197003983Y-60972949D01*
X196917737Y-61088158D01*
X196917733Y-61088165D01*
X196867439Y-61223011D01*
X196861032Y-61282610D01*
X196861032Y-61282617D01*
X196861031Y-61282629D01*
X196861031Y-63145994D01*
X196841346Y-63213033D01*
X196788542Y-63258788D01*
X196737031Y-63269994D01*
X188867430Y-63269994D01*
X188800391Y-63250309D01*
X188754636Y-63197505D01*
X188743430Y-63145994D01*
X188743430Y-62654223D01*
X188743429Y-62654217D01*
X188743428Y-62654210D01*
X188737022Y-62594611D01*
X188686727Y-62459763D01*
X188686726Y-62459762D01*
X188686724Y-62459758D01*
X188600478Y-62344549D01*
X188600475Y-62344546D01*
X188485266Y-62258300D01*
X188485259Y-62258296D01*
X188350413Y-62208002D01*
X188350414Y-62208002D01*
X188290814Y-62201595D01*
X188290812Y-62201594D01*
X188290804Y-62201594D01*
X188290796Y-62201594D01*
X187139100Y-62201594D01*
X187072061Y-62181909D01*
X187026306Y-62129105D01*
X187015100Y-62077594D01*
X187015100Y-53792899D01*
X187034785Y-53725860D01*
X187087589Y-53680105D01*
X187139100Y-53668899D01*
X188443671Y-53668899D01*
X188443672Y-53668899D01*
X188503283Y-53662491D01*
X188638131Y-53612196D01*
X188753346Y-53525946D01*
X188839596Y-53410731D01*
X188889891Y-53275883D01*
X188896300Y-53216273D01*
X188896300Y-52724500D01*
X188915985Y-52657461D01*
X188968789Y-52611706D01*
X189020300Y-52600500D01*
X196889901Y-52600500D01*
X196956940Y-52620185D01*
X197002695Y-52672989D01*
X197013901Y-52724500D01*
X197013901Y-54587876D01*
X197020308Y-54647483D01*
X197070602Y-54782328D01*
X197070606Y-54782335D01*
X197156852Y-54897544D01*
X197156855Y-54897547D01*
X197272064Y-54983793D01*
X197272071Y-54983797D01*
X197406917Y-55034091D01*
X197406916Y-55034091D01*
X197413844Y-55034835D01*
X197466527Y-55040500D01*
X201524672Y-55040499D01*
X201584283Y-55034091D01*
X201719131Y-54983796D01*
X201834346Y-54897546D01*
X201920596Y-54782331D01*
X201970891Y-54647483D01*
X201977300Y-54587873D01*
X201977299Y-49412128D01*
X201970891Y-49352517D01*
X201920918Y-49218533D01*
X201920597Y-49217671D01*
X201920593Y-49217664D01*
X201834347Y-49102455D01*
X201834344Y-49102452D01*
X201719135Y-49016206D01*
X201719128Y-49016202D01*
X201584282Y-48965908D01*
X201584283Y-48965908D01*
X201524683Y-48959501D01*
X201524681Y-48959500D01*
X201524673Y-48959500D01*
X201524664Y-48959500D01*
X197466529Y-48959500D01*
X197466523Y-48959501D01*
X197406916Y-48965908D01*
X197272071Y-49016202D01*
X197272064Y-49016206D01*
X197156855Y-49102452D01*
X197156852Y-49102455D01*
X197070606Y-49217664D01*
X197070602Y-49217671D01*
X197020308Y-49352517D01*
X197017434Y-49379254D01*
X197013901Y-49412123D01*
X197013900Y-49412135D01*
X197013900Y-51275500D01*
X196994215Y-51342539D01*
X196941411Y-51388294D01*
X196889900Y-51399500D01*
X189020299Y-51399500D01*
X188953260Y-51379815D01*
X188907505Y-51327011D01*
X188896299Y-51275500D01*
X188896299Y-50783729D01*
X188896298Y-50783723D01*
X188896297Y-50783716D01*
X188889891Y-50724117D01*
X188839596Y-50589269D01*
X188839595Y-50589268D01*
X188839593Y-50589264D01*
X188753347Y-50474055D01*
X188753344Y-50474052D01*
X188638135Y-50387806D01*
X188638128Y-50387802D01*
X188503282Y-50337508D01*
X188503283Y-50337508D01*
X188443683Y-50331101D01*
X188443681Y-50331100D01*
X188443673Y-50331100D01*
X188443664Y-50331100D01*
X184385529Y-50331100D01*
X184385523Y-50331101D01*
X184325916Y-50337508D01*
X184191071Y-50387802D01*
X184191064Y-50387806D01*
X184075855Y-50474052D01*
X184075852Y-50474055D01*
X183989606Y-50589264D01*
X183989602Y-50589271D01*
X183939308Y-50724117D01*
X183932901Y-50783716D01*
X183932901Y-50783723D01*
X183932900Y-50783735D01*
X183932900Y-53216270D01*
X183932901Y-53216276D01*
X183939308Y-53275883D01*
X183989602Y-53410728D01*
X183989606Y-53410735D01*
X184075852Y-53525944D01*
X184075855Y-53525947D01*
X184191064Y-53612193D01*
X184191071Y-53612197D01*
X184325917Y-53662491D01*
X184325916Y-53662491D01*
X184332844Y-53663235D01*
X184385527Y-53668900D01*
X185690100Y-53668899D01*
X185757139Y-53688584D01*
X185802894Y-53741387D01*
X185814100Y-53792899D01*
X185814100Y-62077594D01*
X185794415Y-62144633D01*
X185741611Y-62190388D01*
X185690100Y-62201594D01*
X184232660Y-62201594D01*
X184232654Y-62201595D01*
X184173047Y-62208002D01*
X184038202Y-62258296D01*
X184038195Y-62258300D01*
X183922986Y-62344546D01*
X183922983Y-62344549D01*
X183836737Y-62459758D01*
X183836733Y-62459765D01*
X183786439Y-62594611D01*
X183780032Y-62654210D01*
X183780032Y-62654217D01*
X183780031Y-62654229D01*
X183780031Y-65086764D01*
X183780032Y-65086770D01*
X183786439Y-65146377D01*
X183836733Y-65281222D01*
X183836737Y-65281229D01*
X183922983Y-65396438D01*
X183922986Y-65396441D01*
X184038195Y-65482687D01*
X184038202Y-65482691D01*
X184173048Y-65532985D01*
X184173047Y-65532985D01*
X184179975Y-65533729D01*
X184232658Y-65539394D01*
X185912008Y-65539393D01*
X185979047Y-65559078D01*
X186024802Y-65611881D01*
X186034746Y-65681040D01*
X186005721Y-65744596D01*
X185999689Y-65751074D01*
X182587584Y-69163181D01*
X182526261Y-69196666D01*
X182499903Y-69199500D01*
X181982412Y-69199500D01*
X181915373Y-69179815D01*
X181905097Y-69172445D01*
X181902263Y-69170185D01*
X181902262Y-69170184D01*
X181803044Y-69107841D01*
X181749523Y-69074211D01*
X181579254Y-69014631D01*
X181579249Y-69014630D01*
X181400004Y-68994435D01*
X181399996Y-68994435D01*
X181288383Y-69007010D01*
X181219561Y-68994955D01*
X181168182Y-68947606D01*
X181150500Y-68883790D01*
X181150500Y-54974499D01*
X181170185Y-54907460D01*
X181222989Y-54861705D01*
X181274500Y-54850499D01*
X181897871Y-54850499D01*
X181897872Y-54850499D01*
X181957483Y-54844091D01*
X182092331Y-54793796D01*
X182207546Y-54707546D01*
X182293796Y-54592331D01*
X182344091Y-54457483D01*
X182350500Y-54397873D01*
X182350499Y-51702128D01*
X182344091Y-51642517D01*
X182342542Y-51638365D01*
X182293797Y-51507671D01*
X182293793Y-51507664D01*
X182207547Y-51392455D01*
X182207544Y-51392452D01*
X182092335Y-51306206D01*
X182092328Y-51306202D01*
X181957482Y-51255908D01*
X181957483Y-51255908D01*
X181897883Y-51249501D01*
X181897881Y-51249500D01*
X181897873Y-51249500D01*
X181897864Y-51249500D01*
X179202129Y-51249500D01*
X179202123Y-51249501D01*
X179142516Y-51255908D01*
X179007671Y-51306202D01*
X179007664Y-51306206D01*
X178892455Y-51392452D01*
X178892452Y-51392455D01*
X178806206Y-51507664D01*
X178806202Y-51507671D01*
X178755908Y-51642517D01*
X178749501Y-51702116D01*
X178749501Y-51702123D01*
X178749500Y-51702135D01*
X178749500Y-54397870D01*
X178749501Y-54397876D01*
X178755908Y-54457483D01*
X178806202Y-54592328D01*
X178806206Y-54592335D01*
X178892452Y-54707544D01*
X178892455Y-54707547D01*
X179007664Y-54793793D01*
X179007671Y-54793797D01*
X179050551Y-54809790D01*
X179142517Y-54844091D01*
X179202127Y-54850500D01*
X179825500Y-54850499D01*
X179892539Y-54870183D01*
X179938294Y-54922987D01*
X179949500Y-54974499D01*
X179949500Y-69549902D01*
X179929815Y-69616941D01*
X179913181Y-69637583D01*
X179181465Y-70369298D01*
X179120142Y-70402783D01*
X179107668Y-70404837D01*
X179020750Y-70414630D01*
X178850478Y-70474210D01*
X178697737Y-70570184D01*
X178570184Y-70697737D01*
X178474210Y-70850478D01*
X178414630Y-71020750D01*
X178404837Y-71107668D01*
X178377770Y-71172082D01*
X178369298Y-71181465D01*
X171987584Y-77563181D01*
X171926261Y-77596666D01*
X171899903Y-77599500D01*
X167624000Y-77599500D01*
X167556961Y-77579815D01*
X167511206Y-77527011D01*
X167500000Y-77475500D01*
X167500000Y-72826288D01*
X167519007Y-72760314D01*
X167525789Y-72749522D01*
X167585368Y-72579255D01*
X167605565Y-72400000D01*
X167585368Y-72220745D01*
X167525789Y-72050478D01*
X167519005Y-72039681D01*
X167500000Y-71973710D01*
X167500000Y-59283440D01*
X167519685Y-59216401D01*
X167536319Y-59195759D01*
X167629816Y-59102262D01*
X167725789Y-58949522D01*
X167785368Y-58779255D01*
X167805565Y-58600000D01*
X167785368Y-58420745D01*
X167725789Y-58250478D01*
X167629816Y-58097738D01*
X167536319Y-58004241D01*
X167502834Y-57942918D01*
X167500000Y-57916560D01*
X167500000Y-53050004D01*
X168744451Y-53050004D01*
X168764616Y-53319101D01*
X168824664Y-53582188D01*
X168824666Y-53582195D01*
X168870901Y-53700000D01*
X168923257Y-53833398D01*
X169058185Y-54067102D01*
X169161906Y-54197163D01*
X169226442Y-54278089D01*
X169413183Y-54451358D01*
X169424259Y-54461635D01*
X169647226Y-54613651D01*
X169890359Y-54730738D01*
X170148228Y-54810280D01*
X170148229Y-54810280D01*
X170148232Y-54810281D01*
X170415063Y-54850499D01*
X170415068Y-54850499D01*
X170415071Y-54850500D01*
X170415072Y-54850500D01*
X170684928Y-54850500D01*
X170684929Y-54850500D01*
X170684936Y-54850499D01*
X170951767Y-54810281D01*
X170951768Y-54810280D01*
X170951772Y-54810280D01*
X171209641Y-54730738D01*
X171221695Y-54724932D01*
X171290636Y-54713578D01*
X171354771Y-54741298D01*
X171393738Y-54799292D01*
X171399500Y-54836651D01*
X171399500Y-61417587D01*
X171379815Y-61484626D01*
X171372450Y-61494896D01*
X171370186Y-61497734D01*
X171274211Y-61650476D01*
X171214631Y-61820745D01*
X171214630Y-61820750D01*
X171194435Y-61999996D01*
X171194435Y-62000003D01*
X171214630Y-62179249D01*
X171214631Y-62179254D01*
X171274211Y-62349523D01*
X171343477Y-62459758D01*
X171370184Y-62502262D01*
X171497738Y-62629816D01*
X171650478Y-62725789D01*
X171820745Y-62785368D01*
X171820750Y-62785369D01*
X171999996Y-62805565D01*
X172000000Y-62805565D01*
X172000004Y-62805565D01*
X172179249Y-62785369D01*
X172179252Y-62785368D01*
X172179255Y-62785368D01*
X172349522Y-62725789D01*
X172502262Y-62629816D01*
X172629816Y-62502262D01*
X172725789Y-62349522D01*
X172785368Y-62179255D01*
X172789269Y-62144633D01*
X172805565Y-62000003D01*
X172805565Y-61999996D01*
X172785369Y-61820750D01*
X172785368Y-61820745D01*
X172725788Y-61650476D01*
X172692645Y-61597730D01*
X172629816Y-61497738D01*
X172629814Y-61497736D01*
X172629813Y-61497734D01*
X172627550Y-61494896D01*
X172626659Y-61492715D01*
X172626111Y-61491842D01*
X172626264Y-61491745D01*
X172601144Y-61430209D01*
X172600500Y-61417587D01*
X172600500Y-54547487D01*
X172601561Y-54531301D01*
X172605682Y-54500000D01*
X172605682Y-54499998D01*
X172585044Y-54343239D01*
X172585042Y-54343234D01*
X172524538Y-54197163D01*
X172524535Y-54197158D01*
X172452451Y-54103216D01*
X172452450Y-54103215D01*
X172438761Y-54085375D01*
X172428281Y-54071716D01*
X172403229Y-54052494D01*
X172391034Y-54041799D01*
X172235811Y-53886576D01*
X172202326Y-53825253D01*
X172207310Y-53755561D01*
X172208032Y-53753673D01*
X172275334Y-53582195D01*
X172335383Y-53319103D01*
X172355549Y-53050004D01*
X173744953Y-53050004D01*
X173765113Y-53319026D01*
X173765113Y-53319028D01*
X173825142Y-53582033D01*
X173825148Y-53582052D01*
X173923709Y-53833181D01*
X173923708Y-53833181D01*
X174058602Y-54066822D01*
X174112294Y-54134151D01*
X174947452Y-53298992D01*
X174957188Y-53328956D01*
X175045186Y-53467619D01*
X175164903Y-53580040D01*
X175299510Y-53654041D01*
X174464848Y-54488702D01*
X174647483Y-54613220D01*
X174647485Y-54613221D01*
X174890539Y-54730269D01*
X174890537Y-54730269D01*
X175148337Y-54809790D01*
X175148343Y-54809792D01*
X175415101Y-54849999D01*
X175415110Y-54850000D01*
X175684890Y-54850000D01*
X175684898Y-54849999D01*
X175951656Y-54809792D01*
X175951662Y-54809790D01*
X176209461Y-54730269D01*
X176452521Y-54613218D01*
X176635150Y-54488702D01*
X175797534Y-53651086D01*
X175865629Y-53624126D01*
X175998492Y-53527595D01*
X176103175Y-53401055D01*
X176151631Y-53298079D01*
X176987703Y-54134151D01*
X176987704Y-54134150D01*
X177041393Y-54066828D01*
X177041400Y-54066817D01*
X177176290Y-53833181D01*
X177274851Y-53582052D01*
X177274857Y-53582033D01*
X177334886Y-53319028D01*
X177334886Y-53319026D01*
X177355047Y-53050004D01*
X177355047Y-53049995D01*
X177334886Y-52780973D01*
X177334886Y-52780971D01*
X177274857Y-52517966D01*
X177274851Y-52517947D01*
X177176290Y-52266818D01*
X177176291Y-52266818D01*
X177041397Y-52033177D01*
X176987704Y-51965847D01*
X176152546Y-52801004D01*
X176142812Y-52771044D01*
X176054814Y-52632381D01*
X175935097Y-52519960D01*
X175800489Y-52445958D01*
X176635150Y-51611296D01*
X176452517Y-51486779D01*
X176452516Y-51486778D01*
X176209460Y-51369730D01*
X176209462Y-51369730D01*
X175951662Y-51290209D01*
X175951656Y-51290207D01*
X175684898Y-51250000D01*
X175415101Y-51250000D01*
X175148343Y-51290207D01*
X175148337Y-51290209D01*
X174890538Y-51369730D01*
X174647485Y-51486778D01*
X174647476Y-51486783D01*
X174464848Y-51611296D01*
X175302465Y-52448913D01*
X175234371Y-52475874D01*
X175101508Y-52572405D01*
X174996825Y-52698945D01*
X174948368Y-52801921D01*
X174112295Y-51965848D01*
X174058600Y-52033180D01*
X173923709Y-52266818D01*
X173825148Y-52517947D01*
X173825142Y-52517966D01*
X173765113Y-52780971D01*
X173765113Y-52780973D01*
X173744953Y-53049995D01*
X173744953Y-53050004D01*
X172355549Y-53050004D01*
X172355549Y-53050000D01*
X172352466Y-53008862D01*
X172335389Y-52780973D01*
X172335383Y-52780897D01*
X172275334Y-52517805D01*
X172176743Y-52266602D01*
X172041815Y-52032898D01*
X171873561Y-51821915D01*
X171873560Y-51821914D01*
X171873557Y-51821910D01*
X171675741Y-51638365D01*
X171636038Y-51611296D01*
X171452775Y-51486349D01*
X171452769Y-51486346D01*
X171452768Y-51486345D01*
X171452767Y-51486344D01*
X171209643Y-51369263D01*
X171209645Y-51369263D01*
X170951773Y-51289720D01*
X170951767Y-51289718D01*
X170684936Y-51249500D01*
X170684929Y-51249500D01*
X170415071Y-51249500D01*
X170415063Y-51249500D01*
X170148232Y-51289718D01*
X170148226Y-51289720D01*
X169890358Y-51369262D01*
X169647230Y-51486346D01*
X169424258Y-51638365D01*
X169226442Y-51821910D01*
X169058185Y-52032898D01*
X168923258Y-52266599D01*
X168923256Y-52266603D01*
X168824666Y-52517804D01*
X168824664Y-52517811D01*
X168764616Y-52780898D01*
X168744451Y-53049995D01*
X168744451Y-53050004D01*
X167500000Y-53050004D01*
X167500000Y-48124000D01*
X167519685Y-48056961D01*
X167572489Y-48011206D01*
X167624000Y-48000000D01*
X214251402Y-48000000D01*
X214318441Y-48019685D01*
G37*
G04 #@! TD.AperFunction*
M02*
