G04 #@! TF.GenerationSoftware,KiCad,Pcbnew,8.0.6*
G04 #@! TF.CreationDate,2024-11-11T18:20:11-08:00*
G04 #@! TF.ProjectId,Soil Power Sensor,536f696c-2050-46f7-9765-722053656e73,2.2.2*
G04 #@! TF.SameCoordinates,Original*
G04 #@! TF.FileFunction,Legend,Bot*
G04 #@! TF.FilePolarity,Positive*
%FSLAX46Y46*%
G04 Gerber Fmt 4.6, Leading zero omitted, Abs format (unit mm)*
G04 Created by KiCad (PCBNEW 8.0.6) date 2024-11-11 18:20:11*
%MOMM*%
%LPD*%
G01*
G04 APERTURE LIST*
%ADD10C,0.100000*%
%ADD11C,0.150000*%
%ADD12C,0.254000*%
%ADD13C,3.600000*%
%ADD14C,5.700000*%
%ADD15R,2.600000X2.600000*%
%ADD16C,2.600000*%
%ADD17R,1.700000X1.700000*%
%ADD18O,1.700000X1.700000*%
G04 APERTURE END LIST*
D10*
X135744806Y-87162432D02*
X138744806Y-87162432D01*
X138744806Y-90162432D01*
X135744806Y-90162432D01*
X135744806Y-87162432D01*
G36*
X135744806Y-87162432D02*
G01*
X138744806Y-87162432D01*
X138744806Y-90162432D01*
X135744806Y-90162432D01*
X135744806Y-87162432D01*
G37*
X131594806Y-87162432D02*
X134594806Y-87162432D01*
X134594806Y-90162432D01*
X131594806Y-90162432D01*
X131594806Y-87162432D01*
G36*
X131594806Y-87162432D02*
G01*
X134594806Y-87162432D01*
X134594806Y-90162432D01*
X131594806Y-90162432D01*
X131594806Y-87162432D01*
G37*
X127444806Y-87212432D02*
X130444806Y-87212432D01*
X130444806Y-90212432D01*
X127444806Y-90212432D01*
X127444806Y-87212432D01*
G36*
X127444806Y-87212432D02*
G01*
X130444806Y-87212432D01*
X130444806Y-90212432D01*
X127444806Y-90212432D01*
X127444806Y-87212432D01*
G37*
D11*
X225333332Y-49954819D02*
X224999999Y-50954819D01*
X224999999Y-50954819D02*
X224666666Y-49954819D01*
X224333332Y-49954819D02*
X224333332Y-50764342D01*
X224333332Y-50764342D02*
X224285713Y-50859580D01*
X224285713Y-50859580D02*
X224238094Y-50907200D01*
X224238094Y-50907200D02*
X224142856Y-50954819D01*
X224142856Y-50954819D02*
X223952380Y-50954819D01*
X223952380Y-50954819D02*
X223857142Y-50907200D01*
X223857142Y-50907200D02*
X223809523Y-50859580D01*
X223809523Y-50859580D02*
X223761904Y-50764342D01*
X223761904Y-50764342D02*
X223761904Y-49954819D01*
X223333332Y-50907200D02*
X223190475Y-50954819D01*
X223190475Y-50954819D02*
X222952380Y-50954819D01*
X222952380Y-50954819D02*
X222857142Y-50907200D01*
X222857142Y-50907200D02*
X222809523Y-50859580D01*
X222809523Y-50859580D02*
X222761904Y-50764342D01*
X222761904Y-50764342D02*
X222761904Y-50669104D01*
X222761904Y-50669104D02*
X222809523Y-50573866D01*
X222809523Y-50573866D02*
X222857142Y-50526247D01*
X222857142Y-50526247D02*
X222952380Y-50478628D01*
X222952380Y-50478628D02*
X223142856Y-50431009D01*
X223142856Y-50431009D02*
X223238094Y-50383390D01*
X223238094Y-50383390D02*
X223285713Y-50335771D01*
X223285713Y-50335771D02*
X223333332Y-50240533D01*
X223333332Y-50240533D02*
X223333332Y-50145295D01*
X223333332Y-50145295D02*
X223285713Y-50050057D01*
X223285713Y-50050057D02*
X223238094Y-50002438D01*
X223238094Y-50002438D02*
X223142856Y-49954819D01*
X223142856Y-49954819D02*
X222904761Y-49954819D01*
X222904761Y-49954819D02*
X222761904Y-50002438D01*
X221999999Y-50431009D02*
X221857142Y-50478628D01*
X221857142Y-50478628D02*
X221809523Y-50526247D01*
X221809523Y-50526247D02*
X221761904Y-50621485D01*
X221761904Y-50621485D02*
X221761904Y-50764342D01*
X221761904Y-50764342D02*
X221809523Y-50859580D01*
X221809523Y-50859580D02*
X221857142Y-50907200D01*
X221857142Y-50907200D02*
X221952380Y-50954819D01*
X221952380Y-50954819D02*
X222333332Y-50954819D01*
X222333332Y-50954819D02*
X222333332Y-49954819D01*
X222333332Y-49954819D02*
X221999999Y-49954819D01*
X221999999Y-49954819D02*
X221904761Y-50002438D01*
X221904761Y-50002438D02*
X221857142Y-50050057D01*
X221857142Y-50050057D02*
X221809523Y-50145295D01*
X221809523Y-50145295D02*
X221809523Y-50240533D01*
X221809523Y-50240533D02*
X221857142Y-50335771D01*
X221857142Y-50335771D02*
X221904761Y-50383390D01*
X221904761Y-50383390D02*
X221999999Y-50431009D01*
X221999999Y-50431009D02*
X222333332Y-50431009D01*
X236642856Y-49954819D02*
X236309523Y-50954819D01*
X236309523Y-50954819D02*
X235976190Y-49954819D01*
X235309523Y-50431009D02*
X235166666Y-50478628D01*
X235166666Y-50478628D02*
X235119047Y-50526247D01*
X235119047Y-50526247D02*
X235071428Y-50621485D01*
X235071428Y-50621485D02*
X235071428Y-50764342D01*
X235071428Y-50764342D02*
X235119047Y-50859580D01*
X235119047Y-50859580D02*
X235166666Y-50907200D01*
X235166666Y-50907200D02*
X235261904Y-50954819D01*
X235261904Y-50954819D02*
X235642856Y-50954819D01*
X235642856Y-50954819D02*
X235642856Y-49954819D01*
X235642856Y-49954819D02*
X235309523Y-49954819D01*
X235309523Y-49954819D02*
X235214285Y-50002438D01*
X235214285Y-50002438D02*
X235166666Y-50050057D01*
X235166666Y-50050057D02*
X235119047Y-50145295D01*
X235119047Y-50145295D02*
X235119047Y-50240533D01*
X235119047Y-50240533D02*
X235166666Y-50335771D01*
X235166666Y-50335771D02*
X235214285Y-50383390D01*
X235214285Y-50383390D02*
X235309523Y-50431009D01*
X235309523Y-50431009D02*
X235642856Y-50431009D01*
X234690475Y-50669104D02*
X234214285Y-50669104D01*
X234785713Y-50954819D02*
X234452380Y-49954819D01*
X234452380Y-49954819D02*
X234119047Y-50954819D01*
X233928570Y-49954819D02*
X233357142Y-49954819D01*
X233642856Y-50954819D02*
X233642856Y-49954819D01*
D12*
X228574129Y-89336655D02*
X228716986Y-89408083D01*
X228716986Y-89408083D02*
X229002701Y-89408083D01*
X229002701Y-89408083D02*
X229145558Y-89336655D01*
X229145558Y-89336655D02*
X229216986Y-89193797D01*
X229216986Y-89193797D02*
X229216986Y-88622369D01*
X229216986Y-88622369D02*
X229145558Y-88479512D01*
X229145558Y-88479512D02*
X229002701Y-88408083D01*
X229002701Y-88408083D02*
X228716986Y-88408083D01*
X228716986Y-88408083D02*
X228574129Y-88479512D01*
X228574129Y-88479512D02*
X228502701Y-88622369D01*
X228502701Y-88622369D02*
X228502701Y-88765226D01*
X228502701Y-88765226D02*
X229216986Y-88908083D01*
X227859844Y-88408083D02*
X227859844Y-89408083D01*
X227859844Y-88550940D02*
X227788415Y-88479512D01*
X227788415Y-88479512D02*
X227645558Y-88408083D01*
X227645558Y-88408083D02*
X227431272Y-88408083D01*
X227431272Y-88408083D02*
X227288415Y-88479512D01*
X227288415Y-88479512D02*
X227216987Y-88622369D01*
X227216987Y-88622369D02*
X227216987Y-89408083D01*
X226716986Y-88408083D02*
X226145558Y-88408083D01*
X226502701Y-87908083D02*
X226502701Y-89193797D01*
X226502701Y-89193797D02*
X226431272Y-89336655D01*
X226431272Y-89336655D02*
X226288415Y-89408083D01*
X226288415Y-89408083D02*
X226145558Y-89408083D01*
X225716986Y-89336655D02*
X225574129Y-89408083D01*
X225574129Y-89408083D02*
X225288415Y-89408083D01*
X225288415Y-89408083D02*
X225145558Y-89336655D01*
X225145558Y-89336655D02*
X225074129Y-89193797D01*
X225074129Y-89193797D02*
X225074129Y-89122369D01*
X225074129Y-89122369D02*
X225145558Y-88979512D01*
X225145558Y-88979512D02*
X225288415Y-88908083D01*
X225288415Y-88908083D02*
X225502701Y-88908083D01*
X225502701Y-88908083D02*
X225645558Y-88836655D01*
X225645558Y-88836655D02*
X225716986Y-88693797D01*
X225716986Y-88693797D02*
X225716986Y-88622369D01*
X225716986Y-88622369D02*
X225645558Y-88479512D01*
X225645558Y-88479512D02*
X225502701Y-88408083D01*
X225502701Y-88408083D02*
X225288415Y-88408083D01*
X225288415Y-88408083D02*
X225145558Y-88479512D01*
X224431272Y-88836655D02*
X223288415Y-88836655D01*
X222574129Y-88408083D02*
X222574129Y-89408083D01*
X222574129Y-88550940D02*
X222502700Y-88479512D01*
X222502700Y-88479512D02*
X222359843Y-88408083D01*
X222359843Y-88408083D02*
X222145557Y-88408083D01*
X222145557Y-88408083D02*
X222002700Y-88479512D01*
X222002700Y-88479512D02*
X221931272Y-88622369D01*
X221931272Y-88622369D02*
X221931272Y-89408083D01*
X221002700Y-89408083D02*
X221145557Y-89336655D01*
X221145557Y-89336655D02*
X221216986Y-89265226D01*
X221216986Y-89265226D02*
X221288414Y-89122369D01*
X221288414Y-89122369D02*
X221288414Y-88693797D01*
X221288414Y-88693797D02*
X221216986Y-88550940D01*
X221216986Y-88550940D02*
X221145557Y-88479512D01*
X221145557Y-88479512D02*
X221002700Y-88408083D01*
X221002700Y-88408083D02*
X220788414Y-88408083D01*
X220788414Y-88408083D02*
X220645557Y-88479512D01*
X220645557Y-88479512D02*
X220574129Y-88550940D01*
X220574129Y-88550940D02*
X220502700Y-88693797D01*
X220502700Y-88693797D02*
X220502700Y-89122369D01*
X220502700Y-89122369D02*
X220574129Y-89265226D01*
X220574129Y-89265226D02*
X220645557Y-89336655D01*
X220645557Y-89336655D02*
X220788414Y-89408083D01*
X220788414Y-89408083D02*
X221002700Y-89408083D01*
X219216986Y-89408083D02*
X219216986Y-87908083D01*
X219216986Y-89336655D02*
X219359843Y-89408083D01*
X219359843Y-89408083D02*
X219645557Y-89408083D01*
X219645557Y-89408083D02*
X219788414Y-89336655D01*
X219788414Y-89336655D02*
X219859843Y-89265226D01*
X219859843Y-89265226D02*
X219931271Y-89122369D01*
X219931271Y-89122369D02*
X219931271Y-88693797D01*
X219931271Y-88693797D02*
X219859843Y-88550940D01*
X219859843Y-88550940D02*
X219788414Y-88479512D01*
X219788414Y-88479512D02*
X219645557Y-88408083D01*
X219645557Y-88408083D02*
X219359843Y-88408083D01*
X219359843Y-88408083D02*
X219216986Y-88479512D01*
X217931271Y-89336655D02*
X218074128Y-89408083D01*
X218074128Y-89408083D02*
X218359843Y-89408083D01*
X218359843Y-89408083D02*
X218502700Y-89336655D01*
X218502700Y-89336655D02*
X218574128Y-89193797D01*
X218574128Y-89193797D02*
X218574128Y-88622369D01*
X218574128Y-88622369D02*
X218502700Y-88479512D01*
X218502700Y-88479512D02*
X218359843Y-88408083D01*
X218359843Y-88408083D02*
X218074128Y-88408083D01*
X218074128Y-88408083D02*
X217931271Y-88479512D01*
X217931271Y-88479512D02*
X217859843Y-88622369D01*
X217859843Y-88622369D02*
X217859843Y-88765226D01*
X217859843Y-88765226D02*
X218574128Y-88908083D01*
X212645558Y-89408083D02*
X212645558Y-87908083D01*
X212645558Y-87908083D02*
X212288415Y-87908083D01*
X212288415Y-87908083D02*
X212074129Y-87979512D01*
X212074129Y-87979512D02*
X211931272Y-88122369D01*
X211931272Y-88122369D02*
X211859843Y-88265226D01*
X211859843Y-88265226D02*
X211788415Y-88550940D01*
X211788415Y-88550940D02*
X211788415Y-88765226D01*
X211788415Y-88765226D02*
X211859843Y-89050940D01*
X211859843Y-89050940D02*
X211931272Y-89193797D01*
X211931272Y-89193797D02*
X212074129Y-89336655D01*
X212074129Y-89336655D02*
X212288415Y-89408083D01*
X212288415Y-89408083D02*
X212645558Y-89408083D01*
X210502701Y-89408083D02*
X210502701Y-88622369D01*
X210502701Y-88622369D02*
X210574129Y-88479512D01*
X210574129Y-88479512D02*
X210716986Y-88408083D01*
X210716986Y-88408083D02*
X211002701Y-88408083D01*
X211002701Y-88408083D02*
X211145558Y-88479512D01*
X210502701Y-89336655D02*
X210645558Y-89408083D01*
X210645558Y-89408083D02*
X211002701Y-89408083D01*
X211002701Y-89408083D02*
X211145558Y-89336655D01*
X211145558Y-89336655D02*
X211216986Y-89193797D01*
X211216986Y-89193797D02*
X211216986Y-89050940D01*
X211216986Y-89050940D02*
X211145558Y-88908083D01*
X211145558Y-88908083D02*
X211002701Y-88836655D01*
X211002701Y-88836655D02*
X210645558Y-88836655D01*
X210645558Y-88836655D02*
X210502701Y-88765226D01*
X210002700Y-88408083D02*
X209431272Y-88408083D01*
X209788415Y-87908083D02*
X209788415Y-89193797D01*
X209788415Y-89193797D02*
X209716986Y-89336655D01*
X209716986Y-89336655D02*
X209574129Y-89408083D01*
X209574129Y-89408083D02*
X209431272Y-89408083D01*
X208359843Y-89336655D02*
X208502700Y-89408083D01*
X208502700Y-89408083D02*
X208788415Y-89408083D01*
X208788415Y-89408083D02*
X208931272Y-89336655D01*
X208931272Y-89336655D02*
X209002700Y-89193797D01*
X209002700Y-89193797D02*
X209002700Y-88622369D01*
X209002700Y-88622369D02*
X208931272Y-88479512D01*
X208931272Y-88479512D02*
X208788415Y-88408083D01*
X208788415Y-88408083D02*
X208502700Y-88408083D01*
X208502700Y-88408083D02*
X208359843Y-88479512D01*
X208359843Y-88479512D02*
X208288415Y-88622369D01*
X208288415Y-88622369D02*
X208288415Y-88765226D01*
X208288415Y-88765226D02*
X209002700Y-88908083D01*
X207645558Y-89265226D02*
X207574129Y-89336655D01*
X207574129Y-89336655D02*
X207645558Y-89408083D01*
X207645558Y-89408083D02*
X207716986Y-89336655D01*
X207716986Y-89336655D02*
X207645558Y-89265226D01*
X207645558Y-89265226D02*
X207645558Y-89408083D01*
X207645558Y-88479512D02*
X207574129Y-88550940D01*
X207574129Y-88550940D02*
X207645558Y-88622369D01*
X207645558Y-88622369D02*
X207716986Y-88550940D01*
X207716986Y-88550940D02*
X207645558Y-88479512D01*
X207645558Y-88479512D02*
X207645558Y-88622369D01*
X205859843Y-88050940D02*
X205788415Y-87979512D01*
X205788415Y-87979512D02*
X205645558Y-87908083D01*
X205645558Y-87908083D02*
X205288415Y-87908083D01*
X205288415Y-87908083D02*
X205145558Y-87979512D01*
X205145558Y-87979512D02*
X205074129Y-88050940D01*
X205074129Y-88050940D02*
X205002700Y-88193797D01*
X205002700Y-88193797D02*
X205002700Y-88336655D01*
X205002700Y-88336655D02*
X205074129Y-88550940D01*
X205074129Y-88550940D02*
X205931272Y-89408083D01*
X205931272Y-89408083D02*
X205002700Y-89408083D01*
X204074129Y-87908083D02*
X203931272Y-87908083D01*
X203931272Y-87908083D02*
X203788415Y-87979512D01*
X203788415Y-87979512D02*
X203716987Y-88050940D01*
X203716987Y-88050940D02*
X203645558Y-88193797D01*
X203645558Y-88193797D02*
X203574129Y-88479512D01*
X203574129Y-88479512D02*
X203574129Y-88836655D01*
X203574129Y-88836655D02*
X203645558Y-89122369D01*
X203645558Y-89122369D02*
X203716987Y-89265226D01*
X203716987Y-89265226D02*
X203788415Y-89336655D01*
X203788415Y-89336655D02*
X203931272Y-89408083D01*
X203931272Y-89408083D02*
X204074129Y-89408083D01*
X204074129Y-89408083D02*
X204216987Y-89336655D01*
X204216987Y-89336655D02*
X204288415Y-89265226D01*
X204288415Y-89265226D02*
X204359844Y-89122369D01*
X204359844Y-89122369D02*
X204431272Y-88836655D01*
X204431272Y-88836655D02*
X204431272Y-88479512D01*
X204431272Y-88479512D02*
X204359844Y-88193797D01*
X204359844Y-88193797D02*
X204288415Y-88050940D01*
X204288415Y-88050940D02*
X204216987Y-87979512D01*
X204216987Y-87979512D02*
X204074129Y-87908083D01*
X203002701Y-88050940D02*
X202931273Y-87979512D01*
X202931273Y-87979512D02*
X202788416Y-87908083D01*
X202788416Y-87908083D02*
X202431273Y-87908083D01*
X202431273Y-87908083D02*
X202288416Y-87979512D01*
X202288416Y-87979512D02*
X202216987Y-88050940D01*
X202216987Y-88050940D02*
X202145558Y-88193797D01*
X202145558Y-88193797D02*
X202145558Y-88336655D01*
X202145558Y-88336655D02*
X202216987Y-88550940D01*
X202216987Y-88550940D02*
X203074130Y-89408083D01*
X203074130Y-89408083D02*
X202145558Y-89408083D01*
X200859845Y-88408083D02*
X200859845Y-89408083D01*
X201216987Y-87836655D02*
X201574130Y-88908083D01*
X201574130Y-88908083D02*
X200645559Y-88908083D01*
X200074131Y-88836655D02*
X198931274Y-88836655D01*
X197931273Y-87908083D02*
X197788416Y-87908083D01*
X197788416Y-87908083D02*
X197645559Y-87979512D01*
X197645559Y-87979512D02*
X197574131Y-88050940D01*
X197574131Y-88050940D02*
X197502702Y-88193797D01*
X197502702Y-88193797D02*
X197431273Y-88479512D01*
X197431273Y-88479512D02*
X197431273Y-88836655D01*
X197431273Y-88836655D02*
X197502702Y-89122369D01*
X197502702Y-89122369D02*
X197574131Y-89265226D01*
X197574131Y-89265226D02*
X197645559Y-89336655D01*
X197645559Y-89336655D02*
X197788416Y-89408083D01*
X197788416Y-89408083D02*
X197931273Y-89408083D01*
X197931273Y-89408083D02*
X198074131Y-89336655D01*
X198074131Y-89336655D02*
X198145559Y-89265226D01*
X198145559Y-89265226D02*
X198216988Y-89122369D01*
X198216988Y-89122369D02*
X198288416Y-88836655D01*
X198288416Y-88836655D02*
X198288416Y-88479512D01*
X198288416Y-88479512D02*
X198216988Y-88193797D01*
X198216988Y-88193797D02*
X198145559Y-88050940D01*
X198145559Y-88050940D02*
X198074131Y-87979512D01*
X198074131Y-87979512D02*
X197931273Y-87908083D01*
X196574131Y-88550940D02*
X196716988Y-88479512D01*
X196716988Y-88479512D02*
X196788417Y-88408083D01*
X196788417Y-88408083D02*
X196859845Y-88265226D01*
X196859845Y-88265226D02*
X196859845Y-88193797D01*
X196859845Y-88193797D02*
X196788417Y-88050940D01*
X196788417Y-88050940D02*
X196716988Y-87979512D01*
X196716988Y-87979512D02*
X196574131Y-87908083D01*
X196574131Y-87908083D02*
X196288417Y-87908083D01*
X196288417Y-87908083D02*
X196145560Y-87979512D01*
X196145560Y-87979512D02*
X196074131Y-88050940D01*
X196074131Y-88050940D02*
X196002702Y-88193797D01*
X196002702Y-88193797D02*
X196002702Y-88265226D01*
X196002702Y-88265226D02*
X196074131Y-88408083D01*
X196074131Y-88408083D02*
X196145560Y-88479512D01*
X196145560Y-88479512D02*
X196288417Y-88550940D01*
X196288417Y-88550940D02*
X196574131Y-88550940D01*
X196574131Y-88550940D02*
X196716988Y-88622369D01*
X196716988Y-88622369D02*
X196788417Y-88693797D01*
X196788417Y-88693797D02*
X196859845Y-88836655D01*
X196859845Y-88836655D02*
X196859845Y-89122369D01*
X196859845Y-89122369D02*
X196788417Y-89265226D01*
X196788417Y-89265226D02*
X196716988Y-89336655D01*
X196716988Y-89336655D02*
X196574131Y-89408083D01*
X196574131Y-89408083D02*
X196288417Y-89408083D01*
X196288417Y-89408083D02*
X196145560Y-89336655D01*
X196145560Y-89336655D02*
X196074131Y-89265226D01*
X196074131Y-89265226D02*
X196002702Y-89122369D01*
X196002702Y-89122369D02*
X196002702Y-88836655D01*
X196002702Y-88836655D02*
X196074131Y-88693797D01*
X196074131Y-88693797D02*
X196145560Y-88622369D01*
X196145560Y-88622369D02*
X196288417Y-88550940D01*
X195359846Y-88836655D02*
X194216989Y-88836655D01*
X192716988Y-89408083D02*
X193574131Y-89408083D01*
X193145560Y-89408083D02*
X193145560Y-87908083D01*
X193145560Y-87908083D02*
X193288417Y-88122369D01*
X193288417Y-88122369D02*
X193431274Y-88265226D01*
X193431274Y-88265226D02*
X193574131Y-88336655D01*
X191431275Y-88408083D02*
X191431275Y-89408083D01*
X191788417Y-87836655D02*
X192145560Y-88908083D01*
X192145560Y-88908083D02*
X191216989Y-88908083D01*
X186288418Y-87908083D02*
X185788418Y-89408083D01*
X185788418Y-89408083D02*
X185288418Y-87908083D01*
X184216990Y-89336655D02*
X184359847Y-89408083D01*
X184359847Y-89408083D02*
X184645562Y-89408083D01*
X184645562Y-89408083D02*
X184788419Y-89336655D01*
X184788419Y-89336655D02*
X184859847Y-89193797D01*
X184859847Y-89193797D02*
X184859847Y-88622369D01*
X184859847Y-88622369D02*
X184788419Y-88479512D01*
X184788419Y-88479512D02*
X184645562Y-88408083D01*
X184645562Y-88408083D02*
X184359847Y-88408083D01*
X184359847Y-88408083D02*
X184216990Y-88479512D01*
X184216990Y-88479512D02*
X184145562Y-88622369D01*
X184145562Y-88622369D02*
X184145562Y-88765226D01*
X184145562Y-88765226D02*
X184859847Y-88908083D01*
X183502705Y-89408083D02*
X183502705Y-88408083D01*
X183502705Y-88693797D02*
X183431276Y-88550940D01*
X183431276Y-88550940D02*
X183359848Y-88479512D01*
X183359848Y-88479512D02*
X183216990Y-88408083D01*
X183216990Y-88408083D02*
X183074133Y-88408083D01*
X182645562Y-89336655D02*
X182502705Y-89408083D01*
X182502705Y-89408083D02*
X182216991Y-89408083D01*
X182216991Y-89408083D02*
X182074134Y-89336655D01*
X182074134Y-89336655D02*
X182002705Y-89193797D01*
X182002705Y-89193797D02*
X182002705Y-89122369D01*
X182002705Y-89122369D02*
X182074134Y-88979512D01*
X182074134Y-88979512D02*
X182216991Y-88908083D01*
X182216991Y-88908083D02*
X182431277Y-88908083D01*
X182431277Y-88908083D02*
X182574134Y-88836655D01*
X182574134Y-88836655D02*
X182645562Y-88693797D01*
X182645562Y-88693797D02*
X182645562Y-88622369D01*
X182645562Y-88622369D02*
X182574134Y-88479512D01*
X182574134Y-88479512D02*
X182431277Y-88408083D01*
X182431277Y-88408083D02*
X182216991Y-88408083D01*
X182216991Y-88408083D02*
X182074134Y-88479512D01*
X181359848Y-89408083D02*
X181359848Y-88408083D01*
X181359848Y-87908083D02*
X181431276Y-87979512D01*
X181431276Y-87979512D02*
X181359848Y-88050940D01*
X181359848Y-88050940D02*
X181288419Y-87979512D01*
X181288419Y-87979512D02*
X181359848Y-87908083D01*
X181359848Y-87908083D02*
X181359848Y-88050940D01*
X180431276Y-89408083D02*
X180574133Y-89336655D01*
X180574133Y-89336655D02*
X180645562Y-89265226D01*
X180645562Y-89265226D02*
X180716990Y-89122369D01*
X180716990Y-89122369D02*
X180716990Y-88693797D01*
X180716990Y-88693797D02*
X180645562Y-88550940D01*
X180645562Y-88550940D02*
X180574133Y-88479512D01*
X180574133Y-88479512D02*
X180431276Y-88408083D01*
X180431276Y-88408083D02*
X180216990Y-88408083D01*
X180216990Y-88408083D02*
X180074133Y-88479512D01*
X180074133Y-88479512D02*
X180002705Y-88550940D01*
X180002705Y-88550940D02*
X179931276Y-88693797D01*
X179931276Y-88693797D02*
X179931276Y-89122369D01*
X179931276Y-89122369D02*
X180002705Y-89265226D01*
X180002705Y-89265226D02*
X180074133Y-89336655D01*
X180074133Y-89336655D02*
X180216990Y-89408083D01*
X180216990Y-89408083D02*
X180431276Y-89408083D01*
X179288419Y-88408083D02*
X179288419Y-89408083D01*
X179288419Y-88550940D02*
X179216990Y-88479512D01*
X179216990Y-88479512D02*
X179074133Y-88408083D01*
X179074133Y-88408083D02*
X178859847Y-88408083D01*
X178859847Y-88408083D02*
X178716990Y-88479512D01*
X178716990Y-88479512D02*
X178645562Y-88622369D01*
X178645562Y-88622369D02*
X178645562Y-89408083D01*
X177931276Y-89265226D02*
X177859847Y-89336655D01*
X177859847Y-89336655D02*
X177931276Y-89408083D01*
X177931276Y-89408083D02*
X178002704Y-89336655D01*
X178002704Y-89336655D02*
X177931276Y-89265226D01*
X177931276Y-89265226D02*
X177931276Y-89408083D01*
X177931276Y-88479512D02*
X177859847Y-88550940D01*
X177859847Y-88550940D02*
X177931276Y-88622369D01*
X177931276Y-88622369D02*
X178002704Y-88550940D01*
X178002704Y-88550940D02*
X177931276Y-88479512D01*
X177931276Y-88479512D02*
X177931276Y-88622369D01*
X176145561Y-88050940D02*
X176074133Y-87979512D01*
X176074133Y-87979512D02*
X175931276Y-87908083D01*
X175931276Y-87908083D02*
X175574133Y-87908083D01*
X175574133Y-87908083D02*
X175431276Y-87979512D01*
X175431276Y-87979512D02*
X175359847Y-88050940D01*
X175359847Y-88050940D02*
X175288418Y-88193797D01*
X175288418Y-88193797D02*
X175288418Y-88336655D01*
X175288418Y-88336655D02*
X175359847Y-88550940D01*
X175359847Y-88550940D02*
X176216990Y-89408083D01*
X176216990Y-89408083D02*
X175288418Y-89408083D01*
X174645562Y-89265226D02*
X174574133Y-89336655D01*
X174574133Y-89336655D02*
X174645562Y-89408083D01*
X174645562Y-89408083D02*
X174716990Y-89336655D01*
X174716990Y-89336655D02*
X174645562Y-89265226D01*
X174645562Y-89265226D02*
X174645562Y-89408083D01*
X174002704Y-88050940D02*
X173931276Y-87979512D01*
X173931276Y-87979512D02*
X173788419Y-87908083D01*
X173788419Y-87908083D02*
X173431276Y-87908083D01*
X173431276Y-87908083D02*
X173288419Y-87979512D01*
X173288419Y-87979512D02*
X173216990Y-88050940D01*
X173216990Y-88050940D02*
X173145561Y-88193797D01*
X173145561Y-88193797D02*
X173145561Y-88336655D01*
X173145561Y-88336655D02*
X173216990Y-88550940D01*
X173216990Y-88550940D02*
X174074133Y-89408083D01*
X174074133Y-89408083D02*
X173145561Y-89408083D01*
X172502705Y-89265226D02*
X172431276Y-89336655D01*
X172431276Y-89336655D02*
X172502705Y-89408083D01*
X172502705Y-89408083D02*
X172574133Y-89336655D01*
X172574133Y-89336655D02*
X172502705Y-89265226D01*
X172502705Y-89265226D02*
X172502705Y-89408083D01*
X171859847Y-88050940D02*
X171788419Y-87979512D01*
X171788419Y-87979512D02*
X171645562Y-87908083D01*
X171645562Y-87908083D02*
X171288419Y-87908083D01*
X171288419Y-87908083D02*
X171145562Y-87979512D01*
X171145562Y-87979512D02*
X171074133Y-88050940D01*
X171074133Y-88050940D02*
X171002704Y-88193797D01*
X171002704Y-88193797D02*
X171002704Y-88336655D01*
X171002704Y-88336655D02*
X171074133Y-88550940D01*
X171074133Y-88550940D02*
X171931276Y-89408083D01*
X171931276Y-89408083D02*
X171002704Y-89408083D01*
X165788420Y-89408083D02*
X165788420Y-87908083D01*
X165788420Y-87908083D02*
X165431277Y-87908083D01*
X165431277Y-87908083D02*
X165216991Y-87979512D01*
X165216991Y-87979512D02*
X165074134Y-88122369D01*
X165074134Y-88122369D02*
X165002705Y-88265226D01*
X165002705Y-88265226D02*
X164931277Y-88550940D01*
X164931277Y-88550940D02*
X164931277Y-88765226D01*
X164931277Y-88765226D02*
X165002705Y-89050940D01*
X165002705Y-89050940D02*
X165074134Y-89193797D01*
X165074134Y-89193797D02*
X165216991Y-89336655D01*
X165216991Y-89336655D02*
X165431277Y-89408083D01*
X165431277Y-89408083D02*
X165788420Y-89408083D01*
X163716991Y-89336655D02*
X163859848Y-89408083D01*
X163859848Y-89408083D02*
X164145563Y-89408083D01*
X164145563Y-89408083D02*
X164288420Y-89336655D01*
X164288420Y-89336655D02*
X164359848Y-89193797D01*
X164359848Y-89193797D02*
X164359848Y-88622369D01*
X164359848Y-88622369D02*
X164288420Y-88479512D01*
X164288420Y-88479512D02*
X164145563Y-88408083D01*
X164145563Y-88408083D02*
X163859848Y-88408083D01*
X163859848Y-88408083D02*
X163716991Y-88479512D01*
X163716991Y-88479512D02*
X163645563Y-88622369D01*
X163645563Y-88622369D02*
X163645563Y-88765226D01*
X163645563Y-88765226D02*
X164359848Y-88908083D01*
X163145563Y-88408083D02*
X162788420Y-89408083D01*
X162788420Y-89408083D02*
X162431277Y-88408083D01*
X161859849Y-88622369D02*
X161359849Y-88622369D01*
X161145563Y-89408083D02*
X161859849Y-89408083D01*
X161859849Y-89408083D02*
X161859849Y-87908083D01*
X161859849Y-87908083D02*
X161145563Y-87908083D01*
X160502706Y-87908083D02*
X160502706Y-89122369D01*
X160502706Y-89122369D02*
X160431277Y-89265226D01*
X160431277Y-89265226D02*
X160359849Y-89336655D01*
X160359849Y-89336655D02*
X160216991Y-89408083D01*
X160216991Y-89408083D02*
X159931277Y-89408083D01*
X159931277Y-89408083D02*
X159788420Y-89336655D01*
X159788420Y-89336655D02*
X159716991Y-89265226D01*
X159716991Y-89265226D02*
X159645563Y-89122369D01*
X159645563Y-89122369D02*
X159645563Y-87908083D01*
X158931277Y-89408083D02*
X158931277Y-87908083D01*
X158216991Y-89265226D02*
X158145562Y-89336655D01*
X158145562Y-89336655D02*
X158216991Y-89408083D01*
X158216991Y-89408083D02*
X158288419Y-89336655D01*
X158288419Y-89336655D02*
X158216991Y-89265226D01*
X158216991Y-89265226D02*
X158216991Y-89408083D01*
X158216991Y-88479512D02*
X158145562Y-88550940D01*
X158145562Y-88550940D02*
X158216991Y-88622369D01*
X158216991Y-88622369D02*
X158288419Y-88550940D01*
X158288419Y-88550940D02*
X158216991Y-88479512D01*
X158216991Y-88479512D02*
X158216991Y-88622369D01*
X156074133Y-87908083D02*
X155931276Y-87908083D01*
X155931276Y-87908083D02*
X155788419Y-87979512D01*
X155788419Y-87979512D02*
X155716991Y-88050940D01*
X155716991Y-88050940D02*
X155645562Y-88193797D01*
X155645562Y-88193797D02*
X155574133Y-88479512D01*
X155574133Y-88479512D02*
X155574133Y-88836655D01*
X155574133Y-88836655D02*
X155645562Y-89122369D01*
X155645562Y-89122369D02*
X155716991Y-89265226D01*
X155716991Y-89265226D02*
X155788419Y-89336655D01*
X155788419Y-89336655D02*
X155931276Y-89408083D01*
X155931276Y-89408083D02*
X156074133Y-89408083D01*
X156074133Y-89408083D02*
X156216991Y-89336655D01*
X156216991Y-89336655D02*
X156288419Y-89265226D01*
X156288419Y-89265226D02*
X156359848Y-89122369D01*
X156359848Y-89122369D02*
X156431276Y-88836655D01*
X156431276Y-88836655D02*
X156431276Y-88479512D01*
X156431276Y-88479512D02*
X156359848Y-88193797D01*
X156359848Y-88193797D02*
X156288419Y-88050940D01*
X156288419Y-88050940D02*
X156216991Y-87979512D01*
X156216991Y-87979512D02*
X156074133Y-87908083D01*
X154645562Y-87908083D02*
X154502705Y-87908083D01*
X154502705Y-87908083D02*
X154359848Y-87979512D01*
X154359848Y-87979512D02*
X154288420Y-88050940D01*
X154288420Y-88050940D02*
X154216991Y-88193797D01*
X154216991Y-88193797D02*
X154145562Y-88479512D01*
X154145562Y-88479512D02*
X154145562Y-88836655D01*
X154145562Y-88836655D02*
X154216991Y-89122369D01*
X154216991Y-89122369D02*
X154288420Y-89265226D01*
X154288420Y-89265226D02*
X154359848Y-89336655D01*
X154359848Y-89336655D02*
X154502705Y-89408083D01*
X154502705Y-89408083D02*
X154645562Y-89408083D01*
X154645562Y-89408083D02*
X154788420Y-89336655D01*
X154788420Y-89336655D02*
X154859848Y-89265226D01*
X154859848Y-89265226D02*
X154931277Y-89122369D01*
X154931277Y-89122369D02*
X155002705Y-88836655D01*
X155002705Y-88836655D02*
X155002705Y-88479512D01*
X155002705Y-88479512D02*
X154931277Y-88193797D01*
X154931277Y-88193797D02*
X154859848Y-88050940D01*
X154859848Y-88050940D02*
X154788420Y-87979512D01*
X154788420Y-87979512D02*
X154645562Y-87908083D01*
X153502706Y-89265226D02*
X153431277Y-89336655D01*
X153431277Y-89336655D02*
X153502706Y-89408083D01*
X153502706Y-89408083D02*
X153574134Y-89336655D01*
X153574134Y-89336655D02*
X153502706Y-89265226D01*
X153502706Y-89265226D02*
X153502706Y-89408083D01*
X153502706Y-88479512D02*
X153431277Y-88550940D01*
X153431277Y-88550940D02*
X153502706Y-88622369D01*
X153502706Y-88622369D02*
X153574134Y-88550940D01*
X153574134Y-88550940D02*
X153502706Y-88479512D01*
X153502706Y-88479512D02*
X153502706Y-88622369D01*
X152574134Y-88550940D02*
X152716991Y-88479512D01*
X152716991Y-88479512D02*
X152788420Y-88408083D01*
X152788420Y-88408083D02*
X152859848Y-88265226D01*
X152859848Y-88265226D02*
X152859848Y-88193797D01*
X152859848Y-88193797D02*
X152788420Y-88050940D01*
X152788420Y-88050940D02*
X152716991Y-87979512D01*
X152716991Y-87979512D02*
X152574134Y-87908083D01*
X152574134Y-87908083D02*
X152288420Y-87908083D01*
X152288420Y-87908083D02*
X152145563Y-87979512D01*
X152145563Y-87979512D02*
X152074134Y-88050940D01*
X152074134Y-88050940D02*
X152002705Y-88193797D01*
X152002705Y-88193797D02*
X152002705Y-88265226D01*
X152002705Y-88265226D02*
X152074134Y-88408083D01*
X152074134Y-88408083D02*
X152145563Y-88479512D01*
X152145563Y-88479512D02*
X152288420Y-88550940D01*
X152288420Y-88550940D02*
X152574134Y-88550940D01*
X152574134Y-88550940D02*
X152716991Y-88622369D01*
X152716991Y-88622369D02*
X152788420Y-88693797D01*
X152788420Y-88693797D02*
X152859848Y-88836655D01*
X152859848Y-88836655D02*
X152859848Y-89122369D01*
X152859848Y-89122369D02*
X152788420Y-89265226D01*
X152788420Y-89265226D02*
X152716991Y-89336655D01*
X152716991Y-89336655D02*
X152574134Y-89408083D01*
X152574134Y-89408083D02*
X152288420Y-89408083D01*
X152288420Y-89408083D02*
X152145563Y-89336655D01*
X152145563Y-89336655D02*
X152074134Y-89265226D01*
X152074134Y-89265226D02*
X152002705Y-89122369D01*
X152002705Y-89122369D02*
X152002705Y-88836655D01*
X152002705Y-88836655D02*
X152074134Y-88693797D01*
X152074134Y-88693797D02*
X152145563Y-88622369D01*
X152145563Y-88622369D02*
X152288420Y-88550940D01*
X151074134Y-87908083D02*
X150931277Y-87908083D01*
X150931277Y-87908083D02*
X150788420Y-87979512D01*
X150788420Y-87979512D02*
X150716992Y-88050940D01*
X150716992Y-88050940D02*
X150645563Y-88193797D01*
X150645563Y-88193797D02*
X150574134Y-88479512D01*
X150574134Y-88479512D02*
X150574134Y-88836655D01*
X150574134Y-88836655D02*
X150645563Y-89122369D01*
X150645563Y-89122369D02*
X150716992Y-89265226D01*
X150716992Y-89265226D02*
X150788420Y-89336655D01*
X150788420Y-89336655D02*
X150931277Y-89408083D01*
X150931277Y-89408083D02*
X151074134Y-89408083D01*
X151074134Y-89408083D02*
X151216992Y-89336655D01*
X151216992Y-89336655D02*
X151288420Y-89265226D01*
X151288420Y-89265226D02*
X151359849Y-89122369D01*
X151359849Y-89122369D02*
X151431277Y-88836655D01*
X151431277Y-88836655D02*
X151431277Y-88479512D01*
X151431277Y-88479512D02*
X151359849Y-88193797D01*
X151359849Y-88193797D02*
X151288420Y-88050940D01*
X151288420Y-88050940D02*
X151216992Y-87979512D01*
X151216992Y-87979512D02*
X151074134Y-87908083D01*
X149931278Y-89265226D02*
X149859849Y-89336655D01*
X149859849Y-89336655D02*
X149931278Y-89408083D01*
X149931278Y-89408083D02*
X150002706Y-89336655D01*
X150002706Y-89336655D02*
X149931278Y-89265226D01*
X149931278Y-89265226D02*
X149931278Y-89408083D01*
X149931278Y-88479512D02*
X149859849Y-88550940D01*
X149859849Y-88550940D02*
X149931278Y-88622369D01*
X149931278Y-88622369D02*
X150002706Y-88550940D01*
X150002706Y-88550940D02*
X149931278Y-88479512D01*
X149931278Y-88479512D02*
X149931278Y-88622369D01*
X149216992Y-88622369D02*
X148716992Y-88622369D01*
X148502706Y-89408083D02*
X149216992Y-89408083D01*
X149216992Y-89408083D02*
X149216992Y-87908083D01*
X149216992Y-87908083D02*
X148502706Y-87908083D01*
X147074134Y-89408083D02*
X147931277Y-89408083D01*
X147502706Y-89408083D02*
X147502706Y-87908083D01*
X147502706Y-87908083D02*
X147645563Y-88122369D01*
X147645563Y-88122369D02*
X147788420Y-88265226D01*
X147788420Y-88265226D02*
X147931277Y-88336655D01*
X146431278Y-89265226D02*
X146359849Y-89336655D01*
X146359849Y-89336655D02*
X146431278Y-89408083D01*
X146431278Y-89408083D02*
X146502706Y-89336655D01*
X146502706Y-89336655D02*
X146431278Y-89265226D01*
X146431278Y-89265226D02*
X146431278Y-89408083D01*
X146431278Y-88479512D02*
X146359849Y-88550940D01*
X146359849Y-88550940D02*
X146431278Y-88622369D01*
X146431278Y-88622369D02*
X146502706Y-88550940D01*
X146502706Y-88550940D02*
X146431278Y-88479512D01*
X146431278Y-88479512D02*
X146431278Y-88622369D01*
X144931277Y-89408083D02*
X145788420Y-89408083D01*
X145359849Y-89408083D02*
X145359849Y-87908083D01*
X145359849Y-87908083D02*
X145502706Y-88122369D01*
X145502706Y-88122369D02*
X145645563Y-88265226D01*
X145645563Y-88265226D02*
X145788420Y-88336655D01*
X143574135Y-87908083D02*
X144288421Y-87908083D01*
X144288421Y-87908083D02*
X144359849Y-88622369D01*
X144359849Y-88622369D02*
X144288421Y-88550940D01*
X144288421Y-88550940D02*
X144145564Y-88479512D01*
X144145564Y-88479512D02*
X143788421Y-88479512D01*
X143788421Y-88479512D02*
X143645564Y-88550940D01*
X143645564Y-88550940D02*
X143574135Y-88622369D01*
X143574135Y-88622369D02*
X143502706Y-88765226D01*
X143502706Y-88765226D02*
X143502706Y-89122369D01*
X143502706Y-89122369D02*
X143574135Y-89265226D01*
X143574135Y-89265226D02*
X143645564Y-89336655D01*
X143645564Y-89336655D02*
X143788421Y-89408083D01*
X143788421Y-89408083D02*
X144145564Y-89408083D01*
X144145564Y-89408083D02*
X144288421Y-89336655D01*
X144288421Y-89336655D02*
X144359849Y-89265226D01*
X142859850Y-89265226D02*
X142788421Y-89336655D01*
X142788421Y-89336655D02*
X142859850Y-89408083D01*
X142859850Y-89408083D02*
X142931278Y-89336655D01*
X142931278Y-89336655D02*
X142859850Y-89265226D01*
X142859850Y-89265226D02*
X142859850Y-89408083D01*
X142859850Y-88479512D02*
X142788421Y-88550940D01*
X142788421Y-88550940D02*
X142859850Y-88622369D01*
X142859850Y-88622369D02*
X142931278Y-88550940D01*
X142931278Y-88550940D02*
X142859850Y-88479512D01*
X142859850Y-88479512D02*
X142859850Y-88622369D01*
X141859849Y-87908083D02*
X141716992Y-87908083D01*
X141716992Y-87908083D02*
X141574135Y-87979512D01*
X141574135Y-87979512D02*
X141502707Y-88050940D01*
X141502707Y-88050940D02*
X141431278Y-88193797D01*
X141431278Y-88193797D02*
X141359849Y-88479512D01*
X141359849Y-88479512D02*
X141359849Y-88836655D01*
X141359849Y-88836655D02*
X141431278Y-89122369D01*
X141431278Y-89122369D02*
X141502707Y-89265226D01*
X141502707Y-89265226D02*
X141574135Y-89336655D01*
X141574135Y-89336655D02*
X141716992Y-89408083D01*
X141716992Y-89408083D02*
X141859849Y-89408083D01*
X141859849Y-89408083D02*
X142002707Y-89336655D01*
X142002707Y-89336655D02*
X142074135Y-89265226D01*
X142074135Y-89265226D02*
X142145564Y-89122369D01*
X142145564Y-89122369D02*
X142216992Y-88836655D01*
X142216992Y-88836655D02*
X142216992Y-88479512D01*
X142216992Y-88479512D02*
X142145564Y-88193797D01*
X142145564Y-88193797D02*
X142074135Y-88050940D01*
X142074135Y-88050940D02*
X142002707Y-87979512D01*
X142002707Y-87979512D02*
X141859849Y-87908083D01*
X140002707Y-87908083D02*
X140716993Y-87908083D01*
X140716993Y-87908083D02*
X140788421Y-88622369D01*
X140788421Y-88622369D02*
X140716993Y-88550940D01*
X140716993Y-88550940D02*
X140574136Y-88479512D01*
X140574136Y-88479512D02*
X140216993Y-88479512D01*
X140216993Y-88479512D02*
X140074136Y-88550940D01*
X140074136Y-88550940D02*
X140002707Y-88622369D01*
X140002707Y-88622369D02*
X139931278Y-88765226D01*
X139931278Y-88765226D02*
X139931278Y-89122369D01*
X139931278Y-89122369D02*
X140002707Y-89265226D01*
X140002707Y-89265226D02*
X140074136Y-89336655D01*
X140074136Y-89336655D02*
X140216993Y-89408083D01*
X140216993Y-89408083D02*
X140574136Y-89408083D01*
X140574136Y-89408083D02*
X140716993Y-89336655D01*
X140716993Y-89336655D02*
X140788421Y-89265226D01*
X139288422Y-89265226D02*
X139216993Y-89336655D01*
X139216993Y-89336655D02*
X139288422Y-89408083D01*
X139288422Y-89408083D02*
X139359850Y-89336655D01*
X139359850Y-89336655D02*
X139288422Y-89265226D01*
X139288422Y-89265226D02*
X139288422Y-89408083D01*
X139288422Y-88479512D02*
X139216993Y-88550940D01*
X139216993Y-88550940D02*
X139288422Y-88622369D01*
X139288422Y-88622369D02*
X139359850Y-88550940D01*
X139359850Y-88550940D02*
X139288422Y-88479512D01*
X139288422Y-88479512D02*
X139288422Y-88622369D01*
X135145565Y-89265226D02*
X135074136Y-89336655D01*
X135074136Y-89336655D02*
X135145565Y-89408083D01*
X135145565Y-89408083D02*
X135216993Y-89336655D01*
X135216993Y-89336655D02*
X135145565Y-89265226D01*
X135145565Y-89265226D02*
X135145565Y-89408083D01*
X135145565Y-88479512D02*
X135074136Y-88550940D01*
X135074136Y-88550940D02*
X135145565Y-88622369D01*
X135145565Y-88622369D02*
X135216993Y-88550940D01*
X135216993Y-88550940D02*
X135145565Y-88479512D01*
X135145565Y-88479512D02*
X135145565Y-88622369D01*
X131002708Y-89265226D02*
X130931279Y-89336655D01*
X130931279Y-89336655D02*
X131002708Y-89408083D01*
X131002708Y-89408083D02*
X131074136Y-89336655D01*
X131074136Y-89336655D02*
X131002708Y-89265226D01*
X131002708Y-89265226D02*
X131002708Y-89408083D01*
X131002708Y-88479512D02*
X130931279Y-88550940D01*
X130931279Y-88550940D02*
X131002708Y-88622369D01*
X131002708Y-88622369D02*
X131074136Y-88550940D01*
X131074136Y-88550940D02*
X131002708Y-88479512D01*
X131002708Y-88479512D02*
X131002708Y-88622369D01*
%LPC*%
D13*
X116500000Y-51500000D03*
D14*
X116500000Y-51500000D03*
D13*
X116500000Y-87000000D03*
D14*
X116500000Y-87000000D03*
D15*
X180550000Y-53050000D03*
D16*
X175550000Y-53050000D03*
X170550000Y-53050000D03*
D13*
X246500000Y-51500000D03*
D14*
X246500000Y-51500000D03*
D15*
X118000000Y-59000000D03*
D16*
X118000000Y-64000000D03*
X118000000Y-69000000D03*
X118000000Y-74000000D03*
X118000000Y-79000000D03*
D13*
X246500000Y-87000000D03*
D14*
X246500000Y-87000000D03*
D17*
X170000000Y-77000000D03*
D18*
X170000000Y-79540000D03*
X170000000Y-82080000D03*
X170000000Y-84620000D03*
%LPD*%
M02*
