G04 #@! TF.GenerationSoftware,KiCad,Pcbnew,8.0.4*
G04 #@! TF.CreationDate,2024-07-26T11:50:06-07:00*
G04 #@! TF.ProjectId,Soil Power Sensor,536f696c-2050-46f7-9765-722053656e73,2.2.1*
G04 #@! TF.SameCoordinates,Original*
G04 #@! TF.FileFunction,Legend,Bot*
G04 #@! TF.FilePolarity,Positive*
%FSLAX46Y46*%
G04 Gerber Fmt 4.6, Leading zero omitted, Abs format (unit mm)*
G04 Created by KiCad (PCBNEW 8.0.4) date 2024-07-26 11:50:06*
%MOMM*%
%LPD*%
G01*
G04 APERTURE LIST*
G04 Aperture macros list*
%AMFreePoly0*
4,1,19,0.500000,-0.750000,0.000000,-0.750000,0.000000,-0.744911,-0.071157,-0.744911,-0.207708,-0.704816,-0.327430,-0.627875,-0.420627,-0.520320,-0.479746,-0.390866,-0.500000,-0.250000,-0.500000,0.250000,-0.479746,0.390866,-0.420627,0.520320,-0.327430,0.627875,-0.207708,0.704816,-0.071157,0.744911,0.000000,0.744911,0.000000,0.750000,0.500000,0.750000,0.500000,-0.750000,0.500000,-0.750000,
$1*%
%AMFreePoly1*
4,1,19,0.000000,0.744911,0.071157,0.744911,0.207708,0.704816,0.327430,0.627875,0.420627,0.520320,0.479746,0.390866,0.500000,0.250000,0.500000,-0.250000,0.479746,-0.390866,0.420627,-0.520320,0.327430,-0.627875,0.207708,-0.704816,0.071157,-0.744911,0.000000,-0.744911,0.000000,-0.750000,-0.500000,-0.750000,-0.500000,0.750000,0.000000,0.750000,0.000000,0.744911,0.000000,0.744911,
$1*%
G04 Aperture macros list end*
%ADD10C,0.150000*%
%ADD11C,0.254000*%
%ADD12C,0.100000*%
%ADD13C,0.200000*%
%ADD14C,0.120000*%
%ADD15C,3.600000*%
%ADD16C,5.700000*%
%ADD17R,2.600000X2.600000*%
%ADD18C,2.600000*%
%ADD19R,1.700000X1.700000*%
%ADD20O,1.700000X1.700000*%
%ADD21FreePoly0,180.000000*%
%ADD22FreePoly1,180.000000*%
%ADD23R,3.000000X3.000000*%
%ADD24C,1.500000*%
G04 APERTURE END LIST*
D10*
X225333332Y-49954819D02*
X224999999Y-50954819D01*
X224999999Y-50954819D02*
X224666666Y-49954819D01*
X224333332Y-49954819D02*
X224333332Y-50764342D01*
X224333332Y-50764342D02*
X224285713Y-50859580D01*
X224285713Y-50859580D02*
X224238094Y-50907200D01*
X224238094Y-50907200D02*
X224142856Y-50954819D01*
X224142856Y-50954819D02*
X223952380Y-50954819D01*
X223952380Y-50954819D02*
X223857142Y-50907200D01*
X223857142Y-50907200D02*
X223809523Y-50859580D01*
X223809523Y-50859580D02*
X223761904Y-50764342D01*
X223761904Y-50764342D02*
X223761904Y-49954819D01*
X223333332Y-50907200D02*
X223190475Y-50954819D01*
X223190475Y-50954819D02*
X222952380Y-50954819D01*
X222952380Y-50954819D02*
X222857142Y-50907200D01*
X222857142Y-50907200D02*
X222809523Y-50859580D01*
X222809523Y-50859580D02*
X222761904Y-50764342D01*
X222761904Y-50764342D02*
X222761904Y-50669104D01*
X222761904Y-50669104D02*
X222809523Y-50573866D01*
X222809523Y-50573866D02*
X222857142Y-50526247D01*
X222857142Y-50526247D02*
X222952380Y-50478628D01*
X222952380Y-50478628D02*
X223142856Y-50431009D01*
X223142856Y-50431009D02*
X223238094Y-50383390D01*
X223238094Y-50383390D02*
X223285713Y-50335771D01*
X223285713Y-50335771D02*
X223333332Y-50240533D01*
X223333332Y-50240533D02*
X223333332Y-50145295D01*
X223333332Y-50145295D02*
X223285713Y-50050057D01*
X223285713Y-50050057D02*
X223238094Y-50002438D01*
X223238094Y-50002438D02*
X223142856Y-49954819D01*
X223142856Y-49954819D02*
X222904761Y-49954819D01*
X222904761Y-49954819D02*
X222761904Y-50002438D01*
X221999999Y-50431009D02*
X221857142Y-50478628D01*
X221857142Y-50478628D02*
X221809523Y-50526247D01*
X221809523Y-50526247D02*
X221761904Y-50621485D01*
X221761904Y-50621485D02*
X221761904Y-50764342D01*
X221761904Y-50764342D02*
X221809523Y-50859580D01*
X221809523Y-50859580D02*
X221857142Y-50907200D01*
X221857142Y-50907200D02*
X221952380Y-50954819D01*
X221952380Y-50954819D02*
X222333332Y-50954819D01*
X222333332Y-50954819D02*
X222333332Y-49954819D01*
X222333332Y-49954819D02*
X221999999Y-49954819D01*
X221999999Y-49954819D02*
X221904761Y-50002438D01*
X221904761Y-50002438D02*
X221857142Y-50050057D01*
X221857142Y-50050057D02*
X221809523Y-50145295D01*
X221809523Y-50145295D02*
X221809523Y-50240533D01*
X221809523Y-50240533D02*
X221857142Y-50335771D01*
X221857142Y-50335771D02*
X221904761Y-50383390D01*
X221904761Y-50383390D02*
X221999999Y-50431009D01*
X221999999Y-50431009D02*
X222333332Y-50431009D01*
X236642856Y-49954819D02*
X236309523Y-50954819D01*
X236309523Y-50954819D02*
X235976190Y-49954819D01*
X235309523Y-50431009D02*
X235166666Y-50478628D01*
X235166666Y-50478628D02*
X235119047Y-50526247D01*
X235119047Y-50526247D02*
X235071428Y-50621485D01*
X235071428Y-50621485D02*
X235071428Y-50764342D01*
X235071428Y-50764342D02*
X235119047Y-50859580D01*
X235119047Y-50859580D02*
X235166666Y-50907200D01*
X235166666Y-50907200D02*
X235261904Y-50954819D01*
X235261904Y-50954819D02*
X235642856Y-50954819D01*
X235642856Y-50954819D02*
X235642856Y-49954819D01*
X235642856Y-49954819D02*
X235309523Y-49954819D01*
X235309523Y-49954819D02*
X235214285Y-50002438D01*
X235214285Y-50002438D02*
X235166666Y-50050057D01*
X235166666Y-50050057D02*
X235119047Y-50145295D01*
X235119047Y-50145295D02*
X235119047Y-50240533D01*
X235119047Y-50240533D02*
X235166666Y-50335771D01*
X235166666Y-50335771D02*
X235214285Y-50383390D01*
X235214285Y-50383390D02*
X235309523Y-50431009D01*
X235309523Y-50431009D02*
X235642856Y-50431009D01*
X234690475Y-50669104D02*
X234214285Y-50669104D01*
X234785713Y-50954819D02*
X234452380Y-49954819D01*
X234452380Y-49954819D02*
X234119047Y-50954819D01*
X233928570Y-49954819D02*
X233357142Y-49954819D01*
X233642856Y-50954819D02*
X233642856Y-49954819D01*
D11*
X227222180Y-89474224D02*
X227007895Y-89545652D01*
X227007895Y-89545652D02*
X226650752Y-89545652D01*
X226650752Y-89545652D02*
X226507895Y-89474224D01*
X226507895Y-89474224D02*
X226436466Y-89402795D01*
X226436466Y-89402795D02*
X226365037Y-89259938D01*
X226365037Y-89259938D02*
X226365037Y-89117081D01*
X226365037Y-89117081D02*
X226436466Y-88974224D01*
X226436466Y-88974224D02*
X226507895Y-88902795D01*
X226507895Y-88902795D02*
X226650752Y-88831366D01*
X226650752Y-88831366D02*
X226936466Y-88759938D01*
X226936466Y-88759938D02*
X227079323Y-88688509D01*
X227079323Y-88688509D02*
X227150752Y-88617081D01*
X227150752Y-88617081D02*
X227222180Y-88474224D01*
X227222180Y-88474224D02*
X227222180Y-88331366D01*
X227222180Y-88331366D02*
X227150752Y-88188509D01*
X227150752Y-88188509D02*
X227079323Y-88117081D01*
X227079323Y-88117081D02*
X226936466Y-88045652D01*
X226936466Y-88045652D02*
X226579323Y-88045652D01*
X226579323Y-88045652D02*
X226365037Y-88117081D01*
X225507895Y-89545652D02*
X225650752Y-89474224D01*
X225650752Y-89474224D02*
X225722181Y-89402795D01*
X225722181Y-89402795D02*
X225793609Y-89259938D01*
X225793609Y-89259938D02*
X225793609Y-88831366D01*
X225793609Y-88831366D02*
X225722181Y-88688509D01*
X225722181Y-88688509D02*
X225650752Y-88617081D01*
X225650752Y-88617081D02*
X225507895Y-88545652D01*
X225507895Y-88545652D02*
X225293609Y-88545652D01*
X225293609Y-88545652D02*
X225150752Y-88617081D01*
X225150752Y-88617081D02*
X225079324Y-88688509D01*
X225079324Y-88688509D02*
X225007895Y-88831366D01*
X225007895Y-88831366D02*
X225007895Y-89259938D01*
X225007895Y-89259938D02*
X225079324Y-89402795D01*
X225079324Y-89402795D02*
X225150752Y-89474224D01*
X225150752Y-89474224D02*
X225293609Y-89545652D01*
X225293609Y-89545652D02*
X225507895Y-89545652D01*
X224365038Y-89545652D02*
X224365038Y-88545652D01*
X224365038Y-88045652D02*
X224436466Y-88117081D01*
X224436466Y-88117081D02*
X224365038Y-88188509D01*
X224365038Y-88188509D02*
X224293609Y-88117081D01*
X224293609Y-88117081D02*
X224365038Y-88045652D01*
X224365038Y-88045652D02*
X224365038Y-88188509D01*
X223436466Y-89545652D02*
X223579323Y-89474224D01*
X223579323Y-89474224D02*
X223650752Y-89331366D01*
X223650752Y-89331366D02*
X223650752Y-88045652D01*
X221722181Y-89545652D02*
X221722181Y-88045652D01*
X221722181Y-88045652D02*
X221150752Y-88045652D01*
X221150752Y-88045652D02*
X221007895Y-88117081D01*
X221007895Y-88117081D02*
X220936466Y-88188509D01*
X220936466Y-88188509D02*
X220865038Y-88331366D01*
X220865038Y-88331366D02*
X220865038Y-88545652D01*
X220865038Y-88545652D02*
X220936466Y-88688509D01*
X220936466Y-88688509D02*
X221007895Y-88759938D01*
X221007895Y-88759938D02*
X221150752Y-88831366D01*
X221150752Y-88831366D02*
X221722181Y-88831366D01*
X220007895Y-89545652D02*
X220150752Y-89474224D01*
X220150752Y-89474224D02*
X220222181Y-89402795D01*
X220222181Y-89402795D02*
X220293609Y-89259938D01*
X220293609Y-89259938D02*
X220293609Y-88831366D01*
X220293609Y-88831366D02*
X220222181Y-88688509D01*
X220222181Y-88688509D02*
X220150752Y-88617081D01*
X220150752Y-88617081D02*
X220007895Y-88545652D01*
X220007895Y-88545652D02*
X219793609Y-88545652D01*
X219793609Y-88545652D02*
X219650752Y-88617081D01*
X219650752Y-88617081D02*
X219579324Y-88688509D01*
X219579324Y-88688509D02*
X219507895Y-88831366D01*
X219507895Y-88831366D02*
X219507895Y-89259938D01*
X219507895Y-89259938D02*
X219579324Y-89402795D01*
X219579324Y-89402795D02*
X219650752Y-89474224D01*
X219650752Y-89474224D02*
X219793609Y-89545652D01*
X219793609Y-89545652D02*
X220007895Y-89545652D01*
X219007895Y-88545652D02*
X218722181Y-89545652D01*
X218722181Y-89545652D02*
X218436466Y-88831366D01*
X218436466Y-88831366D02*
X218150752Y-89545652D01*
X218150752Y-89545652D02*
X217865038Y-88545652D01*
X216722180Y-89474224D02*
X216865037Y-89545652D01*
X216865037Y-89545652D02*
X217150752Y-89545652D01*
X217150752Y-89545652D02*
X217293609Y-89474224D01*
X217293609Y-89474224D02*
X217365037Y-89331366D01*
X217365037Y-89331366D02*
X217365037Y-88759938D01*
X217365037Y-88759938D02*
X217293609Y-88617081D01*
X217293609Y-88617081D02*
X217150752Y-88545652D01*
X217150752Y-88545652D02*
X216865037Y-88545652D01*
X216865037Y-88545652D02*
X216722180Y-88617081D01*
X216722180Y-88617081D02*
X216650752Y-88759938D01*
X216650752Y-88759938D02*
X216650752Y-88902795D01*
X216650752Y-88902795D02*
X217365037Y-89045652D01*
X216007895Y-89545652D02*
X216007895Y-88545652D01*
X216007895Y-88831366D02*
X215936466Y-88688509D01*
X215936466Y-88688509D02*
X215865038Y-88617081D01*
X215865038Y-88617081D02*
X215722180Y-88545652D01*
X215722180Y-88545652D02*
X215579323Y-88545652D01*
X214007895Y-89474224D02*
X213793610Y-89545652D01*
X213793610Y-89545652D02*
X213436467Y-89545652D01*
X213436467Y-89545652D02*
X213293610Y-89474224D01*
X213293610Y-89474224D02*
X213222181Y-89402795D01*
X213222181Y-89402795D02*
X213150752Y-89259938D01*
X213150752Y-89259938D02*
X213150752Y-89117081D01*
X213150752Y-89117081D02*
X213222181Y-88974224D01*
X213222181Y-88974224D02*
X213293610Y-88902795D01*
X213293610Y-88902795D02*
X213436467Y-88831366D01*
X213436467Y-88831366D02*
X213722181Y-88759938D01*
X213722181Y-88759938D02*
X213865038Y-88688509D01*
X213865038Y-88688509D02*
X213936467Y-88617081D01*
X213936467Y-88617081D02*
X214007895Y-88474224D01*
X214007895Y-88474224D02*
X214007895Y-88331366D01*
X214007895Y-88331366D02*
X213936467Y-88188509D01*
X213936467Y-88188509D02*
X213865038Y-88117081D01*
X213865038Y-88117081D02*
X213722181Y-88045652D01*
X213722181Y-88045652D02*
X213365038Y-88045652D01*
X213365038Y-88045652D02*
X213150752Y-88117081D01*
X211936467Y-89474224D02*
X212079324Y-89545652D01*
X212079324Y-89545652D02*
X212365039Y-89545652D01*
X212365039Y-89545652D02*
X212507896Y-89474224D01*
X212507896Y-89474224D02*
X212579324Y-89331366D01*
X212579324Y-89331366D02*
X212579324Y-88759938D01*
X212579324Y-88759938D02*
X212507896Y-88617081D01*
X212507896Y-88617081D02*
X212365039Y-88545652D01*
X212365039Y-88545652D02*
X212079324Y-88545652D01*
X212079324Y-88545652D02*
X211936467Y-88617081D01*
X211936467Y-88617081D02*
X211865039Y-88759938D01*
X211865039Y-88759938D02*
X211865039Y-88902795D01*
X211865039Y-88902795D02*
X212579324Y-89045652D01*
X211222182Y-88545652D02*
X211222182Y-89545652D01*
X211222182Y-88688509D02*
X211150753Y-88617081D01*
X211150753Y-88617081D02*
X211007896Y-88545652D01*
X211007896Y-88545652D02*
X210793610Y-88545652D01*
X210793610Y-88545652D02*
X210650753Y-88617081D01*
X210650753Y-88617081D02*
X210579325Y-88759938D01*
X210579325Y-88759938D02*
X210579325Y-89545652D01*
X209936467Y-89474224D02*
X209793610Y-89545652D01*
X209793610Y-89545652D02*
X209507896Y-89545652D01*
X209507896Y-89545652D02*
X209365039Y-89474224D01*
X209365039Y-89474224D02*
X209293610Y-89331366D01*
X209293610Y-89331366D02*
X209293610Y-89259938D01*
X209293610Y-89259938D02*
X209365039Y-89117081D01*
X209365039Y-89117081D02*
X209507896Y-89045652D01*
X209507896Y-89045652D02*
X209722182Y-89045652D01*
X209722182Y-89045652D02*
X209865039Y-88974224D01*
X209865039Y-88974224D02*
X209936467Y-88831366D01*
X209936467Y-88831366D02*
X209936467Y-88759938D01*
X209936467Y-88759938D02*
X209865039Y-88617081D01*
X209865039Y-88617081D02*
X209722182Y-88545652D01*
X209722182Y-88545652D02*
X209507896Y-88545652D01*
X209507896Y-88545652D02*
X209365039Y-88617081D01*
X208436467Y-89545652D02*
X208579324Y-89474224D01*
X208579324Y-89474224D02*
X208650753Y-89402795D01*
X208650753Y-89402795D02*
X208722181Y-89259938D01*
X208722181Y-89259938D02*
X208722181Y-88831366D01*
X208722181Y-88831366D02*
X208650753Y-88688509D01*
X208650753Y-88688509D02*
X208579324Y-88617081D01*
X208579324Y-88617081D02*
X208436467Y-88545652D01*
X208436467Y-88545652D02*
X208222181Y-88545652D01*
X208222181Y-88545652D02*
X208079324Y-88617081D01*
X208079324Y-88617081D02*
X208007896Y-88688509D01*
X208007896Y-88688509D02*
X207936467Y-88831366D01*
X207936467Y-88831366D02*
X207936467Y-89259938D01*
X207936467Y-89259938D02*
X208007896Y-89402795D01*
X208007896Y-89402795D02*
X208079324Y-89474224D01*
X208079324Y-89474224D02*
X208222181Y-89545652D01*
X208222181Y-89545652D02*
X208436467Y-89545652D01*
X207293610Y-89545652D02*
X207293610Y-88545652D01*
X207293610Y-88831366D02*
X207222181Y-88688509D01*
X207222181Y-88688509D02*
X207150753Y-88617081D01*
X207150753Y-88617081D02*
X207007895Y-88545652D01*
X207007895Y-88545652D02*
X206865038Y-88545652D01*
X201793611Y-89545652D02*
X201793611Y-88045652D01*
X201793611Y-88045652D02*
X201436468Y-88045652D01*
X201436468Y-88045652D02*
X201222182Y-88117081D01*
X201222182Y-88117081D02*
X201079325Y-88259938D01*
X201079325Y-88259938D02*
X201007896Y-88402795D01*
X201007896Y-88402795D02*
X200936468Y-88688509D01*
X200936468Y-88688509D02*
X200936468Y-88902795D01*
X200936468Y-88902795D02*
X201007896Y-89188509D01*
X201007896Y-89188509D02*
X201079325Y-89331366D01*
X201079325Y-89331366D02*
X201222182Y-89474224D01*
X201222182Y-89474224D02*
X201436468Y-89545652D01*
X201436468Y-89545652D02*
X201793611Y-89545652D01*
X199650754Y-89545652D02*
X199650754Y-88759938D01*
X199650754Y-88759938D02*
X199722182Y-88617081D01*
X199722182Y-88617081D02*
X199865039Y-88545652D01*
X199865039Y-88545652D02*
X200150754Y-88545652D01*
X200150754Y-88545652D02*
X200293611Y-88617081D01*
X199650754Y-89474224D02*
X199793611Y-89545652D01*
X199793611Y-89545652D02*
X200150754Y-89545652D01*
X200150754Y-89545652D02*
X200293611Y-89474224D01*
X200293611Y-89474224D02*
X200365039Y-89331366D01*
X200365039Y-89331366D02*
X200365039Y-89188509D01*
X200365039Y-89188509D02*
X200293611Y-89045652D01*
X200293611Y-89045652D02*
X200150754Y-88974224D01*
X200150754Y-88974224D02*
X199793611Y-88974224D01*
X199793611Y-88974224D02*
X199650754Y-88902795D01*
X199150753Y-88545652D02*
X198579325Y-88545652D01*
X198936468Y-88045652D02*
X198936468Y-89331366D01*
X198936468Y-89331366D02*
X198865039Y-89474224D01*
X198865039Y-89474224D02*
X198722182Y-89545652D01*
X198722182Y-89545652D02*
X198579325Y-89545652D01*
X197507896Y-89474224D02*
X197650753Y-89545652D01*
X197650753Y-89545652D02*
X197936468Y-89545652D01*
X197936468Y-89545652D02*
X198079325Y-89474224D01*
X198079325Y-89474224D02*
X198150753Y-89331366D01*
X198150753Y-89331366D02*
X198150753Y-88759938D01*
X198150753Y-88759938D02*
X198079325Y-88617081D01*
X198079325Y-88617081D02*
X197936468Y-88545652D01*
X197936468Y-88545652D02*
X197650753Y-88545652D01*
X197650753Y-88545652D02*
X197507896Y-88617081D01*
X197507896Y-88617081D02*
X197436468Y-88759938D01*
X197436468Y-88759938D02*
X197436468Y-88902795D01*
X197436468Y-88902795D02*
X198150753Y-89045652D01*
X196793611Y-89402795D02*
X196722182Y-89474224D01*
X196722182Y-89474224D02*
X196793611Y-89545652D01*
X196793611Y-89545652D02*
X196865039Y-89474224D01*
X196865039Y-89474224D02*
X196793611Y-89402795D01*
X196793611Y-89402795D02*
X196793611Y-89545652D01*
X196793611Y-88617081D02*
X196722182Y-88688509D01*
X196722182Y-88688509D02*
X196793611Y-88759938D01*
X196793611Y-88759938D02*
X196865039Y-88688509D01*
X196865039Y-88688509D02*
X196793611Y-88617081D01*
X196793611Y-88617081D02*
X196793611Y-88759938D01*
X195007896Y-88188509D02*
X194936468Y-88117081D01*
X194936468Y-88117081D02*
X194793611Y-88045652D01*
X194793611Y-88045652D02*
X194436468Y-88045652D01*
X194436468Y-88045652D02*
X194293611Y-88117081D01*
X194293611Y-88117081D02*
X194222182Y-88188509D01*
X194222182Y-88188509D02*
X194150753Y-88331366D01*
X194150753Y-88331366D02*
X194150753Y-88474224D01*
X194150753Y-88474224D02*
X194222182Y-88688509D01*
X194222182Y-88688509D02*
X195079325Y-89545652D01*
X195079325Y-89545652D02*
X194150753Y-89545652D01*
X193222182Y-88045652D02*
X193079325Y-88045652D01*
X193079325Y-88045652D02*
X192936468Y-88117081D01*
X192936468Y-88117081D02*
X192865040Y-88188509D01*
X192865040Y-88188509D02*
X192793611Y-88331366D01*
X192793611Y-88331366D02*
X192722182Y-88617081D01*
X192722182Y-88617081D02*
X192722182Y-88974224D01*
X192722182Y-88974224D02*
X192793611Y-89259938D01*
X192793611Y-89259938D02*
X192865040Y-89402795D01*
X192865040Y-89402795D02*
X192936468Y-89474224D01*
X192936468Y-89474224D02*
X193079325Y-89545652D01*
X193079325Y-89545652D02*
X193222182Y-89545652D01*
X193222182Y-89545652D02*
X193365040Y-89474224D01*
X193365040Y-89474224D02*
X193436468Y-89402795D01*
X193436468Y-89402795D02*
X193507897Y-89259938D01*
X193507897Y-89259938D02*
X193579325Y-88974224D01*
X193579325Y-88974224D02*
X193579325Y-88617081D01*
X193579325Y-88617081D02*
X193507897Y-88331366D01*
X193507897Y-88331366D02*
X193436468Y-88188509D01*
X193436468Y-88188509D02*
X193365040Y-88117081D01*
X193365040Y-88117081D02*
X193222182Y-88045652D01*
X192150754Y-88188509D02*
X192079326Y-88117081D01*
X192079326Y-88117081D02*
X191936469Y-88045652D01*
X191936469Y-88045652D02*
X191579326Y-88045652D01*
X191579326Y-88045652D02*
X191436469Y-88117081D01*
X191436469Y-88117081D02*
X191365040Y-88188509D01*
X191365040Y-88188509D02*
X191293611Y-88331366D01*
X191293611Y-88331366D02*
X191293611Y-88474224D01*
X191293611Y-88474224D02*
X191365040Y-88688509D01*
X191365040Y-88688509D02*
X192222183Y-89545652D01*
X192222183Y-89545652D02*
X191293611Y-89545652D01*
X190007898Y-88545652D02*
X190007898Y-89545652D01*
X190365040Y-87974224D02*
X190722183Y-89045652D01*
X190722183Y-89045652D02*
X189793612Y-89045652D01*
X189222184Y-88974224D02*
X188079327Y-88974224D01*
X187079326Y-88045652D02*
X186936469Y-88045652D01*
X186936469Y-88045652D02*
X186793612Y-88117081D01*
X186793612Y-88117081D02*
X186722184Y-88188509D01*
X186722184Y-88188509D02*
X186650755Y-88331366D01*
X186650755Y-88331366D02*
X186579326Y-88617081D01*
X186579326Y-88617081D02*
X186579326Y-88974224D01*
X186579326Y-88974224D02*
X186650755Y-89259938D01*
X186650755Y-89259938D02*
X186722184Y-89402795D01*
X186722184Y-89402795D02*
X186793612Y-89474224D01*
X186793612Y-89474224D02*
X186936469Y-89545652D01*
X186936469Y-89545652D02*
X187079326Y-89545652D01*
X187079326Y-89545652D02*
X187222184Y-89474224D01*
X187222184Y-89474224D02*
X187293612Y-89402795D01*
X187293612Y-89402795D02*
X187365041Y-89259938D01*
X187365041Y-89259938D02*
X187436469Y-88974224D01*
X187436469Y-88974224D02*
X187436469Y-88617081D01*
X187436469Y-88617081D02*
X187365041Y-88331366D01*
X187365041Y-88331366D02*
X187293612Y-88188509D01*
X187293612Y-88188509D02*
X187222184Y-88117081D01*
X187222184Y-88117081D02*
X187079326Y-88045652D01*
X186079327Y-88045652D02*
X185079327Y-88045652D01*
X185079327Y-88045652D02*
X185722184Y-89545652D01*
X184507899Y-88974224D02*
X183365042Y-88974224D01*
X182722184Y-88188509D02*
X182650756Y-88117081D01*
X182650756Y-88117081D02*
X182507899Y-88045652D01*
X182507899Y-88045652D02*
X182150756Y-88045652D01*
X182150756Y-88045652D02*
X182007899Y-88117081D01*
X182007899Y-88117081D02*
X181936470Y-88188509D01*
X181936470Y-88188509D02*
X181865041Y-88331366D01*
X181865041Y-88331366D02*
X181865041Y-88474224D01*
X181865041Y-88474224D02*
X181936470Y-88688509D01*
X181936470Y-88688509D02*
X182793613Y-89545652D01*
X182793613Y-89545652D02*
X181865041Y-89545652D01*
X180579328Y-88045652D02*
X180865042Y-88045652D01*
X180865042Y-88045652D02*
X181007899Y-88117081D01*
X181007899Y-88117081D02*
X181079328Y-88188509D01*
X181079328Y-88188509D02*
X181222185Y-88402795D01*
X181222185Y-88402795D02*
X181293613Y-88688509D01*
X181293613Y-88688509D02*
X181293613Y-89259938D01*
X181293613Y-89259938D02*
X181222185Y-89402795D01*
X181222185Y-89402795D02*
X181150756Y-89474224D01*
X181150756Y-89474224D02*
X181007899Y-89545652D01*
X181007899Y-89545652D02*
X180722185Y-89545652D01*
X180722185Y-89545652D02*
X180579328Y-89474224D01*
X180579328Y-89474224D02*
X180507899Y-89402795D01*
X180507899Y-89402795D02*
X180436470Y-89259938D01*
X180436470Y-89259938D02*
X180436470Y-88902795D01*
X180436470Y-88902795D02*
X180507899Y-88759938D01*
X180507899Y-88759938D02*
X180579328Y-88688509D01*
X180579328Y-88688509D02*
X180722185Y-88617081D01*
X180722185Y-88617081D02*
X181007899Y-88617081D01*
X181007899Y-88617081D02*
X181150756Y-88688509D01*
X181150756Y-88688509D02*
X181222185Y-88759938D01*
X181222185Y-88759938D02*
X181293613Y-88902795D01*
X175436471Y-88045652D02*
X174936471Y-89545652D01*
X174936471Y-89545652D02*
X174436471Y-88045652D01*
X173365043Y-89474224D02*
X173507900Y-89545652D01*
X173507900Y-89545652D02*
X173793615Y-89545652D01*
X173793615Y-89545652D02*
X173936472Y-89474224D01*
X173936472Y-89474224D02*
X174007900Y-89331366D01*
X174007900Y-89331366D02*
X174007900Y-88759938D01*
X174007900Y-88759938D02*
X173936472Y-88617081D01*
X173936472Y-88617081D02*
X173793615Y-88545652D01*
X173793615Y-88545652D02*
X173507900Y-88545652D01*
X173507900Y-88545652D02*
X173365043Y-88617081D01*
X173365043Y-88617081D02*
X173293615Y-88759938D01*
X173293615Y-88759938D02*
X173293615Y-88902795D01*
X173293615Y-88902795D02*
X174007900Y-89045652D01*
X172650758Y-89545652D02*
X172650758Y-88545652D01*
X172650758Y-88831366D02*
X172579329Y-88688509D01*
X172579329Y-88688509D02*
X172507901Y-88617081D01*
X172507901Y-88617081D02*
X172365043Y-88545652D01*
X172365043Y-88545652D02*
X172222186Y-88545652D01*
X171793615Y-89474224D02*
X171650758Y-89545652D01*
X171650758Y-89545652D02*
X171365044Y-89545652D01*
X171365044Y-89545652D02*
X171222187Y-89474224D01*
X171222187Y-89474224D02*
X171150758Y-89331366D01*
X171150758Y-89331366D02*
X171150758Y-89259938D01*
X171150758Y-89259938D02*
X171222187Y-89117081D01*
X171222187Y-89117081D02*
X171365044Y-89045652D01*
X171365044Y-89045652D02*
X171579330Y-89045652D01*
X171579330Y-89045652D02*
X171722187Y-88974224D01*
X171722187Y-88974224D02*
X171793615Y-88831366D01*
X171793615Y-88831366D02*
X171793615Y-88759938D01*
X171793615Y-88759938D02*
X171722187Y-88617081D01*
X171722187Y-88617081D02*
X171579330Y-88545652D01*
X171579330Y-88545652D02*
X171365044Y-88545652D01*
X171365044Y-88545652D02*
X171222187Y-88617081D01*
X170507901Y-89545652D02*
X170507901Y-88545652D01*
X170507901Y-88045652D02*
X170579329Y-88117081D01*
X170579329Y-88117081D02*
X170507901Y-88188509D01*
X170507901Y-88188509D02*
X170436472Y-88117081D01*
X170436472Y-88117081D02*
X170507901Y-88045652D01*
X170507901Y-88045652D02*
X170507901Y-88188509D01*
X169579329Y-89545652D02*
X169722186Y-89474224D01*
X169722186Y-89474224D02*
X169793615Y-89402795D01*
X169793615Y-89402795D02*
X169865043Y-89259938D01*
X169865043Y-89259938D02*
X169865043Y-88831366D01*
X169865043Y-88831366D02*
X169793615Y-88688509D01*
X169793615Y-88688509D02*
X169722186Y-88617081D01*
X169722186Y-88617081D02*
X169579329Y-88545652D01*
X169579329Y-88545652D02*
X169365043Y-88545652D01*
X169365043Y-88545652D02*
X169222186Y-88617081D01*
X169222186Y-88617081D02*
X169150758Y-88688509D01*
X169150758Y-88688509D02*
X169079329Y-88831366D01*
X169079329Y-88831366D02*
X169079329Y-89259938D01*
X169079329Y-89259938D02*
X169150758Y-89402795D01*
X169150758Y-89402795D02*
X169222186Y-89474224D01*
X169222186Y-89474224D02*
X169365043Y-89545652D01*
X169365043Y-89545652D02*
X169579329Y-89545652D01*
X168436472Y-88545652D02*
X168436472Y-89545652D01*
X168436472Y-88688509D02*
X168365043Y-88617081D01*
X168365043Y-88617081D02*
X168222186Y-88545652D01*
X168222186Y-88545652D02*
X168007900Y-88545652D01*
X168007900Y-88545652D02*
X167865043Y-88617081D01*
X167865043Y-88617081D02*
X167793615Y-88759938D01*
X167793615Y-88759938D02*
X167793615Y-89545652D01*
X167079329Y-89402795D02*
X167007900Y-89474224D01*
X167007900Y-89474224D02*
X167079329Y-89545652D01*
X167079329Y-89545652D02*
X167150757Y-89474224D01*
X167150757Y-89474224D02*
X167079329Y-89402795D01*
X167079329Y-89402795D02*
X167079329Y-89545652D01*
X167079329Y-88617081D02*
X167007900Y-88688509D01*
X167007900Y-88688509D02*
X167079329Y-88759938D01*
X167079329Y-88759938D02*
X167150757Y-88688509D01*
X167150757Y-88688509D02*
X167079329Y-88617081D01*
X167079329Y-88617081D02*
X167079329Y-88759938D01*
X165293614Y-88188509D02*
X165222186Y-88117081D01*
X165222186Y-88117081D02*
X165079329Y-88045652D01*
X165079329Y-88045652D02*
X164722186Y-88045652D01*
X164722186Y-88045652D02*
X164579329Y-88117081D01*
X164579329Y-88117081D02*
X164507900Y-88188509D01*
X164507900Y-88188509D02*
X164436471Y-88331366D01*
X164436471Y-88331366D02*
X164436471Y-88474224D01*
X164436471Y-88474224D02*
X164507900Y-88688509D01*
X164507900Y-88688509D02*
X165365043Y-89545652D01*
X165365043Y-89545652D02*
X164436471Y-89545652D01*
X163793615Y-89402795D02*
X163722186Y-89474224D01*
X163722186Y-89474224D02*
X163793615Y-89545652D01*
X163793615Y-89545652D02*
X163865043Y-89474224D01*
X163865043Y-89474224D02*
X163793615Y-89402795D01*
X163793615Y-89402795D02*
X163793615Y-89545652D01*
X163150757Y-88188509D02*
X163079329Y-88117081D01*
X163079329Y-88117081D02*
X162936472Y-88045652D01*
X162936472Y-88045652D02*
X162579329Y-88045652D01*
X162579329Y-88045652D02*
X162436472Y-88117081D01*
X162436472Y-88117081D02*
X162365043Y-88188509D01*
X162365043Y-88188509D02*
X162293614Y-88331366D01*
X162293614Y-88331366D02*
X162293614Y-88474224D01*
X162293614Y-88474224D02*
X162365043Y-88688509D01*
X162365043Y-88688509D02*
X163222186Y-89545652D01*
X163222186Y-89545652D02*
X162293614Y-89545652D01*
X161650758Y-89402795D02*
X161579329Y-89474224D01*
X161579329Y-89474224D02*
X161650758Y-89545652D01*
X161650758Y-89545652D02*
X161722186Y-89474224D01*
X161722186Y-89474224D02*
X161650758Y-89402795D01*
X161650758Y-89402795D02*
X161650758Y-89545652D01*
X160150757Y-89545652D02*
X161007900Y-89545652D01*
X160579329Y-89545652D02*
X160579329Y-88045652D01*
X160579329Y-88045652D02*
X160722186Y-88259938D01*
X160722186Y-88259938D02*
X160865043Y-88402795D01*
X160865043Y-88402795D02*
X161007900Y-88474224D01*
D10*
X237483333Y-87154819D02*
X237483333Y-87869104D01*
X237483333Y-87869104D02*
X237530952Y-88011961D01*
X237530952Y-88011961D02*
X237626190Y-88107200D01*
X237626190Y-88107200D02*
X237769047Y-88154819D01*
X237769047Y-88154819D02*
X237864285Y-88154819D01*
X237007142Y-88154819D02*
X237007142Y-87154819D01*
X237007142Y-87154819D02*
X236626190Y-87154819D01*
X236626190Y-87154819D02*
X236530952Y-87202438D01*
X236530952Y-87202438D02*
X236483333Y-87250057D01*
X236483333Y-87250057D02*
X236435714Y-87345295D01*
X236435714Y-87345295D02*
X236435714Y-87488152D01*
X236435714Y-87488152D02*
X236483333Y-87583390D01*
X236483333Y-87583390D02*
X236530952Y-87631009D01*
X236530952Y-87631009D02*
X236626190Y-87678628D01*
X236626190Y-87678628D02*
X237007142Y-87678628D01*
X235578571Y-87488152D02*
X235578571Y-88154819D01*
X235816666Y-87107200D02*
X236054761Y-87821485D01*
X236054761Y-87821485D02*
X235435714Y-87821485D01*
D12*
X152464285Y-67255038D02*
X152559523Y-67207419D01*
X152559523Y-67207419D02*
X152702380Y-67207419D01*
X152702380Y-67207419D02*
X152845237Y-67255038D01*
X152845237Y-67255038D02*
X152940475Y-67350276D01*
X152940475Y-67350276D02*
X152988094Y-67445514D01*
X152988094Y-67445514D02*
X153035713Y-67635990D01*
X153035713Y-67635990D02*
X153035713Y-67778847D01*
X153035713Y-67778847D02*
X152988094Y-67969323D01*
X152988094Y-67969323D02*
X152940475Y-68064561D01*
X152940475Y-68064561D02*
X152845237Y-68159800D01*
X152845237Y-68159800D02*
X152702380Y-68207419D01*
X152702380Y-68207419D02*
X152607142Y-68207419D01*
X152607142Y-68207419D02*
X152464285Y-68159800D01*
X152464285Y-68159800D02*
X152416666Y-68112180D01*
X152416666Y-68112180D02*
X152416666Y-67778847D01*
X152416666Y-67778847D02*
X152607142Y-67778847D01*
X151464285Y-68207419D02*
X152035713Y-68207419D01*
X151749999Y-68207419D02*
X151749999Y-67207419D01*
X151749999Y-67207419D02*
X151845237Y-67350276D01*
X151845237Y-67350276D02*
X151940475Y-67445514D01*
X151940475Y-67445514D02*
X152035713Y-67493133D01*
D13*
X140642231Y-49732933D02*
X139118422Y-49732933D01*
X125142231Y-49732933D02*
X123618422Y-49732933D01*
X124380326Y-50494838D02*
X124380326Y-48971028D01*
D10*
X239761904Y-47704819D02*
X239190476Y-47704819D01*
X239476190Y-48704819D02*
X239476190Y-47704819D01*
X238857142Y-48704819D02*
X238857142Y-47704819D01*
X238857142Y-47704819D02*
X238476190Y-47704819D01*
X238476190Y-47704819D02*
X238380952Y-47752438D01*
X238380952Y-47752438D02*
X238333333Y-47800057D01*
X238333333Y-47800057D02*
X238285714Y-47895295D01*
X238285714Y-47895295D02*
X238285714Y-48038152D01*
X238285714Y-48038152D02*
X238333333Y-48133390D01*
X238333333Y-48133390D02*
X238380952Y-48181009D01*
X238380952Y-48181009D02*
X238476190Y-48228628D01*
X238476190Y-48228628D02*
X238857142Y-48228628D01*
X237714285Y-48133390D02*
X237809523Y-48085771D01*
X237809523Y-48085771D02*
X237857142Y-48038152D01*
X237857142Y-48038152D02*
X237904761Y-47942914D01*
X237904761Y-47942914D02*
X237904761Y-47895295D01*
X237904761Y-47895295D02*
X237857142Y-47800057D01*
X237857142Y-47800057D02*
X237809523Y-47752438D01*
X237809523Y-47752438D02*
X237714285Y-47704819D01*
X237714285Y-47704819D02*
X237523809Y-47704819D01*
X237523809Y-47704819D02*
X237428571Y-47752438D01*
X237428571Y-47752438D02*
X237380952Y-47800057D01*
X237380952Y-47800057D02*
X237333333Y-47895295D01*
X237333333Y-47895295D02*
X237333333Y-47942914D01*
X237333333Y-47942914D02*
X237380952Y-48038152D01*
X237380952Y-48038152D02*
X237428571Y-48085771D01*
X237428571Y-48085771D02*
X237523809Y-48133390D01*
X237523809Y-48133390D02*
X237714285Y-48133390D01*
X237714285Y-48133390D02*
X237809523Y-48181009D01*
X237809523Y-48181009D02*
X237857142Y-48228628D01*
X237857142Y-48228628D02*
X237904761Y-48323866D01*
X237904761Y-48323866D02*
X237904761Y-48514342D01*
X237904761Y-48514342D02*
X237857142Y-48609580D01*
X237857142Y-48609580D02*
X237809523Y-48657200D01*
X237809523Y-48657200D02*
X237714285Y-48704819D01*
X237714285Y-48704819D02*
X237523809Y-48704819D01*
X237523809Y-48704819D02*
X237428571Y-48657200D01*
X237428571Y-48657200D02*
X237380952Y-48609580D01*
X237380952Y-48609580D02*
X237333333Y-48514342D01*
X237333333Y-48514342D02*
X237333333Y-48323866D01*
X237333333Y-48323866D02*
X237380952Y-48228628D01*
X237380952Y-48228628D02*
X237428571Y-48181009D01*
X237428571Y-48181009D02*
X237523809Y-48133390D01*
D12*
X213285714Y-71244961D02*
X213190476Y-71292580D01*
X213190476Y-71292580D02*
X213047619Y-71292580D01*
X213047619Y-71292580D02*
X212904762Y-71244961D01*
X212904762Y-71244961D02*
X212809524Y-71149723D01*
X212809524Y-71149723D02*
X212761905Y-71054485D01*
X212761905Y-71054485D02*
X212714286Y-70864009D01*
X212714286Y-70864009D02*
X212714286Y-70721152D01*
X212714286Y-70721152D02*
X212761905Y-70530676D01*
X212761905Y-70530676D02*
X212809524Y-70435438D01*
X212809524Y-70435438D02*
X212904762Y-70340200D01*
X212904762Y-70340200D02*
X213047619Y-70292580D01*
X213047619Y-70292580D02*
X213142857Y-70292580D01*
X213142857Y-70292580D02*
X213285714Y-70340200D01*
X213285714Y-70340200D02*
X213333333Y-70387819D01*
X213333333Y-70387819D02*
X213333333Y-70721152D01*
X213333333Y-70721152D02*
X213142857Y-70721152D01*
X213714286Y-71197342D02*
X213761905Y-71244961D01*
X213761905Y-71244961D02*
X213857143Y-71292580D01*
X213857143Y-71292580D02*
X214095238Y-71292580D01*
X214095238Y-71292580D02*
X214190476Y-71244961D01*
X214190476Y-71244961D02*
X214238095Y-71197342D01*
X214238095Y-71197342D02*
X214285714Y-71102104D01*
X214285714Y-71102104D02*
X214285714Y-71006866D01*
X214285714Y-71006866D02*
X214238095Y-70864009D01*
X214238095Y-70864009D02*
X213666667Y-70292580D01*
X213666667Y-70292580D02*
X214285714Y-70292580D01*
D13*
X247482933Y-60857768D02*
X247482933Y-62381578D01*
X246782768Y-76767066D02*
X248306578Y-76767066D01*
X247544673Y-76005161D02*
X247544673Y-77528971D01*
D10*
X228261904Y-47704819D02*
X227690476Y-47704819D01*
X227976190Y-48704819D02*
X227976190Y-47704819D01*
X227357142Y-48704819D02*
X227357142Y-47704819D01*
X227357142Y-47704819D02*
X226976190Y-47704819D01*
X226976190Y-47704819D02*
X226880952Y-47752438D01*
X226880952Y-47752438D02*
X226833333Y-47800057D01*
X226833333Y-47800057D02*
X226785714Y-47895295D01*
X226785714Y-47895295D02*
X226785714Y-48038152D01*
X226785714Y-48038152D02*
X226833333Y-48133390D01*
X226833333Y-48133390D02*
X226880952Y-48181009D01*
X226880952Y-48181009D02*
X226976190Y-48228628D01*
X226976190Y-48228628D02*
X227357142Y-48228628D01*
X226452380Y-47704819D02*
X225785714Y-47704819D01*
X225785714Y-47704819D02*
X226214285Y-48704819D01*
D14*
X235250000Y-89800000D02*
X235250000Y-89200000D01*
X235950000Y-88500000D02*
X237350000Y-88500000D01*
X237350000Y-90500000D02*
X235950000Y-90500000D01*
X238050000Y-89200000D02*
X238050000Y-89800000D01*
X235250000Y-89200000D02*
G75*
G02*
X235950000Y-88500000I700000J0D01*
G01*
X235950000Y-90500000D02*
G75*
G02*
X235250000Y-89800000I0J700000D01*
G01*
X237350000Y-88500000D02*
G75*
G02*
X238050000Y-89200000I1J-699999D01*
G01*
X238050000Y-89800000D02*
G75*
G02*
X237350000Y-90500000I-699999J-1D01*
G01*
D13*
X122750000Y-85750000D02*
X182750000Y-85750000D01*
X182750000Y-52750000D01*
X122750000Y-52750000D01*
X122750000Y-85750000D01*
D14*
X239450000Y-50500000D02*
G75*
G02*
X237550000Y-50500000I-950000J0D01*
G01*
X237550000Y-50500000D02*
G75*
G02*
X239450000Y-50500000I950000J0D01*
G01*
D13*
X243000000Y-52750000D02*
X183000000Y-52750000D01*
X183000000Y-85750000D01*
X243000000Y-85750000D01*
X243000000Y-52750000D01*
D14*
X227950000Y-50500000D02*
G75*
G02*
X226050000Y-50500000I-950000J0D01*
G01*
X226050000Y-50500000D02*
G75*
G02*
X227950000Y-50500000I950000J0D01*
G01*
%LPC*%
D15*
X116500000Y-51500000D03*
D16*
X116500000Y-51500000D03*
D15*
X116500000Y-87000000D03*
D16*
X116500000Y-87000000D03*
D17*
X180550000Y-53050000D03*
D18*
X175550000Y-53050000D03*
X170550000Y-53050000D03*
D15*
X246500000Y-51500000D03*
D16*
X246500000Y-51500000D03*
D17*
X121000000Y-59000000D03*
D18*
X121000000Y-64000000D03*
X121000000Y-69000000D03*
X121000000Y-74000000D03*
X121000000Y-79000000D03*
D15*
X246500000Y-87000000D03*
D16*
X246500000Y-87000000D03*
D19*
X170000000Y-77000000D03*
D20*
X170000000Y-79540000D03*
X170000000Y-82080000D03*
X170000000Y-84620000D03*
D21*
X237300000Y-89500000D03*
D22*
X236000000Y-89500000D03*
D23*
X127750000Y-49750000D03*
X135750000Y-49750000D03*
D24*
X238500000Y-50500000D03*
D23*
X247500000Y-73250000D03*
X247500000Y-65250000D03*
D24*
X227000000Y-50500000D03*
%LPD*%
M02*
