G04 #@! TF.GenerationSoftware,KiCad,Pcbnew,8.0.4*
G04 #@! TF.CreationDate,2024-09-04T21:56:16-07:00*
G04 #@! TF.ProjectId,Soil Power Sensor,536f696c-2050-46f7-9765-722053656e73,2.2.2*
G04 #@! TF.SameCoordinates,Original*
G04 #@! TF.FileFunction,Copper,L2,Bot*
G04 #@! TF.FilePolarity,Positive*
%FSLAX46Y46*%
G04 Gerber Fmt 4.6, Leading zero omitted, Abs format (unit mm)*
G04 Created by KiCad (PCBNEW 8.0.4) date 2024-09-04 21:56:16*
%MOMM*%
%LPD*%
G01*
G04 APERTURE LIST*
G04 Aperture macros list*
%AMFreePoly0*
4,1,19,0.500000,-0.750000,0.000000,-0.750000,0.000000,-0.744911,-0.071157,-0.744911,-0.207708,-0.704816,-0.327430,-0.627875,-0.420627,-0.520320,-0.479746,-0.390866,-0.500000,-0.250000,-0.500000,0.250000,-0.479746,0.390866,-0.420627,0.520320,-0.327430,0.627875,-0.207708,0.704816,-0.071157,0.744911,0.000000,0.744911,0.000000,0.750000,0.500000,0.750000,0.500000,-0.750000,0.500000,-0.750000,
$1*%
%AMFreePoly1*
4,1,19,0.000000,0.744911,0.071157,0.744911,0.207708,0.704816,0.327430,0.627875,0.420627,0.520320,0.479746,0.390866,0.500000,0.250000,0.500000,-0.250000,0.479746,-0.390866,0.420627,-0.520320,0.327430,-0.627875,0.207708,-0.704816,0.071157,-0.744911,0.000000,-0.744911,0.000000,-0.750000,-0.500000,-0.750000,-0.500000,0.750000,0.000000,0.750000,0.000000,0.744911,0.000000,0.744911,
$1*%
G04 Aperture macros list end*
G04 #@! TA.AperFunction,ComponentPad*
%ADD10C,3.600000*%
G04 #@! TD*
G04 #@! TA.AperFunction,ConnectorPad*
%ADD11C,5.700000*%
G04 #@! TD*
G04 #@! TA.AperFunction,ComponentPad*
%ADD12R,2.600000X2.600000*%
G04 #@! TD*
G04 #@! TA.AperFunction,ComponentPad*
%ADD13C,2.600000*%
G04 #@! TD*
G04 #@! TA.AperFunction,ComponentPad*
%ADD14R,1.700000X1.700000*%
G04 #@! TD*
G04 #@! TA.AperFunction,ComponentPad*
%ADD15O,1.700000X1.700000*%
G04 #@! TD*
G04 #@! TA.AperFunction,SMDPad,CuDef*
%ADD16FreePoly0,180.000000*%
G04 #@! TD*
G04 #@! TA.AperFunction,SMDPad,CuDef*
%ADD17FreePoly1,180.000000*%
G04 #@! TD*
G04 #@! TA.AperFunction,SMDPad,CuDef*
%ADD18R,3.000000X3.000000*%
G04 #@! TD*
G04 #@! TA.AperFunction,SMDPad,CuDef*
%ADD19C,1.500000*%
G04 #@! TD*
G04 #@! TA.AperFunction,ViaPad*
%ADD20C,0.600000*%
G04 #@! TD*
G04 #@! TA.AperFunction,Conductor*
%ADD21C,0.400000*%
G04 #@! TD*
G04 #@! TA.AperFunction,Conductor*
%ADD22C,0.200000*%
G04 #@! TD*
G04 APERTURE END LIST*
D10*
X116500000Y-51500000D03*
D11*
X116500000Y-51500000D03*
D10*
X116500000Y-87000000D03*
D11*
X116500000Y-87000000D03*
D12*
X180550000Y-53050000D03*
D13*
X175550000Y-53050000D03*
X170550000Y-53050000D03*
D10*
X246500000Y-51500000D03*
D11*
X246500000Y-51500000D03*
D12*
X118000000Y-59000000D03*
D13*
X118000000Y-64000000D03*
X118000000Y-69000000D03*
X118000000Y-74000000D03*
X118000000Y-79000000D03*
D10*
X246500000Y-87000000D03*
D11*
X246500000Y-87000000D03*
D14*
X170000000Y-77000000D03*
D15*
X170000000Y-79540000D03*
X170000000Y-82080000D03*
X170000000Y-84620000D03*
D16*
X237300000Y-89500000D03*
D17*
X236000000Y-89500000D03*
D18*
X127750000Y-49750000D03*
X135750000Y-49750000D03*
D19*
X238500000Y-50500000D03*
D18*
X247500000Y-73250000D03*
X247500000Y-65250000D03*
D19*
X227000000Y-50500000D03*
D20*
X179950000Y-81144000D03*
X188250000Y-78150000D03*
X208250000Y-75000000D03*
X144000000Y-55400000D03*
X207200000Y-58800000D03*
X208700000Y-69700000D03*
X184500000Y-63600000D03*
X157000000Y-68600000D03*
X172500000Y-89800000D03*
X211646000Y-78800000D03*
X246900000Y-59400000D03*
X149000000Y-60800000D03*
X203600000Y-88400000D03*
X196000000Y-57100000D03*
X152800000Y-75800000D03*
X185150000Y-58950000D03*
X173600000Y-72600000D03*
X200850000Y-61600000D03*
X149600000Y-75800000D03*
X149400000Y-62200000D03*
X159200000Y-77200000D03*
X173050000Y-84550000D03*
X192550000Y-69600000D03*
X136600000Y-72000000D03*
X139000000Y-61800000D03*
X179400000Y-65800000D03*
X151000000Y-58400000D03*
X228000000Y-81600000D03*
X162800000Y-83000000D03*
X243650000Y-74750000D03*
X243500000Y-63100000D03*
X200500000Y-73400000D03*
X197200000Y-72250000D03*
X190150000Y-84600000D03*
X173000000Y-61250000D03*
X211000000Y-86600000D03*
X210400000Y-53550000D03*
X139800000Y-72000000D03*
X155000000Y-65000000D03*
X155000000Y-71000000D03*
X152600000Y-72800000D03*
X138800000Y-58000000D03*
X237200000Y-55100000D03*
X179200000Y-71200000D03*
X144600000Y-78200000D03*
X230100000Y-53600000D03*
X142000000Y-73200000D03*
X228800000Y-90378480D03*
X141400000Y-69000000D03*
X146600000Y-59000000D03*
X146600000Y-62200000D03*
X175025000Y-76675000D03*
X193900000Y-62700000D03*
X193850000Y-61450000D03*
X175368356Y-75918356D03*
X205200000Y-54300000D03*
X203300000Y-54200000D03*
X126500000Y-59750000D03*
X124250000Y-59250000D03*
X124250000Y-70250000D03*
X184500000Y-64600000D03*
X183350000Y-69250000D03*
X152625000Y-62775000D03*
X155800000Y-59600000D03*
X152200000Y-69800000D03*
X154400000Y-62400000D03*
X156800000Y-60000000D03*
X170550000Y-60200000D03*
X202227000Y-81400000D03*
X204400000Y-81800000D03*
X196500000Y-80600000D03*
X177100000Y-79600000D03*
X195100000Y-88000000D03*
X201173000Y-87500000D03*
X199279854Y-89020146D03*
X202273000Y-78700000D03*
X214100000Y-78500000D03*
X177273001Y-85913711D03*
X198900000Y-86500000D03*
X199200000Y-82900000D03*
X245600000Y-56200000D03*
D21*
X179950000Y-82350000D02*
X172500000Y-89800000D01*
X144000000Y-55400000D02*
X145400000Y-55400000D01*
X149000000Y-59000000D02*
X149000000Y-60800000D01*
X188400000Y-78150000D02*
X188250000Y-78150000D01*
X208700000Y-60300000D02*
X207200000Y-58800000D01*
X208250000Y-70150000D02*
X208250000Y-75000000D01*
X145400000Y-55400000D02*
X149000000Y-59000000D01*
X208700000Y-69700000D02*
X208700000Y-60300000D01*
X211646000Y-80354000D02*
X203600000Y-88400000D01*
X185300000Y-63600000D02*
X191800000Y-57100000D01*
X189250000Y-77300000D02*
X207504000Y-77300000D01*
X205500000Y-57100000D02*
X196000000Y-57100000D01*
X191800000Y-57100000D02*
X196000000Y-57100000D01*
X189250000Y-77300000D02*
X188400000Y-78150000D01*
X179950000Y-81144000D02*
X179950000Y-82350000D01*
X208700000Y-69700000D02*
X208250000Y-70150000D01*
X157000000Y-68600000D02*
X157000000Y-71600000D01*
X211646000Y-78800000D02*
X211646000Y-80354000D01*
X184500000Y-63600000D02*
X185300000Y-63600000D01*
X207200000Y-58800000D02*
X205500000Y-57100000D01*
X244500000Y-57000000D02*
X246900000Y-59400000D01*
X207504000Y-77300000D02*
X208250000Y-76554000D01*
X157000000Y-71600000D02*
X152800000Y-75800000D01*
X207200000Y-58800000D02*
X209000000Y-57000000D01*
X209000000Y-57000000D02*
X244500000Y-57000000D01*
X208250000Y-75000000D02*
X208250000Y-76554000D01*
D22*
X170000000Y-84620000D02*
X171380000Y-86000000D01*
X164850000Y-87150000D02*
X168050000Y-87150000D01*
X171380000Y-86000000D02*
X174000000Y-86000000D01*
X155000000Y-65000000D02*
X155000000Y-71000000D01*
X138800000Y-58000000D02*
X146400000Y-58000000D01*
X148473000Y-60073000D02*
X148473000Y-68673000D01*
X148473000Y-68673000D02*
X152600000Y-72800000D01*
X146400000Y-58000000D02*
X148473000Y-60073000D01*
D21*
X172200000Y-78200000D02*
X179200000Y-71200000D01*
X170000000Y-78200000D02*
X172200000Y-78200000D01*
X180550000Y-69850000D02*
X179200000Y-71200000D01*
X144600000Y-78200000D02*
X170000000Y-78200000D01*
X237200000Y-55100000D02*
X182600000Y-55100000D01*
X170000000Y-77000000D02*
X170000000Y-78200000D01*
X182600000Y-55100000D02*
X180550000Y-53050000D01*
X180550000Y-53050000D02*
X180550000Y-69850000D01*
X227000000Y-50500000D02*
X230100000Y-53600000D01*
X244786712Y-56400000D02*
X249400000Y-61013288D01*
X247500000Y-73250000D02*
X236000000Y-84750000D01*
X136077000Y-49423000D02*
X235361446Y-49423000D01*
X236000000Y-84750000D02*
X236000000Y-89500000D01*
X235361446Y-49423000D02*
X242338446Y-56400000D01*
X249400000Y-61013288D02*
X249400000Y-71350000D01*
X249400000Y-71350000D02*
X247500000Y-73250000D01*
X242338446Y-56400000D02*
X244786712Y-56400000D01*
X135750000Y-49750000D02*
X136077000Y-49423000D01*
D22*
X146600000Y-63800000D02*
X141400000Y-69000000D01*
X172386109Y-78677000D02*
X170446109Y-80617000D01*
X207707870Y-77700000D02*
X207680870Y-77727000D01*
X188523000Y-78677000D02*
X172386109Y-78677000D01*
X207680870Y-77727000D02*
X189473000Y-77727000D01*
X189473000Y-77727000D02*
X188523000Y-78677000D01*
X141400000Y-69000000D02*
X142000000Y-69600000D01*
X139700000Y-73200000D02*
X142000000Y-73200000D01*
X132283000Y-80617000D02*
X139700000Y-73200000D01*
X142000000Y-69600000D02*
X142000000Y-73200000D01*
X216121520Y-77700000D02*
X207707870Y-77700000D01*
X146600000Y-59000000D02*
X146600000Y-63800000D01*
X228800000Y-90378480D02*
X216121520Y-77700000D01*
X170446109Y-80617000D02*
X132283000Y-80617000D01*
X175025000Y-76675000D02*
X179075000Y-76675000D01*
X179075000Y-76675000D02*
X193050000Y-62700000D01*
X193050000Y-62700000D02*
X193900000Y-62700000D01*
X179369196Y-75918356D02*
X193837552Y-61450000D01*
X193837552Y-61450000D02*
X193850000Y-61450000D01*
X175368356Y-75918356D02*
X179369196Y-75918356D01*
X205200000Y-54300000D02*
X203400000Y-54300000D01*
X203400000Y-54300000D02*
X203300000Y-54200000D01*
X126000000Y-59250000D02*
X126500000Y-59750000D01*
X124250000Y-59250000D02*
X126000000Y-59250000D01*
X124250000Y-70250000D02*
X118000000Y-64000000D01*
X183350000Y-69250000D02*
X184500000Y-68100000D01*
X184500000Y-68100000D02*
X184500000Y-64600000D01*
X152625000Y-62775000D02*
X152200000Y-63200000D01*
X152200000Y-63200000D02*
X152200000Y-69800000D01*
X152625000Y-62775000D02*
X155800000Y-59600000D01*
X154400000Y-62400000D02*
X156800000Y-60000000D01*
X172000000Y-58750000D02*
X172000000Y-54500000D01*
X170550000Y-60200000D02*
X172000000Y-58750000D01*
X172000000Y-54500000D02*
X170550000Y-53050000D01*
X177100000Y-79600000D02*
X195500000Y-79600000D01*
X195500000Y-79600000D02*
X196500000Y-80600000D01*
X204400000Y-81800000D02*
X202627000Y-81800000D01*
X202627000Y-81800000D02*
X202227000Y-81400000D01*
X200673000Y-88000000D02*
X201173000Y-87500000D01*
X195100000Y-88000000D02*
X200673000Y-88000000D01*
X202273000Y-78700000D02*
X201700000Y-79273000D01*
X201700000Y-79273000D02*
X201700000Y-87945291D01*
X201700000Y-87945291D02*
X200625145Y-89020146D01*
X200625145Y-89020146D02*
X199279854Y-89020146D01*
X202127709Y-78100000D02*
X213700000Y-78100000D01*
X182059712Y-81127000D02*
X199100709Y-81127000D01*
X199100709Y-81127000D02*
X202127709Y-78100000D01*
X177273001Y-85913711D02*
X182059712Y-81127000D01*
X213700000Y-78100000D02*
X214100000Y-78500000D01*
X199200000Y-82900000D02*
X198900000Y-83200000D01*
X198900000Y-83200000D02*
X198900000Y-86500000D01*
D21*
X236896000Y-48896000D02*
X238500000Y-50500000D01*
X243523000Y-55873000D02*
X245273000Y-55873000D01*
X238500000Y-50850000D02*
X243523000Y-55873000D01*
X138550000Y-48896000D02*
X236896000Y-48896000D01*
X245273000Y-55873000D02*
X245600000Y-56200000D01*
X129577000Y-47923000D02*
X137577000Y-47923000D01*
X238500000Y-50500000D02*
X238500000Y-50850000D01*
X127750000Y-49750000D02*
X129577000Y-47923000D01*
X137577000Y-47923000D02*
X138550000Y-48896000D01*
G04 #@! TA.AperFunction,Conductor*
G36*
X133692539Y-48643185D02*
G01*
X133738294Y-48695989D01*
X133749500Y-48747500D01*
X133749500Y-51297870D01*
X133749501Y-51297876D01*
X133755908Y-51357483D01*
X133806202Y-51492328D01*
X133806206Y-51492335D01*
X133892452Y-51607544D01*
X133892455Y-51607547D01*
X134007664Y-51693793D01*
X134007671Y-51693797D01*
X134142517Y-51744091D01*
X134142516Y-51744091D01*
X134149444Y-51744835D01*
X134202127Y-51750500D01*
X137297872Y-51750499D01*
X137357483Y-51744091D01*
X137492331Y-51693796D01*
X137607546Y-51607546D01*
X137693796Y-51492331D01*
X137744091Y-51357483D01*
X137750500Y-51297873D01*
X137750500Y-50247500D01*
X137770185Y-50180461D01*
X137822989Y-50134706D01*
X137874500Y-50123500D01*
X165376000Y-50123500D01*
X165443039Y-50143185D01*
X165488794Y-50195989D01*
X165500000Y-50247500D01*
X165500000Y-77375500D01*
X165480315Y-77442539D01*
X165427511Y-77488294D01*
X165376000Y-77499500D01*
X145025494Y-77499500D01*
X144959523Y-77480494D01*
X144949525Y-77474212D01*
X144779254Y-77414631D01*
X144779249Y-77414630D01*
X144600004Y-77394435D01*
X144599996Y-77394435D01*
X144420750Y-77414630D01*
X144420745Y-77414631D01*
X144250476Y-77474211D01*
X144097737Y-77570184D01*
X143970184Y-77697737D01*
X143874211Y-77850476D01*
X143814631Y-78020745D01*
X143814630Y-78020750D01*
X143794435Y-78199996D01*
X143794435Y-78200003D01*
X143814630Y-78379249D01*
X143814631Y-78379254D01*
X143874211Y-78549523D01*
X143896911Y-78585649D01*
X143970184Y-78702262D01*
X144097738Y-78829816D01*
X144167388Y-78873580D01*
X144250474Y-78925787D01*
X144250478Y-78925789D01*
X144385368Y-78972989D01*
X144420745Y-78985368D01*
X144420750Y-78985369D01*
X144599996Y-79005565D01*
X144600000Y-79005565D01*
X144600004Y-79005565D01*
X144779249Y-78985369D01*
X144779252Y-78985368D01*
X144779255Y-78985368D01*
X144949522Y-78925789D01*
X144950488Y-78925181D01*
X144959523Y-78919506D01*
X145025494Y-78900500D01*
X165376000Y-78900500D01*
X165443039Y-78920185D01*
X165488794Y-78972989D01*
X165500000Y-79024500D01*
X165500000Y-79892500D01*
X165480315Y-79959539D01*
X165427511Y-80005294D01*
X165376000Y-80016500D01*
X134032097Y-80016500D01*
X133965058Y-79996815D01*
X133919303Y-79944011D01*
X133909359Y-79874853D01*
X133938384Y-79811297D01*
X133944416Y-79804819D01*
X137949239Y-75799996D01*
X151994435Y-75799996D01*
X151994435Y-75800003D01*
X152014630Y-75979249D01*
X152014631Y-75979254D01*
X152074211Y-76149523D01*
X152170184Y-76302262D01*
X152297738Y-76429816D01*
X152450478Y-76525789D01*
X152620745Y-76585368D01*
X152620750Y-76585369D01*
X152799996Y-76605565D01*
X152800000Y-76605565D01*
X152800004Y-76605565D01*
X152979249Y-76585369D01*
X152979252Y-76585368D01*
X152979255Y-76585368D01*
X153149522Y-76525789D01*
X153302262Y-76429816D01*
X153429816Y-76302262D01*
X153525789Y-76149522D01*
X153562007Y-76046013D01*
X153591365Y-75999290D01*
X157544114Y-72046543D01*
X157620775Y-71931811D01*
X157673580Y-71804328D01*
X157700500Y-71668994D01*
X157700500Y-71531006D01*
X157700500Y-69025493D01*
X157719508Y-68959519D01*
X157725787Y-68949525D01*
X157725786Y-68949525D01*
X157725789Y-68949522D01*
X157785368Y-68779255D01*
X157785369Y-68779249D01*
X157805565Y-68600003D01*
X157805565Y-68599996D01*
X157785369Y-68420750D01*
X157785368Y-68420745D01*
X157767676Y-68370184D01*
X157725789Y-68250478D01*
X157704501Y-68216599D01*
X157629815Y-68097737D01*
X157502262Y-67970184D01*
X157349523Y-67874211D01*
X157179254Y-67814631D01*
X157179249Y-67814630D01*
X157000004Y-67794435D01*
X156999996Y-67794435D01*
X156820750Y-67814630D01*
X156820745Y-67814631D01*
X156650476Y-67874211D01*
X156497737Y-67970184D01*
X156370184Y-68097737D01*
X156274211Y-68250476D01*
X156214631Y-68420745D01*
X156214630Y-68420750D01*
X156194435Y-68599996D01*
X156194435Y-68600003D01*
X156214630Y-68779249D01*
X156214631Y-68779254D01*
X156274212Y-68949525D01*
X156280492Y-68959519D01*
X156299500Y-69025493D01*
X156299500Y-71258480D01*
X156279815Y-71325519D01*
X156263181Y-71346161D01*
X152600709Y-75008632D01*
X152553984Y-75037992D01*
X152450476Y-75074211D01*
X152450475Y-75074212D01*
X152297737Y-75170184D01*
X152170184Y-75297737D01*
X152074211Y-75450476D01*
X152014631Y-75620745D01*
X152014630Y-75620750D01*
X151994435Y-75799996D01*
X137949239Y-75799996D01*
X139912416Y-73836819D01*
X139973739Y-73803334D01*
X140000097Y-73800500D01*
X141417588Y-73800500D01*
X141484627Y-73820185D01*
X141494903Y-73827555D01*
X141497736Y-73829814D01*
X141497738Y-73829816D01*
X141650478Y-73925789D01*
X141820745Y-73985368D01*
X141820750Y-73985369D01*
X141999996Y-74005565D01*
X142000000Y-74005565D01*
X142000004Y-74005565D01*
X142179249Y-73985369D01*
X142179252Y-73985368D01*
X142179255Y-73985368D01*
X142349522Y-73925789D01*
X142502262Y-73829816D01*
X142629816Y-73702262D01*
X142725789Y-73549522D01*
X142785368Y-73379255D01*
X142794043Y-73302262D01*
X142805565Y-73200003D01*
X142805565Y-73199996D01*
X142785369Y-73020750D01*
X142785368Y-73020745D01*
X142770848Y-72979249D01*
X142725789Y-72850478D01*
X142724995Y-72849215D01*
X142692645Y-72797730D01*
X142629816Y-72697738D01*
X142629814Y-72697736D01*
X142629813Y-72697734D01*
X142627550Y-72694896D01*
X142626659Y-72692715D01*
X142626111Y-72691842D01*
X142626264Y-72691745D01*
X142601144Y-72630209D01*
X142600500Y-72617587D01*
X142600500Y-69520944D01*
X142600500Y-69520943D01*
X142593676Y-69495477D01*
X142559577Y-69368215D01*
X142502531Y-69269409D01*
X142480520Y-69231284D01*
X142368716Y-69119480D01*
X142368715Y-69119479D01*
X142364385Y-69115149D01*
X142364374Y-69115139D01*
X142336916Y-69087681D01*
X142303431Y-69026358D01*
X142308415Y-68956666D01*
X142336916Y-68912319D01*
X144049735Y-67199500D01*
X147080520Y-64168716D01*
X147159577Y-64031784D01*
X147200501Y-63879057D01*
X147200501Y-63720942D01*
X147200501Y-63713347D01*
X147200500Y-63713329D01*
X147200500Y-62782412D01*
X147220185Y-62715373D01*
X147227555Y-62705097D01*
X147229810Y-62702267D01*
X147229816Y-62702262D01*
X147325789Y-62549522D01*
X147385368Y-62379255D01*
X147385369Y-62379249D01*
X147405565Y-62200003D01*
X147405565Y-62199996D01*
X147385369Y-62020750D01*
X147385368Y-62020745D01*
X147325788Y-61850476D01*
X147229813Y-61697734D01*
X147227550Y-61694896D01*
X147226659Y-61692715D01*
X147226111Y-61691842D01*
X147226264Y-61691745D01*
X147201144Y-61630209D01*
X147200500Y-61617587D01*
X147200500Y-59949097D01*
X147220185Y-59882058D01*
X147272989Y-59836303D01*
X147342147Y-59826359D01*
X147405703Y-59855384D01*
X147412181Y-59861416D01*
X147836181Y-60285416D01*
X147869666Y-60346739D01*
X147872500Y-60373097D01*
X147872500Y-68586330D01*
X147872499Y-68586348D01*
X147872499Y-68752054D01*
X147872498Y-68752054D01*
X147913423Y-68904785D01*
X147916119Y-68909454D01*
X147916122Y-68909460D01*
X147992477Y-69041712D01*
X147992481Y-69041717D01*
X148111349Y-69160585D01*
X148111355Y-69160590D01*
X151769298Y-72818533D01*
X151802783Y-72879856D01*
X151804837Y-72892330D01*
X151814630Y-72979249D01*
X151874210Y-73149521D01*
X151905926Y-73199996D01*
X151970184Y-73302262D01*
X152097738Y-73429816D01*
X152250478Y-73525789D01*
X152318306Y-73549523D01*
X152420745Y-73585368D01*
X152420750Y-73585369D01*
X152599996Y-73605565D01*
X152600000Y-73605565D01*
X152600004Y-73605565D01*
X152779249Y-73585369D01*
X152779252Y-73585368D01*
X152779255Y-73585368D01*
X152949522Y-73525789D01*
X153102262Y-73429816D01*
X153229816Y-73302262D01*
X153325789Y-73149522D01*
X153385368Y-72979255D01*
X153395162Y-72892330D01*
X153405565Y-72800003D01*
X153405565Y-72799996D01*
X153385369Y-72620750D01*
X153385368Y-72620745D01*
X153374013Y-72588294D01*
X153325789Y-72450478D01*
X153229816Y-72297738D01*
X153102262Y-72170184D01*
X152949521Y-72074210D01*
X152779249Y-72014630D01*
X152692330Y-72004837D01*
X152627916Y-71977770D01*
X152618533Y-71969298D01*
X150449231Y-69799996D01*
X151394435Y-69799996D01*
X151394435Y-69800003D01*
X151414630Y-69979249D01*
X151414631Y-69979254D01*
X151474211Y-70149523D01*
X151537347Y-70250003D01*
X151570184Y-70302262D01*
X151697738Y-70429816D01*
X151850478Y-70525789D01*
X151958687Y-70563653D01*
X152020745Y-70585368D01*
X152020750Y-70585369D01*
X152199996Y-70605565D01*
X152200000Y-70605565D01*
X152200004Y-70605565D01*
X152379249Y-70585369D01*
X152379252Y-70585368D01*
X152379255Y-70585368D01*
X152549522Y-70525789D01*
X152702262Y-70429816D01*
X152829816Y-70302262D01*
X152925789Y-70149522D01*
X152985368Y-69979255D01*
X152994244Y-69900478D01*
X153005565Y-69800003D01*
X153005565Y-69799996D01*
X152985369Y-69620750D01*
X152985368Y-69620745D01*
X152954383Y-69532195D01*
X152925789Y-69450478D01*
X152829816Y-69297738D01*
X152829814Y-69297736D01*
X152829813Y-69297734D01*
X152827550Y-69294896D01*
X152826659Y-69292715D01*
X152826111Y-69291842D01*
X152826264Y-69291745D01*
X152801144Y-69230209D01*
X152800500Y-69217587D01*
X152800500Y-64999996D01*
X154194435Y-64999996D01*
X154194435Y-65000003D01*
X154214630Y-65179249D01*
X154214631Y-65179254D01*
X154274211Y-65349523D01*
X154370185Y-65502263D01*
X154372445Y-65505097D01*
X154373334Y-65507275D01*
X154373889Y-65508158D01*
X154373734Y-65508255D01*
X154398855Y-65569783D01*
X154399500Y-65582412D01*
X154399500Y-70417587D01*
X154379815Y-70484626D01*
X154372450Y-70494896D01*
X154370186Y-70497734D01*
X154274211Y-70650476D01*
X154214631Y-70820745D01*
X154214630Y-70820750D01*
X154194435Y-70999996D01*
X154194435Y-71000003D01*
X154214630Y-71179249D01*
X154214631Y-71179254D01*
X154274211Y-71349523D01*
X154370184Y-71502262D01*
X154497738Y-71629816D01*
X154650478Y-71725789D01*
X154820745Y-71785368D01*
X154820750Y-71785369D01*
X154999996Y-71805565D01*
X155000000Y-71805565D01*
X155000004Y-71805565D01*
X155179249Y-71785369D01*
X155179252Y-71785368D01*
X155179255Y-71785368D01*
X155349522Y-71725789D01*
X155502262Y-71629816D01*
X155629816Y-71502262D01*
X155725789Y-71349522D01*
X155785368Y-71179255D01*
X155785369Y-71179249D01*
X155805565Y-71000003D01*
X155805565Y-70999996D01*
X155785369Y-70820750D01*
X155785368Y-70820745D01*
X155736377Y-70680737D01*
X155725789Y-70650478D01*
X155629816Y-70497738D01*
X155629814Y-70497736D01*
X155629813Y-70497734D01*
X155627550Y-70494896D01*
X155626659Y-70492715D01*
X155626111Y-70491842D01*
X155626264Y-70491745D01*
X155601144Y-70430209D01*
X155600500Y-70417587D01*
X155600500Y-65582412D01*
X155620185Y-65515373D01*
X155627555Y-65505097D01*
X155629810Y-65502267D01*
X155629816Y-65502262D01*
X155725789Y-65349522D01*
X155785368Y-65179255D01*
X155803638Y-65017102D01*
X155805565Y-65000003D01*
X155805565Y-64999996D01*
X155785369Y-64820750D01*
X155785368Y-64820745D01*
X155725788Y-64650476D01*
X155629815Y-64497737D01*
X155502262Y-64370184D01*
X155349523Y-64274211D01*
X155179254Y-64214631D01*
X155179249Y-64214630D01*
X155000004Y-64194435D01*
X154999996Y-64194435D01*
X154820750Y-64214630D01*
X154820745Y-64214631D01*
X154650476Y-64274211D01*
X154497737Y-64370184D01*
X154370184Y-64497737D01*
X154274211Y-64650476D01*
X154214631Y-64820745D01*
X154214630Y-64820750D01*
X154194435Y-64999996D01*
X152800500Y-64999996D01*
X152800500Y-63649665D01*
X152820185Y-63582626D01*
X152872989Y-63536871D01*
X152883546Y-63532623D01*
X152906897Y-63524451D01*
X152974522Y-63500789D01*
X153127262Y-63404816D01*
X153254816Y-63277262D01*
X153350789Y-63124522D01*
X153410368Y-62954255D01*
X153420161Y-62867329D01*
X153447226Y-62802918D01*
X153455690Y-62793543D01*
X153496928Y-62752305D01*
X153558249Y-62718822D01*
X153627941Y-62723806D01*
X153683874Y-62765678D01*
X153689600Y-62774015D01*
X153770182Y-62902260D01*
X153770183Y-62902261D01*
X153770184Y-62902262D01*
X153897738Y-63029816D01*
X153988080Y-63086582D01*
X154048461Y-63124522D01*
X154050478Y-63125789D01*
X154220745Y-63185368D01*
X154220750Y-63185369D01*
X154399996Y-63205565D01*
X154400000Y-63205565D01*
X154400004Y-63205565D01*
X154579249Y-63185369D01*
X154579252Y-63185368D01*
X154579255Y-63185368D01*
X154749522Y-63125789D01*
X154902262Y-63029816D01*
X155029816Y-62902262D01*
X155125789Y-62749522D01*
X155185368Y-62579255D01*
X155195161Y-62492329D01*
X155222226Y-62427918D01*
X155230690Y-62418543D01*
X156818536Y-60830698D01*
X156879857Y-60797215D01*
X156892310Y-60795163D01*
X156979255Y-60785368D01*
X157149522Y-60725789D01*
X157302262Y-60629816D01*
X157429816Y-60502262D01*
X157525789Y-60349522D01*
X157585368Y-60179255D01*
X157594352Y-60099522D01*
X157605565Y-60000003D01*
X157605565Y-59999996D01*
X157585369Y-59820750D01*
X157585368Y-59820745D01*
X157525788Y-59650476D01*
X157476529Y-59572082D01*
X157429816Y-59497738D01*
X157302262Y-59370184D01*
X157269379Y-59349522D01*
X157149523Y-59274211D01*
X156979254Y-59214631D01*
X156979249Y-59214630D01*
X156800004Y-59194435D01*
X156799996Y-59194435D01*
X156620746Y-59214631D01*
X156620742Y-59214632D01*
X156617767Y-59215673D01*
X156615726Y-59215777D01*
X156613956Y-59216181D01*
X156613885Y-59215870D01*
X156547988Y-59219229D01*
X156487363Y-59184495D01*
X156471828Y-59164600D01*
X156429816Y-59097738D01*
X156302262Y-58970184D01*
X156293423Y-58964630D01*
X156149523Y-58874211D01*
X155979254Y-58814631D01*
X155979249Y-58814630D01*
X155800004Y-58794435D01*
X155799996Y-58794435D01*
X155620750Y-58814630D01*
X155620745Y-58814631D01*
X155450476Y-58874211D01*
X155297737Y-58970184D01*
X155170184Y-59097737D01*
X155074210Y-59250478D01*
X155014630Y-59420750D01*
X155004837Y-59507668D01*
X154977770Y-59572082D01*
X154969298Y-59581465D01*
X152606465Y-61944298D01*
X152545142Y-61977783D01*
X152532668Y-61979837D01*
X152445750Y-61989630D01*
X152275478Y-62049210D01*
X152122737Y-62145184D01*
X151995184Y-62272737D01*
X151899210Y-62425478D01*
X151839630Y-62595750D01*
X151829837Y-62682666D01*
X151802770Y-62747080D01*
X151794300Y-62756462D01*
X151719478Y-62831286D01*
X151719475Y-62831290D01*
X151678501Y-62902261D01*
X151678501Y-62902262D01*
X151640423Y-62968215D01*
X151599499Y-63120943D01*
X151599499Y-63120945D01*
X151599499Y-63289046D01*
X151599500Y-63289059D01*
X151599500Y-69217587D01*
X151579815Y-69284626D01*
X151572450Y-69294896D01*
X151570186Y-69297734D01*
X151474211Y-69450476D01*
X151414631Y-69620745D01*
X151414630Y-69620750D01*
X151394435Y-69799996D01*
X150449231Y-69799996D01*
X149109819Y-68460584D01*
X149076334Y-68399261D01*
X149073500Y-68372903D01*
X149073500Y-61708097D01*
X149093185Y-61641058D01*
X149145989Y-61595303D01*
X149172691Y-61587905D01*
X149172466Y-61586918D01*
X149179251Y-61585369D01*
X149179253Y-61585368D01*
X149179255Y-61585368D01*
X149349522Y-61525789D01*
X149502262Y-61429816D01*
X149629816Y-61302262D01*
X149725789Y-61149522D01*
X149785368Y-60979255D01*
X149805565Y-60800000D01*
X149805251Y-60797215D01*
X149785369Y-60620750D01*
X149785366Y-60620737D01*
X149725790Y-60450479D01*
X149719506Y-60440478D01*
X149700500Y-60374507D01*
X149700500Y-58931006D01*
X149694427Y-58900479D01*
X149694427Y-58900476D01*
X149678567Y-58820745D01*
X149673580Y-58795672D01*
X149669312Y-58785368D01*
X149620777Y-58668192D01*
X149544112Y-58553454D01*
X145846545Y-54855887D01*
X145731807Y-54779222D01*
X145604332Y-54726421D01*
X145604322Y-54726418D01*
X145468996Y-54699500D01*
X145468994Y-54699500D01*
X145468993Y-54699500D01*
X144425494Y-54699500D01*
X144359523Y-54680494D01*
X144349525Y-54674212D01*
X144179254Y-54614631D01*
X144179249Y-54614630D01*
X144000004Y-54594435D01*
X143999996Y-54594435D01*
X143820750Y-54614630D01*
X143820745Y-54614631D01*
X143650476Y-54674211D01*
X143497737Y-54770184D01*
X143370184Y-54897737D01*
X143274211Y-55050476D01*
X143214631Y-55220745D01*
X143214630Y-55220750D01*
X143194435Y-55399996D01*
X143194435Y-55400003D01*
X143214630Y-55579249D01*
X143214631Y-55579254D01*
X143274211Y-55749523D01*
X143370184Y-55902262D01*
X143497738Y-56029816D01*
X143588080Y-56086582D01*
X143650474Y-56125787D01*
X143650478Y-56125789D01*
X143820745Y-56185368D01*
X143820750Y-56185369D01*
X143999996Y-56205565D01*
X144000000Y-56205565D01*
X144000004Y-56205565D01*
X144179249Y-56185369D01*
X144179252Y-56185368D01*
X144179255Y-56185368D01*
X144349522Y-56125789D01*
X144350488Y-56125181D01*
X144359523Y-56119506D01*
X144425494Y-56100500D01*
X145058481Y-56100500D01*
X145125520Y-56120185D01*
X145146162Y-56136819D01*
X146197162Y-57187819D01*
X146230647Y-57249142D01*
X146225663Y-57318834D01*
X146183791Y-57374767D01*
X146118327Y-57399184D01*
X146109481Y-57399500D01*
X139382412Y-57399500D01*
X139315373Y-57379815D01*
X139305097Y-57372445D01*
X139302263Y-57370185D01*
X139302262Y-57370184D01*
X139220539Y-57318834D01*
X139149523Y-57274211D01*
X138979254Y-57214631D01*
X138979249Y-57214630D01*
X138800004Y-57194435D01*
X138799996Y-57194435D01*
X138620750Y-57214630D01*
X138620745Y-57214631D01*
X138450476Y-57274211D01*
X138297737Y-57370184D01*
X138170184Y-57497737D01*
X138074211Y-57650476D01*
X138014631Y-57820745D01*
X138014630Y-57820750D01*
X137994435Y-57999996D01*
X137994435Y-58000003D01*
X138014630Y-58179249D01*
X138014631Y-58179254D01*
X138074211Y-58349523D01*
X138133849Y-58444435D01*
X138170184Y-58502262D01*
X138297738Y-58629816D01*
X138450478Y-58725789D01*
X138575340Y-58769480D01*
X138620745Y-58785368D01*
X138620750Y-58785369D01*
X138799996Y-58805565D01*
X138800000Y-58805565D01*
X138800004Y-58805565D01*
X138979249Y-58785369D01*
X138979252Y-58785368D01*
X138979255Y-58785368D01*
X139149522Y-58725789D01*
X139302262Y-58629816D01*
X139302267Y-58629810D01*
X139305097Y-58627555D01*
X139307275Y-58626665D01*
X139308158Y-58626111D01*
X139308255Y-58626265D01*
X139369783Y-58601145D01*
X139382412Y-58600500D01*
X145716937Y-58600500D01*
X145783976Y-58620185D01*
X145829731Y-58672989D01*
X145839675Y-58742147D01*
X145833978Y-58765455D01*
X145814633Y-58820737D01*
X145814630Y-58820750D01*
X145794435Y-58999996D01*
X145794435Y-59000003D01*
X145814630Y-59179249D01*
X145814631Y-59179254D01*
X145874211Y-59349523D01*
X145924307Y-59429249D01*
X145967341Y-59497738D01*
X145970185Y-59502263D01*
X145972445Y-59505097D01*
X145973334Y-59507275D01*
X145973889Y-59508158D01*
X145973734Y-59508255D01*
X145998855Y-59569783D01*
X145999500Y-59582412D01*
X145999500Y-61617587D01*
X145979815Y-61684626D01*
X145972450Y-61694896D01*
X145970186Y-61697734D01*
X145874211Y-61850476D01*
X145814631Y-62020745D01*
X145814630Y-62020750D01*
X145794435Y-62199996D01*
X145794435Y-62200003D01*
X145814630Y-62379249D01*
X145814631Y-62379254D01*
X145874211Y-62549523D01*
X145970185Y-62702263D01*
X145972445Y-62705097D01*
X145973334Y-62707275D01*
X145973889Y-62708158D01*
X145973734Y-62708255D01*
X145998855Y-62769783D01*
X145999500Y-62782412D01*
X145999500Y-63499902D01*
X145979815Y-63566941D01*
X145963181Y-63587583D01*
X141381465Y-68169298D01*
X141320142Y-68202783D01*
X141307668Y-68204837D01*
X141220750Y-68214630D01*
X141050478Y-68274210D01*
X140897737Y-68370184D01*
X140770184Y-68497737D01*
X140674211Y-68650476D01*
X140614631Y-68820745D01*
X140614630Y-68820750D01*
X140594435Y-68999996D01*
X140594435Y-69000003D01*
X140614630Y-69179249D01*
X140614631Y-69179254D01*
X140674211Y-69349523D01*
X140737646Y-69450478D01*
X140770184Y-69502262D01*
X140897738Y-69629816D01*
X141050478Y-69725789D01*
X141220745Y-69785368D01*
X141289384Y-69793101D01*
X141353796Y-69820166D01*
X141393352Y-69877760D01*
X141399500Y-69916321D01*
X141399500Y-72475500D01*
X141379815Y-72542539D01*
X141327011Y-72588294D01*
X141275500Y-72599500D01*
X139786669Y-72599500D01*
X139786653Y-72599499D01*
X139779057Y-72599499D01*
X139620943Y-72599499D01*
X139513587Y-72628265D01*
X139468210Y-72640424D01*
X139468209Y-72640425D01*
X139433066Y-72660716D01*
X139433064Y-72660717D01*
X139331290Y-72719475D01*
X139331282Y-72719481D01*
X131802481Y-80248282D01*
X131802479Y-80248285D01*
X131752361Y-80335094D01*
X131752359Y-80335096D01*
X131723425Y-80385209D01*
X131723424Y-80385210D01*
X131709091Y-80438702D01*
X131682499Y-80537943D01*
X131682499Y-80537945D01*
X131682499Y-80696054D01*
X131682498Y-80696054D01*
X131723423Y-80848785D01*
X131752358Y-80898900D01*
X131752359Y-80898904D01*
X131752360Y-80898904D01*
X131802479Y-80985714D01*
X131802481Y-80985717D01*
X131914284Y-81097520D01*
X132001095Y-81147639D01*
X132001097Y-81147641D01*
X132039151Y-81169611D01*
X132051215Y-81176577D01*
X132203943Y-81217501D01*
X132203946Y-81217501D01*
X132369653Y-81217501D01*
X132369669Y-81217500D01*
X165376000Y-81217500D01*
X165443039Y-81237185D01*
X165488794Y-81289989D01*
X165500000Y-81341500D01*
X165500000Y-89376000D01*
X165480315Y-89443039D01*
X165427511Y-89488794D01*
X165376000Y-89500000D01*
X126124000Y-89500000D01*
X126056961Y-89480315D01*
X126011206Y-89427511D01*
X126000000Y-89376000D01*
X126000000Y-82000000D01*
X115124000Y-82000000D01*
X115056961Y-81980315D01*
X115011206Y-81927511D01*
X115000000Y-81876000D01*
X115000000Y-78999995D01*
X116194953Y-78999995D01*
X116194953Y-79000004D01*
X116215113Y-79269026D01*
X116215113Y-79269028D01*
X116275142Y-79532033D01*
X116275148Y-79532052D01*
X116373709Y-79783181D01*
X116373708Y-79783181D01*
X116508602Y-80016822D01*
X116562294Y-80084151D01*
X116562295Y-80084151D01*
X117398958Y-79247488D01*
X117423978Y-79307890D01*
X117495112Y-79414351D01*
X117585649Y-79504888D01*
X117692110Y-79576022D01*
X117752510Y-79601041D01*
X116914848Y-80438702D01*
X117097483Y-80563220D01*
X117097485Y-80563221D01*
X117340539Y-80680269D01*
X117340537Y-80680269D01*
X117598337Y-80759790D01*
X117598343Y-80759792D01*
X117865101Y-80799999D01*
X117865110Y-80800000D01*
X118134890Y-80800000D01*
X118134898Y-80799999D01*
X118401656Y-80759792D01*
X118401662Y-80759790D01*
X118659461Y-80680269D01*
X118902521Y-80563218D01*
X119085150Y-80438702D01*
X118247488Y-79601041D01*
X118307890Y-79576022D01*
X118414351Y-79504888D01*
X118504888Y-79414351D01*
X118576022Y-79307890D01*
X118601041Y-79247488D01*
X119437703Y-80084151D01*
X119437704Y-80084150D01*
X119491393Y-80016828D01*
X119491400Y-80016817D01*
X119626290Y-79783181D01*
X119724851Y-79532052D01*
X119724857Y-79532033D01*
X119784886Y-79269028D01*
X119784886Y-79269026D01*
X119805047Y-79000004D01*
X119805047Y-78999995D01*
X119784886Y-78730973D01*
X119784886Y-78730971D01*
X119724857Y-78467966D01*
X119724851Y-78467947D01*
X119626290Y-78216818D01*
X119626291Y-78216818D01*
X119491397Y-77983177D01*
X119437704Y-77915847D01*
X118601041Y-78752510D01*
X118576022Y-78692110D01*
X118504888Y-78585649D01*
X118414351Y-78495112D01*
X118307890Y-78423978D01*
X118247488Y-78398958D01*
X119085150Y-77561296D01*
X118902517Y-77436779D01*
X118902516Y-77436778D01*
X118659460Y-77319730D01*
X118659462Y-77319730D01*
X118401662Y-77240209D01*
X118401656Y-77240207D01*
X118134898Y-77200000D01*
X117865101Y-77200000D01*
X117598343Y-77240207D01*
X117598337Y-77240209D01*
X117340538Y-77319730D01*
X117097485Y-77436778D01*
X117097476Y-77436783D01*
X116914848Y-77561296D01*
X117752511Y-78398958D01*
X117692110Y-78423978D01*
X117585649Y-78495112D01*
X117495112Y-78585649D01*
X117423978Y-78692110D01*
X117398958Y-78752511D01*
X116562295Y-77915848D01*
X116508600Y-77983180D01*
X116373709Y-78216818D01*
X116275148Y-78467947D01*
X116275142Y-78467966D01*
X116215113Y-78730971D01*
X116215113Y-78730973D01*
X116194953Y-78999995D01*
X115000000Y-78999995D01*
X115000000Y-73999995D01*
X116194451Y-73999995D01*
X116194451Y-74000004D01*
X116214616Y-74269101D01*
X116274664Y-74532188D01*
X116274666Y-74532195D01*
X116373257Y-74783398D01*
X116508185Y-75017102D01*
X116553729Y-75074212D01*
X116676442Y-75228089D01*
X116863183Y-75401358D01*
X116874259Y-75411635D01*
X117097226Y-75563651D01*
X117340359Y-75680738D01*
X117598228Y-75760280D01*
X117598229Y-75760280D01*
X117598232Y-75760281D01*
X117865063Y-75800499D01*
X117865068Y-75800499D01*
X117865071Y-75800500D01*
X117865072Y-75800500D01*
X118134928Y-75800500D01*
X118134929Y-75800500D01*
X118134936Y-75800499D01*
X118401767Y-75760281D01*
X118401768Y-75760280D01*
X118401772Y-75760280D01*
X118659641Y-75680738D01*
X118902775Y-75563651D01*
X119125741Y-75411635D01*
X119323561Y-75228085D01*
X119491815Y-75017102D01*
X119626743Y-74783398D01*
X119725334Y-74532195D01*
X119785383Y-74269103D01*
X119805549Y-74000000D01*
X119785383Y-73730897D01*
X119725334Y-73467805D01*
X119626743Y-73216602D01*
X119491815Y-72982898D01*
X119323561Y-72771915D01*
X119323560Y-72771914D01*
X119323557Y-72771910D01*
X119125741Y-72588365D01*
X119125637Y-72588294D01*
X118902775Y-72436349D01*
X118902769Y-72436346D01*
X118902768Y-72436345D01*
X118902767Y-72436344D01*
X118659643Y-72319263D01*
X118659645Y-72319263D01*
X118401773Y-72239720D01*
X118401767Y-72239718D01*
X118134936Y-72199500D01*
X118134929Y-72199500D01*
X117865071Y-72199500D01*
X117865063Y-72199500D01*
X117598232Y-72239718D01*
X117598226Y-72239720D01*
X117340358Y-72319262D01*
X117097230Y-72436346D01*
X116874258Y-72588365D01*
X116676442Y-72771910D01*
X116508185Y-72982898D01*
X116373258Y-73216599D01*
X116373256Y-73216603D01*
X116274666Y-73467804D01*
X116274664Y-73467811D01*
X116214616Y-73730898D01*
X116194451Y-73999995D01*
X115000000Y-73999995D01*
X115000000Y-68999995D01*
X116194451Y-68999995D01*
X116194451Y-69000004D01*
X116214616Y-69269101D01*
X116274664Y-69532188D01*
X116274666Y-69532195D01*
X116309199Y-69620184D01*
X116373257Y-69783398D01*
X116508185Y-70017102D01*
X116613787Y-70149522D01*
X116676442Y-70228089D01*
X116786123Y-70329857D01*
X116874259Y-70411635D01*
X117097226Y-70563651D01*
X117340359Y-70680738D01*
X117598228Y-70760280D01*
X117598229Y-70760280D01*
X117598232Y-70760281D01*
X117865063Y-70800499D01*
X117865068Y-70800499D01*
X117865071Y-70800500D01*
X117865072Y-70800500D01*
X118134928Y-70800500D01*
X118134929Y-70800500D01*
X118134936Y-70800499D01*
X118401767Y-70760281D01*
X118401768Y-70760280D01*
X118401772Y-70760280D01*
X118659641Y-70680738D01*
X118902775Y-70563651D01*
X119125741Y-70411635D01*
X119323561Y-70228085D01*
X119491815Y-70017102D01*
X119626743Y-69783398D01*
X119725334Y-69532195D01*
X119785383Y-69269103D01*
X119793515Y-69160585D01*
X119805549Y-69000004D01*
X119805549Y-68999995D01*
X119785383Y-68730898D01*
X119755507Y-68600003D01*
X119725334Y-68467805D01*
X119626743Y-68216602D01*
X119491815Y-67982898D01*
X119323561Y-67771915D01*
X119323560Y-67771914D01*
X119323557Y-67771910D01*
X119125741Y-67588365D01*
X118902775Y-67436349D01*
X118902769Y-67436346D01*
X118902768Y-67436345D01*
X118902767Y-67436344D01*
X118659643Y-67319263D01*
X118659645Y-67319263D01*
X118401773Y-67239720D01*
X118401767Y-67239718D01*
X118134936Y-67199500D01*
X118134929Y-67199500D01*
X117865071Y-67199500D01*
X117865063Y-67199500D01*
X117598232Y-67239718D01*
X117598226Y-67239720D01*
X117340358Y-67319262D01*
X117097230Y-67436346D01*
X116874258Y-67588365D01*
X116676442Y-67771910D01*
X116508185Y-67982898D01*
X116373258Y-68216599D01*
X116373256Y-68216603D01*
X116274666Y-68467804D01*
X116274664Y-68467811D01*
X116214616Y-68730898D01*
X116194451Y-68999995D01*
X115000000Y-68999995D01*
X115000000Y-63999995D01*
X116194451Y-63999995D01*
X116194451Y-64000004D01*
X116214616Y-64269101D01*
X116237688Y-64370184D01*
X116274666Y-64532195D01*
X116373257Y-64783398D01*
X116508185Y-65017102D01*
X116637493Y-65179249D01*
X116676442Y-65228089D01*
X116807317Y-65349522D01*
X116874259Y-65411635D01*
X117097226Y-65563651D01*
X117340359Y-65680738D01*
X117598228Y-65760280D01*
X117598229Y-65760280D01*
X117598232Y-65760281D01*
X117865063Y-65800499D01*
X117865068Y-65800499D01*
X117865071Y-65800500D01*
X117865072Y-65800500D01*
X118134928Y-65800500D01*
X118134929Y-65800500D01*
X118134936Y-65800499D01*
X118401767Y-65760281D01*
X118401768Y-65760280D01*
X118401772Y-65760280D01*
X118659641Y-65680738D01*
X118696370Y-65663049D01*
X118765309Y-65651696D01*
X118829444Y-65679417D01*
X118837852Y-65687087D01*
X121133662Y-67982898D01*
X123419298Y-70268534D01*
X123452783Y-70329857D01*
X123454837Y-70342331D01*
X123464630Y-70429249D01*
X123524210Y-70599521D01*
X123556229Y-70650478D01*
X123620184Y-70752262D01*
X123747738Y-70879816D01*
X123900478Y-70975789D01*
X123969678Y-71000003D01*
X124070745Y-71035368D01*
X124070750Y-71035369D01*
X124249996Y-71055565D01*
X124250000Y-71055565D01*
X124250004Y-71055565D01*
X124429249Y-71035369D01*
X124429252Y-71035368D01*
X124429255Y-71035368D01*
X124599522Y-70975789D01*
X124752262Y-70879816D01*
X124879816Y-70752262D01*
X124975789Y-70599522D01*
X125035368Y-70429255D01*
X125036683Y-70417587D01*
X125055565Y-70250003D01*
X125055565Y-70249996D01*
X125035369Y-70070750D01*
X125035368Y-70070745D01*
X124975789Y-69900478D01*
X124879816Y-69747738D01*
X124752262Y-69620184D01*
X124599521Y-69524210D01*
X124429249Y-69464630D01*
X124342331Y-69454837D01*
X124277917Y-69427770D01*
X124268534Y-69419298D01*
X119685811Y-64836575D01*
X119652326Y-64775252D01*
X119657310Y-64705560D01*
X119658028Y-64703684D01*
X119725334Y-64532195D01*
X119785383Y-64269103D01*
X119805549Y-64000000D01*
X119785383Y-63730897D01*
X119725334Y-63467805D01*
X119626743Y-63216602D01*
X119491815Y-62982898D01*
X119323561Y-62771915D01*
X119323560Y-62771914D01*
X119323557Y-62771910D01*
X119125741Y-62588365D01*
X118984888Y-62492333D01*
X118902775Y-62436349D01*
X118902769Y-62436346D01*
X118902768Y-62436345D01*
X118902767Y-62436344D01*
X118659643Y-62319263D01*
X118659645Y-62319263D01*
X118401773Y-62239720D01*
X118401767Y-62239718D01*
X118134936Y-62199500D01*
X118134929Y-62199500D01*
X117865071Y-62199500D01*
X117865063Y-62199500D01*
X117598232Y-62239718D01*
X117598226Y-62239720D01*
X117340358Y-62319262D01*
X117097230Y-62436346D01*
X116874258Y-62588365D01*
X116676442Y-62771910D01*
X116508185Y-62982898D01*
X116373258Y-63216599D01*
X116373256Y-63216603D01*
X116274666Y-63467804D01*
X116274664Y-63467811D01*
X116214616Y-63730898D01*
X116194451Y-63999995D01*
X115000000Y-63999995D01*
X115000000Y-57652135D01*
X116199500Y-57652135D01*
X116199500Y-60347870D01*
X116199501Y-60347876D01*
X116205908Y-60407483D01*
X116256202Y-60542328D01*
X116256206Y-60542335D01*
X116342452Y-60657544D01*
X116342455Y-60657547D01*
X116457664Y-60743793D01*
X116457671Y-60743797D01*
X116592517Y-60794091D01*
X116592516Y-60794091D01*
X116599444Y-60794835D01*
X116652127Y-60800500D01*
X119347872Y-60800499D01*
X119407483Y-60794091D01*
X119542331Y-60743796D01*
X119657546Y-60657546D01*
X119743796Y-60542331D01*
X119794091Y-60407483D01*
X119800500Y-60347873D01*
X119800500Y-59249996D01*
X123444435Y-59249996D01*
X123444435Y-59250003D01*
X123464630Y-59429249D01*
X123464631Y-59429254D01*
X123524211Y-59599523D01*
X123618760Y-59749996D01*
X123620184Y-59752262D01*
X123747738Y-59879816D01*
X123900478Y-59975789D01*
X123969678Y-60000003D01*
X124070745Y-60035368D01*
X124070750Y-60035369D01*
X124249996Y-60055565D01*
X124250000Y-60055565D01*
X124250004Y-60055565D01*
X124429249Y-60035369D01*
X124429252Y-60035368D01*
X124429255Y-60035368D01*
X124599522Y-59975789D01*
X124752262Y-59879816D01*
X124752267Y-59879810D01*
X124755097Y-59877555D01*
X124757275Y-59876665D01*
X124758158Y-59876111D01*
X124758255Y-59876265D01*
X124819783Y-59851145D01*
X124832412Y-59850500D01*
X125599091Y-59850500D01*
X125666130Y-59870185D01*
X125711885Y-59922989D01*
X125716133Y-59933545D01*
X125751763Y-60035369D01*
X125774211Y-60099522D01*
X125870184Y-60252262D01*
X125997738Y-60379816D01*
X126150478Y-60475789D01*
X126320745Y-60535368D01*
X126320750Y-60535369D01*
X126499996Y-60555565D01*
X126500000Y-60555565D01*
X126500004Y-60555565D01*
X126679249Y-60535369D01*
X126679252Y-60535368D01*
X126679255Y-60535368D01*
X126849522Y-60475789D01*
X127002262Y-60379816D01*
X127129816Y-60252262D01*
X127225789Y-60099522D01*
X127285368Y-59929255D01*
X127290686Y-59882058D01*
X127305565Y-59750003D01*
X127305565Y-59749996D01*
X127285369Y-59570750D01*
X127285368Y-59570745D01*
X127259821Y-59497737D01*
X127225789Y-59400478D01*
X127129816Y-59247738D01*
X127002262Y-59120184D01*
X126849521Y-59024210D01*
X126679249Y-58964630D01*
X126592332Y-58954837D01*
X126527918Y-58927770D01*
X126518535Y-58919298D01*
X126480523Y-58881286D01*
X126480520Y-58881284D01*
X126368717Y-58769481D01*
X126368709Y-58769475D01*
X126266936Y-58710717D01*
X126266934Y-58710716D01*
X126231790Y-58690425D01*
X126231789Y-58690424D01*
X126219263Y-58687067D01*
X126079057Y-58649499D01*
X125920943Y-58649499D01*
X125913347Y-58649499D01*
X125913331Y-58649500D01*
X124832412Y-58649500D01*
X124765373Y-58629815D01*
X124755097Y-58622445D01*
X124752263Y-58620185D01*
X124752262Y-58620184D01*
X124646062Y-58553454D01*
X124599523Y-58524211D01*
X124429254Y-58464631D01*
X124429249Y-58464630D01*
X124250004Y-58444435D01*
X124249996Y-58444435D01*
X124070750Y-58464630D01*
X124070745Y-58464631D01*
X123900476Y-58524211D01*
X123747737Y-58620184D01*
X123620184Y-58747737D01*
X123524211Y-58900476D01*
X123464631Y-59070745D01*
X123464630Y-59070750D01*
X123444435Y-59249996D01*
X119800500Y-59249996D01*
X119800499Y-57652128D01*
X119794091Y-57592517D01*
X119758740Y-57497737D01*
X119743797Y-57457671D01*
X119743793Y-57457664D01*
X119657547Y-57342455D01*
X119657544Y-57342452D01*
X119542335Y-57256206D01*
X119542328Y-57256202D01*
X119407482Y-57205908D01*
X119407483Y-57205908D01*
X119347883Y-57199501D01*
X119347881Y-57199500D01*
X119347873Y-57199500D01*
X119347864Y-57199500D01*
X116652129Y-57199500D01*
X116652123Y-57199501D01*
X116592516Y-57205908D01*
X116457671Y-57256202D01*
X116457664Y-57256206D01*
X116342455Y-57342452D01*
X116342452Y-57342455D01*
X116256206Y-57457664D01*
X116256202Y-57457671D01*
X116205908Y-57592517D01*
X116199677Y-57650478D01*
X116199501Y-57652123D01*
X116199500Y-57652135D01*
X115000000Y-57652135D01*
X115000000Y-55624000D01*
X115019685Y-55556961D01*
X115072489Y-55511206D01*
X115124000Y-55500000D01*
X131000000Y-55500000D01*
X131000000Y-48747500D01*
X131019685Y-48680461D01*
X131072489Y-48634706D01*
X131124000Y-48623500D01*
X133625500Y-48623500D01*
X133692539Y-48643185D01*
G37*
G04 #@! TD.AperFunction*
G04 #@! TA.AperFunction,Conductor*
G36*
X215888462Y-78320185D02*
G01*
X215909104Y-78336819D01*
X227969298Y-90397013D01*
X228002783Y-90458336D01*
X228004837Y-90470810D01*
X228014630Y-90557729D01*
X228074210Y-90728001D01*
X228120476Y-90801632D01*
X228170184Y-90880742D01*
X228297738Y-91008296D01*
X228348651Y-91040287D01*
X228450480Y-91104271D01*
X228463878Y-91108959D01*
X228520654Y-91149681D01*
X228546401Y-91214634D01*
X228532944Y-91283195D01*
X228484557Y-91333598D01*
X228422923Y-91350000D01*
X167624000Y-91350000D01*
X167556961Y-91330315D01*
X167511206Y-91277511D01*
X167500000Y-91226000D01*
X167500000Y-81341500D01*
X167519685Y-81274461D01*
X167572489Y-81228706D01*
X167624000Y-81217500D01*
X168717811Y-81217500D01*
X168784850Y-81237185D01*
X168830605Y-81289989D01*
X168840549Y-81359147D01*
X168827478Y-81396902D01*
X168828253Y-81397264D01*
X168825966Y-81402169D01*
X168825965Y-81402171D01*
X168730209Y-81607520D01*
X168726098Y-81616335D01*
X168726094Y-81616344D01*
X168664938Y-81844586D01*
X168664936Y-81844596D01*
X168644341Y-82079999D01*
X168644341Y-82080000D01*
X168664936Y-82315403D01*
X168664938Y-82315413D01*
X168726094Y-82543655D01*
X168726096Y-82543659D01*
X168726097Y-82543663D01*
X168808672Y-82720745D01*
X168825965Y-82757830D01*
X168825967Y-82757834D01*
X168961501Y-82951395D01*
X168961506Y-82951402D01*
X169128597Y-83118493D01*
X169128603Y-83118498D01*
X169314594Y-83248730D01*
X169358219Y-83303307D01*
X169365413Y-83372805D01*
X169333890Y-83435160D01*
X169314595Y-83451880D01*
X169128922Y-83581890D01*
X169128920Y-83581891D01*
X168961891Y-83748920D01*
X168961886Y-83748926D01*
X168826400Y-83942420D01*
X168826399Y-83942422D01*
X168726570Y-84156507D01*
X168726567Y-84156513D01*
X168669364Y-84369999D01*
X168669364Y-84370000D01*
X169566988Y-84370000D01*
X169534075Y-84427007D01*
X169500000Y-84554174D01*
X169500000Y-84685826D01*
X169534075Y-84812993D01*
X169566988Y-84870000D01*
X168669364Y-84870000D01*
X168726567Y-85083486D01*
X168726570Y-85083492D01*
X168826399Y-85297578D01*
X168961894Y-85491082D01*
X169128917Y-85658105D01*
X169322421Y-85793600D01*
X169536507Y-85893429D01*
X169536516Y-85893433D01*
X169750000Y-85950634D01*
X169750000Y-85053012D01*
X169807007Y-85085925D01*
X169934174Y-85120000D01*
X170065826Y-85120000D01*
X170192993Y-85085925D01*
X170250000Y-85053012D01*
X170250000Y-85950633D01*
X170463483Y-85893433D01*
X170463492Y-85893429D01*
X170677578Y-85793600D01*
X170871082Y-85658105D01*
X171038105Y-85491082D01*
X171173600Y-85297578D01*
X171273429Y-85083492D01*
X171273432Y-85083486D01*
X171330636Y-84870000D01*
X170433012Y-84870000D01*
X170465925Y-84812993D01*
X170500000Y-84685826D01*
X170500000Y-84554174D01*
X170465925Y-84427007D01*
X170433012Y-84370000D01*
X171330636Y-84370000D01*
X171330635Y-84369999D01*
X171273432Y-84156513D01*
X171273429Y-84156507D01*
X171173600Y-83942422D01*
X171173599Y-83942420D01*
X171038113Y-83748926D01*
X171038108Y-83748920D01*
X170871078Y-83581890D01*
X170685405Y-83451879D01*
X170641780Y-83397302D01*
X170634588Y-83327804D01*
X170666110Y-83265449D01*
X170685406Y-83248730D01*
X170871401Y-83118495D01*
X171038495Y-82951401D01*
X171174035Y-82757830D01*
X171273903Y-82543663D01*
X171335063Y-82315408D01*
X171355659Y-82080000D01*
X171353895Y-82059843D01*
X171335063Y-81844596D01*
X171335063Y-81844592D01*
X171288626Y-81671285D01*
X171273905Y-81616344D01*
X171273904Y-81616343D01*
X171273903Y-81616337D01*
X171174035Y-81402171D01*
X171154007Y-81373567D01*
X171038494Y-81208597D01*
X170958801Y-81128904D01*
X170925316Y-81067581D01*
X170930300Y-80997889D01*
X170958801Y-80953542D01*
X172598525Y-79313819D01*
X172659848Y-79280334D01*
X172686206Y-79277500D01*
X176192015Y-79277500D01*
X176259054Y-79297185D01*
X176304809Y-79349989D01*
X176315235Y-79415383D01*
X176294435Y-79599996D01*
X176294435Y-79600003D01*
X176314630Y-79779249D01*
X176314631Y-79779254D01*
X176374211Y-79949523D01*
X176398463Y-79988119D01*
X176470184Y-80102262D01*
X176597738Y-80229816D01*
X176750478Y-80325789D01*
X176844338Y-80358632D01*
X176920745Y-80385368D01*
X176920750Y-80385369D01*
X177099996Y-80405565D01*
X177100000Y-80405565D01*
X177100004Y-80405565D01*
X177279249Y-80385369D01*
X177279252Y-80385368D01*
X177279255Y-80385368D01*
X177449522Y-80325789D01*
X177602262Y-80229816D01*
X177602267Y-80229810D01*
X177605097Y-80227555D01*
X177607275Y-80226665D01*
X177608158Y-80226111D01*
X177608255Y-80226265D01*
X177669783Y-80201145D01*
X177682412Y-80200500D01*
X179516549Y-80200500D01*
X179583588Y-80220185D01*
X179629343Y-80272989D01*
X179639287Y-80342147D01*
X179610262Y-80405703D01*
X179582521Y-80429494D01*
X179447737Y-80514184D01*
X179320184Y-80641737D01*
X179224211Y-80794476D01*
X179164631Y-80964745D01*
X179164630Y-80964750D01*
X179144435Y-81143996D01*
X179144435Y-81144003D01*
X179164630Y-81323249D01*
X179164631Y-81323254D01*
X179224212Y-81493525D01*
X179230492Y-81503519D01*
X179249500Y-81569493D01*
X179249500Y-82008480D01*
X179229815Y-82075519D01*
X179213181Y-82096161D01*
X172300709Y-89008632D01*
X172253984Y-89037992D01*
X172150476Y-89074211D01*
X172150475Y-89074212D01*
X171997737Y-89170184D01*
X171870184Y-89297737D01*
X171774211Y-89450476D01*
X171714631Y-89620745D01*
X171714630Y-89620750D01*
X171694435Y-89799996D01*
X171694435Y-89800003D01*
X171714630Y-89979249D01*
X171714631Y-89979254D01*
X171774211Y-90149523D01*
X171870184Y-90302262D01*
X171997738Y-90429816D01*
X172050219Y-90462792D01*
X172146500Y-90523290D01*
X172150478Y-90525789D01*
X172320745Y-90585368D01*
X172320750Y-90585369D01*
X172499996Y-90605565D01*
X172500000Y-90605565D01*
X172500004Y-90605565D01*
X172679249Y-90585369D01*
X172679252Y-90585368D01*
X172679255Y-90585368D01*
X172849522Y-90525789D01*
X173002262Y-90429816D01*
X173129816Y-90302262D01*
X173225789Y-90149522D01*
X173262007Y-90046013D01*
X173291365Y-89999290D01*
X176686317Y-86604338D01*
X176747638Y-86570855D01*
X176817330Y-86575839D01*
X176839968Y-86587027D01*
X176923477Y-86639499D01*
X176923479Y-86639500D01*
X177093746Y-86699079D01*
X177093751Y-86699080D01*
X177272997Y-86719276D01*
X177273001Y-86719276D01*
X177273005Y-86719276D01*
X177452250Y-86699080D01*
X177452253Y-86699079D01*
X177452256Y-86699079D01*
X177622523Y-86639500D01*
X177775263Y-86543527D01*
X177902817Y-86415973D01*
X177998790Y-86263233D01*
X178058369Y-86092966D01*
X178068162Y-86006040D01*
X178095227Y-85941629D01*
X178103691Y-85932254D01*
X182272129Y-81763819D01*
X182333452Y-81730334D01*
X182359810Y-81727500D01*
X199014040Y-81727500D01*
X199014056Y-81727501D01*
X199021652Y-81727501D01*
X199179763Y-81727501D01*
X199179766Y-81727501D01*
X199332494Y-81686577D01*
X199427396Y-81631785D01*
X199469425Y-81607520D01*
X199581229Y-81495716D01*
X199581229Y-81495714D01*
X199591433Y-81485511D01*
X199591436Y-81485506D01*
X200887820Y-80189122D01*
X200949142Y-80155639D01*
X201018834Y-80160623D01*
X201074767Y-80202495D01*
X201099184Y-80267959D01*
X201099500Y-80276805D01*
X201099500Y-86591902D01*
X201079815Y-86658941D01*
X201027011Y-86704696D01*
X201000316Y-86712096D01*
X201000541Y-86713080D01*
X200993753Y-86714629D01*
X200823478Y-86774210D01*
X200670737Y-86870184D01*
X200543184Y-86997737D01*
X200447211Y-87150477D01*
X200389133Y-87316455D01*
X200348411Y-87373231D01*
X200283458Y-87398978D01*
X200272091Y-87399500D01*
X199403476Y-87399500D01*
X199336437Y-87379815D01*
X199290682Y-87327011D01*
X199280738Y-87257853D01*
X199309763Y-87194297D01*
X199337504Y-87170506D01*
X199402262Y-87129816D01*
X199529816Y-87002262D01*
X199625789Y-86849522D01*
X199685368Y-86679255D01*
X199689065Y-86646447D01*
X199705565Y-86500003D01*
X199705565Y-86499996D01*
X199685369Y-86320750D01*
X199685368Y-86320745D01*
X199625789Y-86150478D01*
X199529816Y-85997738D01*
X199529814Y-85997736D01*
X199529813Y-85997734D01*
X199527550Y-85994896D01*
X199526659Y-85992715D01*
X199526111Y-85991842D01*
X199526264Y-85991745D01*
X199501144Y-85930209D01*
X199500500Y-85917587D01*
X199500500Y-83725123D01*
X199520185Y-83658084D01*
X199558524Y-83620132D01*
X199702262Y-83529816D01*
X199829816Y-83402262D01*
X199925789Y-83249522D01*
X199985368Y-83079255D01*
X199997880Y-82968213D01*
X200005565Y-82900001D01*
X200005565Y-82899996D01*
X199985369Y-82720750D01*
X199985368Y-82720745D01*
X199937998Y-82585369D01*
X199925789Y-82550478D01*
X199921507Y-82543664D01*
X199849971Y-82429815D01*
X199829816Y-82397738D01*
X199702262Y-82270184D01*
X199549523Y-82174211D01*
X199379254Y-82114631D01*
X199379249Y-82114630D01*
X199200004Y-82094435D01*
X199199996Y-82094435D01*
X199020750Y-82114630D01*
X199020745Y-82114631D01*
X198850476Y-82174211D01*
X198697737Y-82270184D01*
X198570184Y-82397737D01*
X198474210Y-82550478D01*
X198414630Y-82720750D01*
X198400877Y-82842811D01*
X198385051Y-82890915D01*
X198380186Y-82899342D01*
X198379807Y-82900000D01*
X198340423Y-82968215D01*
X198299499Y-83120943D01*
X198299499Y-83120945D01*
X198299499Y-83289046D01*
X198299500Y-83289059D01*
X198299500Y-85917587D01*
X198279815Y-85984626D01*
X198272450Y-85994896D01*
X198270186Y-85997734D01*
X198174211Y-86150476D01*
X198114631Y-86320745D01*
X198114630Y-86320750D01*
X198094435Y-86499996D01*
X198094435Y-86500003D01*
X198114630Y-86679249D01*
X198114631Y-86679254D01*
X198174211Y-86849523D01*
X198267341Y-86997737D01*
X198270184Y-87002262D01*
X198397738Y-87129816D01*
X198462496Y-87170506D01*
X198508787Y-87222841D01*
X198519435Y-87291894D01*
X198491060Y-87355743D01*
X198432670Y-87394115D01*
X198396524Y-87399500D01*
X195682412Y-87399500D01*
X195615373Y-87379815D01*
X195605097Y-87372445D01*
X195602263Y-87370185D01*
X195602262Y-87370184D01*
X195533553Y-87327011D01*
X195449523Y-87274211D01*
X195279254Y-87214631D01*
X195279249Y-87214630D01*
X195100004Y-87194435D01*
X195099996Y-87194435D01*
X194920750Y-87214630D01*
X194920745Y-87214631D01*
X194750476Y-87274211D01*
X194597737Y-87370184D01*
X194470184Y-87497737D01*
X194374211Y-87650476D01*
X194314631Y-87820745D01*
X194314630Y-87820750D01*
X194294435Y-87999996D01*
X194294435Y-88000003D01*
X194314630Y-88179249D01*
X194314631Y-88179254D01*
X194374211Y-88349523D01*
X194405926Y-88399996D01*
X194470184Y-88502262D01*
X194597738Y-88629816D01*
X194750478Y-88725789D01*
X194863834Y-88765454D01*
X194920745Y-88785368D01*
X194920750Y-88785369D01*
X195099996Y-88805565D01*
X195100000Y-88805565D01*
X195100004Y-88805565D01*
X195279249Y-88785369D01*
X195279252Y-88785368D01*
X195279255Y-88785368D01*
X195449522Y-88725789D01*
X195602262Y-88629816D01*
X195602267Y-88629810D01*
X195605097Y-88627555D01*
X195607275Y-88626665D01*
X195608158Y-88626111D01*
X195608255Y-88626265D01*
X195669783Y-88601145D01*
X195682412Y-88600500D01*
X198403840Y-88600500D01*
X198470879Y-88620185D01*
X198516634Y-88672989D01*
X198526578Y-88742147D01*
X198520882Y-88765454D01*
X198494486Y-88840888D01*
X198494484Y-88840896D01*
X198474289Y-89020142D01*
X198474289Y-89020149D01*
X198494484Y-89199395D01*
X198494485Y-89199400D01*
X198554065Y-89369669D01*
X198650038Y-89522408D01*
X198777592Y-89649962D01*
X198930332Y-89745935D01*
X199100599Y-89805514D01*
X199100604Y-89805515D01*
X199279850Y-89825711D01*
X199279854Y-89825711D01*
X199279858Y-89825711D01*
X199459103Y-89805515D01*
X199459106Y-89805514D01*
X199459109Y-89805514D01*
X199629376Y-89745935D01*
X199782116Y-89649962D01*
X199782121Y-89649956D01*
X199784951Y-89647701D01*
X199787129Y-89646811D01*
X199788012Y-89646257D01*
X199788109Y-89646411D01*
X199849637Y-89621291D01*
X199862266Y-89620646D01*
X200538476Y-89620646D01*
X200538492Y-89620647D01*
X200546088Y-89620647D01*
X200704199Y-89620647D01*
X200704202Y-89620647D01*
X200856930Y-89579723D01*
X200907049Y-89550785D01*
X200993861Y-89500666D01*
X201105665Y-89388862D01*
X201105665Y-89388860D01*
X201115873Y-89378653D01*
X201115874Y-89378650D01*
X202180520Y-88314007D01*
X202259577Y-88177075D01*
X202300501Y-88024348D01*
X202300501Y-87866233D01*
X202300501Y-87858638D01*
X202300500Y-87858620D01*
X202300500Y-82495797D01*
X202320185Y-82428758D01*
X202372989Y-82383003D01*
X202442147Y-82373059D01*
X202456579Y-82376019D01*
X202507019Y-82389534D01*
X202547942Y-82400500D01*
X202547943Y-82400500D01*
X203817588Y-82400500D01*
X203884627Y-82420185D01*
X203894903Y-82427555D01*
X203897736Y-82429814D01*
X203897738Y-82429816D01*
X204050478Y-82525789D01*
X204220745Y-82585368D01*
X204220750Y-82585369D01*
X204399996Y-82605565D01*
X204400000Y-82605565D01*
X204400004Y-82605565D01*
X204579249Y-82585369D01*
X204579252Y-82585368D01*
X204579255Y-82585368D01*
X204749522Y-82525789D01*
X204902262Y-82429816D01*
X205029816Y-82302262D01*
X205125789Y-82149522D01*
X205185368Y-81979255D01*
X205185369Y-81979249D01*
X205205565Y-81800003D01*
X205205565Y-81799996D01*
X205185369Y-81620750D01*
X205185368Y-81620745D01*
X205140851Y-81493522D01*
X205125789Y-81450478D01*
X205029816Y-81297738D01*
X204902262Y-81170184D01*
X204860594Y-81144002D01*
X204749523Y-81074211D01*
X204579254Y-81014631D01*
X204579249Y-81014630D01*
X204400004Y-80994435D01*
X204399996Y-80994435D01*
X204220750Y-81014630D01*
X204220745Y-81014631D01*
X204050476Y-81074211D01*
X203897736Y-81170185D01*
X203894903Y-81172445D01*
X203892724Y-81173334D01*
X203891842Y-81173889D01*
X203891744Y-81173734D01*
X203830217Y-81198855D01*
X203817588Y-81199500D01*
X203092917Y-81199500D01*
X203025878Y-81179815D01*
X202980123Y-81127011D01*
X202975875Y-81116454D01*
X202952789Y-81050478D01*
X202856815Y-80897737D01*
X202729262Y-80770184D01*
X202576521Y-80674210D01*
X202406246Y-80614629D01*
X202399459Y-80613080D01*
X202400008Y-80610671D01*
X202346178Y-80588035D01*
X202306637Y-80530430D01*
X202300500Y-80491902D01*
X202300500Y-79613279D01*
X202320185Y-79546240D01*
X202372989Y-79500485D01*
X202410613Y-79490059D01*
X202452255Y-79485368D01*
X202622522Y-79425789D01*
X202775262Y-79329816D01*
X202902816Y-79202262D01*
X202998789Y-79049522D01*
X203058368Y-78879255D01*
X203059008Y-78873580D01*
X203066102Y-78810617D01*
X203093168Y-78746203D01*
X203150763Y-78706648D01*
X203189322Y-78700500D01*
X210718411Y-78700500D01*
X210785450Y-78720185D01*
X210831205Y-78772989D01*
X210841631Y-78810617D01*
X210860630Y-78979249D01*
X210860631Y-78979254D01*
X210920212Y-79149525D01*
X210926492Y-79159519D01*
X210945500Y-79225493D01*
X210945500Y-80012480D01*
X210925815Y-80079519D01*
X210909181Y-80100161D01*
X203400709Y-87608632D01*
X203353984Y-87637992D01*
X203250476Y-87674211D01*
X203250475Y-87674212D01*
X203097737Y-87770184D01*
X202970184Y-87897737D01*
X202874211Y-88050476D01*
X202814631Y-88220745D01*
X202814630Y-88220750D01*
X202794435Y-88399996D01*
X202794435Y-88400003D01*
X202814630Y-88579249D01*
X202814631Y-88579254D01*
X202874211Y-88749523D01*
X202896735Y-88785369D01*
X202970184Y-88902262D01*
X203097738Y-89029816D01*
X203250478Y-89125789D01*
X203377352Y-89170184D01*
X203420745Y-89185368D01*
X203420750Y-89185369D01*
X203599996Y-89205565D01*
X203600000Y-89205565D01*
X203600004Y-89205565D01*
X203779249Y-89185369D01*
X203779252Y-89185368D01*
X203779255Y-89185368D01*
X203949522Y-89125789D01*
X204102262Y-89029816D01*
X204229816Y-88902262D01*
X204325789Y-88749522D01*
X204362007Y-88646013D01*
X204391365Y-88599290D01*
X212190113Y-80800543D01*
X212190811Y-80799499D01*
X212194168Y-80794476D01*
X212266771Y-80685817D01*
X212266771Y-80685816D01*
X212266775Y-80685811D01*
X212319580Y-80558328D01*
X212345207Y-80429494D01*
X212346500Y-80422995D01*
X212346500Y-79225493D01*
X212365508Y-79159519D01*
X212371787Y-79149525D01*
X212371786Y-79149525D01*
X212371789Y-79149522D01*
X212431368Y-78979255D01*
X212437255Y-78927011D01*
X212450369Y-78810617D01*
X212477435Y-78746203D01*
X212535030Y-78706648D01*
X212573589Y-78700500D01*
X213234083Y-78700500D01*
X213301122Y-78720185D01*
X213346877Y-78772989D01*
X213351125Y-78783546D01*
X213374210Y-78849521D01*
X213455724Y-78979249D01*
X213470184Y-79002262D01*
X213597738Y-79129816D01*
X213750478Y-79225789D01*
X213786390Y-79238355D01*
X213920745Y-79285368D01*
X213920750Y-79285369D01*
X214099996Y-79305565D01*
X214100000Y-79305565D01*
X214100004Y-79305565D01*
X214279249Y-79285369D01*
X214279252Y-79285368D01*
X214279255Y-79285368D01*
X214449522Y-79225789D01*
X214602262Y-79129816D01*
X214729816Y-79002262D01*
X214825789Y-78849522D01*
X214885368Y-78679255D01*
X214889054Y-78646542D01*
X214905565Y-78500003D01*
X214905565Y-78499996D01*
X214898623Y-78438383D01*
X214910678Y-78369561D01*
X214958027Y-78318182D01*
X215021843Y-78300500D01*
X215821423Y-78300500D01*
X215888462Y-78320185D01*
G37*
G04 #@! TD.AperFunction*
G04 #@! TA.AperFunction,Conductor*
G36*
X250593039Y-47569685D02*
G01*
X250638794Y-47622489D01*
X250650000Y-47674000D01*
X250650000Y-91226000D01*
X250630315Y-91293039D01*
X250577511Y-91338794D01*
X250526000Y-91350000D01*
X229177077Y-91350000D01*
X229110038Y-91330315D01*
X229064283Y-91277511D01*
X229054339Y-91208353D01*
X229083364Y-91144797D01*
X229136122Y-91108959D01*
X229149519Y-91104271D01*
X229207148Y-91068060D01*
X229302262Y-91008296D01*
X229429816Y-90880742D01*
X229525789Y-90728002D01*
X229585368Y-90557735D01*
X229585449Y-90557015D01*
X229605565Y-90378483D01*
X229605565Y-90378476D01*
X229585369Y-90199230D01*
X229585368Y-90199225D01*
X229525789Y-90028958D01*
X229429816Y-89876218D01*
X229302262Y-89748664D01*
X229247470Y-89714236D01*
X229149521Y-89652690D01*
X228979249Y-89593110D01*
X228892330Y-89583317D01*
X228827916Y-89556250D01*
X228818533Y-89547778D01*
X216609110Y-77338355D01*
X216609108Y-77338352D01*
X216490237Y-77219481D01*
X216490236Y-77219480D01*
X216379454Y-77155520D01*
X216379454Y-77155519D01*
X216379449Y-77155518D01*
X216362180Y-77145547D01*
X216353306Y-77140423D01*
X216315123Y-77130192D01*
X216200577Y-77099499D01*
X216042463Y-77099499D01*
X216034867Y-77099499D01*
X216034851Y-77099500D01*
X208959980Y-77099500D01*
X208892941Y-77079815D01*
X208847186Y-77027011D01*
X208837242Y-76957853D01*
X208856878Y-76906610D01*
X208863419Y-76896819D01*
X208870775Y-76885811D01*
X208923580Y-76758328D01*
X208939315Y-76679222D01*
X208950500Y-76622995D01*
X208950500Y-75425493D01*
X208969508Y-75359519D01*
X208975787Y-75349525D01*
X208975786Y-75349525D01*
X208975789Y-75349522D01*
X209035368Y-75179255D01*
X209035369Y-75179249D01*
X209055565Y-75000003D01*
X209055565Y-74999996D01*
X209035369Y-74820750D01*
X209035366Y-74820737D01*
X208975790Y-74650479D01*
X208969506Y-74640478D01*
X208950500Y-74574507D01*
X208950500Y-70548421D01*
X208970185Y-70481382D01*
X209022989Y-70435627D01*
X209033542Y-70431380D01*
X209049522Y-70425789D01*
X209202262Y-70329816D01*
X209329816Y-70202262D01*
X209425789Y-70049522D01*
X209485368Y-69879255D01*
X209492248Y-69818192D01*
X209505565Y-69700003D01*
X209505565Y-69699996D01*
X209485369Y-69520750D01*
X209485366Y-69520737D01*
X209425790Y-69350479D01*
X209419506Y-69340478D01*
X209400500Y-69274507D01*
X209400500Y-66797844D01*
X245500000Y-66797844D01*
X245506401Y-66857372D01*
X245506403Y-66857379D01*
X245556645Y-66992086D01*
X245556649Y-66992093D01*
X245642809Y-67107187D01*
X245642812Y-67107190D01*
X245757906Y-67193350D01*
X245757913Y-67193354D01*
X245892620Y-67243596D01*
X245892627Y-67243598D01*
X245952155Y-67249999D01*
X245952172Y-67250000D01*
X247250000Y-67250000D01*
X247250000Y-65500000D01*
X245500000Y-65500000D01*
X245500000Y-66797844D01*
X209400500Y-66797844D01*
X209400500Y-63702155D01*
X245500000Y-63702155D01*
X245500000Y-65000000D01*
X247250000Y-65000000D01*
X247250000Y-63250000D01*
X245952155Y-63250000D01*
X245892627Y-63256401D01*
X245892620Y-63256403D01*
X245757913Y-63306645D01*
X245757906Y-63306649D01*
X245642812Y-63392809D01*
X245642809Y-63392812D01*
X245556649Y-63507906D01*
X245556645Y-63507913D01*
X245506403Y-63642620D01*
X245506401Y-63642627D01*
X245500000Y-63702155D01*
X209400500Y-63702155D01*
X209400500Y-60231006D01*
X209400499Y-60231005D01*
X209378607Y-60120943D01*
X209373580Y-60095671D01*
X209339210Y-60012696D01*
X209320775Y-59968189D01*
X209320773Y-59968187D01*
X209320773Y-59968185D01*
X209244115Y-59853459D01*
X209241132Y-59850476D01*
X209146542Y-59755886D01*
X208278337Y-58887681D01*
X208244852Y-58826358D01*
X208249836Y-58756666D01*
X208278337Y-58712319D01*
X209253837Y-57736819D01*
X209315160Y-57703334D01*
X209341518Y-57700500D01*
X244158481Y-57700500D01*
X244225520Y-57720185D01*
X244246162Y-57736819D01*
X246108630Y-59599287D01*
X246137990Y-59646013D01*
X246174209Y-59749519D01*
X246174211Y-59749522D01*
X246270184Y-59902262D01*
X246397738Y-60029816D01*
X246469143Y-60074683D01*
X246542765Y-60120943D01*
X246550478Y-60125789D01*
X246720745Y-60185368D01*
X246720750Y-60185369D01*
X246899996Y-60205565D01*
X246900000Y-60205565D01*
X246900004Y-60205565D01*
X247079249Y-60185369D01*
X247079252Y-60185368D01*
X247079255Y-60185368D01*
X247249522Y-60125789D01*
X247257235Y-60120943D01*
X247297456Y-60095670D01*
X247333031Y-60073316D01*
X247400267Y-60054316D01*
X247467102Y-60074683D01*
X247486684Y-60090629D01*
X248663181Y-61267125D01*
X248696666Y-61328448D01*
X248699500Y-61354806D01*
X248699500Y-63126000D01*
X248679815Y-63193039D01*
X248627011Y-63238794D01*
X248575500Y-63250000D01*
X247750000Y-63250000D01*
X247750000Y-67250000D01*
X248575500Y-67250000D01*
X248642539Y-67269685D01*
X248688294Y-67322489D01*
X248699500Y-67374000D01*
X248699500Y-71008480D01*
X248679815Y-71075519D01*
X248663181Y-71096161D01*
X248546161Y-71213181D01*
X248484838Y-71246666D01*
X248458480Y-71249500D01*
X245952129Y-71249500D01*
X245952123Y-71249501D01*
X245892516Y-71255908D01*
X245757671Y-71306202D01*
X245757664Y-71306206D01*
X245642455Y-71392452D01*
X245642452Y-71392455D01*
X245556206Y-71507664D01*
X245556202Y-71507671D01*
X245505908Y-71642517D01*
X245499501Y-71702116D01*
X245499500Y-71702135D01*
X245499500Y-74208480D01*
X245479815Y-74275519D01*
X245463181Y-74296161D01*
X235455888Y-84303453D01*
X235455887Y-84303454D01*
X235379222Y-84418192D01*
X235326421Y-84545667D01*
X235326418Y-84545677D01*
X235299500Y-84681004D01*
X235299500Y-88476728D01*
X235279815Y-88543767D01*
X235269213Y-88557930D01*
X235193018Y-88645863D01*
X235193015Y-88645867D01*
X235141654Y-88725789D01*
X235131142Y-88742147D01*
X235115231Y-88766905D01*
X235115223Y-88766918D01*
X235058263Y-88891643D01*
X235056015Y-88895939D01*
X235014966Y-89035738D01*
X235014963Y-89035748D01*
X234994503Y-89178059D01*
X234994503Y-89234399D01*
X234994500Y-89234409D01*
X234994500Y-89765573D01*
X234994503Y-89765601D01*
X234994503Y-89821939D01*
X235013703Y-89955478D01*
X235013703Y-89955481D01*
X235014964Y-89964255D01*
X235055503Y-90102313D01*
X235115223Y-90233081D01*
X235115227Y-90233087D01*
X235115230Y-90233094D01*
X235126095Y-90250000D01*
X235193015Y-90354132D01*
X235193018Y-90354136D01*
X235287152Y-90462773D01*
X235287168Y-90462791D01*
X235287171Y-90462794D01*
X235395909Y-90557015D01*
X235440029Y-90585369D01*
X235516857Y-90634744D01*
X235516863Y-90634747D01*
X235647741Y-90694517D01*
X235785696Y-90735024D01*
X235928111Y-90755500D01*
X235928114Y-90755500D01*
X236500000Y-90755500D01*
X236571940Y-90750355D01*
X236709992Y-90709819D01*
X236831032Y-90632031D01*
X236925254Y-90523294D01*
X236985024Y-90392416D01*
X237005500Y-90250000D01*
X237005500Y-89785763D01*
X237005500Y-88750000D01*
X237000355Y-88678060D01*
X236959819Y-88540008D01*
X236882031Y-88418968D01*
X236860144Y-88400003D01*
X236773299Y-88324750D01*
X236773297Y-88324748D01*
X236773294Y-88324746D01*
X236773291Y-88324744D01*
X236773286Y-88324741D01*
X236772987Y-88324605D01*
X236772738Y-88324389D01*
X236765832Y-88319951D01*
X236766470Y-88318958D01*
X236720183Y-88278850D01*
X236700500Y-88211812D01*
X236700500Y-86999997D01*
X243145080Y-86999997D01*
X243145080Y-87000002D01*
X243164746Y-87362728D01*
X243223517Y-87721214D01*
X243223519Y-87721222D01*
X243320695Y-88071220D01*
X243320697Y-88071227D01*
X243455152Y-88408684D01*
X243455161Y-88408702D01*
X243625316Y-88729647D01*
X243625318Y-88729651D01*
X243829170Y-89030309D01*
X243829177Y-89030319D01*
X243960969Y-89185475D01*
X243960970Y-89185475D01*
X245205748Y-87940698D01*
X245279588Y-88042330D01*
X245457670Y-88220412D01*
X245559300Y-88294251D01*
X244311888Y-89541662D01*
X244311888Y-89541664D01*
X244328070Y-89556992D01*
X244328071Y-89556993D01*
X244617266Y-89776832D01*
X244617282Y-89776843D01*
X244928522Y-89964109D01*
X244928535Y-89964116D01*
X245258205Y-90116639D01*
X245258210Y-90116640D01*
X245602461Y-90232632D01*
X245957235Y-90310724D01*
X246318366Y-90349999D01*
X246318374Y-90350000D01*
X246681626Y-90350000D01*
X246681633Y-90349999D01*
X247042764Y-90310724D01*
X247397538Y-90232632D01*
X247741789Y-90116640D01*
X247741794Y-90116639D01*
X248071464Y-89964116D01*
X248071477Y-89964109D01*
X248382717Y-89776843D01*
X248382733Y-89776832D01*
X248671929Y-89556992D01*
X248688110Y-89541664D01*
X248688110Y-89541663D01*
X247440698Y-88294251D01*
X247542330Y-88220412D01*
X247720412Y-88042330D01*
X247794251Y-87940698D01*
X249039028Y-89185475D01*
X249039029Y-89185475D01*
X249170827Y-89030311D01*
X249170838Y-89030297D01*
X249374681Y-88729651D01*
X249374683Y-88729647D01*
X249544838Y-88408702D01*
X249544847Y-88408684D01*
X249679302Y-88071227D01*
X249679304Y-88071220D01*
X249776480Y-87721222D01*
X249776482Y-87721214D01*
X249835253Y-87362728D01*
X249854920Y-87000002D01*
X249854920Y-86999997D01*
X249835253Y-86637271D01*
X249776482Y-86278785D01*
X249776480Y-86278777D01*
X249679304Y-85928779D01*
X249679302Y-85928772D01*
X249544847Y-85591315D01*
X249544838Y-85591297D01*
X249374683Y-85270352D01*
X249374681Y-85270348D01*
X249170829Y-84969690D01*
X249170822Y-84969680D01*
X249039029Y-84814523D01*
X249039028Y-84814523D01*
X247794251Y-86059300D01*
X247720412Y-85957670D01*
X247542330Y-85779588D01*
X247440698Y-85705748D01*
X248688110Y-84458336D01*
X248688110Y-84458334D01*
X248671929Y-84443007D01*
X248671928Y-84443006D01*
X248382733Y-84223167D01*
X248382717Y-84223156D01*
X248071477Y-84035890D01*
X248071464Y-84035883D01*
X247741794Y-83883360D01*
X247741789Y-83883359D01*
X247397538Y-83767367D01*
X247042764Y-83689275D01*
X246681633Y-83650000D01*
X246318366Y-83650000D01*
X245957235Y-83689275D01*
X245602461Y-83767367D01*
X245258210Y-83883359D01*
X245258205Y-83883360D01*
X244928535Y-84035883D01*
X244928522Y-84035890D01*
X244617282Y-84223156D01*
X244617266Y-84223167D01*
X244328075Y-84443002D01*
X244311888Y-84458335D01*
X244311887Y-84458335D01*
X245559301Y-85705748D01*
X245457670Y-85779588D01*
X245279588Y-85957670D01*
X245205748Y-86059300D01*
X243960970Y-84814522D01*
X243960969Y-84814523D01*
X243829177Y-84969680D01*
X243829170Y-84969690D01*
X243625318Y-85270348D01*
X243625316Y-85270352D01*
X243455161Y-85591297D01*
X243455152Y-85591315D01*
X243320697Y-85928772D01*
X243320695Y-85928779D01*
X243223519Y-86278777D01*
X243223517Y-86278785D01*
X243164746Y-86637271D01*
X243145080Y-86999997D01*
X236700500Y-86999997D01*
X236700500Y-85091518D01*
X236720185Y-85024479D01*
X236736814Y-85003842D01*
X246453838Y-75286817D01*
X246515161Y-75253333D01*
X246541519Y-75250499D01*
X249047871Y-75250499D01*
X249047872Y-75250499D01*
X249107483Y-75244091D01*
X249242331Y-75193796D01*
X249357546Y-75107546D01*
X249443796Y-74992331D01*
X249494091Y-74857483D01*
X249500500Y-74797873D01*
X249500499Y-72291518D01*
X249520184Y-72224480D01*
X249536818Y-72203838D01*
X249944111Y-71796546D01*
X249944112Y-71796545D01*
X249944112Y-71796544D01*
X249944114Y-71796543D01*
X250020775Y-71681811D01*
X250073580Y-71554328D01*
X250082862Y-71507664D01*
X250100500Y-71418996D01*
X250100500Y-60944292D01*
X250100499Y-60944290D01*
X250096819Y-60925788D01*
X250073580Y-60808960D01*
X250070076Y-60800501D01*
X250029384Y-60702262D01*
X250020775Y-60681477D01*
X249944114Y-60566746D01*
X249846542Y-60469174D01*
X248048306Y-58670938D01*
X246241541Y-56864172D01*
X246208056Y-56802849D01*
X246213040Y-56733157D01*
X246226910Y-56708661D01*
X246226111Y-56708159D01*
X246321789Y-56555888D01*
X246325789Y-56549522D01*
X246385368Y-56379255D01*
X246385369Y-56379249D01*
X246405565Y-56200003D01*
X246405565Y-56199996D01*
X246385369Y-56020750D01*
X246385368Y-56020745D01*
X246337998Y-55885369D01*
X246325789Y-55850478D01*
X246229816Y-55697738D01*
X246102262Y-55570184D01*
X245949523Y-55474211D01*
X245846014Y-55437992D01*
X245799289Y-55408632D01*
X245719543Y-55328886D01*
X245604811Y-55252225D01*
X245604812Y-55252225D01*
X245604807Y-55252222D01*
X245477332Y-55199421D01*
X245477322Y-55199418D01*
X245341996Y-55172500D01*
X245341994Y-55172500D01*
X245341993Y-55172500D01*
X243864519Y-55172500D01*
X243797480Y-55152815D01*
X243776838Y-55136181D01*
X240140654Y-51499997D01*
X243145080Y-51499997D01*
X243145080Y-51500002D01*
X243164746Y-51862728D01*
X243223517Y-52221214D01*
X243223519Y-52221222D01*
X243320695Y-52571220D01*
X243320697Y-52571227D01*
X243455152Y-52908684D01*
X243455161Y-52908702D01*
X243625316Y-53229647D01*
X243625318Y-53229651D01*
X243829170Y-53530309D01*
X243829177Y-53530319D01*
X243960969Y-53685475D01*
X243960970Y-53685475D01*
X245205748Y-52440698D01*
X245279588Y-52542330D01*
X245457670Y-52720412D01*
X245559300Y-52794251D01*
X244311888Y-54041662D01*
X244311888Y-54041664D01*
X244328070Y-54056992D01*
X244328071Y-54056993D01*
X244617266Y-54276832D01*
X244617282Y-54276843D01*
X244928522Y-54464109D01*
X244928535Y-54464116D01*
X245258205Y-54616639D01*
X245258210Y-54616640D01*
X245602461Y-54732632D01*
X245957235Y-54810724D01*
X246318366Y-54849999D01*
X246318374Y-54850000D01*
X246681626Y-54850000D01*
X246681633Y-54849999D01*
X247042764Y-54810724D01*
X247397538Y-54732632D01*
X247741789Y-54616640D01*
X247741794Y-54616639D01*
X248071464Y-54464116D01*
X248071477Y-54464109D01*
X248382717Y-54276843D01*
X248382733Y-54276832D01*
X248671929Y-54056992D01*
X248688110Y-54041664D01*
X248688110Y-54041663D01*
X247440698Y-52794251D01*
X247542330Y-52720412D01*
X247720412Y-52542330D01*
X247794251Y-52440698D01*
X249039028Y-53685475D01*
X249039029Y-53685475D01*
X249170827Y-53530311D01*
X249170838Y-53530297D01*
X249374681Y-53229651D01*
X249374683Y-53229647D01*
X249544838Y-52908702D01*
X249544847Y-52908684D01*
X249679302Y-52571227D01*
X249679304Y-52571220D01*
X249776480Y-52221222D01*
X249776482Y-52221214D01*
X249835253Y-51862728D01*
X249854920Y-51500002D01*
X249854920Y-51499997D01*
X249835253Y-51137271D01*
X249776482Y-50778785D01*
X249776480Y-50778777D01*
X249679304Y-50428779D01*
X249679302Y-50428772D01*
X249544847Y-50091315D01*
X249544838Y-50091297D01*
X249374683Y-49770352D01*
X249374681Y-49770348D01*
X249170829Y-49469690D01*
X249170822Y-49469680D01*
X249039029Y-49314523D01*
X249039028Y-49314523D01*
X247794251Y-50559300D01*
X247720412Y-50457670D01*
X247542330Y-50279588D01*
X247440698Y-50205748D01*
X248688110Y-48958336D01*
X248688110Y-48958334D01*
X248671929Y-48943007D01*
X248671928Y-48943006D01*
X248382733Y-48723167D01*
X248382717Y-48723156D01*
X248071477Y-48535890D01*
X248071464Y-48535883D01*
X247741794Y-48383360D01*
X247741789Y-48383359D01*
X247397538Y-48267367D01*
X247042764Y-48189275D01*
X246681633Y-48150000D01*
X246318366Y-48150000D01*
X245957235Y-48189275D01*
X245602461Y-48267367D01*
X245258210Y-48383359D01*
X245258205Y-48383360D01*
X244928535Y-48535883D01*
X244928522Y-48535890D01*
X244617282Y-48723156D01*
X244617266Y-48723167D01*
X244328075Y-48943002D01*
X244311888Y-48958335D01*
X244311887Y-48958335D01*
X245559301Y-50205748D01*
X245457670Y-50279588D01*
X245279588Y-50457670D01*
X245205748Y-50559300D01*
X243960970Y-49314522D01*
X243960969Y-49314523D01*
X243829177Y-49469680D01*
X243829170Y-49469690D01*
X243625318Y-49770348D01*
X243625316Y-49770352D01*
X243455161Y-50091297D01*
X243455152Y-50091315D01*
X243320697Y-50428772D01*
X243320695Y-50428779D01*
X243223519Y-50778777D01*
X243223517Y-50778785D01*
X243164746Y-51137271D01*
X243145080Y-51499997D01*
X240140654Y-51499997D01*
X239706119Y-51065462D01*
X239672634Y-51004139D01*
X239677618Y-50934447D01*
X239678334Y-50932737D01*
X239679573Y-50929333D01*
X239679575Y-50929330D01*
X239736207Y-50717977D01*
X239755277Y-50500000D01*
X239736207Y-50282023D01*
X239679575Y-50070670D01*
X239587102Y-49872362D01*
X239587100Y-49872359D01*
X239587099Y-49872357D01*
X239461599Y-49693124D01*
X239395803Y-49627328D01*
X239306877Y-49538402D01*
X239127639Y-49412898D01*
X239127640Y-49412898D01*
X239127638Y-49412897D01*
X239001347Y-49354007D01*
X238929330Y-49320425D01*
X238929326Y-49320424D01*
X238929322Y-49320422D01*
X238717977Y-49263793D01*
X238500002Y-49244723D01*
X238499998Y-49244723D01*
X238405941Y-49252951D01*
X238314269Y-49260971D01*
X238245770Y-49247205D01*
X238215782Y-49225125D01*
X237342546Y-48351888D01*
X237342545Y-48351887D01*
X237227807Y-48275222D01*
X237100332Y-48222421D01*
X237100322Y-48222418D01*
X236964996Y-48195500D01*
X236964994Y-48195500D01*
X236964993Y-48195500D01*
X167624000Y-48195500D01*
X167556961Y-48175815D01*
X167511206Y-48123011D01*
X167500000Y-48071500D01*
X167500000Y-47674000D01*
X167519685Y-47606961D01*
X167572489Y-47561206D01*
X167624000Y-47550000D01*
X250526000Y-47550000D01*
X250593039Y-47569685D01*
G37*
G04 #@! TD.AperFunction*
G04 #@! TA.AperFunction,Conductor*
G36*
X235086966Y-50143185D02*
G01*
X235107608Y-50159819D01*
X241035608Y-56087819D01*
X241069093Y-56149142D01*
X241064109Y-56218834D01*
X241022237Y-56274767D01*
X240956773Y-56299184D01*
X240947927Y-56299500D01*
X208931002Y-56299500D01*
X208830251Y-56319540D01*
X208830252Y-56319541D01*
X208795673Y-56326419D01*
X208795660Y-56326423D01*
X208742865Y-56348292D01*
X208668191Y-56379223D01*
X208563017Y-56449499D01*
X208563016Y-56449498D01*
X208553460Y-56455884D01*
X208553451Y-56455891D01*
X207287681Y-57721661D01*
X207226358Y-57755146D01*
X207156666Y-57750162D01*
X207112319Y-57721661D01*
X205946545Y-56555887D01*
X205831807Y-56479222D01*
X205704332Y-56426421D01*
X205704322Y-56426418D01*
X205568996Y-56399500D01*
X205568994Y-56399500D01*
X205568993Y-56399500D01*
X196425494Y-56399500D01*
X196359523Y-56380494D01*
X196349525Y-56374212D01*
X196179254Y-56314631D01*
X196179249Y-56314630D01*
X196000004Y-56294435D01*
X195999996Y-56294435D01*
X195820750Y-56314630D01*
X195820745Y-56314631D01*
X195650474Y-56374212D01*
X195640477Y-56380494D01*
X195574506Y-56399500D01*
X191731003Y-56399500D01*
X191622590Y-56421065D01*
X191622589Y-56421065D01*
X191595681Y-56426418D01*
X191595671Y-56426420D01*
X191468190Y-56479224D01*
X191353454Y-56555887D01*
X191353453Y-56555888D01*
X185046162Y-62863181D01*
X184984839Y-62896666D01*
X184958481Y-62899500D01*
X184925494Y-62899500D01*
X184859523Y-62880494D01*
X184849525Y-62874212D01*
X184679254Y-62814631D01*
X184679249Y-62814630D01*
X184500004Y-62794435D01*
X184499996Y-62794435D01*
X184320750Y-62814630D01*
X184320745Y-62814631D01*
X184150476Y-62874211D01*
X183997737Y-62970184D01*
X183870184Y-63097737D01*
X183774211Y-63250476D01*
X183714631Y-63420745D01*
X183714630Y-63420750D01*
X183694435Y-63599996D01*
X183694435Y-63600003D01*
X183714630Y-63779249D01*
X183714633Y-63779262D01*
X183774209Y-63949520D01*
X183827309Y-64034029D01*
X183846309Y-64101266D01*
X183827309Y-64165971D01*
X183774209Y-64250479D01*
X183714633Y-64420737D01*
X183714630Y-64420750D01*
X183694435Y-64599996D01*
X183694435Y-64600003D01*
X183714630Y-64779249D01*
X183714631Y-64779254D01*
X183774211Y-64949523D01*
X183870185Y-65102263D01*
X183872445Y-65105097D01*
X183873334Y-65107275D01*
X183873889Y-65108158D01*
X183873734Y-65108255D01*
X183898855Y-65169783D01*
X183899500Y-65182412D01*
X183899500Y-67799902D01*
X183879815Y-67866941D01*
X183863181Y-67887583D01*
X183331465Y-68419298D01*
X183270142Y-68452783D01*
X183257668Y-68454837D01*
X183170750Y-68464630D01*
X183000478Y-68524210D01*
X182847737Y-68620184D01*
X182720184Y-68747737D01*
X182624211Y-68900476D01*
X182564631Y-69070745D01*
X182564630Y-69070750D01*
X182544435Y-69249996D01*
X182544435Y-69250003D01*
X182564630Y-69429249D01*
X182564631Y-69429254D01*
X182624211Y-69599523D01*
X182687347Y-69700003D01*
X182720184Y-69752262D01*
X182847738Y-69879816D01*
X183000478Y-69975789D01*
X183170745Y-70035368D01*
X183170750Y-70035369D01*
X183349996Y-70055565D01*
X183350000Y-70055565D01*
X183350004Y-70055565D01*
X183529249Y-70035369D01*
X183529252Y-70035368D01*
X183529255Y-70035368D01*
X183699522Y-69975789D01*
X183852262Y-69879816D01*
X183979816Y-69752262D01*
X184075789Y-69599522D01*
X184135368Y-69429255D01*
X184145161Y-69342329D01*
X184172226Y-69277918D01*
X184180690Y-69268544D01*
X184980520Y-68468716D01*
X185059577Y-68331784D01*
X185100501Y-68179057D01*
X185100501Y-68020942D01*
X185100501Y-68013347D01*
X185100500Y-68013329D01*
X185100500Y-65182412D01*
X185120185Y-65115373D01*
X185127555Y-65105097D01*
X185129810Y-65102267D01*
X185129816Y-65102262D01*
X185225789Y-64949522D01*
X185285368Y-64779255D01*
X185305565Y-64600000D01*
X185305565Y-64599996D01*
X185286712Y-64432669D01*
X185298767Y-64363848D01*
X185346116Y-64312468D01*
X185385741Y-64297169D01*
X185419374Y-64290478D01*
X185504328Y-64273580D01*
X185568069Y-64247177D01*
X185631807Y-64220777D01*
X185631808Y-64220776D01*
X185631811Y-64220775D01*
X185746543Y-64144114D01*
X192053838Y-57836819D01*
X192115161Y-57803334D01*
X192141519Y-57800500D01*
X195574506Y-57800500D01*
X195640477Y-57819506D01*
X195650474Y-57825787D01*
X195650475Y-57825787D01*
X195650478Y-57825789D01*
X195820745Y-57885368D01*
X195820750Y-57885369D01*
X195999996Y-57905565D01*
X196000000Y-57905565D01*
X196000004Y-57905565D01*
X196179249Y-57885369D01*
X196179252Y-57885368D01*
X196179255Y-57885368D01*
X196349522Y-57825789D01*
X196350488Y-57825181D01*
X196359523Y-57819506D01*
X196425494Y-57800500D01*
X205158481Y-57800500D01*
X205225520Y-57820185D01*
X205246162Y-57836819D01*
X206408630Y-58999287D01*
X206437990Y-59046013D01*
X206474209Y-59149519D01*
X206474211Y-59149522D01*
X206570184Y-59302262D01*
X206697738Y-59429816D01*
X206850478Y-59525789D01*
X206953986Y-59562008D01*
X207000712Y-59591369D01*
X207484026Y-60074683D01*
X207963181Y-60553837D01*
X207996666Y-60615160D01*
X207999500Y-60641518D01*
X207999500Y-69274507D01*
X207980494Y-69340478D01*
X207974209Y-69350479D01*
X207937992Y-69453983D01*
X207908632Y-69500709D01*
X207705887Y-69703454D01*
X207629222Y-69818192D01*
X207576421Y-69945667D01*
X207576418Y-69945679D01*
X207554807Y-70054327D01*
X207554807Y-70054330D01*
X207549500Y-70081006D01*
X207549500Y-74574507D01*
X207530494Y-74640478D01*
X207524209Y-74650479D01*
X207464633Y-74820737D01*
X207464630Y-74820750D01*
X207444435Y-74999996D01*
X207444435Y-75000003D01*
X207464630Y-75179249D01*
X207464631Y-75179254D01*
X207524212Y-75349525D01*
X207530492Y-75359519D01*
X207549500Y-75425493D01*
X207549500Y-76212481D01*
X207529815Y-76279520D01*
X207513181Y-76300162D01*
X207250162Y-76563181D01*
X207188839Y-76596666D01*
X207162481Y-76599500D01*
X189181005Y-76599500D01*
X189045677Y-76626418D01*
X189045667Y-76626421D01*
X188918192Y-76679222D01*
X188803454Y-76755887D01*
X188241132Y-77318209D01*
X188179809Y-77351694D01*
X188167335Y-77353748D01*
X188070750Y-77364630D01*
X187900478Y-77424210D01*
X187747737Y-77520184D01*
X187620184Y-77647737D01*
X187524210Y-77800478D01*
X187464629Y-77970753D01*
X187463080Y-77977541D01*
X187460663Y-77976989D01*
X187438066Y-78030785D01*
X187380477Y-78070348D01*
X187341903Y-78076500D01*
X173613519Y-78076500D01*
X173546480Y-78056815D01*
X173500725Y-78004011D01*
X173490781Y-77934853D01*
X173519806Y-77871297D01*
X173525838Y-77864819D01*
X174216608Y-77174048D01*
X174277931Y-77140563D01*
X174347622Y-77145547D01*
X174391970Y-77174048D01*
X174395184Y-77177262D01*
X174522738Y-77304816D01*
X174544053Y-77318209D01*
X174617934Y-77364632D01*
X174675478Y-77400789D01*
X174794793Y-77442539D01*
X174845745Y-77460368D01*
X174845750Y-77460369D01*
X175024996Y-77480565D01*
X175025000Y-77480565D01*
X175025004Y-77480565D01*
X175204249Y-77460369D01*
X175204252Y-77460368D01*
X175204255Y-77460368D01*
X175374522Y-77400789D01*
X175527262Y-77304816D01*
X175527267Y-77304810D01*
X175530097Y-77302555D01*
X175532275Y-77301665D01*
X175533158Y-77301111D01*
X175533255Y-77301265D01*
X175594783Y-77276145D01*
X175607412Y-77275500D01*
X178988331Y-77275500D01*
X178988347Y-77275501D01*
X178995943Y-77275501D01*
X179154054Y-77275501D01*
X179154057Y-77275501D01*
X179306785Y-77234577D01*
X179356904Y-77205639D01*
X179443716Y-77155520D01*
X179555520Y-77043716D01*
X179555520Y-77043714D01*
X179565728Y-77033507D01*
X179565729Y-77033504D01*
X193249013Y-63350222D01*
X193310334Y-63316739D01*
X193380026Y-63321723D01*
X193402664Y-63332911D01*
X193542450Y-63420745D01*
X193550478Y-63425789D01*
X193720745Y-63485368D01*
X193720750Y-63485369D01*
X193899996Y-63505565D01*
X193900000Y-63505565D01*
X193900004Y-63505565D01*
X194079249Y-63485369D01*
X194079252Y-63485368D01*
X194079255Y-63485368D01*
X194249522Y-63425789D01*
X194402262Y-63329816D01*
X194529816Y-63202262D01*
X194625789Y-63049522D01*
X194685368Y-62879255D01*
X194685369Y-62879249D01*
X194705565Y-62700003D01*
X194705565Y-62699996D01*
X194685369Y-62520750D01*
X194685368Y-62520745D01*
X194625788Y-62350476D01*
X194529815Y-62197737D01*
X194469759Y-62137681D01*
X194436274Y-62076358D01*
X194441258Y-62006666D01*
X194469762Y-61962316D01*
X194479814Y-61952264D01*
X194479814Y-61952263D01*
X194479816Y-61952262D01*
X194575789Y-61799522D01*
X194635368Y-61629255D01*
X194655565Y-61450000D01*
X194648439Y-61386756D01*
X194635369Y-61270750D01*
X194635368Y-61270745D01*
X194575788Y-61100476D01*
X194503461Y-60985369D01*
X194479816Y-60947738D01*
X194352262Y-60820184D01*
X194320934Y-60800499D01*
X194199523Y-60724211D01*
X194029254Y-60664631D01*
X194029249Y-60664630D01*
X193850004Y-60644435D01*
X193849996Y-60644435D01*
X193670750Y-60664630D01*
X193670745Y-60664631D01*
X193500476Y-60724211D01*
X193347737Y-60820184D01*
X193220184Y-60947737D01*
X193124210Y-61100478D01*
X193064630Y-61270750D01*
X193056418Y-61343639D01*
X193029351Y-61408053D01*
X193020879Y-61417436D01*
X179156780Y-75281537D01*
X179095457Y-75315022D01*
X179069099Y-75317856D01*
X176372163Y-75317856D01*
X176305124Y-75298171D01*
X176259369Y-75245367D01*
X176249425Y-75176209D01*
X176278450Y-75112653D01*
X176284482Y-75106175D01*
X176816150Y-74574507D01*
X179399290Y-71991365D01*
X179446013Y-71962007D01*
X179549522Y-71925789D01*
X179702262Y-71829816D01*
X179829816Y-71702262D01*
X179925789Y-71549522D01*
X179962008Y-71446011D01*
X179991366Y-71399289D01*
X181094113Y-70296543D01*
X181107040Y-70277195D01*
X181132373Y-70239284D01*
X181132373Y-70239283D01*
X181170775Y-70181811D01*
X181223580Y-70054328D01*
X181232389Y-70010041D01*
X181250500Y-69918995D01*
X181250500Y-55040519D01*
X181270185Y-54973480D01*
X181322989Y-54927725D01*
X181392147Y-54917781D01*
X181455703Y-54946806D01*
X181462181Y-54952838D01*
X182153453Y-55644111D01*
X182153454Y-55644112D01*
X182268192Y-55720777D01*
X182395667Y-55773578D01*
X182395672Y-55773580D01*
X182395676Y-55773580D01*
X182395677Y-55773581D01*
X182531003Y-55800500D01*
X182531006Y-55800500D01*
X182531007Y-55800500D01*
X236774506Y-55800500D01*
X236840477Y-55819506D01*
X236850474Y-55825787D01*
X236850475Y-55825787D01*
X236850478Y-55825789D01*
X237020745Y-55885368D01*
X237020750Y-55885369D01*
X237199996Y-55905565D01*
X237200000Y-55905565D01*
X237200004Y-55905565D01*
X237379249Y-55885369D01*
X237379252Y-55885368D01*
X237379255Y-55885368D01*
X237549522Y-55825789D01*
X237702262Y-55729816D01*
X237829816Y-55602262D01*
X237925789Y-55449522D01*
X237985368Y-55279255D01*
X237994363Y-55199420D01*
X238005565Y-55100003D01*
X238005565Y-55099996D01*
X237985369Y-54920750D01*
X237985368Y-54920745D01*
X237960613Y-54849999D01*
X237925789Y-54750478D01*
X237913382Y-54730733D01*
X237839815Y-54613651D01*
X237829816Y-54597738D01*
X237702262Y-54470184D01*
X237688655Y-54461634D01*
X237549523Y-54374211D01*
X237379254Y-54314631D01*
X237379249Y-54314630D01*
X237200004Y-54294435D01*
X237199996Y-54294435D01*
X237020750Y-54314630D01*
X237020745Y-54314631D01*
X236850474Y-54374212D01*
X236840477Y-54380494D01*
X236774506Y-54399500D01*
X230731940Y-54399500D01*
X230664901Y-54379815D01*
X230619146Y-54327011D01*
X230609202Y-54257853D01*
X230638227Y-54194297D01*
X230644259Y-54187819D01*
X230729816Y-54102262D01*
X230825789Y-53949522D01*
X230885368Y-53779255D01*
X230894553Y-53697737D01*
X230905565Y-53600003D01*
X230905565Y-53599996D01*
X230885369Y-53420750D01*
X230885368Y-53420745D01*
X230825788Y-53250476D01*
X230729815Y-53097737D01*
X230602262Y-52970184D01*
X230449519Y-52874209D01*
X230346013Y-52837990D01*
X230299287Y-52808630D01*
X228274875Y-50784218D01*
X228241390Y-50722895D01*
X228239028Y-50685730D01*
X228255277Y-50500002D01*
X228255277Y-50499997D01*
X228249046Y-50428779D01*
X228236207Y-50282023D01*
X228235555Y-50279588D01*
X228235581Y-50278476D01*
X228235266Y-50276687D01*
X228235625Y-50276623D01*
X228237220Y-50209740D01*
X228276384Y-50151879D01*
X228340613Y-50124377D01*
X228355331Y-50123500D01*
X235019927Y-50123500D01*
X235086966Y-50143185D01*
G37*
G04 #@! TD.AperFunction*
G04 #@! TA.AperFunction,Conductor*
G36*
X225711708Y-50143185D02*
G01*
X225757463Y-50195989D01*
X225767407Y-50265147D01*
X225764445Y-50279590D01*
X225763793Y-50282021D01*
X225763793Y-50282024D01*
X225744723Y-50499997D01*
X225744723Y-50500002D01*
X225763793Y-50717975D01*
X225763793Y-50717979D01*
X225820422Y-50929322D01*
X225820424Y-50929326D01*
X225820425Y-50929330D01*
X225855309Y-51004139D01*
X225912897Y-51127638D01*
X225937998Y-51163486D01*
X226038402Y-51306877D01*
X226193123Y-51461598D01*
X226372361Y-51587102D01*
X226570670Y-51679575D01*
X226782023Y-51736207D01*
X226964926Y-51752208D01*
X226999998Y-51755277D01*
X227000000Y-51755277D01*
X227000002Y-51755277D01*
X227094058Y-51747048D01*
X227185730Y-51739028D01*
X227254230Y-51752795D01*
X227284218Y-51774875D01*
X229308630Y-53799287D01*
X229337990Y-53846013D01*
X229374209Y-53949519D01*
X229470184Y-54102262D01*
X229555741Y-54187819D01*
X229589226Y-54249142D01*
X229584242Y-54318834D01*
X229542370Y-54374767D01*
X229476906Y-54399184D01*
X229468060Y-54399500D01*
X206127589Y-54399500D01*
X206060550Y-54379815D01*
X206014795Y-54327011D01*
X206004369Y-54289383D01*
X205985369Y-54120750D01*
X205985368Y-54120745D01*
X205925789Y-53950478D01*
X205925188Y-53949522D01*
X205885636Y-53886575D01*
X205829816Y-53797738D01*
X205702262Y-53670184D01*
X205590570Y-53600003D01*
X205549523Y-53574211D01*
X205379254Y-53514631D01*
X205379249Y-53514630D01*
X205200004Y-53494435D01*
X205199996Y-53494435D01*
X205020750Y-53514630D01*
X205020745Y-53514631D01*
X204850476Y-53574211D01*
X204697736Y-53670185D01*
X204694903Y-53672445D01*
X204692724Y-53673334D01*
X204691842Y-53673889D01*
X204691744Y-53673734D01*
X204630217Y-53698855D01*
X204617588Y-53699500D01*
X203982941Y-53699500D01*
X203915902Y-53679815D01*
X203895260Y-53663182D01*
X203858100Y-53626022D01*
X203802262Y-53570184D01*
X203738805Y-53530311D01*
X203649523Y-53474211D01*
X203479254Y-53414631D01*
X203479249Y-53414630D01*
X203300004Y-53394435D01*
X203299996Y-53394435D01*
X203120750Y-53414630D01*
X203120745Y-53414631D01*
X202950476Y-53474211D01*
X202797737Y-53570184D01*
X202670184Y-53697737D01*
X202574211Y-53850476D01*
X202514631Y-54020745D01*
X202514630Y-54020750D01*
X202494435Y-54199996D01*
X202494435Y-54200003D01*
X202501377Y-54261617D01*
X202489322Y-54330439D01*
X202441973Y-54381818D01*
X202378157Y-54399500D01*
X182941519Y-54399500D01*
X182874480Y-54379815D01*
X182853838Y-54363181D01*
X182386818Y-53896161D01*
X182353333Y-53834838D01*
X182350499Y-53808480D01*
X182350499Y-51702129D01*
X182350498Y-51702123D01*
X182350497Y-51702116D01*
X182344091Y-51642517D01*
X182342542Y-51638365D01*
X182293797Y-51507671D01*
X182293793Y-51507664D01*
X182207547Y-51392455D01*
X182207544Y-51392452D01*
X182092335Y-51306206D01*
X182092328Y-51306202D01*
X181957482Y-51255908D01*
X181957483Y-51255908D01*
X181897883Y-51249501D01*
X181897881Y-51249500D01*
X181897873Y-51249500D01*
X181897864Y-51249500D01*
X179202129Y-51249500D01*
X179202123Y-51249501D01*
X179142516Y-51255908D01*
X179007671Y-51306202D01*
X179007664Y-51306206D01*
X178892455Y-51392452D01*
X178892452Y-51392455D01*
X178806206Y-51507664D01*
X178806202Y-51507671D01*
X178755908Y-51642517D01*
X178751924Y-51679577D01*
X178749501Y-51702123D01*
X178749500Y-51702135D01*
X178749500Y-54397870D01*
X178749501Y-54397876D01*
X178755908Y-54457483D01*
X178806202Y-54592328D01*
X178806206Y-54592335D01*
X178892452Y-54707544D01*
X178892455Y-54707547D01*
X179007664Y-54793793D01*
X179007671Y-54793797D01*
X179050551Y-54809790D01*
X179142517Y-54844091D01*
X179202127Y-54850500D01*
X179725500Y-54850499D01*
X179792539Y-54870183D01*
X179838294Y-54922987D01*
X179849500Y-54974499D01*
X179849500Y-69508480D01*
X179829815Y-69575519D01*
X179813181Y-69596161D01*
X179000710Y-70408631D01*
X178953985Y-70437991D01*
X178850476Y-70474211D01*
X178850475Y-70474212D01*
X178697737Y-70570184D01*
X178570184Y-70697737D01*
X178474212Y-70850475D01*
X178474211Y-70850476D01*
X178437992Y-70953984D01*
X178408632Y-71000709D01*
X171946162Y-77463181D01*
X171884839Y-77496666D01*
X171858481Y-77499500D01*
X171474500Y-77499500D01*
X171407461Y-77479815D01*
X171361706Y-77427011D01*
X171350500Y-77375500D01*
X171350499Y-76102129D01*
X171350498Y-76102123D01*
X171350497Y-76102116D01*
X171344091Y-76042517D01*
X171293796Y-75907669D01*
X171293795Y-75907668D01*
X171293793Y-75907664D01*
X171207547Y-75792455D01*
X171207544Y-75792452D01*
X171092335Y-75706206D01*
X171092328Y-75706202D01*
X170957482Y-75655908D01*
X170957483Y-75655908D01*
X170897883Y-75649501D01*
X170897881Y-75649500D01*
X170897873Y-75649500D01*
X170897864Y-75649500D01*
X169102129Y-75649500D01*
X169102123Y-75649501D01*
X169042516Y-75655908D01*
X168907671Y-75706202D01*
X168907664Y-75706206D01*
X168792455Y-75792452D01*
X168792452Y-75792455D01*
X168706206Y-75907664D01*
X168706202Y-75907671D01*
X168655908Y-76042517D01*
X168649501Y-76102116D01*
X168649500Y-76102127D01*
X168649500Y-76758332D01*
X168649501Y-77375500D01*
X168629816Y-77442539D01*
X168577013Y-77488294D01*
X168525501Y-77499500D01*
X167624000Y-77499500D01*
X167556961Y-77479815D01*
X167511206Y-77427011D01*
X167500000Y-77375500D01*
X167500000Y-53049995D01*
X168744451Y-53049995D01*
X168744451Y-53050004D01*
X168764616Y-53319101D01*
X168824664Y-53582188D01*
X168824666Y-53582195D01*
X168917724Y-53819302D01*
X168923257Y-53833398D01*
X169058185Y-54067102D01*
X169187946Y-54229816D01*
X169226442Y-54278089D01*
X169357293Y-54399500D01*
X169424259Y-54461635D01*
X169647226Y-54613651D01*
X169890359Y-54730738D01*
X170148228Y-54810280D01*
X170148229Y-54810280D01*
X170148232Y-54810281D01*
X170415063Y-54850499D01*
X170415068Y-54850499D01*
X170415071Y-54850500D01*
X170415072Y-54850500D01*
X170684928Y-54850500D01*
X170684929Y-54850500D01*
X170684936Y-54850499D01*
X170951767Y-54810281D01*
X170951768Y-54810280D01*
X170951772Y-54810280D01*
X171209641Y-54730738D01*
X171221695Y-54724932D01*
X171290636Y-54713578D01*
X171354771Y-54741298D01*
X171393738Y-54799292D01*
X171399500Y-54836651D01*
X171399500Y-58449902D01*
X171379815Y-58516941D01*
X171363181Y-58537583D01*
X170531465Y-59369298D01*
X170470142Y-59402783D01*
X170457668Y-59404837D01*
X170370750Y-59414630D01*
X170200478Y-59474210D01*
X170047737Y-59570184D01*
X169920184Y-59697737D01*
X169824211Y-59850476D01*
X169764631Y-60020745D01*
X169764630Y-60020750D01*
X169744435Y-60199996D01*
X169744435Y-60200003D01*
X169764630Y-60379249D01*
X169764631Y-60379254D01*
X169824211Y-60549523D01*
X169835034Y-60566747D01*
X169920184Y-60702262D01*
X170047738Y-60829816D01*
X170200478Y-60925789D01*
X170263202Y-60947737D01*
X170370745Y-60985368D01*
X170370750Y-60985369D01*
X170549996Y-61005565D01*
X170550000Y-61005565D01*
X170550004Y-61005565D01*
X170729249Y-60985369D01*
X170729252Y-60985368D01*
X170729255Y-60985368D01*
X170899522Y-60925789D01*
X171052262Y-60829816D01*
X171179816Y-60702262D01*
X171275789Y-60549522D01*
X171335368Y-60379255D01*
X171345161Y-60292329D01*
X171372226Y-60227918D01*
X171380690Y-60218543D01*
X172480520Y-59118716D01*
X172559577Y-58981784D01*
X172600501Y-58829057D01*
X172600501Y-58670942D01*
X172600501Y-58663347D01*
X172600500Y-58663329D01*
X172600500Y-54589060D01*
X172600501Y-54589047D01*
X172600501Y-54420944D01*
X172594755Y-54399500D01*
X172559577Y-54268216D01*
X172520191Y-54199996D01*
X172480524Y-54131290D01*
X172480518Y-54131282D01*
X172235811Y-53886575D01*
X172202326Y-53825252D01*
X172207310Y-53755560D01*
X172208028Y-53753684D01*
X172275334Y-53582195D01*
X172335383Y-53319103D01*
X172351972Y-53097737D01*
X172355549Y-53050004D01*
X172355549Y-53049995D01*
X173744953Y-53049995D01*
X173744953Y-53050004D01*
X173765113Y-53319026D01*
X173765113Y-53319028D01*
X173825142Y-53582033D01*
X173825148Y-53582052D01*
X173923709Y-53833181D01*
X173923708Y-53833181D01*
X174058602Y-54066822D01*
X174112294Y-54134151D01*
X174948957Y-53297487D01*
X174973978Y-53357890D01*
X175045112Y-53464351D01*
X175135649Y-53554888D01*
X175242110Y-53626022D01*
X175302510Y-53651041D01*
X174464848Y-54488702D01*
X174647483Y-54613220D01*
X174647485Y-54613221D01*
X174890539Y-54730269D01*
X174890537Y-54730269D01*
X175148337Y-54809790D01*
X175148343Y-54809792D01*
X175415101Y-54849999D01*
X175415110Y-54850000D01*
X175684890Y-54850000D01*
X175684898Y-54849999D01*
X175951656Y-54809792D01*
X175951662Y-54809790D01*
X176209461Y-54730269D01*
X176452521Y-54613218D01*
X176635150Y-54488702D01*
X175797488Y-53651041D01*
X175857890Y-53626022D01*
X175964351Y-53554888D01*
X176054888Y-53464351D01*
X176126022Y-53357890D01*
X176151041Y-53297488D01*
X176987703Y-54134151D01*
X176987704Y-54134150D01*
X177041393Y-54066828D01*
X177041400Y-54066817D01*
X177176290Y-53833181D01*
X177274851Y-53582052D01*
X177274857Y-53582033D01*
X177334886Y-53319028D01*
X177334886Y-53319026D01*
X177355047Y-53050004D01*
X177355047Y-53049995D01*
X177334886Y-52780973D01*
X177334886Y-52780971D01*
X177274857Y-52517966D01*
X177274851Y-52517947D01*
X177176290Y-52266818D01*
X177176291Y-52266818D01*
X177041397Y-52033177D01*
X176987704Y-51965847D01*
X176151041Y-52802510D01*
X176126022Y-52742110D01*
X176054888Y-52635649D01*
X175964351Y-52545112D01*
X175857890Y-52473978D01*
X175797488Y-52448958D01*
X176635150Y-51611296D01*
X176452517Y-51486779D01*
X176452516Y-51486778D01*
X176209460Y-51369730D01*
X176209462Y-51369730D01*
X175951662Y-51290209D01*
X175951656Y-51290207D01*
X175684898Y-51250000D01*
X175415101Y-51250000D01*
X175148343Y-51290207D01*
X175148337Y-51290209D01*
X174890538Y-51369730D01*
X174647485Y-51486778D01*
X174647476Y-51486783D01*
X174464848Y-51611296D01*
X175302511Y-52448958D01*
X175242110Y-52473978D01*
X175135649Y-52545112D01*
X175045112Y-52635649D01*
X174973978Y-52742110D01*
X174948958Y-52802511D01*
X174112295Y-51965848D01*
X174058600Y-52033180D01*
X173923709Y-52266818D01*
X173825148Y-52517947D01*
X173825142Y-52517966D01*
X173765113Y-52780971D01*
X173765113Y-52780973D01*
X173744953Y-53049995D01*
X172355549Y-53049995D01*
X172335389Y-52780973D01*
X172335383Y-52780897D01*
X172275334Y-52517805D01*
X172176743Y-52266602D01*
X172041815Y-52032898D01*
X171873561Y-51821915D01*
X171873560Y-51821914D01*
X171873557Y-51821910D01*
X171675741Y-51638365D01*
X171600552Y-51587102D01*
X171452775Y-51486349D01*
X171452769Y-51486346D01*
X171452768Y-51486345D01*
X171452767Y-51486344D01*
X171209643Y-51369263D01*
X171209645Y-51369263D01*
X170951773Y-51289720D01*
X170951767Y-51289718D01*
X170684936Y-51249500D01*
X170684929Y-51249500D01*
X170415071Y-51249500D01*
X170415063Y-51249500D01*
X170148232Y-51289718D01*
X170148226Y-51289720D01*
X169890358Y-51369262D01*
X169647230Y-51486346D01*
X169424258Y-51638365D01*
X169226442Y-51821910D01*
X169058185Y-52032898D01*
X168923258Y-52266599D01*
X168923256Y-52266603D01*
X168824666Y-52517804D01*
X168824664Y-52517811D01*
X168764616Y-52780898D01*
X168744451Y-53049995D01*
X167500000Y-53049995D01*
X167500000Y-50247500D01*
X167519685Y-50180461D01*
X167572489Y-50134706D01*
X167624000Y-50123500D01*
X225644669Y-50123500D01*
X225711708Y-50143185D01*
G37*
G04 #@! TD.AperFunction*
M02*
