G04 #@! TF.GenerationSoftware,KiCad,Pcbnew,8.0.6*
G04 #@! TF.CreationDate,2024-12-07T18:03:21-08:00*
G04 #@! TF.ProjectId,Soil Power Sensor,536f696c-2050-46f7-9765-722053656e73,2.2.3*
G04 #@! TF.SameCoordinates,Original*
G04 #@! TF.FileFunction,Copper,L2,Bot*
G04 #@! TF.FilePolarity,Positive*
%FSLAX46Y46*%
G04 Gerber Fmt 4.6, Leading zero omitted, Abs format (unit mm)*
G04 Created by KiCad (PCBNEW 8.0.6) date 2024-12-07 18:03:21*
%MOMM*%
%LPD*%
G01*
G04 APERTURE LIST*
G04 #@! TA.AperFunction,ComponentPad*
%ADD10R,1.700000X1.700000*%
G04 #@! TD*
G04 #@! TA.AperFunction,ComponentPad*
%ADD11O,1.700000X1.700000*%
G04 #@! TD*
G04 #@! TA.AperFunction,ComponentPad*
%ADD12C,3.600000*%
G04 #@! TD*
G04 #@! TA.AperFunction,ConnectorPad*
%ADD13C,5.700000*%
G04 #@! TD*
G04 #@! TA.AperFunction,ComponentPad*
%ADD14R,2.600000X2.600000*%
G04 #@! TD*
G04 #@! TA.AperFunction,ComponentPad*
%ADD15C,2.600000*%
G04 #@! TD*
G04 #@! TA.AperFunction,ViaPad*
%ADD16C,0.600000*%
G04 #@! TD*
G04 #@! TA.AperFunction,Conductor*
%ADD17C,0.400000*%
G04 #@! TD*
G04 #@! TA.AperFunction,Conductor*
%ADD18C,0.200000*%
G04 #@! TD*
G04 APERTURE END LIST*
D10*
X246400000Y-58100000D03*
D11*
X246400000Y-60640000D03*
X246400000Y-63180000D03*
X246400000Y-65720000D03*
X246400000Y-68260000D03*
X246400000Y-70800000D03*
X246400000Y-73340000D03*
X246400000Y-75880000D03*
X246400000Y-78420000D03*
X246400000Y-80960000D03*
D12*
X116500000Y-51500000D03*
D13*
X116500000Y-51500000D03*
D12*
X116500000Y-87000000D03*
D13*
X116500000Y-87000000D03*
D14*
X180550000Y-53050000D03*
D15*
X175550000Y-53050000D03*
X170550000Y-53050000D03*
D10*
X128500000Y-66800000D03*
D11*
X128500000Y-64260000D03*
D12*
X246500000Y-51500000D03*
D13*
X246500000Y-51500000D03*
D10*
X169060000Y-79060000D03*
D11*
X171600000Y-79060000D03*
X169060000Y-81600000D03*
X171600000Y-81600000D03*
X169060000Y-84140000D03*
X171600000Y-84140000D03*
X169060000Y-86680000D03*
X171600000Y-86680000D03*
X169060000Y-89220000D03*
X171600000Y-89220000D03*
D14*
X118000000Y-59000000D03*
D15*
X118000000Y-64000000D03*
X118000000Y-69000000D03*
X118000000Y-74000000D03*
X118000000Y-79000000D03*
D12*
X246500000Y-87000000D03*
D13*
X246500000Y-87000000D03*
D16*
X180547000Y-80547000D03*
X188250000Y-78150000D03*
X208250000Y-75000000D03*
X141500000Y-54190000D03*
X155175000Y-73425000D03*
X169975000Y-76000000D03*
X209750000Y-58840000D03*
X211000000Y-69700000D03*
X184500000Y-63600000D03*
X157000000Y-68600000D03*
X239843331Y-64712127D03*
X211646000Y-78800000D03*
X190000000Y-60200000D03*
X193500000Y-54810000D03*
X149000000Y-60800000D03*
X204802354Y-88347646D03*
X196000000Y-58890000D03*
X152800000Y-75800000D03*
X185150000Y-58950000D03*
X173600000Y-72600000D03*
X200850000Y-61600000D03*
X149600000Y-75800000D03*
X149400000Y-62200000D03*
X159200000Y-77200000D03*
X192550000Y-69600000D03*
X136600000Y-72000000D03*
X161100000Y-79100000D03*
X139000000Y-61800000D03*
X179400000Y-65800000D03*
X151000000Y-58400000D03*
X162400000Y-77050000D03*
X228000000Y-81600000D03*
X191450000Y-56950000D03*
X188800000Y-83450000D03*
X162350000Y-66200000D03*
X200500000Y-73400000D03*
X197200000Y-72250000D03*
X173000000Y-61250000D03*
X156850000Y-66200000D03*
X211000000Y-86600000D03*
X186950000Y-67250000D03*
X210400000Y-53550000D03*
X158700000Y-72700000D03*
X139800000Y-72000000D03*
X156347998Y-63465000D03*
X155000000Y-71000000D03*
X152775000Y-74000000D03*
X136570000Y-58000000D03*
X179200000Y-71200000D03*
X144600000Y-78200000D03*
X239843331Y-90112127D03*
X140737500Y-76740000D03*
X141400000Y-69000000D03*
X146600000Y-59000000D03*
X146600000Y-62200000D03*
X177900000Y-77500000D03*
X193900000Y-62700000D03*
X193850000Y-61450000D03*
X177914069Y-76473000D03*
X202100000Y-54100000D03*
X200400000Y-54100000D03*
X173400000Y-75177000D03*
X179600000Y-74000000D03*
X163800000Y-84750000D03*
X193000000Y-88200000D03*
X136570000Y-56730000D03*
X128500000Y-58050000D03*
X128500000Y-72150000D03*
X184500000Y-64600000D03*
X183350000Y-69250000D03*
X150770000Y-62775000D03*
X155800000Y-59600000D03*
X150690000Y-70500000D03*
X152200000Y-63425000D03*
X156800000Y-60000000D03*
X170550000Y-60200000D03*
X174400000Y-77800000D03*
X175800000Y-87600000D03*
X243000000Y-58400000D03*
X209000000Y-54400000D03*
X203819000Y-81800000D03*
X209720000Y-81220000D03*
X196850000Y-80600000D03*
X178673000Y-79600000D03*
X196600000Y-88000000D03*
X202673000Y-86700000D03*
X200578000Y-88600000D03*
X203800000Y-78627000D03*
X214100000Y-78500000D03*
X178673000Y-84893356D03*
X198900000Y-86500000D03*
X199200000Y-82900000D03*
X153250000Y-84200000D03*
X175000000Y-85000000D03*
X239843331Y-85032127D03*
X241375000Y-58400000D03*
D17*
X204802354Y-87197646D02*
X211646000Y-80354000D01*
X196040000Y-58850000D02*
X209740000Y-58850000D01*
X188400000Y-78150000D02*
X188250000Y-78150000D01*
X211000000Y-60090000D02*
X209750000Y-58840000D01*
X169975000Y-76000000D02*
X173973000Y-76000000D01*
X211000000Y-62000000D02*
X211000000Y-60090000D01*
X211000000Y-69700000D02*
X208250000Y-72450000D01*
X211000000Y-69700000D02*
X211000000Y-62000000D01*
X209740000Y-58850000D02*
X209750000Y-58840000D01*
X196000000Y-57310000D02*
X193500000Y-54810000D01*
X208250000Y-72450000D02*
X208250000Y-75000000D01*
X236162127Y-64712127D02*
X239843331Y-64712127D01*
X155175000Y-73425000D02*
X152800000Y-75800000D01*
X144190000Y-54190000D02*
X149000000Y-59000000D01*
X204802354Y-88347646D02*
X204802354Y-87197646D01*
X196000000Y-58890000D02*
X196040000Y-58850000D01*
X189250000Y-77300000D02*
X207504000Y-77300000D01*
X149000000Y-59000000D02*
X149000000Y-60800000D01*
X196000000Y-58890000D02*
X196000000Y-57310000D01*
X185300000Y-63600000D02*
X184500000Y-63600000D01*
X211646000Y-80354000D02*
X211646000Y-78800000D01*
X173973000Y-76000000D02*
X178520000Y-80547000D01*
X189250000Y-77300000D02*
X188400000Y-78150000D01*
X157000000Y-68600000D02*
X157000000Y-71600000D01*
X190000000Y-60200000D02*
X188700000Y-60200000D01*
X141500000Y-54190000D02*
X144190000Y-54190000D01*
X194690000Y-60200000D02*
X190000000Y-60200000D01*
X157000000Y-71600000D02*
X155175000Y-73425000D01*
X211000000Y-62000000D02*
X233450000Y-62000000D01*
X178520000Y-80547000D02*
X180547000Y-80547000D01*
X196000000Y-58890000D02*
X194690000Y-60200000D01*
X207504000Y-77300000D02*
X208250000Y-76554000D01*
X188700000Y-60200000D02*
X185300000Y-63600000D01*
X208250000Y-75000000D02*
X208250000Y-76554000D01*
X233450000Y-62000000D02*
X236162127Y-64712127D01*
D18*
X155000000Y-64812998D02*
X155000000Y-71000000D01*
X156347998Y-63465000D02*
X155000000Y-64812998D01*
X148473000Y-60073000D02*
X146400000Y-58000000D01*
X152775000Y-73975000D02*
X148473000Y-69673000D01*
X152775000Y-74000000D02*
X152775000Y-73975000D01*
X146400000Y-58000000D02*
X136570000Y-58000000D01*
X148473000Y-69673000D02*
X148473000Y-60073000D01*
D17*
X168200000Y-73400000D02*
X177000000Y-73400000D01*
X166000000Y-78200000D02*
X166200000Y-78000000D01*
X166200000Y-78000000D02*
X166200000Y-75400000D01*
X180550000Y-69850000D02*
X179200000Y-71200000D01*
X166200000Y-75400000D02*
X168200000Y-73400000D01*
X144600000Y-78200000D02*
X166000000Y-78200000D01*
X180550000Y-53050000D02*
X180550000Y-69850000D01*
X177000000Y-73400000D02*
X179200000Y-71200000D01*
D18*
X150320000Y-85800000D02*
X150320000Y-81347000D01*
X146600000Y-63800000D02*
X141400000Y-69000000D01*
X205727254Y-90297000D02*
X177289261Y-90297000D01*
X147700000Y-78727000D02*
X143247000Y-78727000D01*
X205912127Y-90112127D02*
X205727254Y-90297000D01*
X142000000Y-69600000D02*
X141400000Y-69000000D01*
X167827354Y-85572646D02*
X167600000Y-85800000D01*
X150320000Y-81347000D02*
X147700000Y-78727000D01*
X142000000Y-76000000D02*
X142000000Y-69600000D01*
X177289261Y-90297000D02*
X174946000Y-87953739D01*
X173310198Y-85572646D02*
X167827354Y-85572646D01*
X239843331Y-90112127D02*
X205912127Y-90112127D01*
X140737500Y-76740000D02*
X141260000Y-76740000D01*
X167600000Y-85800000D02*
X150320000Y-85800000D01*
X141260000Y-76740000D02*
X142000000Y-76000000D01*
X146600000Y-59000000D02*
X146600000Y-63800000D01*
X143247000Y-78727000D02*
X141260000Y-76740000D01*
X174946000Y-87953739D02*
X174946000Y-87208448D01*
X174946000Y-87208448D02*
X173310198Y-85572646D01*
X193700000Y-62700000D02*
X193900000Y-62700000D01*
X178900000Y-77500000D02*
X193700000Y-62700000D01*
X177900000Y-77500000D02*
X178900000Y-77500000D01*
X179464552Y-76473000D02*
X193373000Y-62564552D01*
X193373000Y-61927000D02*
X193850000Y-61450000D01*
X202100000Y-54100000D02*
X200400000Y-54100000D01*
X177914069Y-76473000D02*
X179464552Y-76473000D01*
X193373000Y-62564552D02*
X193373000Y-61927000D01*
X173400000Y-75177000D02*
X173577000Y-75000000D01*
X173577000Y-75000000D02*
X178600000Y-75000000D01*
X178600000Y-75000000D02*
X179600000Y-74000000D01*
X175273000Y-87073000D02*
X175273000Y-87818291D01*
X175654709Y-88200000D02*
X193000000Y-88200000D01*
X164267000Y-85217000D02*
X173417000Y-85217000D01*
X173417000Y-85217000D02*
X175273000Y-87073000D01*
X163800000Y-84750000D02*
X164267000Y-85217000D01*
X175273000Y-87818291D02*
X175654709Y-88200000D01*
X118000000Y-59000000D02*
X127550000Y-59000000D01*
X135250000Y-58050000D02*
X136570000Y-56730000D01*
X127550000Y-59000000D02*
X128500000Y-58050000D01*
X128500000Y-58050000D02*
X135250000Y-58050000D01*
X126150000Y-72150000D02*
X118000000Y-64000000D01*
X128500000Y-72150000D02*
X126150000Y-72150000D01*
X183350000Y-69250000D02*
X184500000Y-68100000D01*
X184500000Y-68100000D02*
X184500000Y-64600000D01*
X152200000Y-64205000D02*
X152200000Y-68990000D01*
X150770000Y-62775000D02*
X152625000Y-62775000D01*
X150770000Y-62775000D02*
X152200000Y-64205000D01*
X152625000Y-62775000D02*
X155800000Y-59600000D01*
X152200000Y-68990000D02*
X150690000Y-70500000D01*
X153375000Y-63425000D02*
X156800000Y-60000000D01*
X152200000Y-63425000D02*
X153375000Y-63425000D01*
X172000000Y-58750000D02*
X172000000Y-54500000D01*
X170550000Y-60200000D02*
X172000000Y-58750000D01*
X172000000Y-54500000D02*
X170550000Y-53050000D01*
X175800000Y-79200000D02*
X175800000Y-87600000D01*
X174400000Y-77800000D02*
X175800000Y-79200000D01*
D17*
X209000000Y-54400000D02*
X239000000Y-54400000D01*
X244400000Y-59800000D02*
X244400000Y-66260000D01*
X243000000Y-58400000D02*
X244400000Y-59800000D01*
X244400000Y-66260000D02*
X246400000Y-68260000D01*
X239000000Y-54400000D02*
X243000000Y-58400000D01*
D18*
X203819000Y-81800000D02*
X209140000Y-81800000D01*
X178673000Y-79600000D02*
X195850000Y-79600000D01*
X209140000Y-81800000D02*
X209720000Y-81220000D01*
X195850000Y-79600000D02*
X196850000Y-80600000D01*
X201373000Y-88000000D02*
X196600000Y-88000000D01*
X202673000Y-86700000D02*
X201373000Y-88000000D01*
X200578000Y-88600000D02*
X202400000Y-88600000D01*
X203200000Y-79227000D02*
X203800000Y-78627000D01*
X203200000Y-87800000D02*
X203200000Y-79227000D01*
X202400000Y-88600000D02*
X203200000Y-87800000D01*
X182059712Y-81127000D02*
X199100709Y-81127000D01*
X213700000Y-78100000D02*
X214100000Y-78500000D01*
X178673000Y-84893356D02*
X178673000Y-84513712D01*
X202127709Y-78100000D02*
X213700000Y-78100000D01*
X199100709Y-81127000D02*
X202127709Y-78100000D01*
X178673000Y-84513712D02*
X182059712Y-81127000D01*
X199200000Y-82900000D02*
X198900000Y-83200000D01*
X198900000Y-83200000D02*
X198900000Y-86500000D01*
X169060000Y-79340000D02*
X164200000Y-84200000D01*
X169060000Y-79060000D02*
X169060000Y-79340000D01*
X164200000Y-84200000D02*
X153250000Y-84200000D01*
X173800000Y-83800000D02*
X173800000Y-81260000D01*
X175000000Y-85000000D02*
X173800000Y-83800000D01*
X173800000Y-81260000D02*
X171600000Y-79060000D01*
X238700000Y-78900000D02*
X238700000Y-83888796D01*
X238700000Y-83888796D02*
X239843331Y-85032127D01*
X243400000Y-77200000D02*
X241700000Y-78900000D01*
X243400000Y-61200000D02*
X243400000Y-77200000D01*
X241375000Y-58400000D02*
X241375000Y-59175000D01*
X241375000Y-59175000D02*
X243400000Y-61200000D01*
X241700000Y-78900000D02*
X238700000Y-78900000D01*
G04 #@! TA.AperFunction,Conductor*
G36*
X165443039Y-48519685D02*
G01*
X165488794Y-48572489D01*
X165500000Y-48624000D01*
X165500000Y-75319839D01*
X165499500Y-75330017D01*
X165499500Y-77375500D01*
X165479815Y-77442539D01*
X165427011Y-77488294D01*
X165375500Y-77499500D01*
X145025494Y-77499500D01*
X144959523Y-77480494D01*
X144949525Y-77474212D01*
X144779254Y-77414631D01*
X144779249Y-77414630D01*
X144600004Y-77394435D01*
X144599996Y-77394435D01*
X144420750Y-77414630D01*
X144420745Y-77414631D01*
X144250476Y-77474211D01*
X144097737Y-77570184D01*
X143970184Y-77697737D01*
X143874210Y-77850478D01*
X143814629Y-78020753D01*
X143813080Y-78027541D01*
X143810663Y-78026989D01*
X143788066Y-78080785D01*
X143730477Y-78120348D01*
X143691903Y-78126500D01*
X143547097Y-78126500D01*
X143480058Y-78106815D01*
X143459416Y-78090181D01*
X142196915Y-76827680D01*
X142163430Y-76766357D01*
X142168414Y-76696665D01*
X142196912Y-76652322D01*
X142368713Y-76480521D01*
X142368716Y-76480520D01*
X142480520Y-76368716D01*
X142530639Y-76281904D01*
X142559577Y-76231785D01*
X142600501Y-76079057D01*
X142600501Y-75920943D01*
X142600501Y-75913348D01*
X142600500Y-75913330D01*
X142600500Y-69520943D01*
X142595494Y-69502263D01*
X142595493Y-69502259D01*
X142567895Y-69399260D01*
X142559577Y-69368215D01*
X142502531Y-69269409D01*
X142480520Y-69231284D01*
X142368716Y-69119480D01*
X142368715Y-69119479D01*
X142364385Y-69115149D01*
X142364374Y-69115139D01*
X142336916Y-69087681D01*
X142303431Y-69026358D01*
X142308415Y-68956666D01*
X142336916Y-68912319D01*
X144049735Y-67199500D01*
X147080520Y-64168716D01*
X147159577Y-64031784D01*
X147200501Y-63879057D01*
X147200501Y-63720942D01*
X147200501Y-63713347D01*
X147200500Y-63713329D01*
X147200500Y-62782412D01*
X147220185Y-62715373D01*
X147227555Y-62705097D01*
X147229810Y-62702267D01*
X147229816Y-62702262D01*
X147325789Y-62549522D01*
X147385368Y-62379255D01*
X147385369Y-62379249D01*
X147405565Y-62200003D01*
X147405565Y-62199996D01*
X147385369Y-62020750D01*
X147385368Y-62020745D01*
X147325788Y-61850476D01*
X147229813Y-61697734D01*
X147227550Y-61694896D01*
X147226659Y-61692715D01*
X147226111Y-61691842D01*
X147226264Y-61691745D01*
X147201144Y-61630209D01*
X147200500Y-61617587D01*
X147200500Y-59949097D01*
X147220185Y-59882058D01*
X147272989Y-59836303D01*
X147342147Y-59826359D01*
X147405703Y-59855384D01*
X147412181Y-59861416D01*
X147836181Y-60285416D01*
X147869666Y-60346739D01*
X147872500Y-60373097D01*
X147872500Y-69586330D01*
X147872499Y-69586348D01*
X147872499Y-69752054D01*
X147872498Y-69752054D01*
X147906182Y-69877760D01*
X147913423Y-69904785D01*
X147920083Y-69916321D01*
X147942358Y-69954900D01*
X147942359Y-69954904D01*
X147942360Y-69954904D01*
X147992479Y-70041714D01*
X147992481Y-70041717D01*
X148111349Y-70160585D01*
X148111355Y-70160590D01*
X151941123Y-73990359D01*
X151974608Y-74051682D01*
X151976662Y-74064156D01*
X151989630Y-74179249D01*
X152049210Y-74349521D01*
X152049211Y-74349522D01*
X152145184Y-74502262D01*
X152272738Y-74629816D01*
X152425478Y-74725789D01*
X152425480Y-74725790D01*
X152578543Y-74779350D01*
X152635319Y-74820071D01*
X152661066Y-74885024D01*
X152647610Y-74953586D01*
X152625269Y-74984072D01*
X152600709Y-75008632D01*
X152553984Y-75037992D01*
X152450476Y-75074211D01*
X152450475Y-75074212D01*
X152297737Y-75170184D01*
X152170184Y-75297737D01*
X152074211Y-75450476D01*
X152014631Y-75620745D01*
X152014630Y-75620750D01*
X151994435Y-75799996D01*
X151994435Y-75800003D01*
X152014630Y-75979249D01*
X152014631Y-75979254D01*
X152074211Y-76149523D01*
X152157392Y-76281904D01*
X152170184Y-76302262D01*
X152297738Y-76429816D01*
X152450478Y-76525789D01*
X152550377Y-76560745D01*
X152620745Y-76585368D01*
X152620750Y-76585369D01*
X152799996Y-76605565D01*
X152800000Y-76605565D01*
X152800004Y-76605565D01*
X152979249Y-76585369D01*
X152979252Y-76585368D01*
X152979255Y-76585368D01*
X153149522Y-76525789D01*
X153302262Y-76429816D01*
X153429816Y-76302262D01*
X153525789Y-76149522D01*
X153562007Y-76046013D01*
X153591365Y-75999290D01*
X155374290Y-74216365D01*
X155421013Y-74187007D01*
X155524522Y-74150789D01*
X155677262Y-74054816D01*
X155804816Y-73927262D01*
X155900789Y-73774522D01*
X155937007Y-73671013D01*
X155966365Y-73624290D01*
X157544114Y-72046543D01*
X157620775Y-71931811D01*
X157673580Y-71804328D01*
X157700500Y-71668994D01*
X157700500Y-71531006D01*
X157700500Y-69025493D01*
X157719508Y-68959519D01*
X157725787Y-68949525D01*
X157725786Y-68949525D01*
X157725789Y-68949522D01*
X157785368Y-68779255D01*
X157785369Y-68779249D01*
X157805565Y-68600003D01*
X157805565Y-68599996D01*
X157785369Y-68420750D01*
X157785368Y-68420745D01*
X157767676Y-68370184D01*
X157725789Y-68250478D01*
X157704501Y-68216599D01*
X157674780Y-68169298D01*
X157629816Y-68097738D01*
X157502262Y-67970184D01*
X157349523Y-67874211D01*
X157179254Y-67814631D01*
X157179249Y-67814630D01*
X157000004Y-67794435D01*
X156999996Y-67794435D01*
X156820750Y-67814630D01*
X156820745Y-67814631D01*
X156650476Y-67874211D01*
X156497737Y-67970184D01*
X156370184Y-68097737D01*
X156274211Y-68250476D01*
X156214631Y-68420745D01*
X156214630Y-68420750D01*
X156194435Y-68599996D01*
X156194435Y-68600003D01*
X156214630Y-68779249D01*
X156214631Y-68779254D01*
X156274212Y-68949525D01*
X156280492Y-68959519D01*
X156299500Y-69025493D01*
X156299500Y-71258480D01*
X156279815Y-71325519D01*
X156263181Y-71346161D01*
X154975709Y-72633632D01*
X154928984Y-72662992D01*
X154825476Y-72699211D01*
X154825475Y-72699212D01*
X154672737Y-72795184D01*
X154545184Y-72922737D01*
X154449212Y-73075475D01*
X154449211Y-73075476D01*
X154412992Y-73178984D01*
X154383632Y-73225709D01*
X153759072Y-73850269D01*
X153697749Y-73883754D01*
X153628057Y-73878770D01*
X153572124Y-73836898D01*
X153554350Y-73803543D01*
X153500790Y-73650480D01*
X153496908Y-73644302D01*
X153404816Y-73497738D01*
X153277262Y-73370184D01*
X153214911Y-73331006D01*
X153124521Y-73274210D01*
X152954249Y-73214630D01*
X152895504Y-73208011D01*
X152831090Y-73180944D01*
X152821708Y-73172472D01*
X151048449Y-71399213D01*
X151014964Y-71337890D01*
X151019948Y-71268198D01*
X151061820Y-71212265D01*
X151070139Y-71206550D01*
X151192262Y-71129816D01*
X151319816Y-71002262D01*
X151321240Y-70999996D01*
X154194435Y-70999996D01*
X154194435Y-71000003D01*
X154214630Y-71179249D01*
X154214631Y-71179254D01*
X154274211Y-71349523D01*
X154283705Y-71364632D01*
X154370184Y-71502262D01*
X154497738Y-71629816D01*
X154650478Y-71725789D01*
X154820745Y-71785368D01*
X154820750Y-71785369D01*
X154999996Y-71805565D01*
X155000000Y-71805565D01*
X155000004Y-71805565D01*
X155179249Y-71785369D01*
X155179252Y-71785368D01*
X155179255Y-71785368D01*
X155349522Y-71725789D01*
X155502262Y-71629816D01*
X155629816Y-71502262D01*
X155725789Y-71349522D01*
X155785368Y-71179255D01*
X155785369Y-71179249D01*
X155805565Y-71000003D01*
X155805565Y-70999996D01*
X155785369Y-70820750D01*
X155785368Y-70820745D01*
X155736377Y-70680737D01*
X155725789Y-70650478D01*
X155629816Y-70497738D01*
X155629814Y-70497736D01*
X155629813Y-70497734D01*
X155627550Y-70494896D01*
X155626659Y-70492715D01*
X155626111Y-70491842D01*
X155626264Y-70491745D01*
X155601144Y-70430209D01*
X155600500Y-70417587D01*
X155600500Y-65113094D01*
X155620185Y-65046055D01*
X155636815Y-65025417D01*
X156366533Y-64295698D01*
X156427854Y-64262215D01*
X156440309Y-64260163D01*
X156527253Y-64250368D01*
X156697520Y-64190789D01*
X156850260Y-64094816D01*
X156977814Y-63967262D01*
X157073787Y-63814522D01*
X157133366Y-63644255D01*
X157138665Y-63597226D01*
X157153563Y-63465003D01*
X157153563Y-63464996D01*
X157133367Y-63285750D01*
X157133366Y-63285745D01*
X157076952Y-63124523D01*
X157073787Y-63115478D01*
X156977814Y-62962738D01*
X156850260Y-62835184D01*
X156754478Y-62775000D01*
X156697521Y-62739211D01*
X156527252Y-62679631D01*
X156527247Y-62679630D01*
X156348002Y-62659435D01*
X156347994Y-62659435D01*
X156168748Y-62679630D01*
X156168743Y-62679631D01*
X155998474Y-62739211D01*
X155845735Y-62835184D01*
X155718182Y-62962737D01*
X155622208Y-63115478D01*
X155562628Y-63285750D01*
X155552835Y-63372668D01*
X155525768Y-63437082D01*
X155517296Y-63446465D01*
X154631286Y-64332476D01*
X154519481Y-64444280D01*
X154519479Y-64444282D01*
X154514022Y-64453735D01*
X154489963Y-64495408D01*
X154440423Y-64581213D01*
X154399499Y-64733941D01*
X154399499Y-64733943D01*
X154399499Y-64902044D01*
X154399500Y-64902057D01*
X154399500Y-70417587D01*
X154379815Y-70484626D01*
X154372450Y-70494896D01*
X154370186Y-70497734D01*
X154274211Y-70650476D01*
X154214631Y-70820745D01*
X154214630Y-70820750D01*
X154194435Y-70999996D01*
X151321240Y-70999996D01*
X151415789Y-70849522D01*
X151475368Y-70679255D01*
X151485161Y-70592329D01*
X151512226Y-70527918D01*
X151520690Y-70518543D01*
X152558506Y-69480728D01*
X152558511Y-69480724D01*
X152568714Y-69470520D01*
X152568716Y-69470520D01*
X152680520Y-69358716D01*
X152759577Y-69221784D01*
X152800500Y-69069057D01*
X152800500Y-64149500D01*
X152820185Y-64082461D01*
X152872989Y-64036706D01*
X152924500Y-64025500D01*
X153288331Y-64025500D01*
X153288347Y-64025501D01*
X153295943Y-64025501D01*
X153454054Y-64025501D01*
X153454057Y-64025501D01*
X153606785Y-63984577D01*
X153656904Y-63955639D01*
X153743716Y-63905520D01*
X153855520Y-63793716D01*
X153855520Y-63793714D01*
X153865728Y-63783507D01*
X153865730Y-63783504D01*
X156818535Y-60830698D01*
X156879856Y-60797215D01*
X156892311Y-60795163D01*
X156979255Y-60785368D01*
X157149522Y-60725789D01*
X157302262Y-60629816D01*
X157429816Y-60502262D01*
X157525789Y-60349522D01*
X157585368Y-60179255D01*
X157605565Y-60000000D01*
X157592276Y-59882058D01*
X157585369Y-59820750D01*
X157585368Y-59820745D01*
X157525788Y-59650476D01*
X157436055Y-59507668D01*
X157429816Y-59497738D01*
X157302262Y-59370184D01*
X157269379Y-59349522D01*
X157149523Y-59274211D01*
X156979254Y-59214631D01*
X156979249Y-59214630D01*
X156800004Y-59194435D01*
X156799996Y-59194435D01*
X156620746Y-59214631D01*
X156620742Y-59214632D01*
X156617767Y-59215673D01*
X156615726Y-59215777D01*
X156613956Y-59216181D01*
X156613885Y-59215870D01*
X156547988Y-59219229D01*
X156487363Y-59184495D01*
X156471828Y-59164600D01*
X156429815Y-59097737D01*
X156302262Y-58970184D01*
X156149523Y-58874211D01*
X155979254Y-58814631D01*
X155979249Y-58814630D01*
X155800004Y-58794435D01*
X155799996Y-58794435D01*
X155620750Y-58814630D01*
X155620745Y-58814631D01*
X155450476Y-58874211D01*
X155297737Y-58970184D01*
X155170184Y-59097737D01*
X155074210Y-59250478D01*
X155014630Y-59420750D01*
X155004837Y-59507668D01*
X154977770Y-59572082D01*
X154969298Y-59581465D01*
X152412584Y-62138181D01*
X152351261Y-62171666D01*
X152324903Y-62174500D01*
X151352412Y-62174500D01*
X151285373Y-62154815D01*
X151275097Y-62147445D01*
X151272263Y-62145185D01*
X151272262Y-62145184D01*
X151215496Y-62109515D01*
X151119523Y-62049211D01*
X150949254Y-61989631D01*
X150949249Y-61989630D01*
X150770004Y-61969435D01*
X150769996Y-61969435D01*
X150590750Y-61989630D01*
X150590745Y-61989631D01*
X150420476Y-62049211D01*
X150267737Y-62145184D01*
X150140184Y-62272737D01*
X150044211Y-62425476D01*
X149984631Y-62595745D01*
X149984630Y-62595750D01*
X149964435Y-62774996D01*
X149964435Y-62775003D01*
X149984630Y-62954249D01*
X149984631Y-62954254D01*
X150044211Y-63124523D01*
X150105150Y-63221506D01*
X150140184Y-63277262D01*
X150267738Y-63404816D01*
X150420478Y-63500789D01*
X150590745Y-63560368D01*
X150677669Y-63570161D01*
X150742080Y-63597226D01*
X150751465Y-63605700D01*
X151563181Y-64417416D01*
X151596666Y-64478739D01*
X151599500Y-64505097D01*
X151599500Y-68689902D01*
X151579815Y-68756941D01*
X151563181Y-68777583D01*
X150671465Y-69669298D01*
X150610142Y-69702783D01*
X150597668Y-69704837D01*
X150510750Y-69714630D01*
X150340478Y-69774210D01*
X150187737Y-69870184D01*
X150060182Y-69997739D01*
X149983460Y-70119842D01*
X149931126Y-70166132D01*
X149862072Y-70176780D01*
X149798224Y-70148405D01*
X149790786Y-70141550D01*
X149109819Y-69460583D01*
X149076334Y-69399260D01*
X149073500Y-69372902D01*
X149073500Y-61708097D01*
X149093185Y-61641058D01*
X149145989Y-61595303D01*
X149172691Y-61587905D01*
X149172466Y-61586918D01*
X149179251Y-61585369D01*
X149179253Y-61585368D01*
X149179255Y-61585368D01*
X149349522Y-61525789D01*
X149502262Y-61429816D01*
X149629816Y-61302262D01*
X149725789Y-61149522D01*
X149785368Y-60979255D01*
X149805565Y-60800000D01*
X149805251Y-60797215D01*
X149785369Y-60620750D01*
X149785366Y-60620737D01*
X149725790Y-60450479D01*
X149719506Y-60440478D01*
X149700500Y-60374507D01*
X149700500Y-58931004D01*
X149673581Y-58795677D01*
X149673580Y-58795676D01*
X149673580Y-58795672D01*
X149665344Y-58775789D01*
X149644633Y-58725789D01*
X149620778Y-58668196D01*
X149620777Y-58668195D01*
X149620775Y-58668189D01*
X149544114Y-58553457D01*
X149544112Y-58553454D01*
X144636545Y-53645887D01*
X144521807Y-53569222D01*
X144394332Y-53516421D01*
X144394322Y-53516418D01*
X144258996Y-53489500D01*
X144258994Y-53489500D01*
X144258993Y-53489500D01*
X141925494Y-53489500D01*
X141859523Y-53470494D01*
X141849525Y-53464212D01*
X141679254Y-53404631D01*
X141679249Y-53404630D01*
X141500004Y-53384435D01*
X141499996Y-53384435D01*
X141320750Y-53404630D01*
X141320745Y-53404631D01*
X141150476Y-53464211D01*
X140997737Y-53560184D01*
X140870184Y-53687737D01*
X140774211Y-53840476D01*
X140714631Y-54010745D01*
X140714630Y-54010750D01*
X140694435Y-54189996D01*
X140694435Y-54190003D01*
X140714630Y-54369249D01*
X140714631Y-54369254D01*
X140774211Y-54539523D01*
X140870184Y-54692262D01*
X140997738Y-54819816D01*
X141088080Y-54876582D01*
X141150474Y-54915787D01*
X141150478Y-54915789D01*
X141320745Y-54975368D01*
X141320750Y-54975369D01*
X141499996Y-54995565D01*
X141500000Y-54995565D01*
X141500004Y-54995565D01*
X141679249Y-54975369D01*
X141679252Y-54975368D01*
X141679255Y-54975368D01*
X141849522Y-54915789D01*
X141850488Y-54915181D01*
X141859523Y-54909506D01*
X141925494Y-54890500D01*
X143848481Y-54890500D01*
X143915520Y-54910185D01*
X143936162Y-54926819D01*
X146197162Y-57187819D01*
X146230647Y-57249142D01*
X146225663Y-57318834D01*
X146183791Y-57374767D01*
X146118327Y-57399184D01*
X146109481Y-57399500D01*
X137319095Y-57399500D01*
X137252056Y-57379815D01*
X137206301Y-57327011D01*
X137196357Y-57257853D01*
X137214101Y-57209528D01*
X137295788Y-57079523D01*
X137295789Y-57079522D01*
X137355368Y-56909255D01*
X137375565Y-56730000D01*
X137372419Y-56702082D01*
X137355369Y-56550750D01*
X137355368Y-56550745D01*
X137295788Y-56380476D01*
X137199815Y-56227737D01*
X137072262Y-56100184D01*
X136919523Y-56004211D01*
X136749254Y-55944631D01*
X136749249Y-55944630D01*
X136570004Y-55924435D01*
X136569996Y-55924435D01*
X136390750Y-55944630D01*
X136390745Y-55944631D01*
X136220476Y-56004211D01*
X136067737Y-56100184D01*
X135940184Y-56227737D01*
X135844210Y-56380478D01*
X135784630Y-56550750D01*
X135774837Y-56637668D01*
X135747770Y-56702082D01*
X135739298Y-56711465D01*
X135037584Y-57413181D01*
X134976261Y-57446666D01*
X134949903Y-57449500D01*
X129082412Y-57449500D01*
X129015373Y-57429815D01*
X129005097Y-57422445D01*
X129002263Y-57420185D01*
X129002262Y-57420184D01*
X128922688Y-57370184D01*
X128849523Y-57324211D01*
X128679254Y-57264631D01*
X128679249Y-57264630D01*
X128500004Y-57244435D01*
X128499996Y-57244435D01*
X128320750Y-57264630D01*
X128320745Y-57264631D01*
X128150476Y-57324211D01*
X127997737Y-57420184D01*
X127870184Y-57547737D01*
X127774210Y-57700478D01*
X127714630Y-57870750D01*
X127704837Y-57957668D01*
X127677770Y-58022082D01*
X127669298Y-58031465D01*
X127337582Y-58363182D01*
X127276261Y-58396666D01*
X127249903Y-58399500D01*
X119924499Y-58399500D01*
X119857460Y-58379815D01*
X119811705Y-58327011D01*
X119800499Y-58275500D01*
X119800499Y-57652129D01*
X119800498Y-57652123D01*
X119800497Y-57652116D01*
X119794091Y-57592517D01*
X119743796Y-57457669D01*
X119743795Y-57457668D01*
X119743793Y-57457664D01*
X119657547Y-57342455D01*
X119657544Y-57342452D01*
X119542335Y-57256206D01*
X119542328Y-57256202D01*
X119407482Y-57205908D01*
X119407483Y-57205908D01*
X119347883Y-57199501D01*
X119347881Y-57199500D01*
X119347873Y-57199500D01*
X119347864Y-57199500D01*
X116652129Y-57199500D01*
X116652123Y-57199501D01*
X116592516Y-57205908D01*
X116457671Y-57256202D01*
X116457664Y-57256206D01*
X116342455Y-57342452D01*
X116342452Y-57342455D01*
X116256206Y-57457664D01*
X116256202Y-57457671D01*
X116205908Y-57592517D01*
X116199501Y-57652116D01*
X116199501Y-57652123D01*
X116199500Y-57652135D01*
X116199500Y-60347870D01*
X116199501Y-60347876D01*
X116205908Y-60407483D01*
X116256202Y-60542328D01*
X116256206Y-60542335D01*
X116342452Y-60657544D01*
X116342455Y-60657547D01*
X116457664Y-60743793D01*
X116457671Y-60743797D01*
X116592517Y-60794091D01*
X116592516Y-60794091D01*
X116599444Y-60794835D01*
X116652127Y-60800500D01*
X119347872Y-60800499D01*
X119407483Y-60794091D01*
X119542331Y-60743796D01*
X119657546Y-60657546D01*
X119743796Y-60542331D01*
X119794091Y-60407483D01*
X119800500Y-60347873D01*
X119800500Y-59724500D01*
X119820185Y-59657461D01*
X119872989Y-59611706D01*
X119924500Y-59600500D01*
X127463331Y-59600500D01*
X127463347Y-59600501D01*
X127470943Y-59600501D01*
X127629054Y-59600501D01*
X127629057Y-59600501D01*
X127781785Y-59559577D01*
X127831904Y-59530639D01*
X127918716Y-59480520D01*
X128030520Y-59368716D01*
X128030520Y-59368714D01*
X128040728Y-59358507D01*
X128040730Y-59358504D01*
X128518535Y-58880698D01*
X128579856Y-58847215D01*
X128592311Y-58845163D01*
X128679255Y-58835368D01*
X128849522Y-58775789D01*
X129002262Y-58679816D01*
X129002267Y-58679810D01*
X129005097Y-58677555D01*
X129007275Y-58676665D01*
X129008158Y-58676111D01*
X129008255Y-58676265D01*
X129069783Y-58651145D01*
X129082412Y-58650500D01*
X135163331Y-58650500D01*
X135163347Y-58650501D01*
X135170943Y-58650501D01*
X135329054Y-58650501D01*
X135329057Y-58650501D01*
X135481785Y-58609577D01*
X135568387Y-58559577D01*
X135578988Y-58553457D01*
X135618709Y-58530524D01*
X135618708Y-58530524D01*
X135618716Y-58530520D01*
X135717094Y-58432141D01*
X135778413Y-58398659D01*
X135848105Y-58403643D01*
X135904039Y-58445514D01*
X135909765Y-58453852D01*
X135940182Y-58502259D01*
X135940184Y-58502262D01*
X136067738Y-58629816D01*
X136220478Y-58725789D01*
X136333837Y-58765455D01*
X136390745Y-58785368D01*
X136390750Y-58785369D01*
X136569996Y-58805565D01*
X136570000Y-58805565D01*
X136570004Y-58805565D01*
X136749249Y-58785369D01*
X136749252Y-58785368D01*
X136749255Y-58785368D01*
X136919522Y-58725789D01*
X137072262Y-58629816D01*
X137072267Y-58629810D01*
X137075097Y-58627555D01*
X137077275Y-58626665D01*
X137078158Y-58626111D01*
X137078255Y-58626265D01*
X137139783Y-58601145D01*
X137152412Y-58600500D01*
X145716937Y-58600500D01*
X145783976Y-58620185D01*
X145829731Y-58672989D01*
X145839675Y-58742147D01*
X145833978Y-58765455D01*
X145814633Y-58820737D01*
X145814630Y-58820750D01*
X145794435Y-58999996D01*
X145794435Y-59000003D01*
X145814630Y-59179249D01*
X145814631Y-59179254D01*
X145874211Y-59349523D01*
X145934515Y-59445496D01*
X145967341Y-59497738D01*
X145970185Y-59502263D01*
X145972445Y-59505097D01*
X145973334Y-59507275D01*
X145973889Y-59508158D01*
X145973734Y-59508255D01*
X145998855Y-59569783D01*
X145999500Y-59582412D01*
X145999500Y-61617587D01*
X145979815Y-61684626D01*
X145972450Y-61694896D01*
X145970186Y-61697734D01*
X145874211Y-61850476D01*
X145814631Y-62020745D01*
X145814630Y-62020750D01*
X145794435Y-62199996D01*
X145794435Y-62200003D01*
X145814630Y-62379249D01*
X145814631Y-62379254D01*
X145874211Y-62549523D01*
X145903255Y-62595745D01*
X145955963Y-62679630D01*
X145970185Y-62702263D01*
X145972445Y-62705097D01*
X145973334Y-62707275D01*
X145973889Y-62708158D01*
X145973734Y-62708255D01*
X145998855Y-62769783D01*
X145999500Y-62782412D01*
X145999500Y-63499902D01*
X145979815Y-63566941D01*
X145963181Y-63587583D01*
X141381465Y-68169298D01*
X141320142Y-68202783D01*
X141307668Y-68204837D01*
X141220750Y-68214630D01*
X141050478Y-68274210D01*
X140897737Y-68370184D01*
X140770184Y-68497737D01*
X140674211Y-68650476D01*
X140614631Y-68820745D01*
X140614630Y-68820750D01*
X140594435Y-68999996D01*
X140594435Y-69000003D01*
X140614630Y-69179249D01*
X140614631Y-69179254D01*
X140674211Y-69349523D01*
X140743995Y-69460583D01*
X140770184Y-69502262D01*
X140897738Y-69629816D01*
X141050478Y-69725789D01*
X141220745Y-69785368D01*
X141289384Y-69793101D01*
X141353796Y-69820166D01*
X141393352Y-69877760D01*
X141399500Y-69916321D01*
X141399500Y-75699902D01*
X141379815Y-75766941D01*
X141363181Y-75787583D01*
X141178808Y-75971955D01*
X141117485Y-76005440D01*
X141050173Y-76001316D01*
X140916757Y-75954632D01*
X140916749Y-75954630D01*
X140737504Y-75934435D01*
X140737496Y-75934435D01*
X140558250Y-75954630D01*
X140558245Y-75954631D01*
X140387976Y-76014211D01*
X140235237Y-76110184D01*
X140107684Y-76237737D01*
X140011711Y-76390476D01*
X139952131Y-76560745D01*
X139952130Y-76560750D01*
X139931935Y-76739996D01*
X139931935Y-76740003D01*
X139952130Y-76919249D01*
X139952131Y-76919254D01*
X140011711Y-77089523D01*
X140081129Y-77200000D01*
X140107684Y-77242262D01*
X140235238Y-77369816D01*
X140387978Y-77465789D01*
X140452294Y-77488294D01*
X140558245Y-77525368D01*
X140558250Y-77525369D01*
X140737496Y-77545565D01*
X140737500Y-77545565D01*
X140737504Y-77545565D01*
X140916749Y-77525369D01*
X140916752Y-77525368D01*
X140916755Y-77525368D01*
X140916756Y-77525367D01*
X140916759Y-77525367D01*
X140990681Y-77499500D01*
X141050173Y-77478682D01*
X141119950Y-77475120D01*
X141178808Y-77508043D01*
X142762139Y-79091374D01*
X142762149Y-79091385D01*
X142766479Y-79095715D01*
X142766480Y-79095716D01*
X142878284Y-79207520D01*
X142878286Y-79207521D01*
X142878290Y-79207524D01*
X142970816Y-79260943D01*
X143015216Y-79286577D01*
X143127019Y-79316534D01*
X143167942Y-79327500D01*
X143167943Y-79327500D01*
X147399903Y-79327500D01*
X147466942Y-79347185D01*
X147487584Y-79363819D01*
X149683181Y-81559416D01*
X149716666Y-81620739D01*
X149719500Y-81647097D01*
X149719500Y-81916263D01*
X149699815Y-81983302D01*
X149647011Y-82029057D01*
X149595814Y-82040263D01*
X126124314Y-82099685D01*
X126057225Y-82080170D01*
X126011336Y-82027482D01*
X126006812Y-82006812D01*
X126000000Y-82000000D01*
X115124000Y-82000000D01*
X115056961Y-81980315D01*
X115011206Y-81927511D01*
X115000000Y-81876000D01*
X115000000Y-78999995D01*
X116194953Y-78999995D01*
X116194953Y-79000004D01*
X116215113Y-79269026D01*
X116215113Y-79269028D01*
X116275142Y-79532033D01*
X116275148Y-79532052D01*
X116373709Y-79783181D01*
X116373708Y-79783181D01*
X116508602Y-80016822D01*
X116562294Y-80084151D01*
X116562295Y-80084151D01*
X117398958Y-79247488D01*
X117423978Y-79307890D01*
X117495112Y-79414351D01*
X117585649Y-79504888D01*
X117692110Y-79576022D01*
X117752510Y-79601041D01*
X116914848Y-80438702D01*
X117097483Y-80563220D01*
X117097485Y-80563221D01*
X117340539Y-80680269D01*
X117340537Y-80680269D01*
X117598337Y-80759790D01*
X117598343Y-80759792D01*
X117865101Y-80799999D01*
X117865110Y-80800000D01*
X118134890Y-80800000D01*
X118134898Y-80799999D01*
X118401656Y-80759792D01*
X118401662Y-80759790D01*
X118659461Y-80680269D01*
X118902521Y-80563218D01*
X119085150Y-80438702D01*
X118247488Y-79601041D01*
X118307890Y-79576022D01*
X118414351Y-79504888D01*
X118504888Y-79414351D01*
X118576022Y-79307890D01*
X118601041Y-79247488D01*
X119437703Y-80084151D01*
X119437704Y-80084150D01*
X119491393Y-80016828D01*
X119491400Y-80016817D01*
X119626290Y-79783181D01*
X119724851Y-79532052D01*
X119724857Y-79532033D01*
X119784886Y-79269028D01*
X119784886Y-79269026D01*
X119805047Y-79000004D01*
X119805047Y-78999995D01*
X119784886Y-78730973D01*
X119784886Y-78730971D01*
X119724857Y-78467966D01*
X119724851Y-78467947D01*
X119626290Y-78216818D01*
X119626291Y-78216818D01*
X119491397Y-77983177D01*
X119437704Y-77915847D01*
X118601041Y-78752510D01*
X118576022Y-78692110D01*
X118504888Y-78585649D01*
X118414351Y-78495112D01*
X118307890Y-78423978D01*
X118247488Y-78398958D01*
X119085150Y-77561296D01*
X118902517Y-77436779D01*
X118902516Y-77436778D01*
X118659460Y-77319730D01*
X118659462Y-77319730D01*
X118401662Y-77240209D01*
X118401656Y-77240207D01*
X118134898Y-77200000D01*
X117865101Y-77200000D01*
X117598343Y-77240207D01*
X117598337Y-77240209D01*
X117340538Y-77319730D01*
X117097485Y-77436778D01*
X117097476Y-77436783D01*
X116914848Y-77561296D01*
X117752511Y-78398958D01*
X117692110Y-78423978D01*
X117585649Y-78495112D01*
X117495112Y-78585649D01*
X117423978Y-78692110D01*
X117398958Y-78752511D01*
X116562295Y-77915848D01*
X116508600Y-77983180D01*
X116373709Y-78216818D01*
X116275148Y-78467947D01*
X116275142Y-78467966D01*
X116215113Y-78730971D01*
X116215113Y-78730973D01*
X116194953Y-78999995D01*
X115000000Y-78999995D01*
X115000000Y-73999995D01*
X116194451Y-73999995D01*
X116194451Y-74000004D01*
X116214616Y-74269101D01*
X116232972Y-74349522D01*
X116274666Y-74532195D01*
X116373257Y-74783398D01*
X116508185Y-75017102D01*
X116553729Y-75074212D01*
X116676442Y-75228089D01*
X116863183Y-75401358D01*
X116874259Y-75411635D01*
X117097226Y-75563651D01*
X117340359Y-75680738D01*
X117598228Y-75760280D01*
X117598229Y-75760280D01*
X117598232Y-75760281D01*
X117865063Y-75800499D01*
X117865068Y-75800499D01*
X117865071Y-75800500D01*
X117865072Y-75800500D01*
X118134928Y-75800500D01*
X118134929Y-75800500D01*
X118134936Y-75800499D01*
X118401767Y-75760281D01*
X118401768Y-75760280D01*
X118401772Y-75760280D01*
X118659641Y-75680738D01*
X118902775Y-75563651D01*
X119125741Y-75411635D01*
X119323561Y-75228085D01*
X119491815Y-75017102D01*
X119626743Y-74783398D01*
X119725334Y-74532195D01*
X119785383Y-74269103D01*
X119805549Y-74000000D01*
X119794328Y-73850269D01*
X119785383Y-73730898D01*
X119785383Y-73730897D01*
X119725334Y-73467805D01*
X119626743Y-73216602D01*
X119491815Y-72982898D01*
X119323561Y-72771915D01*
X119323560Y-72771914D01*
X119323557Y-72771910D01*
X119125741Y-72588365D01*
X118902775Y-72436349D01*
X118902769Y-72436346D01*
X118902768Y-72436345D01*
X118902767Y-72436344D01*
X118659643Y-72319263D01*
X118659645Y-72319263D01*
X118401773Y-72239720D01*
X118401767Y-72239718D01*
X118134936Y-72199500D01*
X118134929Y-72199500D01*
X117865071Y-72199500D01*
X117865063Y-72199500D01*
X117598232Y-72239718D01*
X117598226Y-72239720D01*
X117340358Y-72319262D01*
X117097230Y-72436346D01*
X116874258Y-72588365D01*
X116676442Y-72771910D01*
X116508185Y-72982898D01*
X116373258Y-73216599D01*
X116373256Y-73216603D01*
X116274666Y-73467804D01*
X116274664Y-73467811D01*
X116214616Y-73730898D01*
X116194451Y-73999995D01*
X115000000Y-73999995D01*
X115000000Y-68999995D01*
X116194451Y-68999995D01*
X116194451Y-69000004D01*
X116214616Y-69269101D01*
X116274664Y-69532188D01*
X116274666Y-69532195D01*
X116341617Y-69702783D01*
X116373257Y-69783398D01*
X116508185Y-70017102D01*
X116644080Y-70187509D01*
X116676442Y-70228089D01*
X116863183Y-70401358D01*
X116874259Y-70411635D01*
X117097226Y-70563651D01*
X117340359Y-70680738D01*
X117598228Y-70760280D01*
X117598229Y-70760280D01*
X117598232Y-70760281D01*
X117865063Y-70800499D01*
X117865068Y-70800499D01*
X117865071Y-70800500D01*
X117865072Y-70800500D01*
X118134928Y-70800500D01*
X118134929Y-70800500D01*
X118134936Y-70800499D01*
X118401767Y-70760281D01*
X118401768Y-70760280D01*
X118401772Y-70760280D01*
X118659641Y-70680738D01*
X118902775Y-70563651D01*
X119125741Y-70411635D01*
X119323561Y-70228085D01*
X119491815Y-70017102D01*
X119626743Y-69783398D01*
X119725334Y-69532195D01*
X119785383Y-69269103D01*
X119792116Y-69179249D01*
X119805549Y-69000004D01*
X119805549Y-68999995D01*
X119785383Y-68730898D01*
X119755507Y-68600003D01*
X119725334Y-68467805D01*
X119626743Y-68216602D01*
X119491815Y-67982898D01*
X119323561Y-67771915D01*
X119323560Y-67771914D01*
X119323557Y-67771910D01*
X119125741Y-67588365D01*
X118902775Y-67436349D01*
X118902769Y-67436346D01*
X118902768Y-67436345D01*
X118902767Y-67436344D01*
X118659643Y-67319263D01*
X118659645Y-67319263D01*
X118401773Y-67239720D01*
X118401767Y-67239718D01*
X118134936Y-67199500D01*
X118134929Y-67199500D01*
X117865071Y-67199500D01*
X117865063Y-67199500D01*
X117598232Y-67239718D01*
X117598226Y-67239720D01*
X117340358Y-67319262D01*
X117097230Y-67436346D01*
X116874258Y-67588365D01*
X116676442Y-67771910D01*
X116508185Y-67982898D01*
X116373258Y-68216599D01*
X116373256Y-68216603D01*
X116274666Y-68467804D01*
X116274664Y-68467811D01*
X116214616Y-68730898D01*
X116194451Y-68999995D01*
X115000000Y-68999995D01*
X115000000Y-63999995D01*
X116194451Y-63999995D01*
X116194451Y-64000004D01*
X116214616Y-64269101D01*
X116268481Y-64505097D01*
X116274666Y-64532195D01*
X116373257Y-64783398D01*
X116508185Y-65017102D01*
X116599331Y-65131395D01*
X116676442Y-65228089D01*
X116844843Y-65384341D01*
X116874259Y-65411635D01*
X117097226Y-65563651D01*
X117340359Y-65680738D01*
X117598228Y-65760280D01*
X117598229Y-65760280D01*
X117598232Y-65760281D01*
X117865063Y-65800499D01*
X117865068Y-65800499D01*
X117865071Y-65800500D01*
X117865072Y-65800500D01*
X118134928Y-65800500D01*
X118134929Y-65800500D01*
X118134936Y-65800499D01*
X118401767Y-65760281D01*
X118401768Y-65760280D01*
X118401772Y-65760280D01*
X118659641Y-65680738D01*
X118696370Y-65663049D01*
X118765309Y-65651696D01*
X118829444Y-65679417D01*
X118837852Y-65687087D01*
X125781284Y-72630520D01*
X125781286Y-72630521D01*
X125781290Y-72630524D01*
X125900261Y-72699211D01*
X125918216Y-72709577D01*
X126070943Y-72750501D01*
X126070945Y-72750501D01*
X126236654Y-72750501D01*
X126236670Y-72750500D01*
X127917588Y-72750500D01*
X127984627Y-72770185D01*
X127994903Y-72777555D01*
X127997736Y-72779814D01*
X127997738Y-72779816D01*
X128150478Y-72875789D01*
X128284648Y-72922737D01*
X128320745Y-72935368D01*
X128320750Y-72935369D01*
X128499996Y-72955565D01*
X128500000Y-72955565D01*
X128500004Y-72955565D01*
X128679249Y-72935369D01*
X128679252Y-72935368D01*
X128679255Y-72935368D01*
X128849522Y-72875789D01*
X129002262Y-72779816D01*
X129129816Y-72652262D01*
X129225789Y-72499522D01*
X129285368Y-72329255D01*
X129295456Y-72239720D01*
X129305565Y-72150003D01*
X129305565Y-72149996D01*
X129285369Y-71970750D01*
X129285368Y-71970745D01*
X129227569Y-71805565D01*
X129225789Y-71800478D01*
X129216295Y-71785369D01*
X129129815Y-71647737D01*
X129002262Y-71520184D01*
X128849523Y-71424211D01*
X128679254Y-71364631D01*
X128679249Y-71364630D01*
X128500004Y-71344435D01*
X128499996Y-71344435D01*
X128320750Y-71364630D01*
X128320745Y-71364631D01*
X128150476Y-71424211D01*
X127997736Y-71520185D01*
X127994903Y-71522445D01*
X127992724Y-71523334D01*
X127991842Y-71523889D01*
X127991744Y-71523734D01*
X127930217Y-71548855D01*
X127917588Y-71549500D01*
X126450098Y-71549500D01*
X126383059Y-71529815D01*
X126362417Y-71513181D01*
X123049216Y-68199980D01*
X119685810Y-64836575D01*
X119652326Y-64775253D01*
X119657310Y-64705561D01*
X119658032Y-64703673D01*
X119725334Y-64532195D01*
X119785383Y-64269103D01*
X119786065Y-64259999D01*
X127144341Y-64259999D01*
X127144341Y-64260000D01*
X127164936Y-64495403D01*
X127164938Y-64495413D01*
X127226094Y-64723655D01*
X127226096Y-64723659D01*
X127226097Y-64723663D01*
X127304620Y-64892055D01*
X127325965Y-64937830D01*
X127325967Y-64937834D01*
X127381471Y-65017101D01*
X127461501Y-65131396D01*
X127461506Y-65131402D01*
X127583430Y-65253326D01*
X127616915Y-65314649D01*
X127611931Y-65384341D01*
X127570059Y-65440274D01*
X127539083Y-65457189D01*
X127407669Y-65506203D01*
X127407664Y-65506206D01*
X127292455Y-65592452D01*
X127292452Y-65592455D01*
X127206206Y-65707664D01*
X127206202Y-65707671D01*
X127155908Y-65842517D01*
X127149501Y-65902116D01*
X127149501Y-65902123D01*
X127149500Y-65902135D01*
X127149500Y-67697870D01*
X127149501Y-67697876D01*
X127155908Y-67757483D01*
X127206202Y-67892328D01*
X127206206Y-67892335D01*
X127292452Y-68007544D01*
X127292455Y-68007547D01*
X127407664Y-68093793D01*
X127407671Y-68093797D01*
X127542517Y-68144091D01*
X127542516Y-68144091D01*
X127549444Y-68144835D01*
X127602127Y-68150500D01*
X129397872Y-68150499D01*
X129457483Y-68144091D01*
X129592331Y-68093796D01*
X129707546Y-68007546D01*
X129793796Y-67892331D01*
X129844091Y-67757483D01*
X129850500Y-67697873D01*
X129850499Y-65902128D01*
X129844091Y-65842517D01*
X129828419Y-65800499D01*
X129793797Y-65707671D01*
X129793793Y-65707664D01*
X129707547Y-65592455D01*
X129707544Y-65592452D01*
X129592335Y-65506206D01*
X129592328Y-65506202D01*
X129460917Y-65457189D01*
X129404983Y-65415318D01*
X129380566Y-65349853D01*
X129395418Y-65281580D01*
X129416563Y-65253332D01*
X129538495Y-65131401D01*
X129674035Y-64937830D01*
X129773903Y-64723663D01*
X129835063Y-64495408D01*
X129855659Y-64260000D01*
X129835063Y-64024592D01*
X129773903Y-63796337D01*
X129674035Y-63582171D01*
X129669028Y-63575019D01*
X129538494Y-63388597D01*
X129371402Y-63221506D01*
X129371395Y-63221501D01*
X129364394Y-63216599D01*
X129332521Y-63194281D01*
X129177834Y-63085967D01*
X129177830Y-63085965D01*
X129177828Y-63085964D01*
X128963663Y-62986097D01*
X128963659Y-62986096D01*
X128963655Y-62986094D01*
X128735413Y-62924938D01*
X128735403Y-62924936D01*
X128500001Y-62904341D01*
X128499999Y-62904341D01*
X128264596Y-62924936D01*
X128264586Y-62924938D01*
X128036344Y-62986094D01*
X128036335Y-62986098D01*
X127822171Y-63085964D01*
X127822169Y-63085965D01*
X127628597Y-63221505D01*
X127461505Y-63388597D01*
X127325965Y-63582169D01*
X127325964Y-63582171D01*
X127226098Y-63796335D01*
X127226094Y-63796344D01*
X127164938Y-64024586D01*
X127164936Y-64024596D01*
X127144341Y-64259999D01*
X119786065Y-64259999D01*
X119799370Y-64082461D01*
X119805549Y-64000004D01*
X119805549Y-63999995D01*
X119785383Y-63730898D01*
X119781373Y-63713329D01*
X119725334Y-63467805D01*
X119626743Y-63216602D01*
X119491815Y-62982898D01*
X119323561Y-62771915D01*
X119323560Y-62771914D01*
X119323557Y-62771910D01*
X119125741Y-62588365D01*
X119068769Y-62549522D01*
X118902775Y-62436349D01*
X118902769Y-62436346D01*
X118902768Y-62436345D01*
X118902767Y-62436344D01*
X118659643Y-62319263D01*
X118659645Y-62319263D01*
X118401773Y-62239720D01*
X118401767Y-62239718D01*
X118134936Y-62199500D01*
X118134929Y-62199500D01*
X117865071Y-62199500D01*
X117865063Y-62199500D01*
X117598232Y-62239718D01*
X117598226Y-62239720D01*
X117340358Y-62319262D01*
X117097230Y-62436346D01*
X116874258Y-62588365D01*
X116676442Y-62771910D01*
X116508185Y-62982898D01*
X116373258Y-63216599D01*
X116373256Y-63216603D01*
X116274666Y-63467804D01*
X116274664Y-63467811D01*
X116214616Y-63730898D01*
X116194451Y-63999995D01*
X115000000Y-63999995D01*
X115000000Y-55624000D01*
X115019685Y-55556961D01*
X115072489Y-55511206D01*
X115124000Y-55500000D01*
X131000000Y-55500000D01*
X131000000Y-48624000D01*
X131019685Y-48556961D01*
X131072489Y-48511206D01*
X131124000Y-48500000D01*
X165376000Y-48500000D01*
X165443039Y-48519685D01*
G37*
G04 #@! TD.AperFunction*
G04 #@! TA.AperFunction,Conductor*
G36*
X165443039Y-78920185D02*
G01*
X165488794Y-78972989D01*
X165500000Y-79024500D01*
X165500000Y-81876313D01*
X165480315Y-81943352D01*
X165427511Y-81989107D01*
X165376314Y-82000313D01*
X151044814Y-82036595D01*
X150977725Y-82017080D01*
X150931836Y-81964392D01*
X150920500Y-81912595D01*
X150920500Y-81436060D01*
X150920501Y-81436047D01*
X150920501Y-81267944D01*
X150879576Y-81115214D01*
X150879573Y-81115209D01*
X150800524Y-80978290D01*
X150800518Y-80978282D01*
X149906386Y-80084150D01*
X148934415Y-79112180D01*
X148900931Y-79050858D01*
X148905915Y-78981166D01*
X148947787Y-78925233D01*
X149013251Y-78900816D01*
X149022097Y-78900500D01*
X165376000Y-78900500D01*
X165443039Y-78920185D01*
G37*
G04 #@! TD.AperFunction*
G04 #@! TA.AperFunction,Conductor*
G36*
X250593039Y-47569685D02*
G01*
X250638794Y-47622489D01*
X250650000Y-47674000D01*
X250650000Y-91226000D01*
X250630315Y-91293039D01*
X250577511Y-91338794D01*
X250526000Y-91350000D01*
X167024000Y-91350000D01*
X166956961Y-91330315D01*
X166911206Y-91277511D01*
X166900000Y-91226000D01*
X166900000Y-86524500D01*
X166919685Y-86457461D01*
X166972489Y-86411706D01*
X167024000Y-86400500D01*
X167513331Y-86400500D01*
X167513347Y-86400501D01*
X167593472Y-86400501D01*
X167660511Y-86420186D01*
X167706266Y-86472990D01*
X167717000Y-86535309D01*
X167704341Y-86679999D01*
X167704341Y-86680000D01*
X167724936Y-86915403D01*
X167724938Y-86915413D01*
X167786094Y-87143655D01*
X167786096Y-87143659D01*
X167786097Y-87143663D01*
X167869155Y-87321781D01*
X167885965Y-87357830D01*
X167885967Y-87357834D01*
X167965996Y-87472126D01*
X168021501Y-87551396D01*
X168021506Y-87551402D01*
X168188597Y-87718493D01*
X168188603Y-87718498D01*
X168276403Y-87779976D01*
X168360102Y-87838583D01*
X168374594Y-87848730D01*
X168418219Y-87903307D01*
X168425413Y-87972805D01*
X168393890Y-88035160D01*
X168374595Y-88051880D01*
X168188922Y-88181890D01*
X168188920Y-88181891D01*
X168021891Y-88348920D01*
X168021886Y-88348926D01*
X167886400Y-88542420D01*
X167886399Y-88542422D01*
X167786570Y-88756507D01*
X167786567Y-88756513D01*
X167729364Y-88969999D01*
X167729364Y-88970000D01*
X168626988Y-88970000D01*
X168594075Y-89027007D01*
X168560000Y-89154174D01*
X168560000Y-89285826D01*
X168594075Y-89412993D01*
X168626988Y-89470000D01*
X167729364Y-89470000D01*
X167786567Y-89683486D01*
X167786570Y-89683492D01*
X167886399Y-89897578D01*
X168021894Y-90091082D01*
X168188917Y-90258105D01*
X168382421Y-90393600D01*
X168596507Y-90493429D01*
X168596516Y-90493433D01*
X168810000Y-90550634D01*
X168810000Y-89653012D01*
X168867007Y-89685925D01*
X168994174Y-89720000D01*
X169125826Y-89720000D01*
X169252993Y-89685925D01*
X169310000Y-89653012D01*
X169310000Y-90550633D01*
X169523483Y-90493433D01*
X169523492Y-90493429D01*
X169737578Y-90393600D01*
X169931082Y-90258105D01*
X170098105Y-90091082D01*
X170228425Y-89904968D01*
X170283002Y-89861344D01*
X170352501Y-89854151D01*
X170414855Y-89885673D01*
X170431575Y-89904968D01*
X170561894Y-90091082D01*
X170728917Y-90258105D01*
X170922421Y-90393600D01*
X171136507Y-90493429D01*
X171136516Y-90493433D01*
X171350000Y-90550634D01*
X171350000Y-89653012D01*
X171407007Y-89685925D01*
X171534174Y-89720000D01*
X171665826Y-89720000D01*
X171792993Y-89685925D01*
X171850000Y-89653012D01*
X171850000Y-90550633D01*
X172063483Y-90493433D01*
X172063492Y-90493429D01*
X172277578Y-90393600D01*
X172471082Y-90258105D01*
X172638105Y-90091082D01*
X172773600Y-89897578D01*
X172873429Y-89683492D01*
X172873432Y-89683486D01*
X172930636Y-89470000D01*
X172033012Y-89470000D01*
X172065925Y-89412993D01*
X172100000Y-89285826D01*
X172100000Y-89154174D01*
X172065925Y-89027007D01*
X172033012Y-88970000D01*
X172930636Y-88970000D01*
X172930635Y-88969999D01*
X172873432Y-88756513D01*
X172873429Y-88756507D01*
X172773600Y-88542422D01*
X172773599Y-88542420D01*
X172638113Y-88348926D01*
X172638108Y-88348920D01*
X172471082Y-88181894D01*
X172284968Y-88051575D01*
X172241344Y-87996998D01*
X172234151Y-87927499D01*
X172265673Y-87865145D01*
X172284968Y-87848425D01*
X172471082Y-87718105D01*
X172638105Y-87551082D01*
X172773600Y-87357578D01*
X172873429Y-87143492D01*
X172873432Y-87143486D01*
X172930636Y-86930000D01*
X172033012Y-86930000D01*
X172065925Y-86872993D01*
X172100000Y-86745826D01*
X172100000Y-86614174D01*
X172065925Y-86487007D01*
X172033012Y-86430000D01*
X172930635Y-86430000D01*
X172908508Y-86347423D01*
X172910171Y-86277573D01*
X172949333Y-86219710D01*
X173013561Y-86192205D01*
X173082463Y-86203791D01*
X173115964Y-86227647D01*
X174309181Y-87420864D01*
X174342666Y-87482187D01*
X174345500Y-87508545D01*
X174345500Y-87867069D01*
X174345499Y-87867087D01*
X174345499Y-88032793D01*
X174345498Y-88032793D01*
X174386423Y-88185524D01*
X174402111Y-88212696D01*
X174402110Y-88212696D01*
X174402111Y-88212697D01*
X174465475Y-88322448D01*
X174465481Y-88322456D01*
X174584349Y-88441324D01*
X174584355Y-88441329D01*
X176804400Y-90661374D01*
X176804410Y-90661385D01*
X176808740Y-90665715D01*
X176808741Y-90665716D01*
X176920545Y-90777520D01*
X176920547Y-90777521D01*
X176920551Y-90777524D01*
X177025153Y-90837915D01*
X177057477Y-90856577D01*
X177169280Y-90886534D01*
X177210203Y-90897500D01*
X177210204Y-90897500D01*
X205640585Y-90897500D01*
X205640601Y-90897501D01*
X205648197Y-90897501D01*
X205806308Y-90897501D01*
X205806311Y-90897501D01*
X205959039Y-90856577D01*
X205959041Y-90856575D01*
X205959043Y-90856575D01*
X205959044Y-90856574D01*
X206010036Y-90827134D01*
X206010037Y-90827133D01*
X206095970Y-90777520D01*
X206124544Y-90748946D01*
X206185867Y-90715461D01*
X206212225Y-90712627D01*
X239260919Y-90712627D01*
X239327958Y-90732312D01*
X239338234Y-90739682D01*
X239341067Y-90741941D01*
X239341069Y-90741943D01*
X239436067Y-90801634D01*
X239476649Y-90827134D01*
X239493809Y-90837916D01*
X239632737Y-90886529D01*
X239664076Y-90897495D01*
X239664081Y-90897496D01*
X239843327Y-90917692D01*
X239843331Y-90917692D01*
X239843335Y-90917692D01*
X240022580Y-90897496D01*
X240022583Y-90897495D01*
X240022586Y-90897495D01*
X240192853Y-90837916D01*
X240345593Y-90741943D01*
X240473147Y-90614389D01*
X240569120Y-90461649D01*
X240628699Y-90291382D01*
X240628700Y-90291376D01*
X240648896Y-90112130D01*
X240648896Y-90112123D01*
X240628700Y-89932877D01*
X240628699Y-89932872D01*
X240569119Y-89762603D01*
X240519406Y-89683486D01*
X240473147Y-89609865D01*
X240345593Y-89482311D01*
X240326000Y-89470000D01*
X240192854Y-89386338D01*
X240022585Y-89326758D01*
X240022580Y-89326757D01*
X239843335Y-89306562D01*
X239843327Y-89306562D01*
X239664081Y-89326757D01*
X239664076Y-89326758D01*
X239493807Y-89386338D01*
X239341067Y-89482312D01*
X239338234Y-89484572D01*
X239336055Y-89485461D01*
X239335173Y-89486016D01*
X239335075Y-89485861D01*
X239273548Y-89510982D01*
X239260919Y-89511627D01*
X205998796Y-89511627D01*
X205998780Y-89511626D01*
X205991184Y-89511626D01*
X205833070Y-89511626D01*
X205725714Y-89540392D01*
X205680337Y-89552551D01*
X205680336Y-89552552D01*
X205645193Y-89572843D01*
X205645191Y-89572844D01*
X205543417Y-89631602D01*
X205543409Y-89631608D01*
X205514837Y-89660181D01*
X205453514Y-89693666D01*
X205427156Y-89696500D01*
X177589358Y-89696500D01*
X177522319Y-89676815D01*
X177501677Y-89660181D01*
X176853677Y-89012181D01*
X176820192Y-88950858D01*
X176825176Y-88881166D01*
X176867048Y-88825233D01*
X176932512Y-88800816D01*
X176941358Y-88800500D01*
X192417588Y-88800500D01*
X192484627Y-88820185D01*
X192494903Y-88827555D01*
X192497736Y-88829814D01*
X192497738Y-88829816D01*
X192650478Y-88925789D01*
X192776823Y-88969999D01*
X192820745Y-88985368D01*
X192820750Y-88985369D01*
X192999996Y-89005565D01*
X193000000Y-89005565D01*
X193000004Y-89005565D01*
X193179249Y-88985369D01*
X193179252Y-88985368D01*
X193179255Y-88985368D01*
X193349522Y-88925789D01*
X193502262Y-88829816D01*
X193629816Y-88702262D01*
X193725789Y-88549522D01*
X193785368Y-88379255D01*
X193785369Y-88379249D01*
X193805565Y-88200003D01*
X193805565Y-88199996D01*
X193785369Y-88020750D01*
X193785368Y-88020745D01*
X193761979Y-87953903D01*
X193725789Y-87850478D01*
X193707106Y-87820745D01*
X193644567Y-87721214D01*
X193629816Y-87697738D01*
X193502262Y-87570184D01*
X193472360Y-87551395D01*
X193349523Y-87474211D01*
X193179254Y-87414631D01*
X193179249Y-87414630D01*
X193000004Y-87394435D01*
X192999996Y-87394435D01*
X192820750Y-87414630D01*
X192820745Y-87414631D01*
X192650476Y-87474211D01*
X192497736Y-87570185D01*
X192494903Y-87572445D01*
X192492724Y-87573334D01*
X192491842Y-87573889D01*
X192491744Y-87573734D01*
X192430217Y-87598855D01*
X192417588Y-87599500D01*
X176716322Y-87599500D01*
X176649283Y-87579815D01*
X176603528Y-87527011D01*
X176593102Y-87489383D01*
X176585369Y-87420750D01*
X176585368Y-87420748D01*
X176585368Y-87420745D01*
X176525789Y-87250478D01*
X176429816Y-87097738D01*
X176429814Y-87097736D01*
X176429813Y-87097734D01*
X176427550Y-87094896D01*
X176426659Y-87092715D01*
X176426111Y-87091842D01*
X176426264Y-87091745D01*
X176401144Y-87030209D01*
X176400500Y-87017587D01*
X176400500Y-79717519D01*
X176420185Y-79650480D01*
X176472989Y-79604725D01*
X176542147Y-79594781D01*
X176605703Y-79623806D01*
X176612181Y-79629838D01*
X178073453Y-81091111D01*
X178073454Y-81091112D01*
X178188192Y-81167777D01*
X178315667Y-81220578D01*
X178315672Y-81220580D01*
X178315676Y-81220580D01*
X178315677Y-81220581D01*
X178451003Y-81247500D01*
X178451006Y-81247500D01*
X178451007Y-81247500D01*
X180121506Y-81247500D01*
X180187477Y-81266506D01*
X180197474Y-81272787D01*
X180197475Y-81272787D01*
X180197478Y-81272789D01*
X180367745Y-81332368D01*
X180367750Y-81332369D01*
X180546996Y-81352565D01*
X180547000Y-81352565D01*
X180547003Y-81352565D01*
X180630161Y-81343195D01*
X180688373Y-81336636D01*
X180757195Y-81348690D01*
X180808575Y-81396039D01*
X180826199Y-81463649D01*
X180804473Y-81530055D01*
X180789938Y-81547537D01*
X178304286Y-84033190D01*
X178192481Y-84144994D01*
X178192479Y-84144996D01*
X178178785Y-84168717D01*
X178163937Y-84194435D01*
X178142187Y-84232107D01*
X178113423Y-84281926D01*
X178107772Y-84303014D01*
X178075680Y-84358596D01*
X178043186Y-84391090D01*
X177947211Y-84543832D01*
X177887631Y-84714101D01*
X177887630Y-84714106D01*
X177867435Y-84893352D01*
X177867435Y-84893359D01*
X177887630Y-85072605D01*
X177887631Y-85072610D01*
X177947211Y-85242879D01*
X177964474Y-85270352D01*
X178043184Y-85395618D01*
X178170738Y-85523172D01*
X178323478Y-85619145D01*
X178445785Y-85661942D01*
X178493745Y-85678724D01*
X178493750Y-85678725D01*
X178672996Y-85698921D01*
X178673000Y-85698921D01*
X178673004Y-85698921D01*
X178852249Y-85678725D01*
X178852252Y-85678724D01*
X178852255Y-85678724D01*
X179022522Y-85619145D01*
X179175262Y-85523172D01*
X179302816Y-85395618D01*
X179398789Y-85242878D01*
X179458368Y-85072611D01*
X179458369Y-85072605D01*
X179478565Y-84893359D01*
X179478565Y-84893352D01*
X179458369Y-84714105D01*
X179458368Y-84714101D01*
X179448712Y-84686508D01*
X179445149Y-84616733D01*
X179478070Y-84557875D01*
X182272128Y-81763819D01*
X182333451Y-81730334D01*
X182359809Y-81727500D01*
X199014040Y-81727500D01*
X199014056Y-81727501D01*
X199021652Y-81727501D01*
X199179763Y-81727501D01*
X199179766Y-81727501D01*
X199332494Y-81686577D01*
X199382613Y-81657639D01*
X199469425Y-81607520D01*
X199581229Y-81495716D01*
X199581229Y-81495714D01*
X199591437Y-81485507D01*
X199591438Y-81485504D01*
X202340125Y-78736819D01*
X202401448Y-78703334D01*
X202427806Y-78700500D01*
X202595802Y-78700500D01*
X202662841Y-78720185D01*
X202708596Y-78772989D01*
X202718540Y-78842147D01*
X202703192Y-78886495D01*
X202696307Y-78898421D01*
X202695107Y-78900500D01*
X202640423Y-78995215D01*
X202599499Y-79147943D01*
X202599499Y-79147945D01*
X202599499Y-79316046D01*
X202599500Y-79316059D01*
X202599500Y-85791902D01*
X202579815Y-85858941D01*
X202527011Y-85904696D01*
X202500316Y-85912096D01*
X202500541Y-85913080D01*
X202493753Y-85914629D01*
X202323478Y-85974210D01*
X202170737Y-86070184D01*
X202043184Y-86197737D01*
X201947210Y-86350478D01*
X201887630Y-86520750D01*
X201877837Y-86607668D01*
X201850770Y-86672082D01*
X201842298Y-86681465D01*
X201160584Y-87363181D01*
X201099261Y-87396666D01*
X201072903Y-87399500D01*
X199403476Y-87399500D01*
X199336437Y-87379815D01*
X199290682Y-87327011D01*
X199280738Y-87257853D01*
X199309763Y-87194297D01*
X199337504Y-87170506D01*
X199402262Y-87129816D01*
X199529816Y-87002262D01*
X199625789Y-86849522D01*
X199685368Y-86679255D01*
X199685369Y-86679249D01*
X199705565Y-86500003D01*
X199705565Y-86499996D01*
X199685369Y-86320750D01*
X199685368Y-86320745D01*
X199671076Y-86279901D01*
X199625789Y-86150478D01*
X199529816Y-85997738D01*
X199529814Y-85997736D01*
X199529813Y-85997734D01*
X199527550Y-85994896D01*
X199526659Y-85992715D01*
X199526111Y-85991842D01*
X199526264Y-85991745D01*
X199501144Y-85930209D01*
X199500500Y-85917587D01*
X199500500Y-83725123D01*
X199520185Y-83658084D01*
X199558524Y-83620132D01*
X199702262Y-83529816D01*
X199829816Y-83402262D01*
X199925789Y-83249522D01*
X199985368Y-83079255D01*
X199997880Y-82968213D01*
X200005565Y-82900001D01*
X200005565Y-82899996D01*
X199985369Y-82720750D01*
X199985368Y-82720745D01*
X199961111Y-82651423D01*
X199925789Y-82550478D01*
X199920554Y-82542147D01*
X199849972Y-82429816D01*
X199829816Y-82397738D01*
X199702262Y-82270184D01*
X199646304Y-82235023D01*
X199549523Y-82174211D01*
X199379254Y-82114631D01*
X199379249Y-82114630D01*
X199200004Y-82094435D01*
X199199996Y-82094435D01*
X199020750Y-82114630D01*
X199020745Y-82114631D01*
X198850476Y-82174211D01*
X198697737Y-82270184D01*
X198570184Y-82397737D01*
X198474210Y-82550478D01*
X198414630Y-82720750D01*
X198400877Y-82842811D01*
X198385051Y-82890915D01*
X198380186Y-82899342D01*
X198379807Y-82900000D01*
X198340423Y-82968215D01*
X198299499Y-83120943D01*
X198299499Y-83120945D01*
X198299499Y-83289046D01*
X198299500Y-83289059D01*
X198299500Y-85917587D01*
X198279815Y-85984626D01*
X198272450Y-85994896D01*
X198270186Y-85997734D01*
X198174211Y-86150476D01*
X198114631Y-86320745D01*
X198114630Y-86320750D01*
X198094435Y-86499996D01*
X198094435Y-86500003D01*
X198114630Y-86679249D01*
X198114631Y-86679254D01*
X198174211Y-86849523D01*
X198260599Y-86987007D01*
X198270184Y-87002262D01*
X198397738Y-87129816D01*
X198462496Y-87170506D01*
X198508787Y-87222841D01*
X198519435Y-87291894D01*
X198491060Y-87355743D01*
X198432670Y-87394115D01*
X198396524Y-87399500D01*
X197182412Y-87399500D01*
X197115373Y-87379815D01*
X197105097Y-87372445D01*
X197102263Y-87370185D01*
X197102262Y-87370184D01*
X196999422Y-87305565D01*
X196949523Y-87274211D01*
X196779254Y-87214631D01*
X196779249Y-87214630D01*
X196600004Y-87194435D01*
X196599996Y-87194435D01*
X196420750Y-87214630D01*
X196420745Y-87214631D01*
X196250476Y-87274211D01*
X196097737Y-87370184D01*
X195970184Y-87497737D01*
X195874211Y-87650476D01*
X195814631Y-87820745D01*
X195814630Y-87820750D01*
X195794435Y-87999996D01*
X195794435Y-88000003D01*
X195814630Y-88179249D01*
X195814631Y-88179254D01*
X195874211Y-88349523D01*
X195911385Y-88408684D01*
X195970184Y-88502262D01*
X196097738Y-88629816D01*
X196188080Y-88686582D01*
X196204929Y-88697169D01*
X196250478Y-88725789D01*
X196403258Y-88779249D01*
X196420745Y-88785368D01*
X196420750Y-88785369D01*
X196599996Y-88805565D01*
X196600000Y-88805565D01*
X196600004Y-88805565D01*
X196779249Y-88785369D01*
X196779252Y-88785368D01*
X196779255Y-88785368D01*
X196949522Y-88725789D01*
X197102262Y-88629816D01*
X197102267Y-88629810D01*
X197105097Y-88627555D01*
X197107275Y-88626665D01*
X197108158Y-88626111D01*
X197108255Y-88626265D01*
X197169783Y-88601145D01*
X197182412Y-88600500D01*
X199661678Y-88600500D01*
X199728717Y-88620185D01*
X199774472Y-88672989D01*
X199784898Y-88710617D01*
X199792630Y-88779249D01*
X199852210Y-88949521D01*
X199874735Y-88985369D01*
X199948184Y-89102262D01*
X200075738Y-89229816D01*
X200228478Y-89325789D01*
X200398745Y-89385368D01*
X200398750Y-89385369D01*
X200577996Y-89405565D01*
X200578000Y-89405565D01*
X200578004Y-89405565D01*
X200757249Y-89385369D01*
X200757252Y-89385368D01*
X200757255Y-89385368D01*
X200927522Y-89325789D01*
X201080262Y-89229816D01*
X201080267Y-89229810D01*
X201083097Y-89227555D01*
X201085275Y-89226665D01*
X201086158Y-89226111D01*
X201086255Y-89226265D01*
X201147783Y-89201145D01*
X201160412Y-89200500D01*
X202313331Y-89200500D01*
X202313347Y-89200501D01*
X202320943Y-89200501D01*
X202479054Y-89200501D01*
X202479057Y-89200501D01*
X202631785Y-89159577D01*
X202681904Y-89130639D01*
X202768716Y-89080520D01*
X202880520Y-88968716D01*
X202880520Y-88968714D01*
X202890728Y-88958507D01*
X202890730Y-88958504D01*
X203558506Y-88290728D01*
X203558511Y-88290724D01*
X203568714Y-88280520D01*
X203568716Y-88280520D01*
X203680520Y-88168716D01*
X203742873Y-88060717D01*
X203759577Y-88031785D01*
X203800501Y-87879057D01*
X203800501Y-87720943D01*
X203800501Y-87713348D01*
X203800500Y-87713330D01*
X203800500Y-82718462D01*
X203820185Y-82651423D01*
X203872989Y-82605668D01*
X203910616Y-82595242D01*
X203946684Y-82591178D01*
X203998249Y-82585369D01*
X203998252Y-82585368D01*
X203998255Y-82585368D01*
X204168522Y-82525789D01*
X204321262Y-82429816D01*
X204321267Y-82429810D01*
X204324097Y-82427555D01*
X204326275Y-82426665D01*
X204327158Y-82426111D01*
X204327255Y-82426265D01*
X204388783Y-82401145D01*
X204401412Y-82400500D01*
X208309481Y-82400500D01*
X208376520Y-82420185D01*
X208422275Y-82472989D01*
X208432219Y-82542147D01*
X208403194Y-82605703D01*
X208397162Y-82612181D01*
X204258244Y-86751097D01*
X204258241Y-86751100D01*
X204198029Y-86841214D01*
X204198029Y-86841216D01*
X204189746Y-86853611D01*
X204181576Y-86865839D01*
X204128775Y-86993313D01*
X204128772Y-86993323D01*
X204101854Y-87128650D01*
X204101854Y-87922153D01*
X204082848Y-87988124D01*
X204076563Y-87998125D01*
X204016987Y-88168383D01*
X204016984Y-88168396D01*
X203996789Y-88347642D01*
X203996789Y-88347649D01*
X204016984Y-88526895D01*
X204016985Y-88526900D01*
X204076565Y-88697169D01*
X204131985Y-88785368D01*
X204172538Y-88849908D01*
X204300092Y-88977462D01*
X204452832Y-89073435D01*
X204535215Y-89102262D01*
X204623099Y-89133014D01*
X204623104Y-89133015D01*
X204802350Y-89153211D01*
X204802354Y-89153211D01*
X204802358Y-89153211D01*
X204981603Y-89133015D01*
X204981606Y-89133014D01*
X204981609Y-89133014D01*
X205151876Y-89073435D01*
X205304616Y-88977462D01*
X205432170Y-88849908D01*
X205528143Y-88697168D01*
X205587722Y-88526901D01*
X205590498Y-88502262D01*
X205607919Y-88347649D01*
X205607919Y-88347642D01*
X205587723Y-88168396D01*
X205587720Y-88168383D01*
X205528144Y-87998125D01*
X205521860Y-87988124D01*
X205502854Y-87922153D01*
X205502854Y-87539165D01*
X205522539Y-87472126D01*
X205539173Y-87451484D01*
X205990660Y-86999997D01*
X243145080Y-86999997D01*
X243145080Y-87000002D01*
X243164746Y-87362728D01*
X243223517Y-87721214D01*
X243223519Y-87721222D01*
X243320695Y-88071220D01*
X243320697Y-88071227D01*
X243455152Y-88408684D01*
X243455161Y-88408702D01*
X243625316Y-88729647D01*
X243625318Y-88729651D01*
X243829170Y-89030309D01*
X243829177Y-89030319D01*
X243960969Y-89185475D01*
X243960970Y-89185475D01*
X245205748Y-87940698D01*
X245279588Y-88042330D01*
X245457670Y-88220412D01*
X245559300Y-88294251D01*
X244311888Y-89541662D01*
X244311888Y-89541664D01*
X244328070Y-89556992D01*
X244328071Y-89556993D01*
X244617266Y-89776832D01*
X244617282Y-89776843D01*
X244928522Y-89964109D01*
X244928535Y-89964116D01*
X245258205Y-90116639D01*
X245258210Y-90116640D01*
X245602461Y-90232632D01*
X245957235Y-90310724D01*
X246318366Y-90349999D01*
X246318374Y-90350000D01*
X246681626Y-90350000D01*
X246681633Y-90349999D01*
X247042764Y-90310724D01*
X247397538Y-90232632D01*
X247741789Y-90116640D01*
X247741794Y-90116639D01*
X248071464Y-89964116D01*
X248071477Y-89964109D01*
X248382717Y-89776843D01*
X248382733Y-89776832D01*
X248671929Y-89556992D01*
X248688110Y-89541664D01*
X248688110Y-89541663D01*
X247440698Y-88294251D01*
X247542330Y-88220412D01*
X247720412Y-88042330D01*
X247794251Y-87940698D01*
X249039028Y-89185475D01*
X249039029Y-89185475D01*
X249170827Y-89030311D01*
X249170838Y-89030297D01*
X249374681Y-88729651D01*
X249374683Y-88729647D01*
X249544838Y-88408702D01*
X249544847Y-88408684D01*
X249679302Y-88071227D01*
X249679304Y-88071220D01*
X249776480Y-87721222D01*
X249776482Y-87721214D01*
X249835253Y-87362728D01*
X249854920Y-87000002D01*
X249854920Y-86999997D01*
X249835253Y-86637271D01*
X249776482Y-86278785D01*
X249776480Y-86278777D01*
X249679304Y-85928779D01*
X249679302Y-85928772D01*
X249544847Y-85591315D01*
X249544838Y-85591297D01*
X249374683Y-85270352D01*
X249374681Y-85270348D01*
X249170829Y-84969690D01*
X249170822Y-84969680D01*
X249039029Y-84814523D01*
X249039028Y-84814523D01*
X247794251Y-86059300D01*
X247720412Y-85957670D01*
X247542330Y-85779588D01*
X247440698Y-85705748D01*
X248688110Y-84458336D01*
X248688110Y-84458334D01*
X248671929Y-84443007D01*
X248671928Y-84443006D01*
X248382733Y-84223167D01*
X248382717Y-84223156D01*
X248071477Y-84035890D01*
X248071464Y-84035883D01*
X247741794Y-83883360D01*
X247741789Y-83883359D01*
X247397538Y-83767367D01*
X247042764Y-83689275D01*
X246681633Y-83650000D01*
X246318366Y-83650000D01*
X245957235Y-83689275D01*
X245602461Y-83767367D01*
X245258210Y-83883359D01*
X245258205Y-83883360D01*
X244928535Y-84035883D01*
X244928522Y-84035890D01*
X244617282Y-84223156D01*
X244617266Y-84223167D01*
X244328075Y-84443002D01*
X244311888Y-84458335D01*
X244311887Y-84458335D01*
X245559301Y-85705748D01*
X245457670Y-85779588D01*
X245279588Y-85957670D01*
X245205748Y-86059300D01*
X243960970Y-84814522D01*
X243960969Y-84814523D01*
X243829177Y-84969680D01*
X243829170Y-84969690D01*
X243625318Y-85270348D01*
X243625316Y-85270352D01*
X243455161Y-85591297D01*
X243455152Y-85591315D01*
X243320697Y-85928772D01*
X243320695Y-85928779D01*
X243223519Y-86278777D01*
X243223517Y-86278785D01*
X243164746Y-86637271D01*
X243145080Y-86999997D01*
X205990660Y-86999997D01*
X212190112Y-80800545D01*
X212190114Y-80800543D01*
X212266775Y-80685811D01*
X212283067Y-80646480D01*
X212293177Y-80622069D01*
X212319580Y-80558328D01*
X212332361Y-80494075D01*
X212346500Y-80422996D01*
X212346500Y-79225493D01*
X212365508Y-79159519D01*
X212371787Y-79149525D01*
X212371786Y-79149525D01*
X212371789Y-79149522D01*
X212431368Y-78979255D01*
X212432136Y-78972445D01*
X212450369Y-78810617D01*
X212477435Y-78746203D01*
X212535030Y-78706648D01*
X212573589Y-78700500D01*
X213234083Y-78700500D01*
X213301122Y-78720185D01*
X213346877Y-78772989D01*
X213351125Y-78783546D01*
X213374210Y-78849521D01*
X213428152Y-78935368D01*
X213470184Y-79002262D01*
X213597738Y-79129816D01*
X213750478Y-79225789D01*
X213920745Y-79285368D01*
X213920750Y-79285369D01*
X214099996Y-79305565D01*
X214100000Y-79305565D01*
X214100004Y-79305565D01*
X214279249Y-79285369D01*
X214279252Y-79285368D01*
X214279255Y-79285368D01*
X214449522Y-79225789D01*
X214602262Y-79129816D01*
X214729816Y-79002262D01*
X214825789Y-78849522D01*
X214885368Y-78679255D01*
X214886613Y-78668209D01*
X214905565Y-78500003D01*
X214905565Y-78499996D01*
X214885369Y-78320750D01*
X214885368Y-78320745D01*
X214880056Y-78305565D01*
X214825789Y-78150478D01*
X214825188Y-78149522D01*
X214768671Y-78059576D01*
X214729816Y-77997738D01*
X214602262Y-77870184D01*
X214583669Y-77858501D01*
X214449521Y-77774210D01*
X214282904Y-77715909D01*
X214279255Y-77714632D01*
X214279254Y-77714631D01*
X214279249Y-77714630D01*
X214192331Y-77704837D01*
X214127917Y-77677770D01*
X214118534Y-77669298D01*
X214068717Y-77619481D01*
X214068709Y-77619475D01*
X213954361Y-77553457D01*
X213954361Y-77553456D01*
X213954358Y-77553456D01*
X213931785Y-77540423D01*
X213779057Y-77499499D01*
X213620943Y-77499499D01*
X213613347Y-77499499D01*
X213613331Y-77499500D01*
X208594519Y-77499500D01*
X208527480Y-77479815D01*
X208481725Y-77427011D01*
X208471781Y-77357853D01*
X208500806Y-77294297D01*
X208506838Y-77287819D01*
X208794113Y-77000543D01*
X208794115Y-77000540D01*
X208795988Y-76997738D01*
X208870775Y-76885811D01*
X208917000Y-76774214D01*
X208917002Y-76774210D01*
X208923577Y-76758337D01*
X208923577Y-76758334D01*
X208923580Y-76758329D01*
X208926187Y-76745218D01*
X208934230Y-76704788D01*
X208934230Y-76704785D01*
X208950500Y-76622993D01*
X208950500Y-75425493D01*
X208969508Y-75359519D01*
X208975787Y-75349525D01*
X208975786Y-75349525D01*
X208975789Y-75349522D01*
X209035368Y-75179255D01*
X209054596Y-75008599D01*
X209055565Y-75000003D01*
X209055565Y-74999996D01*
X209035369Y-74820750D01*
X209035366Y-74820737D01*
X208975790Y-74650479D01*
X208969506Y-74640478D01*
X208950500Y-74574507D01*
X208950500Y-72791518D01*
X208970185Y-72724479D01*
X208986814Y-72703842D01*
X211199290Y-70491365D01*
X211246013Y-70462007D01*
X211349522Y-70425789D01*
X211502262Y-70329816D01*
X211629816Y-70202262D01*
X211725789Y-70049522D01*
X211785368Y-69879255D01*
X211805565Y-69700000D01*
X211797855Y-69631575D01*
X211785369Y-69520750D01*
X211785366Y-69520737D01*
X211725790Y-69350479D01*
X211719506Y-69340478D01*
X211700500Y-69274507D01*
X211700500Y-62824500D01*
X211720185Y-62757461D01*
X211772989Y-62711706D01*
X211824500Y-62700500D01*
X233108481Y-62700500D01*
X233175520Y-62720185D01*
X233196162Y-62736819D01*
X235715580Y-65256238D01*
X235715581Y-65256239D01*
X235830319Y-65332904D01*
X235957794Y-65385705D01*
X235957799Y-65385707D01*
X235957803Y-65385707D01*
X235957804Y-65385708D01*
X236093130Y-65412627D01*
X236093133Y-65412627D01*
X236093134Y-65412627D01*
X239417837Y-65412627D01*
X239483808Y-65431633D01*
X239493805Y-65437914D01*
X239493806Y-65437914D01*
X239493809Y-65437916D01*
X239627213Y-65484596D01*
X239664076Y-65497495D01*
X239664081Y-65497496D01*
X239843327Y-65517692D01*
X239843331Y-65517692D01*
X239843335Y-65517692D01*
X240022580Y-65497496D01*
X240022583Y-65497495D01*
X240022586Y-65497495D01*
X240192853Y-65437916D01*
X240345593Y-65341943D01*
X240473147Y-65214389D01*
X240569120Y-65061649D01*
X240628699Y-64891382D01*
X240632431Y-64858262D01*
X240648896Y-64712130D01*
X240648896Y-64712123D01*
X240628700Y-64532877D01*
X240628699Y-64532872D01*
X240589461Y-64420737D01*
X240569120Y-64362605D01*
X240473147Y-64209865D01*
X240345593Y-64082311D01*
X240268753Y-64034029D01*
X240192854Y-63986338D01*
X240022585Y-63926758D01*
X240022580Y-63926757D01*
X239843335Y-63906562D01*
X239843327Y-63906562D01*
X239664081Y-63926757D01*
X239664076Y-63926758D01*
X239493805Y-63986339D01*
X239483808Y-63992621D01*
X239417837Y-64011627D01*
X236503646Y-64011627D01*
X236436607Y-63991942D01*
X236415965Y-63975308D01*
X233896546Y-61455888D01*
X233896545Y-61455887D01*
X233781807Y-61379222D01*
X233654332Y-61326421D01*
X233654322Y-61326418D01*
X233518996Y-61299500D01*
X233518994Y-61299500D01*
X233518993Y-61299500D01*
X211824500Y-61299500D01*
X211757461Y-61279815D01*
X211711706Y-61227011D01*
X211700500Y-61175500D01*
X211700500Y-60021004D01*
X211673581Y-59885677D01*
X211673580Y-59885676D01*
X211673580Y-59885672D01*
X211659002Y-59850478D01*
X211620778Y-59758195D01*
X211620776Y-59758191D01*
X211620775Y-59758189D01*
X211578931Y-59695565D01*
X211544114Y-59643457D01*
X211544112Y-59643454D01*
X211544109Y-59643451D01*
X210541367Y-58640710D01*
X210512006Y-58593983D01*
X210506852Y-58579254D01*
X210475789Y-58490478D01*
X210379816Y-58337738D01*
X210252262Y-58210184D01*
X210162819Y-58153983D01*
X210099523Y-58114211D01*
X209929254Y-58054631D01*
X209929249Y-58054630D01*
X209750004Y-58034435D01*
X209749996Y-58034435D01*
X209570750Y-58054630D01*
X209570745Y-58054631D01*
X209400475Y-58114211D01*
X209374565Y-58130493D01*
X209308592Y-58149500D01*
X196824500Y-58149500D01*
X196757461Y-58129815D01*
X196711706Y-58077011D01*
X196700500Y-58025500D01*
X196700500Y-57241004D01*
X196673581Y-57105677D01*
X196673580Y-57105676D01*
X196673580Y-57105672D01*
X196673578Y-57105667D01*
X196620777Y-56978192D01*
X196544112Y-56863454D01*
X196544111Y-56863453D01*
X194291367Y-54610710D01*
X194262006Y-54563983D01*
X194227059Y-54464109D01*
X194225789Y-54460478D01*
X194223906Y-54457482D01*
X194129815Y-54307737D01*
X194002262Y-54180184D01*
X193874644Y-54099996D01*
X199594435Y-54099996D01*
X199594435Y-54100003D01*
X199614630Y-54279249D01*
X199614631Y-54279254D01*
X199674211Y-54449523D01*
X199698829Y-54488702D01*
X199770184Y-54602262D01*
X199897738Y-54729816D01*
X199988080Y-54786582D01*
X200025795Y-54810280D01*
X200050478Y-54825789D01*
X200121098Y-54850500D01*
X200220745Y-54885368D01*
X200220750Y-54885369D01*
X200399996Y-54905565D01*
X200400000Y-54905565D01*
X200400004Y-54905565D01*
X200579249Y-54885369D01*
X200579252Y-54885368D01*
X200579255Y-54885368D01*
X200749522Y-54825789D01*
X200902262Y-54729816D01*
X200902267Y-54729810D01*
X200905097Y-54727555D01*
X200907275Y-54726665D01*
X200908158Y-54726111D01*
X200908255Y-54726265D01*
X200969783Y-54701145D01*
X200982412Y-54700500D01*
X201517588Y-54700500D01*
X201584627Y-54720185D01*
X201594903Y-54727555D01*
X201597736Y-54729814D01*
X201597738Y-54729816D01*
X201699563Y-54793797D01*
X201725795Y-54810280D01*
X201750478Y-54825789D01*
X201821098Y-54850500D01*
X201920745Y-54885368D01*
X201920750Y-54885369D01*
X202099996Y-54905565D01*
X202100000Y-54905565D01*
X202100004Y-54905565D01*
X202279249Y-54885369D01*
X202279252Y-54885368D01*
X202279255Y-54885368D01*
X202449522Y-54825789D01*
X202602262Y-54729816D01*
X202729816Y-54602262D01*
X202825789Y-54449522D01*
X202843119Y-54399996D01*
X208194435Y-54399996D01*
X208194435Y-54400003D01*
X208214630Y-54579249D01*
X208214631Y-54579254D01*
X208274211Y-54749523D01*
X208337658Y-54850498D01*
X208370184Y-54902262D01*
X208497738Y-55029816D01*
X208588080Y-55086582D01*
X208650474Y-55125787D01*
X208650478Y-55125789D01*
X208820745Y-55185368D01*
X208820750Y-55185369D01*
X208999996Y-55205565D01*
X209000000Y-55205565D01*
X209000004Y-55205565D01*
X209179249Y-55185369D01*
X209179252Y-55185368D01*
X209179255Y-55185368D01*
X209349522Y-55125789D01*
X209350488Y-55125181D01*
X209359523Y-55119506D01*
X209425494Y-55100500D01*
X238658481Y-55100500D01*
X238725520Y-55120185D01*
X238746162Y-55136819D01*
X241077113Y-57467770D01*
X241110598Y-57529093D01*
X241105614Y-57598785D01*
X241063742Y-57654718D01*
X241030389Y-57672492D01*
X241025478Y-57674210D01*
X240872737Y-57770184D01*
X240745184Y-57897737D01*
X240649211Y-58050476D01*
X240589631Y-58220745D01*
X240589630Y-58220750D01*
X240569435Y-58399996D01*
X240569435Y-58400003D01*
X240589630Y-58579249D01*
X240589631Y-58579254D01*
X240649211Y-58749523D01*
X240699185Y-58829055D01*
X240727372Y-58873915D01*
X240745185Y-58902263D01*
X240747445Y-58905097D01*
X240748334Y-58907275D01*
X240748889Y-58908158D01*
X240748734Y-58908255D01*
X240773855Y-58969783D01*
X240774500Y-58982412D01*
X240774500Y-59088330D01*
X240774499Y-59088348D01*
X240774499Y-59254054D01*
X240774498Y-59254054D01*
X240774499Y-59254057D01*
X240815423Y-59406785D01*
X240815424Y-59406787D01*
X240815423Y-59406787D01*
X240831199Y-59434110D01*
X240831201Y-59434112D01*
X240831202Y-59434114D01*
X240857979Y-59480494D01*
X240894479Y-59543715D01*
X241013349Y-59662585D01*
X241013355Y-59662590D01*
X242763181Y-61412416D01*
X242796666Y-61473739D01*
X242799500Y-61500097D01*
X242799500Y-76899903D01*
X242779815Y-76966942D01*
X242763181Y-76987584D01*
X241487584Y-78263181D01*
X241426261Y-78296666D01*
X241399903Y-78299500D01*
X238620943Y-78299500D01*
X238468216Y-78340423D01*
X238468209Y-78340426D01*
X238331290Y-78419475D01*
X238331282Y-78419481D01*
X238219481Y-78531282D01*
X238219475Y-78531290D01*
X238140426Y-78668209D01*
X238140423Y-78668216D01*
X238099500Y-78820943D01*
X238099500Y-83802126D01*
X238099499Y-83802144D01*
X238099499Y-83967850D01*
X238099498Y-83967850D01*
X238099499Y-83967853D01*
X238140423Y-84120581D01*
X238140424Y-84120583D01*
X238140423Y-84120583D01*
X238151635Y-84140001D01*
X238151636Y-84140003D01*
X238219475Y-84257505D01*
X238219481Y-84257513D01*
X238338349Y-84376381D01*
X238338355Y-84376386D01*
X239012629Y-85050660D01*
X239046114Y-85111983D01*
X239048168Y-85124457D01*
X239057961Y-85211376D01*
X239117541Y-85381648D01*
X239202728Y-85517221D01*
X239213515Y-85534389D01*
X239341069Y-85661943D01*
X239493809Y-85757916D01*
X239629982Y-85805565D01*
X239664076Y-85817495D01*
X239664081Y-85817496D01*
X239843327Y-85837692D01*
X239843331Y-85837692D01*
X239843335Y-85837692D01*
X240022580Y-85817496D01*
X240022583Y-85817495D01*
X240022586Y-85817495D01*
X240192853Y-85757916D01*
X240345593Y-85661943D01*
X240473147Y-85534389D01*
X240569120Y-85381649D01*
X240628699Y-85211382D01*
X240638493Y-85124457D01*
X240648896Y-85032130D01*
X240648896Y-85032123D01*
X240628700Y-84852877D01*
X240628699Y-84852872D01*
X240615280Y-84814522D01*
X240569120Y-84682605D01*
X240567809Y-84680519D01*
X240527032Y-84615623D01*
X240473147Y-84529865D01*
X240345593Y-84402311D01*
X240302769Y-84375403D01*
X240192852Y-84306337D01*
X240022580Y-84246757D01*
X239935661Y-84236964D01*
X239871247Y-84209897D01*
X239861864Y-84201425D01*
X239336819Y-83676380D01*
X239303334Y-83615057D01*
X239300500Y-83588699D01*
X239300500Y-79624500D01*
X239320185Y-79557461D01*
X239372989Y-79511706D01*
X239424500Y-79500500D01*
X241613331Y-79500500D01*
X241613347Y-79500501D01*
X241620943Y-79500501D01*
X241779054Y-79500501D01*
X241779057Y-79500501D01*
X241931785Y-79459577D01*
X241985237Y-79428716D01*
X242068716Y-79380520D01*
X242180520Y-79268716D01*
X242180520Y-79268714D01*
X242190724Y-79258511D01*
X242190728Y-79258506D01*
X243758506Y-77690728D01*
X243758511Y-77690724D01*
X243768714Y-77680520D01*
X243768716Y-77680520D01*
X243880520Y-77568716D01*
X243949349Y-77449500D01*
X243959577Y-77431785D01*
X244000500Y-77279057D01*
X244000500Y-77120943D01*
X244000500Y-67150519D01*
X244020185Y-67083480D01*
X244072989Y-67037725D01*
X244142147Y-67027781D01*
X244205703Y-67056806D01*
X244212181Y-67062838D01*
X245037348Y-67888005D01*
X245070833Y-67949328D01*
X245069442Y-68007778D01*
X245064939Y-68024584D01*
X245064936Y-68024597D01*
X245044341Y-68259999D01*
X245044341Y-68260000D01*
X245064936Y-68495403D01*
X245064938Y-68495413D01*
X245126094Y-68723655D01*
X245126096Y-68723659D01*
X245126097Y-68723663D01*
X245225965Y-68937830D01*
X245225967Y-68937834D01*
X245361501Y-69131395D01*
X245361506Y-69131402D01*
X245528597Y-69298493D01*
X245528603Y-69298498D01*
X245714158Y-69428425D01*
X245757783Y-69483002D01*
X245764977Y-69552500D01*
X245733454Y-69614855D01*
X245714158Y-69631575D01*
X245528597Y-69761505D01*
X245361505Y-69928597D01*
X245225965Y-70122169D01*
X245225964Y-70122171D01*
X245126098Y-70336335D01*
X245126094Y-70336344D01*
X245064938Y-70564586D01*
X245064936Y-70564596D01*
X245044341Y-70799999D01*
X245044341Y-70800000D01*
X245064936Y-71035403D01*
X245064938Y-71035413D01*
X245126094Y-71263655D01*
X245126096Y-71263659D01*
X245126097Y-71263663D01*
X245211129Y-71446014D01*
X245225965Y-71477830D01*
X245225967Y-71477834D01*
X245361501Y-71671395D01*
X245361506Y-71671402D01*
X245528597Y-71838493D01*
X245528603Y-71838498D01*
X245714158Y-71968425D01*
X245757783Y-72023002D01*
X245764977Y-72092500D01*
X245733454Y-72154855D01*
X245714158Y-72171575D01*
X245528597Y-72301505D01*
X245361505Y-72468597D01*
X245225965Y-72662169D01*
X245225964Y-72662171D01*
X245126098Y-72876335D01*
X245126094Y-72876344D01*
X245064938Y-73104586D01*
X245064936Y-73104596D01*
X245044341Y-73339999D01*
X245044341Y-73340000D01*
X245064936Y-73575403D01*
X245064938Y-73575413D01*
X245126094Y-73803655D01*
X245126096Y-73803659D01*
X245126097Y-73803663D01*
X245191589Y-73944111D01*
X245225965Y-74017830D01*
X245225967Y-74017834D01*
X245361501Y-74211395D01*
X245361506Y-74211402D01*
X245528597Y-74378493D01*
X245528603Y-74378498D01*
X245714158Y-74508425D01*
X245757783Y-74563002D01*
X245764977Y-74632500D01*
X245733454Y-74694855D01*
X245714158Y-74711575D01*
X245528597Y-74841505D01*
X245361505Y-75008597D01*
X245225965Y-75202169D01*
X245225964Y-75202171D01*
X245126098Y-75416335D01*
X245126094Y-75416344D01*
X245064938Y-75644586D01*
X245064936Y-75644596D01*
X245044341Y-75879999D01*
X245044341Y-75880000D01*
X245064936Y-76115403D01*
X245064938Y-76115413D01*
X245126094Y-76343655D01*
X245126096Y-76343659D01*
X245126097Y-76343663D01*
X245200053Y-76502262D01*
X245225965Y-76557830D01*
X245225967Y-76557834D01*
X245361501Y-76751395D01*
X245361506Y-76751402D01*
X245528597Y-76918493D01*
X245528603Y-76918498D01*
X245714158Y-77048425D01*
X245757783Y-77103002D01*
X245764977Y-77172500D01*
X245733454Y-77234855D01*
X245714158Y-77251575D01*
X245528597Y-77381505D01*
X245361505Y-77548597D01*
X245225965Y-77742169D01*
X245225964Y-77742171D01*
X245158912Y-77885965D01*
X245126105Y-77956321D01*
X245126098Y-77956335D01*
X245126094Y-77956344D01*
X245064938Y-78184586D01*
X245064936Y-78184596D01*
X245044341Y-78419999D01*
X245044341Y-78420000D01*
X245064936Y-78655403D01*
X245064938Y-78655413D01*
X245126094Y-78883655D01*
X245126096Y-78883659D01*
X245126097Y-78883663D01*
X245181401Y-79002262D01*
X245225965Y-79097830D01*
X245225967Y-79097834D01*
X245319412Y-79231286D01*
X245357281Y-79285369D01*
X245361501Y-79291395D01*
X245361506Y-79291402D01*
X245528597Y-79458493D01*
X245528603Y-79458498D01*
X245714594Y-79588730D01*
X245758219Y-79643307D01*
X245765413Y-79712805D01*
X245733890Y-79775160D01*
X245714595Y-79791880D01*
X245528922Y-79921890D01*
X245528920Y-79921891D01*
X245361891Y-80088920D01*
X245361886Y-80088926D01*
X245226400Y-80282420D01*
X245226399Y-80282422D01*
X245126570Y-80496507D01*
X245126567Y-80496513D01*
X245069364Y-80709999D01*
X245069364Y-80710000D01*
X245966988Y-80710000D01*
X245934075Y-80767007D01*
X245900000Y-80894174D01*
X245900000Y-81025826D01*
X245934075Y-81152993D01*
X245966988Y-81210000D01*
X245069364Y-81210000D01*
X245126567Y-81423486D01*
X245126570Y-81423492D01*
X245226399Y-81637578D01*
X245361894Y-81831082D01*
X245528917Y-81998105D01*
X245722421Y-82133600D01*
X245936507Y-82233429D01*
X245936516Y-82233433D01*
X246150000Y-82290634D01*
X246150000Y-81393012D01*
X246207007Y-81425925D01*
X246334174Y-81460000D01*
X246465826Y-81460000D01*
X246592993Y-81425925D01*
X246650000Y-81393012D01*
X246650000Y-82290633D01*
X246863483Y-82233433D01*
X246863492Y-82233429D01*
X247077578Y-82133600D01*
X247271082Y-81998105D01*
X247438105Y-81831082D01*
X247573600Y-81637578D01*
X247673429Y-81423492D01*
X247673432Y-81423486D01*
X247730636Y-81210000D01*
X246833012Y-81210000D01*
X246865925Y-81152993D01*
X246900000Y-81025826D01*
X246900000Y-80894174D01*
X246865925Y-80767007D01*
X246833012Y-80710000D01*
X247730636Y-80710000D01*
X247730635Y-80709999D01*
X247673432Y-80496513D01*
X247673429Y-80496507D01*
X247573600Y-80282422D01*
X247573599Y-80282420D01*
X247438113Y-80088926D01*
X247438108Y-80088920D01*
X247271078Y-79921890D01*
X247085405Y-79791879D01*
X247041780Y-79737302D01*
X247034588Y-79667804D01*
X247066110Y-79605449D01*
X247085406Y-79588730D01*
X247150257Y-79543321D01*
X247271401Y-79458495D01*
X247438495Y-79291401D01*
X247574035Y-79097830D01*
X247673903Y-78883663D01*
X247735063Y-78655408D01*
X247755659Y-78420000D01*
X247735063Y-78184592D01*
X247680383Y-77980520D01*
X247673905Y-77956344D01*
X247673904Y-77956343D01*
X247673903Y-77956337D01*
X247574035Y-77742171D01*
X247561969Y-77724938D01*
X247438494Y-77548597D01*
X247271402Y-77381506D01*
X247271396Y-77381501D01*
X247085842Y-77251575D01*
X247042217Y-77196998D01*
X247035023Y-77127500D01*
X247066546Y-77065145D01*
X247085842Y-77048425D01*
X247158230Y-76997738D01*
X247271401Y-76918495D01*
X247438495Y-76751401D01*
X247574035Y-76557830D01*
X247673903Y-76343663D01*
X247735063Y-76115408D01*
X247755659Y-75880000D01*
X247735063Y-75644592D01*
X247673903Y-75416337D01*
X247574035Y-75202171D01*
X247569485Y-75195672D01*
X247438494Y-75008597D01*
X247271402Y-74841506D01*
X247271396Y-74841501D01*
X247085842Y-74711575D01*
X247042217Y-74656998D01*
X247035023Y-74587500D01*
X247066546Y-74525145D01*
X247085842Y-74508425D01*
X247167552Y-74451211D01*
X247271401Y-74378495D01*
X247438495Y-74211401D01*
X247574035Y-74017830D01*
X247673903Y-73803663D01*
X247735063Y-73575408D01*
X247755659Y-73340000D01*
X247735063Y-73104592D01*
X247673903Y-72876337D01*
X247574035Y-72662171D01*
X247438495Y-72468599D01*
X247438494Y-72468597D01*
X247271402Y-72301506D01*
X247271396Y-72301501D01*
X247085842Y-72171575D01*
X247042217Y-72116998D01*
X247035023Y-72047500D01*
X247066546Y-71985145D01*
X247085842Y-71968425D01*
X247146732Y-71925789D01*
X247271401Y-71838495D01*
X247438495Y-71671401D01*
X247574035Y-71477830D01*
X247673903Y-71263663D01*
X247735063Y-71035408D01*
X247755659Y-70800000D01*
X247735063Y-70564592D01*
X247673903Y-70336337D01*
X247574035Y-70122171D01*
X247527398Y-70055565D01*
X247438494Y-69928597D01*
X247271402Y-69761506D01*
X247271396Y-69761501D01*
X247085842Y-69631575D01*
X247042217Y-69576998D01*
X247035023Y-69507500D01*
X247066546Y-69445145D01*
X247085842Y-69428425D01*
X247197160Y-69350479D01*
X247271401Y-69298495D01*
X247438495Y-69131401D01*
X247574035Y-68937830D01*
X247673903Y-68723663D01*
X247735063Y-68495408D01*
X247755659Y-68260000D01*
X247735063Y-68024592D01*
X247673903Y-67796337D01*
X247574035Y-67582171D01*
X247438495Y-67388599D01*
X247438494Y-67388597D01*
X247271402Y-67221506D01*
X247271396Y-67221501D01*
X247085842Y-67091575D01*
X247042217Y-67036998D01*
X247035023Y-66967500D01*
X247066546Y-66905145D01*
X247085842Y-66888425D01*
X247139066Y-66851157D01*
X247271401Y-66758495D01*
X247438495Y-66591401D01*
X247574035Y-66397830D01*
X247673903Y-66183663D01*
X247735063Y-65955408D01*
X247755659Y-65720000D01*
X247735063Y-65484592D01*
X247673903Y-65256337D01*
X247574035Y-65042171D01*
X247509163Y-64949523D01*
X247438494Y-64848597D01*
X247271402Y-64681506D01*
X247271396Y-64681501D01*
X247085842Y-64551575D01*
X247042217Y-64496998D01*
X247035023Y-64427500D01*
X247066546Y-64365145D01*
X247085842Y-64348425D01*
X247192730Y-64273581D01*
X247271401Y-64218495D01*
X247438495Y-64051401D01*
X247574035Y-63857830D01*
X247673903Y-63643663D01*
X247735063Y-63415408D01*
X247755659Y-63180000D01*
X247735063Y-62944592D01*
X247673903Y-62716337D01*
X247574035Y-62502171D01*
X247468980Y-62352135D01*
X247438494Y-62308597D01*
X247271402Y-62141506D01*
X247271396Y-62141501D01*
X247085842Y-62011575D01*
X247042217Y-61956998D01*
X247035023Y-61887500D01*
X247066546Y-61825145D01*
X247085842Y-61808425D01*
X247247525Y-61695213D01*
X247271401Y-61678495D01*
X247438495Y-61511401D01*
X247574035Y-61317830D01*
X247673903Y-61103663D01*
X247735063Y-60875408D01*
X247755659Y-60640000D01*
X247735063Y-60404592D01*
X247673903Y-60176337D01*
X247574035Y-59962171D01*
X247438496Y-59768601D01*
X247438496Y-59768600D01*
X247400900Y-59731004D01*
X247316179Y-59646283D01*
X247282696Y-59584963D01*
X247287680Y-59515271D01*
X247329551Y-59459337D01*
X247360529Y-59442422D01*
X247492086Y-59393354D01*
X247492093Y-59393350D01*
X247607187Y-59307190D01*
X247607190Y-59307187D01*
X247693350Y-59192093D01*
X247693354Y-59192086D01*
X247743596Y-59057379D01*
X247743598Y-59057372D01*
X247749999Y-58997844D01*
X247750000Y-58997827D01*
X247750000Y-58350000D01*
X246833012Y-58350000D01*
X246865925Y-58292993D01*
X246900000Y-58165826D01*
X246900000Y-58034174D01*
X246865925Y-57907007D01*
X246833012Y-57850000D01*
X247750000Y-57850000D01*
X247750000Y-57202172D01*
X247749999Y-57202155D01*
X247743598Y-57142627D01*
X247743596Y-57142620D01*
X247693354Y-57007913D01*
X247693350Y-57007906D01*
X247607190Y-56892812D01*
X247607187Y-56892809D01*
X247492093Y-56806649D01*
X247492086Y-56806645D01*
X247357379Y-56756403D01*
X247357372Y-56756401D01*
X247297844Y-56750000D01*
X246650000Y-56750000D01*
X246650000Y-57666988D01*
X246592993Y-57634075D01*
X246465826Y-57600000D01*
X246334174Y-57600000D01*
X246207007Y-57634075D01*
X246150000Y-57666988D01*
X246150000Y-56750000D01*
X245502155Y-56750000D01*
X245442627Y-56756401D01*
X245442620Y-56756403D01*
X245307913Y-56806645D01*
X245307906Y-56806649D01*
X245192812Y-56892809D01*
X245192809Y-56892812D01*
X245106649Y-57007906D01*
X245106645Y-57007913D01*
X245056403Y-57142620D01*
X245056401Y-57142627D01*
X245050000Y-57202155D01*
X245050000Y-57850000D01*
X245966988Y-57850000D01*
X245934075Y-57907007D01*
X245900000Y-58034174D01*
X245900000Y-58165826D01*
X245934075Y-58292993D01*
X245966988Y-58350000D01*
X245050000Y-58350000D01*
X245050000Y-58997844D01*
X245056401Y-59057372D01*
X245056403Y-59057380D01*
X245100116Y-59174581D01*
X245105100Y-59244273D01*
X245071615Y-59305596D01*
X245010291Y-59339080D01*
X244940600Y-59334095D01*
X244896253Y-59305595D01*
X243791367Y-58200710D01*
X243762006Y-58153983D01*
X243760437Y-58149500D01*
X243725789Y-58050478D01*
X243629816Y-57897738D01*
X243502262Y-57770184D01*
X243349522Y-57674211D01*
X243349519Y-57674209D01*
X243246013Y-57637990D01*
X243199287Y-57608630D01*
X239446546Y-53855888D01*
X239446545Y-53855887D01*
X239331807Y-53779222D01*
X239204332Y-53726421D01*
X239204322Y-53726418D01*
X239068996Y-53699500D01*
X239068994Y-53699500D01*
X239068993Y-53699500D01*
X209425494Y-53699500D01*
X209359523Y-53680494D01*
X209349525Y-53674212D01*
X209179254Y-53614631D01*
X209179249Y-53614630D01*
X209000004Y-53594435D01*
X208999996Y-53594435D01*
X208820750Y-53614630D01*
X208820745Y-53614631D01*
X208650476Y-53674211D01*
X208497737Y-53770184D01*
X208370184Y-53897737D01*
X208274211Y-54050476D01*
X208214631Y-54220745D01*
X208214630Y-54220750D01*
X208194435Y-54399996D01*
X202843119Y-54399996D01*
X202885368Y-54279255D01*
X202885369Y-54279249D01*
X202905565Y-54100003D01*
X202905565Y-54099996D01*
X202885369Y-53920750D01*
X202885368Y-53920745D01*
X202825789Y-53750478D01*
X202729816Y-53597738D01*
X202602262Y-53470184D01*
X202592979Y-53464351D01*
X202449523Y-53374211D01*
X202279254Y-53314631D01*
X202279249Y-53314630D01*
X202100004Y-53294435D01*
X202099996Y-53294435D01*
X201920750Y-53314630D01*
X201920745Y-53314631D01*
X201750476Y-53374211D01*
X201597736Y-53470185D01*
X201594903Y-53472445D01*
X201592724Y-53473334D01*
X201591842Y-53473889D01*
X201591744Y-53473734D01*
X201530217Y-53498855D01*
X201517588Y-53499500D01*
X200982412Y-53499500D01*
X200915373Y-53479815D01*
X200905097Y-53472445D01*
X200902263Y-53470185D01*
X200902262Y-53470184D01*
X200845496Y-53434515D01*
X200749523Y-53374211D01*
X200579254Y-53314631D01*
X200579249Y-53314630D01*
X200400004Y-53294435D01*
X200399996Y-53294435D01*
X200220750Y-53314630D01*
X200220745Y-53314631D01*
X200050476Y-53374211D01*
X199897737Y-53470184D01*
X199770184Y-53597737D01*
X199674211Y-53750476D01*
X199614631Y-53920745D01*
X199614630Y-53920750D01*
X199594435Y-54099996D01*
X193874644Y-54099996D01*
X193849523Y-54084211D01*
X193679254Y-54024631D01*
X193679249Y-54024630D01*
X193500004Y-54004435D01*
X193499996Y-54004435D01*
X193320750Y-54024630D01*
X193320745Y-54024631D01*
X193150476Y-54084211D01*
X192997737Y-54180184D01*
X192870184Y-54307737D01*
X192774211Y-54460476D01*
X192714631Y-54630745D01*
X192714630Y-54630750D01*
X192694435Y-54809996D01*
X192694435Y-54810003D01*
X192714630Y-54989249D01*
X192714631Y-54989254D01*
X192774211Y-55159523D01*
X192870184Y-55312262D01*
X192997738Y-55439816D01*
X193150478Y-55535789D01*
X193253984Y-55572007D01*
X193300710Y-55601367D01*
X195263181Y-57563838D01*
X195296666Y-57625161D01*
X195299500Y-57651519D01*
X195299500Y-58464507D01*
X195280494Y-58530478D01*
X195274209Y-58540479D01*
X195237992Y-58643983D01*
X195208632Y-58690709D01*
X194436162Y-59463181D01*
X194374839Y-59496666D01*
X194348481Y-59499500D01*
X190425494Y-59499500D01*
X190359523Y-59480494D01*
X190349525Y-59474212D01*
X190179254Y-59414631D01*
X190179249Y-59414630D01*
X190000004Y-59394435D01*
X189999996Y-59394435D01*
X189820750Y-59414630D01*
X189820745Y-59414631D01*
X189650474Y-59474212D01*
X189640477Y-59480494D01*
X189574506Y-59499500D01*
X188631005Y-59499500D01*
X188551722Y-59515271D01*
X188509950Y-59523580D01*
X188495672Y-59526420D01*
X188495671Y-59526420D01*
X188495668Y-59526421D01*
X188368192Y-59579223D01*
X188253454Y-59655887D01*
X188253453Y-59655888D01*
X185046162Y-62863181D01*
X184984839Y-62896666D01*
X184958481Y-62899500D01*
X184925494Y-62899500D01*
X184859523Y-62880494D01*
X184849525Y-62874212D01*
X184679254Y-62814631D01*
X184679249Y-62814630D01*
X184500004Y-62794435D01*
X184499996Y-62794435D01*
X184320750Y-62814630D01*
X184320745Y-62814631D01*
X184150476Y-62874211D01*
X183997737Y-62970184D01*
X183870184Y-63097737D01*
X183774211Y-63250476D01*
X183714633Y-63420742D01*
X183714630Y-63420750D01*
X183694435Y-63599996D01*
X183694435Y-63600003D01*
X183714630Y-63779249D01*
X183714633Y-63779262D01*
X183774209Y-63949520D01*
X183827309Y-64034029D01*
X183846309Y-64101266D01*
X183827309Y-64165971D01*
X183774209Y-64250479D01*
X183714633Y-64420737D01*
X183714630Y-64420750D01*
X183694435Y-64599996D01*
X183694435Y-64600003D01*
X183714630Y-64779249D01*
X183714631Y-64779254D01*
X183774211Y-64949523D01*
X183870185Y-65102263D01*
X183872445Y-65105097D01*
X183873334Y-65107275D01*
X183873889Y-65108158D01*
X183873734Y-65108255D01*
X183898855Y-65169783D01*
X183899500Y-65182412D01*
X183899500Y-67799902D01*
X183879815Y-67866941D01*
X183863181Y-67887583D01*
X183331465Y-68419298D01*
X183270142Y-68452783D01*
X183257668Y-68454837D01*
X183170750Y-68464630D01*
X183000478Y-68524210D01*
X182847737Y-68620184D01*
X182720184Y-68747737D01*
X182624211Y-68900476D01*
X182564631Y-69070745D01*
X182564630Y-69070750D01*
X182544435Y-69249996D01*
X182544435Y-69250003D01*
X182564630Y-69429249D01*
X182564631Y-69429254D01*
X182624211Y-69599523D01*
X182687347Y-69700003D01*
X182720184Y-69752262D01*
X182847738Y-69879816D01*
X183000478Y-69975789D01*
X183170745Y-70035368D01*
X183170750Y-70035369D01*
X183349996Y-70055565D01*
X183350000Y-70055565D01*
X183350004Y-70055565D01*
X183529249Y-70035369D01*
X183529252Y-70035368D01*
X183529255Y-70035368D01*
X183699522Y-69975789D01*
X183852262Y-69879816D01*
X183979816Y-69752262D01*
X184075789Y-69599522D01*
X184135368Y-69429255D01*
X184145161Y-69342329D01*
X184172226Y-69277918D01*
X184180690Y-69268544D01*
X184980520Y-68468716D01*
X185059577Y-68331784D01*
X185100501Y-68179057D01*
X185100501Y-68020942D01*
X185100501Y-68013347D01*
X185100500Y-68013329D01*
X185100500Y-65182412D01*
X185120185Y-65115373D01*
X185127555Y-65105097D01*
X185129810Y-65102267D01*
X185129816Y-65102262D01*
X185225789Y-64949522D01*
X185285368Y-64779255D01*
X185292931Y-64712130D01*
X185305565Y-64600003D01*
X185305565Y-64599996D01*
X185286712Y-64432669D01*
X185298767Y-64363848D01*
X185346116Y-64312468D01*
X185385741Y-64297169D01*
X185419374Y-64290478D01*
X185504328Y-64273580D01*
X185568069Y-64247177D01*
X185631807Y-64220777D01*
X185631808Y-64220776D01*
X185631811Y-64220775D01*
X185746543Y-64144114D01*
X188953838Y-60936819D01*
X189015161Y-60903334D01*
X189041519Y-60900500D01*
X189574506Y-60900500D01*
X189640477Y-60919506D01*
X189650474Y-60925787D01*
X189650475Y-60925787D01*
X189650478Y-60925789D01*
X189785368Y-60972989D01*
X189820745Y-60985368D01*
X189820750Y-60985369D01*
X189999996Y-61005565D01*
X190000000Y-61005565D01*
X190000004Y-61005565D01*
X190179249Y-60985369D01*
X190179252Y-60985368D01*
X190179255Y-60985368D01*
X190349522Y-60925789D01*
X190350488Y-60925181D01*
X190359523Y-60919506D01*
X190425494Y-60900500D01*
X193025504Y-60900500D01*
X193092543Y-60920185D01*
X193138298Y-60972989D01*
X193148242Y-61042147D01*
X193130497Y-61090473D01*
X193124211Y-61100476D01*
X193064630Y-61270750D01*
X193054837Y-61357668D01*
X193027770Y-61422082D01*
X193019301Y-61431462D01*
X193004289Y-61446475D01*
X193004286Y-61446478D01*
X192892481Y-61558282D01*
X192892475Y-61558290D01*
X192851505Y-61629254D01*
X192851505Y-61629255D01*
X192813423Y-61695215D01*
X192772499Y-61847943D01*
X192772499Y-61847945D01*
X192772499Y-62016046D01*
X192772500Y-62016059D01*
X192772500Y-62264454D01*
X192752815Y-62331493D01*
X192736181Y-62352135D01*
X179252136Y-75836181D01*
X179190813Y-75869666D01*
X179164455Y-75872500D01*
X178496481Y-75872500D01*
X178429442Y-75852815D01*
X178419166Y-75845445D01*
X178416332Y-75843185D01*
X178416331Y-75843184D01*
X178394542Y-75829493D01*
X178348252Y-75777159D01*
X178337604Y-75708106D01*
X178365979Y-75644257D01*
X178424368Y-75605885D01*
X178460515Y-75600500D01*
X178513331Y-75600500D01*
X178513347Y-75600501D01*
X178520943Y-75600501D01*
X178679054Y-75600501D01*
X178679057Y-75600501D01*
X178831785Y-75559577D01*
X178889037Y-75526522D01*
X178968716Y-75480520D01*
X179080520Y-75368716D01*
X179080520Y-75368714D01*
X179090724Y-75358511D01*
X179090728Y-75358506D01*
X179618535Y-74830698D01*
X179679856Y-74797215D01*
X179692311Y-74795163D01*
X179779255Y-74785368D01*
X179949522Y-74725789D01*
X180102262Y-74629816D01*
X180229816Y-74502262D01*
X180325789Y-74349522D01*
X180385368Y-74179255D01*
X180385369Y-74179249D01*
X180405565Y-74000003D01*
X180405565Y-73999996D01*
X180385369Y-73820750D01*
X180385368Y-73820745D01*
X180325788Y-73650476D01*
X180278616Y-73575403D01*
X180229816Y-73497738D01*
X180102262Y-73370184D01*
X179949523Y-73274211D01*
X179779254Y-73214631D01*
X179779249Y-73214630D01*
X179600004Y-73194435D01*
X179599996Y-73194435D01*
X179420750Y-73214630D01*
X179420745Y-73214631D01*
X179250476Y-73274211D01*
X179097737Y-73370184D01*
X178970184Y-73497737D01*
X178874210Y-73650478D01*
X178814630Y-73820750D01*
X178804837Y-73907668D01*
X178777770Y-73972082D01*
X178769298Y-73981465D01*
X178387584Y-74363181D01*
X178326261Y-74396666D01*
X178299903Y-74399500D01*
X173663670Y-74399500D01*
X173663654Y-74399499D01*
X173656058Y-74399499D01*
X173622807Y-74399499D01*
X173581853Y-74392541D01*
X173579252Y-74391631D01*
X173400004Y-74371435D01*
X173399996Y-74371435D01*
X173220750Y-74391630D01*
X173220745Y-74391631D01*
X173050476Y-74451211D01*
X172897737Y-74547184D01*
X172770184Y-74674737D01*
X172674211Y-74827476D01*
X172614631Y-74997745D01*
X172614630Y-74997750D01*
X172593655Y-75183919D01*
X172592017Y-75183734D01*
X172574750Y-75242539D01*
X172521946Y-75288294D01*
X172470435Y-75299500D01*
X170400494Y-75299500D01*
X170334523Y-75280494D01*
X170324525Y-75274212D01*
X170154254Y-75214631D01*
X170154249Y-75214630D01*
X169975004Y-75194435D01*
X169974996Y-75194435D01*
X169795750Y-75214630D01*
X169795745Y-75214631D01*
X169625476Y-75274211D01*
X169472737Y-75370184D01*
X169345184Y-75497737D01*
X169249211Y-75650476D01*
X169189631Y-75820745D01*
X169189630Y-75820750D01*
X169169435Y-75999996D01*
X169169435Y-76000003D01*
X169189630Y-76179249D01*
X169189631Y-76179254D01*
X169249211Y-76349523D01*
X169326795Y-76472996D01*
X169345184Y-76502262D01*
X169472738Y-76629816D01*
X169551367Y-76679222D01*
X169625474Y-76725787D01*
X169625478Y-76725789D01*
X169718455Y-76758323D01*
X169795745Y-76785368D01*
X169795750Y-76785369D01*
X169974996Y-76805565D01*
X169975000Y-76805565D01*
X169975004Y-76805565D01*
X170154249Y-76785369D01*
X170154252Y-76785368D01*
X170154255Y-76785368D01*
X170324522Y-76725789D01*
X170325488Y-76725181D01*
X170334523Y-76719506D01*
X170400494Y-76700500D01*
X173631481Y-76700500D01*
X173698520Y-76720185D01*
X173719162Y-76736819D01*
X173944260Y-76961917D01*
X173977745Y-77023240D01*
X173972761Y-77092932D01*
X173930889Y-77148865D01*
X173922554Y-77154590D01*
X173897739Y-77170182D01*
X173770184Y-77297737D01*
X173674211Y-77450476D01*
X173614631Y-77620745D01*
X173614630Y-77620750D01*
X173594435Y-77799996D01*
X173594435Y-77800003D01*
X173614630Y-77979249D01*
X173614631Y-77979254D01*
X173674211Y-78149523D01*
X173745256Y-78262590D01*
X173770184Y-78302262D01*
X173897738Y-78429816D01*
X174050478Y-78525789D01*
X174220745Y-78585368D01*
X174307669Y-78595161D01*
X174372080Y-78622226D01*
X174381465Y-78630700D01*
X175163181Y-79412416D01*
X175196666Y-79473739D01*
X175199500Y-79500097D01*
X175199500Y-84050903D01*
X175179815Y-84117942D01*
X175127011Y-84163697D01*
X175057853Y-84173641D01*
X174994297Y-84144616D01*
X174987819Y-84138584D01*
X174436819Y-83587584D01*
X174403334Y-83526261D01*
X174400500Y-83499903D01*
X174400500Y-81349059D01*
X174400501Y-81349046D01*
X174400501Y-81180945D01*
X174400501Y-81180943D01*
X174359577Y-81028215D01*
X174298352Y-80922171D01*
X174280520Y-80891284D01*
X174280518Y-80891282D01*
X174280517Y-80891280D01*
X174164397Y-80775160D01*
X174164374Y-80775139D01*
X172932766Y-79543531D01*
X172899281Y-79482208D01*
X172900672Y-79423757D01*
X172903724Y-79412367D01*
X172935063Y-79295408D01*
X172955659Y-79060000D01*
X172935063Y-78824592D01*
X172888626Y-78651285D01*
X172873905Y-78596344D01*
X172873904Y-78596343D01*
X172873903Y-78596337D01*
X172774035Y-78382171D01*
X172739103Y-78332282D01*
X172638494Y-78188597D01*
X172471402Y-78021506D01*
X172471395Y-78021501D01*
X172277834Y-77885967D01*
X172277830Y-77885965D01*
X172277828Y-77885964D01*
X172063663Y-77786097D01*
X172063659Y-77786096D01*
X172063655Y-77786094D01*
X171835413Y-77724938D01*
X171835403Y-77724936D01*
X171600001Y-77704341D01*
X171599999Y-77704341D01*
X171364596Y-77724936D01*
X171364586Y-77724938D01*
X171136344Y-77786094D01*
X171136335Y-77786098D01*
X170922171Y-77885964D01*
X170922169Y-77885965D01*
X170728600Y-78021503D01*
X170606673Y-78143430D01*
X170545350Y-78176914D01*
X170475658Y-78171930D01*
X170419725Y-78130058D01*
X170402810Y-78099081D01*
X170353797Y-77967671D01*
X170353793Y-77967664D01*
X170267547Y-77852455D01*
X170267544Y-77852452D01*
X170152335Y-77766206D01*
X170152328Y-77766202D01*
X170017482Y-77715908D01*
X170017483Y-77715908D01*
X169957883Y-77709501D01*
X169957881Y-77709500D01*
X169957873Y-77709500D01*
X169957864Y-77709500D01*
X168162129Y-77709500D01*
X168162123Y-77709501D01*
X168102516Y-77715908D01*
X167967671Y-77766202D01*
X167967664Y-77766206D01*
X167852455Y-77852452D01*
X167852452Y-77852455D01*
X167766206Y-77967664D01*
X167766202Y-77967671D01*
X167715908Y-78102517D01*
X167709501Y-78162116D01*
X167709500Y-78162135D01*
X167709500Y-79789902D01*
X167689815Y-79856941D01*
X167673181Y-79877583D01*
X167111681Y-80439083D01*
X167050358Y-80472568D01*
X166980666Y-80467584D01*
X166924733Y-80425712D01*
X166900316Y-80360248D01*
X166900000Y-80351402D01*
X166900000Y-78080161D01*
X166900500Y-78069993D01*
X166900500Y-75741519D01*
X166920185Y-75674480D01*
X166936819Y-75653838D01*
X168453838Y-74136819D01*
X168515161Y-74103334D01*
X168541519Y-74100500D01*
X177068996Y-74100500D01*
X177160040Y-74082389D01*
X177204328Y-74073580D01*
X177268069Y-74047177D01*
X177331807Y-74020777D01*
X177331808Y-74020776D01*
X177331811Y-74020775D01*
X177446543Y-73944114D01*
X179399290Y-71991365D01*
X179446013Y-71962007D01*
X179549522Y-71925789D01*
X179702262Y-71829816D01*
X179829816Y-71702262D01*
X179925789Y-71549522D01*
X179962008Y-71446011D01*
X179991366Y-71399289D01*
X181094113Y-70296543D01*
X181107040Y-70277195D01*
X181132373Y-70239284D01*
X181132373Y-70239283D01*
X181170775Y-70181811D01*
X181223580Y-70054328D01*
X181232389Y-70010041D01*
X181250500Y-69918995D01*
X181250500Y-54974499D01*
X181270185Y-54907460D01*
X181322989Y-54861705D01*
X181374500Y-54850499D01*
X181897871Y-54850499D01*
X181897872Y-54850499D01*
X181957483Y-54844091D01*
X182092331Y-54793796D01*
X182207546Y-54707546D01*
X182293796Y-54592331D01*
X182344091Y-54457483D01*
X182350500Y-54397873D01*
X182350499Y-51702128D01*
X182344091Y-51642517D01*
X182342542Y-51638365D01*
X182293797Y-51507671D01*
X182293793Y-51507664D01*
X182288053Y-51499997D01*
X243145080Y-51499997D01*
X243145080Y-51500002D01*
X243164746Y-51862728D01*
X243223517Y-52221214D01*
X243223519Y-52221222D01*
X243320695Y-52571220D01*
X243320697Y-52571227D01*
X243455152Y-52908684D01*
X243455161Y-52908702D01*
X243625316Y-53229647D01*
X243625318Y-53229651D01*
X243829170Y-53530309D01*
X243829177Y-53530319D01*
X243960969Y-53685475D01*
X243960970Y-53685475D01*
X245205748Y-52440698D01*
X245279588Y-52542330D01*
X245457670Y-52720412D01*
X245559300Y-52794251D01*
X244311888Y-54041662D01*
X244311888Y-54041664D01*
X244328070Y-54056992D01*
X244328071Y-54056993D01*
X244617266Y-54276832D01*
X244617282Y-54276843D01*
X244928522Y-54464109D01*
X244928535Y-54464116D01*
X245258205Y-54616639D01*
X245258210Y-54616640D01*
X245602461Y-54732632D01*
X245957235Y-54810724D01*
X246318366Y-54849999D01*
X246318374Y-54850000D01*
X246681626Y-54850000D01*
X246681633Y-54849999D01*
X247042764Y-54810724D01*
X247397538Y-54732632D01*
X247741789Y-54616640D01*
X247741794Y-54616639D01*
X248071464Y-54464116D01*
X248071477Y-54464109D01*
X248382717Y-54276843D01*
X248382733Y-54276832D01*
X248671929Y-54056992D01*
X248688110Y-54041664D01*
X248688110Y-54041663D01*
X247440698Y-52794251D01*
X247542330Y-52720412D01*
X247720412Y-52542330D01*
X247794251Y-52440698D01*
X249039028Y-53685475D01*
X249039029Y-53685475D01*
X249170827Y-53530311D01*
X249170838Y-53530297D01*
X249374681Y-53229651D01*
X249374683Y-53229647D01*
X249544838Y-52908702D01*
X249544847Y-52908684D01*
X249679302Y-52571227D01*
X249679304Y-52571220D01*
X249776480Y-52221222D01*
X249776482Y-52221214D01*
X249835253Y-51862728D01*
X249854920Y-51500002D01*
X249854920Y-51499997D01*
X249835253Y-51137271D01*
X249776482Y-50778785D01*
X249776480Y-50778777D01*
X249679304Y-50428779D01*
X249679302Y-50428772D01*
X249544847Y-50091315D01*
X249544838Y-50091297D01*
X249374683Y-49770352D01*
X249374681Y-49770348D01*
X249170829Y-49469690D01*
X249170822Y-49469680D01*
X249039029Y-49314523D01*
X249039028Y-49314523D01*
X247794251Y-50559300D01*
X247720412Y-50457670D01*
X247542330Y-50279588D01*
X247440698Y-50205748D01*
X248688110Y-48958336D01*
X248688110Y-48958334D01*
X248671929Y-48943007D01*
X248671928Y-48943006D01*
X248382733Y-48723167D01*
X248382717Y-48723156D01*
X248071477Y-48535890D01*
X248071464Y-48535883D01*
X247741794Y-48383360D01*
X247741789Y-48383359D01*
X247397538Y-48267367D01*
X247042764Y-48189275D01*
X246681633Y-48150000D01*
X246318366Y-48150000D01*
X245957235Y-48189275D01*
X245602461Y-48267367D01*
X245258210Y-48383359D01*
X245258205Y-48383360D01*
X244928535Y-48535883D01*
X244928522Y-48535890D01*
X244617282Y-48723156D01*
X244617266Y-48723167D01*
X244328075Y-48943002D01*
X244311888Y-48958335D01*
X244311887Y-48958335D01*
X245559301Y-50205748D01*
X245457670Y-50279588D01*
X245279588Y-50457670D01*
X245205748Y-50559300D01*
X243960970Y-49314522D01*
X243960969Y-49314523D01*
X243829177Y-49469680D01*
X243829170Y-49469690D01*
X243625318Y-49770348D01*
X243625316Y-49770352D01*
X243455161Y-50091297D01*
X243455152Y-50091315D01*
X243320697Y-50428772D01*
X243320695Y-50428779D01*
X243223519Y-50778777D01*
X243223517Y-50778785D01*
X243164746Y-51137271D01*
X243145080Y-51499997D01*
X182288053Y-51499997D01*
X182207547Y-51392455D01*
X182207544Y-51392452D01*
X182092335Y-51306206D01*
X182092328Y-51306202D01*
X181957482Y-51255908D01*
X181957483Y-51255908D01*
X181897883Y-51249501D01*
X181897881Y-51249500D01*
X181897873Y-51249500D01*
X181897864Y-51249500D01*
X179202129Y-51249500D01*
X179202123Y-51249501D01*
X179142516Y-51255908D01*
X179007671Y-51306202D01*
X179007664Y-51306206D01*
X178892455Y-51392452D01*
X178892452Y-51392455D01*
X178806206Y-51507664D01*
X178806202Y-51507671D01*
X178755908Y-51642517D01*
X178749501Y-51702116D01*
X178749501Y-51702123D01*
X178749500Y-51702135D01*
X178749500Y-54397870D01*
X178749501Y-54397876D01*
X178755908Y-54457483D01*
X178806202Y-54592328D01*
X178806206Y-54592335D01*
X178892452Y-54707544D01*
X178892455Y-54707547D01*
X179007664Y-54793793D01*
X179007671Y-54793797D01*
X179050551Y-54809790D01*
X179142517Y-54844091D01*
X179202127Y-54850500D01*
X179725500Y-54850499D01*
X179792539Y-54870183D01*
X179838294Y-54922987D01*
X179849500Y-54974499D01*
X179849500Y-69508480D01*
X179829815Y-69575519D01*
X179813181Y-69596161D01*
X179000710Y-70408631D01*
X178953985Y-70437991D01*
X178850476Y-70474211D01*
X178850475Y-70474212D01*
X178697737Y-70570184D01*
X178570184Y-70697737D01*
X178474212Y-70850475D01*
X178474211Y-70850476D01*
X178437992Y-70953984D01*
X178408632Y-71000709D01*
X176746162Y-72663181D01*
X176684839Y-72696666D01*
X176658481Y-72699500D01*
X168131005Y-72699500D01*
X167995677Y-72726418D01*
X167995667Y-72726421D01*
X167868192Y-72779222D01*
X167753454Y-72855887D01*
X167753453Y-72855888D01*
X167111681Y-73497661D01*
X167050358Y-73531146D01*
X166980666Y-73526162D01*
X166924733Y-73484290D01*
X166900316Y-73418826D01*
X166900000Y-73409980D01*
X166900000Y-53049995D01*
X168744451Y-53049995D01*
X168744451Y-53050004D01*
X168764616Y-53319101D01*
X168824664Y-53582188D01*
X168824666Y-53582195D01*
X168923256Y-53833396D01*
X168923258Y-53833400D01*
X168951770Y-53882784D01*
X169058185Y-54067102D01*
X169180712Y-54220745D01*
X169226442Y-54278089D01*
X169357828Y-54399996D01*
X169424259Y-54461635D01*
X169647226Y-54613651D01*
X169890359Y-54730738D01*
X170148228Y-54810280D01*
X170148229Y-54810280D01*
X170148232Y-54810281D01*
X170415063Y-54850499D01*
X170415068Y-54850499D01*
X170415071Y-54850500D01*
X170415072Y-54850500D01*
X170684928Y-54850500D01*
X170684929Y-54850500D01*
X170684936Y-54850499D01*
X170951767Y-54810281D01*
X170951768Y-54810280D01*
X170951772Y-54810280D01*
X171209641Y-54730738D01*
X171221695Y-54724932D01*
X171290636Y-54713578D01*
X171354771Y-54741298D01*
X171393738Y-54799292D01*
X171399500Y-54836651D01*
X171399500Y-58449902D01*
X171379815Y-58516941D01*
X171363181Y-58537583D01*
X170531465Y-59369298D01*
X170470142Y-59402783D01*
X170457668Y-59404837D01*
X170370750Y-59414630D01*
X170200478Y-59474210D01*
X170047737Y-59570184D01*
X169920184Y-59697737D01*
X169824211Y-59850476D01*
X169764631Y-60020745D01*
X169764630Y-60020750D01*
X169744435Y-60199996D01*
X169744435Y-60200003D01*
X169764630Y-60379249D01*
X169764631Y-60379254D01*
X169824211Y-60549523D01*
X169881062Y-60640000D01*
X169920184Y-60702262D01*
X170047738Y-60829816D01*
X170117385Y-60873578D01*
X170200474Y-60925787D01*
X170200478Y-60925789D01*
X170263205Y-60947738D01*
X170370745Y-60985368D01*
X170370750Y-60985369D01*
X170549996Y-61005565D01*
X170550000Y-61005565D01*
X170550004Y-61005565D01*
X170729249Y-60985369D01*
X170729252Y-60985368D01*
X170729255Y-60985368D01*
X170899522Y-60925789D01*
X171052262Y-60829816D01*
X171179816Y-60702262D01*
X171275789Y-60549522D01*
X171335368Y-60379255D01*
X171345161Y-60292329D01*
X171372226Y-60227918D01*
X171380690Y-60218543D01*
X172480520Y-59118716D01*
X172559577Y-58981784D01*
X172600501Y-58829057D01*
X172600501Y-58670942D01*
X172600501Y-58663347D01*
X172600500Y-58663329D01*
X172600500Y-54589060D01*
X172600501Y-54589047D01*
X172600501Y-54420944D01*
X172570167Y-54307738D01*
X172559577Y-54268216D01*
X172532170Y-54220745D01*
X172480524Y-54131290D01*
X172480518Y-54131282D01*
X172235811Y-53886575D01*
X172202326Y-53825252D01*
X172207310Y-53755560D01*
X172208028Y-53753684D01*
X172275334Y-53582195D01*
X172335383Y-53319103D01*
X172351802Y-53100000D01*
X172355549Y-53050004D01*
X172355549Y-53049995D01*
X173744953Y-53049995D01*
X173744953Y-53050004D01*
X173765113Y-53319026D01*
X173765113Y-53319028D01*
X173825142Y-53582033D01*
X173825148Y-53582052D01*
X173923709Y-53833181D01*
X173923708Y-53833181D01*
X174058602Y-54066822D01*
X174112294Y-54134151D01*
X174948957Y-53297487D01*
X174973978Y-53357890D01*
X175045112Y-53464351D01*
X175135649Y-53554888D01*
X175242110Y-53626022D01*
X175302510Y-53651041D01*
X174464848Y-54488702D01*
X174647483Y-54613220D01*
X174647485Y-54613221D01*
X174890539Y-54730269D01*
X174890537Y-54730269D01*
X175148337Y-54809790D01*
X175148343Y-54809792D01*
X175415101Y-54849999D01*
X175415110Y-54850000D01*
X175684890Y-54850000D01*
X175684898Y-54849999D01*
X175951656Y-54809792D01*
X175951662Y-54809790D01*
X176209461Y-54730269D01*
X176452521Y-54613218D01*
X176635150Y-54488702D01*
X175797488Y-53651041D01*
X175857890Y-53626022D01*
X175964351Y-53554888D01*
X176054888Y-53464351D01*
X176126022Y-53357890D01*
X176151041Y-53297488D01*
X176987703Y-54134151D01*
X176987704Y-54134150D01*
X177041393Y-54066828D01*
X177041400Y-54066817D01*
X177176290Y-53833181D01*
X177274851Y-53582052D01*
X177274857Y-53582033D01*
X177334886Y-53319028D01*
X177334886Y-53319026D01*
X177355047Y-53050004D01*
X177355047Y-53049995D01*
X177334886Y-52780973D01*
X177334886Y-52780971D01*
X177274857Y-52517966D01*
X177274851Y-52517947D01*
X177176290Y-52266818D01*
X177176291Y-52266818D01*
X177041397Y-52033177D01*
X176987704Y-51965847D01*
X176151041Y-52802510D01*
X176126022Y-52742110D01*
X176054888Y-52635649D01*
X175964351Y-52545112D01*
X175857890Y-52473978D01*
X175797488Y-52448958D01*
X176635150Y-51611296D01*
X176452517Y-51486779D01*
X176452516Y-51486778D01*
X176209460Y-51369730D01*
X176209462Y-51369730D01*
X175951662Y-51290209D01*
X175951656Y-51290207D01*
X175684898Y-51250000D01*
X175415101Y-51250000D01*
X175148343Y-51290207D01*
X175148337Y-51290209D01*
X174890538Y-51369730D01*
X174647485Y-51486778D01*
X174647476Y-51486783D01*
X174464848Y-51611296D01*
X175302511Y-52448958D01*
X175242110Y-52473978D01*
X175135649Y-52545112D01*
X175045112Y-52635649D01*
X174973978Y-52742110D01*
X174948958Y-52802511D01*
X174112295Y-51965848D01*
X174058600Y-52033180D01*
X173923709Y-52266818D01*
X173825148Y-52517947D01*
X173825142Y-52517966D01*
X173765113Y-52780971D01*
X173765113Y-52780973D01*
X173744953Y-53049995D01*
X172355549Y-53049995D01*
X172335389Y-52780973D01*
X172335383Y-52780897D01*
X172275334Y-52517805D01*
X172176743Y-52266602D01*
X172041815Y-52032898D01*
X171873561Y-51821915D01*
X171873560Y-51821914D01*
X171873557Y-51821910D01*
X171675741Y-51638365D01*
X171636038Y-51611296D01*
X171452775Y-51486349D01*
X171452769Y-51486346D01*
X171452768Y-51486345D01*
X171452767Y-51486344D01*
X171209643Y-51369263D01*
X171209645Y-51369263D01*
X170951773Y-51289720D01*
X170951767Y-51289718D01*
X170684936Y-51249500D01*
X170684929Y-51249500D01*
X170415071Y-51249500D01*
X170415063Y-51249500D01*
X170148232Y-51289718D01*
X170148226Y-51289720D01*
X169890358Y-51369262D01*
X169647230Y-51486346D01*
X169424258Y-51638365D01*
X169226442Y-51821910D01*
X169058185Y-52032898D01*
X168923258Y-52266599D01*
X168923256Y-52266603D01*
X168824666Y-52517804D01*
X168824664Y-52517811D01*
X168764616Y-52780898D01*
X168744451Y-53049995D01*
X166900000Y-53049995D01*
X166900000Y-47674000D01*
X166919685Y-47606961D01*
X166972489Y-47561206D01*
X167024000Y-47550000D01*
X250526000Y-47550000D01*
X250593039Y-47569685D01*
G37*
G04 #@! TD.AperFunction*
G04 #@! TA.AperFunction,Conductor*
G36*
X171134075Y-89027007D02*
G01*
X171100000Y-89154174D01*
X171100000Y-89285826D01*
X171134075Y-89412993D01*
X171166988Y-89470000D01*
X169493012Y-89470000D01*
X169525925Y-89412993D01*
X169560000Y-89285826D01*
X169560000Y-89154174D01*
X169525925Y-89027007D01*
X169493012Y-88970000D01*
X171166988Y-88970000D01*
X171134075Y-89027007D01*
G37*
G04 #@! TD.AperFunction*
G04 #@! TA.AperFunction,Conductor*
G36*
X171850000Y-88786988D02*
G01*
X171792993Y-88754075D01*
X171665826Y-88720000D01*
X171534174Y-88720000D01*
X171407007Y-88754075D01*
X171350000Y-88786988D01*
X171350000Y-87113012D01*
X171407007Y-87145925D01*
X171534174Y-87180000D01*
X171665826Y-87180000D01*
X171792993Y-87145925D01*
X171850000Y-87113012D01*
X171850000Y-88786988D01*
G37*
G04 #@! TD.AperFunction*
G04 #@! TA.AperFunction,Conductor*
G36*
X171793039Y-86192831D02*
G01*
X171829921Y-86235395D01*
X171792993Y-86214075D01*
X171665826Y-86180000D01*
X171534174Y-86180000D01*
X171407007Y-86214075D01*
X171367734Y-86236748D01*
X171369685Y-86230107D01*
X171422489Y-86184352D01*
X171474000Y-86173146D01*
X171726000Y-86173146D01*
X171793039Y-86192831D01*
G37*
G04 #@! TD.AperFunction*
G04 #@! TA.AperFunction,Conductor*
G36*
X173164562Y-81566670D02*
G01*
X173197069Y-81628517D01*
X173199500Y-81652949D01*
X173199500Y-83713330D01*
X173199499Y-83713348D01*
X173199499Y-83879054D01*
X173199498Y-83879054D01*
X173240423Y-84031785D01*
X173269358Y-84081900D01*
X173269359Y-84081904D01*
X173269360Y-84081904D01*
X173319479Y-84168714D01*
X173319481Y-84168717D01*
X173438349Y-84287585D01*
X173438355Y-84287590D01*
X173555583Y-84404818D01*
X173589068Y-84466141D01*
X173584084Y-84535833D01*
X173542212Y-84591766D01*
X173476748Y-84616183D01*
X173467902Y-84616499D01*
X173330347Y-84616499D01*
X173330331Y-84616500D01*
X173031546Y-84616500D01*
X172964507Y-84596815D01*
X172918752Y-84544011D01*
X172908808Y-84474853D01*
X172911771Y-84460407D01*
X172930636Y-84390000D01*
X172033012Y-84390000D01*
X172065925Y-84332993D01*
X172100000Y-84205826D01*
X172100000Y-84074174D01*
X172065925Y-83947007D01*
X172033012Y-83890000D01*
X172930636Y-83890000D01*
X172930635Y-83889999D01*
X172873432Y-83676513D01*
X172873429Y-83676507D01*
X172773600Y-83462422D01*
X172773599Y-83462420D01*
X172638113Y-83268926D01*
X172638108Y-83268920D01*
X172471078Y-83101890D01*
X172285405Y-82971879D01*
X172241780Y-82917302D01*
X172234588Y-82847804D01*
X172266110Y-82785449D01*
X172285406Y-82768730D01*
X172285842Y-82768425D01*
X172471401Y-82638495D01*
X172638495Y-82471401D01*
X172774035Y-82277830D01*
X172873903Y-82063663D01*
X172935063Y-81835408D01*
X172951972Y-81642140D01*
X172977425Y-81577073D01*
X173034016Y-81536094D01*
X173103777Y-81532216D01*
X173164562Y-81566670D01*
G37*
G04 #@! TD.AperFunction*
G04 #@! TA.AperFunction,Conductor*
G36*
X209394227Y-59562779D02*
G01*
X209400475Y-59565788D01*
X209400478Y-59565789D01*
X209503984Y-59602007D01*
X209550710Y-59631367D01*
X210263181Y-60343838D01*
X210296666Y-60405161D01*
X210299500Y-60431519D01*
X210299500Y-69274507D01*
X210280494Y-69340478D01*
X210274209Y-69350479D01*
X210237992Y-69453983D01*
X210208632Y-69500709D01*
X207705890Y-72003451D01*
X207705884Y-72003458D01*
X207664032Y-72066096D01*
X207664032Y-72066097D01*
X207629223Y-72118191D01*
X207629222Y-72118193D01*
X207576421Y-72245667D01*
X207576418Y-72245677D01*
X207549500Y-72381004D01*
X207549500Y-74574507D01*
X207530494Y-74640478D01*
X207524209Y-74650479D01*
X207464633Y-74820737D01*
X207464630Y-74820750D01*
X207444435Y-74999996D01*
X207444435Y-75000003D01*
X207464630Y-75179249D01*
X207464631Y-75179254D01*
X207524212Y-75349525D01*
X207530492Y-75359519D01*
X207549500Y-75425493D01*
X207549500Y-76212481D01*
X207529815Y-76279520D01*
X207513181Y-76300162D01*
X207250162Y-76563181D01*
X207188839Y-76596666D01*
X207162481Y-76599500D01*
X189181005Y-76599500D01*
X189045677Y-76626418D01*
X189045667Y-76626421D01*
X188918192Y-76679222D01*
X188803454Y-76755887D01*
X188241132Y-77318209D01*
X188179809Y-77351694D01*
X188167335Y-77353748D01*
X188070750Y-77364630D01*
X187900478Y-77424210D01*
X187747737Y-77520184D01*
X187620184Y-77647737D01*
X187524211Y-77800476D01*
X187464631Y-77970745D01*
X187464630Y-77970750D01*
X187444435Y-78149996D01*
X187444435Y-78150003D01*
X187464630Y-78329249D01*
X187464631Y-78329254D01*
X187524211Y-78499523D01*
X187620184Y-78652262D01*
X187752662Y-78784740D01*
X187751390Y-78786011D01*
X187786295Y-78835740D01*
X187789145Y-78905552D01*
X187753800Y-78965822D01*
X187691482Y-78997416D01*
X187668842Y-78999500D01*
X179255412Y-78999500D01*
X179188373Y-78979815D01*
X179178097Y-78972445D01*
X179175263Y-78970185D01*
X179175262Y-78970184D01*
X179072401Y-78905552D01*
X179022523Y-78874211D01*
X178852254Y-78814631D01*
X178852249Y-78814630D01*
X178673004Y-78794435D01*
X178672996Y-78794435D01*
X178493750Y-78814630D01*
X178493745Y-78814631D01*
X178323476Y-78874211D01*
X178170736Y-78970185D01*
X178139967Y-79000953D01*
X178078643Y-79034436D01*
X178008951Y-79029450D01*
X177964607Y-79000950D01*
X177357262Y-78393605D01*
X177323777Y-78332282D01*
X177328761Y-78262590D01*
X177370633Y-78206657D01*
X177436097Y-78182240D01*
X177504370Y-78197092D01*
X177510915Y-78200930D01*
X177550478Y-78225789D01*
X177673951Y-78268994D01*
X177720745Y-78285368D01*
X177720750Y-78285369D01*
X177899996Y-78305565D01*
X177900000Y-78305565D01*
X177900004Y-78305565D01*
X178079249Y-78285369D01*
X178079252Y-78285368D01*
X178079255Y-78285368D01*
X178249522Y-78225789D01*
X178402262Y-78129816D01*
X178402267Y-78129810D01*
X178405097Y-78127555D01*
X178407275Y-78126665D01*
X178408158Y-78126111D01*
X178408255Y-78126265D01*
X178469783Y-78101145D01*
X178482412Y-78100500D01*
X178813331Y-78100500D01*
X178813347Y-78100501D01*
X178820943Y-78100501D01*
X178979054Y-78100501D01*
X178979057Y-78100501D01*
X179131785Y-78059577D01*
X179181904Y-78030639D01*
X179268716Y-77980520D01*
X179380520Y-77868716D01*
X179380520Y-77868714D01*
X179390728Y-77858507D01*
X179390729Y-77858504D01*
X193717277Y-63531957D01*
X193778598Y-63498474D01*
X193818839Y-63496420D01*
X193874834Y-63502729D01*
X193899999Y-63505565D01*
X193900000Y-63505565D01*
X193900003Y-63505565D01*
X194079249Y-63485369D01*
X194079252Y-63485368D01*
X194079255Y-63485368D01*
X194249522Y-63425789D01*
X194402262Y-63329816D01*
X194529816Y-63202262D01*
X194625789Y-63049522D01*
X194685368Y-62879255D01*
X194685369Y-62879249D01*
X194705565Y-62700003D01*
X194705565Y-62699996D01*
X194685369Y-62520750D01*
X194685368Y-62520745D01*
X194625788Y-62350476D01*
X194529815Y-62197737D01*
X194469759Y-62137681D01*
X194436274Y-62076358D01*
X194441258Y-62006666D01*
X194469762Y-61962316D01*
X194479814Y-61952264D01*
X194479814Y-61952263D01*
X194479816Y-61952262D01*
X194575789Y-61799522D01*
X194635368Y-61629255D01*
X194643364Y-61558290D01*
X194655565Y-61450003D01*
X194655565Y-61449996D01*
X194635369Y-61270750D01*
X194635368Y-61270745D01*
X194575788Y-61100475D01*
X194569503Y-61090473D01*
X194550502Y-61023236D01*
X194570869Y-60956401D01*
X194624137Y-60911186D01*
X194674496Y-60900500D01*
X194758996Y-60900500D01*
X194850040Y-60882389D01*
X194894328Y-60873580D01*
X194958069Y-60847177D01*
X195021807Y-60820777D01*
X195021808Y-60820776D01*
X195021811Y-60820775D01*
X195136543Y-60744114D01*
X196199290Y-59681365D01*
X196246013Y-59652007D01*
X196349522Y-59615789D01*
X196423181Y-59569505D01*
X196489153Y-59550500D01*
X209340427Y-59550500D01*
X209394227Y-59562779D01*
G37*
G04 #@! TD.AperFunction*
M02*
