%TF.GenerationSoftware,KiCad,Pcbnew,8.0.5*%
%TF.CreationDate,2024-11-08T20:24:13-08:00*%
%TF.ProjectId,newbatt,6e657762-6174-4742-9e6b-696361645f70,rev?*%
%TF.SameCoordinates,Original*%
%TF.FileFunction,Copper,L1,Top*%
%TF.FilePolarity,Positive*%
%FSLAX46Y46*%
G04 Gerber Fmt 4.6, Leading zero omitted, Abs format (unit mm)*
G04 Created by KiCad (PCBNEW 8.0.5) date 2024-11-08 20:24:13*
%MOMM*%
%LPD*%
G01*
G04 APERTURE LIST*
G04 Aperture macros list*
%AMRoundRect*
0 Rectangle with rounded corners*
0 $1 Rounding radius*
0 $2 $3 $4 $5 $6 $7 $8 $9 X,Y pos of 4 corners*
0 Add a 4 corners polygon primitive as box body*
4,1,4,$2,$3,$4,$5,$6,$7,$8,$9,$2,$3,0*
0 Add four circle primitives for the rounded corners*
1,1,$1+$1,$2,$3*
1,1,$1+$1,$4,$5*
1,1,$1+$1,$6,$7*
1,1,$1+$1,$8,$9*
0 Add four rect primitives between the rounded corners*
20,1,$1+$1,$2,$3,$4,$5,0*
20,1,$1+$1,$4,$5,$6,$7,0*
20,1,$1+$1,$6,$7,$8,$9,0*
20,1,$1+$1,$8,$9,$2,$3,0*%
%AMFreePoly0*
4,1,19,0.500000,-0.750000,0.000000,-0.750000,0.000000,-0.744911,-0.071157,-0.744911,-0.207708,-0.704816,-0.327430,-0.627875,-0.420627,-0.520320,-0.479746,-0.390866,-0.500000,-0.250000,-0.500000,0.250000,-0.479746,0.390866,-0.420627,0.520320,-0.327430,0.627875,-0.207708,0.704816,-0.071157,0.744911,0.000000,0.744911,0.000000,0.750000,0.500000,0.750000,0.500000,-0.750000,0.500000,-0.750000,
$1*%
%AMFreePoly1*
4,1,19,0.000000,0.744911,0.071157,0.744911,0.207708,0.704816,0.327430,0.627875,0.420627,0.520320,0.479746,0.390866,0.500000,0.250000,0.500000,-0.250000,0.479746,-0.390866,0.420627,-0.520320,0.327430,-0.627875,0.207708,-0.704816,0.071157,-0.744911,0.000000,-0.744911,0.000000,-0.750000,-0.500000,-0.750000,-0.500000,0.750000,0.000000,0.750000,0.000000,0.744911,0.000000,0.744911,
$1*%
G04 Aperture macros list end*
%TA.AperFunction,EtchedComponent*%
%ADD10C,0.000000*%
%TD*%
%TA.AperFunction,SMDPad,CuDef*%
%ADD11R,4.240000X3.300000*%
%TD*%
%TA.AperFunction,SMDPad,CuDef*%
%ADD12R,4.240000X5.200000*%
%TD*%
%TA.AperFunction,SMDPad,CuDef*%
%ADD13R,1.200000X2.500000*%
%TD*%
%TA.AperFunction,SMDPad,CuDef*%
%ADD14R,2.000000X2.000000*%
%TD*%
%TA.AperFunction,SMDPad,CuDef*%
%ADD15R,4.000000X5.000000*%
%TD*%
%TA.AperFunction,SMDPad,CuDef*%
%ADD16C,1.500000*%
%TD*%
%TA.AperFunction,SMDPad,CuDef*%
%ADD17FreePoly0,90.000000*%
%TD*%
%TA.AperFunction,SMDPad,CuDef*%
%ADD18FreePoly1,90.000000*%
%TD*%
%TA.AperFunction,ComponentPad*%
%ADD19C,3.600000*%
%TD*%
%TA.AperFunction,ConnectorPad*%
%ADD20C,5.700000*%
%TD*%
%TA.AperFunction,SMDPad,CuDef*%
%ADD21RoundRect,0.200000X0.275000X-0.200000X0.275000X0.200000X-0.275000X0.200000X-0.275000X-0.200000X0*%
%TD*%
%TA.AperFunction,SMDPad,CuDef*%
%ADD22RoundRect,0.225000X-0.250000X0.225000X-0.250000X-0.225000X0.250000X-0.225000X0.250000X0.225000X0*%
%TD*%
%TA.AperFunction,SMDPad,CuDef*%
%ADD23RoundRect,0.225000X-0.225000X-0.250000X0.225000X-0.250000X0.225000X0.250000X-0.225000X0.250000X0*%
%TD*%
%TA.AperFunction,SMDPad,CuDef*%
%ADD24RoundRect,0.200000X-0.275000X0.200000X-0.275000X-0.200000X0.275000X-0.200000X0.275000X0.200000X0*%
%TD*%
%TA.AperFunction,ComponentPad*%
%ADD25R,1.700000X1.700000*%
%TD*%
%TA.AperFunction,ComponentPad*%
%ADD26O,1.700000X1.700000*%
%TD*%
%TA.AperFunction,SMDPad,CuDef*%
%ADD27RoundRect,0.218750X-0.256250X0.218750X-0.256250X-0.218750X0.256250X-0.218750X0.256250X0.218750X0*%
%TD*%
%TA.AperFunction,SMDPad,CuDef*%
%ADD28R,0.660400X0.304800*%
%TD*%
%TA.AperFunction,ComponentPad*%
%ADD29C,0.508000*%
%TD*%
%TA.AperFunction,SMDPad,CuDef*%
%ADD30R,0.939800X2.514600*%
%TD*%
%TA.AperFunction,ViaPad*%
%ADD31C,0.600000*%
%TD*%
%TA.AperFunction,Conductor*%
%ADD32C,0.250000*%
%TD*%
%TA.AperFunction,Conductor*%
%ADD33C,0.500000*%
%TD*%
%TA.AperFunction,Conductor*%
%ADD34C,1.000000*%
%TD*%
%TA.AperFunction,Conductor*%
%ADD35C,0.750000*%
%TD*%
%TA.AperFunction,Conductor*%
%ADD36C,3.000000*%
%TD*%
%TA.AperFunction,Conductor*%
%ADD37C,2.000000*%
%TD*%
G04 APERTURE END LIST*
D10*
%TA.AperFunction,EtchedComponent*%
%TO.C,JP1*%
G36*
X130300000Y-38250000D02*
G01*
X129700000Y-38250000D01*
X129700000Y-37750000D01*
X130300000Y-37750000D01*
X130300000Y-38250000D01*
G37*
%TD.AperFunction*%
%TD*%
D11*
%TO.P,BT1,1,+*%
%TO.N,Net-(BT1-+)*%
X101880000Y-49000000D03*
D12*
X85870000Y-49000000D03*
%TO.P,BT1,2,-*%
%TO.N,0*%
X41630000Y-49000000D03*
D11*
X25620000Y-49000000D03*
%TD*%
D13*
%TO.P,S1,3*%
%TO.N,unconnected-(S1-Pad3)*%
X109500000Y-20750000D03*
%TO.P,S1,2*%
%TO.N,Net-(JP8-B)*%
X112000000Y-20750000D03*
%TO.P,S1,1*%
%TO.N,VOUT*%
X114500000Y-20750000D03*
%TD*%
D14*
%TO.P,J1,3*%
%TO.N,unconnected-(J1-Pad3)*%
X133250000Y-26450000D03*
%TO.P,J1,2*%
%TO.N,0*%
X133250000Y-20250000D03*
%TO.P,J1,1*%
%TO.N,VIN*%
X144250000Y-20250000D03*
X144250000Y-26450000D03*
%TD*%
D15*
%TO.P,F1,1*%
%TO.N,Net-(BT1-+)*%
X111750000Y-45850000D03*
%TO.P,F1,2*%
%TO.N,Net-(JP8-B)*%
X111750000Y-28150000D03*
%TD*%
D16*
%TO.P,TP2,1,1*%
%TO.N,Net-(R4-Pad2)*%
X140000000Y-57750000D03*
%TD*%
D17*
%TO.P,JP8,1,A*%
%TO.N,Net-(BT1-+)*%
X111750000Y-37650000D03*
D18*
%TO.P,JP8,2,B*%
%TO.N,Net-(JP8-B)*%
X111750000Y-36350000D03*
%TD*%
D19*
%TO.P,H4,1,1*%
%TO.N,0*%
X149500000Y-55250000D03*
D20*
X149500000Y-55250000D03*
%TD*%
D19*
%TO.P,H1,1,1*%
%TO.N,0*%
X19500000Y-19750000D03*
D20*
X19500000Y-19750000D03*
%TD*%
D21*
%TO.P,R2,1*%
%TO.N,Net-(JP8-B)*%
X128750000Y-26325000D03*
%TO.P,R2,2*%
%TO.N,Net-(D1-A)*%
X128750000Y-24675000D03*
%TD*%
D17*
%TO.P,JP1,1,A*%
%TO.N,/~{PG}*%
X130000000Y-38650000D03*
D18*
%TO.P,JP1,2,B*%
%TO.N,Net-(JP1-B)*%
X130000000Y-37350000D03*
%TD*%
D19*
%TO.P,H3,1,1*%
%TO.N,0*%
X149500000Y-19750000D03*
D20*
X149500000Y-19750000D03*
%TD*%
D22*
%TO.P,C2,1*%
%TO.N,Net-(JP8-B)*%
X118000000Y-26250000D03*
%TO.P,C2,2*%
%TO.N,0*%
X118000000Y-27800000D03*
%TD*%
D23*
%TO.P,C1,1*%
%TO.N,VIN*%
X124725000Y-33000000D03*
%TO.P,C1,2*%
%TO.N,0*%
X126275000Y-33000000D03*
%TD*%
D24*
%TO.P,R1,2*%
%TO.N,0*%
X120000000Y-36825000D03*
%TO.P,R1,1*%
%TO.N,Net-(U1-ISET)*%
X120000000Y-35175000D03*
%TD*%
D25*
%TO.P,J2,1,Pin_1*%
%TO.N,0*%
X149500000Y-26070000D03*
D26*
%TO.P,J2,2,Pin_2*%
%TO.N,VOUT*%
X149500000Y-28610000D03*
%TO.P,J2,3,Pin_3*%
%TO.N,/~{PG}*%
X149500000Y-31150000D03*
%TO.P,J2,4,Pin_4*%
%TO.N,/~{CHG}*%
X149500000Y-33690000D03*
%TO.P,J2,5,Pin_5*%
%TO.N,/VDPM*%
X149500000Y-36230000D03*
%TO.P,J2,6,Pin_6*%
X149500000Y-38770000D03*
%TO.P,J2,7,Pin_7*%
%TO.N,/~{CHG}*%
X149500000Y-41310000D03*
%TO.P,J2,8,Pin_8*%
%TO.N,/~{PG}*%
X149500000Y-43850000D03*
%TO.P,J2,9,Pin_9*%
%TO.N,VOUT*%
X149500000Y-46390000D03*
%TO.P,J2,10,Pin_10*%
%TO.N,0*%
X149500000Y-48930000D03*
%TD*%
D17*
%TO.P,JP3,1,A*%
%TO.N,/~{PG}*%
X120500000Y-22150000D03*
D18*
%TO.P,JP3,2,B*%
%TO.N,Net-(D2-K)*%
X120500000Y-20850000D03*
%TD*%
D16*
%TO.P,TP1,1,1*%
%TO.N,VIN*%
X144250000Y-34000000D03*
%TD*%
D27*
%TO.P,D2,1,K*%
%TO.N,Net-(D2-K)*%
X122750000Y-16712500D03*
%TO.P,D2,2,A*%
%TO.N,Net-(D2-A)*%
X122750000Y-18287500D03*
%TD*%
D24*
%TO.P,RT1,1*%
%TO.N,Net-(U1-VTSB)*%
X120250000Y-54350000D03*
%TO.P,RT1,2*%
%TO.N,Net-(U1-TS)*%
X120250000Y-56000000D03*
%TD*%
D28*
%TO.P,U1,1,VBUS*%
%TO.N,VIN*%
X124721300Y-35212599D03*
%TO.P,U1,2,ISET*%
%TO.N,Net-(U1-ISET)*%
X124721300Y-35712601D03*
%TO.P,U1,3,VSS*%
%TO.N,0*%
X124721300Y-36212600D03*
%TO.P,U1,4,VTSB*%
%TO.N,Net-(U1-VTSB)*%
X124721300Y-36712599D03*
%TO.P,U1,5,TS*%
%TO.N,Net-(U1-TS)*%
X124721300Y-37212601D03*
%TO.P,U1,6,~{PG}*%
%TO.N,/~{PG}*%
X126778700Y-37212601D03*
%TO.P,U1,7,~{EN}*%
%TO.N,Net-(JP1-B)*%
X126778700Y-36712599D03*
%TO.P,U1,8,~{CHG}*%
%TO.N,/~{CHG}*%
X126778700Y-36212600D03*
%TO.P,U1,9,VDPM*%
%TO.N,/VDPM*%
X126778700Y-35712601D03*
%TO.P,U1,10,BAT*%
%TO.N,Net-(JP8-B)*%
X126778700Y-35212599D03*
D29*
%TO.P,U1,11,EPAD*%
%TO.N,0*%
X125750000Y-35425200D03*
X125750000Y-36212600D03*
D30*
X125750000Y-36212600D03*
D29*
X125750000Y-37000000D03*
%TD*%
D21*
%TO.P,R3,1*%
%TO.N,Net-(JP8-B)*%
X122750000Y-26325000D03*
%TO.P,R3,2*%
%TO.N,Net-(D2-A)*%
X122750000Y-24675000D03*
%TD*%
D17*
%TO.P,JP2,1,A*%
%TO.N,/~{CHG}*%
X126500000Y-22150000D03*
D18*
%TO.P,JP2,2,B*%
%TO.N,Net-(D1-K)*%
X126500000Y-20850000D03*
%TD*%
D27*
%TO.P,D1,1,K*%
%TO.N,Net-(D1-K)*%
X128750000Y-16712500D03*
%TO.P,D1,2,A*%
%TO.N,Net-(D1-A)*%
X128750000Y-18287500D03*
%TD*%
D25*
%TO.P,TH1,1*%
%TO.N,Net-(U1-TS)*%
X111750000Y-56025000D03*
D26*
%TO.P,TH1,2*%
%TO.N,0*%
X111750000Y-53485000D03*
%TD*%
D24*
%TO.P,R4,1*%
%TO.N,Net-(JP8-B)*%
X140000000Y-46675000D03*
%TO.P,R4,2*%
%TO.N,Net-(R4-Pad2)*%
X140000000Y-48325000D03*
%TD*%
%TO.P,R5,1*%
%TO.N,Net-(R4-Pad2)*%
X140000000Y-51675000D03*
%TO.P,R5,2*%
%TO.N,0*%
X140000000Y-53325000D03*
%TD*%
D19*
%TO.P,H2,1,1*%
%TO.N,0*%
X19500000Y-55250000D03*
D20*
X19500000Y-55250000D03*
%TD*%
D11*
%TO.P,BT2,1,+*%
%TO.N,Net-(BT1-+)*%
X101880000Y-26000000D03*
D12*
X85870000Y-26000000D03*
%TO.P,BT2,2,-*%
%TO.N,0*%
X41630000Y-26000000D03*
D11*
X25620000Y-26000000D03*
%TD*%
D31*
%TO.N,Net-(JP8-B)*%
X122750000Y-28500000D03*
%TO.N,Net-(U1-VTSB)*%
X120250000Y-39000000D03*
X120250000Y-51750000D03*
%TO.N,Net-(JP8-B)*%
X140000000Y-45250000D03*
X128000000Y-34000000D03*
%TO.N,/~{CHG}*%
X129250000Y-35500000D03*
%TO.N,/VDPM*%
X130000000Y-34750000D03*
%TO.N,/~{CHG}*%
X126500000Y-24275000D03*
%TO.N,/~{PG}*%
X120500000Y-23750000D03*
X130000000Y-33750000D03*
%TO.N,Net-(U1-TS)*%
X121500000Y-56000000D03*
X121500000Y-39000000D03*
%TD*%
D32*
%TO.N,Net-(JP8-B)*%
X126787401Y-35212599D02*
X126778700Y-35212599D01*
X128000000Y-34000000D02*
X126787401Y-35212599D01*
D33*
X122750000Y-28500000D02*
X122750000Y-26325000D01*
D32*
%TO.N,/VDPM*%
X129250000Y-34750000D02*
X128287399Y-35712601D01*
X128287399Y-35712601D02*
X126778700Y-35712601D01*
X130000000Y-34750000D02*
X129250000Y-34750000D01*
%TO.N,VIN*%
X124721300Y-33003700D02*
X124725000Y-33000000D01*
X124721300Y-35212599D02*
X124721300Y-33003700D01*
D34*
%TO.N,Net-(JP8-B)*%
X122675000Y-26250000D02*
X122750000Y-26325000D01*
X118000000Y-26250000D02*
X122675000Y-26250000D01*
X118000000Y-17500000D02*
X118000000Y-26250000D01*
X116500000Y-16000000D02*
X118000000Y-17500000D01*
X113250000Y-16000000D02*
X116500000Y-16000000D01*
X112000000Y-20750000D02*
X112000000Y-17250000D01*
X112000000Y-17250000D02*
X113250000Y-16000000D01*
X128750000Y-26325000D02*
X122750000Y-26325000D01*
%TO.N,VOUT*%
X116250000Y-37750000D02*
X121250000Y-42750000D01*
X116250000Y-22500000D02*
X116250000Y-37750000D01*
X145860000Y-42750000D02*
X149500000Y-46390000D01*
X114500000Y-20750000D02*
X116250000Y-22500000D01*
X121250000Y-42750000D02*
X145860000Y-42750000D01*
D32*
%TO.N,Net-(U1-TS)*%
X121500000Y-56000000D02*
X120250000Y-56000000D01*
%TO.N,Net-(U1-VTSB)*%
X120250000Y-54350000D02*
X120250000Y-51750000D01*
X122537401Y-36712599D02*
X120250000Y-39000000D01*
X124721300Y-36712599D02*
X122537401Y-36712599D01*
D34*
%TO.N,Net-(D2-K)*%
X120500000Y-17750000D02*
X120500000Y-20850000D01*
X122750000Y-16712500D02*
X121537500Y-16712500D01*
X121537500Y-16712500D02*
X120500000Y-17750000D01*
%TO.N,Net-(D1-K)*%
X126500000Y-17750000D02*
X126500000Y-20850000D01*
X127537500Y-16712500D02*
X126500000Y-17750000D01*
X128750000Y-16712500D02*
X127537500Y-16712500D01*
%TO.N,Net-(D2-A)*%
X122750000Y-18287500D02*
X122750000Y-24675000D01*
D35*
%TO.N,VIN*%
X144250000Y-26450000D02*
X144250000Y-34000000D01*
X126000000Y-30500000D02*
X140200000Y-30500000D01*
X140200000Y-30500000D02*
X144250000Y-26450000D01*
X124725000Y-31775000D02*
X126000000Y-30500000D01*
X124725000Y-33000000D02*
X124725000Y-31775000D01*
D32*
%TO.N,Net-(U1-ISET)*%
X120537601Y-35712601D02*
X120000000Y-35175000D01*
X124721300Y-35712601D02*
X120537601Y-35712601D01*
%TO.N,0*%
X120612400Y-36212600D02*
X120000000Y-36825000D01*
X124721300Y-36212600D02*
X120612400Y-36212600D01*
%TO.N,Net-(JP8-B)*%
X140000000Y-45250000D02*
X140000000Y-46675000D01*
%TO.N,/~{CHG}*%
X129250000Y-35500000D02*
X128537400Y-36212600D01*
X128537400Y-36212600D02*
X126778700Y-36212600D01*
D36*
%TO.N,Net-(BT1-+)*%
X85870000Y-26000000D02*
X85870000Y-49000000D01*
X108600000Y-49000000D02*
X111750000Y-45850000D01*
X101880000Y-49000000D02*
X108600000Y-49000000D01*
D32*
%TO.N,Net-(U1-TS)*%
X111750000Y-56025000D02*
X120225000Y-56025000D01*
%TO.N,/~{CHG}*%
X126500000Y-22150000D02*
X126500000Y-24275000D01*
%TO.N,/~{PG}*%
X130275271Y-38650000D02*
X130000000Y-38650000D01*
X130980000Y-37945271D02*
X130275271Y-38650000D01*
X130980000Y-34730000D02*
X130980000Y-37945271D01*
X130000000Y-33750000D02*
X130980000Y-34730000D01*
X120500000Y-22150000D02*
X120500000Y-23750000D01*
%TO.N,0*%
X124721300Y-36212600D02*
X125750000Y-36212600D01*
%TO.N,/~{PG}*%
X128216099Y-38650000D02*
X130000000Y-38650000D01*
X126778700Y-37212601D02*
X128216099Y-38650000D01*
%TO.N,Net-(JP1-B)*%
X126778700Y-36712599D02*
X129362599Y-36712599D01*
X129362599Y-36712599D02*
X130000000Y-37350000D01*
D34*
%TO.N,VOUT*%
X153300000Y-42590000D02*
X149500000Y-46390000D01*
X153300000Y-32410000D02*
X153300000Y-42590000D01*
X149500000Y-28610000D02*
X153300000Y-32410000D01*
%TO.N,/~{CHG}*%
X151100000Y-39710000D02*
X149500000Y-41310000D01*
X151100000Y-35290000D02*
X151100000Y-39710000D01*
X149500000Y-33690000D02*
X151100000Y-35290000D01*
%TO.N,/VDPM*%
X149500000Y-36230000D02*
X149500000Y-38770000D01*
%TO.N,/~{PG}*%
X152200000Y-33850000D02*
X152200000Y-41150000D01*
X152200000Y-41150000D02*
X149500000Y-43850000D01*
X149500000Y-31150000D02*
X152200000Y-33850000D01*
D33*
%TO.N,Net-(R4-Pad2)*%
X138000000Y-55750000D02*
X140000000Y-57750000D01*
X138000000Y-53675000D02*
X138000000Y-55750000D01*
X140000000Y-51675000D02*
X138000000Y-53675000D01*
X140000000Y-48325000D02*
X140000000Y-51675000D01*
D34*
%TO.N,Net-(JP8-B)*%
X111750000Y-36350000D02*
X111750000Y-28150000D01*
%TO.N,Net-(BT1-+)*%
X111750000Y-37650000D02*
X111750000Y-45850000D01*
D37*
%TO.N,VIN*%
X144250000Y-20250000D02*
X144250000Y-26450000D01*
D36*
%TO.N,Net-(BT1-+)*%
X85870000Y-49000000D02*
X101880000Y-49000000D01*
X85870000Y-26000000D02*
X101880000Y-26000000D01*
D34*
%TO.N,Net-(JP8-B)*%
X112000000Y-20750000D02*
X112000000Y-27900000D01*
%TO.N,Net-(D1-A)*%
X128750000Y-18287500D02*
X128750000Y-24675000D01*
D32*
%TO.N,Net-(U1-TS)*%
X124721300Y-37212601D02*
X123287399Y-37212601D01*
X123287399Y-37212601D02*
X121500000Y-39000000D01*
%TD*%
%TA.AperFunction,Conductor*%
%TO.N,0*%
G36*
X112402256Y-15220185D02*
G01*
X112448011Y-15272989D01*
X112457955Y-15342147D01*
X112428930Y-15405703D01*
X112422898Y-15412181D01*
X111362221Y-16472858D01*
X111362218Y-16472861D01*
X111317712Y-16517367D01*
X111222859Y-16612219D01*
X111113371Y-16776080D01*
X111113366Y-16776089D01*
X111077215Y-16863368D01*
X111037949Y-16958163D01*
X111037947Y-16958171D01*
X111018724Y-17054812D01*
X110999500Y-17151455D01*
X110999500Y-19158561D01*
X110979815Y-19225600D01*
X110974767Y-19232872D01*
X110956204Y-19257668D01*
X110956202Y-19257671D01*
X110905908Y-19392517D01*
X110905486Y-19396447D01*
X110899501Y-19452123D01*
X110899500Y-19452135D01*
X110899500Y-22047870D01*
X110899501Y-22047876D01*
X110905908Y-22107483D01*
X110956203Y-22242329D01*
X110974766Y-22267126D01*
X110999184Y-22332590D01*
X110999500Y-22341438D01*
X110999500Y-25025500D01*
X110979815Y-25092539D01*
X110927011Y-25138294D01*
X110875500Y-25149500D01*
X109702129Y-25149500D01*
X109702123Y-25149501D01*
X109642516Y-25155908D01*
X109507671Y-25206202D01*
X109507664Y-25206206D01*
X109392455Y-25292452D01*
X109392452Y-25292455D01*
X109306206Y-25407664D01*
X109306202Y-25407671D01*
X109255908Y-25542517D01*
X109249501Y-25602116D01*
X109249501Y-25602123D01*
X109249500Y-25602135D01*
X109249500Y-30697870D01*
X109249501Y-30697876D01*
X109255908Y-30757483D01*
X109306202Y-30892328D01*
X109306206Y-30892335D01*
X109392452Y-31007544D01*
X109392455Y-31007547D01*
X109507664Y-31093793D01*
X109507671Y-31093797D01*
X109642517Y-31144091D01*
X109642516Y-31144091D01*
X109649444Y-31144835D01*
X109702127Y-31150500D01*
X110625500Y-31150499D01*
X110692539Y-31170183D01*
X110738294Y-31222987D01*
X110749500Y-31274499D01*
X110749500Y-35634436D01*
X110729815Y-35701475D01*
X110719215Y-35715637D01*
X110692987Y-35745906D01*
X110692982Y-35745912D01*
X110615255Y-35866857D01*
X110615252Y-35866863D01*
X110555483Y-35997741D01*
X110514977Y-36135691D01*
X110514974Y-36135703D01*
X110494500Y-36278110D01*
X110494500Y-36850002D01*
X110499644Y-36921939D01*
X110510603Y-36959262D01*
X110514363Y-37011841D01*
X110494500Y-37149998D01*
X110494500Y-37721889D01*
X110514974Y-37864296D01*
X110514976Y-37864304D01*
X110555483Y-38002259D01*
X110582778Y-38062028D01*
X110615252Y-38133136D01*
X110615253Y-38133138D01*
X110689376Y-38248476D01*
X110690194Y-38249913D01*
X110692987Y-38254095D01*
X110719212Y-38284360D01*
X110748238Y-38347914D01*
X110749500Y-38365563D01*
X110749500Y-42725500D01*
X110729815Y-42792539D01*
X110677011Y-42838294D01*
X110625500Y-42849500D01*
X109702129Y-42849500D01*
X109702123Y-42849501D01*
X109642516Y-42855908D01*
X109507671Y-42906202D01*
X109507664Y-42906206D01*
X109392455Y-42992452D01*
X109392452Y-42992455D01*
X109306206Y-43107664D01*
X109306202Y-43107671D01*
X109255908Y-43242517D01*
X109249501Y-43302116D01*
X109249501Y-43302123D01*
X109249500Y-43302135D01*
X109249500Y-45470003D01*
X109229815Y-45537042D01*
X109213181Y-45557684D01*
X107807685Y-46963181D01*
X107746362Y-46996666D01*
X107720004Y-46999500D01*
X104408231Y-46999500D01*
X104341192Y-46979815D01*
X104333920Y-46974767D01*
X104242331Y-46906204D01*
X104242328Y-46906202D01*
X104107482Y-46855908D01*
X104107483Y-46855908D01*
X104047883Y-46849501D01*
X104047881Y-46849500D01*
X104047873Y-46849500D01*
X104047864Y-46849500D01*
X99712129Y-46849500D01*
X99712123Y-46849501D01*
X99652516Y-46855908D01*
X99517671Y-46906202D01*
X99517668Y-46906204D01*
X99426080Y-46974767D01*
X99360615Y-46999184D01*
X99351769Y-46999500D01*
X88614499Y-46999500D01*
X88547460Y-46979815D01*
X88501705Y-46927011D01*
X88490499Y-46875500D01*
X88490499Y-46352129D01*
X88490498Y-46352123D01*
X88490497Y-46352116D01*
X88484091Y-46292517D01*
X88444136Y-46185393D01*
X88433797Y-46157671D01*
X88433793Y-46157664D01*
X88347547Y-46042455D01*
X88347544Y-46042452D01*
X88232335Y-45956206D01*
X88232328Y-45956202D01*
X88097482Y-45905908D01*
X88097483Y-45905908D01*
X88037883Y-45899501D01*
X88037881Y-45899500D01*
X88037873Y-45899500D01*
X88037865Y-45899500D01*
X87994500Y-45899500D01*
X87927461Y-45879815D01*
X87881706Y-45827011D01*
X87870500Y-45775500D01*
X87870500Y-29224499D01*
X87890185Y-29157460D01*
X87942989Y-29111705D01*
X87994500Y-29100499D01*
X88037871Y-29100499D01*
X88037872Y-29100499D01*
X88097483Y-29094091D01*
X88232331Y-29043796D01*
X88347546Y-28957546D01*
X88433796Y-28842331D01*
X88484091Y-28707483D01*
X88490500Y-28647873D01*
X88490500Y-28124500D01*
X88510185Y-28057461D01*
X88562989Y-28011706D01*
X88614500Y-28000500D01*
X99351769Y-28000500D01*
X99418808Y-28020185D01*
X99426080Y-28025233D01*
X99459165Y-28050000D01*
X99517073Y-28093350D01*
X99517668Y-28093795D01*
X99517671Y-28093797D01*
X99652517Y-28144091D01*
X99652516Y-28144091D01*
X99659444Y-28144835D01*
X99712127Y-28150500D01*
X104047872Y-28150499D01*
X104107483Y-28144091D01*
X104242331Y-28093796D01*
X104357546Y-28007546D01*
X104443796Y-27892331D01*
X104494091Y-27757483D01*
X104500500Y-27697873D01*
X104500499Y-24302128D01*
X104494091Y-24242517D01*
X104443884Y-24107906D01*
X104443797Y-24107671D01*
X104443793Y-24107664D01*
X104357547Y-23992455D01*
X104357544Y-23992452D01*
X104242335Y-23906206D01*
X104242328Y-23906202D01*
X104107482Y-23855908D01*
X104107483Y-23855908D01*
X104047883Y-23849501D01*
X104047881Y-23849500D01*
X104047873Y-23849500D01*
X104047864Y-23849500D01*
X99712129Y-23849500D01*
X99712123Y-23849501D01*
X99652516Y-23855908D01*
X99517671Y-23906202D01*
X99517668Y-23906204D01*
X99426080Y-23974767D01*
X99360615Y-23999184D01*
X99351769Y-23999500D01*
X88614499Y-23999500D01*
X88547460Y-23979815D01*
X88501705Y-23927011D01*
X88490499Y-23875500D01*
X88490499Y-23352129D01*
X88490498Y-23352123D01*
X88490497Y-23352116D01*
X88484091Y-23292517D01*
X88476109Y-23271117D01*
X88433797Y-23157671D01*
X88433793Y-23157664D01*
X88347547Y-23042455D01*
X88347544Y-23042452D01*
X88232335Y-22956206D01*
X88232328Y-22956202D01*
X88097482Y-22905908D01*
X88097483Y-22905908D01*
X88037883Y-22899501D01*
X88037881Y-22899500D01*
X88037873Y-22899500D01*
X88037864Y-22899500D01*
X83702129Y-22899500D01*
X83702123Y-22899501D01*
X83642516Y-22905908D01*
X83507671Y-22956202D01*
X83507664Y-22956206D01*
X83392455Y-23042452D01*
X83392452Y-23042455D01*
X83306206Y-23157664D01*
X83306202Y-23157671D01*
X83255908Y-23292517D01*
X83249501Y-23352116D01*
X83249501Y-23352123D01*
X83249500Y-23352135D01*
X83249500Y-28647870D01*
X83249501Y-28647876D01*
X83255908Y-28707483D01*
X83306202Y-28842328D01*
X83306206Y-28842335D01*
X83392452Y-28957544D01*
X83392455Y-28957547D01*
X83507664Y-29043793D01*
X83507671Y-29043797D01*
X83552618Y-29060561D01*
X83642517Y-29094091D01*
X83702127Y-29100500D01*
X83745499Y-29100499D01*
X83812537Y-29120182D01*
X83858293Y-29172985D01*
X83869500Y-29224499D01*
X83869500Y-45775500D01*
X83849815Y-45842539D01*
X83797011Y-45888294D01*
X83745503Y-45899500D01*
X83702131Y-45899500D01*
X83702123Y-45899501D01*
X83642516Y-45905908D01*
X83507671Y-45956202D01*
X83507664Y-45956206D01*
X83392455Y-46042452D01*
X83392452Y-46042455D01*
X83306206Y-46157664D01*
X83306202Y-46157671D01*
X83255908Y-46292517D01*
X83249965Y-46347804D01*
X83249501Y-46352123D01*
X83249500Y-46352135D01*
X83249500Y-51647870D01*
X83249501Y-51647876D01*
X83255908Y-51707483D01*
X83306202Y-51842328D01*
X83306206Y-51842335D01*
X83392452Y-51957544D01*
X83392455Y-51957547D01*
X83507664Y-52043793D01*
X83507671Y-52043797D01*
X83642517Y-52094091D01*
X83642516Y-52094091D01*
X83649444Y-52094835D01*
X83702127Y-52100500D01*
X88037872Y-52100499D01*
X88097483Y-52094091D01*
X88232331Y-52043796D01*
X88347546Y-51957546D01*
X88433796Y-51842331D01*
X88484091Y-51707483D01*
X88490500Y-51647873D01*
X88490500Y-51124500D01*
X88510185Y-51057461D01*
X88562989Y-51011706D01*
X88614500Y-51000500D01*
X99351769Y-51000500D01*
X99418808Y-51020185D01*
X99426080Y-51025233D01*
X99469132Y-51057461D01*
X99517073Y-51093350D01*
X99517668Y-51093795D01*
X99517671Y-51093797D01*
X99652517Y-51144091D01*
X99652516Y-51144091D01*
X99659444Y-51144835D01*
X99712127Y-51150500D01*
X104047872Y-51150499D01*
X104107483Y-51144091D01*
X104242331Y-51093796D01*
X104300819Y-51050011D01*
X104333920Y-51025233D01*
X104399385Y-51000816D01*
X104408231Y-51000500D01*
X108731113Y-51000500D01*
X108731120Y-51000500D01*
X108861118Y-50983385D01*
X108991116Y-50966271D01*
X109244419Y-50898398D01*
X109486697Y-50798043D01*
X109660197Y-50697873D01*
X109660199Y-50697871D01*
X109660201Y-50697871D01*
X109713788Y-50666933D01*
X109713791Y-50666930D01*
X109713803Y-50666924D01*
X109804131Y-50597611D01*
X109921851Y-50507283D01*
X111542315Y-48886817D01*
X111603638Y-48853333D01*
X111629996Y-48850499D01*
X113797871Y-48850499D01*
X113797872Y-48850499D01*
X113857483Y-48844091D01*
X113992331Y-48793796D01*
X114107546Y-48707546D01*
X114193796Y-48592331D01*
X114244091Y-48457483D01*
X114250500Y-48397873D01*
X114250499Y-43302128D01*
X114244091Y-43242517D01*
X114193796Y-43107669D01*
X114193795Y-43107668D01*
X114193793Y-43107664D01*
X114107547Y-42992455D01*
X114107544Y-42992452D01*
X113992335Y-42906206D01*
X113992328Y-42906202D01*
X113857482Y-42855908D01*
X113857483Y-42855908D01*
X113797883Y-42849501D01*
X113797881Y-42849500D01*
X113797873Y-42849500D01*
X113797865Y-42849500D01*
X112874500Y-42849500D01*
X112807461Y-42829815D01*
X112761706Y-42777011D01*
X112750500Y-42725500D01*
X112750500Y-38365562D01*
X112770185Y-38298523D01*
X112780788Y-38284359D01*
X112807009Y-38254098D01*
X112807009Y-38254097D01*
X112807015Y-38254091D01*
X112884747Y-38133137D01*
X112944517Y-38002259D01*
X112985024Y-37864304D01*
X113005500Y-37721889D01*
X113005500Y-37150000D01*
X113000355Y-37078060D01*
X112999456Y-37075000D01*
X112989397Y-37040741D01*
X112985636Y-36988158D01*
X112987405Y-36975854D01*
X113005500Y-36850000D01*
X113005500Y-36278111D01*
X112985024Y-36135696D01*
X112944517Y-35997741D01*
X112884747Y-35866863D01*
X112873603Y-35849523D01*
X112810623Y-35751523D01*
X112809802Y-35750081D01*
X112807014Y-35745906D01*
X112780786Y-35715637D01*
X112751762Y-35652081D01*
X112750500Y-35634435D01*
X112750500Y-31274499D01*
X112770185Y-31207460D01*
X112822989Y-31161705D01*
X112874500Y-31150499D01*
X113797871Y-31150499D01*
X113797872Y-31150499D01*
X113857483Y-31144091D01*
X113992331Y-31093796D01*
X114107546Y-31007546D01*
X114193796Y-30892331D01*
X114244091Y-30757483D01*
X114250500Y-30697873D01*
X114250499Y-25602128D01*
X114244091Y-25542517D01*
X114228233Y-25500000D01*
X114193797Y-25407671D01*
X114193793Y-25407664D01*
X114107547Y-25292455D01*
X114107544Y-25292452D01*
X113992335Y-25206206D01*
X113992328Y-25206202D01*
X113857482Y-25155908D01*
X113857483Y-25155908D01*
X113797883Y-25149501D01*
X113797881Y-25149500D01*
X113797873Y-25149500D01*
X113797865Y-25149500D01*
X113124500Y-25149500D01*
X113057461Y-25129815D01*
X113011706Y-25077011D01*
X113000500Y-25025500D01*
X113000500Y-22341438D01*
X113020185Y-22274399D01*
X113025234Y-22267126D01*
X113043796Y-22242331D01*
X113051421Y-22221889D01*
X113094091Y-22107482D01*
X113100500Y-22047873D01*
X113100499Y-19452128D01*
X113095299Y-19403757D01*
X113094091Y-19392516D01*
X113043797Y-19257671D01*
X113043795Y-19257668D01*
X113025233Y-19232872D01*
X113000816Y-19167408D01*
X113000500Y-19158561D01*
X113000500Y-18068995D01*
X114699499Y-18068995D01*
X114726418Y-18204322D01*
X114726421Y-18204332D01*
X114779221Y-18331804D01*
X114779228Y-18331817D01*
X114855885Y-18446541D01*
X114855888Y-18446545D01*
X114953454Y-18544111D01*
X114953458Y-18544114D01*
X115068182Y-18620771D01*
X115068195Y-18620778D01*
X115195667Y-18673578D01*
X115195672Y-18673580D01*
X115195676Y-18673580D01*
X115195677Y-18673581D01*
X115331004Y-18700500D01*
X115331007Y-18700500D01*
X115468995Y-18700500D01*
X115578226Y-18678772D01*
X115604328Y-18673580D01*
X115731811Y-18620775D01*
X115846542Y-18544114D01*
X115944114Y-18446542D01*
X116020775Y-18331811D01*
X116073580Y-18204328D01*
X116095602Y-18093616D01*
X116100500Y-18068995D01*
X116100500Y-17931004D01*
X116073581Y-17795677D01*
X116073580Y-17795676D01*
X116073580Y-17795672D01*
X116059924Y-17762704D01*
X116020778Y-17668195D01*
X116020771Y-17668182D01*
X115944114Y-17553458D01*
X115944111Y-17553454D01*
X115846545Y-17455888D01*
X115846541Y-17455885D01*
X115731817Y-17379228D01*
X115731804Y-17379221D01*
X115604332Y-17326421D01*
X115604322Y-17326418D01*
X115468995Y-17299500D01*
X115468993Y-17299500D01*
X115331007Y-17299500D01*
X115331005Y-17299500D01*
X115195677Y-17326418D01*
X115195667Y-17326421D01*
X115068195Y-17379221D01*
X115068182Y-17379228D01*
X114953458Y-17455885D01*
X114953454Y-17455888D01*
X114855888Y-17553454D01*
X114855885Y-17553458D01*
X114779228Y-17668182D01*
X114779221Y-17668195D01*
X114726421Y-17795667D01*
X114726418Y-17795677D01*
X114699500Y-17931004D01*
X114699500Y-17931007D01*
X114699500Y-18068993D01*
X114699500Y-18068995D01*
X114699499Y-18068995D01*
X113000500Y-18068995D01*
X113000500Y-17715782D01*
X113020185Y-17648743D01*
X113036819Y-17628101D01*
X113628101Y-17036819D01*
X113689424Y-17003334D01*
X113715782Y-17000500D01*
X116034218Y-17000500D01*
X116101257Y-17020185D01*
X116121899Y-17036819D01*
X116963181Y-17878101D01*
X116996666Y-17939424D01*
X116999500Y-17965782D01*
X116999500Y-21535217D01*
X116979815Y-21602256D01*
X116927011Y-21648011D01*
X116857853Y-21657955D01*
X116794297Y-21628930D01*
X116787819Y-21622898D01*
X115636818Y-20471897D01*
X115603333Y-20410574D01*
X115600499Y-20384216D01*
X115600499Y-19452129D01*
X115600498Y-19452123D01*
X115600497Y-19452116D01*
X115595299Y-19403757D01*
X115594091Y-19392516D01*
X115543797Y-19257671D01*
X115543793Y-19257664D01*
X115457547Y-19142455D01*
X115457544Y-19142452D01*
X115342335Y-19056206D01*
X115342328Y-19056202D01*
X115207482Y-19005908D01*
X115207483Y-19005908D01*
X115147883Y-18999501D01*
X115147881Y-18999500D01*
X115147873Y-18999500D01*
X115147864Y-18999500D01*
X113852129Y-18999500D01*
X113852123Y-18999501D01*
X113792516Y-19005908D01*
X113657671Y-19056202D01*
X113657664Y-19056206D01*
X113542455Y-19142452D01*
X113542452Y-19142455D01*
X113456206Y-19257664D01*
X113456202Y-19257671D01*
X113405908Y-19392517D01*
X113405486Y-19396447D01*
X113399501Y-19452123D01*
X113399500Y-19452135D01*
X113399500Y-22047870D01*
X113399501Y-22047876D01*
X113405908Y-22107483D01*
X113456202Y-22242328D01*
X113456206Y-22242335D01*
X113542452Y-22357544D01*
X113542455Y-22357547D01*
X113657664Y-22443793D01*
X113657671Y-22443797D01*
X113792517Y-22494091D01*
X113792516Y-22494091D01*
X113799444Y-22494835D01*
X113852127Y-22500500D01*
X114784216Y-22500499D01*
X114851255Y-22520183D01*
X114871897Y-22536818D01*
X115213181Y-22878101D01*
X115246666Y-22939424D01*
X115249500Y-22965782D01*
X115249500Y-37848543D01*
X115256427Y-37883365D01*
X115256427Y-37883368D01*
X115280995Y-38006878D01*
X115287947Y-38041829D01*
X115287949Y-38041837D01*
X115363364Y-38223907D01*
X115363371Y-38223920D01*
X115472860Y-38387781D01*
X115472863Y-38387785D01*
X115616537Y-38531459D01*
X115616559Y-38531479D01*
X120469735Y-43384655D01*
X120469764Y-43384686D01*
X120612214Y-43527136D01*
X120612218Y-43527139D01*
X120776079Y-43636628D01*
X120776092Y-43636635D01*
X120904833Y-43689961D01*
X120947744Y-43707735D01*
X120958164Y-43712051D01*
X121054812Y-43731275D01*
X121103135Y-43740887D01*
X121151458Y-43750500D01*
X121151459Y-43750500D01*
X121151460Y-43750500D01*
X121348540Y-43750500D01*
X145394218Y-43750500D01*
X145461257Y-43770185D01*
X145481899Y-43786819D01*
X148118108Y-46423029D01*
X148151593Y-46484352D01*
X148153955Y-46499901D01*
X148164936Y-46625403D01*
X148164938Y-46625413D01*
X148226094Y-46853655D01*
X148226096Y-46853659D01*
X148226097Y-46853663D01*
X148295359Y-47002196D01*
X148325965Y-47067830D01*
X148325967Y-47067834D01*
X148461501Y-47261395D01*
X148461506Y-47261402D01*
X148628597Y-47428493D01*
X148628603Y-47428498D01*
X148814594Y-47558730D01*
X148858219Y-47613307D01*
X148865413Y-47682805D01*
X148833890Y-47745160D01*
X148814595Y-47761880D01*
X148628922Y-47891890D01*
X148628920Y-47891891D01*
X148461891Y-48058920D01*
X148461886Y-48058926D01*
X148326400Y-48252420D01*
X148326399Y-48252422D01*
X148226570Y-48466507D01*
X148226567Y-48466513D01*
X148169364Y-48679999D01*
X148169364Y-48680000D01*
X149066988Y-48680000D01*
X149034075Y-48737007D01*
X149000000Y-48864174D01*
X149000000Y-48995826D01*
X149034075Y-49122993D01*
X149066988Y-49180000D01*
X148169364Y-49180000D01*
X148226567Y-49393486D01*
X148226570Y-49393492D01*
X148326399Y-49607578D01*
X148461894Y-49801082D01*
X148628917Y-49968105D01*
X148822421Y-50103600D01*
X149036507Y-50203429D01*
X149036516Y-50203433D01*
X149250000Y-50260634D01*
X149250000Y-49363012D01*
X149307007Y-49395925D01*
X149434174Y-49430000D01*
X149565826Y-49430000D01*
X149692993Y-49395925D01*
X149750000Y-49363012D01*
X149750000Y-50260633D01*
X149963483Y-50203433D01*
X149963492Y-50203429D01*
X150177578Y-50103600D01*
X150371082Y-49968105D01*
X150538105Y-49801082D01*
X150673600Y-49607578D01*
X150773429Y-49393492D01*
X150773432Y-49393486D01*
X150830636Y-49180000D01*
X149933012Y-49180000D01*
X149965925Y-49122993D01*
X150000000Y-48995826D01*
X150000000Y-48864174D01*
X149965925Y-48737007D01*
X149933012Y-48680000D01*
X150830636Y-48680000D01*
X150830635Y-48679999D01*
X150773432Y-48466513D01*
X150773429Y-48466507D01*
X150673600Y-48252422D01*
X150673599Y-48252420D01*
X150538113Y-48058926D01*
X150538108Y-48058920D01*
X150371078Y-47891890D01*
X150185405Y-47761879D01*
X150141780Y-47707302D01*
X150134588Y-47637804D01*
X150166110Y-47575449D01*
X150185406Y-47558730D01*
X150306924Y-47473642D01*
X150371401Y-47428495D01*
X150538495Y-47261401D01*
X150674035Y-47067830D01*
X150773903Y-46853663D01*
X150835063Y-46625408D01*
X150846043Y-46499901D01*
X150871495Y-46434834D01*
X150881882Y-46423037D01*
X153587819Y-43717101D01*
X153649142Y-43683616D01*
X153718834Y-43688600D01*
X153774767Y-43730472D01*
X153799184Y-43795936D01*
X153799500Y-43804782D01*
X153799500Y-58993907D01*
X153798903Y-59006061D01*
X153785335Y-59143819D01*
X153780593Y-59167661D01*
X153742186Y-59294271D01*
X153732883Y-59316728D01*
X153670517Y-59433406D01*
X153657012Y-59453618D01*
X153573079Y-59555891D01*
X153555891Y-59573079D01*
X153453618Y-59657012D01*
X153433406Y-59670517D01*
X153316728Y-59732883D01*
X153294271Y-59742186D01*
X153167661Y-59780593D01*
X153143819Y-59785335D01*
X153006062Y-59798903D01*
X152993908Y-59799500D01*
X16006092Y-59799500D01*
X15993938Y-59798903D01*
X15856180Y-59785335D01*
X15832340Y-59780593D01*
X15705728Y-59742186D01*
X15683271Y-59732883D01*
X15566593Y-59670517D01*
X15546381Y-59657012D01*
X15444108Y-59573079D01*
X15426920Y-59555891D01*
X15342986Y-59453616D01*
X15329482Y-59433406D01*
X15267116Y-59316728D01*
X15257815Y-59294277D01*
X15219404Y-59167652D01*
X15214665Y-59143824D01*
X15201097Y-59006060D01*
X15200500Y-58993907D01*
X15200500Y-55249997D01*
X16145080Y-55249997D01*
X16145080Y-55250002D01*
X16164746Y-55612728D01*
X16223517Y-55971214D01*
X16223519Y-55971222D01*
X16320695Y-56321220D01*
X16320697Y-56321227D01*
X16455152Y-56658684D01*
X16455161Y-56658702D01*
X16625316Y-56979647D01*
X16625318Y-56979651D01*
X16829170Y-57280309D01*
X16829177Y-57280319D01*
X16960969Y-57435475D01*
X16960970Y-57435475D01*
X18205748Y-56190698D01*
X18279588Y-56292330D01*
X18457670Y-56470412D01*
X18559300Y-56544251D01*
X17311888Y-57791662D01*
X17311888Y-57791664D01*
X17328070Y-57806992D01*
X17328071Y-57806993D01*
X17617266Y-58026832D01*
X17617282Y-58026843D01*
X17928522Y-58214109D01*
X17928535Y-58214116D01*
X18258205Y-58366639D01*
X18258210Y-58366640D01*
X18602461Y-58482632D01*
X18957235Y-58560724D01*
X19318366Y-58599999D01*
X19318374Y-58600000D01*
X19681626Y-58600000D01*
X19681633Y-58599999D01*
X20042764Y-58560724D01*
X20397538Y-58482632D01*
X20741789Y-58366640D01*
X20741794Y-58366639D01*
X21071464Y-58214116D01*
X21071477Y-58214109D01*
X21382717Y-58026843D01*
X21382733Y-58026832D01*
X21671929Y-57806992D01*
X21688110Y-57791664D01*
X21688110Y-57791663D01*
X20440698Y-56544251D01*
X20542330Y-56470412D01*
X20720412Y-56292330D01*
X20794251Y-56190698D01*
X22039028Y-57435475D01*
X22039029Y-57435475D01*
X22170827Y-57280311D01*
X22170838Y-57280297D01*
X22374681Y-56979651D01*
X22374683Y-56979647D01*
X22544838Y-56658702D01*
X22544847Y-56658684D01*
X22679302Y-56321227D01*
X22679304Y-56321220D01*
X22776480Y-55971222D01*
X22776482Y-55971214D01*
X22835253Y-55612728D01*
X22854920Y-55250002D01*
X22854920Y-55249997D01*
X22848258Y-55127135D01*
X110399500Y-55127135D01*
X110399500Y-56922870D01*
X110399501Y-56922876D01*
X110405908Y-56982483D01*
X110456202Y-57117328D01*
X110456206Y-57117335D01*
X110542452Y-57232544D01*
X110542455Y-57232547D01*
X110657664Y-57318793D01*
X110657671Y-57318797D01*
X110792517Y-57369091D01*
X110792516Y-57369091D01*
X110799444Y-57369835D01*
X110852127Y-57375500D01*
X112647872Y-57375499D01*
X112707483Y-57369091D01*
X112842331Y-57318796D01*
X112957546Y-57232546D01*
X113043796Y-57117331D01*
X113094091Y-56982483D01*
X113100500Y-56922873D01*
X113100500Y-56774500D01*
X113120185Y-56707461D01*
X113172989Y-56661706D01*
X113224500Y-56650500D01*
X119383481Y-56650500D01*
X119450520Y-56670185D01*
X119471157Y-56686814D01*
X119539815Y-56755472D01*
X119685394Y-56843478D01*
X119847804Y-56894086D01*
X119918384Y-56900500D01*
X119918387Y-56900500D01*
X120581613Y-56900500D01*
X120581616Y-56900500D01*
X120652196Y-56894086D01*
X120814606Y-56843478D01*
X120960185Y-56755472D01*
X120981918Y-56733738D01*
X121043238Y-56700252D01*
X121112930Y-56705234D01*
X121135571Y-56716423D01*
X121150478Y-56725789D01*
X121150480Y-56725790D01*
X121320737Y-56785366D01*
X121320743Y-56785367D01*
X121320745Y-56785368D01*
X121320746Y-56785368D01*
X121320750Y-56785369D01*
X121499996Y-56805565D01*
X121500000Y-56805565D01*
X121500004Y-56805565D01*
X121679249Y-56785369D01*
X121679252Y-56785368D01*
X121679255Y-56785368D01*
X121849522Y-56725789D01*
X122002262Y-56629816D01*
X122129816Y-56502262D01*
X122225789Y-56349522D01*
X122285368Y-56179255D01*
X122285369Y-56179249D01*
X122305565Y-56000003D01*
X122305565Y-55999996D01*
X122285726Y-55823920D01*
X137249499Y-55823920D01*
X137278340Y-55968907D01*
X137278343Y-55968917D01*
X137334912Y-56105488D01*
X137334918Y-56105499D01*
X137346971Y-56123536D01*
X137346973Y-56123541D01*
X137417046Y-56228414D01*
X137417052Y-56228421D01*
X138719435Y-57530803D01*
X138752920Y-57592126D01*
X138755282Y-57629290D01*
X138744723Y-57749997D01*
X138744723Y-57750002D01*
X138763793Y-57967975D01*
X138763793Y-57967979D01*
X138820422Y-58179322D01*
X138820424Y-58179326D01*
X138820425Y-58179330D01*
X138836643Y-58214109D01*
X138912897Y-58377638D01*
X138912898Y-58377639D01*
X139038402Y-58556877D01*
X139193123Y-58711598D01*
X139372361Y-58837102D01*
X139570670Y-58929575D01*
X139782023Y-58986207D01*
X139964926Y-59002208D01*
X139999998Y-59005277D01*
X140000000Y-59005277D01*
X140000002Y-59005277D01*
X140028254Y-59002805D01*
X140217977Y-58986207D01*
X140429330Y-58929575D01*
X140627639Y-58837102D01*
X140806877Y-58711598D01*
X140961598Y-58556877D01*
X141087102Y-58377639D01*
X141179575Y-58179330D01*
X141236207Y-57967977D01*
X141255277Y-57750000D01*
X141236207Y-57532023D01*
X141179575Y-57320670D01*
X141087102Y-57122362D01*
X141087100Y-57122359D01*
X141087099Y-57122357D01*
X140961599Y-56943124D01*
X140912561Y-56894086D01*
X140806877Y-56788402D01*
X140627639Y-56662898D01*
X140627640Y-56662898D01*
X140627638Y-56662897D01*
X140528484Y-56616661D01*
X140429330Y-56570425D01*
X140429326Y-56570424D01*
X140429322Y-56570422D01*
X140217977Y-56513793D01*
X140000002Y-56494723D01*
X139999997Y-56494723D01*
X139879290Y-56505282D01*
X139810790Y-56491515D01*
X139780803Y-56469435D01*
X138786819Y-55475451D01*
X138753334Y-55414128D01*
X138750500Y-55387770D01*
X138750500Y-55249997D01*
X146145080Y-55249997D01*
X146145080Y-55250002D01*
X146164746Y-55612728D01*
X146223517Y-55971214D01*
X146223519Y-55971222D01*
X146320695Y-56321220D01*
X146320697Y-56321227D01*
X146455152Y-56658684D01*
X146455161Y-56658702D01*
X146625316Y-56979647D01*
X146625318Y-56979651D01*
X146829170Y-57280309D01*
X146829177Y-57280319D01*
X146960969Y-57435475D01*
X146960970Y-57435475D01*
X148205748Y-56190698D01*
X148279588Y-56292330D01*
X148457670Y-56470412D01*
X148559300Y-56544251D01*
X147311888Y-57791662D01*
X147311888Y-57791664D01*
X147328070Y-57806992D01*
X147328071Y-57806993D01*
X147617266Y-58026832D01*
X147617282Y-58026843D01*
X147928522Y-58214109D01*
X147928535Y-58214116D01*
X148258205Y-58366639D01*
X148258210Y-58366640D01*
X148602461Y-58482632D01*
X148957235Y-58560724D01*
X149318366Y-58599999D01*
X149318374Y-58600000D01*
X149681626Y-58600000D01*
X149681633Y-58599999D01*
X150042764Y-58560724D01*
X150397538Y-58482632D01*
X150741789Y-58366640D01*
X150741794Y-58366639D01*
X151071464Y-58214116D01*
X151071477Y-58214109D01*
X151382717Y-58026843D01*
X151382733Y-58026832D01*
X151671929Y-57806992D01*
X151688110Y-57791664D01*
X151688110Y-57791663D01*
X150440698Y-56544251D01*
X150542330Y-56470412D01*
X150720412Y-56292330D01*
X150794251Y-56190698D01*
X152039028Y-57435475D01*
X152039029Y-57435475D01*
X152170827Y-57280311D01*
X152170838Y-57280297D01*
X152374681Y-56979651D01*
X152374683Y-56979647D01*
X152544838Y-56658702D01*
X152544847Y-56658684D01*
X152679302Y-56321227D01*
X152679304Y-56321220D01*
X152776480Y-55971222D01*
X152776482Y-55971214D01*
X152835253Y-55612728D01*
X152854920Y-55250002D01*
X152854920Y-55249997D01*
X152835253Y-54887271D01*
X152776482Y-54528785D01*
X152776480Y-54528777D01*
X152679304Y-54178779D01*
X152679302Y-54178772D01*
X152544847Y-53841315D01*
X152544838Y-53841297D01*
X152374683Y-53520352D01*
X152374681Y-53520348D01*
X152170829Y-53219690D01*
X152170822Y-53219680D01*
X152039029Y-53064523D01*
X152039028Y-53064523D01*
X150794251Y-54309300D01*
X150720412Y-54207670D01*
X150542330Y-54029588D01*
X150440698Y-53955748D01*
X151688110Y-52708336D01*
X151688110Y-52708334D01*
X151671929Y-52693007D01*
X151671928Y-52693006D01*
X151382733Y-52473167D01*
X151382717Y-52473156D01*
X151071477Y-52285890D01*
X151071464Y-52285883D01*
X150741794Y-52133360D01*
X150741789Y-52133359D01*
X150397538Y-52017367D01*
X150042764Y-51939275D01*
X149681633Y-51900000D01*
X149318366Y-51900000D01*
X148957235Y-51939275D01*
X148602461Y-52017367D01*
X148258210Y-52133359D01*
X148258205Y-52133360D01*
X147928535Y-52285883D01*
X147928522Y-52285890D01*
X147617282Y-52473156D01*
X147617266Y-52473167D01*
X147328075Y-52693002D01*
X147311888Y-52708335D01*
X147311887Y-52708335D01*
X148559301Y-53955748D01*
X148457670Y-54029588D01*
X148279588Y-54207670D01*
X148205748Y-54309300D01*
X146960970Y-53064522D01*
X146960969Y-53064523D01*
X146829177Y-53219680D01*
X146829170Y-53219690D01*
X146625318Y-53520348D01*
X146625316Y-53520352D01*
X146455161Y-53841297D01*
X146455152Y-53841315D01*
X146320697Y-54178772D01*
X146320695Y-54178779D01*
X146223519Y-54528777D01*
X146223517Y-54528785D01*
X146164746Y-54887271D01*
X146145080Y-55249997D01*
X138750500Y-55249997D01*
X138750500Y-54037228D01*
X138770185Y-53970189D01*
X138786814Y-53949552D01*
X138909780Y-53826586D01*
X138971101Y-53793103D01*
X139040793Y-53798087D01*
X139096726Y-53839959D01*
X139103576Y-53850119D01*
X139169927Y-53959877D01*
X139290122Y-54080072D01*
X139435604Y-54168019D01*
X139435603Y-54168019D01*
X139597894Y-54218590D01*
X139597892Y-54218590D01*
X139668418Y-54224999D01*
X140250000Y-54224999D01*
X140331581Y-54224999D01*
X140402102Y-54218591D01*
X140402107Y-54218590D01*
X140564396Y-54168018D01*
X140709877Y-54080072D01*
X140830072Y-53959877D01*
X140918019Y-53814395D01*
X140968590Y-53652106D01*
X140975000Y-53581572D01*
X140975000Y-53575000D01*
X140250000Y-53575000D01*
X140250000Y-54224999D01*
X139668418Y-54224999D01*
X139749999Y-54224998D01*
X139750000Y-54224998D01*
X139750000Y-53199000D01*
X139769685Y-53131961D01*
X139822489Y-53086206D01*
X139874000Y-53075000D01*
X140974999Y-53075000D01*
X140974999Y-53068417D01*
X140968591Y-52997897D01*
X140968590Y-52997892D01*
X140918018Y-52835603D01*
X140830072Y-52690122D01*
X140727984Y-52588034D01*
X140694499Y-52526711D01*
X140699483Y-52457019D01*
X140727983Y-52412673D01*
X140830472Y-52310185D01*
X140918478Y-52164606D01*
X140969086Y-52002196D01*
X140975500Y-51931616D01*
X140975500Y-51418384D01*
X140969086Y-51347804D01*
X140918478Y-51185394D01*
X140830472Y-51039815D01*
X140830470Y-51039813D01*
X140830469Y-51039811D01*
X140786819Y-50996161D01*
X140753334Y-50934838D01*
X140750500Y-50908480D01*
X140750500Y-49091519D01*
X140770185Y-49024480D01*
X140786820Y-49003837D01*
X140794831Y-48995826D01*
X140830472Y-48960185D01*
X140918478Y-48814606D01*
X140969086Y-48652196D01*
X140975500Y-48581616D01*
X140975500Y-48068384D01*
X140969086Y-47997804D01*
X140918478Y-47835394D01*
X140830472Y-47689815D01*
X140830470Y-47689813D01*
X140830469Y-47689811D01*
X140728339Y-47587681D01*
X140694854Y-47526358D01*
X140699838Y-47456666D01*
X140728339Y-47412319D01*
X140830468Y-47310189D01*
X140830469Y-47310188D01*
X140830472Y-47310185D01*
X140918478Y-47164606D01*
X140969086Y-47002196D01*
X140975500Y-46931616D01*
X140975500Y-46418384D01*
X140969086Y-46347804D01*
X140918478Y-46185394D01*
X140830472Y-46039815D01*
X140830470Y-46039813D01*
X140830469Y-46039811D01*
X140710188Y-45919530D01*
X140710186Y-45919529D01*
X140710185Y-45919528D01*
X140685348Y-45904513D01*
X140638162Y-45852984D01*
X140625500Y-45798397D01*
X140625500Y-45794854D01*
X140644507Y-45728881D01*
X140725788Y-45599524D01*
X140725789Y-45599522D01*
X140785368Y-45429255D01*
X140805565Y-45250000D01*
X140785368Y-45070745D01*
X140725789Y-44900478D01*
X140629816Y-44747738D01*
X140502262Y-44620184D01*
X140349523Y-44524211D01*
X140179254Y-44464631D01*
X140179249Y-44464630D01*
X140000004Y-44444435D01*
X139999996Y-44444435D01*
X139820750Y-44464630D01*
X139820745Y-44464631D01*
X139650476Y-44524211D01*
X139497737Y-44620184D01*
X139370184Y-44747737D01*
X139274211Y-44900476D01*
X139214631Y-45070745D01*
X139214630Y-45070750D01*
X139194435Y-45249996D01*
X139194435Y-45250003D01*
X139214630Y-45429249D01*
X139214631Y-45429254D01*
X139274211Y-45599524D01*
X139355493Y-45728881D01*
X139374500Y-45794854D01*
X139374500Y-45798397D01*
X139354815Y-45865436D01*
X139314652Y-45904513D01*
X139289813Y-45919529D01*
X139289811Y-45919530D01*
X139169530Y-46039811D01*
X139081522Y-46185393D01*
X139030913Y-46347807D01*
X139024500Y-46418386D01*
X139024500Y-46931613D01*
X139030913Y-47002192D01*
X139081522Y-47164606D01*
X139169530Y-47310188D01*
X139271661Y-47412319D01*
X139305146Y-47473642D01*
X139300162Y-47543334D01*
X139271661Y-47587681D01*
X139169531Y-47689810D01*
X139169530Y-47689811D01*
X139081522Y-47835393D01*
X139030913Y-47997807D01*
X139025782Y-48054275D01*
X139024500Y-48068384D01*
X139024500Y-48581616D01*
X139025474Y-48592331D01*
X139030913Y-48652192D01*
X139030913Y-48652194D01*
X139030914Y-48652196D01*
X139075038Y-48793797D01*
X139081522Y-48814606D01*
X139169530Y-48960188D01*
X139213180Y-49003837D01*
X139246666Y-49065160D01*
X139249500Y-49091519D01*
X139249500Y-50908480D01*
X139229815Y-50975519D01*
X139213181Y-50996161D01*
X139169531Y-51039810D01*
X139169530Y-51039811D01*
X139081522Y-51185393D01*
X139030913Y-51347807D01*
X139024500Y-51418386D01*
X139024500Y-51537769D01*
X139004815Y-51604808D01*
X138988181Y-51625450D01*
X137417050Y-53196580D01*
X137417044Y-53196588D01*
X137367812Y-53270268D01*
X137367813Y-53270269D01*
X137334921Y-53319496D01*
X137334914Y-53319508D01*
X137278342Y-53456086D01*
X137278340Y-53456092D01*
X137249500Y-53601079D01*
X137249500Y-53601082D01*
X137249500Y-55823918D01*
X137249500Y-55823920D01*
X137249499Y-55823920D01*
X122285726Y-55823920D01*
X122285369Y-55820750D01*
X122285368Y-55820745D01*
X122225788Y-55650476D01*
X122129815Y-55497737D01*
X122002262Y-55370184D01*
X121849523Y-55274211D01*
X121679254Y-55214631D01*
X121679249Y-55214630D01*
X121500004Y-55194435D01*
X121499996Y-55194435D01*
X121320750Y-55214630D01*
X121320737Y-55214633D01*
X121150480Y-55274209D01*
X121135567Y-55283579D01*
X121068329Y-55302574D01*
X121001495Y-55282203D01*
X120981932Y-55266274D01*
X120978350Y-55262693D01*
X120944856Y-55201375D01*
X120949831Y-55131683D01*
X120978336Y-55087320D01*
X121080472Y-54985185D01*
X121168478Y-54839606D01*
X121219086Y-54677196D01*
X121225500Y-54606616D01*
X121225500Y-54093384D01*
X121219086Y-54022804D01*
X121168478Y-53860394D01*
X121080472Y-53714815D01*
X121080470Y-53714813D01*
X121080469Y-53714811D01*
X120960188Y-53594530D01*
X120960186Y-53594529D01*
X120960185Y-53594528D01*
X120935348Y-53579513D01*
X120888162Y-53527984D01*
X120875500Y-53473397D01*
X120875500Y-52294854D01*
X120894507Y-52228881D01*
X120905385Y-52211570D01*
X120954528Y-52133359D01*
X120975788Y-52099524D01*
X120977862Y-52093598D01*
X121035368Y-51929255D01*
X121035369Y-51929249D01*
X121055565Y-51750003D01*
X121055565Y-51749996D01*
X121035369Y-51570750D01*
X121035368Y-51570745D01*
X120982055Y-51418386D01*
X120975789Y-51400478D01*
X120879816Y-51247738D01*
X120752262Y-51120184D01*
X120599523Y-51024211D01*
X120429254Y-50964631D01*
X120429249Y-50964630D01*
X120250004Y-50944435D01*
X120249996Y-50944435D01*
X120070750Y-50964630D01*
X120070745Y-50964631D01*
X119900476Y-51024211D01*
X119747737Y-51120184D01*
X119620184Y-51247737D01*
X119524211Y-51400476D01*
X119464631Y-51570745D01*
X119464630Y-51570750D01*
X119444435Y-51749996D01*
X119444435Y-51750003D01*
X119464630Y-51929249D01*
X119464631Y-51929254D01*
X119524211Y-52099524D01*
X119565106Y-52164606D01*
X119594615Y-52211570D01*
X119605493Y-52228881D01*
X119624500Y-52294854D01*
X119624500Y-53473397D01*
X119604815Y-53540436D01*
X119564652Y-53579513D01*
X119539813Y-53594529D01*
X119539811Y-53594530D01*
X119419530Y-53714811D01*
X119331522Y-53860393D01*
X119280913Y-54022807D01*
X119274500Y-54093386D01*
X119274500Y-54606613D01*
X119280913Y-54677192D01*
X119331522Y-54839606D01*
X119419530Y-54985188D01*
X119521661Y-55087319D01*
X119555146Y-55148642D01*
X119550162Y-55218334D01*
X119521661Y-55262681D01*
X119421161Y-55363181D01*
X119359838Y-55396666D01*
X119333480Y-55399500D01*
X113224499Y-55399500D01*
X113157460Y-55379815D01*
X113111705Y-55327011D01*
X113100499Y-55275500D01*
X113100499Y-55127129D01*
X113100498Y-55127123D01*
X113100497Y-55127116D01*
X113094091Y-55067517D01*
X113063384Y-54985188D01*
X113043797Y-54932671D01*
X113043793Y-54932664D01*
X112957547Y-54817455D01*
X112957544Y-54817452D01*
X112842335Y-54731206D01*
X112842328Y-54731202D01*
X112710401Y-54681997D01*
X112654467Y-54640126D01*
X112630050Y-54574662D01*
X112644902Y-54506389D01*
X112666053Y-54478133D01*
X112788108Y-54356078D01*
X112923600Y-54162578D01*
X113023429Y-53948492D01*
X113023432Y-53948486D01*
X113080636Y-53735000D01*
X112183012Y-53735000D01*
X112215925Y-53677993D01*
X112250000Y-53550826D01*
X112250000Y-53419174D01*
X112215925Y-53292007D01*
X112183012Y-53235000D01*
X113080636Y-53235000D01*
X113080635Y-53234999D01*
X113023432Y-53021513D01*
X113023429Y-53021507D01*
X112923600Y-52807422D01*
X112923599Y-52807420D01*
X112788113Y-52613926D01*
X112788108Y-52613920D01*
X112621082Y-52446894D01*
X112427578Y-52311399D01*
X112213492Y-52211570D01*
X112213486Y-52211567D01*
X112000000Y-52154364D01*
X112000000Y-53051988D01*
X111942993Y-53019075D01*
X111815826Y-52985000D01*
X111684174Y-52985000D01*
X111557007Y-53019075D01*
X111500000Y-53051988D01*
X111500000Y-52154364D01*
X111499999Y-52154364D01*
X111286513Y-52211567D01*
X111286507Y-52211570D01*
X111072422Y-52311399D01*
X111072420Y-52311400D01*
X110878926Y-52446886D01*
X110878920Y-52446891D01*
X110711891Y-52613920D01*
X110711886Y-52613926D01*
X110576400Y-52807420D01*
X110576399Y-52807422D01*
X110476570Y-53021507D01*
X110476567Y-53021513D01*
X110419364Y-53234999D01*
X110419364Y-53235000D01*
X111316988Y-53235000D01*
X111284075Y-53292007D01*
X111250000Y-53419174D01*
X111250000Y-53550826D01*
X111284075Y-53677993D01*
X111316988Y-53735000D01*
X110419364Y-53735000D01*
X110476567Y-53948486D01*
X110476570Y-53948492D01*
X110576399Y-54162578D01*
X110711894Y-54356082D01*
X110833946Y-54478134D01*
X110867431Y-54539457D01*
X110862447Y-54609149D01*
X110820575Y-54665082D01*
X110789598Y-54681997D01*
X110657671Y-54731202D01*
X110657664Y-54731206D01*
X110542455Y-54817452D01*
X110542452Y-54817455D01*
X110456206Y-54932664D01*
X110456202Y-54932671D01*
X110405908Y-55067517D01*
X110401828Y-55105472D01*
X110399501Y-55127123D01*
X110399500Y-55127135D01*
X22848258Y-55127135D01*
X22835253Y-54887271D01*
X22776482Y-54528785D01*
X22776480Y-54528777D01*
X22679304Y-54178779D01*
X22679302Y-54178772D01*
X22544847Y-53841315D01*
X22544838Y-53841297D01*
X22374683Y-53520352D01*
X22374681Y-53520348D01*
X22170829Y-53219690D01*
X22170822Y-53219680D01*
X22039029Y-53064523D01*
X22039028Y-53064523D01*
X20794251Y-54309300D01*
X20720412Y-54207670D01*
X20542330Y-54029588D01*
X20440698Y-53955748D01*
X21688110Y-52708336D01*
X21688110Y-52708334D01*
X21671929Y-52693007D01*
X21671928Y-52693006D01*
X21382733Y-52473167D01*
X21382717Y-52473156D01*
X21071477Y-52285890D01*
X21071464Y-52285883D01*
X20741794Y-52133360D01*
X20741789Y-52133359D01*
X20397538Y-52017367D01*
X20042764Y-51939275D01*
X19681633Y-51900000D01*
X19318366Y-51900000D01*
X18957235Y-51939275D01*
X18602461Y-52017367D01*
X18258210Y-52133359D01*
X18258205Y-52133360D01*
X17928535Y-52285883D01*
X17928522Y-52285890D01*
X17617282Y-52473156D01*
X17617266Y-52473167D01*
X17328075Y-52693002D01*
X17311888Y-52708335D01*
X17311887Y-52708335D01*
X18559301Y-53955748D01*
X18457670Y-54029588D01*
X18279588Y-54207670D01*
X18205748Y-54309300D01*
X16960970Y-53064522D01*
X16960969Y-53064523D01*
X16829177Y-53219680D01*
X16829170Y-53219690D01*
X16625318Y-53520348D01*
X16625316Y-53520352D01*
X16455161Y-53841297D01*
X16455152Y-53841315D01*
X16320697Y-54178772D01*
X16320695Y-54178779D01*
X16223519Y-54528777D01*
X16223517Y-54528785D01*
X16164746Y-54887271D01*
X16145080Y-55249997D01*
X15200500Y-55249997D01*
X15200500Y-51647844D01*
X39010000Y-51647844D01*
X39016401Y-51707372D01*
X39016403Y-51707379D01*
X39066645Y-51842086D01*
X39066649Y-51842093D01*
X39152809Y-51957187D01*
X39152812Y-51957190D01*
X39267906Y-52043350D01*
X39267913Y-52043354D01*
X39402620Y-52093596D01*
X39402627Y-52093598D01*
X39462155Y-52099999D01*
X39462172Y-52100000D01*
X41380000Y-52100000D01*
X41880000Y-52100000D01*
X43797828Y-52100000D01*
X43797844Y-52099999D01*
X43857372Y-52093598D01*
X43857379Y-52093596D01*
X43992086Y-52043354D01*
X43992093Y-52043350D01*
X44107187Y-51957190D01*
X44107190Y-51957187D01*
X44193350Y-51842093D01*
X44193354Y-51842086D01*
X44243596Y-51707379D01*
X44243598Y-51707372D01*
X44249999Y-51647844D01*
X44250000Y-51647827D01*
X44250000Y-49250000D01*
X41880000Y-49250000D01*
X41880000Y-52100000D01*
X41380000Y-52100000D01*
X41380000Y-49250000D01*
X39010000Y-49250000D01*
X39010000Y-51647844D01*
X15200500Y-51647844D01*
X15200500Y-50697844D01*
X23000000Y-50697844D01*
X23006401Y-50757372D01*
X23006403Y-50757379D01*
X23056645Y-50892086D01*
X23056649Y-50892093D01*
X23142809Y-51007187D01*
X23142812Y-51007190D01*
X23257906Y-51093350D01*
X23257913Y-51093354D01*
X23392620Y-51143596D01*
X23392627Y-51143598D01*
X23452155Y-51149999D01*
X23452172Y-51150000D01*
X25370000Y-51150000D01*
X25870000Y-51150000D01*
X27787828Y-51150000D01*
X27787844Y-51149999D01*
X27847372Y-51143598D01*
X27847379Y-51143596D01*
X27982086Y-51093354D01*
X27982093Y-51093350D01*
X28097187Y-51007190D01*
X28097190Y-51007187D01*
X28183350Y-50892093D01*
X28183354Y-50892086D01*
X28233596Y-50757379D01*
X28233598Y-50757372D01*
X28239999Y-50697844D01*
X28240000Y-50697827D01*
X28240000Y-49250000D01*
X25870000Y-49250000D01*
X25870000Y-51150000D01*
X25370000Y-51150000D01*
X25370000Y-49250000D01*
X23000000Y-49250000D01*
X23000000Y-50697844D01*
X15200500Y-50697844D01*
X15200500Y-47302155D01*
X23000000Y-47302155D01*
X23000000Y-48750000D01*
X25370000Y-48750000D01*
X25870000Y-48750000D01*
X28240000Y-48750000D01*
X28240000Y-47302172D01*
X28239999Y-47302155D01*
X28233598Y-47242627D01*
X28233596Y-47242620D01*
X28183354Y-47107913D01*
X28183350Y-47107906D01*
X28097190Y-46992812D01*
X28097187Y-46992809D01*
X27982093Y-46906649D01*
X27982086Y-46906645D01*
X27847379Y-46856403D01*
X27847372Y-46856401D01*
X27787844Y-46850000D01*
X25870000Y-46850000D01*
X25870000Y-48750000D01*
X25370000Y-48750000D01*
X25370000Y-46850000D01*
X23452155Y-46850000D01*
X23392627Y-46856401D01*
X23392620Y-46856403D01*
X23257913Y-46906645D01*
X23257906Y-46906649D01*
X23142812Y-46992809D01*
X23142809Y-46992812D01*
X23056649Y-47107906D01*
X23056645Y-47107913D01*
X23006403Y-47242620D01*
X23006401Y-47242627D01*
X23000000Y-47302155D01*
X15200500Y-47302155D01*
X15200500Y-46352155D01*
X39010000Y-46352155D01*
X39010000Y-48750000D01*
X41380000Y-48750000D01*
X41880000Y-48750000D01*
X44250000Y-48750000D01*
X44250000Y-46352172D01*
X44249999Y-46352155D01*
X44243598Y-46292627D01*
X44243596Y-46292620D01*
X44193354Y-46157913D01*
X44193350Y-46157906D01*
X44107190Y-46042812D01*
X44107187Y-46042809D01*
X43992093Y-45956649D01*
X43992086Y-45956645D01*
X43857379Y-45906403D01*
X43857372Y-45906401D01*
X43797844Y-45900000D01*
X41880000Y-45900000D01*
X41880000Y-48750000D01*
X41380000Y-48750000D01*
X41380000Y-45900000D01*
X39462155Y-45900000D01*
X39402627Y-45906401D01*
X39402620Y-45906403D01*
X39267913Y-45956645D01*
X39267906Y-45956649D01*
X39152812Y-46042809D01*
X39152809Y-46042812D01*
X39066649Y-46157906D01*
X39066645Y-46157913D01*
X39016403Y-46292620D01*
X39016401Y-46292627D01*
X39010000Y-46352155D01*
X15200500Y-46352155D01*
X15200500Y-28647844D01*
X39010000Y-28647844D01*
X39016401Y-28707372D01*
X39016403Y-28707379D01*
X39066645Y-28842086D01*
X39066649Y-28842093D01*
X39152809Y-28957187D01*
X39152812Y-28957190D01*
X39267906Y-29043350D01*
X39267913Y-29043354D01*
X39402620Y-29093596D01*
X39402627Y-29093598D01*
X39462155Y-29099999D01*
X39462172Y-29100000D01*
X41380000Y-29100000D01*
X41880000Y-29100000D01*
X43797828Y-29100000D01*
X43797844Y-29099999D01*
X43857372Y-29093598D01*
X43857379Y-29093596D01*
X43992086Y-29043354D01*
X43992093Y-29043350D01*
X44107187Y-28957190D01*
X44107190Y-28957187D01*
X44193350Y-28842093D01*
X44193354Y-28842086D01*
X44243596Y-28707379D01*
X44243598Y-28707372D01*
X44249999Y-28647844D01*
X44250000Y-28647827D01*
X44250000Y-26250000D01*
X41880000Y-26250000D01*
X41880000Y-29100000D01*
X41380000Y-29100000D01*
X41380000Y-26250000D01*
X39010000Y-26250000D01*
X39010000Y-28647844D01*
X15200500Y-28647844D01*
X15200500Y-27697844D01*
X23000000Y-27697844D01*
X23006401Y-27757372D01*
X23006403Y-27757379D01*
X23056645Y-27892086D01*
X23056649Y-27892093D01*
X23142809Y-28007187D01*
X23142812Y-28007190D01*
X23257906Y-28093350D01*
X23257913Y-28093354D01*
X23392620Y-28143596D01*
X23392627Y-28143598D01*
X23452155Y-28149999D01*
X23452172Y-28150000D01*
X25370000Y-28150000D01*
X25870000Y-28150000D01*
X27787828Y-28150000D01*
X27787844Y-28149999D01*
X27847372Y-28143598D01*
X27847379Y-28143596D01*
X27982086Y-28093354D01*
X27982093Y-28093350D01*
X28097187Y-28007190D01*
X28097190Y-28007187D01*
X28183350Y-27892093D01*
X28183354Y-27892086D01*
X28233596Y-27757379D01*
X28233598Y-27757372D01*
X28239999Y-27697844D01*
X28240000Y-27697827D01*
X28240000Y-26250000D01*
X25870000Y-26250000D01*
X25870000Y-28150000D01*
X25370000Y-28150000D01*
X25370000Y-26250000D01*
X23000000Y-26250000D01*
X23000000Y-27697844D01*
X15200500Y-27697844D01*
X15200500Y-24302155D01*
X23000000Y-24302155D01*
X23000000Y-25750000D01*
X25370000Y-25750000D01*
X25870000Y-25750000D01*
X28240000Y-25750000D01*
X28240000Y-24302172D01*
X28239999Y-24302155D01*
X28233598Y-24242627D01*
X28233596Y-24242620D01*
X28183354Y-24107913D01*
X28183350Y-24107906D01*
X28097190Y-23992812D01*
X28097187Y-23992809D01*
X27982093Y-23906649D01*
X27982086Y-23906645D01*
X27847379Y-23856403D01*
X27847372Y-23856401D01*
X27787844Y-23850000D01*
X25870000Y-23850000D01*
X25870000Y-25750000D01*
X25370000Y-25750000D01*
X25370000Y-23850000D01*
X23452155Y-23850000D01*
X23392627Y-23856401D01*
X23392620Y-23856403D01*
X23257913Y-23906645D01*
X23257906Y-23906649D01*
X23142812Y-23992809D01*
X23142809Y-23992812D01*
X23056649Y-24107906D01*
X23056645Y-24107913D01*
X23006403Y-24242620D01*
X23006401Y-24242627D01*
X23000000Y-24302155D01*
X15200500Y-24302155D01*
X15200500Y-23352155D01*
X39010000Y-23352155D01*
X39010000Y-25750000D01*
X41380000Y-25750000D01*
X41880000Y-25750000D01*
X44250000Y-25750000D01*
X44250000Y-23352172D01*
X44249999Y-23352155D01*
X44243598Y-23292627D01*
X44243596Y-23292620D01*
X44193354Y-23157913D01*
X44193350Y-23157906D01*
X44107190Y-23042812D01*
X44107187Y-23042809D01*
X43992093Y-22956649D01*
X43992086Y-22956645D01*
X43857379Y-22906403D01*
X43857372Y-22906401D01*
X43797844Y-22900000D01*
X41880000Y-22900000D01*
X41880000Y-25750000D01*
X41380000Y-25750000D01*
X41380000Y-22900000D01*
X39462155Y-22900000D01*
X39402627Y-22906401D01*
X39402620Y-22906403D01*
X39267913Y-22956645D01*
X39267906Y-22956649D01*
X39152812Y-23042809D01*
X39152809Y-23042812D01*
X39066649Y-23157906D01*
X39066645Y-23157913D01*
X39016403Y-23292620D01*
X39016401Y-23292627D01*
X39010000Y-23352155D01*
X15200500Y-23352155D01*
X15200500Y-19749997D01*
X16145080Y-19749997D01*
X16145080Y-19750002D01*
X16164746Y-20112728D01*
X16223517Y-20471214D01*
X16223519Y-20471222D01*
X16320695Y-20821220D01*
X16320697Y-20821227D01*
X16455152Y-21158684D01*
X16455161Y-21158702D01*
X16625316Y-21479647D01*
X16625318Y-21479651D01*
X16829170Y-21780309D01*
X16829177Y-21780319D01*
X16960969Y-21935475D01*
X16960970Y-21935475D01*
X18205748Y-20690698D01*
X18279588Y-20792330D01*
X18457670Y-20970412D01*
X18559300Y-21044251D01*
X17311888Y-22291662D01*
X17311888Y-22291664D01*
X17328070Y-22306992D01*
X17328071Y-22306993D01*
X17617266Y-22526832D01*
X17617282Y-22526843D01*
X17928522Y-22714109D01*
X17928535Y-22714116D01*
X18258205Y-22866639D01*
X18258210Y-22866640D01*
X18602461Y-22982632D01*
X18957235Y-23060724D01*
X19318366Y-23099999D01*
X19318374Y-23100000D01*
X19681626Y-23100000D01*
X19681633Y-23099999D01*
X20042764Y-23060724D01*
X20397538Y-22982632D01*
X20741789Y-22866640D01*
X20741794Y-22866639D01*
X21071464Y-22714116D01*
X21071477Y-22714109D01*
X21382717Y-22526843D01*
X21382733Y-22526832D01*
X21671929Y-22306992D01*
X21688110Y-22291664D01*
X21688110Y-22291663D01*
X20440698Y-21044251D01*
X20542330Y-20970412D01*
X20720412Y-20792330D01*
X20794251Y-20690698D01*
X22039028Y-21935475D01*
X22039029Y-21935475D01*
X22170827Y-21780311D01*
X22170838Y-21780297D01*
X22374681Y-21479651D01*
X22374683Y-21479647D01*
X22544838Y-21158702D01*
X22544847Y-21158684D01*
X22679302Y-20821227D01*
X22679304Y-20821220D01*
X22776480Y-20471222D01*
X22776482Y-20471214D01*
X22835253Y-20112728D01*
X22854920Y-19750002D01*
X22854920Y-19749997D01*
X22838770Y-19452135D01*
X108399500Y-19452135D01*
X108399500Y-22047870D01*
X108399501Y-22047876D01*
X108405908Y-22107483D01*
X108456202Y-22242328D01*
X108456206Y-22242335D01*
X108542452Y-22357544D01*
X108542455Y-22357547D01*
X108657664Y-22443793D01*
X108657671Y-22443797D01*
X108792517Y-22494091D01*
X108792516Y-22494091D01*
X108799444Y-22494835D01*
X108852127Y-22500500D01*
X110147872Y-22500499D01*
X110207483Y-22494091D01*
X110342331Y-22443796D01*
X110457546Y-22357546D01*
X110543796Y-22242331D01*
X110594091Y-22107483D01*
X110600500Y-22047873D01*
X110600499Y-19452128D01*
X110595299Y-19403757D01*
X110594091Y-19392516D01*
X110543797Y-19257671D01*
X110543793Y-19257664D01*
X110457547Y-19142455D01*
X110457544Y-19142452D01*
X110342335Y-19056206D01*
X110342328Y-19056202D01*
X110207482Y-19005908D01*
X110207483Y-19005908D01*
X110147883Y-18999501D01*
X110147881Y-18999500D01*
X110147873Y-18999500D01*
X110147864Y-18999500D01*
X108852129Y-18999500D01*
X108852123Y-18999501D01*
X108792516Y-19005908D01*
X108657671Y-19056202D01*
X108657664Y-19056206D01*
X108542455Y-19142452D01*
X108542452Y-19142455D01*
X108456206Y-19257664D01*
X108456202Y-19257671D01*
X108405908Y-19392517D01*
X108405486Y-19396447D01*
X108399501Y-19452123D01*
X108399500Y-19452135D01*
X22838770Y-19452135D01*
X22835253Y-19387271D01*
X22776482Y-19028785D01*
X22776480Y-19028777D01*
X22679304Y-18678779D01*
X22679302Y-18678772D01*
X22544847Y-18341315D01*
X22544838Y-18341297D01*
X22400472Y-18068995D01*
X107899499Y-18068995D01*
X107926418Y-18204322D01*
X107926421Y-18204332D01*
X107979221Y-18331804D01*
X107979228Y-18331817D01*
X108055885Y-18446541D01*
X108055888Y-18446545D01*
X108153454Y-18544111D01*
X108153458Y-18544114D01*
X108268182Y-18620771D01*
X108268195Y-18620778D01*
X108395667Y-18673578D01*
X108395672Y-18673580D01*
X108395676Y-18673580D01*
X108395677Y-18673581D01*
X108531004Y-18700500D01*
X108531007Y-18700500D01*
X108668995Y-18700500D01*
X108778226Y-18678772D01*
X108804328Y-18673580D01*
X108931811Y-18620775D01*
X109046542Y-18544114D01*
X109144114Y-18446542D01*
X109220775Y-18331811D01*
X109273580Y-18204328D01*
X109295602Y-18093616D01*
X109300500Y-18068995D01*
X109300500Y-17931004D01*
X109273581Y-17795677D01*
X109273580Y-17795676D01*
X109273580Y-17795672D01*
X109259924Y-17762704D01*
X109220778Y-17668195D01*
X109220771Y-17668182D01*
X109144114Y-17553458D01*
X109144111Y-17553454D01*
X109046545Y-17455888D01*
X109046541Y-17455885D01*
X108931817Y-17379228D01*
X108931804Y-17379221D01*
X108804332Y-17326421D01*
X108804322Y-17326418D01*
X108668995Y-17299500D01*
X108668993Y-17299500D01*
X108531007Y-17299500D01*
X108531005Y-17299500D01*
X108395677Y-17326418D01*
X108395667Y-17326421D01*
X108268195Y-17379221D01*
X108268182Y-17379228D01*
X108153458Y-17455885D01*
X108153454Y-17455888D01*
X108055888Y-17553454D01*
X108055885Y-17553458D01*
X107979228Y-17668182D01*
X107979221Y-17668195D01*
X107926421Y-17795667D01*
X107926418Y-17795677D01*
X107899500Y-17931004D01*
X107899500Y-17931007D01*
X107899500Y-18068993D01*
X107899500Y-18068995D01*
X107899499Y-18068995D01*
X22400472Y-18068995D01*
X22374683Y-18020352D01*
X22374681Y-18020348D01*
X22170829Y-17719690D01*
X22170822Y-17719680D01*
X22039029Y-17564523D01*
X22039028Y-17564523D01*
X20794251Y-18809300D01*
X20720412Y-18707670D01*
X20542330Y-18529588D01*
X20440698Y-18455748D01*
X21688110Y-17208336D01*
X21688110Y-17208334D01*
X21671929Y-17193007D01*
X21671928Y-17193006D01*
X21382733Y-16973167D01*
X21382717Y-16973156D01*
X21071477Y-16785890D01*
X21071464Y-16785883D01*
X20741794Y-16633360D01*
X20741789Y-16633359D01*
X20397538Y-16517367D01*
X20042764Y-16439275D01*
X19681633Y-16400000D01*
X19318366Y-16400000D01*
X18957235Y-16439275D01*
X18602461Y-16517367D01*
X18258210Y-16633359D01*
X18258205Y-16633360D01*
X17928535Y-16785883D01*
X17928522Y-16785890D01*
X17617282Y-16973156D01*
X17617266Y-16973167D01*
X17328075Y-17193002D01*
X17311888Y-17208335D01*
X17311887Y-17208335D01*
X18559301Y-18455748D01*
X18457670Y-18529588D01*
X18279588Y-18707670D01*
X18205748Y-18809300D01*
X16960970Y-17564522D01*
X16960969Y-17564523D01*
X16829177Y-17719680D01*
X16829170Y-17719690D01*
X16625318Y-18020348D01*
X16625316Y-18020352D01*
X16455161Y-18341297D01*
X16455152Y-18341315D01*
X16320697Y-18678772D01*
X16320695Y-18678779D01*
X16223519Y-19028777D01*
X16223517Y-19028785D01*
X16164746Y-19387271D01*
X16145080Y-19749997D01*
X15200500Y-19749997D01*
X15200500Y-16006092D01*
X15201097Y-15993939D01*
X15206866Y-15935360D01*
X15214665Y-15856173D01*
X15219403Y-15832349D01*
X15257816Y-15705719D01*
X15267113Y-15683278D01*
X15329485Y-15566587D01*
X15342982Y-15546387D01*
X15426924Y-15444103D01*
X15444103Y-15426924D01*
X15546387Y-15342982D01*
X15566587Y-15329485D01*
X15683278Y-15267113D01*
X15705719Y-15257816D01*
X15832349Y-15219403D01*
X15856173Y-15214665D01*
X15985170Y-15201960D01*
X15993939Y-15201097D01*
X16006092Y-15200500D01*
X16039882Y-15200500D01*
X112335217Y-15200500D01*
X112402256Y-15220185D01*
G37*
%TD.AperFunction*%
%TA.AperFunction,Conductor*%
G36*
X153006061Y-15201097D02*
G01*
X153016051Y-15202080D01*
X153143824Y-15214665D01*
X153167652Y-15219404D01*
X153294277Y-15257815D01*
X153316725Y-15267114D01*
X153433406Y-15329482D01*
X153453616Y-15342986D01*
X153530038Y-15405703D01*
X153555891Y-15426920D01*
X153573079Y-15444108D01*
X153657012Y-15546381D01*
X153670517Y-15566593D01*
X153732883Y-15683271D01*
X153742186Y-15705728D01*
X153766100Y-15784563D01*
X153780593Y-15832338D01*
X153785335Y-15856180D01*
X153798903Y-15993938D01*
X153799500Y-16006092D01*
X153799500Y-31195217D01*
X153779815Y-31262256D01*
X153727011Y-31308011D01*
X153657853Y-31317955D01*
X153594297Y-31288930D01*
X153587819Y-31282898D01*
X150881890Y-28576969D01*
X150848405Y-28515646D01*
X150846043Y-28500095D01*
X150846035Y-28500000D01*
X150835063Y-28374592D01*
X150780942Y-28172606D01*
X150773905Y-28146344D01*
X150773904Y-28146343D01*
X150773903Y-28146337D01*
X150674035Y-27932171D01*
X150647165Y-27893797D01*
X150538496Y-27738600D01*
X150492224Y-27692328D01*
X150416179Y-27616283D01*
X150382696Y-27554963D01*
X150387680Y-27485271D01*
X150429551Y-27429337D01*
X150460529Y-27412422D01*
X150592086Y-27363354D01*
X150592093Y-27363350D01*
X150707187Y-27277190D01*
X150707190Y-27277187D01*
X150793350Y-27162093D01*
X150793354Y-27162086D01*
X150843596Y-27027379D01*
X150843598Y-27027372D01*
X150849999Y-26967844D01*
X150850000Y-26967827D01*
X150850000Y-26320000D01*
X149933012Y-26320000D01*
X149965925Y-26262993D01*
X150000000Y-26135826D01*
X150000000Y-26004174D01*
X149965925Y-25877007D01*
X149933012Y-25820000D01*
X150850000Y-25820000D01*
X150850000Y-25172172D01*
X150849999Y-25172155D01*
X150843598Y-25112627D01*
X150843596Y-25112620D01*
X150793354Y-24977913D01*
X150793350Y-24977906D01*
X150707190Y-24862812D01*
X150707187Y-24862809D01*
X150592093Y-24776649D01*
X150592086Y-24776645D01*
X150457379Y-24726403D01*
X150457372Y-24726401D01*
X150397844Y-24720000D01*
X149750000Y-24720000D01*
X149750000Y-25636988D01*
X149692993Y-25604075D01*
X149565826Y-25570000D01*
X149434174Y-25570000D01*
X149307007Y-25604075D01*
X149250000Y-25636988D01*
X149250000Y-24720000D01*
X148602155Y-24720000D01*
X148542627Y-24726401D01*
X148542620Y-24726403D01*
X148407913Y-24776645D01*
X148407906Y-24776649D01*
X148292812Y-24862809D01*
X148292809Y-24862812D01*
X148206649Y-24977906D01*
X148206645Y-24977913D01*
X148156403Y-25112620D01*
X148156401Y-25112627D01*
X148150000Y-25172155D01*
X148150000Y-25820000D01*
X149066988Y-25820000D01*
X149034075Y-25877007D01*
X149000000Y-26004174D01*
X149000000Y-26135826D01*
X149034075Y-26262993D01*
X149066988Y-26320000D01*
X148150000Y-26320000D01*
X148150000Y-26967844D01*
X148156401Y-27027372D01*
X148156403Y-27027379D01*
X148206645Y-27162086D01*
X148206649Y-27162093D01*
X148292809Y-27277187D01*
X148292812Y-27277190D01*
X148407906Y-27363350D01*
X148407913Y-27363354D01*
X148539470Y-27412421D01*
X148595403Y-27454292D01*
X148619821Y-27519756D01*
X148604970Y-27588029D01*
X148583819Y-27616284D01*
X148461503Y-27738600D01*
X148325965Y-27932169D01*
X148325964Y-27932171D01*
X148226098Y-28146335D01*
X148226094Y-28146344D01*
X148164938Y-28374586D01*
X148164936Y-28374596D01*
X148144341Y-28609999D01*
X148144341Y-28610000D01*
X148164936Y-28845403D01*
X148164938Y-28845413D01*
X148226094Y-29073655D01*
X148226096Y-29073659D01*
X148226097Y-29073663D01*
X148272412Y-29172985D01*
X148325965Y-29287830D01*
X148325967Y-29287834D01*
X148461501Y-29481395D01*
X148461506Y-29481402D01*
X148628597Y-29648493D01*
X148628603Y-29648498D01*
X148814158Y-29778425D01*
X148857783Y-29833002D01*
X148864977Y-29902500D01*
X148833454Y-29964855D01*
X148814158Y-29981575D01*
X148628597Y-30111505D01*
X148461505Y-30278597D01*
X148325965Y-30472169D01*
X148325964Y-30472171D01*
X148226098Y-30686335D01*
X148226094Y-30686344D01*
X148164938Y-30914586D01*
X148164936Y-30914596D01*
X148144341Y-31149999D01*
X148144341Y-31150000D01*
X148164936Y-31385403D01*
X148164938Y-31385413D01*
X148226094Y-31613655D01*
X148226096Y-31613659D01*
X148226097Y-31613663D01*
X148261121Y-31688771D01*
X148325965Y-31827830D01*
X148325967Y-31827834D01*
X148461501Y-32021395D01*
X148461506Y-32021402D01*
X148628597Y-32188493D01*
X148628603Y-32188498D01*
X148814158Y-32318425D01*
X148857783Y-32373002D01*
X148864977Y-32442500D01*
X148833454Y-32504855D01*
X148814158Y-32521575D01*
X148628597Y-32651505D01*
X148461505Y-32818597D01*
X148325965Y-33012169D01*
X148325964Y-33012171D01*
X148226098Y-33226335D01*
X148226094Y-33226344D01*
X148164938Y-33454586D01*
X148164936Y-33454596D01*
X148144341Y-33689999D01*
X148144341Y-33690000D01*
X148164936Y-33925403D01*
X148164938Y-33925413D01*
X148226094Y-34153655D01*
X148226096Y-34153659D01*
X148226097Y-34153663D01*
X148308915Y-34331267D01*
X148325965Y-34367830D01*
X148325967Y-34367834D01*
X148387212Y-34455300D01*
X148439532Y-34530021D01*
X148461501Y-34561395D01*
X148461506Y-34561402D01*
X148628597Y-34728493D01*
X148628603Y-34728498D01*
X148814158Y-34858425D01*
X148857783Y-34913002D01*
X148864977Y-34982500D01*
X148833454Y-35044855D01*
X148814158Y-35061575D01*
X148628597Y-35191505D01*
X148461505Y-35358597D01*
X148325965Y-35552169D01*
X148325964Y-35552171D01*
X148226098Y-35766335D01*
X148226094Y-35766344D01*
X148164938Y-35994586D01*
X148164936Y-35994596D01*
X148144341Y-36229999D01*
X148144341Y-36230000D01*
X148164936Y-36465403D01*
X148164938Y-36465413D01*
X148226094Y-36693655D01*
X148226096Y-36693659D01*
X148226097Y-36693663D01*
X148318740Y-36892335D01*
X148325965Y-36907830D01*
X148325967Y-36907834D01*
X148408192Y-37025262D01*
X148445161Y-37078060D01*
X148461501Y-37101395D01*
X148461506Y-37101402D01*
X148463181Y-37103077D01*
X148463682Y-37103995D01*
X148464982Y-37105544D01*
X148464670Y-37105805D01*
X148496666Y-37164400D01*
X148499500Y-37190758D01*
X148499500Y-37809241D01*
X148479815Y-37876280D01*
X148463181Y-37896922D01*
X148461505Y-37898597D01*
X148325965Y-38092169D01*
X148325964Y-38092171D01*
X148226098Y-38306335D01*
X148226094Y-38306344D01*
X148164938Y-38534586D01*
X148164936Y-38534596D01*
X148144341Y-38769999D01*
X148144341Y-38770000D01*
X148164936Y-39005403D01*
X148164938Y-39005413D01*
X148226094Y-39233655D01*
X148226096Y-39233659D01*
X148226097Y-39233663D01*
X148300187Y-39392549D01*
X148325965Y-39447830D01*
X148325967Y-39447834D01*
X148386841Y-39534770D01*
X148457047Y-39635035D01*
X148461501Y-39641395D01*
X148461506Y-39641402D01*
X148628597Y-39808493D01*
X148628603Y-39808498D01*
X148814158Y-39938425D01*
X148857783Y-39993002D01*
X148864977Y-40062500D01*
X148833454Y-40124855D01*
X148814158Y-40141575D01*
X148628597Y-40271505D01*
X148461505Y-40438597D01*
X148325965Y-40632169D01*
X148325964Y-40632171D01*
X148226098Y-40846335D01*
X148226094Y-40846344D01*
X148164938Y-41074586D01*
X148164936Y-41074596D01*
X148144341Y-41309999D01*
X148144341Y-41310000D01*
X148164936Y-41545403D01*
X148164938Y-41545413D01*
X148226094Y-41773655D01*
X148226096Y-41773659D01*
X148226097Y-41773663D01*
X148267929Y-41863371D01*
X148325965Y-41987830D01*
X148325967Y-41987834D01*
X148461501Y-42181395D01*
X148461506Y-42181402D01*
X148628597Y-42348493D01*
X148628603Y-42348498D01*
X148814158Y-42478425D01*
X148857783Y-42533002D01*
X148864977Y-42602500D01*
X148833454Y-42664855D01*
X148814158Y-42681575D01*
X148628597Y-42811505D01*
X148461505Y-42978597D01*
X148325965Y-43172169D01*
X148325964Y-43172171D01*
X148226098Y-43386335D01*
X148226094Y-43386344D01*
X148215151Y-43427187D01*
X148178786Y-43486848D01*
X148115939Y-43517377D01*
X148046564Y-43509082D01*
X148007695Y-43482775D01*
X146644209Y-42119289D01*
X146644206Y-42119285D01*
X146644206Y-42119286D01*
X146637139Y-42112219D01*
X146637139Y-42112218D01*
X146497782Y-41972861D01*
X146497781Y-41972860D01*
X146497780Y-41972859D01*
X146333920Y-41863371D01*
X146333911Y-41863366D01*
X146261315Y-41833296D01*
X146205165Y-41810038D01*
X146151836Y-41787949D01*
X146151832Y-41787948D01*
X146151828Y-41787946D01*
X146055188Y-41768724D01*
X145958544Y-41749500D01*
X145958541Y-41749500D01*
X121715782Y-41749500D01*
X121648743Y-41729815D01*
X121628101Y-41713181D01*
X119885042Y-39970122D01*
X119851557Y-39908799D01*
X119856541Y-39839107D01*
X119898413Y-39783174D01*
X119963877Y-39758757D01*
X120013678Y-39765400D01*
X120070737Y-39785366D01*
X120070743Y-39785367D01*
X120070745Y-39785368D01*
X120070746Y-39785368D01*
X120070750Y-39785369D01*
X120249996Y-39805565D01*
X120250000Y-39805565D01*
X120250004Y-39805565D01*
X120429249Y-39785369D01*
X120429252Y-39785368D01*
X120429255Y-39785368D01*
X120599522Y-39725789D01*
X120752262Y-39629816D01*
X120787319Y-39594759D01*
X120848642Y-39561274D01*
X120918334Y-39566258D01*
X120962681Y-39594759D01*
X120997738Y-39629816D01*
X121150478Y-39725789D01*
X121263680Y-39765400D01*
X121320745Y-39785368D01*
X121320750Y-39785369D01*
X121499996Y-39805565D01*
X121500000Y-39805565D01*
X121500004Y-39805565D01*
X121679249Y-39785369D01*
X121679252Y-39785368D01*
X121679255Y-39785368D01*
X121849522Y-39725789D01*
X122002262Y-39629816D01*
X122129816Y-39502262D01*
X122225789Y-39349522D01*
X122285368Y-39179255D01*
X122290672Y-39132173D01*
X122317737Y-39067763D01*
X122326201Y-39058387D01*
X123510170Y-37874420D01*
X123571493Y-37840935D01*
X123597851Y-37838101D01*
X124204965Y-37838101D01*
X124248298Y-37845919D01*
X124283617Y-37859092D01*
X124343227Y-37865501D01*
X124932949Y-37865500D01*
X124999988Y-37885184D01*
X125007260Y-37890233D01*
X125038010Y-37913252D01*
X125038013Y-37913254D01*
X125172720Y-37963496D01*
X125172727Y-37963498D01*
X125232255Y-37969899D01*
X125232272Y-37969900D01*
X125500000Y-37969900D01*
X125500000Y-37617091D01*
X125507818Y-37573758D01*
X125545591Y-37472484D01*
X125552000Y-37412874D01*
X125551999Y-37012329D01*
X125551998Y-37012327D01*
X125551998Y-37012313D01*
X125548078Y-36975854D01*
X125548078Y-36974738D01*
X125623000Y-36974738D01*
X125623000Y-37025262D01*
X125642335Y-37071940D01*
X125678060Y-37107665D01*
X125724738Y-37127000D01*
X125775262Y-37127000D01*
X125821940Y-37107665D01*
X125857665Y-37071940D01*
X125877000Y-37025262D01*
X125877000Y-36974738D01*
X125857665Y-36928060D01*
X125821940Y-36892335D01*
X125775262Y-36873000D01*
X125724738Y-36873000D01*
X125678060Y-36892335D01*
X125642335Y-36928060D01*
X125623000Y-36974738D01*
X125548078Y-36974738D01*
X125548078Y-36949346D01*
X125552000Y-36912872D01*
X125551999Y-36512327D01*
X125545591Y-36452716D01*
X125544333Y-36449344D01*
X125495297Y-36317870D01*
X125495295Y-36317867D01*
X125472591Y-36287539D01*
X125472121Y-36286911D01*
X125447704Y-36221448D01*
X125455124Y-36187338D01*
X125623000Y-36187338D01*
X125623000Y-36237862D01*
X125642335Y-36284540D01*
X125678060Y-36320265D01*
X125724738Y-36339600D01*
X125775262Y-36339600D01*
X125821940Y-36320265D01*
X125857665Y-36284540D01*
X125877000Y-36237862D01*
X125877000Y-36187338D01*
X125857665Y-36140660D01*
X125821940Y-36104935D01*
X125775262Y-36085600D01*
X125724738Y-36085600D01*
X125678060Y-36104935D01*
X125642335Y-36140660D01*
X125623000Y-36187338D01*
X125455124Y-36187338D01*
X125462555Y-36153175D01*
X125472122Y-36138288D01*
X125474057Y-36135703D01*
X125495296Y-36107332D01*
X125545591Y-35972484D01*
X125552000Y-35912874D01*
X125551999Y-35512329D01*
X125551998Y-35512327D01*
X125551998Y-35512313D01*
X125548078Y-35475854D01*
X125548078Y-35449346D01*
X125552000Y-35412872D01*
X125552000Y-35399938D01*
X125623000Y-35399938D01*
X125623000Y-35450462D01*
X125642335Y-35497140D01*
X125678060Y-35532865D01*
X125724738Y-35552200D01*
X125775262Y-35552200D01*
X125821940Y-35532865D01*
X125857665Y-35497140D01*
X125877000Y-35450462D01*
X125877000Y-35399938D01*
X125857665Y-35353260D01*
X125821940Y-35317535D01*
X125775262Y-35298200D01*
X125724738Y-35298200D01*
X125678060Y-35317535D01*
X125642335Y-35353260D01*
X125623000Y-35399938D01*
X125552000Y-35399938D01*
X125551999Y-35012327D01*
X125551999Y-35012326D01*
X125948000Y-35012326D01*
X125948000Y-35012333D01*
X125948000Y-35012334D01*
X125948000Y-35412868D01*
X125948001Y-35412879D01*
X125951921Y-35449346D01*
X125951921Y-35475850D01*
X125948000Y-35512323D01*
X125948000Y-35912870D01*
X125948001Y-35912879D01*
X125951921Y-35949345D01*
X125951921Y-35975850D01*
X125948000Y-36012322D01*
X125948000Y-36412869D01*
X125948001Y-36412878D01*
X125951921Y-36449344D01*
X125951921Y-36475849D01*
X125948000Y-36512321D01*
X125948000Y-36912868D01*
X125948001Y-36912879D01*
X125951921Y-36949346D01*
X125951921Y-36975850D01*
X125948000Y-37012323D01*
X125948000Y-37412871D01*
X125948001Y-37412877D01*
X125954408Y-37472484D01*
X125983933Y-37551642D01*
X125992181Y-37573757D01*
X125992182Y-37573758D01*
X126000000Y-37617091D01*
X126000000Y-37969900D01*
X126267728Y-37969900D01*
X126267744Y-37969899D01*
X126327272Y-37963498D01*
X126327276Y-37963497D01*
X126461988Y-37913252D01*
X126466393Y-37910847D01*
X126534665Y-37895993D01*
X126600130Y-37920407D01*
X126613505Y-37931996D01*
X127727115Y-39045606D01*
X127727144Y-39045637D01*
X127817362Y-39135855D01*
X127817366Y-39135858D01*
X127919806Y-39204307D01*
X127919812Y-39204310D01*
X127919813Y-39204311D01*
X128033647Y-39251463D01*
X128094070Y-39263481D01*
X128154492Y-39275500D01*
X128154493Y-39275500D01*
X128904906Y-39275500D01*
X128971945Y-39295185D01*
X128998618Y-39318296D01*
X129037209Y-39362832D01*
X129071505Y-39392549D01*
X129145864Y-39456981D01*
X129145867Y-39456984D01*
X129145869Y-39456985D01*
X129145870Y-39456986D01*
X129266906Y-39534770D01*
X129266914Y-39534774D01*
X129266923Y-39534779D01*
X129391642Y-39591736D01*
X129395941Y-39593985D01*
X129397692Y-39594499D01*
X129535744Y-39635035D01*
X129535745Y-39635035D01*
X129535748Y-39635036D01*
X129578183Y-39641136D01*
X129678059Y-39655497D01*
X129734399Y-39655497D01*
X129734409Y-39655500D01*
X129785764Y-39655500D01*
X130265573Y-39655500D01*
X130265601Y-39655497D01*
X130321940Y-39655497D01*
X130321941Y-39655497D01*
X130455479Y-39636297D01*
X130455481Y-39636297D01*
X130461612Y-39635415D01*
X130464256Y-39635035D01*
X130464257Y-39635035D01*
X130602309Y-39594498D01*
X130733094Y-39534770D01*
X130854130Y-39456986D01*
X130962791Y-39362832D01*
X130962794Y-39362829D01*
X131057015Y-39254091D01*
X131125059Y-39148210D01*
X131134744Y-39133142D01*
X131134744Y-39133140D01*
X131134747Y-39133137D01*
X131194517Y-39002259D01*
X131235024Y-38864304D01*
X131255500Y-38721889D01*
X131255500Y-38605723D01*
X131275185Y-38538684D01*
X131291815Y-38518045D01*
X131378729Y-38431131D01*
X131378733Y-38431129D01*
X131465858Y-38344004D01*
X131534311Y-38241557D01*
X131581463Y-38127723D01*
X131588535Y-38092169D01*
X131597215Y-38048535D01*
X131605012Y-38009332D01*
X131605500Y-38006878D01*
X131605500Y-37883665D01*
X131605500Y-34668394D01*
X131605500Y-34668389D01*
X131602283Y-34652220D01*
X131602281Y-34652213D01*
X131583881Y-34559703D01*
X131581463Y-34547549D01*
X131581463Y-34547548D01*
X131543252Y-34455300D01*
X131534312Y-34433716D01*
X131534307Y-34433707D01*
X131465858Y-34331267D01*
X131465855Y-34331263D01*
X131375637Y-34241045D01*
X131375606Y-34241016D01*
X130826211Y-33691621D01*
X130792726Y-33630298D01*
X130790673Y-33617838D01*
X130785368Y-33570745D01*
X130725789Y-33400478D01*
X130724048Y-33397708D01*
X130661621Y-33298355D01*
X130629816Y-33247738D01*
X130502262Y-33120184D01*
X130481320Y-33107025D01*
X130349523Y-33024211D01*
X130179254Y-32964631D01*
X130179249Y-32964630D01*
X130000004Y-32944435D01*
X129999996Y-32944435D01*
X129820750Y-32964630D01*
X129820745Y-32964631D01*
X129650476Y-33024211D01*
X129497737Y-33120184D01*
X129370184Y-33247737D01*
X129274211Y-33400476D01*
X129214631Y-33570745D01*
X129214630Y-33570750D01*
X129194435Y-33749996D01*
X129194435Y-33750003D01*
X129214630Y-33929249D01*
X129214632Y-33929257D01*
X129229655Y-33972190D01*
X129233216Y-34041969D01*
X129198487Y-34102596D01*
X129136805Y-34134761D01*
X129116972Y-34138706D01*
X129101237Y-34141836D01*
X129067548Y-34148537D01*
X129067543Y-34148538D01*
X128969392Y-34189194D01*
X128899923Y-34196663D01*
X128837444Y-34165388D01*
X128801792Y-34105299D01*
X128798720Y-34060748D01*
X128805565Y-34000001D01*
X128805565Y-33999996D01*
X128785369Y-33820750D01*
X128785368Y-33820745D01*
X128725789Y-33650478D01*
X128629816Y-33497738D01*
X128502262Y-33370184D01*
X128481016Y-33356834D01*
X128349523Y-33274211D01*
X128179254Y-33214631D01*
X128179249Y-33214630D01*
X128000004Y-33194435D01*
X127999996Y-33194435D01*
X127820750Y-33214630D01*
X127820745Y-33214631D01*
X127650476Y-33274211D01*
X127497739Y-33370183D01*
X127432251Y-33435671D01*
X127370927Y-33469155D01*
X127301236Y-33464170D01*
X127245302Y-33422299D01*
X127220886Y-33356834D01*
X127221212Y-33335384D01*
X127224999Y-33298317D01*
X127225000Y-33298309D01*
X127225000Y-33250000D01*
X126525000Y-33250000D01*
X126525000Y-33974999D01*
X126548308Y-33974999D01*
X126548322Y-33974998D01*
X126647607Y-33964855D01*
X126808481Y-33911547D01*
X126808488Y-33911544D01*
X126937350Y-33832060D01*
X127004742Y-33813619D01*
X127071406Y-33834541D01*
X127116176Y-33888183D01*
X127124838Y-33957513D01*
X127094642Y-34020521D01*
X127090129Y-34025279D01*
X126618872Y-34496536D01*
X126557549Y-34530021D01*
X126487857Y-34525037D01*
X126470211Y-34515403D01*
X126469777Y-34516199D01*
X126461995Y-34511950D01*
X126327276Y-34461702D01*
X126327272Y-34461701D01*
X126267744Y-34455300D01*
X126000000Y-34455300D01*
X126000000Y-34808108D01*
X125992181Y-34851441D01*
X125954409Y-34952716D01*
X125948000Y-35012326D01*
X125551999Y-35012326D01*
X125545591Y-34952716D01*
X125507818Y-34851441D01*
X125500000Y-34808108D01*
X125500000Y-34455300D01*
X125470800Y-34455300D01*
X125403761Y-34435615D01*
X125358006Y-34382811D01*
X125346800Y-34331300D01*
X125346800Y-33926865D01*
X125366485Y-33859826D01*
X125398299Y-33828600D01*
X125397384Y-33827443D01*
X125403044Y-33822968D01*
X125405267Y-33820745D01*
X125412668Y-33813343D01*
X125473987Y-33779856D01*
X125543679Y-33784835D01*
X125588034Y-33813339D01*
X125597267Y-33822572D01*
X125597271Y-33822575D01*
X125741507Y-33911542D01*
X125741518Y-33911547D01*
X125902393Y-33964855D01*
X126001683Y-33974999D01*
X126025000Y-33974998D01*
X126025000Y-32750000D01*
X126525000Y-32750000D01*
X127224999Y-32750000D01*
X127224999Y-32701692D01*
X127224998Y-32701677D01*
X127214855Y-32602392D01*
X127161547Y-32441518D01*
X127161542Y-32441507D01*
X127072575Y-32297271D01*
X127072572Y-32297267D01*
X126952732Y-32177427D01*
X126952728Y-32177424D01*
X126808492Y-32088457D01*
X126808481Y-32088452D01*
X126647606Y-32035144D01*
X126548322Y-32025000D01*
X126525000Y-32025000D01*
X126525000Y-32750000D01*
X126025000Y-32750000D01*
X126025000Y-32024999D01*
X126012509Y-32025000D01*
X125945469Y-32005318D01*
X125899712Y-31952515D01*
X125889767Y-31883357D01*
X125918790Y-31819800D01*
X125924810Y-31813333D01*
X126326325Y-31411819D01*
X126387648Y-31378334D01*
X126414006Y-31375500D01*
X140286231Y-31375500D01*
X140286232Y-31375499D01*
X140455374Y-31341855D01*
X140614705Y-31275858D01*
X140758099Y-31180045D01*
X143162819Y-28775325D01*
X143224142Y-28741840D01*
X143293834Y-28746824D01*
X143349767Y-28788696D01*
X143374184Y-28854160D01*
X143374500Y-28863006D01*
X143374500Y-33055662D01*
X143354815Y-33122701D01*
X143338181Y-33143343D01*
X143288402Y-33193121D01*
X143162900Y-33372357D01*
X143162898Y-33372361D01*
X143070426Y-33570668D01*
X143070422Y-33570677D01*
X143013793Y-33782020D01*
X143013793Y-33782024D01*
X142994723Y-33999997D01*
X142994723Y-34000002D01*
X142998395Y-34041969D01*
X143008166Y-34153664D01*
X143013793Y-34217975D01*
X143013793Y-34217979D01*
X143070422Y-34429322D01*
X143070424Y-34429326D01*
X143070425Y-34429330D01*
X143110933Y-34516199D01*
X143162897Y-34627638D01*
X143162898Y-34627639D01*
X143288402Y-34806877D01*
X143443123Y-34961598D01*
X143622361Y-35087102D01*
X143820670Y-35179575D01*
X144032023Y-35236207D01*
X144214926Y-35252208D01*
X144249998Y-35255277D01*
X144250000Y-35255277D01*
X144250002Y-35255277D01*
X144278254Y-35252805D01*
X144467977Y-35236207D01*
X144679330Y-35179575D01*
X144877639Y-35087102D01*
X145056877Y-34961598D01*
X145211598Y-34806877D01*
X145337102Y-34627639D01*
X145429575Y-34429330D01*
X145486207Y-34217977D01*
X145505277Y-34000000D01*
X145486207Y-33782023D01*
X145442209Y-33617821D01*
X145429577Y-33570677D01*
X145429576Y-33570676D01*
X145429575Y-33570670D01*
X145337102Y-33372362D01*
X145337100Y-33372359D01*
X145337099Y-33372357D01*
X145211597Y-33193121D01*
X145161819Y-33143343D01*
X145128334Y-33082020D01*
X145125500Y-33055662D01*
X145125500Y-28074499D01*
X145145185Y-28007460D01*
X145197989Y-27961705D01*
X145249500Y-27950499D01*
X145297871Y-27950499D01*
X145297872Y-27950499D01*
X145357483Y-27944091D01*
X145492331Y-27893796D01*
X145607546Y-27807546D01*
X145693796Y-27692331D01*
X145744091Y-27557483D01*
X145750500Y-27497873D01*
X145750500Y-26523344D01*
X145750500Y-20131908D01*
X145750500Y-20124313D01*
X145750499Y-20124295D01*
X145750499Y-19749997D01*
X146145080Y-19749997D01*
X146145080Y-19750002D01*
X146164746Y-20112728D01*
X146223517Y-20471214D01*
X146223519Y-20471222D01*
X146320695Y-20821220D01*
X146320697Y-20821227D01*
X146455152Y-21158684D01*
X146455161Y-21158702D01*
X146625316Y-21479647D01*
X146625318Y-21479651D01*
X146829170Y-21780309D01*
X146829177Y-21780319D01*
X146960969Y-21935475D01*
X146960970Y-21935475D01*
X148205748Y-20690698D01*
X148279588Y-20792330D01*
X148457670Y-20970412D01*
X148559300Y-21044251D01*
X147311888Y-22291662D01*
X147311888Y-22291664D01*
X147328070Y-22306992D01*
X147328071Y-22306993D01*
X147617266Y-22526832D01*
X147617282Y-22526843D01*
X147928522Y-22714109D01*
X147928535Y-22714116D01*
X148258205Y-22866639D01*
X148258210Y-22866640D01*
X148602461Y-22982632D01*
X148957235Y-23060724D01*
X149318366Y-23099999D01*
X149318374Y-23100000D01*
X149681626Y-23100000D01*
X149681633Y-23099999D01*
X150042764Y-23060724D01*
X150397538Y-22982632D01*
X150741789Y-22866640D01*
X150741794Y-22866639D01*
X151071464Y-22714116D01*
X151071477Y-22714109D01*
X151382717Y-22526843D01*
X151382733Y-22526832D01*
X151671929Y-22306992D01*
X151688110Y-22291664D01*
X151688110Y-22291663D01*
X150440698Y-21044251D01*
X150542330Y-20970412D01*
X150720412Y-20792330D01*
X150794251Y-20690698D01*
X152039028Y-21935475D01*
X152039029Y-21935475D01*
X152170827Y-21780311D01*
X152170838Y-21780297D01*
X152374681Y-21479651D01*
X152374683Y-21479647D01*
X152544838Y-21158702D01*
X152544847Y-21158684D01*
X152679302Y-20821227D01*
X152679304Y-20821220D01*
X152776480Y-20471222D01*
X152776482Y-20471214D01*
X152835253Y-20112728D01*
X152854920Y-19750002D01*
X152854920Y-19749997D01*
X152835253Y-19387271D01*
X152776482Y-19028785D01*
X152776480Y-19028777D01*
X152679304Y-18678779D01*
X152679302Y-18678772D01*
X152544847Y-18341315D01*
X152544838Y-18341297D01*
X152374683Y-18020352D01*
X152374681Y-18020348D01*
X152170829Y-17719690D01*
X152170822Y-17719680D01*
X152039029Y-17564523D01*
X152039028Y-17564523D01*
X150794251Y-18809300D01*
X150720412Y-18707670D01*
X150542330Y-18529588D01*
X150440698Y-18455748D01*
X151688110Y-17208336D01*
X151688110Y-17208334D01*
X151671929Y-17193007D01*
X151671928Y-17193006D01*
X151382733Y-16973167D01*
X151382717Y-16973156D01*
X151071477Y-16785890D01*
X151071464Y-16785883D01*
X150741794Y-16633360D01*
X150741789Y-16633359D01*
X150397538Y-16517367D01*
X150042764Y-16439275D01*
X149681633Y-16400000D01*
X149318366Y-16400000D01*
X148957235Y-16439275D01*
X148602461Y-16517367D01*
X148258210Y-16633359D01*
X148258205Y-16633360D01*
X147928535Y-16785883D01*
X147928522Y-16785890D01*
X147617282Y-16973156D01*
X147617266Y-16973167D01*
X147328075Y-17193002D01*
X147311888Y-17208335D01*
X147311887Y-17208335D01*
X148559301Y-18455748D01*
X148457670Y-18529588D01*
X148279588Y-18707670D01*
X148205748Y-18809300D01*
X146960970Y-17564522D01*
X146960969Y-17564523D01*
X146829177Y-17719680D01*
X146829170Y-17719690D01*
X146625318Y-18020348D01*
X146625316Y-18020352D01*
X146455161Y-18341297D01*
X146455152Y-18341315D01*
X146320697Y-18678772D01*
X146320695Y-18678779D01*
X146223519Y-19028777D01*
X146223517Y-19028785D01*
X146164746Y-19387271D01*
X146145080Y-19749997D01*
X145750499Y-19749997D01*
X145750499Y-19202129D01*
X145750498Y-19202123D01*
X145750497Y-19202116D01*
X145744091Y-19142517D01*
X145711898Y-19056204D01*
X145693797Y-19007671D01*
X145693793Y-19007664D01*
X145607547Y-18892455D01*
X145607544Y-18892452D01*
X145492335Y-18806206D01*
X145492328Y-18806202D01*
X145357482Y-18755908D01*
X145357483Y-18755908D01*
X145297883Y-18749501D01*
X145297881Y-18749500D01*
X145297873Y-18749500D01*
X144368094Y-18749500D01*
X144368092Y-18749500D01*
X144131908Y-18749500D01*
X144131904Y-18749500D01*
X143202129Y-18749500D01*
X143202123Y-18749501D01*
X143142516Y-18755908D01*
X143007671Y-18806202D01*
X143007664Y-18806206D01*
X142892455Y-18892452D01*
X142892452Y-18892455D01*
X142806206Y-19007664D01*
X142806202Y-19007671D01*
X142755908Y-19142517D01*
X142749501Y-19202116D01*
X142749501Y-19202123D01*
X142749500Y-19202135D01*
X142749500Y-26660993D01*
X142729815Y-26728032D01*
X142713181Y-26748674D01*
X139873675Y-29588181D01*
X139812352Y-29621666D01*
X139785994Y-29624500D01*
X125913768Y-29624500D01*
X125744633Y-29658143D01*
X125744621Y-29658146D01*
X125585301Y-29724138D01*
X125585288Y-29724145D01*
X125441901Y-29819954D01*
X125441897Y-29819957D01*
X124369528Y-30892328D01*
X124166901Y-31094955D01*
X124117765Y-31144091D01*
X124044953Y-31216902D01*
X123949145Y-31360288D01*
X123949138Y-31360301D01*
X123883146Y-31519621D01*
X123883143Y-31519633D01*
X123849500Y-31688766D01*
X123849500Y-32389143D01*
X123839512Y-32434196D01*
X123840268Y-32434447D01*
X123784651Y-32602288D01*
X123774500Y-32701647D01*
X123774500Y-33298337D01*
X123774501Y-33298355D01*
X123784650Y-33397707D01*
X123784651Y-33397710D01*
X123837996Y-33558694D01*
X123838001Y-33558705D01*
X123927029Y-33703040D01*
X123927032Y-33703044D01*
X124046956Y-33822968D01*
X124046959Y-33822970D01*
X124048706Y-33824351D01*
X124049596Y-33825608D01*
X124052063Y-33828075D01*
X124051641Y-33828496D01*
X124089086Y-33881371D01*
X124095800Y-33921621D01*
X124095800Y-34593985D01*
X124076115Y-34661024D01*
X124046114Y-34693250D01*
X124033556Y-34702651D01*
X124033551Y-34702656D01*
X123947306Y-34817863D01*
X123947302Y-34817870D01*
X123897008Y-34952715D01*
X123894467Y-34976357D01*
X123867729Y-35040908D01*
X123810336Y-35080756D01*
X123771178Y-35087101D01*
X121099500Y-35087101D01*
X121032461Y-35067416D01*
X120986706Y-35014612D01*
X120975500Y-34963101D01*
X120975500Y-34918386D01*
X120970051Y-34858425D01*
X120969086Y-34847804D01*
X120918478Y-34685394D01*
X120830472Y-34539815D01*
X120830470Y-34539813D01*
X120830469Y-34539811D01*
X120710188Y-34419530D01*
X120564606Y-34331522D01*
X120563775Y-34331263D01*
X120402196Y-34280914D01*
X120402194Y-34280913D01*
X120402192Y-34280913D01*
X120352778Y-34276423D01*
X120331616Y-34274500D01*
X119668384Y-34274500D01*
X119649145Y-34276248D01*
X119597807Y-34280913D01*
X119435393Y-34331522D01*
X119289811Y-34419530D01*
X119169530Y-34539811D01*
X119081522Y-34685393D01*
X119030913Y-34847807D01*
X119024500Y-34918386D01*
X119024500Y-35431613D01*
X119030913Y-35502192D01*
X119030913Y-35502194D01*
X119030914Y-35502196D01*
X119081522Y-35664606D01*
X119134065Y-35751523D01*
X119169530Y-35810188D01*
X119272015Y-35912673D01*
X119305500Y-35973996D01*
X119300516Y-36043688D01*
X119272015Y-36088035D01*
X119169928Y-36190121D01*
X119169927Y-36190122D01*
X119081980Y-36335604D01*
X119031409Y-36497893D01*
X119025000Y-36568427D01*
X119025000Y-36575000D01*
X120974999Y-36575000D01*
X120974999Y-36568417D01*
X120968592Y-36497900D01*
X120967312Y-36491466D01*
X120968801Y-36491169D01*
X120967784Y-36429122D01*
X121004589Y-36369733D01*
X121067660Y-36339669D01*
X121087318Y-36338101D01*
X121727946Y-36338101D01*
X121794985Y-36357786D01*
X121840740Y-36410590D01*
X121850684Y-36479748D01*
X121821659Y-36543304D01*
X121815627Y-36549782D01*
X121186295Y-37179113D01*
X121124972Y-37212598D01*
X121055280Y-37207614D01*
X120999347Y-37165742D01*
X120974930Y-37100278D01*
X120975086Y-37084385D01*
X120975000Y-37084385D01*
X120975000Y-37084375D01*
X120974873Y-37084370D01*
X120975000Y-37081574D01*
X120975000Y-37075000D01*
X120250000Y-37075000D01*
X120250000Y-37724999D01*
X120331583Y-37724999D01*
X120334390Y-37724872D01*
X120334439Y-37725969D01*
X120398717Y-37738640D01*
X120449080Y-37787068D01*
X120465266Y-37855038D01*
X120442135Y-37920967D01*
X120429113Y-37936295D01*
X120191621Y-38173787D01*
X120130298Y-38207272D01*
X120117825Y-38209326D01*
X120070750Y-38214630D01*
X119900478Y-38274210D01*
X119747737Y-38370184D01*
X119620184Y-38497737D01*
X119524211Y-38650476D01*
X119464631Y-38820745D01*
X119464630Y-38820750D01*
X119444435Y-38999996D01*
X119444435Y-39000003D01*
X119464630Y-39179249D01*
X119464632Y-39179257D01*
X119484600Y-39236322D01*
X119488161Y-39306101D01*
X119453432Y-39366728D01*
X119391439Y-39398955D01*
X119321863Y-39392549D01*
X119279877Y-39364957D01*
X117286819Y-37371899D01*
X117253334Y-37310576D01*
X117250500Y-37284218D01*
X117250500Y-37081582D01*
X119025001Y-37081582D01*
X119031408Y-37152102D01*
X119031409Y-37152107D01*
X119081981Y-37314396D01*
X119169927Y-37459877D01*
X119290122Y-37580072D01*
X119435604Y-37668019D01*
X119435603Y-37668019D01*
X119597894Y-37718590D01*
X119597892Y-37718590D01*
X119668418Y-37724999D01*
X119749999Y-37724998D01*
X119750000Y-37724998D01*
X119750000Y-37075000D01*
X119025001Y-37075000D01*
X119025001Y-37081582D01*
X117250500Y-37081582D01*
X117250500Y-28790901D01*
X117270185Y-28723862D01*
X117322989Y-28678107D01*
X117392147Y-28668163D01*
X117434891Y-28683658D01*
X117434968Y-28683493D01*
X117436828Y-28684360D01*
X117439605Y-28685367D01*
X117441517Y-28686546D01*
X117441518Y-28686547D01*
X117602393Y-28739855D01*
X117701683Y-28749999D01*
X118250000Y-28749999D01*
X118298308Y-28749999D01*
X118298322Y-28749998D01*
X118397607Y-28739855D01*
X118558481Y-28686547D01*
X118558492Y-28686542D01*
X118702728Y-28597575D01*
X118702732Y-28597572D01*
X118822572Y-28477732D01*
X118822575Y-28477728D01*
X118911542Y-28333492D01*
X118911547Y-28333481D01*
X118964855Y-28172606D01*
X118974999Y-28073322D01*
X118975000Y-28073309D01*
X118975000Y-28050000D01*
X118250000Y-28050000D01*
X118250000Y-28749999D01*
X117701683Y-28749999D01*
X117749999Y-28749998D01*
X117750000Y-28749998D01*
X117750000Y-27674000D01*
X117769685Y-27606961D01*
X117822489Y-27561206D01*
X117874000Y-27550000D01*
X118974999Y-27550000D01*
X118974999Y-27526692D01*
X118974998Y-27526677D01*
X118964855Y-27427393D01*
X118960253Y-27413502D01*
X118957853Y-27343673D01*
X118993586Y-27283632D01*
X119056107Y-27252441D01*
X119077960Y-27250500D01*
X121875500Y-27250500D01*
X121942539Y-27270185D01*
X121988294Y-27322989D01*
X121999500Y-27374500D01*
X121999500Y-28200028D01*
X121992542Y-28240982D01*
X121964631Y-28320747D01*
X121944435Y-28499996D01*
X121944435Y-28500003D01*
X121964630Y-28679249D01*
X121964631Y-28679254D01*
X122024211Y-28849523D01*
X122120184Y-29002262D01*
X122247738Y-29129816D01*
X122400478Y-29225789D01*
X122570745Y-29285368D01*
X122570750Y-29285369D01*
X122749996Y-29305565D01*
X122750000Y-29305565D01*
X122750004Y-29305565D01*
X122929249Y-29285369D01*
X122929252Y-29285368D01*
X122929255Y-29285368D01*
X123099522Y-29225789D01*
X123252262Y-29129816D01*
X123379816Y-29002262D01*
X123475789Y-28849522D01*
X123535368Y-28679255D01*
X123535369Y-28679249D01*
X123555565Y-28500003D01*
X123555565Y-28499996D01*
X123535368Y-28320747D01*
X123535368Y-28320745D01*
X123507458Y-28240982D01*
X123500500Y-28200028D01*
X123500500Y-27449500D01*
X123520185Y-27382461D01*
X123572989Y-27336706D01*
X123624500Y-27325500D01*
X128848543Y-27325500D01*
X128978582Y-27299632D01*
X129041835Y-27287051D01*
X129223914Y-27211632D01*
X129250788Y-27193674D01*
X129282786Y-27178392D01*
X129314606Y-27168478D01*
X129460185Y-27080472D01*
X129580472Y-26960185D01*
X129668478Y-26814606D01*
X129719086Y-26652196D01*
X129725500Y-26581616D01*
X129725500Y-26561434D01*
X129727883Y-26537242D01*
X129750500Y-26423543D01*
X129750500Y-26226456D01*
X129727883Y-26112756D01*
X129725500Y-26088564D01*
X129725500Y-26068386D01*
X129719086Y-25997807D01*
X129719086Y-25997804D01*
X129668478Y-25835394D01*
X129580472Y-25689815D01*
X129580470Y-25689813D01*
X129580469Y-25689811D01*
X129478339Y-25587681D01*
X129444854Y-25526358D01*
X129449838Y-25456666D01*
X129478339Y-25412319D01*
X129488523Y-25402135D01*
X131749500Y-25402135D01*
X131749500Y-27497870D01*
X131749501Y-27497876D01*
X131755908Y-27557483D01*
X131806202Y-27692328D01*
X131806206Y-27692335D01*
X131892452Y-27807544D01*
X131892455Y-27807547D01*
X132007664Y-27893793D01*
X132007671Y-27893797D01*
X132142517Y-27944091D01*
X132142516Y-27944091D01*
X132149444Y-27944835D01*
X132202127Y-27950500D01*
X134297872Y-27950499D01*
X134357483Y-27944091D01*
X134492331Y-27893796D01*
X134607546Y-27807546D01*
X134693796Y-27692331D01*
X134744091Y-27557483D01*
X134750500Y-27497873D01*
X134750499Y-25402128D01*
X134744091Y-25342517D01*
X134738224Y-25326788D01*
X134693797Y-25207671D01*
X134693793Y-25207664D01*
X134607547Y-25092455D01*
X134607544Y-25092452D01*
X134492335Y-25006206D01*
X134492328Y-25006202D01*
X134357482Y-24955908D01*
X134357483Y-24955908D01*
X134297883Y-24949501D01*
X134297881Y-24949500D01*
X134297873Y-24949500D01*
X134297864Y-24949500D01*
X132202129Y-24949500D01*
X132202123Y-24949501D01*
X132142516Y-24955908D01*
X132007671Y-25006202D01*
X132007664Y-25006206D01*
X131892455Y-25092452D01*
X131892452Y-25092455D01*
X131806206Y-25207664D01*
X131806202Y-25207671D01*
X131755908Y-25342517D01*
X131749501Y-25402116D01*
X131749501Y-25402123D01*
X131749500Y-25402135D01*
X129488523Y-25402135D01*
X129580468Y-25310189D01*
X129580469Y-25310188D01*
X129580472Y-25310185D01*
X129668478Y-25164606D01*
X129719086Y-25002196D01*
X129725500Y-24931616D01*
X129725500Y-24911434D01*
X129727883Y-24887242D01*
X129750500Y-24773543D01*
X129750500Y-24663389D01*
X137649500Y-24663389D01*
X137649500Y-24836610D01*
X137676360Y-25006202D01*
X137676598Y-25007701D01*
X137730038Y-25172172D01*
X137730128Y-25172447D01*
X137797572Y-25304815D01*
X137808768Y-25326788D01*
X137910586Y-25466928D01*
X138033072Y-25589414D01*
X138173212Y-25691232D01*
X138327555Y-25769873D01*
X138492299Y-25823402D01*
X138663389Y-25850500D01*
X138663390Y-25850500D01*
X138836610Y-25850500D01*
X138836611Y-25850500D01*
X139007701Y-25823402D01*
X139172445Y-25769873D01*
X139326788Y-25691232D01*
X139466928Y-25589414D01*
X139589414Y-25466928D01*
X139691232Y-25326788D01*
X139769873Y-25172445D01*
X139823402Y-25007701D01*
X139850500Y-24836611D01*
X139850500Y-24663389D01*
X139823402Y-24492299D01*
X139769873Y-24327555D01*
X139691232Y-24173212D01*
X139589414Y-24033072D01*
X139466928Y-23910586D01*
X139326788Y-23808768D01*
X139172445Y-23730127D01*
X139007701Y-23676598D01*
X139007699Y-23676597D01*
X139007698Y-23676597D01*
X138876271Y-23655781D01*
X138836611Y-23649500D01*
X138663389Y-23649500D01*
X138623728Y-23655781D01*
X138492302Y-23676597D01*
X138327552Y-23730128D01*
X138173211Y-23808768D01*
X138108328Y-23855909D01*
X138033072Y-23910586D01*
X138033070Y-23910588D01*
X138033069Y-23910588D01*
X137910588Y-24033069D01*
X137910588Y-24033070D01*
X137910586Y-24033072D01*
X137866859Y-24093256D01*
X137808768Y-24173211D01*
X137730128Y-24327552D01*
X137676597Y-24492302D01*
X137649500Y-24663389D01*
X129750500Y-24663389D01*
X129750500Y-21297844D01*
X131750000Y-21297844D01*
X131756401Y-21357372D01*
X131756403Y-21357379D01*
X131806645Y-21492086D01*
X131806649Y-21492093D01*
X131892809Y-21607187D01*
X131892812Y-21607190D01*
X132007906Y-21693350D01*
X132007913Y-21693354D01*
X132142620Y-21743596D01*
X132142627Y-21743598D01*
X132202155Y-21749999D01*
X132202172Y-21750000D01*
X133000000Y-21750000D01*
X133500000Y-21750000D01*
X134297828Y-21750000D01*
X134297844Y-21749999D01*
X134357372Y-21743598D01*
X134357379Y-21743596D01*
X134492086Y-21693354D01*
X134492093Y-21693350D01*
X134607187Y-21607190D01*
X134607190Y-21607187D01*
X134693350Y-21492093D01*
X134693354Y-21492086D01*
X134743596Y-21357379D01*
X134743598Y-21357372D01*
X134749999Y-21297844D01*
X134750000Y-21297827D01*
X134750000Y-20500000D01*
X133500000Y-20500000D01*
X133500000Y-21750000D01*
X133000000Y-21750000D01*
X133000000Y-20500000D01*
X131750000Y-20500000D01*
X131750000Y-21297844D01*
X129750500Y-21297844D01*
X129750500Y-20348543D01*
X137749499Y-20348543D01*
X137787947Y-20541829D01*
X137787950Y-20541839D01*
X137863364Y-20723907D01*
X137863371Y-20723920D01*
X137972860Y-20887781D01*
X137972863Y-20887785D01*
X138112214Y-21027136D01*
X138112218Y-21027139D01*
X138276079Y-21136628D01*
X138276092Y-21136635D01*
X138458160Y-21212049D01*
X138458165Y-21212051D01*
X138458169Y-21212051D01*
X138458170Y-21212052D01*
X138651456Y-21250500D01*
X138651459Y-21250500D01*
X138848543Y-21250500D01*
X138978582Y-21224632D01*
X139041835Y-21212051D01*
X139223914Y-21136632D01*
X139387782Y-21027139D01*
X139527139Y-20887782D01*
X139636632Y-20723914D01*
X139712051Y-20541835D01*
X139743404Y-20384216D01*
X139750500Y-20348543D01*
X139750500Y-20151456D01*
X139712052Y-19958170D01*
X139712051Y-19958169D01*
X139712051Y-19958165D01*
X139677986Y-19875923D01*
X139636635Y-19776092D01*
X139636628Y-19776079D01*
X139527139Y-19612218D01*
X139527136Y-19612214D01*
X139387785Y-19472863D01*
X139387781Y-19472860D01*
X139223920Y-19363371D01*
X139223907Y-19363364D01*
X139041839Y-19287950D01*
X139041829Y-19287947D01*
X138848543Y-19249500D01*
X138848541Y-19249500D01*
X138651459Y-19249500D01*
X138651457Y-19249500D01*
X138458170Y-19287947D01*
X138458160Y-19287950D01*
X138276092Y-19363364D01*
X138276079Y-19363371D01*
X138112218Y-19472860D01*
X138112214Y-19472863D01*
X137972863Y-19612214D01*
X137972860Y-19612218D01*
X137863371Y-19776079D01*
X137863364Y-19776092D01*
X137787950Y-19958160D01*
X137787947Y-19958170D01*
X137749500Y-20151456D01*
X137749500Y-20151459D01*
X137749500Y-20348541D01*
X137749500Y-20348543D01*
X137749499Y-20348543D01*
X129750500Y-20348543D01*
X129750500Y-19202155D01*
X131750000Y-19202155D01*
X131750000Y-20000000D01*
X133000000Y-20000000D01*
X133500000Y-20000000D01*
X134750000Y-20000000D01*
X134750000Y-19202172D01*
X134749999Y-19202155D01*
X134743598Y-19142627D01*
X134743596Y-19142620D01*
X134693354Y-19007913D01*
X134693350Y-19007906D01*
X134607190Y-18892812D01*
X134607187Y-18892809D01*
X134492093Y-18806649D01*
X134492086Y-18806645D01*
X134357379Y-18756403D01*
X134357372Y-18756401D01*
X134297844Y-18750000D01*
X133500000Y-18750000D01*
X133500000Y-20000000D01*
X133000000Y-20000000D01*
X133000000Y-18750000D01*
X132202155Y-18750000D01*
X132142627Y-18756401D01*
X132142620Y-18756403D01*
X132007913Y-18806645D01*
X132007906Y-18806649D01*
X131892812Y-18892809D01*
X131892809Y-18892812D01*
X131806649Y-19007906D01*
X131806645Y-19007913D01*
X131756403Y-19142620D01*
X131756401Y-19142627D01*
X131750000Y-19202155D01*
X129750500Y-19202155D01*
X129750500Y-18188956D01*
X129727883Y-18075256D01*
X129725500Y-18051064D01*
X129725500Y-18020831D01*
X129725499Y-18020818D01*
X129725451Y-18020352D01*
X129715436Y-17922315D01*
X129662549Y-17762713D01*
X129662545Y-17762707D01*
X129662544Y-17762704D01*
X129574283Y-17619612D01*
X129574280Y-17619608D01*
X129542353Y-17587681D01*
X129508868Y-17526358D01*
X129513852Y-17456666D01*
X129542353Y-17412319D01*
X129553213Y-17401459D01*
X129574281Y-17380391D01*
X129662549Y-17237287D01*
X129715436Y-17077685D01*
X129725500Y-16979174D01*
X129725500Y-16948934D01*
X129727883Y-16924742D01*
X129750500Y-16811043D01*
X129750500Y-16613956D01*
X129727883Y-16500256D01*
X129725500Y-16476064D01*
X129725500Y-16445831D01*
X129725499Y-16445818D01*
X129715436Y-16347316D01*
X129715436Y-16347315D01*
X129662549Y-16187713D01*
X129662545Y-16187707D01*
X129662544Y-16187704D01*
X129574283Y-16044612D01*
X129574280Y-16044608D01*
X129455391Y-15925719D01*
X129455387Y-15925716D01*
X129312295Y-15837455D01*
X129312289Y-15837452D01*
X129312287Y-15837451D01*
X129152685Y-15784564D01*
X129152682Y-15784563D01*
X129152680Y-15784563D01*
X129152677Y-15784562D01*
X129132930Y-15782544D01*
X129098087Y-15773749D01*
X129041835Y-15750449D01*
X129041831Y-15750448D01*
X129041828Y-15750447D01*
X128848543Y-15712000D01*
X128848541Y-15712000D01*
X127642175Y-15712000D01*
X127642155Y-15711999D01*
X127636041Y-15711999D01*
X127438960Y-15711999D01*
X127438957Y-15711999D01*
X127245672Y-15750446D01*
X127245664Y-15750448D01*
X127063588Y-15825866D01*
X127063579Y-15825871D01*
X126899719Y-15935359D01*
X126899715Y-15935362D01*
X126112219Y-16722860D01*
X125862220Y-16972859D01*
X125862218Y-16972861D01*
X125814894Y-17020185D01*
X125722859Y-17112219D01*
X125613371Y-17276079D01*
X125613364Y-17276092D01*
X125537950Y-17458160D01*
X125537947Y-17458170D01*
X125499500Y-17651456D01*
X125499500Y-20134436D01*
X125479815Y-20201475D01*
X125469215Y-20215637D01*
X125442987Y-20245906D01*
X125442982Y-20245912D01*
X125365255Y-20366857D01*
X125365252Y-20366863D01*
X125305483Y-20497741D01*
X125264977Y-20635691D01*
X125264974Y-20635703D01*
X125244500Y-20778110D01*
X125244500Y-21350002D01*
X125249644Y-21421939D01*
X125260603Y-21459262D01*
X125264363Y-21511841D01*
X125244500Y-21649998D01*
X125244500Y-22221889D01*
X125264974Y-22364296D01*
X125264976Y-22364304D01*
X125304966Y-22500499D01*
X125305483Y-22502258D01*
X125365252Y-22633136D01*
X125365253Y-22633138D01*
X125439376Y-22748476D01*
X125440196Y-22749917D01*
X125442988Y-22754098D01*
X125537207Y-22862830D01*
X125537210Y-22862833D01*
X125645864Y-22956981D01*
X125645867Y-22956984D01*
X125645869Y-22956985D01*
X125645870Y-22956986D01*
X125766906Y-23034770D01*
X125802010Y-23050801D01*
X125854815Y-23096556D01*
X125874500Y-23163595D01*
X125874500Y-23730145D01*
X125855494Y-23796117D01*
X125774211Y-23925476D01*
X125714631Y-24095745D01*
X125714630Y-24095750D01*
X125694435Y-24274996D01*
X125694435Y-24275003D01*
X125714630Y-24454249D01*
X125714631Y-24454254D01*
X125774211Y-24624523D01*
X125834204Y-24720000D01*
X125870184Y-24777262D01*
X125997738Y-24904816D01*
X126150478Y-25000789D01*
X126221098Y-25025500D01*
X126320745Y-25060368D01*
X126320750Y-25060369D01*
X126470840Y-25077280D01*
X126497366Y-25088426D01*
X126508108Y-25081523D01*
X126529160Y-25077280D01*
X126679249Y-25060369D01*
X126679252Y-25060368D01*
X126679255Y-25060368D01*
X126849522Y-25000789D01*
X127002262Y-24904816D01*
X127129816Y-24777262D01*
X127225789Y-24624522D01*
X127285368Y-24454255D01*
X127285369Y-24454249D01*
X127305565Y-24275003D01*
X127305565Y-24274996D01*
X127285369Y-24095750D01*
X127285368Y-24095745D01*
X127243036Y-23974767D01*
X127225789Y-23925478D01*
X127213955Y-23906645D01*
X127144506Y-23796117D01*
X127125500Y-23730145D01*
X127125500Y-23163596D01*
X127145185Y-23096557D01*
X127197989Y-23050802D01*
X127197989Y-23050801D01*
X127233094Y-23034770D01*
X127354130Y-22956986D01*
X127355033Y-22956204D01*
X127403254Y-22914420D01*
X127462791Y-22862832D01*
X127462794Y-22862829D01*
X127531788Y-22783204D01*
X127590564Y-22745431D01*
X127660434Y-22745431D01*
X127719212Y-22783204D01*
X127748238Y-22846760D01*
X127749500Y-22864408D01*
X127749500Y-24773541D01*
X127749500Y-24773543D01*
X127749499Y-24773543D01*
X127772117Y-24887242D01*
X127774500Y-24911434D01*
X127774500Y-24931616D01*
X127780914Y-25002196D01*
X127820681Y-25129815D01*
X127831212Y-25163611D01*
X127832362Y-25233471D01*
X127795561Y-25292863D01*
X127732492Y-25322931D01*
X127712826Y-25324500D01*
X126543043Y-25324500D01*
X126500101Y-25311890D01*
X126478351Y-25322640D01*
X126456957Y-25324500D01*
X123787174Y-25324500D01*
X123720135Y-25304815D01*
X123674380Y-25252011D01*
X123664436Y-25182853D01*
X123668788Y-25163611D01*
X123679319Y-25129815D01*
X123719086Y-25002196D01*
X123725500Y-24931616D01*
X123725500Y-24911434D01*
X123727883Y-24887242D01*
X123750500Y-24773543D01*
X123750500Y-18188956D01*
X123727883Y-18075256D01*
X123725500Y-18051064D01*
X123725500Y-18020831D01*
X123725499Y-18020818D01*
X123725451Y-18020352D01*
X123715436Y-17922315D01*
X123662549Y-17762713D01*
X123662545Y-17762707D01*
X123662544Y-17762704D01*
X123574283Y-17619612D01*
X123574280Y-17619608D01*
X123542353Y-17587681D01*
X123508868Y-17526358D01*
X123513852Y-17456666D01*
X123542353Y-17412319D01*
X123553213Y-17401459D01*
X123574281Y-17380391D01*
X123662549Y-17237287D01*
X123715436Y-17077685D01*
X123725500Y-16979174D01*
X123725500Y-16948934D01*
X123727883Y-16924742D01*
X123750500Y-16811043D01*
X123750500Y-16613956D01*
X123727883Y-16500256D01*
X123725500Y-16476064D01*
X123725500Y-16445831D01*
X123725499Y-16445818D01*
X123715436Y-16347316D01*
X123715436Y-16347315D01*
X123662549Y-16187713D01*
X123662545Y-16187707D01*
X123662544Y-16187704D01*
X123574283Y-16044612D01*
X123574280Y-16044608D01*
X123455391Y-15925719D01*
X123455387Y-15925716D01*
X123312295Y-15837455D01*
X123312289Y-15837452D01*
X123312287Y-15837451D01*
X123152685Y-15784564D01*
X123152682Y-15784563D01*
X123152680Y-15784563D01*
X123152677Y-15784562D01*
X123132930Y-15782544D01*
X123098087Y-15773749D01*
X123041835Y-15750449D01*
X123041831Y-15750448D01*
X123041828Y-15750447D01*
X122848543Y-15712000D01*
X122848541Y-15712000D01*
X121642175Y-15712000D01*
X121642155Y-15711999D01*
X121636041Y-15711999D01*
X121438960Y-15711999D01*
X121438957Y-15711999D01*
X121245672Y-15750446D01*
X121245664Y-15750448D01*
X121063588Y-15825866D01*
X121063579Y-15825871D01*
X120899719Y-15935359D01*
X120899715Y-15935362D01*
X120112219Y-16722860D01*
X119862220Y-16972859D01*
X119862218Y-16972861D01*
X119814894Y-17020185D01*
X119722859Y-17112219D01*
X119613371Y-17276079D01*
X119613364Y-17276092D01*
X119537950Y-17458160D01*
X119537947Y-17458170D01*
X119499500Y-17651456D01*
X119499500Y-20134436D01*
X119479815Y-20201475D01*
X119469215Y-20215637D01*
X119442987Y-20245906D01*
X119442982Y-20245912D01*
X119365255Y-20366857D01*
X119365252Y-20366863D01*
X119305483Y-20497741D01*
X119264977Y-20635691D01*
X119264975Y-20635701D01*
X119247238Y-20759069D01*
X119218213Y-20822624D01*
X119159435Y-20860399D01*
X119089566Y-20860399D01*
X119030787Y-20822625D01*
X119001762Y-20759070D01*
X119000500Y-20741422D01*
X119000500Y-17401459D01*
X118996308Y-17380387D01*
X118996077Y-17379225D01*
X118996076Y-17379221D01*
X118962085Y-17208335D01*
X118962051Y-17208164D01*
X118938563Y-17151459D01*
X118908005Y-17077684D01*
X118886635Y-17026092D01*
X118886628Y-17026079D01*
X118777140Y-16862219D01*
X118725962Y-16811041D01*
X118637782Y-16722861D01*
X118637781Y-16722860D01*
X117327100Y-15412180D01*
X117293616Y-15350858D01*
X117298600Y-15281166D01*
X117340472Y-15225233D01*
X117405936Y-15200816D01*
X117414782Y-15200500D01*
X152960118Y-15200500D01*
X152993908Y-15200500D01*
X153006061Y-15201097D01*
G37*
%TD.AperFunction*%
%TD*%
M02*
