%TF.GenerationSoftware,KiCad,Pcbnew,8.0.5*%
%TF.CreationDate,2024-12-07T16:14:34-08:00*%
%TF.ProjectId,newbatt,6e657762-6174-4742-9e6b-696361645f70,3*%
%TF.SameCoordinates,Original*%
%TF.FileFunction,Copper,L2,Bot*%
%TF.FilePolarity,Positive*%
%FSLAX46Y46*%
G04 Gerber Fmt 4.6, Leading zero omitted, Abs format (unit mm)*
G04 Created by KiCad (PCBNEW 8.0.5) date 2024-12-07 16:14:34*
%MOMM*%
%LPD*%
G01*
G04 APERTURE LIST*
%TA.AperFunction,ComponentPad*%
%ADD10C,3.600000*%
%TD*%
%TA.AperFunction,ConnectorPad*%
%ADD11C,5.700000*%
%TD*%
%TA.AperFunction,ComponentPad*%
%ADD12R,1.700000X1.700000*%
%TD*%
%TA.AperFunction,ComponentPad*%
%ADD13O,1.700000X1.700000*%
%TD*%
%TA.AperFunction,ComponentPad*%
%ADD14C,0.508000*%
%TD*%
%TA.AperFunction,ViaPad*%
%ADD15C,0.600000*%
%TD*%
%TA.AperFunction,Conductor*%
%ADD16C,0.250000*%
%TD*%
%TA.AperFunction,Conductor*%
%ADD17C,1.000000*%
%TD*%
%TA.AperFunction,Conductor*%
%ADD18C,0.500000*%
%TD*%
G04 APERTURE END LIST*
D10*
%TO.P,H4,1,1*%
%TO.N,0*%
X149500000Y-55250000D03*
D11*
X149500000Y-55250000D03*
%TD*%
D10*
%TO.P,H1,1,1*%
%TO.N,0*%
X19500000Y-19750000D03*
D11*
X19500000Y-19750000D03*
%TD*%
D10*
%TO.P,H3,1,1*%
%TO.N,0*%
X149500000Y-19750000D03*
D11*
X149500000Y-19750000D03*
%TD*%
D12*
%TO.P,J2,1,Pin_1*%
%TO.N,0*%
X149500000Y-26070000D03*
D13*
%TO.P,J2,2,Pin_2*%
%TO.N,Net-(J2-Pin_2)*%
X149500000Y-28610000D03*
%TO.P,J2,3,Pin_3*%
%TO.N,/~{PG}*%
X149500000Y-31150000D03*
%TO.P,J2,4,Pin_4*%
%TO.N,/~{CHG}*%
X149500000Y-33690000D03*
%TO.P,J2,5,Pin_5*%
%TO.N,Net-(J2-Pin_5)*%
X149500000Y-36230000D03*
%TO.P,J2,6,Pin_6*%
X149500000Y-38770000D03*
%TO.P,J2,7,Pin_7*%
%TO.N,/~{CHG}*%
X149500000Y-41310000D03*
%TO.P,J2,8,Pin_8*%
%TO.N,/~{PG}*%
X149500000Y-43850000D03*
%TO.P,J2,9,Pin_9*%
%TO.N,Net-(J2-Pin_2)*%
X149500000Y-46390000D03*
%TO.P,J2,10,Pin_10*%
%TO.N,0*%
X149500000Y-48930000D03*
%TD*%
D14*
%TO.P,U1,11,EPAD*%
%TO.N,0*%
X125750000Y-35425200D03*
X125750000Y-36212600D03*
X125750000Y-37000000D03*
%TD*%
D12*
%TO.P,TH1,1*%
%TO.N,Net-(U1-TS)*%
X105100000Y-39075000D03*
D13*
%TO.P,TH1,2*%
%TO.N,0*%
X105100000Y-36535000D03*
%TD*%
D10*
%TO.P,H2,1,1*%
%TO.N,0*%
X19500000Y-55250000D03*
D11*
X19500000Y-55250000D03*
%TD*%
D15*
%TO.N,0*%
X139500000Y-42000000D03*
X134500000Y-38000000D03*
X129500000Y-44000000D03*
X122000000Y-46950000D03*
X124100000Y-40600000D03*
X118200000Y-37900000D03*
X139500000Y-44500000D03*
X133500000Y-44500000D03*
X132300000Y-20400000D03*
X132700000Y-36700000D03*
%TO.N,/~{PG}*%
X117150000Y-23750000D03*
X135100000Y-33750000D03*
%TO.N,/~{CHG}*%
X129250000Y-35500000D03*
X123150000Y-24900000D03*
%TO.N,Net-(U1-TS)*%
X117900000Y-40600000D03*
%TO.N,Net-(JP8-B)*%
X122750000Y-28500000D03*
X116650000Y-26325000D03*
X128000000Y-33750000D03*
X136803769Y-43796231D03*
X115350000Y-26325000D03*
%TD*%
D16*
%TO.N,/~{PG}*%
X123675000Y-24057537D02*
X123367463Y-23750000D01*
X130550000Y-33750000D02*
X123675000Y-26875000D01*
X146900000Y-33750000D02*
X149500000Y-31150000D01*
X135100000Y-33750000D02*
X130550000Y-33750000D01*
X123675000Y-26875000D02*
X123675000Y-24057537D01*
X135100000Y-33750000D02*
X146900000Y-33750000D01*
X123367463Y-23750000D02*
X117150000Y-23750000D01*
D17*
%TO.N,Net-(J2-Pin_2)*%
X149390000Y-28500000D02*
X149500000Y-28610000D01*
D16*
%TO.N,/~{CHG}*%
X129250000Y-33650000D02*
X129250000Y-35500000D01*
X147690000Y-35500000D02*
X149500000Y-33690000D01*
X123150000Y-27550000D02*
X129250000Y-33650000D01*
X129250000Y-35500000D02*
X147690000Y-35500000D01*
X123150000Y-24900000D02*
X123150000Y-27550000D01*
%TO.N,Net-(U1-TS)*%
X117900000Y-40600000D02*
X116375000Y-39075000D01*
X116375000Y-39075000D02*
X105100000Y-39075000D01*
D18*
%TO.N,Net-(JP8-B)*%
X128000000Y-33750000D02*
X122750000Y-28500000D01*
X115350000Y-26325000D02*
X116650000Y-26325000D01*
D16*
X128000000Y-34992463D02*
X128000000Y-33750000D01*
X136803768Y-43796231D02*
X128000000Y-34992463D01*
X136803769Y-43796231D02*
X136803768Y-43796231D01*
%TD*%
%TA.AperFunction,Conductor*%
%TO.N,0*%
G36*
X153006061Y-15201097D02*
G01*
X153016051Y-15202080D01*
X153143824Y-15214665D01*
X153167652Y-15219404D01*
X153294277Y-15257815D01*
X153316725Y-15267114D01*
X153433406Y-15329482D01*
X153453616Y-15342986D01*
X153555891Y-15426920D01*
X153573079Y-15444108D01*
X153657012Y-15546381D01*
X153670517Y-15566593D01*
X153732883Y-15683271D01*
X153742186Y-15705728D01*
X153780593Y-15832338D01*
X153785335Y-15856180D01*
X153798903Y-15993938D01*
X153799500Y-16006092D01*
X153799500Y-58993907D01*
X153798903Y-59006061D01*
X153785335Y-59143819D01*
X153780593Y-59167661D01*
X153742186Y-59294271D01*
X153732883Y-59316728D01*
X153670517Y-59433406D01*
X153657012Y-59453618D01*
X153573079Y-59555891D01*
X153555891Y-59573079D01*
X153453618Y-59657012D01*
X153433406Y-59670517D01*
X153316728Y-59732883D01*
X153294271Y-59742186D01*
X153167661Y-59780593D01*
X153143819Y-59785335D01*
X153006062Y-59798903D01*
X152993908Y-59799500D01*
X16006092Y-59799500D01*
X15993938Y-59798903D01*
X15856180Y-59785335D01*
X15832340Y-59780593D01*
X15705728Y-59742186D01*
X15683271Y-59732883D01*
X15566593Y-59670517D01*
X15546381Y-59657012D01*
X15444108Y-59573079D01*
X15426920Y-59555891D01*
X15342986Y-59453616D01*
X15329482Y-59433406D01*
X15267116Y-59316728D01*
X15257815Y-59294277D01*
X15219404Y-59167652D01*
X15214665Y-59143824D01*
X15201097Y-59006060D01*
X15200500Y-58993907D01*
X15200500Y-55249997D01*
X16145080Y-55249997D01*
X16145080Y-55250002D01*
X16164746Y-55612728D01*
X16223517Y-55971214D01*
X16223519Y-55971222D01*
X16320695Y-56321220D01*
X16320697Y-56321227D01*
X16455152Y-56658684D01*
X16455161Y-56658702D01*
X16625316Y-56979647D01*
X16625318Y-56979651D01*
X16829170Y-57280309D01*
X16829177Y-57280319D01*
X16960969Y-57435475D01*
X16960970Y-57435475D01*
X18205748Y-56190698D01*
X18279588Y-56292330D01*
X18457670Y-56470412D01*
X18559300Y-56544251D01*
X17311888Y-57791662D01*
X17311888Y-57791664D01*
X17328070Y-57806992D01*
X17328071Y-57806993D01*
X17617266Y-58026832D01*
X17617282Y-58026843D01*
X17928522Y-58214109D01*
X17928535Y-58214116D01*
X18258205Y-58366639D01*
X18258210Y-58366640D01*
X18602461Y-58482632D01*
X18957235Y-58560724D01*
X19318366Y-58599999D01*
X19318374Y-58600000D01*
X19681626Y-58600000D01*
X19681633Y-58599999D01*
X20042764Y-58560724D01*
X20397538Y-58482632D01*
X20741789Y-58366640D01*
X20741794Y-58366639D01*
X21071464Y-58214116D01*
X21071477Y-58214109D01*
X21382717Y-58026843D01*
X21382733Y-58026832D01*
X21671929Y-57806992D01*
X21688110Y-57791664D01*
X21688110Y-57791663D01*
X20440698Y-56544251D01*
X20542330Y-56470412D01*
X20720412Y-56292330D01*
X20794251Y-56190698D01*
X22039028Y-57435475D01*
X22039029Y-57435475D01*
X22170827Y-57280311D01*
X22170838Y-57280297D01*
X22374681Y-56979651D01*
X22374683Y-56979647D01*
X22544838Y-56658702D01*
X22544847Y-56658684D01*
X22679302Y-56321227D01*
X22679304Y-56321220D01*
X22776480Y-55971222D01*
X22776482Y-55971214D01*
X22835253Y-55612728D01*
X22854920Y-55250002D01*
X22854920Y-55249997D01*
X146145080Y-55249997D01*
X146145080Y-55250002D01*
X146164746Y-55612728D01*
X146223517Y-55971214D01*
X146223519Y-55971222D01*
X146320695Y-56321220D01*
X146320697Y-56321227D01*
X146455152Y-56658684D01*
X146455161Y-56658702D01*
X146625316Y-56979647D01*
X146625318Y-56979651D01*
X146829170Y-57280309D01*
X146829177Y-57280319D01*
X146960969Y-57435475D01*
X146960970Y-57435475D01*
X148205748Y-56190698D01*
X148279588Y-56292330D01*
X148457670Y-56470412D01*
X148559300Y-56544251D01*
X147311888Y-57791662D01*
X147311888Y-57791664D01*
X147328070Y-57806992D01*
X147328071Y-57806993D01*
X147617266Y-58026832D01*
X147617282Y-58026843D01*
X147928522Y-58214109D01*
X147928535Y-58214116D01*
X148258205Y-58366639D01*
X148258210Y-58366640D01*
X148602461Y-58482632D01*
X148957235Y-58560724D01*
X149318366Y-58599999D01*
X149318374Y-58600000D01*
X149681626Y-58600000D01*
X149681633Y-58599999D01*
X150042764Y-58560724D01*
X150397538Y-58482632D01*
X150741789Y-58366640D01*
X150741794Y-58366639D01*
X151071464Y-58214116D01*
X151071477Y-58214109D01*
X151382717Y-58026843D01*
X151382733Y-58026832D01*
X151671929Y-57806992D01*
X151688110Y-57791664D01*
X151688110Y-57791663D01*
X150440698Y-56544251D01*
X150542330Y-56470412D01*
X150720412Y-56292330D01*
X150794251Y-56190698D01*
X152039028Y-57435475D01*
X152039029Y-57435475D01*
X152170827Y-57280311D01*
X152170838Y-57280297D01*
X152374681Y-56979651D01*
X152374683Y-56979647D01*
X152544838Y-56658702D01*
X152544847Y-56658684D01*
X152679302Y-56321227D01*
X152679304Y-56321220D01*
X152776480Y-55971222D01*
X152776482Y-55971214D01*
X152835253Y-55612728D01*
X152854920Y-55250002D01*
X152854920Y-55249997D01*
X152835253Y-54887271D01*
X152776482Y-54528785D01*
X152776480Y-54528777D01*
X152679304Y-54178779D01*
X152679302Y-54178772D01*
X152544847Y-53841315D01*
X152544838Y-53841297D01*
X152374683Y-53520352D01*
X152374681Y-53520348D01*
X152170829Y-53219690D01*
X152170822Y-53219680D01*
X152039029Y-53064523D01*
X152039028Y-53064523D01*
X150794251Y-54309300D01*
X150720412Y-54207670D01*
X150542330Y-54029588D01*
X150440698Y-53955748D01*
X151688110Y-52708336D01*
X151688110Y-52708334D01*
X151671929Y-52693007D01*
X151671928Y-52693006D01*
X151382733Y-52473167D01*
X151382717Y-52473156D01*
X151071477Y-52285890D01*
X151071464Y-52285883D01*
X150741794Y-52133360D01*
X150741789Y-52133359D01*
X150397538Y-52017367D01*
X150042764Y-51939275D01*
X149681633Y-51900000D01*
X149318366Y-51900000D01*
X148957235Y-51939275D01*
X148602461Y-52017367D01*
X148258210Y-52133359D01*
X148258205Y-52133360D01*
X147928535Y-52285883D01*
X147928522Y-52285890D01*
X147617282Y-52473156D01*
X147617266Y-52473167D01*
X147328075Y-52693002D01*
X147311888Y-52708335D01*
X147311887Y-52708335D01*
X148559301Y-53955748D01*
X148457670Y-54029588D01*
X148279588Y-54207670D01*
X148205748Y-54309300D01*
X146960970Y-53064522D01*
X146960969Y-53064523D01*
X146829177Y-53219680D01*
X146829170Y-53219690D01*
X146625318Y-53520348D01*
X146625316Y-53520352D01*
X146455161Y-53841297D01*
X146455152Y-53841315D01*
X146320697Y-54178772D01*
X146320695Y-54178779D01*
X146223519Y-54528777D01*
X146223517Y-54528785D01*
X146164746Y-54887271D01*
X146145080Y-55249997D01*
X22854920Y-55249997D01*
X22835253Y-54887271D01*
X22776482Y-54528785D01*
X22776480Y-54528777D01*
X22679304Y-54178779D01*
X22679302Y-54178772D01*
X22544847Y-53841315D01*
X22544838Y-53841297D01*
X22374683Y-53520352D01*
X22374681Y-53520348D01*
X22170829Y-53219690D01*
X22170822Y-53219680D01*
X22039029Y-53064523D01*
X22039028Y-53064523D01*
X20794251Y-54309300D01*
X20720412Y-54207670D01*
X20542330Y-54029588D01*
X20440698Y-53955748D01*
X21688110Y-52708336D01*
X21688110Y-52708334D01*
X21671929Y-52693007D01*
X21671928Y-52693006D01*
X21382733Y-52473167D01*
X21382717Y-52473156D01*
X21071477Y-52285890D01*
X21071464Y-52285883D01*
X20741794Y-52133360D01*
X20741789Y-52133359D01*
X20397538Y-52017367D01*
X20042764Y-51939275D01*
X19681633Y-51900000D01*
X19318366Y-51900000D01*
X18957235Y-51939275D01*
X18602461Y-52017367D01*
X18258210Y-52133359D01*
X18258205Y-52133360D01*
X17928535Y-52285883D01*
X17928522Y-52285890D01*
X17617282Y-52473156D01*
X17617266Y-52473167D01*
X17328075Y-52693002D01*
X17311888Y-52708335D01*
X17311887Y-52708335D01*
X18559301Y-53955748D01*
X18457670Y-54029588D01*
X18279588Y-54207670D01*
X18205748Y-54309300D01*
X16960970Y-53064522D01*
X16960969Y-53064523D01*
X16829177Y-53219680D01*
X16829170Y-53219690D01*
X16625318Y-53520348D01*
X16625316Y-53520352D01*
X16455161Y-53841297D01*
X16455152Y-53841315D01*
X16320697Y-54178772D01*
X16320695Y-54178779D01*
X16223519Y-54528777D01*
X16223517Y-54528785D01*
X16164746Y-54887271D01*
X16145080Y-55249997D01*
X15200500Y-55249997D01*
X15200500Y-38177135D01*
X103749500Y-38177135D01*
X103749500Y-39972870D01*
X103749501Y-39972876D01*
X103755908Y-40032483D01*
X103806202Y-40167328D01*
X103806206Y-40167335D01*
X103892452Y-40282544D01*
X103892455Y-40282547D01*
X104007664Y-40368793D01*
X104007671Y-40368797D01*
X104142517Y-40419091D01*
X104142516Y-40419091D01*
X104149444Y-40419835D01*
X104202127Y-40425500D01*
X105997872Y-40425499D01*
X106057483Y-40419091D01*
X106192331Y-40368796D01*
X106307546Y-40282546D01*
X106393796Y-40167331D01*
X106444091Y-40032483D01*
X106450500Y-39972873D01*
X106450500Y-39824500D01*
X106470185Y-39757461D01*
X106522989Y-39711706D01*
X106574500Y-39700500D01*
X116064548Y-39700500D01*
X116131587Y-39720185D01*
X116152229Y-39736819D01*
X117073787Y-40658378D01*
X117107272Y-40719701D01*
X117109326Y-40732174D01*
X117114630Y-40779249D01*
X117174210Y-40949521D01*
X117252794Y-41074586D01*
X117270184Y-41102262D01*
X117397738Y-41229816D01*
X117550478Y-41325789D01*
X117720745Y-41385368D01*
X117720750Y-41385369D01*
X117899996Y-41405565D01*
X117900000Y-41405565D01*
X117900004Y-41405565D01*
X118079249Y-41385369D01*
X118079252Y-41385368D01*
X118079255Y-41385368D01*
X118249522Y-41325789D01*
X118402262Y-41229816D01*
X118529816Y-41102262D01*
X118625789Y-40949522D01*
X118685368Y-40779255D01*
X118692078Y-40719701D01*
X118705565Y-40600003D01*
X118705565Y-40599996D01*
X118685369Y-40420750D01*
X118685368Y-40420745D01*
X118633147Y-40271506D01*
X118625789Y-40250478D01*
X118529816Y-40097738D01*
X118402262Y-39970184D01*
X118351718Y-39938425D01*
X118249521Y-39874210D01*
X118079249Y-39814630D01*
X118032174Y-39809326D01*
X117967760Y-39782259D01*
X117958378Y-39773787D01*
X116867928Y-38683338D01*
X116867925Y-38683334D01*
X116867925Y-38683335D01*
X116860858Y-38676268D01*
X116860858Y-38676267D01*
X116773733Y-38589142D01*
X116773732Y-38589141D01*
X116773731Y-38589140D01*
X116722509Y-38554915D01*
X116671287Y-38520689D01*
X116671286Y-38520688D01*
X116671283Y-38520686D01*
X116671280Y-38520685D01*
X116590792Y-38487347D01*
X116557453Y-38473537D01*
X116547427Y-38471543D01*
X116497029Y-38461518D01*
X116436610Y-38449500D01*
X116436607Y-38449500D01*
X116436606Y-38449500D01*
X106574499Y-38449500D01*
X106507460Y-38429815D01*
X106461705Y-38377011D01*
X106450499Y-38325500D01*
X106450499Y-38177129D01*
X106450498Y-38177123D01*
X106450497Y-38177116D01*
X106444091Y-38117517D01*
X106393796Y-37982669D01*
X106393795Y-37982668D01*
X106393793Y-37982664D01*
X106307547Y-37867455D01*
X106307544Y-37867452D01*
X106192335Y-37781206D01*
X106192328Y-37781202D01*
X106060401Y-37731997D01*
X106004467Y-37690126D01*
X106001920Y-37683297D01*
X125420255Y-37683297D01*
X125420779Y-37683626D01*
X125581165Y-37739748D01*
X125749996Y-37758771D01*
X125750004Y-37758771D01*
X125918836Y-37739748D01*
X126079215Y-37683629D01*
X126079221Y-37683627D01*
X126079744Y-37683298D01*
X126079744Y-37683297D01*
X125750001Y-37353553D01*
X125750000Y-37353553D01*
X125420255Y-37683297D01*
X106001920Y-37683297D01*
X105980050Y-37624662D01*
X105994902Y-37556389D01*
X106016053Y-37528133D01*
X106138108Y-37406078D01*
X106273600Y-37212578D01*
X106372728Y-36999996D01*
X124991229Y-36999996D01*
X124991229Y-37000003D01*
X125010251Y-37168836D01*
X125066371Y-37329219D01*
X125066700Y-37329744D01*
X125396446Y-37000000D01*
X125371184Y-36974738D01*
X125623000Y-36974738D01*
X125623000Y-37025262D01*
X125642335Y-37071940D01*
X125678060Y-37107665D01*
X125724738Y-37127000D01*
X125775262Y-37127000D01*
X125821940Y-37107665D01*
X125857665Y-37071940D01*
X125877000Y-37025262D01*
X125877000Y-36999999D01*
X126103553Y-36999999D01*
X126103553Y-37000000D01*
X126433297Y-37329744D01*
X126433298Y-37329744D01*
X126433627Y-37329221D01*
X126433629Y-37329215D01*
X126489748Y-37168836D01*
X126508771Y-37000003D01*
X126508771Y-36999996D01*
X126489748Y-36831165D01*
X126433625Y-36670774D01*
X126430609Y-36664509D01*
X126432157Y-36663763D01*
X126431190Y-36660341D01*
X126409572Y-36693980D01*
X126103553Y-36999999D01*
X125877000Y-36999999D01*
X125877000Y-36974738D01*
X125857665Y-36928060D01*
X125821940Y-36892335D01*
X125775262Y-36873000D01*
X125724738Y-36873000D01*
X125678060Y-36892335D01*
X125642335Y-36928060D01*
X125623000Y-36974738D01*
X125371184Y-36974738D01*
X125090426Y-36693980D01*
X125070062Y-36656686D01*
X125067957Y-36663868D01*
X125069368Y-36664546D01*
X125066374Y-36670774D01*
X125010251Y-36831165D01*
X124991229Y-36999996D01*
X106372728Y-36999996D01*
X106373429Y-36998492D01*
X106373432Y-36998486D01*
X106430636Y-36785000D01*
X105533012Y-36785000D01*
X105565925Y-36727993D01*
X105598533Y-36606299D01*
X125709853Y-36606299D01*
X125750000Y-36646446D01*
X125790146Y-36606301D01*
X125790146Y-36606300D01*
X125750000Y-36566153D01*
X125709853Y-36606299D01*
X105598533Y-36606299D01*
X105600000Y-36600826D01*
X105600000Y-36469174D01*
X105565925Y-36342007D01*
X105533012Y-36285000D01*
X106430636Y-36285000D01*
X106430635Y-36284999D01*
X106411235Y-36212596D01*
X124991229Y-36212596D01*
X124991229Y-36212603D01*
X125010251Y-36381436D01*
X125066372Y-36541821D01*
X125069381Y-36548075D01*
X125067850Y-36548811D01*
X125068817Y-36552240D01*
X125090426Y-36518617D01*
X125396445Y-36212599D01*
X125371184Y-36187338D01*
X125623000Y-36187338D01*
X125623000Y-36237862D01*
X125642335Y-36284540D01*
X125678060Y-36320265D01*
X125724738Y-36339600D01*
X125775262Y-36339600D01*
X125821940Y-36320265D01*
X125857665Y-36284540D01*
X125877000Y-36237862D01*
X125877000Y-36212599D01*
X126103553Y-36212599D01*
X126103553Y-36212600D01*
X126409572Y-36518618D01*
X126429983Y-36555997D01*
X126432092Y-36548825D01*
X126430598Y-36548105D01*
X126433629Y-36541815D01*
X126489748Y-36381436D01*
X126508771Y-36212603D01*
X126508771Y-36212596D01*
X126489748Y-36043765D01*
X126433625Y-35883374D01*
X126430609Y-35877109D01*
X126432157Y-35876363D01*
X126431190Y-35872941D01*
X126409572Y-35906580D01*
X126103553Y-36212599D01*
X125877000Y-36212599D01*
X125877000Y-36187338D01*
X125857665Y-36140660D01*
X125821940Y-36104935D01*
X125775262Y-36085600D01*
X125724738Y-36085600D01*
X125678060Y-36104935D01*
X125642335Y-36140660D01*
X125623000Y-36187338D01*
X125371184Y-36187338D01*
X125090426Y-35906580D01*
X125070062Y-35869286D01*
X125067957Y-35876468D01*
X125069368Y-35877146D01*
X125066374Y-35883374D01*
X125010251Y-36043765D01*
X124991229Y-36212596D01*
X106411235Y-36212596D01*
X106373432Y-36071513D01*
X106373429Y-36071507D01*
X106273600Y-35857422D01*
X106273599Y-35857420D01*
X106246626Y-35818899D01*
X125709853Y-35818899D01*
X125750000Y-35859046D01*
X125790146Y-35818901D01*
X125790146Y-35818900D01*
X125750000Y-35778753D01*
X125709853Y-35818899D01*
X106246626Y-35818899D01*
X106138113Y-35663926D01*
X106138108Y-35663920D01*
X105971082Y-35496894D01*
X105868688Y-35425196D01*
X124991229Y-35425196D01*
X124991229Y-35425203D01*
X125010251Y-35594036D01*
X125066372Y-35754421D01*
X125069381Y-35760675D01*
X125067850Y-35761411D01*
X125068817Y-35764840D01*
X125090426Y-35731217D01*
X125396445Y-35425199D01*
X125371184Y-35399938D01*
X125623000Y-35399938D01*
X125623000Y-35450462D01*
X125642335Y-35497140D01*
X125678060Y-35532865D01*
X125724738Y-35552200D01*
X125775262Y-35552200D01*
X125821940Y-35532865D01*
X125857665Y-35497140D01*
X125877000Y-35450462D01*
X125877000Y-35425200D01*
X126103553Y-35425200D01*
X126409572Y-35731218D01*
X126429983Y-35768597D01*
X126432092Y-35761425D01*
X126430598Y-35760705D01*
X126433629Y-35754415D01*
X126489748Y-35594036D01*
X126508771Y-35425203D01*
X126508771Y-35425196D01*
X126489748Y-35256365D01*
X126433626Y-35095979D01*
X126433297Y-35095455D01*
X126103553Y-35425200D01*
X125877000Y-35425200D01*
X125877000Y-35399938D01*
X125857665Y-35353260D01*
X125821940Y-35317535D01*
X125775262Y-35298200D01*
X125724738Y-35298200D01*
X125678060Y-35317535D01*
X125642335Y-35353260D01*
X125623000Y-35399938D01*
X125371184Y-35399938D01*
X125066701Y-35095455D01*
X125066372Y-35095980D01*
X125010251Y-35256365D01*
X124991229Y-35425196D01*
X105868688Y-35425196D01*
X105777578Y-35361399D01*
X105563492Y-35261570D01*
X105563486Y-35261567D01*
X105350000Y-35204364D01*
X105350000Y-36101988D01*
X105292993Y-36069075D01*
X105165826Y-36035000D01*
X105034174Y-36035000D01*
X104907007Y-36069075D01*
X104850000Y-36101988D01*
X104850000Y-35204364D01*
X104849999Y-35204364D01*
X104636513Y-35261567D01*
X104636507Y-35261570D01*
X104422422Y-35361399D01*
X104422420Y-35361400D01*
X104228926Y-35496886D01*
X104228920Y-35496891D01*
X104061891Y-35663920D01*
X104061886Y-35663926D01*
X103926400Y-35857420D01*
X103926399Y-35857422D01*
X103826570Y-36071507D01*
X103826567Y-36071513D01*
X103769364Y-36284999D01*
X103769364Y-36285000D01*
X104666988Y-36285000D01*
X104634075Y-36342007D01*
X104600000Y-36469174D01*
X104600000Y-36600826D01*
X104634075Y-36727993D01*
X104666988Y-36785000D01*
X103769364Y-36785000D01*
X103826567Y-36998486D01*
X103826570Y-36998492D01*
X103926399Y-37212578D01*
X104061894Y-37406082D01*
X104183946Y-37528134D01*
X104217431Y-37589457D01*
X104212447Y-37659149D01*
X104170575Y-37715082D01*
X104139598Y-37731997D01*
X104007671Y-37781202D01*
X104007664Y-37781206D01*
X103892455Y-37867452D01*
X103892452Y-37867455D01*
X103806206Y-37982664D01*
X103806202Y-37982671D01*
X103755908Y-38117517D01*
X103749501Y-38177116D01*
X103749501Y-38177123D01*
X103749500Y-38177135D01*
X15200500Y-38177135D01*
X15200500Y-34741901D01*
X125420255Y-34741901D01*
X125750000Y-35071646D01*
X125750001Y-35071646D01*
X126079744Y-34741900D01*
X126079219Y-34741571D01*
X125918836Y-34685451D01*
X125750004Y-34666429D01*
X125749996Y-34666429D01*
X125581165Y-34685451D01*
X125420780Y-34741572D01*
X125420255Y-34741901D01*
X15200500Y-34741901D01*
X15200500Y-26324996D01*
X114544435Y-26324996D01*
X114544435Y-26325003D01*
X114564630Y-26504249D01*
X114564631Y-26504254D01*
X114624211Y-26674523D01*
X114720184Y-26827262D01*
X114847738Y-26954816D01*
X115000478Y-27050789D01*
X115071098Y-27075500D01*
X115170745Y-27110368D01*
X115170750Y-27110369D01*
X115349996Y-27130565D01*
X115350000Y-27130565D01*
X115350004Y-27130565D01*
X115529249Y-27110369D01*
X115529252Y-27110368D01*
X115529255Y-27110368D01*
X115609017Y-27082457D01*
X115649972Y-27075500D01*
X116350028Y-27075500D01*
X116390983Y-27082458D01*
X116470745Y-27110368D01*
X116470750Y-27110369D01*
X116649996Y-27130565D01*
X116650000Y-27130565D01*
X116650004Y-27130565D01*
X116829249Y-27110369D01*
X116829252Y-27110368D01*
X116829255Y-27110368D01*
X116999522Y-27050789D01*
X117152262Y-26954816D01*
X117279816Y-26827262D01*
X117375789Y-26674522D01*
X117435368Y-26504255D01*
X117435369Y-26504249D01*
X117455565Y-26325003D01*
X117455565Y-26324996D01*
X117435369Y-26145750D01*
X117435368Y-26145745D01*
X117375788Y-25975476D01*
X117336582Y-25913080D01*
X117279816Y-25822738D01*
X117152262Y-25695184D01*
X116999523Y-25599211D01*
X116829254Y-25539631D01*
X116829249Y-25539630D01*
X116650004Y-25519435D01*
X116649996Y-25519435D01*
X116470750Y-25539630D01*
X116470745Y-25539631D01*
X116390983Y-25567542D01*
X116350028Y-25574500D01*
X115649972Y-25574500D01*
X115609017Y-25567542D01*
X115529254Y-25539631D01*
X115529249Y-25539630D01*
X115350004Y-25519435D01*
X115349996Y-25519435D01*
X115170750Y-25539630D01*
X115170745Y-25539631D01*
X115000476Y-25599211D01*
X114847737Y-25695184D01*
X114720184Y-25822737D01*
X114624211Y-25975476D01*
X114564631Y-26145745D01*
X114564630Y-26145750D01*
X114544435Y-26324996D01*
X15200500Y-26324996D01*
X15200500Y-23749996D01*
X116344435Y-23749996D01*
X116344435Y-23750003D01*
X116364630Y-23929249D01*
X116364631Y-23929254D01*
X116424211Y-24099523D01*
X116520184Y-24252262D01*
X116647738Y-24379816D01*
X116671117Y-24394506D01*
X116756234Y-24447989D01*
X116800478Y-24475789D01*
X116970745Y-24535368D01*
X116970750Y-24535369D01*
X117149996Y-24555565D01*
X117150000Y-24555565D01*
X117150004Y-24555565D01*
X117329249Y-24535369D01*
X117329252Y-24535368D01*
X117329255Y-24535368D01*
X117499522Y-24475789D01*
X117628883Y-24394505D01*
X117694855Y-24375500D01*
X122311130Y-24375500D01*
X122378169Y-24395185D01*
X122423924Y-24447989D01*
X122433868Y-24517147D01*
X122425792Y-24543653D01*
X122426511Y-24543905D01*
X122364631Y-24720745D01*
X122364630Y-24720750D01*
X122344435Y-24899996D01*
X122344435Y-24900003D01*
X122364630Y-25079249D01*
X122364631Y-25079254D01*
X122424211Y-25249524D01*
X122505493Y-25378881D01*
X122524500Y-25444854D01*
X122524500Y-27611607D01*
X122525653Y-27617405D01*
X122519424Y-27686996D01*
X122476560Y-27742173D01*
X122444991Y-27758635D01*
X122400476Y-27774211D01*
X122400475Y-27774212D01*
X122247737Y-27870184D01*
X122120184Y-27997737D01*
X122024211Y-28150476D01*
X121964631Y-28320745D01*
X121964630Y-28320750D01*
X121944435Y-28499996D01*
X121944435Y-28500003D01*
X121964630Y-28679249D01*
X121964631Y-28679254D01*
X122024211Y-28849523D01*
X122120184Y-29002262D01*
X122247738Y-29129816D01*
X122400478Y-29225789D01*
X122406754Y-29228811D01*
X122405867Y-29230651D01*
X122441940Y-29253307D01*
X127246692Y-34058059D01*
X127269358Y-34094125D01*
X127271188Y-34093244D01*
X127274209Y-34099518D01*
X127274211Y-34099522D01*
X127355494Y-34228883D01*
X127374500Y-34294854D01*
X127374500Y-35054074D01*
X127398535Y-35174907D01*
X127398540Y-35174924D01*
X127445685Y-35288744D01*
X127445687Y-35288748D01*
X127467068Y-35320745D01*
X127467069Y-35320747D01*
X127514141Y-35391195D01*
X127514144Y-35391199D01*
X127605586Y-35482641D01*
X127605608Y-35482661D01*
X135977556Y-43854609D01*
X136011041Y-43915932D01*
X136013095Y-43928405D01*
X136018399Y-43975480D01*
X136077979Y-44145752D01*
X136173953Y-44298493D01*
X136301507Y-44426047D01*
X136454247Y-44522020D01*
X136624514Y-44581599D01*
X136624519Y-44581600D01*
X136803765Y-44601796D01*
X136803769Y-44601796D01*
X136803773Y-44601796D01*
X136983018Y-44581600D01*
X136983021Y-44581599D01*
X136983024Y-44581599D01*
X137153291Y-44522020D01*
X137306031Y-44426047D01*
X137433585Y-44298493D01*
X137529558Y-44145753D01*
X137589137Y-43975486D01*
X137595847Y-43915932D01*
X137609334Y-43796234D01*
X137609334Y-43796227D01*
X137589138Y-43616981D01*
X137589137Y-43616976D01*
X137529557Y-43446707D01*
X137433584Y-43293968D01*
X137306031Y-43166415D01*
X137153290Y-43070441D01*
X136983018Y-43010861D01*
X136935941Y-43005557D01*
X136871528Y-42978490D01*
X136862145Y-42970018D01*
X130229308Y-36337181D01*
X130195823Y-36275858D01*
X130200807Y-36206166D01*
X130242679Y-36150233D01*
X130308143Y-36125816D01*
X130316989Y-36125500D01*
X147751608Y-36125500D01*
X147751608Y-36125499D01*
X147815978Y-36112696D01*
X147815979Y-36112696D01*
X147835150Y-36108882D01*
X147872452Y-36101463D01*
X147905792Y-36087652D01*
X147977448Y-36057972D01*
X148046912Y-36050506D01*
X148109391Y-36081781D01*
X148145043Y-36141871D01*
X148148422Y-36183340D01*
X148144341Y-36229994D01*
X148144341Y-36230000D01*
X148164936Y-36465403D01*
X148164938Y-36465413D01*
X148226094Y-36693655D01*
X148226096Y-36693659D01*
X148226097Y-36693663D01*
X148318740Y-36892335D01*
X148325965Y-36907830D01*
X148325967Y-36907834D01*
X148461501Y-37101395D01*
X148461506Y-37101402D01*
X148628597Y-37268493D01*
X148628603Y-37268498D01*
X148814158Y-37398425D01*
X148857783Y-37453002D01*
X148864977Y-37522500D01*
X148833454Y-37584855D01*
X148814158Y-37601575D01*
X148628597Y-37731505D01*
X148461505Y-37898597D01*
X148325965Y-38092169D01*
X148325964Y-38092171D01*
X148226098Y-38306335D01*
X148226094Y-38306344D01*
X148164938Y-38534586D01*
X148164936Y-38534596D01*
X148144341Y-38769999D01*
X148144341Y-38770000D01*
X148164936Y-39005403D01*
X148164938Y-39005413D01*
X148226094Y-39233655D01*
X148226096Y-39233659D01*
X148226097Y-39233663D01*
X148325965Y-39447830D01*
X148325967Y-39447834D01*
X148461501Y-39641395D01*
X148461506Y-39641402D01*
X148628597Y-39808493D01*
X148628603Y-39808498D01*
X148814158Y-39938425D01*
X148857783Y-39993002D01*
X148864977Y-40062500D01*
X148833454Y-40124855D01*
X148814158Y-40141575D01*
X148628597Y-40271505D01*
X148461505Y-40438597D01*
X148325965Y-40632169D01*
X148325964Y-40632171D01*
X148226098Y-40846335D01*
X148226094Y-40846344D01*
X148164938Y-41074586D01*
X148164936Y-41074596D01*
X148144341Y-41309999D01*
X148144341Y-41310000D01*
X148164936Y-41545403D01*
X148164938Y-41545413D01*
X148226094Y-41773655D01*
X148226096Y-41773659D01*
X148226097Y-41773663D01*
X148325965Y-41987830D01*
X148325967Y-41987834D01*
X148461501Y-42181395D01*
X148461506Y-42181402D01*
X148628597Y-42348493D01*
X148628603Y-42348498D01*
X148814158Y-42478425D01*
X148857783Y-42533002D01*
X148864977Y-42602500D01*
X148833454Y-42664855D01*
X148814158Y-42681575D01*
X148628597Y-42811505D01*
X148461505Y-42978597D01*
X148325965Y-43172169D01*
X148325964Y-43172171D01*
X148226098Y-43386335D01*
X148226094Y-43386344D01*
X148164938Y-43614586D01*
X148164936Y-43614596D01*
X148144341Y-43849999D01*
X148144341Y-43850000D01*
X148164936Y-44085403D01*
X148164938Y-44085413D01*
X148226094Y-44313655D01*
X148226096Y-44313659D01*
X148226097Y-44313663D01*
X148278502Y-44426046D01*
X148325965Y-44527830D01*
X148325967Y-44527834D01*
X148461501Y-44721395D01*
X148461506Y-44721402D01*
X148628597Y-44888493D01*
X148628603Y-44888498D01*
X148814158Y-45018425D01*
X148857783Y-45073002D01*
X148864977Y-45142500D01*
X148833454Y-45204855D01*
X148814158Y-45221575D01*
X148628597Y-45351505D01*
X148461505Y-45518597D01*
X148325965Y-45712169D01*
X148325964Y-45712171D01*
X148226098Y-45926335D01*
X148226094Y-45926344D01*
X148164938Y-46154586D01*
X148164936Y-46154596D01*
X148144341Y-46389999D01*
X148144341Y-46390000D01*
X148164936Y-46625403D01*
X148164938Y-46625413D01*
X148226094Y-46853655D01*
X148226096Y-46853659D01*
X148226097Y-46853663D01*
X148325965Y-47067830D01*
X148325967Y-47067834D01*
X148461501Y-47261395D01*
X148461506Y-47261402D01*
X148628597Y-47428493D01*
X148628603Y-47428498D01*
X148814594Y-47558730D01*
X148858219Y-47613307D01*
X148865413Y-47682805D01*
X148833890Y-47745160D01*
X148814595Y-47761880D01*
X148628922Y-47891890D01*
X148628920Y-47891891D01*
X148461891Y-48058920D01*
X148461886Y-48058926D01*
X148326400Y-48252420D01*
X148326399Y-48252422D01*
X148226570Y-48466507D01*
X148226567Y-48466513D01*
X148169364Y-48679999D01*
X148169364Y-48680000D01*
X149066988Y-48680000D01*
X149034075Y-48737007D01*
X149000000Y-48864174D01*
X149000000Y-48995826D01*
X149034075Y-49122993D01*
X149066988Y-49180000D01*
X148169364Y-49180000D01*
X148226567Y-49393486D01*
X148226570Y-49393492D01*
X148326399Y-49607578D01*
X148461894Y-49801082D01*
X148628917Y-49968105D01*
X148822421Y-50103600D01*
X149036507Y-50203429D01*
X149036516Y-50203433D01*
X149250000Y-50260634D01*
X149250000Y-49363012D01*
X149307007Y-49395925D01*
X149434174Y-49430000D01*
X149565826Y-49430000D01*
X149692993Y-49395925D01*
X149750000Y-49363012D01*
X149750000Y-50260633D01*
X149963483Y-50203433D01*
X149963492Y-50203429D01*
X150177578Y-50103600D01*
X150371082Y-49968105D01*
X150538105Y-49801082D01*
X150673600Y-49607578D01*
X150773429Y-49393492D01*
X150773432Y-49393486D01*
X150830636Y-49180000D01*
X149933012Y-49180000D01*
X149965925Y-49122993D01*
X150000000Y-48995826D01*
X150000000Y-48864174D01*
X149965925Y-48737007D01*
X149933012Y-48680000D01*
X150830636Y-48680000D01*
X150830635Y-48679999D01*
X150773432Y-48466513D01*
X150773429Y-48466507D01*
X150673600Y-48252422D01*
X150673599Y-48252420D01*
X150538113Y-48058926D01*
X150538108Y-48058920D01*
X150371078Y-47891890D01*
X150185405Y-47761879D01*
X150141780Y-47707302D01*
X150134588Y-47637804D01*
X150166110Y-47575449D01*
X150185406Y-47558730D01*
X150371401Y-47428495D01*
X150538495Y-47261401D01*
X150674035Y-47067830D01*
X150773903Y-46853663D01*
X150835063Y-46625408D01*
X150855659Y-46390000D01*
X150835063Y-46154592D01*
X150773903Y-45926337D01*
X150674035Y-45712171D01*
X150538495Y-45518599D01*
X150538494Y-45518597D01*
X150371402Y-45351506D01*
X150371396Y-45351501D01*
X150185842Y-45221575D01*
X150142217Y-45166998D01*
X150135023Y-45097500D01*
X150166546Y-45035145D01*
X150185842Y-45018425D01*
X150208026Y-45002891D01*
X150371401Y-44888495D01*
X150538495Y-44721401D01*
X150674035Y-44527830D01*
X150773903Y-44313663D01*
X150835063Y-44085408D01*
X150855659Y-43850000D01*
X150835063Y-43614592D01*
X150773903Y-43386337D01*
X150674035Y-43172171D01*
X150602804Y-43070441D01*
X150538494Y-42978597D01*
X150371402Y-42811506D01*
X150371396Y-42811501D01*
X150185842Y-42681575D01*
X150142217Y-42626998D01*
X150135023Y-42557500D01*
X150166546Y-42495145D01*
X150185842Y-42478425D01*
X150208026Y-42462891D01*
X150371401Y-42348495D01*
X150538495Y-42181401D01*
X150674035Y-41987830D01*
X150773903Y-41773663D01*
X150835063Y-41545408D01*
X150855659Y-41310000D01*
X150835063Y-41074592D01*
X150773903Y-40846337D01*
X150674035Y-40632171D01*
X150538495Y-40438599D01*
X150538494Y-40438597D01*
X150371402Y-40271506D01*
X150371396Y-40271501D01*
X150185842Y-40141575D01*
X150142217Y-40086998D01*
X150135023Y-40017500D01*
X150166546Y-39955145D01*
X150185842Y-39938425D01*
X150277550Y-39874210D01*
X150371401Y-39808495D01*
X150538495Y-39641401D01*
X150674035Y-39447830D01*
X150773903Y-39233663D01*
X150835063Y-39005408D01*
X150855659Y-38770000D01*
X150835063Y-38534592D01*
X150773903Y-38306337D01*
X150674035Y-38092171D01*
X150597362Y-37982669D01*
X150538494Y-37898597D01*
X150371402Y-37731506D01*
X150371396Y-37731501D01*
X150185842Y-37601575D01*
X150142217Y-37546998D01*
X150135023Y-37477500D01*
X150166546Y-37415145D01*
X150185842Y-37398425D01*
X150284684Y-37329215D01*
X150371401Y-37268495D01*
X150538495Y-37101401D01*
X150674035Y-36907830D01*
X150773903Y-36693663D01*
X150835063Y-36465408D01*
X150855659Y-36230000D01*
X150855658Y-36229994D01*
X150848680Y-36150233D01*
X150835063Y-35994592D01*
X150773903Y-35766337D01*
X150674035Y-35552171D01*
X150635325Y-35496886D01*
X150538494Y-35358597D01*
X150371402Y-35191506D01*
X150371396Y-35191501D01*
X150185842Y-35061575D01*
X150142217Y-35006998D01*
X150135023Y-34937500D01*
X150166546Y-34875145D01*
X150185842Y-34858425D01*
X150266409Y-34802011D01*
X150371401Y-34728495D01*
X150538495Y-34561401D01*
X150674035Y-34367830D01*
X150773903Y-34153663D01*
X150835063Y-33925408D01*
X150855659Y-33690000D01*
X150835063Y-33454592D01*
X150773903Y-33226337D01*
X150674035Y-33012171D01*
X150640748Y-32964631D01*
X150538494Y-32818597D01*
X150371402Y-32651506D01*
X150371396Y-32651501D01*
X150185842Y-32521575D01*
X150142217Y-32466998D01*
X150135023Y-32397500D01*
X150166546Y-32335145D01*
X150185842Y-32318425D01*
X150208026Y-32302891D01*
X150371401Y-32188495D01*
X150538495Y-32021401D01*
X150674035Y-31827830D01*
X150773903Y-31613663D01*
X150835063Y-31385408D01*
X150855659Y-31150000D01*
X150835063Y-30914592D01*
X150773903Y-30686337D01*
X150674035Y-30472171D01*
X150538495Y-30278599D01*
X150538494Y-30278597D01*
X150371402Y-30111506D01*
X150371396Y-30111501D01*
X150185842Y-29981575D01*
X150142217Y-29926998D01*
X150135023Y-29857500D01*
X150166546Y-29795145D01*
X150185842Y-29778425D01*
X150208026Y-29762891D01*
X150371401Y-29648495D01*
X150538495Y-29481401D01*
X150674035Y-29287830D01*
X150773903Y-29073663D01*
X150835063Y-28845408D01*
X150855659Y-28610000D01*
X150835063Y-28374592D01*
X150773903Y-28146337D01*
X150674035Y-27932171D01*
X150630631Y-27870184D01*
X150538496Y-27738600D01*
X150486892Y-27686996D01*
X150416179Y-27616283D01*
X150382696Y-27554963D01*
X150387680Y-27485271D01*
X150429551Y-27429337D01*
X150460529Y-27412422D01*
X150592086Y-27363354D01*
X150592093Y-27363350D01*
X150707187Y-27277190D01*
X150707190Y-27277187D01*
X150793350Y-27162093D01*
X150793354Y-27162086D01*
X150843596Y-27027379D01*
X150843598Y-27027372D01*
X150849999Y-26967844D01*
X150850000Y-26967827D01*
X150850000Y-26320000D01*
X149933012Y-26320000D01*
X149965925Y-26262993D01*
X150000000Y-26135826D01*
X150000000Y-26004174D01*
X149965925Y-25877007D01*
X149933012Y-25820000D01*
X150850000Y-25820000D01*
X150850000Y-25172172D01*
X150849999Y-25172155D01*
X150843598Y-25112627D01*
X150843596Y-25112620D01*
X150793354Y-24977913D01*
X150793350Y-24977906D01*
X150707190Y-24862812D01*
X150707187Y-24862809D01*
X150592093Y-24776649D01*
X150592086Y-24776645D01*
X150457379Y-24726403D01*
X150457372Y-24726401D01*
X150397844Y-24720000D01*
X149750000Y-24720000D01*
X149750000Y-25636988D01*
X149692993Y-25604075D01*
X149565826Y-25570000D01*
X149434174Y-25570000D01*
X149307007Y-25604075D01*
X149250000Y-25636988D01*
X149250000Y-24720000D01*
X148602155Y-24720000D01*
X148542627Y-24726401D01*
X148542620Y-24726403D01*
X148407913Y-24776645D01*
X148407906Y-24776649D01*
X148292812Y-24862809D01*
X148292809Y-24862812D01*
X148206649Y-24977906D01*
X148206645Y-24977913D01*
X148156403Y-25112620D01*
X148156401Y-25112627D01*
X148150000Y-25172155D01*
X148150000Y-25820000D01*
X149066988Y-25820000D01*
X149034075Y-25877007D01*
X149000000Y-26004174D01*
X149000000Y-26135826D01*
X149034075Y-26262993D01*
X149066988Y-26320000D01*
X148150000Y-26320000D01*
X148150000Y-26967844D01*
X148156401Y-27027372D01*
X148156403Y-27027379D01*
X148206645Y-27162086D01*
X148206649Y-27162093D01*
X148292809Y-27277187D01*
X148292812Y-27277190D01*
X148407906Y-27363350D01*
X148407913Y-27363354D01*
X148539470Y-27412421D01*
X148595403Y-27454292D01*
X148619821Y-27519756D01*
X148604970Y-27588029D01*
X148583819Y-27616284D01*
X148461503Y-27738600D01*
X148325965Y-27932169D01*
X148325964Y-27932171D01*
X148226098Y-28146335D01*
X148226094Y-28146344D01*
X148164938Y-28374586D01*
X148164936Y-28374596D01*
X148144341Y-28609999D01*
X148144341Y-28610000D01*
X148164936Y-28845403D01*
X148164938Y-28845413D01*
X148226094Y-29073655D01*
X148226096Y-29073659D01*
X148226097Y-29073663D01*
X148252282Y-29129816D01*
X148325965Y-29287830D01*
X148325967Y-29287834D01*
X148461501Y-29481395D01*
X148461506Y-29481402D01*
X148628597Y-29648493D01*
X148628603Y-29648498D01*
X148814158Y-29778425D01*
X148857783Y-29833002D01*
X148864977Y-29902500D01*
X148833454Y-29964855D01*
X148814158Y-29981575D01*
X148628597Y-30111505D01*
X148461505Y-30278597D01*
X148325965Y-30472169D01*
X148325964Y-30472171D01*
X148226098Y-30686335D01*
X148226094Y-30686344D01*
X148164938Y-30914586D01*
X148164936Y-30914596D01*
X148144341Y-31149999D01*
X148144341Y-31150000D01*
X148164936Y-31385403D01*
X148164938Y-31385413D01*
X148191856Y-31485872D01*
X148190193Y-31555722D01*
X148159762Y-31605646D01*
X146677229Y-33088181D01*
X146615906Y-33121666D01*
X146589548Y-33124500D01*
X135644855Y-33124500D01*
X135578883Y-33105494D01*
X135449523Y-33024211D01*
X135279254Y-32964631D01*
X135279249Y-32964630D01*
X135100004Y-32944435D01*
X135099996Y-32944435D01*
X134920750Y-32964630D01*
X134920745Y-32964631D01*
X134750476Y-33024211D01*
X134621117Y-33105494D01*
X134555145Y-33124500D01*
X130860452Y-33124500D01*
X130793413Y-33104815D01*
X130772771Y-33088181D01*
X124336819Y-26652229D01*
X124303334Y-26590906D01*
X124300500Y-26564548D01*
X124300500Y-24609448D01*
X136899500Y-24609448D01*
X136899500Y-24790551D01*
X136927829Y-24969410D01*
X136983787Y-25141636D01*
X136983788Y-25141639D01*
X137066006Y-25302997D01*
X137172441Y-25449494D01*
X137172445Y-25449499D01*
X137300500Y-25577554D01*
X137300505Y-25577558D01*
X137427606Y-25669901D01*
X137447006Y-25683996D01*
X137552484Y-25737740D01*
X137608360Y-25766211D01*
X137608363Y-25766212D01*
X137694476Y-25794191D01*
X137780591Y-25822171D01*
X137863429Y-25835291D01*
X137959449Y-25850500D01*
X137959454Y-25850500D01*
X138140551Y-25850500D01*
X138227259Y-25836765D01*
X138319409Y-25822171D01*
X138491639Y-25766211D01*
X138652994Y-25683996D01*
X138799501Y-25577553D01*
X138927553Y-25449501D01*
X139033996Y-25302994D01*
X139116211Y-25141639D01*
X139172171Y-24969409D01*
X139189055Y-24862809D01*
X139200500Y-24790551D01*
X139200500Y-24609448D01*
X139184019Y-24505397D01*
X139172171Y-24430591D01*
X139116211Y-24258361D01*
X139116211Y-24258360D01*
X139035278Y-24099523D01*
X139033996Y-24097006D01*
X138960563Y-23995933D01*
X138927558Y-23950505D01*
X138927554Y-23950500D01*
X138799499Y-23822445D01*
X138799494Y-23822441D01*
X138652997Y-23716006D01*
X138652996Y-23716005D01*
X138652994Y-23716004D01*
X138598807Y-23688394D01*
X138491639Y-23633788D01*
X138491636Y-23633787D01*
X138319410Y-23577829D01*
X138140551Y-23549500D01*
X138140546Y-23549500D01*
X137959454Y-23549500D01*
X137959449Y-23549500D01*
X137780589Y-23577829D01*
X137608363Y-23633787D01*
X137608360Y-23633788D01*
X137447002Y-23716006D01*
X137300505Y-23822441D01*
X137300500Y-23822445D01*
X137172445Y-23950500D01*
X137172441Y-23950505D01*
X137066006Y-24097002D01*
X136983788Y-24258360D01*
X136983787Y-24258363D01*
X136927829Y-24430589D01*
X136899500Y-24609448D01*
X124300500Y-24609448D01*
X124300500Y-23995933D01*
X124291463Y-23950499D01*
X124276463Y-23875085D01*
X124262652Y-23841744D01*
X124229312Y-23761251D01*
X124180629Y-23688394D01*
X124160858Y-23658804D01*
X124160856Y-23658801D01*
X124070637Y-23568582D01*
X124070606Y-23568553D01*
X123857661Y-23355608D01*
X123857641Y-23355586D01*
X123766196Y-23264141D01*
X123714972Y-23229915D01*
X123663750Y-23195689D01*
X123663749Y-23195688D01*
X123663746Y-23195686D01*
X123663743Y-23195685D01*
X123583255Y-23162347D01*
X123549916Y-23148537D01*
X123539890Y-23146543D01*
X123489492Y-23136518D01*
X123429073Y-23124500D01*
X123429070Y-23124500D01*
X123429069Y-23124500D01*
X117694855Y-23124500D01*
X117628883Y-23105494D01*
X117499523Y-23024211D01*
X117329254Y-22964631D01*
X117329249Y-22964630D01*
X117150004Y-22944435D01*
X117149996Y-22944435D01*
X116970750Y-22964630D01*
X116970745Y-22964631D01*
X116800476Y-23024211D01*
X116647737Y-23120184D01*
X116520184Y-23247737D01*
X116424211Y-23400476D01*
X116364631Y-23570745D01*
X116364630Y-23570750D01*
X116344435Y-23749996D01*
X15200500Y-23749996D01*
X15200500Y-19749997D01*
X16145080Y-19749997D01*
X16145080Y-19750002D01*
X16164746Y-20112728D01*
X16223517Y-20471214D01*
X16223519Y-20471222D01*
X16320695Y-20821220D01*
X16320697Y-20821227D01*
X16455152Y-21158684D01*
X16455161Y-21158702D01*
X16625316Y-21479647D01*
X16625318Y-21479651D01*
X16829170Y-21780309D01*
X16829177Y-21780319D01*
X16960969Y-21935475D01*
X16960970Y-21935475D01*
X18205748Y-20690698D01*
X18279588Y-20792330D01*
X18457670Y-20970412D01*
X18559300Y-21044251D01*
X17311888Y-22291662D01*
X17311888Y-22291664D01*
X17328070Y-22306992D01*
X17328071Y-22306993D01*
X17617266Y-22526832D01*
X17617282Y-22526843D01*
X17928522Y-22714109D01*
X17928535Y-22714116D01*
X18258205Y-22866639D01*
X18258210Y-22866640D01*
X18602461Y-22982632D01*
X18957235Y-23060724D01*
X19318366Y-23099999D01*
X19318374Y-23100000D01*
X19681626Y-23100000D01*
X19681633Y-23099999D01*
X20042764Y-23060724D01*
X20397538Y-22982632D01*
X20741789Y-22866640D01*
X20741794Y-22866639D01*
X21071464Y-22714116D01*
X21071477Y-22714109D01*
X21382717Y-22526843D01*
X21382733Y-22526832D01*
X21671929Y-22306992D01*
X21688110Y-22291664D01*
X21688110Y-22291663D01*
X20440698Y-21044251D01*
X20542330Y-20970412D01*
X20720412Y-20792330D01*
X20794251Y-20690698D01*
X22039028Y-21935475D01*
X22039029Y-21935475D01*
X22170827Y-21780311D01*
X22170838Y-21780297D01*
X22374681Y-21479651D01*
X22374683Y-21479647D01*
X22544838Y-21158702D01*
X22544847Y-21158684D01*
X22679302Y-20821227D01*
X22679304Y-20821220D01*
X22776480Y-20471222D01*
X22776482Y-20471214D01*
X22805120Y-20296530D01*
X136999500Y-20296530D01*
X136999500Y-20503469D01*
X137039868Y-20706412D01*
X137039870Y-20706420D01*
X137119058Y-20897596D01*
X137234024Y-21069657D01*
X137380342Y-21215975D01*
X137380345Y-21215977D01*
X137552402Y-21330941D01*
X137743580Y-21410130D01*
X137946530Y-21450499D01*
X137946534Y-21450500D01*
X137946535Y-21450500D01*
X138153466Y-21450500D01*
X138153467Y-21450499D01*
X138356420Y-21410130D01*
X138547598Y-21330941D01*
X138719655Y-21215977D01*
X138865977Y-21069655D01*
X138980941Y-20897598D01*
X139060130Y-20706420D01*
X139100500Y-20503465D01*
X139100500Y-20296535D01*
X139060130Y-20093580D01*
X138980941Y-19902402D01*
X138879108Y-19749997D01*
X146145080Y-19749997D01*
X146145080Y-19750002D01*
X146164746Y-20112728D01*
X146223517Y-20471214D01*
X146223519Y-20471222D01*
X146320695Y-20821220D01*
X146320697Y-20821227D01*
X146455152Y-21158684D01*
X146455161Y-21158702D01*
X146625316Y-21479647D01*
X146625318Y-21479651D01*
X146829170Y-21780309D01*
X146829177Y-21780319D01*
X146960969Y-21935475D01*
X146960970Y-21935475D01*
X148205748Y-20690698D01*
X148279588Y-20792330D01*
X148457670Y-20970412D01*
X148559300Y-21044251D01*
X147311888Y-22291662D01*
X147311888Y-22291664D01*
X147328070Y-22306992D01*
X147328071Y-22306993D01*
X147617266Y-22526832D01*
X147617282Y-22526843D01*
X147928522Y-22714109D01*
X147928535Y-22714116D01*
X148258205Y-22866639D01*
X148258210Y-22866640D01*
X148602461Y-22982632D01*
X148957235Y-23060724D01*
X149318366Y-23099999D01*
X149318374Y-23100000D01*
X149681626Y-23100000D01*
X149681633Y-23099999D01*
X150042764Y-23060724D01*
X150397538Y-22982632D01*
X150741789Y-22866640D01*
X150741794Y-22866639D01*
X151071464Y-22714116D01*
X151071477Y-22714109D01*
X151382717Y-22526843D01*
X151382733Y-22526832D01*
X151671929Y-22306992D01*
X151688110Y-22291664D01*
X151688110Y-22291663D01*
X150440698Y-21044251D01*
X150542330Y-20970412D01*
X150720412Y-20792330D01*
X150794251Y-20690698D01*
X152039028Y-21935475D01*
X152039029Y-21935475D01*
X152170827Y-21780311D01*
X152170838Y-21780297D01*
X152374681Y-21479651D01*
X152374683Y-21479647D01*
X152544838Y-21158702D01*
X152544847Y-21158684D01*
X152679302Y-20821227D01*
X152679304Y-20821220D01*
X152776480Y-20471222D01*
X152776482Y-20471214D01*
X152835253Y-20112728D01*
X152854920Y-19750002D01*
X152854920Y-19749997D01*
X152835253Y-19387271D01*
X152776482Y-19028785D01*
X152776480Y-19028777D01*
X152679304Y-18678779D01*
X152679302Y-18678772D01*
X152544847Y-18341315D01*
X152544838Y-18341297D01*
X152374683Y-18020352D01*
X152374681Y-18020348D01*
X152170829Y-17719690D01*
X152170822Y-17719680D01*
X152039029Y-17564523D01*
X152039028Y-17564523D01*
X150794251Y-18809300D01*
X150720412Y-18707670D01*
X150542330Y-18529588D01*
X150440698Y-18455748D01*
X151688110Y-17208336D01*
X151688110Y-17208334D01*
X151671929Y-17193007D01*
X151671928Y-17193006D01*
X151382733Y-16973167D01*
X151382717Y-16973156D01*
X151071477Y-16785890D01*
X151071464Y-16785883D01*
X150741794Y-16633360D01*
X150741789Y-16633359D01*
X150397538Y-16517367D01*
X150042764Y-16439275D01*
X149681633Y-16400000D01*
X149318366Y-16400000D01*
X148957235Y-16439275D01*
X148602461Y-16517367D01*
X148258210Y-16633359D01*
X148258205Y-16633360D01*
X147928535Y-16785883D01*
X147928522Y-16785890D01*
X147617282Y-16973156D01*
X147617266Y-16973167D01*
X147328075Y-17193002D01*
X147311888Y-17208335D01*
X147311887Y-17208335D01*
X148559301Y-18455748D01*
X148457670Y-18529588D01*
X148279588Y-18707670D01*
X148205748Y-18809300D01*
X146960970Y-17564522D01*
X146960969Y-17564523D01*
X146829177Y-17719680D01*
X146829170Y-17719690D01*
X146625318Y-18020348D01*
X146625316Y-18020352D01*
X146455161Y-18341297D01*
X146455152Y-18341315D01*
X146320697Y-18678772D01*
X146320695Y-18678779D01*
X146223519Y-19028777D01*
X146223517Y-19028785D01*
X146164746Y-19387271D01*
X146145080Y-19749997D01*
X138879108Y-19749997D01*
X138865977Y-19730345D01*
X138865975Y-19730342D01*
X138719657Y-19584024D01*
X138633626Y-19526541D01*
X138547598Y-19469059D01*
X138356420Y-19389870D01*
X138356412Y-19389868D01*
X138153469Y-19349500D01*
X138153465Y-19349500D01*
X137946535Y-19349500D01*
X137946530Y-19349500D01*
X137743587Y-19389868D01*
X137743579Y-19389870D01*
X137552403Y-19469058D01*
X137380342Y-19584024D01*
X137234024Y-19730342D01*
X137119058Y-19902403D01*
X137039870Y-20093579D01*
X137039868Y-20093587D01*
X136999500Y-20296530D01*
X22805120Y-20296530D01*
X22835253Y-20112728D01*
X22854920Y-19750002D01*
X22854920Y-19749997D01*
X22835253Y-19387271D01*
X22776482Y-19028785D01*
X22776480Y-19028777D01*
X22679304Y-18678779D01*
X22679302Y-18678772D01*
X22544847Y-18341315D01*
X22544838Y-18341297D01*
X22374683Y-18020352D01*
X22374681Y-18020348D01*
X22170829Y-17719690D01*
X22170822Y-17719680D01*
X22039029Y-17564523D01*
X22039028Y-17564523D01*
X20794251Y-18809300D01*
X20720412Y-18707670D01*
X20542330Y-18529588D01*
X20440698Y-18455748D01*
X21688110Y-17208336D01*
X21688110Y-17208334D01*
X21671929Y-17193007D01*
X21671928Y-17193006D01*
X21382733Y-16973167D01*
X21382717Y-16973156D01*
X21071477Y-16785890D01*
X21071464Y-16785883D01*
X20741794Y-16633360D01*
X20741789Y-16633359D01*
X20397538Y-16517367D01*
X20042764Y-16439275D01*
X19681633Y-16400000D01*
X19318366Y-16400000D01*
X18957235Y-16439275D01*
X18602461Y-16517367D01*
X18258210Y-16633359D01*
X18258205Y-16633360D01*
X17928535Y-16785883D01*
X17928522Y-16785890D01*
X17617282Y-16973156D01*
X17617266Y-16973167D01*
X17328075Y-17193002D01*
X17311888Y-17208335D01*
X17311887Y-17208335D01*
X18559301Y-18455748D01*
X18457670Y-18529588D01*
X18279588Y-18707670D01*
X18205748Y-18809300D01*
X16960970Y-17564522D01*
X16960969Y-17564523D01*
X16829177Y-17719680D01*
X16829170Y-17719690D01*
X16625318Y-18020348D01*
X16625316Y-18020352D01*
X16455161Y-18341297D01*
X16455152Y-18341315D01*
X16320697Y-18678772D01*
X16320695Y-18678779D01*
X16223519Y-19028777D01*
X16223517Y-19028785D01*
X16164746Y-19387271D01*
X16145080Y-19749997D01*
X15200500Y-19749997D01*
X15200500Y-16006092D01*
X15201097Y-15993939D01*
X15209805Y-15905519D01*
X15214665Y-15856173D01*
X15219403Y-15832349D01*
X15257816Y-15705719D01*
X15267113Y-15683278D01*
X15329485Y-15566587D01*
X15342982Y-15546387D01*
X15426924Y-15444103D01*
X15444103Y-15426924D01*
X15546387Y-15342982D01*
X15566587Y-15329485D01*
X15683278Y-15267113D01*
X15705719Y-15257816D01*
X15832349Y-15219403D01*
X15856173Y-15214665D01*
X15985170Y-15201960D01*
X15993939Y-15201097D01*
X16006092Y-15200500D01*
X16039882Y-15200500D01*
X152960118Y-15200500D01*
X152993908Y-15200500D01*
X153006061Y-15201097D01*
G37*
%TD.AperFunction*%
%TD*%
M02*
