%TF.GenerationSoftware,KiCad,Pcbnew,8.0.5*%
%TF.CreationDate,2024-11-15T16:00:42-08:00*%
%TF.ProjectId,newbatt,6e657762-6174-4742-9e6b-696361645f70,3*%
%TF.SameCoordinates,Original*%
%TF.FileFunction,Paste,Top*%
%TF.FilePolarity,Positive*%
%FSLAX46Y46*%
G04 Gerber Fmt 4.6, Leading zero omitted, Abs format (unit mm)*
G04 Created by KiCad (PCBNEW 8.0.5) date 2024-11-15 16:00:42*
%MOMM*%
%LPD*%
G01*
G04 APERTURE LIST*
G04 Aperture macros list*
%AMRoundRect*
0 Rectangle with rounded corners*
0 $1 Rounding radius*
0 $2 $3 $4 $5 $6 $7 $8 $9 X,Y pos of 4 corners*
0 Add a 4 corners polygon primitive as box body*
4,1,4,$2,$3,$4,$5,$6,$7,$8,$9,$2,$3,0*
0 Add four circle primitives for the rounded corners*
1,1,$1+$1,$2,$3*
1,1,$1+$1,$4,$5*
1,1,$1+$1,$6,$7*
1,1,$1+$1,$8,$9*
0 Add four rect primitives between the rounded corners*
20,1,$1+$1,$2,$3,$4,$5,0*
20,1,$1+$1,$4,$5,$6,$7,0*
20,1,$1+$1,$6,$7,$8,$9,0*
20,1,$1+$1,$8,$9,$2,$3,0*%
G04 Aperture macros list end*
%ADD10C,0.000000*%
%ADD11R,2.200000X2.000000*%
%ADD12R,2.600000X1.900000*%
%ADD13R,2.000000X2.000000*%
%ADD14RoundRect,0.200000X-0.200000X-0.275000X0.200000X-0.275000X0.200000X0.275000X-0.200000X0.275000X0*%
%ADD15R,4.000000X5.000000*%
%ADD16R,1.200000X2.500000*%
%ADD17RoundRect,0.200000X0.275000X-0.200000X0.275000X0.200000X-0.275000X0.200000X-0.275000X-0.200000X0*%
%ADD18R,4.300000X3.300000*%
%ADD19R,4.300000X5.200000*%
%ADD20RoundRect,0.225000X-0.250000X0.225000X-0.250000X-0.225000X0.250000X-0.225000X0.250000X0.225000X0*%
%ADD21RoundRect,0.225000X0.225000X0.250000X-0.225000X0.250000X-0.225000X-0.250000X0.225000X-0.250000X0*%
%ADD22RoundRect,0.200000X-0.275000X0.200000X-0.275000X-0.200000X0.275000X-0.200000X0.275000X0.200000X0*%
%ADD23RoundRect,0.218750X-0.256250X0.218750X-0.256250X-0.218750X0.256250X-0.218750X0.256250X0.218750X0*%
%ADD24R,0.660400X0.304800*%
G04 APERTURE END LIST*
D10*
%TO.C,U1*%
G36*
X125650000Y-35183779D02*
G01*
X125508579Y-35325200D01*
X125355030Y-35325200D01*
X125355030Y-35030230D01*
X125650000Y-35030230D01*
X125650000Y-35183779D01*
G37*
G36*
X125650000Y-37241421D02*
G01*
X125650000Y-37394970D01*
X125355030Y-37394970D01*
X125355030Y-37100000D01*
X125508579Y-37100000D01*
X125650000Y-37241421D01*
G37*
G36*
X126144970Y-35325200D02*
G01*
X125991421Y-35325200D01*
X125850000Y-35183779D01*
X125850000Y-35030230D01*
X126144970Y-35030230D01*
X126144970Y-35325200D01*
G37*
G36*
X126144970Y-37394970D02*
G01*
X125850000Y-37394970D01*
X125850000Y-37241421D01*
X125991421Y-37100000D01*
X126144970Y-37100000D01*
X126144970Y-37394970D01*
G37*
G36*
X125650000Y-35666621D02*
G01*
X125650000Y-35971179D01*
X125508579Y-36112600D01*
X125355030Y-36112600D01*
X125355030Y-35525200D01*
X125508579Y-35525200D01*
X125650000Y-35666621D01*
G37*
G36*
X125650000Y-36454021D02*
G01*
X125650000Y-36758579D01*
X125508579Y-36900000D01*
X125355030Y-36900000D01*
X125355030Y-36312600D01*
X125508579Y-36312600D01*
X125650000Y-36454021D01*
G37*
G36*
X126144970Y-36112600D02*
G01*
X125991421Y-36112600D01*
X125850000Y-35971179D01*
X125850000Y-35666621D01*
X125991421Y-35525200D01*
X126144970Y-35525200D01*
X126144970Y-36112600D01*
G37*
G36*
X126144970Y-36900000D02*
G01*
X125991421Y-36900000D01*
X125850000Y-36758579D01*
X125850000Y-36454021D01*
X125991421Y-36312600D01*
X126144970Y-36312600D01*
X126144970Y-36900000D01*
G37*
%TD*%
D11*
%TO.C,J1*%
X143600000Y-26400000D03*
X143600000Y-20400000D03*
D12*
X132300000Y-20400000D03*
D13*
X132600000Y-26500000D03*
%TD*%
D14*
%TO.C,R15*%
X131075000Y-34500000D03*
X132725000Y-34500000D03*
%TD*%
D15*
%TO.C,F1*%
X111750000Y-45850000D03*
X111750000Y-28150000D03*
%TD*%
D16*
%TO.C,S1*%
X105700000Y-20750000D03*
X108200000Y-20750000D03*
X110700000Y-20750000D03*
%TD*%
D17*
%TO.C,R2*%
X125400000Y-26325000D03*
X125400000Y-24675000D03*
%TD*%
D18*
%TO.C,BT2*%
X99635000Y-26000000D03*
D19*
X83685000Y-26000000D03*
X43485000Y-26000000D03*
D18*
X27535000Y-26000000D03*
%TD*%
%TO.C,BT1*%
X99635000Y-49000000D03*
D19*
X83685000Y-49000000D03*
X43485000Y-49000000D03*
D18*
X27535000Y-49000000D03*
%TD*%
D20*
%TO.C,C2*%
X121100000Y-26425000D03*
X121100000Y-27975000D03*
%TD*%
D21*
%TO.C,C1*%
X124700000Y-32800000D03*
X123150000Y-32800000D03*
%TD*%
D22*
%TO.C,R1*%
X120000000Y-35175000D03*
X120000000Y-36825000D03*
%TD*%
D23*
%TO.C,D2*%
X119400000Y-16712500D03*
X119400000Y-18287500D03*
%TD*%
D22*
%TO.C,RT1*%
X120000000Y-38975000D03*
X120000000Y-40625000D03*
%TD*%
D24*
%TO.C,U1*%
X124721300Y-35212599D03*
X124721300Y-35712601D03*
X124721300Y-36212600D03*
X124721300Y-36712599D03*
X124721300Y-37212601D03*
X126778700Y-37212601D03*
X126778700Y-36712599D03*
X126778700Y-36212600D03*
X126778700Y-35712601D03*
X126778700Y-35212599D03*
%TD*%
D17*
%TO.C,R3*%
X119400000Y-26325000D03*
X119400000Y-24675000D03*
%TD*%
D23*
%TO.C,D1*%
X125400000Y-16712500D03*
X125400000Y-18287500D03*
%TD*%
D22*
%TO.C,R4*%
X140000000Y-46675000D03*
X140000000Y-48325000D03*
%TD*%
%TO.C,R5*%
X140000000Y-51675000D03*
X140000000Y-53325000D03*
%TD*%
M02*
