%TF.GenerationSoftware,KiCad,Pcbnew,8.0.5*%
%TF.CreationDate,2024-11-15T16:00:42-08:00*%
%TF.ProjectId,newbatt,6e657762-6174-4742-9e6b-696361645f70,3*%
%TF.SameCoordinates,Original*%
%TF.FileFunction,Copper,L1,Top*%
%TF.FilePolarity,Positive*%
%FSLAX46Y46*%
G04 Gerber Fmt 4.6, Leading zero omitted, Abs format (unit mm)*
G04 Created by KiCad (PCBNEW 8.0.5) date 2024-11-15 16:00:42*
%MOMM*%
%LPD*%
G01*
G04 APERTURE LIST*
G04 Aperture macros list*
%AMRoundRect*
0 Rectangle with rounded corners*
0 $1 Rounding radius*
0 $2 $3 $4 $5 $6 $7 $8 $9 X,Y pos of 4 corners*
0 Add a 4 corners polygon primitive as box body*
4,1,4,$2,$3,$4,$5,$6,$7,$8,$9,$2,$3,0*
0 Add four circle primitives for the rounded corners*
1,1,$1+$1,$2,$3*
1,1,$1+$1,$4,$5*
1,1,$1+$1,$6,$7*
1,1,$1+$1,$8,$9*
0 Add four rect primitives between the rounded corners*
20,1,$1+$1,$2,$3,$4,$5,0*
20,1,$1+$1,$4,$5,$6,$7,0*
20,1,$1+$1,$6,$7,$8,$9,0*
20,1,$1+$1,$8,$9,$2,$3,0*%
%AMFreePoly0*
4,1,19,0.500000,-0.750000,0.000000,-0.750000,0.000000,-0.744911,-0.071157,-0.744911,-0.207708,-0.704816,-0.327430,-0.627875,-0.420627,-0.520320,-0.479746,-0.390866,-0.500000,-0.250000,-0.500000,0.250000,-0.479746,0.390866,-0.420627,0.520320,-0.327430,0.627875,-0.207708,0.704816,-0.071157,0.744911,0.000000,0.744911,0.000000,0.750000,0.500000,0.750000,0.500000,-0.750000,0.500000,-0.750000,
$1*%
%AMFreePoly1*
4,1,19,0.000000,0.744911,0.071157,0.744911,0.207708,0.704816,0.327430,0.627875,0.420627,0.520320,0.479746,0.390866,0.500000,0.250000,0.500000,-0.250000,0.479746,-0.390866,0.420627,-0.520320,0.327430,-0.627875,0.207708,-0.704816,0.071157,-0.744911,0.000000,-0.744911,0.000000,-0.750000,-0.500000,-0.750000,-0.500000,0.750000,0.000000,0.750000,0.000000,0.744911,0.000000,0.744911,
$1*%
G04 Aperture macros list end*
%TA.AperFunction,EtchedComponent*%
%ADD10C,0.000000*%
%TD*%
%TA.AperFunction,SMDPad,CuDef*%
%ADD11R,2.200000X2.000000*%
%TD*%
%TA.AperFunction,SMDPad,CuDef*%
%ADD12R,2.600000X1.900000*%
%TD*%
%TA.AperFunction,SMDPad,CuDef*%
%ADD13R,2.000000X2.000000*%
%TD*%
%TA.AperFunction,SMDPad,CuDef*%
%ADD14RoundRect,0.200000X-0.200000X-0.275000X0.200000X-0.275000X0.200000X0.275000X-0.200000X0.275000X0*%
%TD*%
%TA.AperFunction,SMDPad,CuDef*%
%ADD15C,1.500000*%
%TD*%
%TA.AperFunction,SMDPad,CuDef*%
%ADD16FreePoly0,90.000000*%
%TD*%
%TA.AperFunction,SMDPad,CuDef*%
%ADD17FreePoly1,90.000000*%
%TD*%
%TA.AperFunction,SMDPad,CuDef*%
%ADD18R,4.000000X5.000000*%
%TD*%
%TA.AperFunction,ComponentPad*%
%ADD19C,3.600000*%
%TD*%
%TA.AperFunction,ConnectorPad*%
%ADD20C,5.700000*%
%TD*%
%TA.AperFunction,SMDPad,CuDef*%
%ADD21R,1.200000X2.500000*%
%TD*%
%TA.AperFunction,SMDPad,CuDef*%
%ADD22RoundRect,0.200000X0.275000X-0.200000X0.275000X0.200000X-0.275000X0.200000X-0.275000X-0.200000X0*%
%TD*%
%TA.AperFunction,SMDPad,CuDef*%
%ADD23R,4.300000X3.300000*%
%TD*%
%TA.AperFunction,SMDPad,CuDef*%
%ADD24R,4.300000X5.200000*%
%TD*%
%TA.AperFunction,SMDPad,CuDef*%
%ADD25RoundRect,0.225000X-0.250000X0.225000X-0.250000X-0.225000X0.250000X-0.225000X0.250000X0.225000X0*%
%TD*%
%TA.AperFunction,SMDPad,CuDef*%
%ADD26RoundRect,0.225000X0.225000X0.250000X-0.225000X0.250000X-0.225000X-0.250000X0.225000X-0.250000X0*%
%TD*%
%TA.AperFunction,SMDPad,CuDef*%
%ADD27RoundRect,0.200000X-0.275000X0.200000X-0.275000X-0.200000X0.275000X-0.200000X0.275000X0.200000X0*%
%TD*%
%TA.AperFunction,ComponentPad*%
%ADD28R,1.700000X1.700000*%
%TD*%
%TA.AperFunction,ComponentPad*%
%ADD29O,1.700000X1.700000*%
%TD*%
%TA.AperFunction,SMDPad,CuDef*%
%ADD30RoundRect,0.218750X-0.256250X0.218750X-0.256250X-0.218750X0.256250X-0.218750X0.256250X0.218750X0*%
%TD*%
%TA.AperFunction,SMDPad,CuDef*%
%ADD31R,0.660400X0.304800*%
%TD*%
%TA.AperFunction,ComponentPad*%
%ADD32C,0.508000*%
%TD*%
%TA.AperFunction,SMDPad,CuDef*%
%ADD33R,0.939800X2.514600*%
%TD*%
%TA.AperFunction,ViaPad*%
%ADD34C,0.600000*%
%TD*%
%TA.AperFunction,Conductor*%
%ADD35C,0.250000*%
%TD*%
%TA.AperFunction,Conductor*%
%ADD36C,1.000000*%
%TD*%
%TA.AperFunction,Conductor*%
%ADD37C,0.500000*%
%TD*%
%TA.AperFunction,Conductor*%
%ADD38C,3.000000*%
%TD*%
G04 APERTURE END LIST*
D10*
%TA.AperFunction,EtchedComponent*%
%TO.C,JP1*%
G36*
X130300000Y-38250000D02*
G01*
X129700000Y-38250000D01*
X129700000Y-37750000D01*
X130300000Y-37750000D01*
X130300000Y-38250000D01*
G37*
%TD.AperFunction*%
%TD*%
D11*
%TO.P,J1,1*%
%TO.N,Net-(U1-VBUS)*%
X143600000Y-26400000D03*
X143600000Y-20400000D03*
D12*
%TO.P,J1,2*%
%TO.N,0*%
X132300000Y-20400000D03*
D13*
%TO.P,J1,3*%
%TO.N,unconnected-(J1-Pad3)*%
X132600000Y-26500000D03*
%TD*%
D14*
%TO.P,R15,1*%
%TO.N,Net-(U1-VDPM)*%
X131075000Y-34500000D03*
%TO.P,R15,2*%
%TO.N,0*%
X132725000Y-34500000D03*
%TD*%
D15*
%TO.P,TP2,1,1*%
%TO.N,/VBAT{slash}2*%
X140000000Y-57750000D03*
%TD*%
D16*
%TO.P,JP8,1,A*%
%TO.N,Net-(BT1-+)*%
X111750000Y-37650000D03*
D17*
%TO.P,JP8,2,B*%
%TO.N,Net-(JP8-B)*%
X111750000Y-36350000D03*
%TD*%
D18*
%TO.P,F1,1*%
%TO.N,Net-(BT1-+)*%
X111750000Y-45850000D03*
%TO.P,F1,2*%
%TO.N,Net-(JP8-B)*%
X111750000Y-28150000D03*
%TD*%
D19*
%TO.P,H4,1,1*%
%TO.N,0*%
X149500000Y-55250000D03*
D20*
X149500000Y-55250000D03*
%TD*%
D19*
%TO.P,H1,1,1*%
%TO.N,0*%
X19500000Y-19750000D03*
D20*
X19500000Y-19750000D03*
%TD*%
D21*
%TO.P,S1,3*%
%TO.N,unconnected-(S1-Pad3)*%
X105700000Y-20750000D03*
%TO.P,S1,2*%
%TO.N,Net-(JP8-B)*%
X108200000Y-20750000D03*
%TO.P,S1,1*%
%TO.N,Net-(J2-Pin_2)*%
X110700000Y-20750000D03*
%TD*%
D22*
%TO.P,R2,1*%
%TO.N,Net-(JP8-B)*%
X125400000Y-26325000D03*
%TO.P,R2,2*%
%TO.N,Net-(D1-A)*%
X125400000Y-24675000D03*
%TD*%
D23*
%TO.P,BT2,1,+*%
%TO.N,Net-(BT1-+)*%
X99635000Y-26000000D03*
D24*
X83685000Y-26000000D03*
%TO.P,BT2,2,-*%
%TO.N,0*%
X43485000Y-26000000D03*
D23*
X27535000Y-26000000D03*
%TD*%
%TO.P,BT1,1,+*%
%TO.N,Net-(BT1-+)*%
X99635000Y-49000000D03*
D24*
X83685000Y-49000000D03*
%TO.P,BT1,2,-*%
%TO.N,0*%
X43485000Y-49000000D03*
D23*
X27535000Y-49000000D03*
%TD*%
D16*
%TO.P,JP1,1,A*%
%TO.N,/~{PG}*%
X130000000Y-38650000D03*
D17*
%TO.P,JP1,2,B*%
%TO.N,Net-(JP1-B)*%
X130000000Y-37350000D03*
%TD*%
D19*
%TO.P,H3,1,1*%
%TO.N,0*%
X149500000Y-19750000D03*
D20*
X149500000Y-19750000D03*
%TD*%
D25*
%TO.P,C2,1*%
%TO.N,Net-(JP8-B)*%
X121100000Y-26425000D03*
%TO.P,C2,2*%
%TO.N,0*%
X121100000Y-27975000D03*
%TD*%
D26*
%TO.P,C1,1*%
%TO.N,Net-(U1-VBUS)*%
X124700000Y-32800000D03*
%TO.P,C1,2*%
%TO.N,0*%
X123150000Y-32800000D03*
%TD*%
D27*
%TO.P,R1,1*%
%TO.N,Net-(U1-ISET)*%
X120000000Y-35175000D03*
%TO.P,R1,2*%
%TO.N,0*%
X120000000Y-36825000D03*
%TD*%
D28*
%TO.P,J2,1,Pin_1*%
%TO.N,0*%
X149500000Y-26070000D03*
D29*
%TO.P,J2,2,Pin_2*%
%TO.N,Net-(J2-Pin_2)*%
X149500000Y-28610000D03*
%TO.P,J2,3,Pin_3*%
%TO.N,/~{PG}*%
X149500000Y-31150000D03*
%TO.P,J2,4,Pin_4*%
%TO.N,/~{CHG}*%
X149500000Y-33690000D03*
%TO.P,J2,5,Pin_5*%
%TO.N,/VBAT{slash}2*%
X149500000Y-36230000D03*
%TO.P,J2,6,Pin_6*%
X149500000Y-38770000D03*
%TO.P,J2,7,Pin_7*%
%TO.N,/~{CHG}*%
X149500000Y-41310000D03*
%TO.P,J2,8,Pin_8*%
%TO.N,/~{PG}*%
X149500000Y-43850000D03*
%TO.P,J2,9,Pin_9*%
%TO.N,Net-(J2-Pin_2)*%
X149500000Y-46390000D03*
%TO.P,J2,10,Pin_10*%
%TO.N,0*%
X149500000Y-48930000D03*
%TD*%
D16*
%TO.P,JP3,1,A*%
%TO.N,/~{PG}*%
X117150000Y-22150000D03*
D17*
%TO.P,JP3,2,B*%
%TO.N,Net-(D2-K)*%
X117150000Y-20850000D03*
%TD*%
D15*
%TO.P,TP1,1,1*%
%TO.N,Net-(U1-VBUS)*%
X141700000Y-37300000D03*
%TD*%
D30*
%TO.P,D2,1,K*%
%TO.N,Net-(D2-K)*%
X119400000Y-16712500D03*
%TO.P,D2,2,A*%
%TO.N,Net-(D2-A)*%
X119400000Y-18287500D03*
%TD*%
D27*
%TO.P,RT1,1*%
%TO.N,Net-(U1-VTSB)*%
X120000000Y-38975000D03*
%TO.P,RT1,2*%
%TO.N,Net-(U1-TS)*%
X120000000Y-40625000D03*
%TD*%
D31*
%TO.P,U1,1,VBUS*%
%TO.N,Net-(U1-VBUS)*%
X124721300Y-35212599D03*
%TO.P,U1,2,ISET*%
%TO.N,Net-(U1-ISET)*%
X124721300Y-35712601D03*
%TO.P,U1,3,VSS*%
%TO.N,0*%
X124721300Y-36212600D03*
%TO.P,U1,4,VTSB*%
%TO.N,Net-(U1-VTSB)*%
X124721300Y-36712599D03*
%TO.P,U1,5,TS*%
%TO.N,Net-(U1-TS)*%
X124721300Y-37212601D03*
%TO.P,U1,6,~{PG}*%
%TO.N,/~{PG}*%
X126778700Y-37212601D03*
%TO.P,U1,7,~{EN}*%
%TO.N,Net-(JP1-B)*%
X126778700Y-36712599D03*
%TO.P,U1,8,~{CHG}*%
%TO.N,/~{CHG}*%
X126778700Y-36212600D03*
%TO.P,U1,9,VDPM*%
%TO.N,Net-(U1-VDPM)*%
X126778700Y-35712601D03*
%TO.P,U1,10,BAT*%
%TO.N,Net-(JP8-B)*%
X126778700Y-35212599D03*
D32*
%TO.P,U1,11,EPAD*%
%TO.N,0*%
X125750000Y-35425200D03*
X125750000Y-36212600D03*
D33*
X125750000Y-36212600D03*
D32*
X125750000Y-37000000D03*
%TD*%
D22*
%TO.P,R3,1*%
%TO.N,Net-(JP8-B)*%
X119400000Y-26325000D03*
%TO.P,R3,2*%
%TO.N,Net-(D2-A)*%
X119400000Y-24675000D03*
%TD*%
D16*
%TO.P,JP2,1,A*%
%TO.N,/~{CHG}*%
X123150000Y-22150000D03*
D17*
%TO.P,JP2,2,B*%
%TO.N,Net-(D1-K)*%
X123150000Y-20850000D03*
%TD*%
D30*
%TO.P,D1,1,K*%
%TO.N,Net-(D1-K)*%
X125400000Y-16712500D03*
%TO.P,D1,2,A*%
%TO.N,Net-(D1-A)*%
X125400000Y-18287500D03*
%TD*%
D29*
%TO.P,TH1,2*%
%TO.N,0*%
X105100000Y-36535000D03*
D28*
%TO.P,TH1,1*%
%TO.N,Net-(U1-TS)*%
X105100000Y-39075000D03*
%TD*%
D27*
%TO.P,R4,1*%
%TO.N,Net-(JP8-B)*%
X140000000Y-46675000D03*
%TO.P,R4,2*%
%TO.N,/VBAT{slash}2*%
X140000000Y-48325000D03*
%TD*%
%TO.P,R5,1*%
%TO.N,/VBAT{slash}2*%
X140000000Y-51675000D03*
%TO.P,R5,2*%
%TO.N,0*%
X140000000Y-53325000D03*
%TD*%
D19*
%TO.P,H2,1,1*%
%TO.N,0*%
X19500000Y-55250000D03*
D20*
X19500000Y-55250000D03*
%TD*%
D34*
%TO.N,0*%
X124100000Y-40600000D03*
X118200000Y-37900000D03*
X132300000Y-20400000D03*
X132700000Y-36700000D03*
%TO.N,Net-(U1-TS)*%
X117900000Y-40600000D03*
%TO.N,/VBAT{slash}2*%
X142400000Y-48300000D03*
%TO.N,/~{PG}*%
X117150000Y-23750000D03*
X135100000Y-33750000D03*
%TO.N,/~{CHG}*%
X129250000Y-35500000D03*
X123150000Y-24900000D03*
%TO.N,Net-(JP8-B)*%
X122750000Y-28500000D03*
X128000000Y-33750000D03*
X136803769Y-43796231D03*
%TD*%
D35*
%TO.N,Net-(U1-VBUS)*%
X124721300Y-35212599D02*
X124721300Y-32821300D01*
%TO.N,Net-(JP8-B)*%
X136803769Y-43796231D02*
X136803769Y-43796233D01*
X136803769Y-43796233D02*
X139682536Y-46675000D01*
X139682536Y-46675000D02*
X140000000Y-46675000D01*
D36*
%TO.N,Net-(U1-VBUS)*%
X141700000Y-37300000D02*
X137200000Y-32800000D01*
X143600000Y-26400000D02*
X143600000Y-20400000D01*
X137200000Y-32800000D02*
X143600000Y-26400000D01*
X124700000Y-32800000D02*
X137200000Y-32800000D01*
D35*
%TO.N,/~{CHG}*%
X123150000Y-22150000D02*
X123150000Y-24900000D01*
%TO.N,Net-(JP8-B)*%
X126778700Y-34971300D02*
X126778700Y-35212599D01*
X128000000Y-33750000D02*
X126778700Y-34971300D01*
D37*
X122750000Y-28500000D02*
X122750000Y-26325000D01*
D36*
X108200000Y-18400000D02*
X108200000Y-20750000D01*
X110000000Y-16600000D02*
X108200000Y-18400000D01*
X113300000Y-17300000D02*
X112600000Y-16600000D01*
X113300000Y-21550000D02*
X113300000Y-17300000D01*
X112600000Y-16600000D02*
X110000000Y-16600000D01*
X118000000Y-26250000D02*
X113300000Y-21550000D01*
X125325000Y-26250000D02*
X118000000Y-26250000D01*
%TO.N,Net-(J2-Pin_2)*%
X145860000Y-42750000D02*
X149500000Y-46390000D01*
X117950000Y-42750000D02*
X145860000Y-42750000D01*
X116250000Y-41050000D02*
X117950000Y-42750000D01*
X116250000Y-26300000D02*
X116250000Y-41050000D01*
X110700000Y-20750000D02*
X116250000Y-26300000D01*
%TO.N,Net-(JP8-B)*%
X112000000Y-26900000D02*
X112000000Y-27900000D01*
X108200000Y-23100000D02*
X112000000Y-26900000D01*
X108200000Y-20750000D02*
X108200000Y-23100000D01*
%TO.N,Net-(J2-Pin_2)*%
X152900000Y-42990000D02*
X149500000Y-46390000D01*
X152900000Y-32010000D02*
X152900000Y-42990000D01*
X149500000Y-28610000D02*
X152900000Y-32010000D01*
D37*
%TO.N,/~{PG}*%
X151700000Y-41650000D02*
X149500000Y-43850000D01*
X151700000Y-33350000D02*
X151700000Y-41650000D01*
X149500000Y-31150000D02*
X151700000Y-33350000D01*
%TO.N,/~{CHG}*%
X150900000Y-39910000D02*
X149500000Y-41310000D01*
X150900000Y-35090000D02*
X150900000Y-39910000D01*
X149500000Y-33690000D02*
X150900000Y-35090000D01*
D35*
%TO.N,Net-(U1-TS)*%
X117925000Y-40625000D02*
X120000000Y-40625000D01*
X117900000Y-40600000D02*
X117925000Y-40625000D01*
X123412399Y-37212601D02*
X120000000Y-40625000D01*
X124721300Y-37212601D02*
X123412399Y-37212601D01*
%TO.N,Net-(U1-VTSB)*%
X122262401Y-36712599D02*
X120000000Y-38975000D01*
X124721300Y-36712599D02*
X122262401Y-36712599D01*
%TO.N,Net-(U1-VDPM)*%
X127787399Y-35712601D02*
X128975000Y-34525000D01*
X128975000Y-34525000D02*
X131000000Y-34525000D01*
X126778700Y-35712601D02*
X127787399Y-35712601D01*
D37*
%TO.N,/VBAT{slash}2*%
X142375000Y-48325000D02*
X142400000Y-48300000D01*
X140000000Y-48325000D02*
X142375000Y-48325000D01*
D35*
%TO.N,0*%
X120612400Y-36212600D02*
X120000000Y-36825000D01*
X124721300Y-36212600D02*
X120612400Y-36212600D01*
X124721300Y-36212600D02*
X125750000Y-36212600D01*
D37*
%TO.N,/VBAT{slash}2*%
X149500000Y-36230000D02*
X149500000Y-38770000D01*
D35*
%TO.N,/~{PG}*%
X117150000Y-22150000D02*
X117150000Y-23750000D01*
X128216099Y-38650000D02*
X130000000Y-38650000D01*
X126778700Y-37212601D02*
X128216099Y-38650000D01*
D36*
%TO.N,Net-(D1-A)*%
X125400000Y-18287500D02*
X125400000Y-24675000D01*
%TO.N,Net-(D1-K)*%
X124187500Y-16712500D02*
X123150000Y-17750000D01*
X125400000Y-16712500D02*
X124187500Y-16712500D01*
X123150000Y-17750000D02*
X123150000Y-20850000D01*
%TO.N,Net-(D2-A)*%
X119400000Y-18287500D02*
X119400000Y-24675000D01*
%TO.N,Net-(D2-K)*%
X118187500Y-16712500D02*
X117150000Y-17750000D01*
X117150000Y-17750000D02*
X117150000Y-20850000D01*
X119400000Y-16712500D02*
X118187500Y-16712500D01*
D35*
%TO.N,Net-(JP1-B)*%
X129362599Y-36712599D02*
X130000000Y-37350000D01*
X126778700Y-36712599D02*
X129362599Y-36712599D01*
%TO.N,Net-(U1-ISET)*%
X120537601Y-35712601D02*
X120000000Y-35175000D01*
X124721300Y-35712601D02*
X120537601Y-35712601D01*
D37*
%TO.N,/VBAT{slash}2*%
X140000000Y-51675000D02*
X138000000Y-53675000D01*
X138000000Y-55750000D02*
X140000000Y-57750000D01*
X140000000Y-48325000D02*
X140000000Y-51675000D01*
X138000000Y-53675000D02*
X138000000Y-55750000D01*
D36*
%TO.N,Net-(JP8-B)*%
X111750000Y-36350000D02*
X111750000Y-28150000D01*
D38*
%TO.N,Net-(BT1-+)*%
X83685000Y-49000000D02*
X108600000Y-49000000D01*
X99635000Y-26000000D02*
X83685000Y-26000000D01*
D36*
X111750000Y-37650000D02*
X111750000Y-45850000D01*
D38*
X108600000Y-49000000D02*
X111750000Y-45850000D01*
X83685000Y-26000000D02*
X83685000Y-49000000D01*
D35*
%TO.N,/~{CHG}*%
X128537400Y-36212600D02*
X126778700Y-36212600D01*
X129250000Y-35500000D02*
X128537400Y-36212600D01*
%TO.N,/~{PG}*%
X131950000Y-38650000D02*
X130000000Y-38650000D01*
X135100000Y-35500000D02*
X131950000Y-38650000D01*
X135100000Y-33750000D02*
X135100000Y-35500000D01*
%TD*%
%TA.AperFunction,Conductor*%
%TO.N,0*%
G36*
X153006061Y-15201097D02*
G01*
X153016051Y-15202080D01*
X153143824Y-15214665D01*
X153167652Y-15219404D01*
X153294277Y-15257815D01*
X153316725Y-15267114D01*
X153433406Y-15329482D01*
X153453616Y-15342986D01*
X153555891Y-15426920D01*
X153573079Y-15444108D01*
X153657012Y-15546381D01*
X153670517Y-15566593D01*
X153732883Y-15683271D01*
X153742186Y-15705728D01*
X153777717Y-15822859D01*
X153780593Y-15832338D01*
X153785335Y-15856180D01*
X153798903Y-15993938D01*
X153799500Y-16006092D01*
X153799500Y-31195216D01*
X153779815Y-31262255D01*
X153727011Y-31308010D01*
X153657853Y-31317954D01*
X153594297Y-31288929D01*
X153587819Y-31282897D01*
X153534686Y-31229764D01*
X153534655Y-31229735D01*
X150881890Y-28576970D01*
X150848405Y-28515647D01*
X150846043Y-28500096D01*
X150846035Y-28500000D01*
X150835063Y-28374592D01*
X150788289Y-28200028D01*
X150773905Y-28146344D01*
X150773904Y-28146343D01*
X150773903Y-28146337D01*
X150674035Y-27932171D01*
X150651858Y-27900499D01*
X150538496Y-27738600D01*
X150497723Y-27697827D01*
X150416179Y-27616283D01*
X150382696Y-27554963D01*
X150387680Y-27485271D01*
X150429551Y-27429337D01*
X150460529Y-27412422D01*
X150592086Y-27363354D01*
X150592093Y-27363350D01*
X150707187Y-27277190D01*
X150707190Y-27277187D01*
X150793350Y-27162093D01*
X150793354Y-27162086D01*
X150843596Y-27027379D01*
X150843598Y-27027372D01*
X150849999Y-26967844D01*
X150850000Y-26967827D01*
X150850000Y-26320000D01*
X149933012Y-26320000D01*
X149965925Y-26262993D01*
X150000000Y-26135826D01*
X150000000Y-26004174D01*
X149965925Y-25877007D01*
X149933012Y-25820000D01*
X150850000Y-25820000D01*
X150850000Y-25172172D01*
X150849999Y-25172155D01*
X150843598Y-25112627D01*
X150843596Y-25112620D01*
X150793354Y-24977913D01*
X150793350Y-24977906D01*
X150707190Y-24862812D01*
X150707187Y-24862809D01*
X150592093Y-24776649D01*
X150592086Y-24776645D01*
X150457379Y-24726403D01*
X150457372Y-24726401D01*
X150397844Y-24720000D01*
X149750000Y-24720000D01*
X149750000Y-25636988D01*
X149692993Y-25604075D01*
X149565826Y-25570000D01*
X149434174Y-25570000D01*
X149307007Y-25604075D01*
X149250000Y-25636988D01*
X149250000Y-24720000D01*
X148602155Y-24720000D01*
X148542627Y-24726401D01*
X148542620Y-24726403D01*
X148407913Y-24776645D01*
X148407906Y-24776649D01*
X148292812Y-24862809D01*
X148292809Y-24862812D01*
X148206649Y-24977906D01*
X148206645Y-24977913D01*
X148156403Y-25112620D01*
X148156401Y-25112627D01*
X148150000Y-25172155D01*
X148150000Y-25820000D01*
X149066988Y-25820000D01*
X149034075Y-25877007D01*
X149000000Y-26004174D01*
X149000000Y-26135826D01*
X149034075Y-26262993D01*
X149066988Y-26320000D01*
X148150000Y-26320000D01*
X148150000Y-26967844D01*
X148156401Y-27027372D01*
X148156403Y-27027379D01*
X148206645Y-27162086D01*
X148206649Y-27162093D01*
X148292809Y-27277187D01*
X148292812Y-27277190D01*
X148407906Y-27363350D01*
X148407913Y-27363354D01*
X148539470Y-27412421D01*
X148595403Y-27454292D01*
X148619821Y-27519756D01*
X148604970Y-27588029D01*
X148583819Y-27616284D01*
X148461503Y-27738600D01*
X148325965Y-27932169D01*
X148325964Y-27932171D01*
X148226098Y-28146335D01*
X148226094Y-28146344D01*
X148164938Y-28374586D01*
X148164936Y-28374596D01*
X148144341Y-28609999D01*
X148144341Y-28610000D01*
X148164936Y-28845403D01*
X148164938Y-28845413D01*
X148226094Y-29073655D01*
X148226096Y-29073659D01*
X148226097Y-29073663D01*
X148272412Y-29172986D01*
X148325965Y-29287830D01*
X148325967Y-29287834D01*
X148461501Y-29481395D01*
X148461506Y-29481402D01*
X148628597Y-29648493D01*
X148628603Y-29648498D01*
X148814158Y-29778425D01*
X148857783Y-29833002D01*
X148864977Y-29902500D01*
X148833454Y-29964855D01*
X148814158Y-29981575D01*
X148628597Y-30111505D01*
X148461505Y-30278597D01*
X148325965Y-30472169D01*
X148325964Y-30472171D01*
X148226098Y-30686335D01*
X148226094Y-30686344D01*
X148164938Y-30914586D01*
X148164936Y-30914596D01*
X148144341Y-31149999D01*
X148144341Y-31150000D01*
X148164936Y-31385403D01*
X148164938Y-31385413D01*
X148226094Y-31613655D01*
X148226096Y-31613659D01*
X148226097Y-31613663D01*
X148323301Y-31822118D01*
X148325965Y-31827830D01*
X148325967Y-31827834D01*
X148461501Y-32021395D01*
X148461506Y-32021402D01*
X148628597Y-32188493D01*
X148628603Y-32188498D01*
X148814158Y-32318425D01*
X148857783Y-32373002D01*
X148864977Y-32442500D01*
X148833454Y-32504855D01*
X148814158Y-32521575D01*
X148628597Y-32651505D01*
X148461505Y-32818597D01*
X148325965Y-33012169D01*
X148325964Y-33012171D01*
X148226098Y-33226335D01*
X148226094Y-33226344D01*
X148164938Y-33454586D01*
X148164936Y-33454596D01*
X148144341Y-33689999D01*
X148144341Y-33690000D01*
X148164936Y-33925403D01*
X148164938Y-33925413D01*
X148226094Y-34153655D01*
X148226096Y-34153659D01*
X148226097Y-34153663D01*
X148291936Y-34294854D01*
X148325965Y-34367830D01*
X148325967Y-34367834D01*
X148461501Y-34561395D01*
X148461506Y-34561402D01*
X148628597Y-34728493D01*
X148628603Y-34728498D01*
X148814158Y-34858425D01*
X148857783Y-34913002D01*
X148864977Y-34982500D01*
X148833454Y-35044855D01*
X148814158Y-35061575D01*
X148628597Y-35191505D01*
X148461505Y-35358597D01*
X148325965Y-35552169D01*
X148325964Y-35552171D01*
X148226098Y-35766335D01*
X148226094Y-35766344D01*
X148164938Y-35994586D01*
X148164936Y-35994596D01*
X148144341Y-36229999D01*
X148144341Y-36230000D01*
X148164936Y-36465403D01*
X148164938Y-36465413D01*
X148226094Y-36693655D01*
X148226096Y-36693659D01*
X148226097Y-36693663D01*
X148318740Y-36892335D01*
X148325965Y-36907830D01*
X148325967Y-36907834D01*
X148408192Y-37025262D01*
X148445161Y-37078060D01*
X148461501Y-37101395D01*
X148461506Y-37101402D01*
X148628595Y-37268492D01*
X148628598Y-37268494D01*
X148628599Y-37268495D01*
X148696623Y-37316125D01*
X148740248Y-37370701D01*
X148749500Y-37417700D01*
X148749500Y-37582298D01*
X148729815Y-37649337D01*
X148696625Y-37683872D01*
X148628595Y-37731507D01*
X148461505Y-37898597D01*
X148325965Y-38092169D01*
X148325964Y-38092171D01*
X148226098Y-38306335D01*
X148226094Y-38306344D01*
X148164938Y-38534586D01*
X148164936Y-38534596D01*
X148144341Y-38769999D01*
X148144341Y-38770000D01*
X148164936Y-39005403D01*
X148164938Y-39005413D01*
X148226094Y-39233655D01*
X148226096Y-39233660D01*
X148226097Y-39233663D01*
X148286328Y-39362829D01*
X148325965Y-39447830D01*
X148325967Y-39447834D01*
X148386841Y-39534770D01*
X148457047Y-39635035D01*
X148461501Y-39641395D01*
X148461506Y-39641402D01*
X148628597Y-39808493D01*
X148628603Y-39808498D01*
X148814158Y-39938425D01*
X148857783Y-39993002D01*
X148864977Y-40062500D01*
X148833454Y-40124855D01*
X148814158Y-40141575D01*
X148628597Y-40271505D01*
X148461505Y-40438597D01*
X148325965Y-40632169D01*
X148325964Y-40632171D01*
X148226098Y-40846335D01*
X148226094Y-40846344D01*
X148164938Y-41074586D01*
X148164936Y-41074596D01*
X148148699Y-41260185D01*
X148144341Y-41310000D01*
X148150506Y-41380469D01*
X148164936Y-41545403D01*
X148164938Y-41545413D01*
X148226094Y-41773655D01*
X148226096Y-41773659D01*
X148226097Y-41773663D01*
X148267929Y-41863371D01*
X148325965Y-41987830D01*
X148325967Y-41987834D01*
X148461501Y-42181395D01*
X148461506Y-42181402D01*
X148628597Y-42348493D01*
X148628603Y-42348498D01*
X148814158Y-42478425D01*
X148857783Y-42533002D01*
X148864977Y-42602500D01*
X148833454Y-42664855D01*
X148814158Y-42681575D01*
X148628597Y-42811505D01*
X148461505Y-42978597D01*
X148325965Y-43172169D01*
X148325964Y-43172171D01*
X148226098Y-43386335D01*
X148226094Y-43386344D01*
X148215151Y-43427187D01*
X148178786Y-43486848D01*
X148115939Y-43517377D01*
X148046564Y-43509082D01*
X148007695Y-43482775D01*
X146644209Y-42119289D01*
X146644206Y-42119285D01*
X146644206Y-42119286D01*
X146637139Y-42112219D01*
X146637139Y-42112218D01*
X146497782Y-41972861D01*
X146497781Y-41972860D01*
X146497780Y-41972859D01*
X146333920Y-41863371D01*
X146333911Y-41863366D01*
X146246450Y-41827139D01*
X146205165Y-41810038D01*
X146151836Y-41787949D01*
X146151832Y-41787948D01*
X146151828Y-41787946D01*
X146055188Y-41768724D01*
X145958544Y-41749500D01*
X145958541Y-41749500D01*
X120477504Y-41749500D01*
X120410465Y-41729815D01*
X120364710Y-41677011D01*
X120354766Y-41607853D01*
X120383791Y-41544297D01*
X120440611Y-41507115D01*
X120564606Y-41468478D01*
X120710185Y-41380472D01*
X120830472Y-41260185D01*
X120918478Y-41114606D01*
X120969086Y-40952196D01*
X120975500Y-40881616D01*
X120975500Y-40585452D01*
X120995185Y-40518413D01*
X121011819Y-40497771D01*
X123635170Y-37874420D01*
X123696493Y-37840935D01*
X123722851Y-37838101D01*
X124204965Y-37838101D01*
X124248298Y-37845919D01*
X124283617Y-37859092D01*
X124343227Y-37865501D01*
X124932949Y-37865500D01*
X124999988Y-37885184D01*
X125007260Y-37890233D01*
X125038010Y-37913252D01*
X125038013Y-37913254D01*
X125172720Y-37963496D01*
X125172727Y-37963498D01*
X125232255Y-37969899D01*
X125232272Y-37969900D01*
X125500000Y-37969900D01*
X125500000Y-37617091D01*
X125507818Y-37573758D01*
X125545591Y-37472484D01*
X125552000Y-37412874D01*
X125551999Y-37012329D01*
X125551998Y-37012327D01*
X125551998Y-37012313D01*
X125548078Y-36975854D01*
X125548078Y-36974738D01*
X125623000Y-36974738D01*
X125623000Y-37025262D01*
X125642335Y-37071940D01*
X125678060Y-37107665D01*
X125724738Y-37127000D01*
X125775262Y-37127000D01*
X125821940Y-37107665D01*
X125857665Y-37071940D01*
X125877000Y-37025262D01*
X125877000Y-36974738D01*
X125857665Y-36928060D01*
X125821940Y-36892335D01*
X125775262Y-36873000D01*
X125724738Y-36873000D01*
X125678060Y-36892335D01*
X125642335Y-36928060D01*
X125623000Y-36974738D01*
X125548078Y-36974738D01*
X125548078Y-36949346D01*
X125552000Y-36912872D01*
X125551999Y-36512327D01*
X125545591Y-36452716D01*
X125544333Y-36449344D01*
X125495297Y-36317870D01*
X125495295Y-36317867D01*
X125472122Y-36286912D01*
X125447704Y-36221448D01*
X125455124Y-36187338D01*
X125623000Y-36187338D01*
X125623000Y-36237862D01*
X125642335Y-36284540D01*
X125678060Y-36320265D01*
X125724738Y-36339600D01*
X125775262Y-36339600D01*
X125821940Y-36320265D01*
X125857665Y-36284540D01*
X125877000Y-36237862D01*
X125877000Y-36187338D01*
X125857665Y-36140660D01*
X125821940Y-36104935D01*
X125775262Y-36085600D01*
X125724738Y-36085600D01*
X125678060Y-36104935D01*
X125642335Y-36140660D01*
X125623000Y-36187338D01*
X125455124Y-36187338D01*
X125462555Y-36153175D01*
X125472122Y-36138288D01*
X125474057Y-36135703D01*
X125495296Y-36107332D01*
X125545591Y-35972484D01*
X125552000Y-35912874D01*
X125551999Y-35512329D01*
X125551998Y-35512327D01*
X125551998Y-35512313D01*
X125548078Y-35475854D01*
X125548078Y-35449346D01*
X125552000Y-35412872D01*
X125552000Y-35399938D01*
X125623000Y-35399938D01*
X125623000Y-35450462D01*
X125642335Y-35497140D01*
X125678060Y-35532865D01*
X125724738Y-35552200D01*
X125775262Y-35552200D01*
X125821940Y-35532865D01*
X125857665Y-35497140D01*
X125877000Y-35450462D01*
X125877000Y-35399938D01*
X125857665Y-35353260D01*
X125821940Y-35317535D01*
X125775262Y-35298200D01*
X125724738Y-35298200D01*
X125678060Y-35317535D01*
X125642335Y-35353260D01*
X125623000Y-35399938D01*
X125552000Y-35399938D01*
X125551999Y-35012327D01*
X125545591Y-34952716D01*
X125526748Y-34902196D01*
X125507818Y-34851441D01*
X125500000Y-34808108D01*
X125500000Y-34455300D01*
X125470800Y-34455300D01*
X125403761Y-34435615D01*
X125358006Y-34382811D01*
X125346800Y-34331300D01*
X125346800Y-33924500D01*
X125366485Y-33857461D01*
X125419289Y-33811706D01*
X125470800Y-33800500D01*
X126765547Y-33800500D01*
X126832586Y-33820185D01*
X126878341Y-33872989D01*
X126888285Y-33942147D01*
X126859260Y-34005703D01*
X126853228Y-34012181D01*
X126437995Y-34427412D01*
X126376672Y-34460897D01*
X126335202Y-34460531D01*
X126334987Y-34462531D01*
X126267744Y-34455300D01*
X126000000Y-34455300D01*
X126000000Y-34808108D01*
X125992182Y-34851441D01*
X125973252Y-34902196D01*
X125954409Y-34952716D01*
X125948000Y-35012326D01*
X125948000Y-35012333D01*
X125948000Y-35012334D01*
X125948000Y-35412868D01*
X125948001Y-35412879D01*
X125951921Y-35449346D01*
X125951921Y-35475850D01*
X125948000Y-35512323D01*
X125948000Y-35912870D01*
X125948001Y-35912879D01*
X125951921Y-35949345D01*
X125951921Y-35975850D01*
X125948000Y-36012322D01*
X125948000Y-36412869D01*
X125948001Y-36412878D01*
X125951921Y-36449344D01*
X125951921Y-36475849D01*
X125948000Y-36512321D01*
X125948000Y-36912868D01*
X125948001Y-36912879D01*
X125951921Y-36949346D01*
X125951921Y-36975850D01*
X125948000Y-37012323D01*
X125948000Y-37412871D01*
X125948001Y-37412877D01*
X125954408Y-37472484D01*
X125983933Y-37551642D01*
X125992181Y-37573757D01*
X125992182Y-37573758D01*
X126000000Y-37617091D01*
X126000000Y-37969900D01*
X126267728Y-37969900D01*
X126267744Y-37969899D01*
X126327272Y-37963498D01*
X126327276Y-37963497D01*
X126461988Y-37913252D01*
X126466393Y-37910847D01*
X126534665Y-37895993D01*
X126600130Y-37920407D01*
X126613505Y-37931996D01*
X127727115Y-39045606D01*
X127727144Y-39045637D01*
X127817362Y-39135855D01*
X127817366Y-39135858D01*
X127919806Y-39204307D01*
X127919815Y-39204312D01*
X127940838Y-39213020D01*
X128033647Y-39251463D01*
X128094070Y-39263481D01*
X128154492Y-39275500D01*
X128154493Y-39275500D01*
X128904906Y-39275500D01*
X128971945Y-39295185D01*
X128998618Y-39318296D01*
X129037209Y-39362832D01*
X129118789Y-39433521D01*
X129145864Y-39456981D01*
X129145867Y-39456984D01*
X129145869Y-39456985D01*
X129145870Y-39456986D01*
X129266906Y-39534770D01*
X129266914Y-39534774D01*
X129266923Y-39534779D01*
X129391642Y-39591736D01*
X129395941Y-39593985D01*
X129397692Y-39594499D01*
X129535744Y-39635035D01*
X129535745Y-39635035D01*
X129535748Y-39635036D01*
X129578183Y-39641136D01*
X129678059Y-39655497D01*
X129734399Y-39655497D01*
X129734409Y-39655500D01*
X129785764Y-39655500D01*
X130265573Y-39655500D01*
X130265601Y-39655497D01*
X130321940Y-39655497D01*
X130321941Y-39655497D01*
X130455479Y-39636297D01*
X130455481Y-39636297D01*
X130461612Y-39635415D01*
X130464256Y-39635035D01*
X130464257Y-39635035D01*
X130602309Y-39594498D01*
X130733094Y-39534770D01*
X130854130Y-39456986D01*
X130962791Y-39362832D01*
X130962794Y-39362829D01*
X131001380Y-39318296D01*
X131060157Y-39280523D01*
X131095093Y-39275500D01*
X132011607Y-39275500D01*
X132072029Y-39263481D01*
X132132452Y-39251463D01*
X132175425Y-39233663D01*
X132246286Y-39204312D01*
X132313350Y-39159500D01*
X132348733Y-39135858D01*
X132435858Y-39048733D01*
X132435858Y-39048731D01*
X132446066Y-39038524D01*
X132446067Y-39038521D01*
X135585858Y-35898733D01*
X135654312Y-35796285D01*
X135701463Y-35682451D01*
X135703353Y-35672952D01*
X135725500Y-35561606D01*
X135725500Y-34294854D01*
X135744507Y-34228881D01*
X135825788Y-34099524D01*
X135825789Y-34099522D01*
X135885368Y-33929255D01*
X135885369Y-33929250D01*
X135887469Y-33910615D01*
X135914536Y-33846201D01*
X135972132Y-33806647D01*
X136010689Y-33800500D01*
X136734218Y-33800500D01*
X136801257Y-33820185D01*
X136821899Y-33836819D01*
X140428114Y-37443034D01*
X140461599Y-37504357D01*
X140462898Y-37512906D01*
X140463792Y-37517974D01*
X140520422Y-37729322D01*
X140520424Y-37729326D01*
X140520425Y-37729330D01*
X140544614Y-37781204D01*
X140612897Y-37927638D01*
X140612898Y-37927639D01*
X140738402Y-38106877D01*
X140893123Y-38261598D01*
X141072361Y-38387102D01*
X141270670Y-38479575D01*
X141482023Y-38536207D01*
X141664926Y-38552208D01*
X141699998Y-38555277D01*
X141700000Y-38555277D01*
X141700002Y-38555277D01*
X141728254Y-38552805D01*
X141917977Y-38536207D01*
X142129330Y-38479575D01*
X142327639Y-38387102D01*
X142506877Y-38261598D01*
X142661598Y-38106877D01*
X142787102Y-37927639D01*
X142879575Y-37729330D01*
X142936207Y-37517977D01*
X142955277Y-37300000D01*
X142952520Y-37268492D01*
X142951569Y-37257618D01*
X142936207Y-37082023D01*
X142879575Y-36870670D01*
X142787102Y-36672362D01*
X142787100Y-36672359D01*
X142787099Y-36672357D01*
X142661599Y-36493124D01*
X142597597Y-36429122D01*
X142506877Y-36338402D01*
X142327639Y-36212898D01*
X142327640Y-36212898D01*
X142327638Y-36212897D01*
X142228484Y-36166661D01*
X142129330Y-36120425D01*
X142129326Y-36120424D01*
X142129322Y-36120422D01*
X141917974Y-36063792D01*
X141912647Y-36062853D01*
X141912931Y-36061240D01*
X141854813Y-36038488D01*
X141843034Y-36028114D01*
X138702600Y-32887680D01*
X138669115Y-32826357D01*
X138674099Y-32756665D01*
X138702596Y-32712323D01*
X143478101Y-27936817D01*
X143539424Y-27903333D01*
X143565782Y-27900499D01*
X144747871Y-27900499D01*
X144747872Y-27900499D01*
X144807483Y-27894091D01*
X144942331Y-27843796D01*
X145057546Y-27757546D01*
X145143796Y-27642331D01*
X145194091Y-27507483D01*
X145200500Y-27447873D01*
X145200499Y-25352128D01*
X145194091Y-25292517D01*
X145181094Y-25257671D01*
X145143797Y-25157671D01*
X145143793Y-25157664D01*
X145057547Y-25042455D01*
X145057544Y-25042452D01*
X144942335Y-24956206D01*
X144942328Y-24956202D01*
X144807482Y-24905908D01*
X144807483Y-24905908D01*
X144747883Y-24899501D01*
X144747881Y-24899500D01*
X144747873Y-24899500D01*
X144747865Y-24899500D01*
X144724500Y-24899500D01*
X144657461Y-24879815D01*
X144611706Y-24827011D01*
X144600500Y-24775500D01*
X144600500Y-22024499D01*
X144620185Y-21957460D01*
X144672989Y-21911705D01*
X144724500Y-21900499D01*
X144747871Y-21900499D01*
X144747872Y-21900499D01*
X144807483Y-21894091D01*
X144942331Y-21843796D01*
X145057546Y-21757546D01*
X145143796Y-21642331D01*
X145194091Y-21507483D01*
X145200500Y-21447873D01*
X145200499Y-19749997D01*
X146145080Y-19749997D01*
X146145080Y-19750002D01*
X146164746Y-20112728D01*
X146223517Y-20471214D01*
X146223519Y-20471222D01*
X146320695Y-20821220D01*
X146320697Y-20821227D01*
X146455152Y-21158684D01*
X146455161Y-21158702D01*
X146625316Y-21479647D01*
X146625318Y-21479651D01*
X146829170Y-21780309D01*
X146829177Y-21780319D01*
X146960969Y-21935475D01*
X146960970Y-21935475D01*
X148205748Y-20690698D01*
X148279588Y-20792330D01*
X148457670Y-20970412D01*
X148559300Y-21044251D01*
X147311888Y-22291662D01*
X147311888Y-22291664D01*
X147328070Y-22306992D01*
X147328071Y-22306993D01*
X147617266Y-22526832D01*
X147617282Y-22526843D01*
X147928522Y-22714109D01*
X147928535Y-22714116D01*
X148258205Y-22866639D01*
X148258210Y-22866640D01*
X148602461Y-22982632D01*
X148957235Y-23060724D01*
X149318366Y-23099999D01*
X149318374Y-23100000D01*
X149681626Y-23100000D01*
X149681633Y-23099999D01*
X150042764Y-23060724D01*
X150397538Y-22982632D01*
X150741789Y-22866640D01*
X150741794Y-22866639D01*
X151071464Y-22714116D01*
X151071477Y-22714109D01*
X151382717Y-22526843D01*
X151382733Y-22526832D01*
X151671929Y-22306992D01*
X151688110Y-22291664D01*
X151688110Y-22291663D01*
X150440698Y-21044251D01*
X150542330Y-20970412D01*
X150720412Y-20792330D01*
X150794251Y-20690698D01*
X152039028Y-21935475D01*
X152039029Y-21935475D01*
X152170827Y-21780311D01*
X152170838Y-21780297D01*
X152374681Y-21479651D01*
X152374683Y-21479647D01*
X152544838Y-21158702D01*
X152544847Y-21158684D01*
X152679302Y-20821227D01*
X152679304Y-20821220D01*
X152776480Y-20471222D01*
X152776482Y-20471214D01*
X152835253Y-20112728D01*
X152854920Y-19750002D01*
X152854920Y-19749997D01*
X152835253Y-19387271D01*
X152776482Y-19028785D01*
X152776480Y-19028777D01*
X152679304Y-18678779D01*
X152679302Y-18678772D01*
X152544847Y-18341315D01*
X152544838Y-18341297D01*
X152374683Y-18020352D01*
X152374681Y-18020348D01*
X152170829Y-17719690D01*
X152170822Y-17719680D01*
X152039029Y-17564523D01*
X152039028Y-17564523D01*
X150794251Y-18809300D01*
X150720412Y-18707670D01*
X150542330Y-18529588D01*
X150440698Y-18455748D01*
X151688110Y-17208336D01*
X151688110Y-17208334D01*
X151671929Y-17193007D01*
X151671928Y-17193006D01*
X151382733Y-16973167D01*
X151382717Y-16973156D01*
X151071477Y-16785890D01*
X151071464Y-16785883D01*
X150741794Y-16633360D01*
X150741789Y-16633359D01*
X150397538Y-16517367D01*
X150042764Y-16439275D01*
X149681633Y-16400000D01*
X149318366Y-16400000D01*
X148957235Y-16439275D01*
X148602461Y-16517367D01*
X148258210Y-16633359D01*
X148258205Y-16633360D01*
X147928535Y-16785883D01*
X147928522Y-16785890D01*
X147617282Y-16973156D01*
X147617266Y-16973167D01*
X147328075Y-17193002D01*
X147311888Y-17208335D01*
X147311887Y-17208335D01*
X148559301Y-18455748D01*
X148457670Y-18529588D01*
X148279588Y-18707670D01*
X148205748Y-18809300D01*
X146960970Y-17564522D01*
X146960969Y-17564523D01*
X146829177Y-17719680D01*
X146829170Y-17719690D01*
X146625318Y-18020348D01*
X146625316Y-18020352D01*
X146455161Y-18341297D01*
X146455152Y-18341315D01*
X146320697Y-18678772D01*
X146320695Y-18678779D01*
X146223519Y-19028777D01*
X146223517Y-19028785D01*
X146164746Y-19387271D01*
X146145080Y-19749997D01*
X145200499Y-19749997D01*
X145200499Y-19352128D01*
X145194091Y-19292517D01*
X145181094Y-19257671D01*
X145143797Y-19157671D01*
X145143793Y-19157664D01*
X145057547Y-19042455D01*
X145057544Y-19042452D01*
X144942335Y-18956206D01*
X144942328Y-18956202D01*
X144807482Y-18905908D01*
X144807483Y-18905908D01*
X144747883Y-18899501D01*
X144747881Y-18899500D01*
X144747873Y-18899500D01*
X144747864Y-18899500D01*
X142452129Y-18899500D01*
X142452123Y-18899501D01*
X142392516Y-18905908D01*
X142257671Y-18956202D01*
X142257664Y-18956206D01*
X142142455Y-19042452D01*
X142142452Y-19042455D01*
X142056206Y-19157664D01*
X142056202Y-19157671D01*
X142005908Y-19292517D01*
X142000522Y-19342620D01*
X141999501Y-19352123D01*
X141999500Y-19352135D01*
X141999500Y-21447870D01*
X141999501Y-21447876D01*
X142005908Y-21507483D01*
X142056202Y-21642328D01*
X142056206Y-21642335D01*
X142142452Y-21757544D01*
X142142455Y-21757547D01*
X142257664Y-21843793D01*
X142257671Y-21843797D01*
X142302618Y-21860561D01*
X142392517Y-21894091D01*
X142452127Y-21900500D01*
X142475497Y-21900499D01*
X142542536Y-21920181D01*
X142588292Y-21972983D01*
X142599500Y-22024499D01*
X142599500Y-24775500D01*
X142579815Y-24842539D01*
X142527011Y-24888294D01*
X142475505Y-24899500D01*
X142452132Y-24899500D01*
X142452123Y-24899501D01*
X142392516Y-24905908D01*
X142257671Y-24956202D01*
X142257664Y-24956206D01*
X142142455Y-25042452D01*
X142142452Y-25042455D01*
X142056206Y-25157664D01*
X142056202Y-25157671D01*
X142005908Y-25292517D01*
X141999501Y-25352116D01*
X141999501Y-25352123D01*
X141999500Y-25352135D01*
X141999500Y-26534217D01*
X141979815Y-26601256D01*
X141963181Y-26621898D01*
X136821899Y-31763181D01*
X136760576Y-31796666D01*
X136734218Y-31799500D01*
X124601459Y-31799500D01*
X124568569Y-31806041D01*
X124487745Y-31822118D01*
X124463558Y-31824500D01*
X124426663Y-31824500D01*
X124426643Y-31824501D01*
X124327292Y-31834650D01*
X124327289Y-31834651D01*
X124166305Y-31887996D01*
X124166294Y-31888001D01*
X124021959Y-31977029D01*
X124021953Y-31977033D01*
X124012324Y-31986663D01*
X123951000Y-32020146D01*
X123881308Y-32015159D01*
X123836965Y-31986660D01*
X123827732Y-31977427D01*
X123827728Y-31977424D01*
X123683492Y-31888457D01*
X123683481Y-31888452D01*
X123522606Y-31835144D01*
X123423322Y-31825000D01*
X123400000Y-31825000D01*
X123400000Y-33774999D01*
X123423308Y-33774999D01*
X123423322Y-33774998D01*
X123522607Y-33764855D01*
X123683481Y-33711547D01*
X123683492Y-33711542D01*
X123827731Y-33622573D01*
X123836959Y-33613345D01*
X123898279Y-33579856D01*
X123967971Y-33584835D01*
X124012327Y-33613339D01*
X124021956Y-33622968D01*
X124036896Y-33632183D01*
X124083621Y-33684130D01*
X124095800Y-33737722D01*
X124095800Y-34593985D01*
X124076115Y-34661024D01*
X124046114Y-34693250D01*
X124033556Y-34702651D01*
X124033551Y-34702656D01*
X123947306Y-34817863D01*
X123947302Y-34817870D01*
X123897008Y-34952715D01*
X123894467Y-34976357D01*
X123867729Y-35040908D01*
X123810336Y-35080756D01*
X123771178Y-35087101D01*
X121099500Y-35087101D01*
X121032461Y-35067416D01*
X120986706Y-35014612D01*
X120975500Y-34963101D01*
X120975500Y-34918386D01*
X120970051Y-34858425D01*
X120969086Y-34847804D01*
X120918478Y-34685394D01*
X120830472Y-34539815D01*
X120830470Y-34539813D01*
X120830469Y-34539811D01*
X120710188Y-34419530D01*
X120564606Y-34331522D01*
X120485785Y-34306961D01*
X120402196Y-34280914D01*
X120402194Y-34280913D01*
X120402192Y-34280913D01*
X120352778Y-34276423D01*
X120331616Y-34274500D01*
X119668384Y-34274500D01*
X119649145Y-34276248D01*
X119597807Y-34280913D01*
X119435393Y-34331522D01*
X119289811Y-34419530D01*
X119169530Y-34539811D01*
X119081522Y-34685393D01*
X119030913Y-34847807D01*
X119024500Y-34918386D01*
X119024500Y-35431613D01*
X119030913Y-35502192D01*
X119030913Y-35502194D01*
X119030914Y-35502196D01*
X119081522Y-35664606D01*
X119134065Y-35751523D01*
X119169530Y-35810188D01*
X119272015Y-35912673D01*
X119305500Y-35973996D01*
X119300516Y-36043688D01*
X119272015Y-36088035D01*
X119169928Y-36190121D01*
X119169927Y-36190122D01*
X119081980Y-36335604D01*
X119031409Y-36497893D01*
X119025000Y-36568427D01*
X119025000Y-36575000D01*
X120974999Y-36575000D01*
X120974999Y-36568417D01*
X120968592Y-36497900D01*
X120967312Y-36491466D01*
X120968801Y-36491169D01*
X120967784Y-36429122D01*
X121004589Y-36369733D01*
X121067660Y-36339669D01*
X121087318Y-36338101D01*
X121452947Y-36338101D01*
X121519986Y-36357786D01*
X121565741Y-36410590D01*
X121575685Y-36479748D01*
X121546660Y-36543304D01*
X121540628Y-36549782D01*
X121051728Y-37038681D01*
X120990405Y-37072166D01*
X120964047Y-37075000D01*
X120250000Y-37075000D01*
X120250000Y-37749919D01*
X120253509Y-37756346D01*
X120248525Y-37826038D01*
X120220025Y-37870385D01*
X120052227Y-38038182D01*
X119990906Y-38071666D01*
X119964548Y-38074500D01*
X119668384Y-38074500D01*
X119649145Y-38076248D01*
X119597807Y-38080913D01*
X119435393Y-38131522D01*
X119289811Y-38219530D01*
X119169530Y-38339811D01*
X119081522Y-38485393D01*
X119030913Y-38647807D01*
X119025782Y-38704275D01*
X119024500Y-38718384D01*
X119024500Y-39231616D01*
X119024686Y-39233661D01*
X119030913Y-39302192D01*
X119030913Y-39302194D01*
X119030914Y-39302196D01*
X119081522Y-39464606D01*
X119160045Y-39594499D01*
X119169530Y-39610188D01*
X119271661Y-39712319D01*
X119305146Y-39773642D01*
X119300162Y-39843334D01*
X119271661Y-39887681D01*
X119196161Y-39963181D01*
X119134838Y-39996666D01*
X119108480Y-39999500D01*
X118482412Y-39999500D01*
X118415373Y-39979815D01*
X118405097Y-39972445D01*
X118402263Y-39970185D01*
X118402262Y-39970184D01*
X118272575Y-39888696D01*
X118249523Y-39874211D01*
X118079254Y-39814631D01*
X118079249Y-39814630D01*
X117900004Y-39794435D01*
X117899996Y-39794435D01*
X117720750Y-39814630D01*
X117720745Y-39814631D01*
X117550476Y-39874211D01*
X117440472Y-39943332D01*
X117373235Y-39962332D01*
X117306400Y-39941964D01*
X117261186Y-39888696D01*
X117250500Y-39838338D01*
X117250500Y-37081582D01*
X119025001Y-37081582D01*
X119031408Y-37152102D01*
X119031409Y-37152107D01*
X119081981Y-37314396D01*
X119169927Y-37459877D01*
X119290122Y-37580072D01*
X119435604Y-37668019D01*
X119435603Y-37668019D01*
X119597894Y-37718590D01*
X119597892Y-37718590D01*
X119668418Y-37724999D01*
X119749999Y-37724998D01*
X119750000Y-37724998D01*
X119750000Y-37075000D01*
X119025001Y-37075000D01*
X119025001Y-37081582D01*
X117250500Y-37081582D01*
X117250500Y-33098322D01*
X122200001Y-33098322D01*
X122210144Y-33197607D01*
X122263452Y-33358481D01*
X122263457Y-33358492D01*
X122352424Y-33502728D01*
X122352427Y-33502732D01*
X122472267Y-33622572D01*
X122472271Y-33622575D01*
X122616507Y-33711542D01*
X122616518Y-33711547D01*
X122777393Y-33764855D01*
X122876683Y-33774999D01*
X122900000Y-33774998D01*
X122900000Y-33050000D01*
X122200001Y-33050000D01*
X122200001Y-33098322D01*
X117250500Y-33098322D01*
X117250500Y-32501677D01*
X122200000Y-32501677D01*
X122200000Y-32550000D01*
X122900000Y-32550000D01*
X122900000Y-31824999D01*
X122876693Y-31825000D01*
X122876674Y-31825001D01*
X122777392Y-31835144D01*
X122616518Y-31888452D01*
X122616507Y-31888457D01*
X122472271Y-31977424D01*
X122472267Y-31977427D01*
X122352427Y-32097267D01*
X122352424Y-32097271D01*
X122263457Y-32241507D01*
X122263452Y-32241518D01*
X122210144Y-32402393D01*
X122200000Y-32501677D01*
X117250500Y-32501677D01*
X117250500Y-28248322D01*
X120125001Y-28248322D01*
X120135144Y-28347607D01*
X120188452Y-28508481D01*
X120188457Y-28508492D01*
X120277424Y-28652728D01*
X120277427Y-28652732D01*
X120397267Y-28772572D01*
X120397271Y-28772575D01*
X120541507Y-28861542D01*
X120541518Y-28861547D01*
X120702393Y-28914855D01*
X120801683Y-28924999D01*
X120849999Y-28924998D01*
X120850000Y-28924998D01*
X120850000Y-28225000D01*
X120125001Y-28225000D01*
X120125001Y-28248322D01*
X117250500Y-28248322D01*
X117250500Y-27184479D01*
X117270185Y-27117440D01*
X117322989Y-27071685D01*
X117392147Y-27061741D01*
X117443390Y-27081376D01*
X117526086Y-27136632D01*
X117646795Y-27186631D01*
X117708164Y-27212051D01*
X117775777Y-27225500D01*
X117807197Y-27231750D01*
X117901456Y-27250500D01*
X117901459Y-27250500D01*
X117901460Y-27250500D01*
X118098540Y-27250500D01*
X120084098Y-27250500D01*
X120151137Y-27270185D01*
X120196892Y-27322989D01*
X120206836Y-27392147D01*
X120191342Y-27434891D01*
X120191507Y-27434968D01*
X120190645Y-27436816D01*
X120189638Y-27439595D01*
X120188455Y-27441511D01*
X120188452Y-27441518D01*
X120135144Y-27602393D01*
X120125000Y-27701677D01*
X120125000Y-27725000D01*
X121226000Y-27725000D01*
X121293039Y-27744685D01*
X121338794Y-27797489D01*
X121350000Y-27849000D01*
X121350000Y-28924999D01*
X121398308Y-28924999D01*
X121398322Y-28924998D01*
X121497607Y-28914855D01*
X121658481Y-28861547D01*
X121658492Y-28861542D01*
X121802726Y-28772576D01*
X121807305Y-28767998D01*
X121868627Y-28734510D01*
X121938319Y-28739491D01*
X121994254Y-28781359D01*
X122012032Y-28814720D01*
X122024209Y-28849519D01*
X122024211Y-28849522D01*
X122120184Y-29002262D01*
X122247738Y-29129816D01*
X122400478Y-29225789D01*
X122570745Y-29285368D01*
X122570750Y-29285369D01*
X122749996Y-29305565D01*
X122750000Y-29305565D01*
X122750004Y-29305565D01*
X122929249Y-29285369D01*
X122929252Y-29285368D01*
X122929255Y-29285368D01*
X123099522Y-29225789D01*
X123252262Y-29129816D01*
X123379816Y-29002262D01*
X123475789Y-28849522D01*
X123535368Y-28679255D01*
X123535369Y-28679249D01*
X123555565Y-28500003D01*
X123555565Y-28499996D01*
X123541434Y-28374586D01*
X123535368Y-28320745D01*
X123507458Y-28240982D01*
X123500500Y-28200028D01*
X123500500Y-27374500D01*
X123520185Y-27307461D01*
X123572989Y-27261706D01*
X123624500Y-27250500D01*
X125423543Y-27250500D01*
X125499551Y-27235380D01*
X125537243Y-27227882D01*
X125561434Y-27225500D01*
X125731613Y-27225500D01*
X125731616Y-27225500D01*
X125802196Y-27219086D01*
X125964606Y-27168478D01*
X126110185Y-27080472D01*
X126230472Y-26960185D01*
X126318478Y-26814606D01*
X126369086Y-26652196D01*
X126375500Y-26581616D01*
X126375500Y-26068384D01*
X126369086Y-25997804D01*
X126318478Y-25835394D01*
X126230472Y-25689815D01*
X126230470Y-25689813D01*
X126230469Y-25689811D01*
X126128339Y-25587681D01*
X126094854Y-25526358D01*
X126099838Y-25456666D01*
X126102750Y-25452135D01*
X131099500Y-25452135D01*
X131099500Y-27547870D01*
X131099501Y-27547876D01*
X131105908Y-27607483D01*
X131156202Y-27742328D01*
X131156206Y-27742335D01*
X131242452Y-27857544D01*
X131242455Y-27857547D01*
X131357664Y-27943793D01*
X131357671Y-27943797D01*
X131492517Y-27994091D01*
X131492516Y-27994091D01*
X131499444Y-27994835D01*
X131552127Y-28000500D01*
X133647872Y-28000499D01*
X133707483Y-27994091D01*
X133842331Y-27943796D01*
X133957546Y-27857546D01*
X134043796Y-27742331D01*
X134094091Y-27607483D01*
X134100500Y-27547873D01*
X134100499Y-25452128D01*
X134094091Y-25392517D01*
X134079027Y-25352129D01*
X134043797Y-25257671D01*
X134043793Y-25257664D01*
X133957547Y-25142455D01*
X133957544Y-25142452D01*
X133842335Y-25056206D01*
X133842328Y-25056202D01*
X133707482Y-25005908D01*
X133707483Y-25005908D01*
X133647883Y-24999501D01*
X133647881Y-24999500D01*
X133647873Y-24999500D01*
X133647864Y-24999500D01*
X131552129Y-24999500D01*
X131552123Y-24999501D01*
X131492516Y-25005908D01*
X131357671Y-25056202D01*
X131357664Y-25056206D01*
X131242455Y-25142452D01*
X131242452Y-25142455D01*
X131156206Y-25257664D01*
X131156202Y-25257671D01*
X131105908Y-25392517D01*
X131099782Y-25449501D01*
X131099501Y-25452123D01*
X131099500Y-25452135D01*
X126102750Y-25452135D01*
X126128339Y-25412319D01*
X126230468Y-25310189D01*
X126230469Y-25310188D01*
X126230472Y-25310185D01*
X126318478Y-25164606D01*
X126369086Y-25002196D01*
X126375500Y-24931616D01*
X126375500Y-24911434D01*
X126377883Y-24887242D01*
X126379361Y-24879815D01*
X126389864Y-24827011D01*
X126400500Y-24773543D01*
X126400500Y-24609448D01*
X136899500Y-24609448D01*
X136899500Y-24790551D01*
X136927829Y-24969410D01*
X136983787Y-25141636D01*
X136983788Y-25141639D01*
X137021144Y-25214952D01*
X137060665Y-25292516D01*
X137066006Y-25302997D01*
X137172441Y-25449494D01*
X137172445Y-25449499D01*
X137300500Y-25577554D01*
X137300505Y-25577558D01*
X137427606Y-25669901D01*
X137447006Y-25683996D01*
X137552484Y-25737740D01*
X137608360Y-25766211D01*
X137608363Y-25766212D01*
X137694476Y-25794191D01*
X137780591Y-25822171D01*
X137863429Y-25835291D01*
X137959449Y-25850500D01*
X137959454Y-25850500D01*
X138140551Y-25850500D01*
X138227259Y-25836765D01*
X138319409Y-25822171D01*
X138491639Y-25766211D01*
X138652994Y-25683996D01*
X138799501Y-25577553D01*
X138927553Y-25449501D01*
X139033996Y-25302994D01*
X139116211Y-25141639D01*
X139172171Y-24969409D01*
X139194725Y-24827011D01*
X139200500Y-24790551D01*
X139200500Y-24609448D01*
X139184019Y-24505397D01*
X139172171Y-24430591D01*
X139116211Y-24258361D01*
X139116211Y-24258360D01*
X139039553Y-24107913D01*
X139033996Y-24097006D01*
X139020396Y-24078287D01*
X138927558Y-23950505D01*
X138927554Y-23950500D01*
X138799499Y-23822445D01*
X138799494Y-23822441D01*
X138652997Y-23716006D01*
X138652996Y-23716005D01*
X138652994Y-23716004D01*
X138601300Y-23689664D01*
X138491639Y-23633788D01*
X138491636Y-23633787D01*
X138319410Y-23577829D01*
X138140551Y-23549500D01*
X138140546Y-23549500D01*
X137959454Y-23549500D01*
X137959449Y-23549500D01*
X137780589Y-23577829D01*
X137608363Y-23633787D01*
X137608360Y-23633788D01*
X137447002Y-23716006D01*
X137300505Y-23822441D01*
X137300500Y-23822445D01*
X137172445Y-23950500D01*
X137172441Y-23950505D01*
X137066006Y-24097002D01*
X136983788Y-24258360D01*
X136983787Y-24258363D01*
X136927829Y-24430589D01*
X136899500Y-24609448D01*
X126400500Y-24609448D01*
X126400500Y-21397844D01*
X130500000Y-21397844D01*
X130506401Y-21457372D01*
X130506403Y-21457379D01*
X130556645Y-21592086D01*
X130556649Y-21592093D01*
X130642809Y-21707187D01*
X130642812Y-21707190D01*
X130757906Y-21793350D01*
X130757913Y-21793354D01*
X130892620Y-21843596D01*
X130892627Y-21843598D01*
X130952155Y-21849999D01*
X130952172Y-21850000D01*
X132050000Y-21850000D01*
X132550000Y-21850000D01*
X133647828Y-21850000D01*
X133647844Y-21849999D01*
X133707372Y-21843598D01*
X133707379Y-21843596D01*
X133842086Y-21793354D01*
X133842093Y-21793350D01*
X133957187Y-21707190D01*
X133957190Y-21707187D01*
X134043350Y-21592093D01*
X134043354Y-21592086D01*
X134093596Y-21457379D01*
X134093598Y-21457372D01*
X134099999Y-21397844D01*
X134100000Y-21397827D01*
X134100000Y-20650000D01*
X132550000Y-20650000D01*
X132550000Y-21850000D01*
X132050000Y-21850000D01*
X132050000Y-20650000D01*
X130500000Y-20650000D01*
X130500000Y-21397844D01*
X126400500Y-21397844D01*
X126400500Y-20296530D01*
X136999500Y-20296530D01*
X136999500Y-20503469D01*
X137039868Y-20706412D01*
X137039870Y-20706420D01*
X137119058Y-20897596D01*
X137234024Y-21069657D01*
X137380342Y-21215975D01*
X137380345Y-21215977D01*
X137552402Y-21330941D01*
X137743580Y-21410130D01*
X137946530Y-21450499D01*
X137946534Y-21450500D01*
X137946535Y-21450500D01*
X138153466Y-21450500D01*
X138153467Y-21450499D01*
X138356420Y-21410130D01*
X138547598Y-21330941D01*
X138719655Y-21215977D01*
X138865977Y-21069655D01*
X138980941Y-20897598D01*
X139060130Y-20706420D01*
X139100500Y-20503465D01*
X139100500Y-20296535D01*
X139060130Y-20093580D01*
X138980941Y-19902402D01*
X138865977Y-19730345D01*
X138865975Y-19730342D01*
X138719657Y-19584024D01*
X138633626Y-19526541D01*
X138547598Y-19469059D01*
X138506723Y-19452128D01*
X138356420Y-19389870D01*
X138356412Y-19389868D01*
X138153469Y-19349500D01*
X138153465Y-19349500D01*
X137946535Y-19349500D01*
X137946530Y-19349500D01*
X137743587Y-19389868D01*
X137743579Y-19389870D01*
X137552403Y-19469058D01*
X137380342Y-19584024D01*
X137234024Y-19730342D01*
X137119058Y-19902403D01*
X137039870Y-20093579D01*
X137039868Y-20093587D01*
X136999500Y-20296530D01*
X126400500Y-20296530D01*
X126400500Y-19402155D01*
X130500000Y-19402155D01*
X130500000Y-20150000D01*
X132050000Y-20150000D01*
X132550000Y-20150000D01*
X134100000Y-20150000D01*
X134100000Y-19402172D01*
X134099999Y-19402155D01*
X134093598Y-19342627D01*
X134093596Y-19342620D01*
X134043354Y-19207913D01*
X134043350Y-19207906D01*
X133957190Y-19092812D01*
X133957187Y-19092809D01*
X133842093Y-19006649D01*
X133842086Y-19006645D01*
X133707379Y-18956403D01*
X133707372Y-18956401D01*
X133647844Y-18950000D01*
X132550000Y-18950000D01*
X132550000Y-20150000D01*
X132050000Y-20150000D01*
X132050000Y-18950000D01*
X130952155Y-18950000D01*
X130892627Y-18956401D01*
X130892620Y-18956403D01*
X130757913Y-19006645D01*
X130757906Y-19006649D01*
X130642812Y-19092809D01*
X130642809Y-19092812D01*
X130556649Y-19207906D01*
X130556645Y-19207913D01*
X130506403Y-19342620D01*
X130506401Y-19342627D01*
X130500000Y-19402155D01*
X126400500Y-19402155D01*
X126400500Y-18188956D01*
X126377883Y-18075256D01*
X126375500Y-18051064D01*
X126375500Y-18020831D01*
X126375499Y-18020818D01*
X126375451Y-18020352D01*
X126365436Y-17922315D01*
X126312549Y-17762713D01*
X126312545Y-17762707D01*
X126312544Y-17762704D01*
X126224283Y-17619612D01*
X126224280Y-17619608D01*
X126192353Y-17587681D01*
X126158868Y-17526358D01*
X126163852Y-17456666D01*
X126192353Y-17412319D01*
X126224281Y-17380391D01*
X126312549Y-17237287D01*
X126365436Y-17077685D01*
X126375500Y-16979174D01*
X126375500Y-16948934D01*
X126377883Y-16924742D01*
X126400500Y-16811043D01*
X126400500Y-16613956D01*
X126377883Y-16500256D01*
X126375500Y-16476064D01*
X126375500Y-16445831D01*
X126375499Y-16445818D01*
X126365436Y-16347316D01*
X126365436Y-16347315D01*
X126312549Y-16187713D01*
X126312545Y-16187707D01*
X126312544Y-16187704D01*
X126224283Y-16044612D01*
X126224280Y-16044608D01*
X126105391Y-15925719D01*
X126105387Y-15925716D01*
X125962295Y-15837455D01*
X125962289Y-15837452D01*
X125962287Y-15837451D01*
X125802685Y-15784564D01*
X125802682Y-15784563D01*
X125802680Y-15784563D01*
X125802677Y-15784562D01*
X125782930Y-15782544D01*
X125748087Y-15773749D01*
X125691835Y-15750449D01*
X125691831Y-15750448D01*
X125691828Y-15750447D01*
X125498543Y-15712000D01*
X125498541Y-15712000D01*
X124292175Y-15712000D01*
X124292155Y-15711999D01*
X124286041Y-15711999D01*
X124088960Y-15711999D01*
X124088957Y-15711999D01*
X123895672Y-15750446D01*
X123895664Y-15750448D01*
X123713588Y-15825866D01*
X123713579Y-15825871D01*
X123549719Y-15935359D01*
X123549715Y-15935362D01*
X122699196Y-16785883D01*
X122512220Y-16972859D01*
X122512218Y-16972861D01*
X122476916Y-17008163D01*
X122372859Y-17112219D01*
X122263371Y-17276080D01*
X122263364Y-17276093D01*
X122228791Y-17359563D01*
X122228791Y-17359564D01*
X122196323Y-17437948D01*
X122187950Y-17458161D01*
X122187947Y-17458169D01*
X122149500Y-17651456D01*
X122149500Y-20134436D01*
X122129815Y-20201475D01*
X122119215Y-20215637D01*
X122092987Y-20245906D01*
X122092982Y-20245912D01*
X122015255Y-20366857D01*
X122015252Y-20366863D01*
X121955483Y-20497741D01*
X121914977Y-20635691D01*
X121914974Y-20635703D01*
X121894500Y-20778110D01*
X121894500Y-21350002D01*
X121899644Y-21421939D01*
X121910603Y-21459262D01*
X121914363Y-21511841D01*
X121894500Y-21649998D01*
X121894500Y-22221889D01*
X121914974Y-22364296D01*
X121914976Y-22364304D01*
X121954966Y-22500499D01*
X121955483Y-22502258D01*
X122015252Y-22633136D01*
X122015253Y-22633138D01*
X122089376Y-22748476D01*
X122090196Y-22749917D01*
X122092988Y-22754098D01*
X122187207Y-22862830D01*
X122187210Y-22862833D01*
X122295864Y-22956981D01*
X122295867Y-22956984D01*
X122295869Y-22956985D01*
X122295870Y-22956986D01*
X122416906Y-23034770D01*
X122452010Y-23050801D01*
X122504815Y-23096556D01*
X122524500Y-23163595D01*
X122524500Y-24355145D01*
X122505494Y-24421117D01*
X122424211Y-24550476D01*
X122364631Y-24720745D01*
X122364630Y-24720750D01*
X122344435Y-24899996D01*
X122344435Y-24900003D01*
X122364630Y-25079249D01*
X122364632Y-25079257D01*
X122366483Y-25084546D01*
X122370044Y-25154325D01*
X122335315Y-25214952D01*
X122273322Y-25247179D01*
X122249441Y-25249500D01*
X120460544Y-25249500D01*
X120393505Y-25229815D01*
X120347750Y-25177011D01*
X120337806Y-25107853D01*
X120342155Y-25088619D01*
X120369086Y-25002196D01*
X120375500Y-24931616D01*
X120375500Y-24911434D01*
X120377883Y-24887242D01*
X120379361Y-24879815D01*
X120389864Y-24827011D01*
X120400500Y-24773543D01*
X120400500Y-18188956D01*
X120377883Y-18075256D01*
X120375500Y-18051064D01*
X120375500Y-18020831D01*
X120375499Y-18020818D01*
X120375451Y-18020352D01*
X120365436Y-17922315D01*
X120312549Y-17762713D01*
X120312545Y-17762707D01*
X120312544Y-17762704D01*
X120224283Y-17619612D01*
X120224280Y-17619608D01*
X120192353Y-17587681D01*
X120158868Y-17526358D01*
X120163852Y-17456666D01*
X120192353Y-17412319D01*
X120224281Y-17380391D01*
X120312549Y-17237287D01*
X120365436Y-17077685D01*
X120375500Y-16979174D01*
X120375500Y-16948934D01*
X120377883Y-16924742D01*
X120400500Y-16811043D01*
X120400500Y-16613956D01*
X120377883Y-16500256D01*
X120375500Y-16476064D01*
X120375500Y-16445831D01*
X120375499Y-16445818D01*
X120365436Y-16347316D01*
X120365436Y-16347315D01*
X120312549Y-16187713D01*
X120312545Y-16187707D01*
X120312544Y-16187704D01*
X120224283Y-16044612D01*
X120224280Y-16044608D01*
X120105391Y-15925719D01*
X120105387Y-15925716D01*
X119962295Y-15837455D01*
X119962289Y-15837452D01*
X119962287Y-15837451D01*
X119802685Y-15784564D01*
X119802682Y-15784563D01*
X119802680Y-15784563D01*
X119802677Y-15784562D01*
X119782930Y-15782544D01*
X119748087Y-15773749D01*
X119691835Y-15750449D01*
X119691831Y-15750448D01*
X119691828Y-15750447D01*
X119498543Y-15712000D01*
X119498541Y-15712000D01*
X118292175Y-15712000D01*
X118292155Y-15711999D01*
X118286041Y-15711999D01*
X118088960Y-15711999D01*
X118088957Y-15711999D01*
X117895672Y-15750446D01*
X117895664Y-15750448D01*
X117713588Y-15825866D01*
X117713579Y-15825871D01*
X117549719Y-15935359D01*
X117549715Y-15935362D01*
X116699196Y-16785883D01*
X116512220Y-16972859D01*
X116512218Y-16972861D01*
X116476916Y-17008163D01*
X116372859Y-17112219D01*
X116263371Y-17276080D01*
X116263364Y-17276093D01*
X116228791Y-17359563D01*
X116228791Y-17359564D01*
X116196323Y-17437948D01*
X116187950Y-17458161D01*
X116187947Y-17458169D01*
X116149500Y-17651456D01*
X116149500Y-20134436D01*
X116129815Y-20201475D01*
X116119215Y-20215637D01*
X116092987Y-20245906D01*
X116092982Y-20245912D01*
X116015255Y-20366857D01*
X116015252Y-20366863D01*
X115955483Y-20497741D01*
X115914977Y-20635691D01*
X115914974Y-20635703D01*
X115894500Y-20778110D01*
X115894500Y-21350002D01*
X115899644Y-21421939D01*
X115910603Y-21459262D01*
X115914363Y-21511841D01*
X115894500Y-21649998D01*
X115894500Y-22221889D01*
X115914974Y-22364296D01*
X115914977Y-22364308D01*
X115938452Y-22444257D01*
X115938452Y-22514127D01*
X115900677Y-22572905D01*
X115837122Y-22601930D01*
X115767963Y-22591986D01*
X115731794Y-22566873D01*
X114336819Y-21171898D01*
X114303334Y-21110575D01*
X114300500Y-21084217D01*
X114300500Y-17201458D01*
X114300499Y-17201457D01*
X114275130Y-17073915D01*
X114262051Y-17008164D01*
X114213866Y-16891835D01*
X114213866Y-16891834D01*
X114186635Y-16826092D01*
X114186628Y-16826079D01*
X114077140Y-16662219D01*
X114028877Y-16613956D01*
X113937782Y-16522861D01*
X113937781Y-16522860D01*
X113384208Y-15969288D01*
X113384206Y-15969285D01*
X113384206Y-15969286D01*
X113377139Y-15962219D01*
X113377139Y-15962218D01*
X113237782Y-15822861D01*
X113237781Y-15822860D01*
X113237780Y-15822859D01*
X113073920Y-15713371D01*
X113073911Y-15713366D01*
X113001254Y-15683271D01*
X112945165Y-15660038D01*
X112891836Y-15637949D01*
X112891832Y-15637948D01*
X112891828Y-15637946D01*
X112795188Y-15618724D01*
X112698544Y-15599500D01*
X112698541Y-15599500D01*
X110098540Y-15599500D01*
X109901459Y-15599500D01*
X109901456Y-15599500D01*
X109708171Y-15637946D01*
X109708167Y-15637948D01*
X109708165Y-15637948D01*
X109708164Y-15637949D01*
X109632745Y-15669188D01*
X109632743Y-15669189D01*
X109526087Y-15713367D01*
X109526083Y-15713369D01*
X109419534Y-15784563D01*
X109362222Y-15822857D01*
X109362214Y-15822863D01*
X107992077Y-17193002D01*
X107562220Y-17622859D01*
X107562218Y-17622861D01*
X107516897Y-17668182D01*
X107422859Y-17762219D01*
X107313371Y-17926079D01*
X107313364Y-17926092D01*
X107237950Y-18108160D01*
X107237947Y-18108170D01*
X107199500Y-18301456D01*
X107199500Y-19158561D01*
X107179815Y-19225600D01*
X107174767Y-19232872D01*
X107156204Y-19257668D01*
X107156202Y-19257671D01*
X107105908Y-19392517D01*
X107099501Y-19452116D01*
X107099501Y-19452123D01*
X107099500Y-19452135D01*
X107099500Y-22047870D01*
X107099501Y-22047876D01*
X107105908Y-22107483D01*
X107156203Y-22242329D01*
X107174766Y-22267126D01*
X107199184Y-22332590D01*
X107199500Y-22341438D01*
X107199500Y-23198541D01*
X107199500Y-23198543D01*
X107199499Y-23198543D01*
X107237947Y-23391829D01*
X107237950Y-23391839D01*
X107313364Y-23573907D01*
X107313371Y-23573920D01*
X107422859Y-23737780D01*
X107422860Y-23737781D01*
X107422861Y-23737782D01*
X107562218Y-23877139D01*
X107562219Y-23877139D01*
X107569286Y-23884206D01*
X107569285Y-23884206D01*
X107569289Y-23884209D01*
X109213181Y-25528101D01*
X109246666Y-25589424D01*
X109249500Y-25615782D01*
X109249500Y-30697870D01*
X109249501Y-30697876D01*
X109255908Y-30757483D01*
X109306202Y-30892328D01*
X109306206Y-30892335D01*
X109392452Y-31007544D01*
X109392455Y-31007547D01*
X109507664Y-31093793D01*
X109507671Y-31093797D01*
X109642517Y-31144091D01*
X109642516Y-31144091D01*
X109649444Y-31144835D01*
X109702127Y-31150500D01*
X110625500Y-31150499D01*
X110692539Y-31170183D01*
X110738294Y-31222987D01*
X110749500Y-31274499D01*
X110749500Y-35634436D01*
X110729815Y-35701475D01*
X110719215Y-35715637D01*
X110692987Y-35745906D01*
X110692982Y-35745912D01*
X110615255Y-35866857D01*
X110615252Y-35866863D01*
X110555483Y-35997741D01*
X110514977Y-36135691D01*
X110514974Y-36135703D01*
X110494500Y-36278110D01*
X110494500Y-36850002D01*
X110499644Y-36921939D01*
X110510603Y-36959262D01*
X110514363Y-37011841D01*
X110494500Y-37149998D01*
X110494500Y-37721889D01*
X110514974Y-37864296D01*
X110514977Y-37864308D01*
X110517946Y-37874420D01*
X110555483Y-38002259D01*
X110564346Y-38021666D01*
X110615252Y-38133136D01*
X110615253Y-38133138D01*
X110689376Y-38248476D01*
X110690194Y-38249913D01*
X110692987Y-38254095D01*
X110719212Y-38284360D01*
X110748238Y-38347914D01*
X110749500Y-38365563D01*
X110749500Y-42725500D01*
X110729815Y-42792539D01*
X110677011Y-42838294D01*
X110625500Y-42849500D01*
X109702129Y-42849500D01*
X109702123Y-42849501D01*
X109642516Y-42855908D01*
X109507671Y-42906202D01*
X109507664Y-42906206D01*
X109392455Y-42992452D01*
X109392452Y-42992455D01*
X109306206Y-43107664D01*
X109306202Y-43107671D01*
X109255908Y-43242517D01*
X109249501Y-43302116D01*
X109249501Y-43302123D01*
X109249500Y-43302135D01*
X109249500Y-45470003D01*
X109229815Y-45537042D01*
X109213181Y-45557684D01*
X107807685Y-46963181D01*
X107746362Y-46996666D01*
X107720004Y-46999500D01*
X102193231Y-46999500D01*
X102126192Y-46979815D01*
X102118920Y-46974767D01*
X102027331Y-46906204D01*
X102027328Y-46906202D01*
X101892482Y-46855908D01*
X101892483Y-46855908D01*
X101832883Y-46849501D01*
X101832881Y-46849500D01*
X101832873Y-46849500D01*
X101832864Y-46849500D01*
X97437129Y-46849500D01*
X97437123Y-46849501D01*
X97377516Y-46855908D01*
X97242671Y-46906202D01*
X97242668Y-46906204D01*
X97151080Y-46974767D01*
X97085615Y-46999184D01*
X97076769Y-46999500D01*
X86459499Y-46999500D01*
X86392460Y-46979815D01*
X86346705Y-46927011D01*
X86335499Y-46875500D01*
X86335499Y-46352129D01*
X86335498Y-46352123D01*
X86335497Y-46352116D01*
X86329091Y-46292517D01*
X86289136Y-46185393D01*
X86278797Y-46157671D01*
X86278793Y-46157664D01*
X86192547Y-46042455D01*
X86192544Y-46042452D01*
X86077335Y-45956206D01*
X86077328Y-45956202D01*
X85942482Y-45905908D01*
X85942483Y-45905908D01*
X85882883Y-45899501D01*
X85882881Y-45899500D01*
X85882873Y-45899500D01*
X85882865Y-45899500D01*
X85809500Y-45899500D01*
X85742461Y-45879815D01*
X85696706Y-45827011D01*
X85685500Y-45775500D01*
X85685500Y-38177135D01*
X103749500Y-38177135D01*
X103749500Y-39972870D01*
X103749501Y-39972876D01*
X103755908Y-40032483D01*
X103806202Y-40167328D01*
X103806206Y-40167335D01*
X103892452Y-40282544D01*
X103892455Y-40282547D01*
X104007664Y-40368793D01*
X104007671Y-40368797D01*
X104142517Y-40419091D01*
X104142516Y-40419091D01*
X104149444Y-40419835D01*
X104202127Y-40425500D01*
X105997872Y-40425499D01*
X106057483Y-40419091D01*
X106192331Y-40368796D01*
X106307546Y-40282546D01*
X106393796Y-40167331D01*
X106444091Y-40032483D01*
X106450500Y-39972873D01*
X106450499Y-38177128D01*
X106444091Y-38117517D01*
X106397431Y-37992416D01*
X106393797Y-37982671D01*
X106393793Y-37982664D01*
X106307547Y-37867455D01*
X106307544Y-37867452D01*
X106192335Y-37781206D01*
X106192328Y-37781202D01*
X106060401Y-37731997D01*
X106004467Y-37690126D01*
X105980050Y-37624662D01*
X105994902Y-37556389D01*
X106016053Y-37528133D01*
X106138108Y-37406078D01*
X106273600Y-37212578D01*
X106373429Y-36998492D01*
X106373432Y-36998486D01*
X106430636Y-36785000D01*
X105533012Y-36785000D01*
X105565925Y-36727993D01*
X105600000Y-36600826D01*
X105600000Y-36469174D01*
X105565925Y-36342007D01*
X105533012Y-36285000D01*
X106430636Y-36285000D01*
X106430635Y-36284999D01*
X106373432Y-36071513D01*
X106373429Y-36071507D01*
X106273600Y-35857422D01*
X106273599Y-35857420D01*
X106138113Y-35663926D01*
X106138108Y-35663920D01*
X105971082Y-35496894D01*
X105777578Y-35361399D01*
X105563492Y-35261570D01*
X105563486Y-35261567D01*
X105350000Y-35204364D01*
X105350000Y-36101988D01*
X105292993Y-36069075D01*
X105165826Y-36035000D01*
X105034174Y-36035000D01*
X104907007Y-36069075D01*
X104850000Y-36101988D01*
X104850000Y-35204364D01*
X104849999Y-35204364D01*
X104636513Y-35261567D01*
X104636507Y-35261570D01*
X104422422Y-35361399D01*
X104422420Y-35361400D01*
X104228926Y-35496886D01*
X104228920Y-35496891D01*
X104061891Y-35663920D01*
X104061886Y-35663926D01*
X103926400Y-35857420D01*
X103926399Y-35857422D01*
X103826570Y-36071507D01*
X103826567Y-36071513D01*
X103769364Y-36284999D01*
X103769364Y-36285000D01*
X104666988Y-36285000D01*
X104634075Y-36342007D01*
X104600000Y-36469174D01*
X104600000Y-36600826D01*
X104634075Y-36727993D01*
X104666988Y-36785000D01*
X103769364Y-36785000D01*
X103826567Y-36998486D01*
X103826570Y-36998492D01*
X103926399Y-37212578D01*
X104061894Y-37406082D01*
X104183946Y-37528134D01*
X104217431Y-37589457D01*
X104212447Y-37659149D01*
X104170575Y-37715082D01*
X104139598Y-37731997D01*
X104007671Y-37781202D01*
X104007664Y-37781206D01*
X103892455Y-37867452D01*
X103892452Y-37867455D01*
X103806206Y-37982664D01*
X103806202Y-37982671D01*
X103755908Y-38117517D01*
X103749501Y-38177116D01*
X103749501Y-38177123D01*
X103749500Y-38177135D01*
X85685500Y-38177135D01*
X85685500Y-29224499D01*
X85705185Y-29157460D01*
X85757989Y-29111705D01*
X85809500Y-29100499D01*
X85882871Y-29100499D01*
X85882872Y-29100499D01*
X85942483Y-29094091D01*
X86077331Y-29043796D01*
X86192546Y-28957546D01*
X86278796Y-28842331D01*
X86329091Y-28707483D01*
X86335500Y-28647873D01*
X86335500Y-28124500D01*
X86355185Y-28057461D01*
X86407989Y-28011706D01*
X86459500Y-28000500D01*
X97076769Y-28000500D01*
X97143808Y-28020185D01*
X97151080Y-28025233D01*
X97194132Y-28057461D01*
X97242073Y-28093350D01*
X97242668Y-28093795D01*
X97242671Y-28093797D01*
X97377517Y-28144091D01*
X97377516Y-28144091D01*
X97384444Y-28144835D01*
X97437127Y-28150500D01*
X101832872Y-28150499D01*
X101892483Y-28144091D01*
X102027331Y-28093796D01*
X102142546Y-28007546D01*
X102228796Y-27892331D01*
X102279091Y-27757483D01*
X102285500Y-27697873D01*
X102285499Y-24302128D01*
X102279091Y-24242517D01*
X102228884Y-24107906D01*
X102228797Y-24107671D01*
X102228793Y-24107664D01*
X102142547Y-23992455D01*
X102142544Y-23992452D01*
X102027335Y-23906206D01*
X102027328Y-23906202D01*
X101892482Y-23855908D01*
X101892483Y-23855908D01*
X101832883Y-23849501D01*
X101832881Y-23849500D01*
X101832873Y-23849500D01*
X101832864Y-23849500D01*
X97437129Y-23849500D01*
X97437123Y-23849501D01*
X97377516Y-23855908D01*
X97242671Y-23906202D01*
X97242668Y-23906204D01*
X97151080Y-23974767D01*
X97085615Y-23999184D01*
X97076769Y-23999500D01*
X86459499Y-23999500D01*
X86392460Y-23979815D01*
X86346705Y-23927011D01*
X86335499Y-23875500D01*
X86335499Y-23352129D01*
X86335498Y-23352123D01*
X86335497Y-23352116D01*
X86329091Y-23292517D01*
X86321109Y-23271117D01*
X86278797Y-23157671D01*
X86278793Y-23157664D01*
X86192547Y-23042455D01*
X86192544Y-23042452D01*
X86077335Y-22956206D01*
X86077328Y-22956202D01*
X85942482Y-22905908D01*
X85942483Y-22905908D01*
X85882883Y-22899501D01*
X85882881Y-22899500D01*
X85882873Y-22899500D01*
X85882864Y-22899500D01*
X81487129Y-22899500D01*
X81487123Y-22899501D01*
X81427516Y-22905908D01*
X81292671Y-22956202D01*
X81292664Y-22956206D01*
X81177455Y-23042452D01*
X81177452Y-23042455D01*
X81091206Y-23157664D01*
X81091202Y-23157671D01*
X81040908Y-23292517D01*
X81034501Y-23352116D01*
X81034501Y-23352123D01*
X81034500Y-23352135D01*
X81034500Y-28647870D01*
X81034501Y-28647876D01*
X81040908Y-28707483D01*
X81091202Y-28842328D01*
X81091206Y-28842335D01*
X81177452Y-28957544D01*
X81177455Y-28957547D01*
X81292664Y-29043793D01*
X81292671Y-29043797D01*
X81337618Y-29060561D01*
X81427517Y-29094091D01*
X81487127Y-29100500D01*
X81560500Y-29100499D01*
X81627538Y-29120183D01*
X81673294Y-29172986D01*
X81684500Y-29224499D01*
X81684500Y-45775500D01*
X81664815Y-45842539D01*
X81612011Y-45888294D01*
X81560502Y-45899500D01*
X81487130Y-45899500D01*
X81487123Y-45899501D01*
X81427516Y-45905908D01*
X81292671Y-45956202D01*
X81292664Y-45956206D01*
X81177455Y-46042452D01*
X81177452Y-46042455D01*
X81091206Y-46157664D01*
X81091202Y-46157671D01*
X81040908Y-46292517D01*
X81034965Y-46347804D01*
X81034501Y-46352123D01*
X81034500Y-46352135D01*
X81034500Y-51647870D01*
X81034501Y-51647876D01*
X81040908Y-51707483D01*
X81091202Y-51842328D01*
X81091206Y-51842335D01*
X81177452Y-51957544D01*
X81177455Y-51957547D01*
X81292664Y-52043793D01*
X81292671Y-52043797D01*
X81427517Y-52094091D01*
X81427516Y-52094091D01*
X81434444Y-52094835D01*
X81487127Y-52100500D01*
X85882872Y-52100499D01*
X85942483Y-52094091D01*
X86077331Y-52043796D01*
X86192546Y-51957546D01*
X86278796Y-51842331D01*
X86329091Y-51707483D01*
X86335500Y-51647873D01*
X86335500Y-51124500D01*
X86355185Y-51057461D01*
X86407989Y-51011706D01*
X86459500Y-51000500D01*
X97076769Y-51000500D01*
X97143808Y-51020185D01*
X97151080Y-51025233D01*
X97194132Y-51057461D01*
X97242073Y-51093350D01*
X97242668Y-51093795D01*
X97242671Y-51093797D01*
X97377517Y-51144091D01*
X97377516Y-51144091D01*
X97384444Y-51144835D01*
X97437127Y-51150500D01*
X101832872Y-51150499D01*
X101892483Y-51144091D01*
X102027331Y-51093796D01*
X102085819Y-51050011D01*
X102118920Y-51025233D01*
X102184385Y-51000816D01*
X102193231Y-51000500D01*
X108731113Y-51000500D01*
X108731120Y-51000500D01*
X108861118Y-50983385D01*
X108991116Y-50966271D01*
X109244419Y-50898398D01*
X109486697Y-50798043D01*
X109660197Y-50697873D01*
X109660199Y-50697871D01*
X109660201Y-50697871D01*
X109713788Y-50666933D01*
X109713791Y-50666930D01*
X109713803Y-50666924D01*
X109804131Y-50597611D01*
X109921851Y-50507283D01*
X111542315Y-48886817D01*
X111603638Y-48853333D01*
X111629996Y-48850499D01*
X113797871Y-48850499D01*
X113797872Y-48850499D01*
X113857483Y-48844091D01*
X113992331Y-48793796D01*
X114107546Y-48707546D01*
X114193796Y-48592331D01*
X114244091Y-48457483D01*
X114250500Y-48397873D01*
X114250499Y-43302128D01*
X114244091Y-43242517D01*
X114193796Y-43107669D01*
X114193795Y-43107668D01*
X114193793Y-43107664D01*
X114107547Y-42992455D01*
X114107544Y-42992452D01*
X113992335Y-42906206D01*
X113992328Y-42906202D01*
X113857482Y-42855908D01*
X113857483Y-42855908D01*
X113797883Y-42849501D01*
X113797881Y-42849500D01*
X113797873Y-42849500D01*
X113797865Y-42849500D01*
X112874500Y-42849500D01*
X112807461Y-42829815D01*
X112761706Y-42777011D01*
X112750500Y-42725500D01*
X112750500Y-38365562D01*
X112770185Y-38298523D01*
X112780788Y-38284359D01*
X112807009Y-38254098D01*
X112807009Y-38254097D01*
X112807015Y-38254091D01*
X112884747Y-38133137D01*
X112944517Y-38002259D01*
X112985024Y-37864304D01*
X113005500Y-37721889D01*
X113005500Y-37150000D01*
X113000784Y-37084062D01*
X113000355Y-37078059D01*
X112989397Y-37040741D01*
X112985636Y-36988158D01*
X112987405Y-36975854D01*
X113005500Y-36850000D01*
X113005500Y-36278111D01*
X112985024Y-36135696D01*
X112944517Y-35997741D01*
X112884747Y-35866863D01*
X112878678Y-35857420D01*
X112810623Y-35751523D01*
X112809802Y-35750081D01*
X112807014Y-35745906D01*
X112780786Y-35715637D01*
X112751762Y-35652081D01*
X112750500Y-35634435D01*
X112750500Y-31274499D01*
X112770185Y-31207460D01*
X112822989Y-31161705D01*
X112874500Y-31150499D01*
X113797871Y-31150499D01*
X113797872Y-31150499D01*
X113857483Y-31144091D01*
X113992331Y-31093796D01*
X114107546Y-31007546D01*
X114193796Y-30892331D01*
X114244091Y-30757483D01*
X114250500Y-30697873D01*
X114250499Y-26014780D01*
X114270184Y-25947742D01*
X114322988Y-25901987D01*
X114392146Y-25892043D01*
X114455702Y-25921068D01*
X114462180Y-25927100D01*
X115213181Y-26678101D01*
X115246666Y-26739424D01*
X115249500Y-26765782D01*
X115249500Y-41148544D01*
X115281615Y-41309997D01*
X115281616Y-41310000D01*
X115287715Y-41340658D01*
X115287950Y-41341839D01*
X115287951Y-41341841D01*
X115363364Y-41523907D01*
X115363371Y-41523920D01*
X115472860Y-41687781D01*
X115472863Y-41687785D01*
X115616537Y-41831459D01*
X115616559Y-41831479D01*
X117169735Y-43384655D01*
X117169764Y-43384686D01*
X117312214Y-43527136D01*
X117312218Y-43527139D01*
X117476079Y-43636628D01*
X117476092Y-43636635D01*
X117604833Y-43689961D01*
X117647744Y-43707735D01*
X117658164Y-43712051D01*
X117754812Y-43731275D01*
X117803135Y-43740887D01*
X117851458Y-43750500D01*
X117851459Y-43750500D01*
X117851460Y-43750500D01*
X118048540Y-43750500D01*
X135882238Y-43750500D01*
X135949277Y-43770185D01*
X135995032Y-43822989D01*
X136005458Y-43860617D01*
X136018399Y-43975480D01*
X136018400Y-43975485D01*
X136077980Y-44145754D01*
X136173953Y-44298493D01*
X136301507Y-44426047D01*
X136454247Y-44522020D01*
X136624514Y-44581599D01*
X136671591Y-44586903D01*
X136736003Y-44613968D01*
X136745388Y-44622442D01*
X138989748Y-46866802D01*
X139023233Y-46928125D01*
X139025558Y-46943260D01*
X139030914Y-47002196D01*
X139063854Y-47107906D01*
X139081522Y-47164606D01*
X139169530Y-47310188D01*
X139271661Y-47412319D01*
X139305146Y-47473642D01*
X139300162Y-47543334D01*
X139271661Y-47587681D01*
X139169531Y-47689810D01*
X139169530Y-47689811D01*
X139081522Y-47835393D01*
X139030913Y-47997807D01*
X139025782Y-48054275D01*
X139024500Y-48068384D01*
X139024500Y-48581616D01*
X139025474Y-48592331D01*
X139030913Y-48652192D01*
X139030913Y-48652194D01*
X139030914Y-48652196D01*
X139075038Y-48793797D01*
X139081522Y-48814606D01*
X139169530Y-48960188D01*
X139213180Y-49003837D01*
X139246666Y-49065160D01*
X139249500Y-49091519D01*
X139249500Y-50908480D01*
X139229815Y-50975519D01*
X139213181Y-50996161D01*
X139169531Y-51039810D01*
X139169530Y-51039811D01*
X139081522Y-51185393D01*
X139030913Y-51347807D01*
X139024500Y-51418386D01*
X139024500Y-51537769D01*
X139004815Y-51604808D01*
X138988181Y-51625450D01*
X137417050Y-53196580D01*
X137417044Y-53196588D01*
X137367812Y-53270268D01*
X137367813Y-53270269D01*
X137334921Y-53319496D01*
X137334914Y-53319508D01*
X137278342Y-53456086D01*
X137278340Y-53456092D01*
X137249500Y-53601079D01*
X137249500Y-53601082D01*
X137249500Y-55823918D01*
X137249500Y-55823920D01*
X137249499Y-55823920D01*
X137278340Y-55968907D01*
X137278343Y-55968917D01*
X137334914Y-56105492D01*
X137367812Y-56154727D01*
X137367813Y-56154730D01*
X137417046Y-56228414D01*
X137417052Y-56228421D01*
X138719435Y-57530803D01*
X138752920Y-57592126D01*
X138755282Y-57629290D01*
X138744723Y-57749997D01*
X138744723Y-57750002D01*
X138763793Y-57967975D01*
X138763793Y-57967979D01*
X138820422Y-58179322D01*
X138820424Y-58179326D01*
X138820425Y-58179330D01*
X138836643Y-58214109D01*
X138912897Y-58377638D01*
X138912898Y-58377639D01*
X139038402Y-58556877D01*
X139193123Y-58711598D01*
X139372361Y-58837102D01*
X139570670Y-58929575D01*
X139782023Y-58986207D01*
X139964926Y-59002208D01*
X139999998Y-59005277D01*
X140000000Y-59005277D01*
X140000002Y-59005277D01*
X140028254Y-59002805D01*
X140217977Y-58986207D01*
X140429330Y-58929575D01*
X140627639Y-58837102D01*
X140806877Y-58711598D01*
X140961598Y-58556877D01*
X141087102Y-58377639D01*
X141179575Y-58179330D01*
X141236207Y-57967977D01*
X141255277Y-57750000D01*
X141236207Y-57532023D01*
X141179575Y-57320670D01*
X141087102Y-57122362D01*
X141087100Y-57122359D01*
X141087099Y-57122357D01*
X140961599Y-56943124D01*
X140961598Y-56943123D01*
X140806877Y-56788402D01*
X140627639Y-56662898D01*
X140627640Y-56662898D01*
X140627638Y-56662897D01*
X140528484Y-56616661D01*
X140429330Y-56570425D01*
X140429326Y-56570424D01*
X140429322Y-56570422D01*
X140217977Y-56513793D01*
X140000002Y-56494723D01*
X139999997Y-56494723D01*
X139879290Y-56505282D01*
X139810790Y-56491515D01*
X139780803Y-56469435D01*
X138786819Y-55475451D01*
X138753334Y-55414128D01*
X138750500Y-55387770D01*
X138750500Y-55249997D01*
X146145080Y-55249997D01*
X146145080Y-55250002D01*
X146164746Y-55612728D01*
X146223517Y-55971214D01*
X146223519Y-55971222D01*
X146320695Y-56321220D01*
X146320697Y-56321227D01*
X146455152Y-56658684D01*
X146455161Y-56658702D01*
X146625316Y-56979647D01*
X146625318Y-56979651D01*
X146829170Y-57280309D01*
X146829177Y-57280319D01*
X146960969Y-57435475D01*
X146960970Y-57435475D01*
X148205748Y-56190698D01*
X148279588Y-56292330D01*
X148457670Y-56470412D01*
X148559300Y-56544251D01*
X147311888Y-57791662D01*
X147311888Y-57791664D01*
X147328070Y-57806992D01*
X147328071Y-57806993D01*
X147617266Y-58026832D01*
X147617282Y-58026843D01*
X147928522Y-58214109D01*
X147928535Y-58214116D01*
X148258205Y-58366639D01*
X148258210Y-58366640D01*
X148602461Y-58482632D01*
X148957235Y-58560724D01*
X149318366Y-58599999D01*
X149318374Y-58600000D01*
X149681626Y-58600000D01*
X149681633Y-58599999D01*
X150042764Y-58560724D01*
X150397538Y-58482632D01*
X150741789Y-58366640D01*
X150741794Y-58366639D01*
X151071464Y-58214116D01*
X151071477Y-58214109D01*
X151382717Y-58026843D01*
X151382733Y-58026832D01*
X151671929Y-57806992D01*
X151688110Y-57791664D01*
X151688110Y-57791663D01*
X150440698Y-56544251D01*
X150542330Y-56470412D01*
X150720412Y-56292330D01*
X150794251Y-56190698D01*
X152039028Y-57435475D01*
X152039029Y-57435475D01*
X152170827Y-57280311D01*
X152170838Y-57280297D01*
X152374681Y-56979651D01*
X152374683Y-56979647D01*
X152544838Y-56658702D01*
X152544847Y-56658684D01*
X152679302Y-56321227D01*
X152679304Y-56321220D01*
X152776480Y-55971222D01*
X152776482Y-55971214D01*
X152835253Y-55612728D01*
X152854920Y-55250002D01*
X152854920Y-55249997D01*
X152835253Y-54887271D01*
X152776482Y-54528785D01*
X152776480Y-54528777D01*
X152679304Y-54178779D01*
X152679302Y-54178772D01*
X152544847Y-53841315D01*
X152544838Y-53841297D01*
X152374683Y-53520352D01*
X152374681Y-53520348D01*
X152170829Y-53219690D01*
X152170822Y-53219680D01*
X152039029Y-53064523D01*
X152039028Y-53064523D01*
X150794251Y-54309300D01*
X150720412Y-54207670D01*
X150542330Y-54029588D01*
X150440698Y-53955748D01*
X151688110Y-52708336D01*
X151688110Y-52708334D01*
X151671929Y-52693007D01*
X151671928Y-52693006D01*
X151382733Y-52473167D01*
X151382717Y-52473156D01*
X151071477Y-52285890D01*
X151071464Y-52285883D01*
X150741794Y-52133360D01*
X150741789Y-52133359D01*
X150397538Y-52017367D01*
X150042764Y-51939275D01*
X149681633Y-51900000D01*
X149318366Y-51900000D01*
X148957235Y-51939275D01*
X148602461Y-52017367D01*
X148258210Y-52133359D01*
X148258205Y-52133360D01*
X147928535Y-52285883D01*
X147928522Y-52285890D01*
X147617282Y-52473156D01*
X147617266Y-52473167D01*
X147328075Y-52693002D01*
X147311888Y-52708335D01*
X147311887Y-52708335D01*
X148559301Y-53955748D01*
X148457670Y-54029588D01*
X148279588Y-54207670D01*
X148205748Y-54309300D01*
X146960970Y-53064522D01*
X146960969Y-53064523D01*
X146829177Y-53219680D01*
X146829170Y-53219690D01*
X146625318Y-53520348D01*
X146625316Y-53520352D01*
X146455161Y-53841297D01*
X146455152Y-53841315D01*
X146320697Y-54178772D01*
X146320695Y-54178779D01*
X146223519Y-54528777D01*
X146223517Y-54528785D01*
X146164746Y-54887271D01*
X146145080Y-55249997D01*
X138750500Y-55249997D01*
X138750500Y-54037228D01*
X138770185Y-53970189D01*
X138786814Y-53949552D01*
X138909780Y-53826586D01*
X138971101Y-53793103D01*
X139040793Y-53798087D01*
X139096726Y-53839959D01*
X139103576Y-53850119D01*
X139169927Y-53959877D01*
X139290122Y-54080072D01*
X139435604Y-54168019D01*
X139435603Y-54168019D01*
X139597894Y-54218590D01*
X139597892Y-54218590D01*
X139668418Y-54224999D01*
X140250000Y-54224999D01*
X140331581Y-54224999D01*
X140402102Y-54218591D01*
X140402107Y-54218590D01*
X140564396Y-54168018D01*
X140709877Y-54080072D01*
X140830072Y-53959877D01*
X140918019Y-53814395D01*
X140968590Y-53652106D01*
X140975000Y-53581572D01*
X140975000Y-53575000D01*
X140250000Y-53575000D01*
X140250000Y-54224999D01*
X139668418Y-54224999D01*
X139749999Y-54224998D01*
X139750000Y-54224998D01*
X139750000Y-53199000D01*
X139769685Y-53131961D01*
X139822489Y-53086206D01*
X139874000Y-53075000D01*
X140974999Y-53075000D01*
X140974999Y-53068417D01*
X140968591Y-52997897D01*
X140968590Y-52997892D01*
X140918018Y-52835603D01*
X140830072Y-52690122D01*
X140727984Y-52588034D01*
X140694499Y-52526711D01*
X140699483Y-52457019D01*
X140727983Y-52412673D01*
X140830472Y-52310185D01*
X140918478Y-52164606D01*
X140969086Y-52002196D01*
X140975500Y-51931616D01*
X140975500Y-51418384D01*
X140969086Y-51347804D01*
X140918478Y-51185394D01*
X140830472Y-51039815D01*
X140830470Y-51039813D01*
X140830469Y-51039811D01*
X140786819Y-50996161D01*
X140753334Y-50934838D01*
X140750500Y-50908480D01*
X140750500Y-49199500D01*
X140770185Y-49132461D01*
X140822989Y-49086706D01*
X140874500Y-49075500D01*
X142171477Y-49075500D01*
X142212430Y-49082458D01*
X142220745Y-49085368D01*
X142220749Y-49085368D01*
X142220753Y-49085369D01*
X142399996Y-49105565D01*
X142400000Y-49105565D01*
X142400004Y-49105565D01*
X142579249Y-49085369D01*
X142579252Y-49085368D01*
X142579255Y-49085368D01*
X142749522Y-49025789D01*
X142902262Y-48929816D01*
X143029816Y-48802262D01*
X143125789Y-48649522D01*
X143185368Y-48479255D01*
X143186804Y-48466513D01*
X143205565Y-48300003D01*
X143205565Y-48299996D01*
X143185369Y-48120750D01*
X143185368Y-48120745D01*
X143167046Y-48068384D01*
X143125789Y-47950478D01*
X143029816Y-47797738D01*
X142902262Y-47670184D01*
X142811743Y-47613307D01*
X142749523Y-47574211D01*
X142579254Y-47514631D01*
X142579249Y-47514630D01*
X142400004Y-47494435D01*
X142399996Y-47494435D01*
X142220750Y-47514630D01*
X142220737Y-47514633D01*
X142069539Y-47567541D01*
X142028584Y-47574500D01*
X140865520Y-47574500D01*
X140798481Y-47554815D01*
X140752726Y-47502011D01*
X140742782Y-47432853D01*
X140771807Y-47369297D01*
X140777839Y-47362819D01*
X140830468Y-47310189D01*
X140830469Y-47310188D01*
X140830472Y-47310185D01*
X140918478Y-47164606D01*
X140969086Y-47002196D01*
X140975500Y-46931616D01*
X140975500Y-46418384D01*
X140969086Y-46347804D01*
X140918478Y-46185394D01*
X140830472Y-46039815D01*
X140830470Y-46039813D01*
X140830469Y-46039811D01*
X140710188Y-45919530D01*
X140688473Y-45906403D01*
X140564606Y-45831522D01*
X140402196Y-45780914D01*
X140402194Y-45780913D01*
X140402192Y-45780913D01*
X140352778Y-45776423D01*
X140331616Y-45774500D01*
X139717989Y-45774500D01*
X139650950Y-45754815D01*
X139630308Y-45738181D01*
X137854307Y-43962181D01*
X137820822Y-43900858D01*
X137825806Y-43831166D01*
X137867678Y-43775233D01*
X137933142Y-43750816D01*
X137941988Y-43750500D01*
X145394218Y-43750500D01*
X145461257Y-43770185D01*
X145481899Y-43786819D01*
X148118108Y-46423029D01*
X148151593Y-46484352D01*
X148153955Y-46499901D01*
X148164936Y-46625403D01*
X148164938Y-46625413D01*
X148226094Y-46853655D01*
X148226096Y-46853659D01*
X148226097Y-46853663D01*
X148295358Y-47002193D01*
X148325965Y-47067830D01*
X148325967Y-47067834D01*
X148461501Y-47261395D01*
X148461506Y-47261402D01*
X148628597Y-47428493D01*
X148628603Y-47428498D01*
X148716403Y-47489976D01*
X148809002Y-47554815D01*
X148814594Y-47558730D01*
X148858219Y-47613307D01*
X148865413Y-47682805D01*
X148833890Y-47745160D01*
X148814595Y-47761880D01*
X148628922Y-47891890D01*
X148628920Y-47891891D01*
X148461891Y-48058920D01*
X148461886Y-48058926D01*
X148326400Y-48252420D01*
X148326399Y-48252422D01*
X148226570Y-48466507D01*
X148226567Y-48466513D01*
X148169364Y-48679999D01*
X148169364Y-48680000D01*
X149066988Y-48680000D01*
X149034075Y-48737007D01*
X149000000Y-48864174D01*
X149000000Y-48995826D01*
X149034075Y-49122993D01*
X149066988Y-49180000D01*
X148169364Y-49180000D01*
X148226567Y-49393486D01*
X148226570Y-49393492D01*
X148326399Y-49607578D01*
X148461894Y-49801082D01*
X148628917Y-49968105D01*
X148822421Y-50103600D01*
X149036507Y-50203429D01*
X149036516Y-50203433D01*
X149250000Y-50260634D01*
X149250000Y-49363012D01*
X149307007Y-49395925D01*
X149434174Y-49430000D01*
X149565826Y-49430000D01*
X149692993Y-49395925D01*
X149750000Y-49363012D01*
X149750000Y-50260633D01*
X149963483Y-50203433D01*
X149963492Y-50203429D01*
X150177578Y-50103600D01*
X150371082Y-49968105D01*
X150538105Y-49801082D01*
X150673600Y-49607578D01*
X150773429Y-49393492D01*
X150773432Y-49393486D01*
X150830636Y-49180000D01*
X149933012Y-49180000D01*
X149965925Y-49122993D01*
X150000000Y-48995826D01*
X150000000Y-48864174D01*
X149965925Y-48737007D01*
X149933012Y-48680000D01*
X150830636Y-48680000D01*
X150830635Y-48679999D01*
X150773432Y-48466513D01*
X150773429Y-48466507D01*
X150673600Y-48252422D01*
X150673599Y-48252420D01*
X150538113Y-48058926D01*
X150538108Y-48058920D01*
X150371078Y-47891890D01*
X150185405Y-47761879D01*
X150141780Y-47707302D01*
X150134588Y-47637804D01*
X150166110Y-47575449D01*
X150185406Y-47558730D01*
X150371401Y-47428495D01*
X150538495Y-47261401D01*
X150674035Y-47067830D01*
X150773903Y-46853663D01*
X150835063Y-46625408D01*
X150846043Y-46499900D01*
X150871495Y-46434833D01*
X150881882Y-46423036D01*
X153530713Y-43774206D01*
X153530720Y-43774200D01*
X153537780Y-43767139D01*
X153537782Y-43767139D01*
X153587819Y-43717102D01*
X153649142Y-43683617D01*
X153718834Y-43688601D01*
X153774767Y-43730473D01*
X153799184Y-43795937D01*
X153799500Y-43804783D01*
X153799500Y-58993907D01*
X153798903Y-59006061D01*
X153785335Y-59143819D01*
X153780593Y-59167661D01*
X153742186Y-59294271D01*
X153732883Y-59316728D01*
X153670517Y-59433406D01*
X153657012Y-59453618D01*
X153573079Y-59555891D01*
X153555891Y-59573079D01*
X153453618Y-59657012D01*
X153433406Y-59670517D01*
X153316728Y-59732883D01*
X153294271Y-59742186D01*
X153167661Y-59780593D01*
X153143819Y-59785335D01*
X153006062Y-59798903D01*
X152993908Y-59799500D01*
X16006092Y-59799500D01*
X15993938Y-59798903D01*
X15856180Y-59785335D01*
X15832340Y-59780593D01*
X15705728Y-59742186D01*
X15683271Y-59732883D01*
X15566593Y-59670517D01*
X15546381Y-59657012D01*
X15444108Y-59573079D01*
X15426920Y-59555891D01*
X15342986Y-59453616D01*
X15329482Y-59433406D01*
X15267116Y-59316728D01*
X15257815Y-59294277D01*
X15219404Y-59167652D01*
X15214665Y-59143824D01*
X15201097Y-59006060D01*
X15200500Y-58993907D01*
X15200500Y-55249997D01*
X16145080Y-55249997D01*
X16145080Y-55250002D01*
X16164746Y-55612728D01*
X16223517Y-55971214D01*
X16223519Y-55971222D01*
X16320695Y-56321220D01*
X16320697Y-56321227D01*
X16455152Y-56658684D01*
X16455161Y-56658702D01*
X16625316Y-56979647D01*
X16625318Y-56979651D01*
X16829170Y-57280309D01*
X16829177Y-57280319D01*
X16960969Y-57435475D01*
X16960970Y-57435475D01*
X18205748Y-56190698D01*
X18279588Y-56292330D01*
X18457670Y-56470412D01*
X18559300Y-56544251D01*
X17311888Y-57791662D01*
X17311888Y-57791664D01*
X17328070Y-57806992D01*
X17328071Y-57806993D01*
X17617266Y-58026832D01*
X17617282Y-58026843D01*
X17928522Y-58214109D01*
X17928535Y-58214116D01*
X18258205Y-58366639D01*
X18258210Y-58366640D01*
X18602461Y-58482632D01*
X18957235Y-58560724D01*
X19318366Y-58599999D01*
X19318374Y-58600000D01*
X19681626Y-58600000D01*
X19681633Y-58599999D01*
X20042764Y-58560724D01*
X20397538Y-58482632D01*
X20741789Y-58366640D01*
X20741794Y-58366639D01*
X21071464Y-58214116D01*
X21071477Y-58214109D01*
X21382717Y-58026843D01*
X21382733Y-58026832D01*
X21671929Y-57806992D01*
X21688110Y-57791664D01*
X21688110Y-57791663D01*
X20440698Y-56544251D01*
X20542330Y-56470412D01*
X20720412Y-56292330D01*
X20794251Y-56190698D01*
X22039028Y-57435475D01*
X22039029Y-57435475D01*
X22170827Y-57280311D01*
X22170838Y-57280297D01*
X22374681Y-56979651D01*
X22374683Y-56979647D01*
X22544838Y-56658702D01*
X22544847Y-56658684D01*
X22679302Y-56321227D01*
X22679304Y-56321220D01*
X22776480Y-55971222D01*
X22776482Y-55971214D01*
X22835253Y-55612728D01*
X22854920Y-55250002D01*
X22854920Y-55249997D01*
X22835253Y-54887271D01*
X22776482Y-54528785D01*
X22776480Y-54528777D01*
X22679304Y-54178779D01*
X22679302Y-54178772D01*
X22544847Y-53841315D01*
X22544838Y-53841297D01*
X22374683Y-53520352D01*
X22374681Y-53520348D01*
X22170829Y-53219690D01*
X22170822Y-53219680D01*
X22039029Y-53064523D01*
X22039028Y-53064523D01*
X20794251Y-54309300D01*
X20720412Y-54207670D01*
X20542330Y-54029588D01*
X20440698Y-53955748D01*
X21688110Y-52708336D01*
X21688110Y-52708334D01*
X21671929Y-52693007D01*
X21671928Y-52693006D01*
X21382733Y-52473167D01*
X21382717Y-52473156D01*
X21071477Y-52285890D01*
X21071464Y-52285883D01*
X20741794Y-52133360D01*
X20741789Y-52133359D01*
X20397538Y-52017367D01*
X20042764Y-51939275D01*
X19681633Y-51900000D01*
X19318366Y-51900000D01*
X18957235Y-51939275D01*
X18602461Y-52017367D01*
X18258210Y-52133359D01*
X18258205Y-52133360D01*
X17928535Y-52285883D01*
X17928522Y-52285890D01*
X17617282Y-52473156D01*
X17617266Y-52473167D01*
X17328075Y-52693002D01*
X17311888Y-52708335D01*
X17311887Y-52708335D01*
X18559301Y-53955748D01*
X18457670Y-54029588D01*
X18279588Y-54207670D01*
X18205748Y-54309300D01*
X16960970Y-53064522D01*
X16960969Y-53064523D01*
X16829177Y-53219680D01*
X16829170Y-53219690D01*
X16625318Y-53520348D01*
X16625316Y-53520352D01*
X16455161Y-53841297D01*
X16455152Y-53841315D01*
X16320697Y-54178772D01*
X16320695Y-54178779D01*
X16223519Y-54528777D01*
X16223517Y-54528785D01*
X16164746Y-54887271D01*
X16145080Y-55249997D01*
X15200500Y-55249997D01*
X15200500Y-51647844D01*
X40835000Y-51647844D01*
X40841401Y-51707372D01*
X40841403Y-51707379D01*
X40891645Y-51842086D01*
X40891649Y-51842093D01*
X40977809Y-51957187D01*
X40977812Y-51957190D01*
X41092906Y-52043350D01*
X41092913Y-52043354D01*
X41227620Y-52093596D01*
X41227627Y-52093598D01*
X41287155Y-52099999D01*
X41287172Y-52100000D01*
X43235000Y-52100000D01*
X43735000Y-52100000D01*
X45682828Y-52100000D01*
X45682844Y-52099999D01*
X45742372Y-52093598D01*
X45742379Y-52093596D01*
X45877086Y-52043354D01*
X45877093Y-52043350D01*
X45992187Y-51957190D01*
X45992190Y-51957187D01*
X46078350Y-51842093D01*
X46078354Y-51842086D01*
X46128596Y-51707379D01*
X46128598Y-51707372D01*
X46134999Y-51647844D01*
X46135000Y-51647827D01*
X46135000Y-49250000D01*
X43735000Y-49250000D01*
X43735000Y-52100000D01*
X43235000Y-52100000D01*
X43235000Y-49250000D01*
X40835000Y-49250000D01*
X40835000Y-51647844D01*
X15200500Y-51647844D01*
X15200500Y-50697844D01*
X24885000Y-50697844D01*
X24891401Y-50757372D01*
X24891403Y-50757379D01*
X24941645Y-50892086D01*
X24941649Y-50892093D01*
X25027809Y-51007187D01*
X25027812Y-51007190D01*
X25142906Y-51093350D01*
X25142913Y-51093354D01*
X25277620Y-51143596D01*
X25277627Y-51143598D01*
X25337155Y-51149999D01*
X25337172Y-51150000D01*
X27285000Y-51150000D01*
X27785000Y-51150000D01*
X29732828Y-51150000D01*
X29732844Y-51149999D01*
X29792372Y-51143598D01*
X29792379Y-51143596D01*
X29927086Y-51093354D01*
X29927093Y-51093350D01*
X30042187Y-51007190D01*
X30042190Y-51007187D01*
X30128350Y-50892093D01*
X30128354Y-50892086D01*
X30178596Y-50757379D01*
X30178598Y-50757372D01*
X30184999Y-50697844D01*
X30185000Y-50697827D01*
X30185000Y-49250000D01*
X27785000Y-49250000D01*
X27785000Y-51150000D01*
X27285000Y-51150000D01*
X27285000Y-49250000D01*
X24885000Y-49250000D01*
X24885000Y-50697844D01*
X15200500Y-50697844D01*
X15200500Y-47302155D01*
X24885000Y-47302155D01*
X24885000Y-48750000D01*
X27285000Y-48750000D01*
X27785000Y-48750000D01*
X30185000Y-48750000D01*
X30185000Y-47302172D01*
X30184999Y-47302155D01*
X30178598Y-47242627D01*
X30178596Y-47242620D01*
X30128354Y-47107913D01*
X30128350Y-47107906D01*
X30042190Y-46992812D01*
X30042187Y-46992809D01*
X29927093Y-46906649D01*
X29927086Y-46906645D01*
X29792379Y-46856403D01*
X29792372Y-46856401D01*
X29732844Y-46850000D01*
X27785000Y-46850000D01*
X27785000Y-48750000D01*
X27285000Y-48750000D01*
X27285000Y-46850000D01*
X25337155Y-46850000D01*
X25277627Y-46856401D01*
X25277620Y-46856403D01*
X25142913Y-46906645D01*
X25142906Y-46906649D01*
X25027812Y-46992809D01*
X25027809Y-46992812D01*
X24941649Y-47107906D01*
X24941645Y-47107913D01*
X24891403Y-47242620D01*
X24891401Y-47242627D01*
X24885000Y-47302155D01*
X15200500Y-47302155D01*
X15200500Y-46352155D01*
X40835000Y-46352155D01*
X40835000Y-48750000D01*
X43235000Y-48750000D01*
X43735000Y-48750000D01*
X46135000Y-48750000D01*
X46135000Y-46352172D01*
X46134999Y-46352155D01*
X46128598Y-46292627D01*
X46128596Y-46292620D01*
X46078354Y-46157913D01*
X46078350Y-46157906D01*
X45992190Y-46042812D01*
X45992187Y-46042809D01*
X45877093Y-45956649D01*
X45877086Y-45956645D01*
X45742379Y-45906403D01*
X45742372Y-45906401D01*
X45682844Y-45900000D01*
X43735000Y-45900000D01*
X43735000Y-48750000D01*
X43235000Y-48750000D01*
X43235000Y-45900000D01*
X41287155Y-45900000D01*
X41227627Y-45906401D01*
X41227620Y-45906403D01*
X41092913Y-45956645D01*
X41092906Y-45956649D01*
X40977812Y-46042809D01*
X40977809Y-46042812D01*
X40891649Y-46157906D01*
X40891645Y-46157913D01*
X40841403Y-46292620D01*
X40841401Y-46292627D01*
X40835000Y-46352155D01*
X15200500Y-46352155D01*
X15200500Y-28647844D01*
X40835000Y-28647844D01*
X40841401Y-28707372D01*
X40841403Y-28707379D01*
X40891645Y-28842086D01*
X40891649Y-28842093D01*
X40977809Y-28957187D01*
X40977812Y-28957190D01*
X41092906Y-29043350D01*
X41092913Y-29043354D01*
X41227620Y-29093596D01*
X41227627Y-29093598D01*
X41287155Y-29099999D01*
X41287172Y-29100000D01*
X43235000Y-29100000D01*
X43735000Y-29100000D01*
X45682828Y-29100000D01*
X45682844Y-29099999D01*
X45742372Y-29093598D01*
X45742379Y-29093596D01*
X45877086Y-29043354D01*
X45877093Y-29043350D01*
X45992187Y-28957190D01*
X45992190Y-28957187D01*
X46078350Y-28842093D01*
X46078354Y-28842086D01*
X46128596Y-28707379D01*
X46128598Y-28707372D01*
X46134999Y-28647844D01*
X46135000Y-28647827D01*
X46135000Y-26250000D01*
X43735000Y-26250000D01*
X43735000Y-29100000D01*
X43235000Y-29100000D01*
X43235000Y-26250000D01*
X40835000Y-26250000D01*
X40835000Y-28647844D01*
X15200500Y-28647844D01*
X15200500Y-27697844D01*
X24885000Y-27697844D01*
X24891401Y-27757372D01*
X24891403Y-27757379D01*
X24941645Y-27892086D01*
X24941649Y-27892093D01*
X25027809Y-28007187D01*
X25027812Y-28007190D01*
X25142906Y-28093350D01*
X25142913Y-28093354D01*
X25277620Y-28143596D01*
X25277627Y-28143598D01*
X25337155Y-28149999D01*
X25337172Y-28150000D01*
X27285000Y-28150000D01*
X27785000Y-28150000D01*
X29732828Y-28150000D01*
X29732844Y-28149999D01*
X29792372Y-28143598D01*
X29792379Y-28143596D01*
X29927086Y-28093354D01*
X29927093Y-28093350D01*
X30042187Y-28007190D01*
X30042190Y-28007187D01*
X30128350Y-27892093D01*
X30128354Y-27892086D01*
X30178596Y-27757379D01*
X30178598Y-27757372D01*
X30184999Y-27697844D01*
X30185000Y-27697827D01*
X30185000Y-26250000D01*
X27785000Y-26250000D01*
X27785000Y-28150000D01*
X27285000Y-28150000D01*
X27285000Y-26250000D01*
X24885000Y-26250000D01*
X24885000Y-27697844D01*
X15200500Y-27697844D01*
X15200500Y-24302155D01*
X24885000Y-24302155D01*
X24885000Y-25750000D01*
X27285000Y-25750000D01*
X27785000Y-25750000D01*
X30185000Y-25750000D01*
X30185000Y-24302172D01*
X30184999Y-24302155D01*
X30178598Y-24242627D01*
X30178596Y-24242620D01*
X30128354Y-24107913D01*
X30128350Y-24107906D01*
X30042190Y-23992812D01*
X30042187Y-23992809D01*
X29927093Y-23906649D01*
X29927086Y-23906645D01*
X29792379Y-23856403D01*
X29792372Y-23856401D01*
X29732844Y-23850000D01*
X27785000Y-23850000D01*
X27785000Y-25750000D01*
X27285000Y-25750000D01*
X27285000Y-23850000D01*
X25337155Y-23850000D01*
X25277627Y-23856401D01*
X25277620Y-23856403D01*
X25142913Y-23906645D01*
X25142906Y-23906649D01*
X25027812Y-23992809D01*
X25027809Y-23992812D01*
X24941649Y-24107906D01*
X24941645Y-24107913D01*
X24891403Y-24242620D01*
X24891401Y-24242627D01*
X24885000Y-24302155D01*
X15200500Y-24302155D01*
X15200500Y-23352155D01*
X40835000Y-23352155D01*
X40835000Y-25750000D01*
X43235000Y-25750000D01*
X43735000Y-25750000D01*
X46135000Y-25750000D01*
X46135000Y-23352172D01*
X46134999Y-23352155D01*
X46128598Y-23292627D01*
X46128596Y-23292620D01*
X46078354Y-23157913D01*
X46078350Y-23157906D01*
X45992190Y-23042812D01*
X45992187Y-23042809D01*
X45877093Y-22956649D01*
X45877086Y-22956645D01*
X45742379Y-22906403D01*
X45742372Y-22906401D01*
X45682844Y-22900000D01*
X43735000Y-22900000D01*
X43735000Y-25750000D01*
X43235000Y-25750000D01*
X43235000Y-22900000D01*
X41287155Y-22900000D01*
X41227627Y-22906401D01*
X41227620Y-22906403D01*
X41092913Y-22956645D01*
X41092906Y-22956649D01*
X40977812Y-23042809D01*
X40977809Y-23042812D01*
X40891649Y-23157906D01*
X40891645Y-23157913D01*
X40841403Y-23292620D01*
X40841401Y-23292627D01*
X40835000Y-23352155D01*
X15200500Y-23352155D01*
X15200500Y-19749997D01*
X16145080Y-19749997D01*
X16145080Y-19750002D01*
X16164746Y-20112728D01*
X16223517Y-20471214D01*
X16223519Y-20471222D01*
X16320695Y-20821220D01*
X16320697Y-20821227D01*
X16455152Y-21158684D01*
X16455161Y-21158702D01*
X16625316Y-21479647D01*
X16625318Y-21479651D01*
X16829170Y-21780309D01*
X16829177Y-21780319D01*
X16960969Y-21935475D01*
X16960970Y-21935475D01*
X18205748Y-20690698D01*
X18279588Y-20792330D01*
X18457670Y-20970412D01*
X18559300Y-21044251D01*
X17311888Y-22291662D01*
X17311888Y-22291664D01*
X17328070Y-22306992D01*
X17328071Y-22306993D01*
X17617266Y-22526832D01*
X17617282Y-22526843D01*
X17928522Y-22714109D01*
X17928535Y-22714116D01*
X18258205Y-22866639D01*
X18258210Y-22866640D01*
X18602461Y-22982632D01*
X18957235Y-23060724D01*
X19318366Y-23099999D01*
X19318374Y-23100000D01*
X19681626Y-23100000D01*
X19681633Y-23099999D01*
X20042764Y-23060724D01*
X20397538Y-22982632D01*
X20741789Y-22866640D01*
X20741794Y-22866639D01*
X21071464Y-22714116D01*
X21071477Y-22714109D01*
X21382717Y-22526843D01*
X21382733Y-22526832D01*
X21671929Y-22306992D01*
X21688110Y-22291664D01*
X21688110Y-22291663D01*
X20440698Y-21044251D01*
X20542330Y-20970412D01*
X20720412Y-20792330D01*
X20794251Y-20690698D01*
X22039028Y-21935475D01*
X22039029Y-21935475D01*
X22170827Y-21780311D01*
X22170838Y-21780297D01*
X22374681Y-21479651D01*
X22374683Y-21479647D01*
X22544838Y-21158702D01*
X22544847Y-21158684D01*
X22679302Y-20821227D01*
X22679304Y-20821220D01*
X22776480Y-20471222D01*
X22776482Y-20471214D01*
X22835253Y-20112728D01*
X22854920Y-19750002D01*
X22854920Y-19749997D01*
X22838770Y-19452135D01*
X104599500Y-19452135D01*
X104599500Y-22047870D01*
X104599501Y-22047876D01*
X104605908Y-22107483D01*
X104656202Y-22242328D01*
X104656206Y-22242335D01*
X104742452Y-22357544D01*
X104742455Y-22357547D01*
X104857664Y-22443793D01*
X104857671Y-22443797D01*
X104992517Y-22494091D01*
X104992516Y-22494091D01*
X104999444Y-22494835D01*
X105052127Y-22500500D01*
X106347872Y-22500499D01*
X106407483Y-22494091D01*
X106542331Y-22443796D01*
X106657546Y-22357546D01*
X106743796Y-22242331D01*
X106794091Y-22107483D01*
X106800500Y-22047873D01*
X106800499Y-19452128D01*
X106795127Y-19402155D01*
X106794091Y-19392516D01*
X106743797Y-19257671D01*
X106743793Y-19257664D01*
X106657547Y-19142455D01*
X106657544Y-19142452D01*
X106542335Y-19056206D01*
X106542328Y-19056202D01*
X106407482Y-19005908D01*
X106407483Y-19005908D01*
X106347883Y-18999501D01*
X106347881Y-18999500D01*
X106347873Y-18999500D01*
X106347864Y-18999500D01*
X105052129Y-18999500D01*
X105052123Y-18999501D01*
X104992516Y-19005908D01*
X104857671Y-19056202D01*
X104857664Y-19056206D01*
X104742455Y-19142452D01*
X104742452Y-19142455D01*
X104656206Y-19257664D01*
X104656202Y-19257671D01*
X104605908Y-19392517D01*
X104599501Y-19452116D01*
X104599501Y-19452123D01*
X104599500Y-19452135D01*
X22838770Y-19452135D01*
X22835253Y-19387271D01*
X22776482Y-19028785D01*
X22776480Y-19028777D01*
X22679304Y-18678779D01*
X22679302Y-18678772D01*
X22544847Y-18341315D01*
X22544838Y-18341297D01*
X22400472Y-18068995D01*
X104099499Y-18068995D01*
X104126418Y-18204322D01*
X104126421Y-18204332D01*
X104179221Y-18331804D01*
X104179228Y-18331817D01*
X104255885Y-18446541D01*
X104255888Y-18446545D01*
X104353454Y-18544111D01*
X104353458Y-18544114D01*
X104468182Y-18620771D01*
X104468195Y-18620778D01*
X104595667Y-18673578D01*
X104595672Y-18673580D01*
X104595676Y-18673580D01*
X104595677Y-18673581D01*
X104731004Y-18700500D01*
X104731007Y-18700500D01*
X104868995Y-18700500D01*
X104978226Y-18678772D01*
X105004328Y-18673580D01*
X105131811Y-18620775D01*
X105246542Y-18544114D01*
X105344114Y-18446542D01*
X105420775Y-18331811D01*
X105473580Y-18204328D01*
X105495602Y-18093616D01*
X105500500Y-18068995D01*
X105500500Y-17931004D01*
X105473581Y-17795677D01*
X105473580Y-17795676D01*
X105473580Y-17795672D01*
X105459924Y-17762704D01*
X105420778Y-17668195D01*
X105420771Y-17668182D01*
X105344114Y-17553458D01*
X105344111Y-17553454D01*
X105246545Y-17455888D01*
X105246541Y-17455885D01*
X105131817Y-17379228D01*
X105131804Y-17379221D01*
X105004332Y-17326421D01*
X105004322Y-17326418D01*
X104868995Y-17299500D01*
X104868993Y-17299500D01*
X104731007Y-17299500D01*
X104731005Y-17299500D01*
X104595677Y-17326418D01*
X104595667Y-17326421D01*
X104468195Y-17379221D01*
X104468182Y-17379228D01*
X104353458Y-17455885D01*
X104353454Y-17455888D01*
X104255888Y-17553454D01*
X104255885Y-17553458D01*
X104179228Y-17668182D01*
X104179221Y-17668195D01*
X104126421Y-17795667D01*
X104126418Y-17795677D01*
X104099500Y-17931004D01*
X104099500Y-17931007D01*
X104099500Y-18068993D01*
X104099500Y-18068995D01*
X104099499Y-18068995D01*
X22400472Y-18068995D01*
X22374683Y-18020352D01*
X22374681Y-18020348D01*
X22170829Y-17719690D01*
X22170822Y-17719680D01*
X22039029Y-17564523D01*
X22039028Y-17564523D01*
X20794251Y-18809300D01*
X20720412Y-18707670D01*
X20542330Y-18529588D01*
X20440698Y-18455748D01*
X21688110Y-17208336D01*
X21688110Y-17208334D01*
X21671929Y-17193007D01*
X21671928Y-17193006D01*
X21382733Y-16973167D01*
X21382717Y-16973156D01*
X21071477Y-16785890D01*
X21071464Y-16785883D01*
X20741794Y-16633360D01*
X20741789Y-16633359D01*
X20397538Y-16517367D01*
X20042764Y-16439275D01*
X19681633Y-16400000D01*
X19318366Y-16400000D01*
X18957235Y-16439275D01*
X18602461Y-16517367D01*
X18258210Y-16633359D01*
X18258205Y-16633360D01*
X17928535Y-16785883D01*
X17928522Y-16785890D01*
X17617282Y-16973156D01*
X17617266Y-16973167D01*
X17328075Y-17193002D01*
X17311888Y-17208335D01*
X17311887Y-17208335D01*
X18559301Y-18455748D01*
X18457670Y-18529588D01*
X18279588Y-18707670D01*
X18205748Y-18809300D01*
X16960970Y-17564522D01*
X16960969Y-17564523D01*
X16829177Y-17719680D01*
X16829170Y-17719690D01*
X16625318Y-18020348D01*
X16625316Y-18020352D01*
X16455161Y-18341297D01*
X16455152Y-18341315D01*
X16320697Y-18678772D01*
X16320695Y-18678779D01*
X16223519Y-19028777D01*
X16223517Y-19028785D01*
X16164746Y-19387271D01*
X16145080Y-19749997D01*
X15200500Y-19749997D01*
X15200500Y-16006092D01*
X15201097Y-15993939D01*
X15206866Y-15935360D01*
X15214665Y-15856173D01*
X15219403Y-15832349D01*
X15257816Y-15705719D01*
X15267113Y-15683278D01*
X15329485Y-15566587D01*
X15342982Y-15546387D01*
X15426924Y-15444103D01*
X15444103Y-15426924D01*
X15546387Y-15342982D01*
X15566587Y-15329485D01*
X15683278Y-15267113D01*
X15705719Y-15257816D01*
X15832349Y-15219403D01*
X15856173Y-15214665D01*
X15985170Y-15201960D01*
X15993939Y-15201097D01*
X16006092Y-15200500D01*
X16039882Y-15200500D01*
X152960118Y-15200500D01*
X152993908Y-15200500D01*
X153006061Y-15201097D01*
G37*
%TD.AperFunction*%
%TA.AperFunction,Conductor*%
G36*
X134256350Y-33820185D02*
G01*
X134302105Y-33872989D01*
X134312531Y-33910615D01*
X134314630Y-33929250D01*
X134314631Y-33929254D01*
X134374211Y-34099524D01*
X134455493Y-34228881D01*
X134474500Y-34294854D01*
X134474500Y-35189547D01*
X134454815Y-35256586D01*
X134438181Y-35277228D01*
X131727229Y-37988181D01*
X131665906Y-38021666D01*
X131639548Y-38024500D01*
X131373514Y-38024500D01*
X131306475Y-38004815D01*
X131260720Y-37952011D01*
X131250776Y-37882854D01*
X131255500Y-37850000D01*
X131255500Y-37278111D01*
X131235024Y-37135696D01*
X131194517Y-36997741D01*
X131134747Y-36866863D01*
X131060623Y-36751523D01*
X131059802Y-36750081D01*
X131057011Y-36745901D01*
X130962792Y-36637169D01*
X130962789Y-36637166D01*
X130854135Y-36543018D01*
X130854132Y-36543015D01*
X130806378Y-36512326D01*
X130733094Y-36465230D01*
X130733087Y-36465227D01*
X130733081Y-36465223D01*
X130608356Y-36408263D01*
X130604057Y-36406014D01*
X130464261Y-36364966D01*
X130464251Y-36364963D01*
X130336300Y-36346567D01*
X130321941Y-36344503D01*
X130321940Y-36344503D01*
X130265601Y-36344503D01*
X130265591Y-36344500D01*
X130214236Y-36344500D01*
X129930454Y-36344500D01*
X129863415Y-36324815D01*
X129842773Y-36308181D01*
X129796016Y-36261424D01*
X129762531Y-36200101D01*
X129767515Y-36130409D01*
X129796016Y-36086062D01*
X129822050Y-36060028D01*
X129879816Y-36002262D01*
X129975789Y-35849522D01*
X130035368Y-35679255D01*
X130055565Y-35500000D01*
X130055565Y-35499995D01*
X130035369Y-35320750D01*
X130035367Y-35320742D01*
X130033517Y-35315454D01*
X130029956Y-35245675D01*
X130064685Y-35185048D01*
X130126678Y-35152821D01*
X130150559Y-35150500D01*
X130213511Y-35150500D01*
X130280550Y-35170185D01*
X130314237Y-35204808D01*
X130314906Y-35204285D01*
X130319531Y-35210189D01*
X130439811Y-35330469D01*
X130439813Y-35330470D01*
X130439815Y-35330472D01*
X130585394Y-35418478D01*
X130747804Y-35469086D01*
X130818384Y-35475500D01*
X130818387Y-35475500D01*
X131331613Y-35475500D01*
X131331616Y-35475500D01*
X131402196Y-35469086D01*
X131564606Y-35418478D01*
X131710185Y-35330472D01*
X131812673Y-35227983D01*
X131873994Y-35194499D01*
X131943685Y-35199483D01*
X131988034Y-35227984D01*
X132090122Y-35330072D01*
X132235604Y-35418019D01*
X132235603Y-35418019D01*
X132397894Y-35468590D01*
X132397893Y-35468590D01*
X132468408Y-35474998D01*
X132468426Y-35474999D01*
X132975000Y-35474999D01*
X132981581Y-35474999D01*
X133052102Y-35468591D01*
X133052107Y-35468590D01*
X133214396Y-35418018D01*
X133359877Y-35330072D01*
X133480072Y-35209877D01*
X133568019Y-35064395D01*
X133618590Y-34902106D01*
X133625000Y-34831572D01*
X133625000Y-34750000D01*
X132975000Y-34750000D01*
X132975000Y-35474999D01*
X132468426Y-35474999D01*
X132474999Y-35474998D01*
X132475000Y-35474998D01*
X132475000Y-34374000D01*
X132494685Y-34306961D01*
X132547489Y-34261206D01*
X132599000Y-34250000D01*
X133624999Y-34250000D01*
X133624999Y-34168417D01*
X133618591Y-34097897D01*
X133618590Y-34097892D01*
X133576055Y-33961391D01*
X133574903Y-33891530D01*
X133611704Y-33832138D01*
X133674773Y-33802070D01*
X133694440Y-33800500D01*
X134189311Y-33800500D01*
X134256350Y-33820185D01*
G37*
%TD.AperFunction*%
%TD*%
M02*
