G04 #@! TF.GenerationSoftware,KiCad,Pcbnew,9.0.3*
G04 #@! TF.CreationDate,2025-08-26T19:25:46-07:00*
G04 #@! TF.ProjectId,sdi12_breakout,73646931-325f-4627-9265-616b6f75742e,V1*
G04 #@! TF.SameCoordinates,Original*
G04 #@! TF.FileFunction,Legend,Bot*
G04 #@! TF.FilePolarity,Positive*
%FSLAX45Y45*%
G04 Gerber Fmt 4.5, Leading zero omitted, Abs format (unit mm)*
G04 Created by KiCad (PCBNEW 9.0.3) date 2025-08-26 19:25:46*
%MOMM*%
%LPD*%
G01*
G04 APERTURE LIST*
G04 Aperture macros list*
%AMRoundRect*
0 Rectangle with rounded corners*
0 $1 Rounding radius*
0 $2 $3 $4 $5 $6 $7 $8 $9 X,Y pos of 4 corners*
0 Add a 4 corners polygon primitive as box body*
4,1,4,$2,$3,$4,$5,$6,$7,$8,$9,$2,$3,0*
0 Add four circle primitives for the rounded corners*
1,1,$1+$1,$2,$3*
1,1,$1+$1,$4,$5*
1,1,$1+$1,$6,$7*
1,1,$1+$1,$8,$9*
0 Add four rect primitives between the rounded corners*
20,1,$1+$1,$2,$3,$4,$5,0*
20,1,$1+$1,$4,$5,$6,$7,0*
20,1,$1+$1,$6,$7,$8,$9,0*
20,1,$1+$1,$8,$9,$2,$3,0*%
G04 Aperture macros list end*
%ADD10C,0.300000*%
%ADD11RoundRect,0.250000X1.050000X-1.050000X1.050000X1.050000X-1.050000X1.050000X-1.050000X-1.050000X0*%
%ADD12C,2.600000*%
%ADD13RoundRect,0.250000X1.050000X1.050000X-1.050000X1.050000X-1.050000X-1.050000X1.050000X-1.050000X0*%
%ADD14C,1.700000*%
%ADD15RoundRect,0.250000X-1.050000X-1.050000X1.050000X-1.050000X1.050000X1.050000X-1.050000X1.050000X0*%
%ADD16RoundRect,0.250000X-1.050000X1.050000X-1.050000X-1.050000X1.050000X-1.050000X1.050000X1.050000X0*%
G04 APERTURE END LIST*
D10*
X15124549Y-9177037D02*
X15074549Y-9177037D01*
X15053120Y-9255608D02*
X15124549Y-9255608D01*
X15124549Y-9255608D02*
X15124549Y-9105608D01*
X15124549Y-9105608D02*
X15053120Y-9105608D01*
X14988835Y-9255608D02*
X14988835Y-9105608D01*
X14988835Y-9105608D02*
X14903120Y-9255608D01*
X14903120Y-9255608D02*
X14903120Y-9105608D01*
X14853120Y-9105608D02*
X14767406Y-9105608D01*
X14810263Y-9255608D02*
X14810263Y-9105608D01*
X14724549Y-9248465D02*
X14703120Y-9255608D01*
X14703120Y-9255608D02*
X14667406Y-9255608D01*
X14667406Y-9255608D02*
X14653120Y-9248465D01*
X14653120Y-9248465D02*
X14645977Y-9241322D01*
X14645977Y-9241322D02*
X14638834Y-9227037D01*
X14638834Y-9227037D02*
X14638834Y-9212751D01*
X14638834Y-9212751D02*
X14645977Y-9198465D01*
X14645977Y-9198465D02*
X14653120Y-9191322D01*
X14653120Y-9191322D02*
X14667406Y-9184179D01*
X14667406Y-9184179D02*
X14695977Y-9177037D01*
X14695977Y-9177037D02*
X14710263Y-9169894D01*
X14710263Y-9169894D02*
X14717406Y-9162751D01*
X14717406Y-9162751D02*
X14724549Y-9148465D01*
X14724549Y-9148465D02*
X14724549Y-9134179D01*
X14724549Y-9134179D02*
X14717406Y-9119894D01*
X14717406Y-9119894D02*
X14710263Y-9112751D01*
X14710263Y-9112751D02*
X14695977Y-9105608D01*
X14695977Y-9105608D02*
X14660263Y-9105608D01*
X14660263Y-9105608D02*
X14638834Y-9112751D01*
X14467406Y-9248465D02*
X14445977Y-9255608D01*
X14445977Y-9255608D02*
X14410263Y-9255608D01*
X14410263Y-9255608D02*
X14395977Y-9248465D01*
X14395977Y-9248465D02*
X14388835Y-9241322D01*
X14388835Y-9241322D02*
X14381692Y-9227037D01*
X14381692Y-9227037D02*
X14381692Y-9212751D01*
X14381692Y-9212751D02*
X14388835Y-9198465D01*
X14388835Y-9198465D02*
X14395977Y-9191322D01*
X14395977Y-9191322D02*
X14410263Y-9184179D01*
X14410263Y-9184179D02*
X14438835Y-9177037D01*
X14438835Y-9177037D02*
X14453120Y-9169894D01*
X14453120Y-9169894D02*
X14460263Y-9162751D01*
X14460263Y-9162751D02*
X14467406Y-9148465D01*
X14467406Y-9148465D02*
X14467406Y-9134179D01*
X14467406Y-9134179D02*
X14460263Y-9119894D01*
X14460263Y-9119894D02*
X14453120Y-9112751D01*
X14453120Y-9112751D02*
X14438835Y-9105608D01*
X14438835Y-9105608D02*
X14403120Y-9105608D01*
X14403120Y-9105608D02*
X14381692Y-9112751D01*
X14317406Y-9255608D02*
X14317406Y-9105608D01*
X14317406Y-9105608D02*
X14281692Y-9105608D01*
X14281692Y-9105608D02*
X14260263Y-9112751D01*
X14260263Y-9112751D02*
X14245977Y-9127037D01*
X14245977Y-9127037D02*
X14238835Y-9141322D01*
X14238835Y-9141322D02*
X14231692Y-9169894D01*
X14231692Y-9169894D02*
X14231692Y-9191322D01*
X14231692Y-9191322D02*
X14238835Y-9219894D01*
X14238835Y-9219894D02*
X14245977Y-9234179D01*
X14245977Y-9234179D02*
X14260263Y-9248465D01*
X14260263Y-9248465D02*
X14281692Y-9255608D01*
X14281692Y-9255608D02*
X14317406Y-9255608D01*
X14167406Y-9255608D02*
X14167406Y-9105608D01*
X14017406Y-9255608D02*
X14103120Y-9255608D01*
X14060263Y-9255608D02*
X14060263Y-9105608D01*
X14060263Y-9105608D02*
X14074549Y-9127037D01*
X14074549Y-9127037D02*
X14088835Y-9141322D01*
X14088835Y-9141322D02*
X14103120Y-9148465D01*
X13960263Y-9119894D02*
X13953120Y-9112751D01*
X13953120Y-9112751D02*
X13938835Y-9105608D01*
X13938835Y-9105608D02*
X13903120Y-9105608D01*
X13903120Y-9105608D02*
X13888835Y-9112751D01*
X13888835Y-9112751D02*
X13881692Y-9119894D01*
X13881692Y-9119894D02*
X13874549Y-9134179D01*
X13874549Y-9134179D02*
X13874549Y-9148465D01*
X13874549Y-9148465D02*
X13881692Y-9169894D01*
X13881692Y-9169894D02*
X13967406Y-9255608D01*
X13967406Y-9255608D02*
X13874549Y-9255608D01*
X13645978Y-9177037D02*
X13624549Y-9184179D01*
X13624549Y-9184179D02*
X13617406Y-9191322D01*
X13617406Y-9191322D02*
X13610263Y-9205608D01*
X13610263Y-9205608D02*
X13610263Y-9227037D01*
X13610263Y-9227037D02*
X13617406Y-9241322D01*
X13617406Y-9241322D02*
X13624549Y-9248465D01*
X13624549Y-9248465D02*
X13638835Y-9255608D01*
X13638835Y-9255608D02*
X13695978Y-9255608D01*
X13695978Y-9255608D02*
X13695978Y-9105608D01*
X13695978Y-9105608D02*
X13645978Y-9105608D01*
X13645978Y-9105608D02*
X13631692Y-9112751D01*
X13631692Y-9112751D02*
X13624549Y-9119894D01*
X13624549Y-9119894D02*
X13617406Y-9134179D01*
X13617406Y-9134179D02*
X13617406Y-9148465D01*
X13617406Y-9148465D02*
X13624549Y-9162751D01*
X13624549Y-9162751D02*
X13631692Y-9169894D01*
X13631692Y-9169894D02*
X13645978Y-9177037D01*
X13645978Y-9177037D02*
X13695978Y-9177037D01*
X13545978Y-9255608D02*
X13545978Y-9155608D01*
X13545978Y-9184179D02*
X13538835Y-9169894D01*
X13538835Y-9169894D02*
X13531692Y-9162751D01*
X13531692Y-9162751D02*
X13517406Y-9155608D01*
X13517406Y-9155608D02*
X13503120Y-9155608D01*
X13395978Y-9248465D02*
X13410263Y-9255608D01*
X13410263Y-9255608D02*
X13438835Y-9255608D01*
X13438835Y-9255608D02*
X13453120Y-9248465D01*
X13453120Y-9248465D02*
X13460263Y-9234179D01*
X13460263Y-9234179D02*
X13460263Y-9177037D01*
X13460263Y-9177037D02*
X13453120Y-9162751D01*
X13453120Y-9162751D02*
X13438835Y-9155608D01*
X13438835Y-9155608D02*
X13410263Y-9155608D01*
X13410263Y-9155608D02*
X13395978Y-9162751D01*
X13395978Y-9162751D02*
X13388835Y-9177037D01*
X13388835Y-9177037D02*
X13388835Y-9191322D01*
X13388835Y-9191322D02*
X13460263Y-9205608D01*
X13260263Y-9255608D02*
X13260263Y-9177037D01*
X13260263Y-9177037D02*
X13267406Y-9162751D01*
X13267406Y-9162751D02*
X13281692Y-9155608D01*
X13281692Y-9155608D02*
X13310263Y-9155608D01*
X13310263Y-9155608D02*
X13324549Y-9162751D01*
X13260263Y-9248465D02*
X13274549Y-9255608D01*
X13274549Y-9255608D02*
X13310263Y-9255608D01*
X13310263Y-9255608D02*
X13324549Y-9248465D01*
X13324549Y-9248465D02*
X13331692Y-9234179D01*
X13331692Y-9234179D02*
X13331692Y-9219894D01*
X13331692Y-9219894D02*
X13324549Y-9205608D01*
X13324549Y-9205608D02*
X13310263Y-9198465D01*
X13310263Y-9198465D02*
X13274549Y-9198465D01*
X13274549Y-9198465D02*
X13260263Y-9191322D01*
X13188835Y-9255608D02*
X13188835Y-9105608D01*
X13174549Y-9198465D02*
X13131692Y-9255608D01*
X13131692Y-9155608D02*
X13188835Y-9212751D01*
X13045978Y-9255608D02*
X13060263Y-9248465D01*
X13060263Y-9248465D02*
X13067406Y-9241322D01*
X13067406Y-9241322D02*
X13074549Y-9227037D01*
X13074549Y-9227037D02*
X13074549Y-9184179D01*
X13074549Y-9184179D02*
X13067406Y-9169894D01*
X13067406Y-9169894D02*
X13060263Y-9162751D01*
X13060263Y-9162751D02*
X13045978Y-9155608D01*
X13045978Y-9155608D02*
X13024549Y-9155608D01*
X13024549Y-9155608D02*
X13010263Y-9162751D01*
X13010263Y-9162751D02*
X13003120Y-9169894D01*
X13003120Y-9169894D02*
X12995978Y-9184179D01*
X12995978Y-9184179D02*
X12995978Y-9227037D01*
X12995978Y-9227037D02*
X13003120Y-9241322D01*
X13003120Y-9241322D02*
X13010263Y-9248465D01*
X13010263Y-9248465D02*
X13024549Y-9255608D01*
X13024549Y-9255608D02*
X13045978Y-9255608D01*
X12867406Y-9155608D02*
X12867406Y-9255608D01*
X12931692Y-9155608D02*
X12931692Y-9234179D01*
X12931692Y-9234179D02*
X12924549Y-9248465D01*
X12924549Y-9248465D02*
X12910263Y-9255608D01*
X12910263Y-9255608D02*
X12888835Y-9255608D01*
X12888835Y-9255608D02*
X12874549Y-9248465D01*
X12874549Y-9248465D02*
X12867406Y-9241322D01*
X12817406Y-9155608D02*
X12760263Y-9155608D01*
X12795978Y-9105608D02*
X12795978Y-9234179D01*
X12795978Y-9234179D02*
X12788835Y-9248465D01*
X12788835Y-9248465D02*
X12774549Y-9255608D01*
X12774549Y-9255608D02*
X12760263Y-9255608D01*
X15124549Y-9397100D02*
X15124549Y-9525671D01*
X15124549Y-9525671D02*
X15131692Y-9539957D01*
X15131692Y-9539957D02*
X15145977Y-9547100D01*
X15145977Y-9547100D02*
X15153120Y-9547100D01*
X15124549Y-9347100D02*
X15131692Y-9354243D01*
X15131692Y-9354243D02*
X15124549Y-9361385D01*
X15124549Y-9361385D02*
X15117406Y-9354243D01*
X15117406Y-9354243D02*
X15124549Y-9347100D01*
X15124549Y-9347100D02*
X15124549Y-9361385D01*
X14981692Y-9497100D02*
X15053120Y-9497100D01*
X15053120Y-9497100D02*
X15053120Y-9347100D01*
X14867406Y-9497100D02*
X14867406Y-9418528D01*
X14867406Y-9418528D02*
X14874549Y-9404243D01*
X14874549Y-9404243D02*
X14888834Y-9397100D01*
X14888834Y-9397100D02*
X14917406Y-9397100D01*
X14917406Y-9397100D02*
X14931692Y-9404243D01*
X14867406Y-9489957D02*
X14881692Y-9497100D01*
X14881692Y-9497100D02*
X14917406Y-9497100D01*
X14917406Y-9497100D02*
X14931692Y-9489957D01*
X14931692Y-9489957D02*
X14938834Y-9475671D01*
X14938834Y-9475671D02*
X14938834Y-9461385D01*
X14938834Y-9461385D02*
X14931692Y-9447100D01*
X14931692Y-9447100D02*
X14917406Y-9439957D01*
X14917406Y-9439957D02*
X14881692Y-9439957D01*
X14881692Y-9439957D02*
X14867406Y-9432814D01*
X14795977Y-9497100D02*
X14795977Y-9347100D01*
X14795977Y-9404243D02*
X14781692Y-9397100D01*
X14781692Y-9397100D02*
X14753120Y-9397100D01*
X14753120Y-9397100D02*
X14738834Y-9404243D01*
X14738834Y-9404243D02*
X14731692Y-9411385D01*
X14731692Y-9411385D02*
X14724549Y-9425671D01*
X14724549Y-9425671D02*
X14724549Y-9468528D01*
X14724549Y-9468528D02*
X14731692Y-9482814D01*
X14731692Y-9482814D02*
X14738834Y-9489957D01*
X14738834Y-9489957D02*
X14753120Y-9497100D01*
X14753120Y-9497100D02*
X14781692Y-9497100D01*
X14781692Y-9497100D02*
X14795977Y-9489957D01*
X15131692Y-9602877D02*
X15124549Y-9595734D01*
X15124549Y-9595734D02*
X15110263Y-9588591D01*
X15110263Y-9588591D02*
X15074549Y-9588591D01*
X15074549Y-9588591D02*
X15060263Y-9595734D01*
X15060263Y-9595734D02*
X15053120Y-9602877D01*
X15053120Y-9602877D02*
X15045977Y-9617163D01*
X15045977Y-9617163D02*
X15045977Y-9631448D01*
X15045977Y-9631448D02*
X15053120Y-9652877D01*
X15053120Y-9652877D02*
X15138835Y-9738591D01*
X15138835Y-9738591D02*
X15045977Y-9738591D01*
X14953120Y-9588591D02*
X14938835Y-9588591D01*
X14938835Y-9588591D02*
X14924549Y-9595734D01*
X14924549Y-9595734D02*
X14917406Y-9602877D01*
X14917406Y-9602877D02*
X14910263Y-9617163D01*
X14910263Y-9617163D02*
X14903120Y-9645734D01*
X14903120Y-9645734D02*
X14903120Y-9681448D01*
X14903120Y-9681448D02*
X14910263Y-9710020D01*
X14910263Y-9710020D02*
X14917406Y-9724306D01*
X14917406Y-9724306D02*
X14924549Y-9731448D01*
X14924549Y-9731448D02*
X14938835Y-9738591D01*
X14938835Y-9738591D02*
X14953120Y-9738591D01*
X14953120Y-9738591D02*
X14967406Y-9731448D01*
X14967406Y-9731448D02*
X14974549Y-9724306D01*
X14974549Y-9724306D02*
X14981692Y-9710020D01*
X14981692Y-9710020D02*
X14988835Y-9681448D01*
X14988835Y-9681448D02*
X14988835Y-9645734D01*
X14988835Y-9645734D02*
X14981692Y-9617163D01*
X14981692Y-9617163D02*
X14974549Y-9602877D01*
X14974549Y-9602877D02*
X14967406Y-9595734D01*
X14967406Y-9595734D02*
X14953120Y-9588591D01*
X14845977Y-9602877D02*
X14838835Y-9595734D01*
X14838835Y-9595734D02*
X14824549Y-9588591D01*
X14824549Y-9588591D02*
X14788835Y-9588591D01*
X14788835Y-9588591D02*
X14774549Y-9595734D01*
X14774549Y-9595734D02*
X14767406Y-9602877D01*
X14767406Y-9602877D02*
X14760263Y-9617163D01*
X14760263Y-9617163D02*
X14760263Y-9631448D01*
X14760263Y-9631448D02*
X14767406Y-9652877D01*
X14767406Y-9652877D02*
X14853120Y-9738591D01*
X14853120Y-9738591D02*
X14760263Y-9738591D01*
X14624549Y-9588591D02*
X14695978Y-9588591D01*
X14695978Y-9588591D02*
X14703120Y-9660020D01*
X14703120Y-9660020D02*
X14695978Y-9652877D01*
X14695978Y-9652877D02*
X14681692Y-9645734D01*
X14681692Y-9645734D02*
X14645978Y-9645734D01*
X14645978Y-9645734D02*
X14631692Y-9652877D01*
X14631692Y-9652877D02*
X14624549Y-9660020D01*
X14624549Y-9660020D02*
X14617406Y-9674306D01*
X14617406Y-9674306D02*
X14617406Y-9710020D01*
X14617406Y-9710020D02*
X14624549Y-9724306D01*
X14624549Y-9724306D02*
X14631692Y-9731448D01*
X14631692Y-9731448D02*
X14645978Y-9738591D01*
X14645978Y-9738591D02*
X14681692Y-9738591D01*
X14681692Y-9738591D02*
X14695978Y-9731448D01*
X14695978Y-9731448D02*
X14703120Y-9724306D01*
X14553120Y-9681448D02*
X14438835Y-9681448D01*
X14338835Y-9588591D02*
X14324549Y-9588591D01*
X14324549Y-9588591D02*
X14310263Y-9595734D01*
X14310263Y-9595734D02*
X14303120Y-9602877D01*
X14303120Y-9602877D02*
X14295978Y-9617163D01*
X14295978Y-9617163D02*
X14288835Y-9645734D01*
X14288835Y-9645734D02*
X14288835Y-9681448D01*
X14288835Y-9681448D02*
X14295978Y-9710020D01*
X14295978Y-9710020D02*
X14303120Y-9724306D01*
X14303120Y-9724306D02*
X14310263Y-9731448D01*
X14310263Y-9731448D02*
X14324549Y-9738591D01*
X14324549Y-9738591D02*
X14338835Y-9738591D01*
X14338835Y-9738591D02*
X14353120Y-9731448D01*
X14353120Y-9731448D02*
X14360263Y-9724306D01*
X14360263Y-9724306D02*
X14367406Y-9710020D01*
X14367406Y-9710020D02*
X14374549Y-9681448D01*
X14374549Y-9681448D02*
X14374549Y-9645734D01*
X14374549Y-9645734D02*
X14367406Y-9617163D01*
X14367406Y-9617163D02*
X14360263Y-9602877D01*
X14360263Y-9602877D02*
X14353120Y-9595734D01*
X14353120Y-9595734D02*
X14338835Y-9588591D01*
X14203120Y-9652877D02*
X14217406Y-9645734D01*
X14217406Y-9645734D02*
X14224549Y-9638591D01*
X14224549Y-9638591D02*
X14231692Y-9624306D01*
X14231692Y-9624306D02*
X14231692Y-9617163D01*
X14231692Y-9617163D02*
X14224549Y-9602877D01*
X14224549Y-9602877D02*
X14217406Y-9595734D01*
X14217406Y-9595734D02*
X14203120Y-9588591D01*
X14203120Y-9588591D02*
X14174549Y-9588591D01*
X14174549Y-9588591D02*
X14160263Y-9595734D01*
X14160263Y-9595734D02*
X14153120Y-9602877D01*
X14153120Y-9602877D02*
X14145978Y-9617163D01*
X14145978Y-9617163D02*
X14145978Y-9624306D01*
X14145978Y-9624306D02*
X14153120Y-9638591D01*
X14153120Y-9638591D02*
X14160263Y-9645734D01*
X14160263Y-9645734D02*
X14174549Y-9652877D01*
X14174549Y-9652877D02*
X14203120Y-9652877D01*
X14203120Y-9652877D02*
X14217406Y-9660020D01*
X14217406Y-9660020D02*
X14224549Y-9667163D01*
X14224549Y-9667163D02*
X14231692Y-9681448D01*
X14231692Y-9681448D02*
X14231692Y-9710020D01*
X14231692Y-9710020D02*
X14224549Y-9724306D01*
X14224549Y-9724306D02*
X14217406Y-9731448D01*
X14217406Y-9731448D02*
X14203120Y-9738591D01*
X14203120Y-9738591D02*
X14174549Y-9738591D01*
X14174549Y-9738591D02*
X14160263Y-9731448D01*
X14160263Y-9731448D02*
X14153120Y-9724306D01*
X14153120Y-9724306D02*
X14145978Y-9710020D01*
X14145978Y-9710020D02*
X14145978Y-9681448D01*
X14145978Y-9681448D02*
X14153120Y-9667163D01*
X14153120Y-9667163D02*
X14160263Y-9660020D01*
X14160263Y-9660020D02*
X14174549Y-9652877D01*
X14081692Y-9681448D02*
X13967406Y-9681448D01*
X13903120Y-9602877D02*
X13895978Y-9595734D01*
X13895978Y-9595734D02*
X13881692Y-9588591D01*
X13881692Y-9588591D02*
X13845978Y-9588591D01*
X13845978Y-9588591D02*
X13831692Y-9595734D01*
X13831692Y-9595734D02*
X13824549Y-9602877D01*
X13824549Y-9602877D02*
X13817406Y-9617163D01*
X13817406Y-9617163D02*
X13817406Y-9631448D01*
X13817406Y-9631448D02*
X13824549Y-9652877D01*
X13824549Y-9652877D02*
X13910263Y-9738591D01*
X13910263Y-9738591D02*
X13817406Y-9738591D01*
X13724549Y-9588591D02*
X13710263Y-9588591D01*
X13710263Y-9588591D02*
X13695978Y-9595734D01*
X13695978Y-9595734D02*
X13688835Y-9602877D01*
X13688835Y-9602877D02*
X13681692Y-9617163D01*
X13681692Y-9617163D02*
X13674549Y-9645734D01*
X13674549Y-9645734D02*
X13674549Y-9681448D01*
X13674549Y-9681448D02*
X13681692Y-9710020D01*
X13681692Y-9710020D02*
X13688835Y-9724306D01*
X13688835Y-9724306D02*
X13695978Y-9731448D01*
X13695978Y-9731448D02*
X13710263Y-9738591D01*
X13710263Y-9738591D02*
X13724549Y-9738591D01*
X13724549Y-9738591D02*
X13738835Y-9731448D01*
X13738835Y-9731448D02*
X13745978Y-9724306D01*
X13745978Y-9724306D02*
X13753121Y-9710020D01*
X13753121Y-9710020D02*
X13760263Y-9681448D01*
X13760263Y-9681448D02*
X13760263Y-9645734D01*
X13760263Y-9645734D02*
X13753121Y-9617163D01*
X13753121Y-9617163D02*
X13745978Y-9602877D01*
X13745978Y-9602877D02*
X13738835Y-9595734D01*
X13738835Y-9595734D02*
X13724549Y-9588591D01*
X15145977Y-9830083D02*
X15095977Y-9980083D01*
X15095977Y-9980083D02*
X15045977Y-9830083D01*
X14917406Y-9980083D02*
X15003120Y-9980083D01*
X14960263Y-9980083D02*
X14960263Y-9830083D01*
X14960263Y-9830083D02*
X14974549Y-9851511D01*
X14974549Y-9851511D02*
X14988835Y-9865797D01*
X14988835Y-9865797D02*
X15003120Y-9872940D01*
%LPC*%
D11*
X17091750Y-10750000D03*
D12*
X17091750Y-10250000D03*
X17091750Y-9750000D03*
D13*
X15430000Y-6963250D03*
D12*
X14930000Y-6963250D03*
X14430000Y-6963250D03*
D14*
X16970000Y-8780000D03*
X16270000Y-8780000D03*
X11580000Y-10500000D03*
X12280000Y-10500000D03*
D15*
X13430000Y-12600000D03*
D12*
X13930000Y-12600000D03*
X14430000Y-12600000D03*
D14*
X15380000Y-12450000D03*
X15380000Y-11750000D03*
X13480000Y-7050000D03*
X13480000Y-7750000D03*
D16*
X11493250Y-8550000D03*
D12*
X11493250Y-9050000D03*
X11493250Y-9550000D03*
%LPD*%
M02*
