G04 #@! TF.GenerationSoftware,KiCad,Pcbnew,9.0.3*
G04 #@! TF.CreationDate,2025-08-26T19:25:46-07:00*
G04 #@! TF.ProjectId,sdi12_breakout,73646931-325f-4627-9265-616b6f75742e,V1*
G04 #@! TF.SameCoordinates,Original*
G04 #@! TF.FileFunction,Copper,L1,Top*
G04 #@! TF.FilePolarity,Positive*
%FSLAX45Y45*%
G04 Gerber Fmt 4.5, Leading zero omitted, Abs format (unit mm)*
G04 Created by KiCad (PCBNEW 9.0.3) date 2025-08-26 19:25:46*
%MOMM*%
%LPD*%
G01*
G04 APERTURE LIST*
G04 Aperture macros list*
%AMRoundRect*
0 Rectangle with rounded corners*
0 $1 Rounding radius*
0 $2 $3 $4 $5 $6 $7 $8 $9 X,Y pos of 4 corners*
0 Add a 4 corners polygon primitive as box body*
4,1,4,$2,$3,$4,$5,$6,$7,$8,$9,$2,$3,0*
0 Add four circle primitives for the rounded corners*
1,1,$1+$1,$2,$3*
1,1,$1+$1,$4,$5*
1,1,$1+$1,$6,$7*
1,1,$1+$1,$8,$9*
0 Add four rect primitives between the rounded corners*
20,1,$1+$1,$2,$3,$4,$5,0*
20,1,$1+$1,$4,$5,$6,$7,0*
20,1,$1+$1,$6,$7,$8,$9,0*
20,1,$1+$1,$8,$9,$2,$3,0*%
G04 Aperture macros list end*
G04 #@! TA.AperFunction,ComponentPad*
%ADD10RoundRect,0.250000X1.050000X-1.050000X1.050000X1.050000X-1.050000X1.050000X-1.050000X-1.050000X0*%
G04 #@! TD*
G04 #@! TA.AperFunction,ComponentPad*
%ADD11C,2.600000*%
G04 #@! TD*
G04 #@! TA.AperFunction,ComponentPad*
%ADD12RoundRect,0.250000X1.050000X1.050000X-1.050000X1.050000X-1.050000X-1.050000X1.050000X-1.050000X0*%
G04 #@! TD*
G04 #@! TA.AperFunction,SMDPad,CuDef*
%ADD13R,2.200000X2.800000*%
G04 #@! TD*
G04 #@! TA.AperFunction,SMDPad,CuDef*
%ADD14R,2.800000X2.800000*%
G04 #@! TD*
G04 #@! TA.AperFunction,ComponentPad*
%ADD15RoundRect,0.250000X-1.050000X-1.050000X1.050000X-1.050000X1.050000X1.050000X-1.050000X1.050000X0*%
G04 #@! TD*
G04 #@! TA.AperFunction,SMDPad,CuDef*
%ADD16R,2.800000X2.200000*%
G04 #@! TD*
G04 #@! TA.AperFunction,ComponentPad*
%ADD17RoundRect,0.250000X-1.050000X1.050000X-1.050000X-1.050000X1.050000X-1.050000X1.050000X1.050000X0*%
G04 #@! TD*
G04 #@! TA.AperFunction,ViaPad*
%ADD18C,0.600000*%
G04 #@! TD*
G04 #@! TA.AperFunction,Conductor*
%ADD19C,0.200000*%
G04 #@! TD*
G04 #@! TA.AperFunction,Conductor*
%ADD20C,0.500000*%
G04 #@! TD*
G04 APERTURE END LIST*
D10*
X17091750Y-10750000D03*
D11*
X17091750Y-10250000D03*
X17091750Y-9750000D03*
D12*
X15430000Y-6963250D03*
D11*
X14930000Y-6963250D03*
X14430000Y-6963250D03*
D13*
X16880000Y-9150000D03*
X17080000Y-8410000D03*
D14*
X16140000Y-8410000D03*
D13*
X11670000Y-10130000D03*
X11470000Y-10870000D03*
D14*
X12410000Y-10870000D03*
D15*
X13430000Y-12600000D03*
D11*
X13930000Y-12600000D03*
X14430000Y-12600000D03*
D16*
X15010000Y-12360000D03*
X15750000Y-12560000D03*
D14*
X15750000Y-11620000D03*
D16*
X13850000Y-7140000D03*
X13110000Y-6940000D03*
D14*
X13110000Y-7880000D03*
D17*
X11493250Y-8550000D03*
D11*
X11493250Y-9050000D03*
X11493250Y-9550000D03*
D18*
X16140000Y-8410000D03*
X15750000Y-11620000D03*
X13110000Y-7880000D03*
X12410000Y-10870000D03*
D19*
X11670000Y-10130000D02*
X12093848Y-10130000D01*
X16800000Y-10130000D02*
X17180000Y-9750000D01*
X14430000Y-12466152D02*
X14430000Y-12650000D01*
X11670000Y-9840000D02*
X11670000Y-10130000D01*
X11670000Y-10130000D02*
X14430000Y-7370000D01*
X11670000Y-10130000D02*
X15900000Y-10130000D01*
X11670000Y-10130000D02*
X12780000Y-10130000D01*
X11670000Y-10130000D02*
X16800000Y-10130000D01*
X12093848Y-10130000D02*
X14430000Y-12466152D01*
X11380000Y-9550000D02*
X11670000Y-9840000D01*
X11670000Y-10130000D02*
X13850000Y-7950000D01*
X13850000Y-7950000D02*
X13850000Y-7140000D01*
X14430000Y-7370000D02*
X14430000Y-6850000D01*
X15900000Y-10130000D02*
X16880000Y-9150000D01*
X12780000Y-10130000D02*
X15010000Y-12360000D01*
D20*
X12530000Y-10990000D02*
X12530000Y-11000000D01*
G04 #@! TA.AperFunction,Conductor*
G36*
X17674254Y-6352018D02*
G01*
X17678829Y-6357299D01*
X17679950Y-6362450D01*
X17679950Y-13137550D01*
X17677982Y-13144254D01*
X17672701Y-13148829D01*
X17667550Y-13149950D01*
X10892450Y-13149950D01*
X10885746Y-13147981D01*
X10881171Y-13142701D01*
X10880050Y-13137550D01*
X10880050Y-12489998D01*
X13249950Y-12489998D01*
X13249950Y-12710000D01*
X13249950Y-12710002D01*
X13251000Y-12720280D01*
X13251000Y-12720280D01*
X13255888Y-12735032D01*
X13256519Y-12736933D01*
X13265729Y-12751866D01*
X13278134Y-12764271D01*
X13293067Y-12773481D01*
X13309720Y-12779000D01*
X13319999Y-12780050D01*
X13540001Y-12780050D01*
X13550280Y-12779000D01*
X13566933Y-12773481D01*
X13581866Y-12764271D01*
X13594271Y-12751866D01*
X13603481Y-12736933D01*
X13609000Y-12720280D01*
X13610050Y-12710001D01*
X13610050Y-12588201D01*
X13750000Y-12588201D01*
X13750000Y-12611798D01*
X13753080Y-12635191D01*
X13759187Y-12657984D01*
X13768216Y-12679782D01*
X13768216Y-12679783D01*
X13780014Y-12700217D01*
X13780014Y-12700217D01*
X13786272Y-12708372D01*
X13869896Y-12624749D01*
X13872398Y-12630789D01*
X13879511Y-12641435D01*
X13888565Y-12650489D01*
X13899211Y-12657602D01*
X13905251Y-12660104D01*
X13821627Y-12743728D01*
X13829783Y-12749985D01*
X13829783Y-12749985D01*
X13850217Y-12761783D01*
X13850218Y-12761784D01*
X13872016Y-12770813D01*
X13872016Y-12770813D01*
X13894808Y-12776920D01*
X13918201Y-12780000D01*
X13918203Y-12780000D01*
X13941797Y-12780000D01*
X13941798Y-12780000D01*
X13965191Y-12776920D01*
X13987984Y-12770813D01*
X14009782Y-12761784D01*
X14009783Y-12761783D01*
X14030218Y-12749985D01*
X14038372Y-12743728D01*
X14038372Y-12743728D01*
X13954749Y-12660104D01*
X13960789Y-12657602D01*
X13971435Y-12650489D01*
X13980489Y-12641435D01*
X13987602Y-12630789D01*
X13990104Y-12624749D01*
X14073728Y-12708372D01*
X14073728Y-12708372D01*
X14079985Y-12700218D01*
X14091783Y-12679783D01*
X14091784Y-12679782D01*
X14100813Y-12657984D01*
X14106920Y-12635191D01*
X14110000Y-12611798D01*
X14110000Y-12611797D01*
X14110000Y-12588203D01*
X14110000Y-12588201D01*
X14106920Y-12564808D01*
X14100813Y-12542016D01*
X14091784Y-12520218D01*
X14091783Y-12520217D01*
X14079985Y-12499783D01*
X14079985Y-12499783D01*
X14073728Y-12491627D01*
X13990104Y-12575251D01*
X13987602Y-12569211D01*
X13980489Y-12558565D01*
X13971435Y-12549511D01*
X13960789Y-12542398D01*
X13954749Y-12539896D01*
X14038372Y-12456272D01*
X14030217Y-12450014D01*
X14030217Y-12450014D01*
X14009783Y-12438216D01*
X14009782Y-12438216D01*
X13987984Y-12429187D01*
X13987984Y-12429187D01*
X13965191Y-12423080D01*
X13941798Y-12420000D01*
X13918201Y-12420000D01*
X13894808Y-12423080D01*
X13872016Y-12429187D01*
X13850218Y-12438216D01*
X13850217Y-12438216D01*
X13829783Y-12450014D01*
X13829782Y-12450015D01*
X13821627Y-12456272D01*
X13821627Y-12456272D01*
X13905251Y-12539896D01*
X13899211Y-12542398D01*
X13888565Y-12549511D01*
X13879511Y-12558565D01*
X13872398Y-12569211D01*
X13869896Y-12575251D01*
X13786272Y-12491627D01*
X13786272Y-12491627D01*
X13780015Y-12499782D01*
X13780014Y-12499783D01*
X13768216Y-12520217D01*
X13768216Y-12520218D01*
X13759187Y-12542016D01*
X13753080Y-12564808D01*
X13750000Y-12588201D01*
X13610050Y-12588201D01*
X13610050Y-12489999D01*
X13609000Y-12479720D01*
X13603481Y-12463067D01*
X13594271Y-12448134D01*
X13581866Y-12435729D01*
X13566933Y-12426519D01*
X13550280Y-12421000D01*
X13550279Y-12421000D01*
X13540001Y-12419950D01*
X13320000Y-12419950D01*
X13319998Y-12419950D01*
X13309720Y-12421000D01*
X13309720Y-12421000D01*
X13293067Y-12426518D01*
X13293066Y-12426519D01*
X13278134Y-12435729D01*
X13265729Y-12448134D01*
X13256519Y-12463066D01*
X13256518Y-12463067D01*
X13255889Y-12464968D01*
X13251000Y-12479720D01*
X13251000Y-12479720D01*
X13251000Y-12479720D01*
X13249950Y-12489998D01*
X10880050Y-12489998D01*
X10880050Y-11014784D01*
X11310000Y-11014784D01*
X11310640Y-11020737D01*
X11310640Y-11020738D01*
X11315664Y-11034209D01*
X11315665Y-11034209D01*
X11324281Y-11045719D01*
X11324281Y-11045719D01*
X11335791Y-11054335D01*
X11335791Y-11054335D01*
X11349262Y-11059360D01*
X11349263Y-11059360D01*
X11355215Y-11060000D01*
X11355217Y-11060000D01*
X11445000Y-11060000D01*
X11495000Y-11060000D01*
X11584783Y-11060000D01*
X11584784Y-11060000D01*
X11590737Y-11059360D01*
X11590738Y-11059360D01*
X11604209Y-11054335D01*
X11604209Y-11054335D01*
X11615719Y-11045719D01*
X11615719Y-11045719D01*
X11624335Y-11034209D01*
X11624335Y-11034209D01*
X11629360Y-11020738D01*
X11629360Y-11020737D01*
X11630000Y-11014784D01*
X11630000Y-11014783D01*
X11630000Y-10895000D01*
X11495000Y-10895000D01*
X11495000Y-11060000D01*
X11445000Y-11060000D01*
X11445000Y-10895000D01*
X11310000Y-10895000D01*
X11310000Y-11014784D01*
X10880050Y-11014784D01*
X10880050Y-10725216D01*
X11310000Y-10725216D01*
X11310000Y-10845000D01*
X11445000Y-10845000D01*
X11495000Y-10845000D01*
X11630000Y-10845000D01*
X11630000Y-10725217D01*
X11630000Y-10725216D01*
X11629360Y-10719263D01*
X11629360Y-10719262D01*
X11624335Y-10705791D01*
X11624335Y-10705791D01*
X11615719Y-10694281D01*
X11615719Y-10694281D01*
X11604209Y-10685665D01*
X11604209Y-10685665D01*
X11590738Y-10680640D01*
X11590737Y-10680640D01*
X11584784Y-10680000D01*
X11495000Y-10680000D01*
X11495000Y-10845000D01*
X11445000Y-10845000D01*
X11445000Y-10680000D01*
X11355215Y-10680000D01*
X11349263Y-10680640D01*
X11349262Y-10680640D01*
X11335791Y-10685665D01*
X11335791Y-10685665D01*
X11324281Y-10694281D01*
X11324281Y-10694281D01*
X11315665Y-10705791D01*
X11315664Y-10705791D01*
X11310640Y-10719262D01*
X11310640Y-10719263D01*
X11310000Y-10725216D01*
X10880050Y-10725216D01*
X10880050Y-10491339D01*
X11469950Y-10491339D01*
X11469950Y-10508661D01*
X11472660Y-10525770D01*
X11478013Y-10542245D01*
X11485877Y-10557679D01*
X11496059Y-10571693D01*
X11508307Y-10583941D01*
X11522321Y-10594123D01*
X11537755Y-10601987D01*
X11554230Y-10607340D01*
X11571339Y-10610050D01*
X11571339Y-10610050D01*
X11588661Y-10610050D01*
X11588661Y-10610050D01*
X11605770Y-10607340D01*
X11622244Y-10601987D01*
X11637679Y-10594123D01*
X11651693Y-10583941D01*
X11663941Y-10571693D01*
X11674123Y-10557679D01*
X11681987Y-10542245D01*
X11687340Y-10525770D01*
X11690050Y-10508661D01*
X11690050Y-10491339D01*
X11687340Y-10474230D01*
X11681987Y-10457756D01*
X11674123Y-10442321D01*
X11663941Y-10428307D01*
X11651693Y-10416059D01*
X11637679Y-10405877D01*
X11622244Y-10398013D01*
X11605770Y-10392660D01*
X11605770Y-10392660D01*
X11605770Y-10392660D01*
X11590788Y-10390287D01*
X11588661Y-10389950D01*
X11571339Y-10389950D01*
X11569212Y-10390287D01*
X11554230Y-10392660D01*
X11537755Y-10398013D01*
X11522321Y-10405877D01*
X11514326Y-10411686D01*
X11508307Y-10416059D01*
X11508307Y-10416059D01*
X11508307Y-10416059D01*
X11496059Y-10428307D01*
X11496059Y-10428307D01*
X11496059Y-10428307D01*
X11494829Y-10430000D01*
X11485877Y-10442321D01*
X11478013Y-10457755D01*
X11472660Y-10474230D01*
X11469950Y-10491339D01*
X10880050Y-10491339D01*
X10880050Y-9538199D01*
X11313200Y-9538199D01*
X11313200Y-9561801D01*
X11316281Y-9585201D01*
X11320239Y-9599973D01*
X11322389Y-9607999D01*
X11331421Y-9629805D01*
X11331422Y-9629806D01*
X11338518Y-9642096D01*
X11343223Y-9650245D01*
X11343223Y-9650245D01*
X11343223Y-9650245D01*
X11357591Y-9668970D01*
X11357591Y-9668970D01*
X11374279Y-9685659D01*
X11374280Y-9685659D01*
X11382544Y-9692001D01*
X11393005Y-9700027D01*
X11406142Y-9707612D01*
X11413444Y-9711828D01*
X11413445Y-9711828D01*
X11413445Y-9711828D01*
X11435251Y-9720861D01*
X11458049Y-9726969D01*
X11469995Y-9728542D01*
X11476384Y-9731369D01*
X11477144Y-9732068D01*
X11606318Y-9861242D01*
X11609667Y-9867374D01*
X11609950Y-9870010D01*
X11609950Y-9927550D01*
X11607981Y-9934254D01*
X11602701Y-9938829D01*
X11597550Y-9939950D01*
X11555213Y-9939950D01*
X11555212Y-9939950D01*
X11549252Y-9940591D01*
X11535767Y-9945620D01*
X11535766Y-9945621D01*
X11524245Y-9954245D01*
X11524245Y-9954246D01*
X11515621Y-9965766D01*
X11515620Y-9965767D01*
X11510591Y-9979252D01*
X11509950Y-9985212D01*
X11509950Y-9985214D01*
X11509950Y-10274787D01*
X11509950Y-10274788D01*
X11510591Y-10280748D01*
X11515620Y-10294233D01*
X11515621Y-10294234D01*
X11524245Y-10305754D01*
X11524245Y-10305755D01*
X11535766Y-10314379D01*
X11535767Y-10314380D01*
X11549252Y-10319409D01*
X11549252Y-10319409D01*
X11549944Y-10319484D01*
X11555213Y-10320050D01*
X11784787Y-10320050D01*
X11790748Y-10319409D01*
X11804233Y-10314380D01*
X11815755Y-10305755D01*
X11824380Y-10294233D01*
X11829409Y-10280748D01*
X11830050Y-10274787D01*
X11830050Y-10202450D01*
X11832018Y-10195746D01*
X11837299Y-10191171D01*
X11842450Y-10190050D01*
X12063838Y-10190050D01*
X12070542Y-10192019D01*
X12072606Y-10193682D01*
X12253020Y-10374096D01*
X12256368Y-10380228D01*
X12255870Y-10387197D01*
X12251683Y-10392791D01*
X12248084Y-10394657D01*
X12237755Y-10398013D01*
X12237755Y-10398013D01*
X12222321Y-10405877D01*
X12214326Y-10411686D01*
X12208307Y-10416059D01*
X12208307Y-10416059D01*
X12208307Y-10416059D01*
X12196059Y-10428307D01*
X12196059Y-10428307D01*
X12196059Y-10428307D01*
X12194829Y-10430000D01*
X12185877Y-10442321D01*
X12178013Y-10457755D01*
X12172660Y-10474230D01*
X12169950Y-10491339D01*
X12169950Y-10508661D01*
X12172660Y-10525770D01*
X12178013Y-10542245D01*
X12185877Y-10557679D01*
X12196059Y-10571693D01*
X12208307Y-10583941D01*
X12222321Y-10594123D01*
X12237755Y-10601987D01*
X12254230Y-10607340D01*
X12271339Y-10610050D01*
X12271339Y-10610050D01*
X12288661Y-10610050D01*
X12288661Y-10610050D01*
X12305770Y-10607340D01*
X12322244Y-10601987D01*
X12337679Y-10594123D01*
X12351693Y-10583941D01*
X12363941Y-10571693D01*
X12374123Y-10557679D01*
X12381987Y-10542245D01*
X12385343Y-10531916D01*
X12389287Y-10526149D01*
X12395722Y-10523429D01*
X12402607Y-10524620D01*
X12405904Y-10526980D01*
X12537706Y-10658782D01*
X12541055Y-10664914D01*
X12540556Y-10671883D01*
X12536369Y-10677477D01*
X12529823Y-10679918D01*
X12528938Y-10679950D01*
X12265213Y-10679950D01*
X12265212Y-10679950D01*
X12259252Y-10680591D01*
X12245767Y-10685620D01*
X12245766Y-10685621D01*
X12234245Y-10694245D01*
X12234245Y-10694246D01*
X12225621Y-10705766D01*
X12225620Y-10705767D01*
X12220591Y-10719252D01*
X12219950Y-10725212D01*
X12219950Y-10725214D01*
X12219950Y-11014787D01*
X12219950Y-11014788D01*
X12220591Y-11020748D01*
X12225620Y-11034233D01*
X12225621Y-11034234D01*
X12234245Y-11045754D01*
X12234245Y-11045755D01*
X12245766Y-11054379D01*
X12245767Y-11054380D01*
X12259252Y-11059409D01*
X12259252Y-11059409D01*
X12259944Y-11059484D01*
X12265213Y-11060050D01*
X12481023Y-11060050D01*
X12487727Y-11062018D01*
X12487909Y-11062137D01*
X12494450Y-11066508D01*
X12508109Y-11072166D01*
X12508109Y-11072166D01*
X12508109Y-11072166D01*
X12522608Y-11075050D01*
X12522608Y-11075050D01*
X12537392Y-11075050D01*
X12547146Y-11073110D01*
X12551891Y-11072166D01*
X12565549Y-11066508D01*
X12577842Y-11058295D01*
X12588295Y-11047842D01*
X12596508Y-11035550D01*
X12602166Y-11021891D01*
X12603110Y-11017146D01*
X12605050Y-11007392D01*
X12605050Y-10982608D01*
X12602166Y-10968109D01*
X12602166Y-10968109D01*
X12600994Y-10965279D01*
X12600050Y-10960534D01*
X12600050Y-10751062D01*
X12602018Y-10744358D01*
X12607299Y-10739783D01*
X12614215Y-10738788D01*
X12620570Y-10741691D01*
X12621218Y-10742294D01*
X14319271Y-12440347D01*
X14322620Y-12446479D01*
X14322121Y-12453449D01*
X14318052Y-12458953D01*
X14311030Y-12464340D01*
X14311029Y-12464341D01*
X14294341Y-12481029D01*
X14294341Y-12481030D01*
X14279973Y-12499754D01*
X14279973Y-12499755D01*
X14279973Y-12499755D01*
X14279201Y-12501091D01*
X14268172Y-12520194D01*
X14268171Y-12520195D01*
X14259139Y-12542001D01*
X14253031Y-12564799D01*
X14249950Y-12588198D01*
X14249950Y-12588199D01*
X14249950Y-12611800D01*
X14249950Y-12611802D01*
X14253031Y-12635201D01*
X14259139Y-12657999D01*
X14268171Y-12679804D01*
X14268172Y-12679806D01*
X14275268Y-12692096D01*
X14279973Y-12700245D01*
X14279973Y-12700245D01*
X14279973Y-12700245D01*
X14294341Y-12718970D01*
X14294341Y-12718970D01*
X14311029Y-12735659D01*
X14311030Y-12735659D01*
X14322031Y-12744100D01*
X14329755Y-12750027D01*
X14342892Y-12757612D01*
X14350194Y-12761828D01*
X14350195Y-12761828D01*
X14350195Y-12761828D01*
X14372001Y-12770861D01*
X14394799Y-12776969D01*
X14418199Y-12780050D01*
X14418200Y-12780050D01*
X14441800Y-12780050D01*
X14441801Y-12780050D01*
X14465201Y-12776969D01*
X14487999Y-12770861D01*
X14509805Y-12761828D01*
X14530245Y-12750027D01*
X14548970Y-12735659D01*
X14565659Y-12718970D01*
X14580027Y-12700245D01*
X14591828Y-12679805D01*
X14593908Y-12674784D01*
X15560000Y-12674784D01*
X15560640Y-12680737D01*
X15560640Y-12680738D01*
X15565664Y-12694209D01*
X15565665Y-12694209D01*
X15574281Y-12705719D01*
X15574281Y-12705719D01*
X15585791Y-12714335D01*
X15585791Y-12714335D01*
X15599262Y-12719360D01*
X15599263Y-12719360D01*
X15605215Y-12720000D01*
X15605217Y-12720000D01*
X15725000Y-12720000D01*
X15775000Y-12720000D01*
X15894783Y-12720000D01*
X15894784Y-12720000D01*
X15900737Y-12719360D01*
X15900738Y-12719360D01*
X15914209Y-12714335D01*
X15914209Y-12714335D01*
X15925719Y-12705719D01*
X15925719Y-12705719D01*
X15934335Y-12694209D01*
X15934335Y-12694209D01*
X15939360Y-12680738D01*
X15939360Y-12680737D01*
X15940000Y-12674784D01*
X15940000Y-12674783D01*
X15940000Y-12585000D01*
X15775000Y-12585000D01*
X15775000Y-12720000D01*
X15725000Y-12720000D01*
X15725000Y-12585000D01*
X15560000Y-12585000D01*
X15560000Y-12674784D01*
X14593908Y-12674784D01*
X14600861Y-12657999D01*
X14606969Y-12635201D01*
X14610050Y-12611801D01*
X14610050Y-12588199D01*
X14609607Y-12584831D01*
X14609166Y-12581482D01*
X14606969Y-12564799D01*
X14606969Y-12564799D01*
X14600861Y-12542001D01*
X14591828Y-12520195D01*
X14591828Y-12520195D01*
X14591828Y-12520194D01*
X14583491Y-12505755D01*
X14580027Y-12499755D01*
X14565659Y-12481030D01*
X14565659Y-12481029D01*
X14548970Y-12464341D01*
X14548970Y-12464341D01*
X14530245Y-12449973D01*
X14530245Y-12449973D01*
X14530245Y-12449973D01*
X14522005Y-12445215D01*
X14509806Y-12438172D01*
X14509804Y-12438171D01*
X14487999Y-12429139D01*
X14477427Y-12426306D01*
X14471868Y-12423097D01*
X12259989Y-10211218D01*
X12256641Y-10205086D01*
X12257139Y-10198117D01*
X12261326Y-10192523D01*
X12267873Y-10190082D01*
X12268757Y-10190050D01*
X12749990Y-10190050D01*
X12756694Y-10192019D01*
X12758758Y-10193682D01*
X14816318Y-12251242D01*
X14819667Y-12257374D01*
X14819950Y-12260010D01*
X14819950Y-12474787D01*
X14819950Y-12474788D01*
X14820591Y-12480748D01*
X14825620Y-12494233D01*
X14825621Y-12494233D01*
X14834245Y-12505754D01*
X14834245Y-12505755D01*
X14845766Y-12514379D01*
X14845767Y-12514380D01*
X14859252Y-12519409D01*
X14859252Y-12519409D01*
X14859944Y-12519483D01*
X14865213Y-12520050D01*
X15154787Y-12520050D01*
X15160748Y-12519409D01*
X15174233Y-12514380D01*
X15185755Y-12505755D01*
X15194380Y-12494233D01*
X15199409Y-12480748D01*
X15200050Y-12474787D01*
X15200050Y-12441339D01*
X15269950Y-12441339D01*
X15269950Y-12458661D01*
X15270949Y-12464968D01*
X15272660Y-12475770D01*
X15278013Y-12492244D01*
X15285877Y-12507679D01*
X15296059Y-12521693D01*
X15308307Y-12533941D01*
X15322321Y-12544123D01*
X15337755Y-12551987D01*
X15354230Y-12557340D01*
X15371339Y-12560050D01*
X15371339Y-12560050D01*
X15388661Y-12560050D01*
X15388661Y-12560050D01*
X15405770Y-12557340D01*
X15422244Y-12551987D01*
X15437679Y-12544123D01*
X15451693Y-12533941D01*
X15463941Y-12521693D01*
X15474123Y-12507679D01*
X15481987Y-12492244D01*
X15487340Y-12475770D01*
X15490050Y-12458661D01*
X15490050Y-12445215D01*
X15560000Y-12445215D01*
X15560000Y-12535000D01*
X15725000Y-12535000D01*
X15775000Y-12535000D01*
X15940000Y-12535000D01*
X15940000Y-12445217D01*
X15940000Y-12445215D01*
X15939360Y-12439263D01*
X15939360Y-12439262D01*
X15934335Y-12425791D01*
X15934335Y-12425791D01*
X15925719Y-12414281D01*
X15925719Y-12414281D01*
X15914209Y-12405665D01*
X15914209Y-12405664D01*
X15900738Y-12400640D01*
X15900737Y-12400640D01*
X15894784Y-12400000D01*
X15775000Y-12400000D01*
X15775000Y-12535000D01*
X15725000Y-12535000D01*
X15725000Y-12400000D01*
X15605215Y-12400000D01*
X15599263Y-12400640D01*
X15599262Y-12400640D01*
X15585791Y-12405664D01*
X15585791Y-12405665D01*
X15574281Y-12414281D01*
X15574281Y-12414281D01*
X15565665Y-12425791D01*
X15565664Y-12425791D01*
X15560640Y-12439262D01*
X15560640Y-12439263D01*
X15560000Y-12445215D01*
X15490050Y-12445215D01*
X15490050Y-12441339D01*
X15487340Y-12424230D01*
X15481987Y-12407755D01*
X15474123Y-12392321D01*
X15463941Y-12378307D01*
X15451693Y-12366059D01*
X15437679Y-12355877D01*
X15422244Y-12348013D01*
X15405770Y-12342660D01*
X15405770Y-12342660D01*
X15405770Y-12342660D01*
X15392627Y-12340578D01*
X15388661Y-12339950D01*
X15371339Y-12339950D01*
X15367373Y-12340578D01*
X15354230Y-12342660D01*
X15337755Y-12348013D01*
X15322321Y-12355877D01*
X15314326Y-12361686D01*
X15308307Y-12366059D01*
X15308307Y-12366059D01*
X15308307Y-12366059D01*
X15296059Y-12378307D01*
X15296059Y-12378307D01*
X15296059Y-12378307D01*
X15291686Y-12384326D01*
X15285877Y-12392321D01*
X15278013Y-12407755D01*
X15272660Y-12424230D01*
X15269950Y-12441339D01*
X15200050Y-12441339D01*
X15200050Y-12355877D01*
X15200050Y-12245213D01*
X15200050Y-12245212D01*
X15199409Y-12239252D01*
X15194380Y-12225767D01*
X15194379Y-12225766D01*
X15185755Y-12214245D01*
X15185754Y-12214245D01*
X15174233Y-12205621D01*
X15174233Y-12205620D01*
X15160748Y-12200591D01*
X15160748Y-12200591D01*
X15154788Y-12199950D01*
X15154788Y-12199950D01*
X15154787Y-12199950D01*
X15154786Y-12199950D01*
X14940010Y-12199950D01*
X14933306Y-12197981D01*
X14931242Y-12196318D01*
X14476262Y-11741339D01*
X15269950Y-11741339D01*
X15269950Y-11758661D01*
X15270920Y-11764786D01*
X15272660Y-11775770D01*
X15278013Y-11792244D01*
X15285877Y-11807679D01*
X15296059Y-11821693D01*
X15308307Y-11833941D01*
X15322321Y-11844123D01*
X15337755Y-11851987D01*
X15354230Y-11857340D01*
X15371339Y-11860050D01*
X15371339Y-11860050D01*
X15388661Y-11860050D01*
X15388661Y-11860050D01*
X15405770Y-11857340D01*
X15422244Y-11851987D01*
X15437679Y-11844123D01*
X15451693Y-11833941D01*
X15463941Y-11821693D01*
X15474123Y-11807679D01*
X15481987Y-11792244D01*
X15487340Y-11775770D01*
X15490050Y-11758661D01*
X15490050Y-11741339D01*
X15487340Y-11724230D01*
X15481987Y-11707755D01*
X15474123Y-11692321D01*
X15463941Y-11678307D01*
X15451693Y-11666059D01*
X15437679Y-11655877D01*
X15422244Y-11648013D01*
X15405770Y-11642660D01*
X15405770Y-11642660D01*
X15405770Y-11642660D01*
X15392627Y-11640578D01*
X15388661Y-11639950D01*
X15371339Y-11639950D01*
X15367373Y-11640578D01*
X15354230Y-11642660D01*
X15337755Y-11648013D01*
X15322321Y-11655877D01*
X15314326Y-11661686D01*
X15308307Y-11666059D01*
X15308307Y-11666059D01*
X15308307Y-11666059D01*
X15296059Y-11678307D01*
X15296059Y-11678307D01*
X15296059Y-11678307D01*
X15291686Y-11684326D01*
X15285877Y-11692321D01*
X15278013Y-11707755D01*
X15272660Y-11724230D01*
X15269950Y-11741339D01*
X14476262Y-11741339D01*
X14210137Y-11475213D01*
X15559950Y-11475213D01*
X15559950Y-11764787D01*
X15559950Y-11764788D01*
X15560591Y-11770748D01*
X15565620Y-11784233D01*
X15565621Y-11784233D01*
X15574245Y-11795754D01*
X15574245Y-11795755D01*
X15585766Y-11804379D01*
X15585767Y-11804380D01*
X15599252Y-11809409D01*
X15599252Y-11809409D01*
X15599944Y-11809483D01*
X15605213Y-11810050D01*
X15894787Y-11810050D01*
X15900748Y-11809409D01*
X15914233Y-11804380D01*
X15925755Y-11795755D01*
X15934380Y-11784233D01*
X15939409Y-11770748D01*
X15940050Y-11764787D01*
X15940050Y-11475213D01*
X15939409Y-11469252D01*
X15934380Y-11455767D01*
X15934379Y-11455767D01*
X15934379Y-11455766D01*
X15925755Y-11444245D01*
X15925754Y-11444245D01*
X15914233Y-11435621D01*
X15914233Y-11435620D01*
X15900748Y-11430591D01*
X15900748Y-11430591D01*
X15894788Y-11429950D01*
X15894788Y-11429950D01*
X15894787Y-11429950D01*
X15894786Y-11429950D01*
X15605213Y-11429950D01*
X15605212Y-11429950D01*
X15599252Y-11430591D01*
X15585767Y-11435620D01*
X15585766Y-11435621D01*
X15574245Y-11444245D01*
X15574245Y-11444245D01*
X15565621Y-11455766D01*
X15565620Y-11455767D01*
X15560591Y-11469252D01*
X15559950Y-11475212D01*
X15559950Y-11475212D01*
X15559950Y-11475213D01*
X14210137Y-11475213D01*
X13374922Y-10639998D01*
X16911700Y-10639998D01*
X16911700Y-10860000D01*
X16911700Y-10860002D01*
X16912750Y-10870280D01*
X16912750Y-10870280D01*
X16918269Y-10886933D01*
X16918269Y-10886933D01*
X16927479Y-10901866D01*
X16939884Y-10914271D01*
X16954817Y-10923481D01*
X16971470Y-10929000D01*
X16981749Y-10930050D01*
X17201751Y-10930050D01*
X17212030Y-10929000D01*
X17228683Y-10923481D01*
X17243616Y-10914271D01*
X17256021Y-10901866D01*
X17265231Y-10886933D01*
X17270750Y-10870280D01*
X17271800Y-10860001D01*
X17271800Y-10639999D01*
X17270750Y-10629720D01*
X17265231Y-10613067D01*
X17256021Y-10598134D01*
X17243616Y-10585729D01*
X17228683Y-10576519D01*
X17212030Y-10571000D01*
X17212030Y-10571000D01*
X17201751Y-10569950D01*
X16981750Y-10569950D01*
X16981748Y-10569950D01*
X16971470Y-10571000D01*
X16971470Y-10571000D01*
X16954817Y-10576519D01*
X16954816Y-10576519D01*
X16939884Y-10585729D01*
X16927479Y-10598134D01*
X16918269Y-10613066D01*
X16918269Y-10613067D01*
X16912750Y-10629720D01*
X16912750Y-10629720D01*
X16912750Y-10629720D01*
X16911700Y-10639998D01*
X13374922Y-10639998D01*
X12973125Y-10238201D01*
X16911750Y-10238201D01*
X16911750Y-10261799D01*
X16914830Y-10285191D01*
X16920937Y-10307984D01*
X16929966Y-10329782D01*
X16929967Y-10329783D01*
X16941764Y-10350217D01*
X16941765Y-10350217D01*
X16948022Y-10358372D01*
X17031646Y-10274749D01*
X17034148Y-10280789D01*
X17041261Y-10291435D01*
X17050315Y-10300489D01*
X17060961Y-10307602D01*
X17067001Y-10310104D01*
X16983378Y-10393728D01*
X16991533Y-10399985D01*
X16991533Y-10399986D01*
X17011967Y-10411783D01*
X17011968Y-10411784D01*
X17033766Y-10420813D01*
X17033766Y-10420813D01*
X17056559Y-10426920D01*
X17079951Y-10430000D01*
X17079953Y-10430000D01*
X17103547Y-10430000D01*
X17103549Y-10430000D01*
X17126941Y-10426920D01*
X17149734Y-10420813D01*
X17171532Y-10411784D01*
X17171533Y-10411783D01*
X17191968Y-10399985D01*
X17200122Y-10393728D01*
X17200122Y-10393728D01*
X17116499Y-10310104D01*
X17122539Y-10307602D01*
X17133185Y-10300489D01*
X17142239Y-10291435D01*
X17149352Y-10280789D01*
X17151854Y-10274749D01*
X17235478Y-10358372D01*
X17235478Y-10358372D01*
X17241735Y-10350218D01*
X17253533Y-10329783D01*
X17253534Y-10329782D01*
X17262563Y-10307984D01*
X17268670Y-10285191D01*
X17271750Y-10261799D01*
X17271750Y-10261797D01*
X17271750Y-10238203D01*
X17271750Y-10238201D01*
X17268670Y-10214809D01*
X17262563Y-10192016D01*
X17253534Y-10170218D01*
X17253533Y-10170217D01*
X17241736Y-10149783D01*
X17241735Y-10149783D01*
X17235478Y-10141628D01*
X17151854Y-10225251D01*
X17149352Y-10219211D01*
X17142239Y-10208565D01*
X17133185Y-10199511D01*
X17122539Y-10192398D01*
X17116499Y-10189896D01*
X17200122Y-10106272D01*
X17191967Y-10100015D01*
X17191967Y-10100014D01*
X17171533Y-10088217D01*
X17171532Y-10088216D01*
X17149734Y-10079187D01*
X17149734Y-10079187D01*
X17126941Y-10073080D01*
X17103549Y-10070000D01*
X17079951Y-10070000D01*
X17056559Y-10073080D01*
X17033766Y-10079187D01*
X17011968Y-10088216D01*
X17011967Y-10088217D01*
X16991533Y-10100014D01*
X16991532Y-10100015D01*
X16983378Y-10106272D01*
X16983378Y-10106272D01*
X17067001Y-10189896D01*
X17060961Y-10192398D01*
X17050315Y-10199511D01*
X17041261Y-10208565D01*
X17034148Y-10219211D01*
X17031646Y-10225251D01*
X16948022Y-10141628D01*
X16948022Y-10141628D01*
X16941765Y-10149782D01*
X16941764Y-10149783D01*
X16929967Y-10170217D01*
X16929966Y-10170218D01*
X16920937Y-10192016D01*
X16914830Y-10214809D01*
X16911750Y-10238201D01*
X12973125Y-10238201D01*
X12946142Y-10211218D01*
X12942793Y-10205086D01*
X12943291Y-10198117D01*
X12947479Y-10192523D01*
X12954025Y-10190082D01*
X12954910Y-10190050D01*
X15892094Y-10190050D01*
X15892094Y-10190050D01*
X15907906Y-10190050D01*
X15907906Y-10190050D01*
X16791333Y-10190050D01*
X16791335Y-10190050D01*
X16792094Y-10190050D01*
X16807905Y-10190050D01*
X16807906Y-10190050D01*
X16823179Y-10185958D01*
X16828190Y-10183064D01*
X16836872Y-10178052D01*
X16848052Y-10166872D01*
X16848052Y-10166871D01*
X16849073Y-10165851D01*
X16849073Y-10165850D01*
X17081242Y-9933682D01*
X17087374Y-9930333D01*
X17090010Y-9930050D01*
X17103550Y-9930050D01*
X17103551Y-9930050D01*
X17126951Y-9926969D01*
X17149749Y-9920861D01*
X17171555Y-9911828D01*
X17191995Y-9900027D01*
X17210720Y-9885659D01*
X17227409Y-9868970D01*
X17241777Y-9850245D01*
X17253578Y-9829805D01*
X17262611Y-9807999D01*
X17268719Y-9785201D01*
X17271800Y-9761801D01*
X17271800Y-9738199D01*
X17268719Y-9714799D01*
X17262611Y-9692001D01*
X17253578Y-9670195D01*
X17253578Y-9670195D01*
X17253578Y-9670194D01*
X17249362Y-9662892D01*
X17241777Y-9649755D01*
X17227409Y-9631030D01*
X17227409Y-9631030D01*
X17210720Y-9614341D01*
X17210720Y-9614341D01*
X17191995Y-9599973D01*
X17191995Y-9599973D01*
X17191995Y-9599973D01*
X17183846Y-9595268D01*
X17171556Y-9588172D01*
X17171555Y-9588171D01*
X17149749Y-9579139D01*
X17126951Y-9573031D01*
X17103552Y-9569950D01*
X17103552Y-9569950D01*
X17103551Y-9569950D01*
X17079949Y-9569950D01*
X17079948Y-9569950D01*
X17079948Y-9569950D01*
X17056549Y-9573031D01*
X17033751Y-9579139D01*
X17011945Y-9588171D01*
X17011944Y-9588172D01*
X16991505Y-9599973D01*
X16972780Y-9614341D01*
X16972780Y-9614341D01*
X16956091Y-9631030D01*
X16956091Y-9631030D01*
X16941723Y-9649755D01*
X16929922Y-9670194D01*
X16929921Y-9670195D01*
X16920889Y-9692001D01*
X16914781Y-9714799D01*
X16911700Y-9738198D01*
X16911700Y-9738200D01*
X16911700Y-9761800D01*
X16911700Y-9761802D01*
X16914781Y-9785201D01*
X16920889Y-9807999D01*
X16929921Y-9829805D01*
X16929922Y-9829806D01*
X16937018Y-9842096D01*
X16941723Y-9850245D01*
X16941723Y-9850245D01*
X16941723Y-9850245D01*
X16956091Y-9868970D01*
X16956091Y-9868970D01*
X16957330Y-9870210D01*
X16960679Y-9876342D01*
X16960181Y-9883311D01*
X16957330Y-9887746D01*
X16778758Y-10066318D01*
X16772626Y-10069667D01*
X16769990Y-10069950D01*
X16074910Y-10069950D01*
X16068206Y-10067982D01*
X16063630Y-10062701D01*
X16062636Y-10055785D01*
X16065538Y-10049430D01*
X16066142Y-10048782D01*
X16771242Y-9343682D01*
X16777374Y-9340333D01*
X16780010Y-9340050D01*
X16994787Y-9340050D01*
X16994787Y-9340050D01*
X17000748Y-9339409D01*
X17014233Y-9334380D01*
X17025755Y-9325755D01*
X17034380Y-9314233D01*
X17039409Y-9300748D01*
X17040050Y-9294787D01*
X17040050Y-9005213D01*
X17039409Y-8999252D01*
X17036710Y-8992016D01*
X17034380Y-8985767D01*
X17034379Y-8985766D01*
X17025755Y-8974246D01*
X17025754Y-8974245D01*
X17014234Y-8965621D01*
X17014233Y-8965620D01*
X17000748Y-8960591D01*
X17000748Y-8960591D01*
X16994788Y-8959950D01*
X16994788Y-8959950D01*
X16994787Y-8959950D01*
X16994786Y-8959950D01*
X16765213Y-8959950D01*
X16765212Y-8959950D01*
X16759252Y-8960591D01*
X16745767Y-8965620D01*
X16745766Y-8965621D01*
X16734245Y-8974245D01*
X16734245Y-8974246D01*
X16725621Y-8985766D01*
X16725620Y-8985767D01*
X16720591Y-8999252D01*
X16719950Y-9005212D01*
X16719950Y-9005212D01*
X16719950Y-9005214D01*
X16719950Y-9219990D01*
X16717981Y-9226694D01*
X16716318Y-9228758D01*
X15878758Y-10066318D01*
X15872626Y-10069667D01*
X15869990Y-10069950D01*
X12787906Y-10069950D01*
X12787906Y-10069950D01*
X12772094Y-10069950D01*
X12772094Y-10069950D01*
X12102515Y-10069950D01*
X12102513Y-10069950D01*
X12101753Y-10069950D01*
X12085942Y-10069950D01*
X12085182Y-10069950D01*
X12085181Y-10069950D01*
X11844910Y-10069950D01*
X11838206Y-10067982D01*
X11833630Y-10062701D01*
X11832636Y-10055785D01*
X11835538Y-10049430D01*
X11836141Y-10048782D01*
X12346725Y-9538198D01*
X13113585Y-8771339D01*
X16159950Y-8771339D01*
X16159950Y-8788661D01*
X16162660Y-8805770D01*
X16168013Y-8822245D01*
X16175877Y-8837679D01*
X16186059Y-8851693D01*
X16198307Y-8863941D01*
X16212321Y-8874123D01*
X16227755Y-8881987D01*
X16244230Y-8887340D01*
X16261339Y-8890050D01*
X16261339Y-8890050D01*
X16278661Y-8890050D01*
X16278661Y-8890050D01*
X16295770Y-8887340D01*
X16312244Y-8881987D01*
X16327679Y-8874123D01*
X16341693Y-8863941D01*
X16353941Y-8851693D01*
X16364123Y-8837679D01*
X16371987Y-8822245D01*
X16377340Y-8805770D01*
X16380050Y-8788661D01*
X16380050Y-8771339D01*
X16859950Y-8771339D01*
X16859950Y-8788661D01*
X16862660Y-8805770D01*
X16868013Y-8822245D01*
X16875877Y-8837679D01*
X16886059Y-8851693D01*
X16898307Y-8863941D01*
X16912321Y-8874123D01*
X16927756Y-8881987D01*
X16944230Y-8887340D01*
X16961339Y-8890050D01*
X16961339Y-8890050D01*
X16978661Y-8890050D01*
X16978661Y-8890050D01*
X16995770Y-8887340D01*
X17012245Y-8881987D01*
X17027679Y-8874123D01*
X17041693Y-8863941D01*
X17053941Y-8851693D01*
X17064123Y-8837679D01*
X17071987Y-8822245D01*
X17077340Y-8805770D01*
X17080050Y-8788661D01*
X17080050Y-8771339D01*
X17077340Y-8754230D01*
X17071987Y-8737756D01*
X17064123Y-8722321D01*
X17053941Y-8708307D01*
X17041693Y-8696059D01*
X17027679Y-8685877D01*
X17012245Y-8678013D01*
X16995770Y-8672660D01*
X16995770Y-8672660D01*
X16995770Y-8672660D01*
X16980742Y-8670280D01*
X16978661Y-8669950D01*
X16961339Y-8669950D01*
X16959258Y-8670280D01*
X16944230Y-8672660D01*
X16927755Y-8678013D01*
X16912321Y-8685877D01*
X16910867Y-8686934D01*
X16898307Y-8696059D01*
X16898307Y-8696059D01*
X16898307Y-8696059D01*
X16886059Y-8708307D01*
X16886059Y-8708307D01*
X16886059Y-8708307D01*
X16881726Y-8714271D01*
X16875877Y-8722321D01*
X16868013Y-8737755D01*
X16862660Y-8754230D01*
X16861416Y-8762084D01*
X16859950Y-8771339D01*
X16380050Y-8771339D01*
X16377340Y-8754230D01*
X16371987Y-8737756D01*
X16364123Y-8722321D01*
X16353941Y-8708307D01*
X16341693Y-8696059D01*
X16327679Y-8685877D01*
X16312244Y-8678013D01*
X16295770Y-8672660D01*
X16295770Y-8672660D01*
X16295770Y-8672660D01*
X16280742Y-8670280D01*
X16278661Y-8669950D01*
X16261339Y-8669950D01*
X16259258Y-8670280D01*
X16244230Y-8672660D01*
X16227755Y-8678013D01*
X16212321Y-8685877D01*
X16210867Y-8686934D01*
X16198307Y-8696059D01*
X16198307Y-8696059D01*
X16198307Y-8696059D01*
X16186059Y-8708307D01*
X16186059Y-8708307D01*
X16186059Y-8708307D01*
X16181726Y-8714271D01*
X16175877Y-8722321D01*
X16168013Y-8737755D01*
X16162660Y-8754230D01*
X16161416Y-8762084D01*
X16159950Y-8771339D01*
X13113585Y-8771339D01*
X13619710Y-8265213D01*
X15949950Y-8265213D01*
X15949950Y-8554787D01*
X15949950Y-8554788D01*
X15950591Y-8560748D01*
X15955620Y-8574233D01*
X15955621Y-8574234D01*
X15964245Y-8585754D01*
X15964245Y-8585755D01*
X15975766Y-8594379D01*
X15975767Y-8594380D01*
X15989252Y-8599409D01*
X15989252Y-8599409D01*
X15989944Y-8599484D01*
X15995213Y-8600050D01*
X16284787Y-8600050D01*
X16290748Y-8599409D01*
X16304233Y-8594380D01*
X16315755Y-8585755D01*
X16324380Y-8574233D01*
X16329409Y-8560748D01*
X16330050Y-8554787D01*
X16330050Y-8554784D01*
X16920000Y-8554784D01*
X16920640Y-8560737D01*
X16920640Y-8560738D01*
X16925665Y-8574209D01*
X16925665Y-8574209D01*
X16934281Y-8585719D01*
X16934281Y-8585719D01*
X16945791Y-8594335D01*
X16945791Y-8594335D01*
X16959262Y-8599360D01*
X16959263Y-8599360D01*
X16965216Y-8600000D01*
X16965217Y-8600000D01*
X17055000Y-8600000D01*
X17105000Y-8600000D01*
X17194783Y-8600000D01*
X17194784Y-8600000D01*
X17200737Y-8599360D01*
X17200738Y-8599360D01*
X17214209Y-8594335D01*
X17214209Y-8594335D01*
X17225719Y-8585719D01*
X17225719Y-8585719D01*
X17234335Y-8574209D01*
X17234335Y-8574209D01*
X17239360Y-8560738D01*
X17239360Y-8560737D01*
X17240000Y-8554784D01*
X17240000Y-8554783D01*
X17240000Y-8435000D01*
X17105000Y-8435000D01*
X17105000Y-8600000D01*
X17055000Y-8600000D01*
X17055000Y-8435000D01*
X16920000Y-8435000D01*
X16920000Y-8554784D01*
X16330050Y-8554784D01*
X16330050Y-8398134D01*
X16330050Y-8265215D01*
X16920000Y-8265215D01*
X16920000Y-8385000D01*
X17055000Y-8385000D01*
X17105000Y-8385000D01*
X17240000Y-8385000D01*
X17240000Y-8265217D01*
X17240000Y-8265215D01*
X17239360Y-8259263D01*
X17239360Y-8259262D01*
X17234335Y-8245791D01*
X17234335Y-8245791D01*
X17225719Y-8234281D01*
X17225719Y-8234281D01*
X17214209Y-8225665D01*
X17214209Y-8225664D01*
X17200738Y-8220640D01*
X17200737Y-8220640D01*
X17194784Y-8220000D01*
X17105000Y-8220000D01*
X17105000Y-8385000D01*
X17055000Y-8385000D01*
X17055000Y-8220000D01*
X16965216Y-8220000D01*
X16959263Y-8220640D01*
X16959262Y-8220640D01*
X16945791Y-8225664D01*
X16945791Y-8225665D01*
X16934281Y-8234281D01*
X16934281Y-8234281D01*
X16925665Y-8245791D01*
X16925665Y-8245791D01*
X16920640Y-8259262D01*
X16920640Y-8259263D01*
X16920000Y-8265215D01*
X16330050Y-8265215D01*
X16330050Y-8265213D01*
X16330050Y-8265212D01*
X16330050Y-8265212D01*
X16329409Y-8259252D01*
X16324388Y-8245791D01*
X16324380Y-8245767D01*
X16324379Y-8245766D01*
X16315755Y-8234245D01*
X16315754Y-8234245D01*
X16304233Y-8225621D01*
X16304233Y-8225620D01*
X16290748Y-8220591D01*
X16290748Y-8220591D01*
X16284788Y-8219950D01*
X16284788Y-8219950D01*
X16284787Y-8219950D01*
X16284786Y-8219950D01*
X15995213Y-8219950D01*
X15995212Y-8219950D01*
X15989252Y-8220591D01*
X15975767Y-8225620D01*
X15975766Y-8225621D01*
X15964245Y-8234245D01*
X15964245Y-8234245D01*
X15955621Y-8245766D01*
X15955620Y-8245767D01*
X15950591Y-8259252D01*
X15949950Y-8265212D01*
X15949950Y-8265212D01*
X15949950Y-8265213D01*
X13619710Y-8265213D01*
X13898052Y-7986872D01*
X13898052Y-7986871D01*
X13899072Y-7985851D01*
X13899073Y-7985851D01*
X14466871Y-7418052D01*
X14466872Y-7418052D01*
X14478052Y-7406872D01*
X14483064Y-7398190D01*
X14485958Y-7393178D01*
X14490050Y-7377906D01*
X14490050Y-7362094D01*
X14490050Y-7141546D01*
X14492018Y-7134843D01*
X14497299Y-7130267D01*
X14497705Y-7130090D01*
X14509804Y-7125079D01*
X14509804Y-7125079D01*
X14509805Y-7125078D01*
X14530245Y-7113277D01*
X14548970Y-7098909D01*
X14548970Y-7098909D01*
X14554465Y-7093414D01*
X14565659Y-7082220D01*
X14565659Y-7082220D01*
X14580027Y-7063495D01*
X14591828Y-7043055D01*
X14600861Y-7021249D01*
X14606969Y-6998451D01*
X14610050Y-6975051D01*
X14610050Y-6951451D01*
X14750000Y-6951451D01*
X14750000Y-6975048D01*
X14753080Y-6998441D01*
X14759187Y-7021234D01*
X14768216Y-7043032D01*
X14768216Y-7043033D01*
X14780014Y-7063467D01*
X14780014Y-7063467D01*
X14786272Y-7071622D01*
X14869896Y-6987999D01*
X14872398Y-6994039D01*
X14879511Y-7004685D01*
X14888565Y-7013739D01*
X14899211Y-7020852D01*
X14905251Y-7023354D01*
X14821627Y-7106978D01*
X14829783Y-7113235D01*
X14829783Y-7113235D01*
X14850217Y-7125033D01*
X14850218Y-7125034D01*
X14872016Y-7134063D01*
X14872016Y-7134063D01*
X14894808Y-7140170D01*
X14918201Y-7143250D01*
X14918203Y-7143250D01*
X14941797Y-7143250D01*
X14941798Y-7143250D01*
X14965191Y-7140170D01*
X14987984Y-7134063D01*
X15009782Y-7125034D01*
X15009783Y-7125033D01*
X15030218Y-7113235D01*
X15038372Y-7106978D01*
X15038372Y-7106978D01*
X14954749Y-7023354D01*
X14960789Y-7020852D01*
X14971435Y-7013739D01*
X14980489Y-7004685D01*
X14987602Y-6994039D01*
X14990104Y-6987999D01*
X15073728Y-7071622D01*
X15073728Y-7071622D01*
X15079985Y-7063468D01*
X15091783Y-7043033D01*
X15091784Y-7043032D01*
X15100813Y-7021234D01*
X15106920Y-6998441D01*
X15110000Y-6975048D01*
X15110000Y-6975047D01*
X15110000Y-6951453D01*
X15110000Y-6951451D01*
X15106920Y-6928058D01*
X15100813Y-6905266D01*
X15091784Y-6883468D01*
X15091783Y-6883467D01*
X15079985Y-6863033D01*
X15079985Y-6863032D01*
X15078029Y-6860482D01*
X15078028Y-6860482D01*
X15073728Y-6854877D01*
X14990104Y-6938501D01*
X14987602Y-6932461D01*
X14980489Y-6921815D01*
X14971435Y-6912761D01*
X14960789Y-6905648D01*
X14954749Y-6903146D01*
X15004646Y-6853248D01*
X15249950Y-6853248D01*
X15249950Y-7073250D01*
X15249950Y-7073252D01*
X15251000Y-7083530D01*
X15251000Y-7083530D01*
X15256096Y-7098909D01*
X15256519Y-7100183D01*
X15265729Y-7115116D01*
X15278134Y-7127521D01*
X15293067Y-7136731D01*
X15309720Y-7142250D01*
X15319999Y-7143300D01*
X15540001Y-7143300D01*
X15550280Y-7142250D01*
X15566933Y-7136731D01*
X15581866Y-7127521D01*
X15594271Y-7115116D01*
X15603481Y-7100183D01*
X15609000Y-7083530D01*
X15610050Y-7073251D01*
X15610050Y-6853249D01*
X15609000Y-6842970D01*
X15603481Y-6826317D01*
X15594271Y-6811384D01*
X15581866Y-6798979D01*
X15566933Y-6789769D01*
X15550280Y-6784250D01*
X15550279Y-6784250D01*
X15540001Y-6783200D01*
X15320000Y-6783200D01*
X15319998Y-6783200D01*
X15309720Y-6784250D01*
X15309720Y-6784250D01*
X15293067Y-6789768D01*
X15293066Y-6789769D01*
X15278134Y-6798979D01*
X15265729Y-6811384D01*
X15256519Y-6826316D01*
X15256518Y-6826317D01*
X15256096Y-6827591D01*
X15251000Y-6842970D01*
X15251000Y-6842970D01*
X15251000Y-6842970D01*
X15249950Y-6853248D01*
X15004646Y-6853248D01*
X15038372Y-6819522D01*
X15030217Y-6813264D01*
X15030217Y-6813264D01*
X15009783Y-6801466D01*
X15009782Y-6801466D01*
X14987984Y-6792437D01*
X14987984Y-6792437D01*
X14965191Y-6786330D01*
X14941798Y-6783250D01*
X14918201Y-6783250D01*
X14894808Y-6786330D01*
X14872016Y-6792437D01*
X14850218Y-6801466D01*
X14850217Y-6801466D01*
X14829783Y-6813264D01*
X14829782Y-6813265D01*
X14821627Y-6819522D01*
X14821627Y-6819522D01*
X14905251Y-6903146D01*
X14899211Y-6905648D01*
X14888565Y-6912761D01*
X14879511Y-6921815D01*
X14872398Y-6932461D01*
X14869896Y-6938501D01*
X14786272Y-6854877D01*
X14786272Y-6854877D01*
X14780015Y-6863032D01*
X14780014Y-6863033D01*
X14768216Y-6883467D01*
X14768216Y-6883468D01*
X14759187Y-6905266D01*
X14753080Y-6928058D01*
X14750000Y-6951451D01*
X14610050Y-6951451D01*
X14610050Y-6951449D01*
X14606969Y-6928049D01*
X14600861Y-6905251D01*
X14591828Y-6883445D01*
X14591828Y-6883445D01*
X14591828Y-6883444D01*
X14587612Y-6876142D01*
X14580027Y-6863005D01*
X14565659Y-6844280D01*
X14565659Y-6844279D01*
X14548970Y-6827591D01*
X14548970Y-6827591D01*
X14530245Y-6813223D01*
X14530245Y-6813223D01*
X14530245Y-6813223D01*
X14522096Y-6808518D01*
X14509806Y-6801422D01*
X14509804Y-6801421D01*
X14487999Y-6792389D01*
X14465201Y-6786281D01*
X14441802Y-6783200D01*
X14441802Y-6783200D01*
X14441801Y-6783200D01*
X14418199Y-6783200D01*
X14418198Y-6783200D01*
X14418198Y-6783200D01*
X14394799Y-6786281D01*
X14372001Y-6792389D01*
X14350195Y-6801421D01*
X14350194Y-6801422D01*
X14329754Y-6813223D01*
X14311030Y-6827591D01*
X14311029Y-6827591D01*
X14294341Y-6844279D01*
X14294341Y-6844280D01*
X14279973Y-6863004D01*
X14279973Y-6863005D01*
X14279973Y-6863005D01*
X14279201Y-6864341D01*
X14268172Y-6883444D01*
X14268171Y-6883445D01*
X14259139Y-6905251D01*
X14253031Y-6928049D01*
X14249950Y-6951448D01*
X14249950Y-6951449D01*
X14249950Y-6975050D01*
X14249950Y-6975052D01*
X14253031Y-6998451D01*
X14259139Y-7021249D01*
X14268171Y-7043054D01*
X14268172Y-7043056D01*
X14274944Y-7054784D01*
X14279973Y-7063495D01*
X14279973Y-7063495D01*
X14279973Y-7063495D01*
X14294341Y-7082220D01*
X14294341Y-7082220D01*
X14311029Y-7098909D01*
X14311030Y-7098909D01*
X14322031Y-7107350D01*
X14329755Y-7113277D01*
X14350195Y-7125078D01*
X14350196Y-7125079D01*
X14350196Y-7125079D01*
X14362295Y-7130090D01*
X14367736Y-7134474D01*
X14369942Y-7141104D01*
X14369950Y-7141546D01*
X14369950Y-7339990D01*
X14367981Y-7346694D01*
X14366318Y-7348758D01*
X13931218Y-7783858D01*
X13925086Y-7787207D01*
X13918117Y-7786708D01*
X13912523Y-7782521D01*
X13910082Y-7775975D01*
X13910050Y-7775090D01*
X13910050Y-7312450D01*
X13912018Y-7305746D01*
X13917299Y-7301170D01*
X13922450Y-7300050D01*
X13994787Y-7300050D01*
X13994787Y-7300050D01*
X14000748Y-7299409D01*
X14014233Y-7294380D01*
X14025755Y-7285755D01*
X14034380Y-7274233D01*
X14039409Y-7260748D01*
X14040050Y-7254787D01*
X14040050Y-7025213D01*
X14039409Y-7019252D01*
X14037353Y-7013739D01*
X14034380Y-7005767D01*
X14034379Y-7005766D01*
X14025755Y-6994245D01*
X14025754Y-6994245D01*
X14014233Y-6985621D01*
X14014233Y-6985620D01*
X14000748Y-6980591D01*
X14000748Y-6980591D01*
X13994788Y-6979950D01*
X13994788Y-6979950D01*
X13994787Y-6979950D01*
X13994786Y-6979950D01*
X13705213Y-6979950D01*
X13705212Y-6979950D01*
X13699252Y-6980591D01*
X13685767Y-6985620D01*
X13685766Y-6985621D01*
X13674245Y-6994245D01*
X13674245Y-6994245D01*
X13665621Y-7005766D01*
X13665620Y-7005767D01*
X13660591Y-7019252D01*
X13660056Y-7024230D01*
X13659950Y-7025212D01*
X13659950Y-7025213D01*
X13659950Y-7254787D01*
X13659950Y-7254788D01*
X13660591Y-7260748D01*
X13665620Y-7274233D01*
X13665621Y-7274233D01*
X13674245Y-7285754D01*
X13674245Y-7285755D01*
X13685766Y-7294379D01*
X13685767Y-7294380D01*
X13699252Y-7299409D01*
X13699252Y-7299409D01*
X13699944Y-7299483D01*
X13705213Y-7300050D01*
X13777550Y-7300050D01*
X13784254Y-7302018D01*
X13788829Y-7307299D01*
X13789950Y-7312450D01*
X13789950Y-7919990D01*
X13787981Y-7926694D01*
X13786318Y-7928758D01*
X11778758Y-9936318D01*
X11772626Y-9939667D01*
X11769990Y-9939950D01*
X11742450Y-9939950D01*
X11735746Y-9937982D01*
X11731171Y-9932701D01*
X11730050Y-9927550D01*
X11730050Y-9832095D01*
X11730050Y-9832094D01*
X11725958Y-9816822D01*
X11720864Y-9807999D01*
X11718052Y-9803129D01*
X11718052Y-9803129D01*
X11718052Y-9803128D01*
X11706872Y-9791948D01*
X11706871Y-9791948D01*
X11706438Y-9791515D01*
X11706437Y-9791514D01*
X11615169Y-9700246D01*
X11611821Y-9694114D01*
X11612319Y-9687144D01*
X11615169Y-9682710D01*
X11628909Y-9668970D01*
X11643277Y-9650245D01*
X11655078Y-9629805D01*
X11664111Y-9607999D01*
X11670219Y-9585201D01*
X11673300Y-9561801D01*
X11673300Y-9538199D01*
X11670219Y-9514799D01*
X11664111Y-9492001D01*
X11655078Y-9470195D01*
X11655078Y-9470195D01*
X11655078Y-9470194D01*
X11650862Y-9462892D01*
X11643277Y-9449755D01*
X11628909Y-9431030D01*
X11628909Y-9431030D01*
X11612220Y-9414341D01*
X11612220Y-9414341D01*
X11593495Y-9399973D01*
X11593495Y-9399973D01*
X11593495Y-9399973D01*
X11585346Y-9395268D01*
X11573056Y-9388172D01*
X11573054Y-9388171D01*
X11551249Y-9379139D01*
X11528451Y-9373031D01*
X11505052Y-9369950D01*
X11505052Y-9369950D01*
X11505051Y-9369950D01*
X11481449Y-9369950D01*
X11481448Y-9369950D01*
X11481448Y-9369950D01*
X11458049Y-9373031D01*
X11435251Y-9379139D01*
X11413445Y-9388171D01*
X11413444Y-9388172D01*
X11393004Y-9399973D01*
X11374280Y-9414341D01*
X11374279Y-9414341D01*
X11357591Y-9431030D01*
X11357591Y-9431030D01*
X11343223Y-9449755D01*
X11331422Y-9470194D01*
X11331421Y-9470195D01*
X11322389Y-9492001D01*
X11316281Y-9514799D01*
X11313200Y-9538198D01*
X11313200Y-9538199D01*
X10880050Y-9538199D01*
X10880050Y-9038201D01*
X11313250Y-9038201D01*
X11313250Y-9061799D01*
X11316330Y-9085191D01*
X11322437Y-9107984D01*
X11331466Y-9129782D01*
X11331466Y-9129783D01*
X11343264Y-9150217D01*
X11343264Y-9150217D01*
X11349522Y-9158372D01*
X11433146Y-9074749D01*
X11435648Y-9080789D01*
X11442761Y-9091435D01*
X11451815Y-9100489D01*
X11462461Y-9107602D01*
X11468501Y-9110104D01*
X11384877Y-9193728D01*
X11393033Y-9199985D01*
X11393033Y-9199986D01*
X11413467Y-9211783D01*
X11413468Y-9211784D01*
X11435266Y-9220813D01*
X11435266Y-9220813D01*
X11458058Y-9226920D01*
X11481451Y-9230000D01*
X11481453Y-9230000D01*
X11505047Y-9230000D01*
X11505048Y-9230000D01*
X11528441Y-9226920D01*
X11551234Y-9220813D01*
X11573032Y-9211784D01*
X11573033Y-9211783D01*
X11593468Y-9199985D01*
X11601622Y-9193728D01*
X11601622Y-9193728D01*
X11517999Y-9110104D01*
X11524039Y-9107602D01*
X11534685Y-9100489D01*
X11543739Y-9091435D01*
X11550852Y-9080789D01*
X11553354Y-9074749D01*
X11636978Y-9158372D01*
X11636978Y-9158372D01*
X11643235Y-9150218D01*
X11655033Y-9129783D01*
X11655034Y-9129782D01*
X11664063Y-9107984D01*
X11670170Y-9085191D01*
X11673250Y-9061799D01*
X11673250Y-9061797D01*
X11673250Y-9038203D01*
X11673250Y-9038201D01*
X11670170Y-9014809D01*
X11664063Y-8992016D01*
X11655034Y-8970218D01*
X11655033Y-8970217D01*
X11643235Y-8949783D01*
X11643235Y-8949783D01*
X11636978Y-8941628D01*
X11553354Y-9025251D01*
X11550852Y-9019211D01*
X11543739Y-9008565D01*
X11534685Y-8999511D01*
X11524039Y-8992398D01*
X11517999Y-8989896D01*
X11601622Y-8906272D01*
X11593467Y-8900015D01*
X11593467Y-8900014D01*
X11573033Y-8888217D01*
X11573032Y-8888216D01*
X11551234Y-8879187D01*
X11551234Y-8879187D01*
X11528441Y-8873080D01*
X11505048Y-8870000D01*
X11481451Y-8870000D01*
X11458058Y-8873080D01*
X11435266Y-8879187D01*
X11413468Y-8888216D01*
X11413467Y-8888217D01*
X11393033Y-8900014D01*
X11393032Y-8900015D01*
X11384877Y-8906272D01*
X11384877Y-8906272D01*
X11468501Y-8989896D01*
X11462461Y-8992398D01*
X11451815Y-8999511D01*
X11442761Y-9008565D01*
X11435648Y-9019211D01*
X11433146Y-9025251D01*
X11349522Y-8941628D01*
X11349522Y-8941628D01*
X11343265Y-8949782D01*
X11343264Y-8949783D01*
X11331466Y-8970217D01*
X11331466Y-8970218D01*
X11322437Y-8992016D01*
X11316330Y-9014809D01*
X11313250Y-9038201D01*
X10880050Y-9038201D01*
X10880050Y-8439998D01*
X11313200Y-8439998D01*
X11313200Y-8660000D01*
X11313200Y-8660002D01*
X11314250Y-8670280D01*
X11314250Y-8670280D01*
X11316813Y-8678013D01*
X11319769Y-8686933D01*
X11328979Y-8701866D01*
X11341384Y-8714271D01*
X11356317Y-8723481D01*
X11372970Y-8729000D01*
X11383249Y-8730050D01*
X11603251Y-8730050D01*
X11613530Y-8729000D01*
X11630183Y-8723481D01*
X11645116Y-8714271D01*
X11657521Y-8701866D01*
X11666731Y-8686933D01*
X11672250Y-8670280D01*
X11673300Y-8660001D01*
X11673300Y-8439999D01*
X11672250Y-8429720D01*
X11666731Y-8413067D01*
X11657521Y-8398134D01*
X11645116Y-8385729D01*
X11630183Y-8376519D01*
X11613530Y-8371000D01*
X11613529Y-8371000D01*
X11603251Y-8369950D01*
X11383250Y-8369950D01*
X11383248Y-8369950D01*
X11372970Y-8371000D01*
X11372970Y-8371000D01*
X11356317Y-8376518D01*
X11356316Y-8376519D01*
X11341384Y-8385729D01*
X11328979Y-8398134D01*
X11319769Y-8413066D01*
X11319769Y-8413067D01*
X11314250Y-8429720D01*
X11314250Y-8429720D01*
X11314250Y-8429720D01*
X11313200Y-8439998D01*
X10880050Y-8439998D01*
X10880050Y-7735213D01*
X12919950Y-7735213D01*
X12919950Y-8024787D01*
X12919950Y-8024788D01*
X12920591Y-8030748D01*
X12925620Y-8044233D01*
X12925621Y-8044233D01*
X12934245Y-8055754D01*
X12934245Y-8055755D01*
X12945766Y-8064379D01*
X12945767Y-8064380D01*
X12959252Y-8069409D01*
X12959252Y-8069409D01*
X12959944Y-8069483D01*
X12965213Y-8070050D01*
X13254787Y-8070050D01*
X13260748Y-8069409D01*
X13274233Y-8064380D01*
X13285755Y-8055755D01*
X13294380Y-8044233D01*
X13299409Y-8030748D01*
X13300050Y-8024787D01*
X13300050Y-7741339D01*
X13369950Y-7741339D01*
X13369950Y-7758661D01*
X13372660Y-7775770D01*
X13378013Y-7792244D01*
X13385877Y-7807679D01*
X13396059Y-7821693D01*
X13408307Y-7833941D01*
X13422321Y-7844123D01*
X13437755Y-7851987D01*
X13454230Y-7857340D01*
X13471339Y-7860050D01*
X13471339Y-7860050D01*
X13488661Y-7860050D01*
X13488661Y-7860050D01*
X13505770Y-7857340D01*
X13522244Y-7851987D01*
X13537679Y-7844123D01*
X13551693Y-7833941D01*
X13563941Y-7821693D01*
X13574123Y-7807679D01*
X13581987Y-7792244D01*
X13587340Y-7775770D01*
X13590050Y-7758661D01*
X13590050Y-7741339D01*
X13587340Y-7724230D01*
X13581987Y-7707755D01*
X13574123Y-7692321D01*
X13563941Y-7678307D01*
X13551693Y-7666059D01*
X13537679Y-7655877D01*
X13522244Y-7648013D01*
X13505770Y-7642660D01*
X13505770Y-7642660D01*
X13505770Y-7642660D01*
X13492627Y-7640578D01*
X13488661Y-7639950D01*
X13471339Y-7639950D01*
X13467373Y-7640578D01*
X13454230Y-7642660D01*
X13437755Y-7648013D01*
X13422321Y-7655877D01*
X13414326Y-7661686D01*
X13408307Y-7666059D01*
X13408307Y-7666059D01*
X13408307Y-7666059D01*
X13396059Y-7678307D01*
X13396059Y-7678307D01*
X13396059Y-7678307D01*
X13391686Y-7684326D01*
X13385877Y-7692321D01*
X13378013Y-7707755D01*
X13372660Y-7724230D01*
X13369950Y-7741339D01*
X13300050Y-7741339D01*
X13300050Y-7735213D01*
X13299409Y-7729252D01*
X13294380Y-7715767D01*
X13294379Y-7715767D01*
X13294379Y-7715766D01*
X13285755Y-7704245D01*
X13285754Y-7704245D01*
X13274233Y-7695621D01*
X13274233Y-7695620D01*
X13260748Y-7690591D01*
X13260748Y-7690591D01*
X13254788Y-7689950D01*
X13254788Y-7689950D01*
X13254787Y-7689950D01*
X13254786Y-7689950D01*
X12965213Y-7689950D01*
X12965212Y-7689950D01*
X12959252Y-7690591D01*
X12945767Y-7695620D01*
X12945766Y-7695621D01*
X12934245Y-7704245D01*
X12934245Y-7704245D01*
X12925621Y-7715766D01*
X12925620Y-7715767D01*
X12920591Y-7729252D01*
X12919950Y-7735212D01*
X12919950Y-7735212D01*
X12919950Y-7735213D01*
X10880050Y-7735213D01*
X10880050Y-7054784D01*
X12920000Y-7054784D01*
X12920640Y-7060737D01*
X12920640Y-7060738D01*
X12925664Y-7074209D01*
X12925665Y-7074209D01*
X12934281Y-7085719D01*
X12934281Y-7085719D01*
X12945791Y-7094335D01*
X12945791Y-7094335D01*
X12959262Y-7099360D01*
X12959263Y-7099360D01*
X12965215Y-7100000D01*
X12965217Y-7100000D01*
X13085000Y-7100000D01*
X13135000Y-7100000D01*
X13254783Y-7100000D01*
X13254784Y-7100000D01*
X13260737Y-7099360D01*
X13260738Y-7099360D01*
X13274209Y-7094335D01*
X13274209Y-7094335D01*
X13285719Y-7085719D01*
X13285719Y-7085719D01*
X13294335Y-7074209D01*
X13294335Y-7074209D01*
X13299360Y-7060738D01*
X13299360Y-7060737D01*
X13300000Y-7054784D01*
X13300000Y-7054783D01*
X13300000Y-7041339D01*
X13369950Y-7041339D01*
X13369950Y-7058661D01*
X13372261Y-7073250D01*
X13372660Y-7075770D01*
X13378013Y-7092244D01*
X13385877Y-7107679D01*
X13396059Y-7121693D01*
X13408307Y-7133941D01*
X13422321Y-7144123D01*
X13437755Y-7151987D01*
X13454230Y-7157340D01*
X13471339Y-7160050D01*
X13471339Y-7160050D01*
X13488661Y-7160050D01*
X13488661Y-7160050D01*
X13505770Y-7157340D01*
X13522244Y-7151987D01*
X13537679Y-7144123D01*
X13551693Y-7133941D01*
X13563941Y-7121693D01*
X13574123Y-7107679D01*
X13581987Y-7092244D01*
X13587340Y-7075770D01*
X13590050Y-7058661D01*
X13590050Y-7041339D01*
X13587340Y-7024230D01*
X13581987Y-7007755D01*
X13574123Y-6992321D01*
X13563941Y-6978307D01*
X13551693Y-6966059D01*
X13537679Y-6955877D01*
X13522244Y-6948013D01*
X13505770Y-6942660D01*
X13505770Y-6942660D01*
X13505770Y-6942660D01*
X13492627Y-6940578D01*
X13488661Y-6939950D01*
X13471339Y-6939950D01*
X13467373Y-6940578D01*
X13454230Y-6942660D01*
X13437755Y-6948013D01*
X13422321Y-6955877D01*
X13414326Y-6961686D01*
X13408307Y-6966059D01*
X13408307Y-6966059D01*
X13408307Y-6966059D01*
X13396059Y-6978307D01*
X13396059Y-6978307D01*
X13396059Y-6978307D01*
X13394865Y-6979950D01*
X13385877Y-6992321D01*
X13378013Y-7007755D01*
X13372660Y-7024230D01*
X13369950Y-7041339D01*
X13300000Y-7041339D01*
X13300000Y-6965000D01*
X13135000Y-6965000D01*
X13135000Y-7100000D01*
X13085000Y-7100000D01*
X13085000Y-6965000D01*
X12920000Y-6965000D01*
X12920000Y-7054784D01*
X10880050Y-7054784D01*
X10880050Y-6825215D01*
X12920000Y-6825215D01*
X12920000Y-6915000D01*
X13085000Y-6915000D01*
X13135000Y-6915000D01*
X13300000Y-6915000D01*
X13300000Y-6825217D01*
X13300000Y-6825215D01*
X13299360Y-6819263D01*
X13299360Y-6819262D01*
X13294335Y-6805791D01*
X13294335Y-6805791D01*
X13285719Y-6794281D01*
X13285719Y-6794281D01*
X13274209Y-6785665D01*
X13274209Y-6785664D01*
X13260738Y-6780640D01*
X13260737Y-6780640D01*
X13254784Y-6780000D01*
X13135000Y-6780000D01*
X13135000Y-6915000D01*
X13085000Y-6915000D01*
X13085000Y-6780000D01*
X12965215Y-6780000D01*
X12959263Y-6780640D01*
X12959262Y-6780640D01*
X12945791Y-6785664D01*
X12945791Y-6785665D01*
X12934281Y-6794281D01*
X12934281Y-6794281D01*
X12925665Y-6805791D01*
X12925664Y-6805791D01*
X12920640Y-6819262D01*
X12920640Y-6819263D01*
X12920000Y-6825215D01*
X10880050Y-6825215D01*
X10880050Y-6362450D01*
X10882019Y-6355746D01*
X10887299Y-6351171D01*
X10892450Y-6350050D01*
X17667550Y-6350050D01*
X17674254Y-6352018D01*
G37*
G04 #@! TD.AperFunction*
M02*
