%TF.GenerationSoftware,KiCad,Pcbnew,9.0.3*%
%TF.CreationDate,2025-08-26T17:47:51-07:00*%
%TF.ProjectId,sdi12_breakout,73646931-325f-4627-9265-616b6f75742e,V1*%
%TF.SameCoordinates,Original*%
%TF.FileFunction,Drillmap*%
%TF.FilePolarity,Positive*%
%FSLAX45Y45*%
G04 Gerber Fmt 4.5, Leading zero omitted, Abs format (unit mm)*
G04 Created by KiCad (PCBNEW 9.0.3) date 2025-08-26 17:47:51*
%MOMM*%
%LPD*%
G01*
G04 APERTURE LIST*
%ADD10C,0.050000*%
%ADD11C,0.200000*%
%ADD12C,0.100000*%
%ADD13C,0.130000*%
G04 APERTURE END LIST*
D10*
X1250000Y-1300000D02*
X8150000Y-1300000D01*
X8150000Y-8200000D01*
X1250000Y-8200000D01*
X1250000Y-1300000D01*
D11*
D12*
X2815000Y-5855000D02*
X2845000Y-5885000D01*
X2845000Y-5855000D02*
X2815000Y-5885000D01*
X3515000Y-2865000D02*
X3545000Y-2895000D01*
X3545000Y-2865000D02*
X3515000Y-2895000D01*
X6155000Y-6605000D02*
X6185000Y-6635000D01*
X6185000Y-6605000D02*
X6155000Y-6635000D01*
X6545000Y-3395000D02*
X6575000Y-3425000D01*
X6575000Y-3395000D02*
X6545000Y-3425000D01*
D13*
X1978250Y-3550000D02*
G75*
G02*
X1848250Y-3550000I-65000J0D01*
G01*
X1848250Y-3550000D02*
G75*
G02*
X1978250Y-3550000I65000J0D01*
G01*
X1978250Y-4050000D02*
G75*
G02*
X1848250Y-4050000I-65000J0D01*
G01*
X1848250Y-4050000D02*
G75*
G02*
X1978250Y-4050000I65000J0D01*
G01*
X1978250Y-4550000D02*
G75*
G02*
X1848250Y-4550000I-65000J0D01*
G01*
X1848250Y-4550000D02*
G75*
G02*
X1978250Y-4550000I65000J0D01*
G01*
X3915000Y-7600000D02*
G75*
G02*
X3785000Y-7600000I-65000J0D01*
G01*
X3785000Y-7600000D02*
G75*
G02*
X3915000Y-7600000I65000J0D01*
G01*
X4415000Y-7600000D02*
G75*
G02*
X4285000Y-7600000I-65000J0D01*
G01*
X4285000Y-7600000D02*
G75*
G02*
X4415000Y-7600000I65000J0D01*
G01*
X4915000Y-1963250D02*
G75*
G02*
X4785000Y-1963250I-65000J0D01*
G01*
X4785000Y-1963250D02*
G75*
G02*
X4915000Y-1963250I65000J0D01*
G01*
X4915000Y-7600000D02*
G75*
G02*
X4785000Y-7600000I-65000J0D01*
G01*
X4785000Y-7600000D02*
G75*
G02*
X4915000Y-7600000I65000J0D01*
G01*
X5415000Y-1963250D02*
G75*
G02*
X5285000Y-1963250I-65000J0D01*
G01*
X5285000Y-1963250D02*
G75*
G02*
X5415000Y-1963250I65000J0D01*
G01*
X5915000Y-1963250D02*
G75*
G02*
X5785000Y-1963250I-65000J0D01*
G01*
X5785000Y-1963250D02*
G75*
G02*
X5915000Y-1963250I65000J0D01*
G01*
X7576750Y-4750000D02*
G75*
G02*
X7446750Y-4750000I-65000J0D01*
G01*
X7446750Y-4750000D02*
G75*
G02*
X7576750Y-4750000I65000J0D01*
G01*
X7576750Y-5250000D02*
G75*
G02*
X7446750Y-5250000I-65000J0D01*
G01*
X7446750Y-5250000D02*
G75*
G02*
X7576750Y-5250000I65000J0D01*
G01*
X7576750Y-5750000D02*
G75*
G02*
X7446750Y-5750000I-65000J0D01*
G01*
X7446750Y-5750000D02*
G75*
G02*
X7576750Y-5750000I65000J0D01*
G01*
D11*
X1508277Y-8513984D02*
X1508277Y-8313984D01*
X1508277Y-8313984D02*
X1555896Y-8313984D01*
X1555896Y-8313984D02*
X1584467Y-8323508D01*
X1584467Y-8323508D02*
X1603515Y-8342555D01*
X1603515Y-8342555D02*
X1613039Y-8361603D01*
X1613039Y-8361603D02*
X1622562Y-8399698D01*
X1622562Y-8399698D02*
X1622562Y-8428270D01*
X1622562Y-8428270D02*
X1613039Y-8466365D01*
X1613039Y-8466365D02*
X1603515Y-8485412D01*
X1603515Y-8485412D02*
X1584467Y-8504460D01*
X1584467Y-8504460D02*
X1555896Y-8513984D01*
X1555896Y-8513984D02*
X1508277Y-8513984D01*
X1708277Y-8513984D02*
X1708277Y-8380650D01*
X1708277Y-8418746D02*
X1717801Y-8399698D01*
X1717801Y-8399698D02*
X1727324Y-8390174D01*
X1727324Y-8390174D02*
X1746372Y-8380650D01*
X1746372Y-8380650D02*
X1765420Y-8380650D01*
X1832086Y-8513984D02*
X1832086Y-8380650D01*
X1832086Y-8313984D02*
X1822562Y-8323508D01*
X1822562Y-8323508D02*
X1832086Y-8333031D01*
X1832086Y-8333031D02*
X1841610Y-8323508D01*
X1841610Y-8323508D02*
X1832086Y-8313984D01*
X1832086Y-8313984D02*
X1832086Y-8333031D01*
X1955896Y-8513984D02*
X1936848Y-8504460D01*
X1936848Y-8504460D02*
X1927324Y-8485412D01*
X1927324Y-8485412D02*
X1927324Y-8313984D01*
X2060658Y-8513984D02*
X2041610Y-8504460D01*
X2041610Y-8504460D02*
X2032086Y-8485412D01*
X2032086Y-8485412D02*
X2032086Y-8313984D01*
X2289229Y-8513984D02*
X2289229Y-8313984D01*
X2289229Y-8313984D02*
X2355896Y-8456841D01*
X2355896Y-8456841D02*
X2422563Y-8313984D01*
X2422563Y-8313984D02*
X2422563Y-8513984D01*
X2603515Y-8513984D02*
X2603515Y-8409222D01*
X2603515Y-8409222D02*
X2593991Y-8390174D01*
X2593991Y-8390174D02*
X2574944Y-8380650D01*
X2574944Y-8380650D02*
X2536848Y-8380650D01*
X2536848Y-8380650D02*
X2517801Y-8390174D01*
X2603515Y-8504460D02*
X2584467Y-8513984D01*
X2584467Y-8513984D02*
X2536848Y-8513984D01*
X2536848Y-8513984D02*
X2517801Y-8504460D01*
X2517801Y-8504460D02*
X2508277Y-8485412D01*
X2508277Y-8485412D02*
X2508277Y-8466365D01*
X2508277Y-8466365D02*
X2517801Y-8447317D01*
X2517801Y-8447317D02*
X2536848Y-8437793D01*
X2536848Y-8437793D02*
X2584467Y-8437793D01*
X2584467Y-8437793D02*
X2603515Y-8428270D01*
X2698753Y-8380650D02*
X2698753Y-8580650D01*
X2698753Y-8390174D02*
X2717801Y-8380650D01*
X2717801Y-8380650D02*
X2755896Y-8380650D01*
X2755896Y-8380650D02*
X2774944Y-8390174D01*
X2774944Y-8390174D02*
X2784467Y-8399698D01*
X2784467Y-8399698D02*
X2793991Y-8418746D01*
X2793991Y-8418746D02*
X2793991Y-8475889D01*
X2793991Y-8475889D02*
X2784467Y-8494936D01*
X2784467Y-8494936D02*
X2774944Y-8504460D01*
X2774944Y-8504460D02*
X2755896Y-8513984D01*
X2755896Y-8513984D02*
X2717801Y-8513984D01*
X2717801Y-8513984D02*
X2698753Y-8504460D01*
X2879705Y-8494936D02*
X2889229Y-8504460D01*
X2889229Y-8504460D02*
X2879705Y-8513984D01*
X2879705Y-8513984D02*
X2870182Y-8504460D01*
X2870182Y-8504460D02*
X2879705Y-8494936D01*
X2879705Y-8494936D02*
X2879705Y-8513984D01*
X2879705Y-8390174D02*
X2889229Y-8399698D01*
X2889229Y-8399698D02*
X2879705Y-8409222D01*
X2879705Y-8409222D02*
X2870182Y-8399698D01*
X2870182Y-8399698D02*
X2879705Y-8390174D01*
X2879705Y-8390174D02*
X2879705Y-8409222D01*
D12*
X1217500Y-8827500D02*
X1247500Y-8857500D01*
X1247500Y-8827500D02*
X1217500Y-8857500D01*
D11*
X1546372Y-8733984D02*
X1565420Y-8733984D01*
X1565420Y-8733984D02*
X1584467Y-8743508D01*
X1584467Y-8743508D02*
X1593991Y-8753031D01*
X1593991Y-8753031D02*
X1603515Y-8772079D01*
X1603515Y-8772079D02*
X1613039Y-8810174D01*
X1613039Y-8810174D02*
X1613039Y-8857793D01*
X1613039Y-8857793D02*
X1603515Y-8895889D01*
X1603515Y-8895889D02*
X1593991Y-8914936D01*
X1593991Y-8914936D02*
X1584467Y-8924460D01*
X1584467Y-8924460D02*
X1565420Y-8933984D01*
X1565420Y-8933984D02*
X1546372Y-8933984D01*
X1546372Y-8933984D02*
X1527324Y-8924460D01*
X1527324Y-8924460D02*
X1517801Y-8914936D01*
X1517801Y-8914936D02*
X1508277Y-8895889D01*
X1508277Y-8895889D02*
X1498753Y-8857793D01*
X1498753Y-8857793D02*
X1498753Y-8810174D01*
X1498753Y-8810174D02*
X1508277Y-8772079D01*
X1508277Y-8772079D02*
X1517801Y-8753031D01*
X1517801Y-8753031D02*
X1527324Y-8743508D01*
X1527324Y-8743508D02*
X1546372Y-8733984D01*
X1698753Y-8914936D02*
X1708277Y-8924460D01*
X1708277Y-8924460D02*
X1698753Y-8933984D01*
X1698753Y-8933984D02*
X1689229Y-8924460D01*
X1689229Y-8924460D02*
X1698753Y-8914936D01*
X1698753Y-8914936D02*
X1698753Y-8933984D01*
X1774943Y-8733984D02*
X1898753Y-8733984D01*
X1898753Y-8733984D02*
X1832086Y-8810174D01*
X1832086Y-8810174D02*
X1860658Y-8810174D01*
X1860658Y-8810174D02*
X1879705Y-8819698D01*
X1879705Y-8819698D02*
X1889229Y-8829222D01*
X1889229Y-8829222D02*
X1898753Y-8848270D01*
X1898753Y-8848270D02*
X1898753Y-8895889D01*
X1898753Y-8895889D02*
X1889229Y-8914936D01*
X1889229Y-8914936D02*
X1879705Y-8924460D01*
X1879705Y-8924460D02*
X1860658Y-8933984D01*
X1860658Y-8933984D02*
X1803515Y-8933984D01*
X1803515Y-8933984D02*
X1784467Y-8924460D01*
X1784467Y-8924460D02*
X1774943Y-8914936D01*
X2022562Y-8733984D02*
X2041610Y-8733984D01*
X2041610Y-8733984D02*
X2060658Y-8743508D01*
X2060658Y-8743508D02*
X2070182Y-8753031D01*
X2070182Y-8753031D02*
X2079705Y-8772079D01*
X2079705Y-8772079D02*
X2089229Y-8810174D01*
X2089229Y-8810174D02*
X2089229Y-8857793D01*
X2089229Y-8857793D02*
X2079705Y-8895889D01*
X2079705Y-8895889D02*
X2070182Y-8914936D01*
X2070182Y-8914936D02*
X2060658Y-8924460D01*
X2060658Y-8924460D02*
X2041610Y-8933984D01*
X2041610Y-8933984D02*
X2022562Y-8933984D01*
X2022562Y-8933984D02*
X2003515Y-8924460D01*
X2003515Y-8924460D02*
X1993991Y-8914936D01*
X1993991Y-8914936D02*
X1984467Y-8895889D01*
X1984467Y-8895889D02*
X1974943Y-8857793D01*
X1974943Y-8857793D02*
X1974943Y-8810174D01*
X1974943Y-8810174D02*
X1984467Y-8772079D01*
X1984467Y-8772079D02*
X1993991Y-8753031D01*
X1993991Y-8753031D02*
X2003515Y-8743508D01*
X2003515Y-8743508D02*
X2022562Y-8733984D01*
X2213039Y-8733984D02*
X2232086Y-8733984D01*
X2232086Y-8733984D02*
X2251134Y-8743508D01*
X2251134Y-8743508D02*
X2260658Y-8753031D01*
X2260658Y-8753031D02*
X2270182Y-8772079D01*
X2270182Y-8772079D02*
X2279705Y-8810174D01*
X2279705Y-8810174D02*
X2279705Y-8857793D01*
X2279705Y-8857793D02*
X2270182Y-8895889D01*
X2270182Y-8895889D02*
X2260658Y-8914936D01*
X2260658Y-8914936D02*
X2251134Y-8924460D01*
X2251134Y-8924460D02*
X2232086Y-8933984D01*
X2232086Y-8933984D02*
X2213039Y-8933984D01*
X2213039Y-8933984D02*
X2193991Y-8924460D01*
X2193991Y-8924460D02*
X2184467Y-8914936D01*
X2184467Y-8914936D02*
X2174944Y-8895889D01*
X2174944Y-8895889D02*
X2165420Y-8857793D01*
X2165420Y-8857793D02*
X2165420Y-8810174D01*
X2165420Y-8810174D02*
X2174944Y-8772079D01*
X2174944Y-8772079D02*
X2184467Y-8753031D01*
X2184467Y-8753031D02*
X2193991Y-8743508D01*
X2193991Y-8743508D02*
X2213039Y-8733984D01*
X2365420Y-8933984D02*
X2365420Y-8800650D01*
X2365420Y-8819698D02*
X2374944Y-8810174D01*
X2374944Y-8810174D02*
X2393991Y-8800650D01*
X2393991Y-8800650D02*
X2422563Y-8800650D01*
X2422563Y-8800650D02*
X2441610Y-8810174D01*
X2441610Y-8810174D02*
X2451134Y-8829222D01*
X2451134Y-8829222D02*
X2451134Y-8933984D01*
X2451134Y-8829222D02*
X2460658Y-8810174D01*
X2460658Y-8810174D02*
X2479705Y-8800650D01*
X2479705Y-8800650D02*
X2508277Y-8800650D01*
X2508277Y-8800650D02*
X2527325Y-8810174D01*
X2527325Y-8810174D02*
X2536848Y-8829222D01*
X2536848Y-8829222D02*
X2536848Y-8933984D01*
X2632086Y-8933984D02*
X2632086Y-8800650D01*
X2632086Y-8819698D02*
X2641610Y-8810174D01*
X2641610Y-8810174D02*
X2660658Y-8800650D01*
X2660658Y-8800650D02*
X2689229Y-8800650D01*
X2689229Y-8800650D02*
X2708277Y-8810174D01*
X2708277Y-8810174D02*
X2717801Y-8829222D01*
X2717801Y-8829222D02*
X2717801Y-8933984D01*
X2717801Y-8829222D02*
X2727325Y-8810174D01*
X2727325Y-8810174D02*
X2746372Y-8800650D01*
X2746372Y-8800650D02*
X2774944Y-8800650D01*
X2774944Y-8800650D02*
X2793991Y-8810174D01*
X2793991Y-8810174D02*
X2803515Y-8829222D01*
X2803515Y-8829222D02*
X2803515Y-8933984D01*
X3193991Y-8724460D02*
X3022563Y-8981603D01*
X3451134Y-8733984D02*
X3470182Y-8733984D01*
X3470182Y-8733984D02*
X3489229Y-8743508D01*
X3489229Y-8743508D02*
X3498753Y-8753031D01*
X3498753Y-8753031D02*
X3508277Y-8772079D01*
X3508277Y-8772079D02*
X3517801Y-8810174D01*
X3517801Y-8810174D02*
X3517801Y-8857793D01*
X3517801Y-8857793D02*
X3508277Y-8895889D01*
X3508277Y-8895889D02*
X3498753Y-8914936D01*
X3498753Y-8914936D02*
X3489229Y-8924460D01*
X3489229Y-8924460D02*
X3470182Y-8933984D01*
X3470182Y-8933984D02*
X3451134Y-8933984D01*
X3451134Y-8933984D02*
X3432086Y-8924460D01*
X3432086Y-8924460D02*
X3422563Y-8914936D01*
X3422563Y-8914936D02*
X3413039Y-8895889D01*
X3413039Y-8895889D02*
X3403515Y-8857793D01*
X3403515Y-8857793D02*
X3403515Y-8810174D01*
X3403515Y-8810174D02*
X3413039Y-8772079D01*
X3413039Y-8772079D02*
X3422563Y-8753031D01*
X3422563Y-8753031D02*
X3432086Y-8743508D01*
X3432086Y-8743508D02*
X3451134Y-8733984D01*
X3603515Y-8914936D02*
X3613039Y-8924460D01*
X3613039Y-8924460D02*
X3603515Y-8933984D01*
X3603515Y-8933984D02*
X3593991Y-8924460D01*
X3593991Y-8924460D02*
X3603515Y-8914936D01*
X3603515Y-8914936D02*
X3603515Y-8933984D01*
X3736848Y-8733984D02*
X3755896Y-8733984D01*
X3755896Y-8733984D02*
X3774944Y-8743508D01*
X3774944Y-8743508D02*
X3784467Y-8753031D01*
X3784467Y-8753031D02*
X3793991Y-8772079D01*
X3793991Y-8772079D02*
X3803515Y-8810174D01*
X3803515Y-8810174D02*
X3803515Y-8857793D01*
X3803515Y-8857793D02*
X3793991Y-8895889D01*
X3793991Y-8895889D02*
X3784467Y-8914936D01*
X3784467Y-8914936D02*
X3774944Y-8924460D01*
X3774944Y-8924460D02*
X3755896Y-8933984D01*
X3755896Y-8933984D02*
X3736848Y-8933984D01*
X3736848Y-8933984D02*
X3717801Y-8924460D01*
X3717801Y-8924460D02*
X3708277Y-8914936D01*
X3708277Y-8914936D02*
X3698753Y-8895889D01*
X3698753Y-8895889D02*
X3689229Y-8857793D01*
X3689229Y-8857793D02*
X3689229Y-8810174D01*
X3689229Y-8810174D02*
X3698753Y-8772079D01*
X3698753Y-8772079D02*
X3708277Y-8753031D01*
X3708277Y-8753031D02*
X3717801Y-8743508D01*
X3717801Y-8743508D02*
X3736848Y-8733984D01*
X3993991Y-8933984D02*
X3879706Y-8933984D01*
X3936848Y-8933984D02*
X3936848Y-8733984D01*
X3936848Y-8733984D02*
X3917801Y-8762555D01*
X3917801Y-8762555D02*
X3898753Y-8781603D01*
X3898753Y-8781603D02*
X3879706Y-8791127D01*
X4184467Y-8933984D02*
X4070182Y-8933984D01*
X4127325Y-8933984D02*
X4127325Y-8733984D01*
X4127325Y-8733984D02*
X4108277Y-8762555D01*
X4108277Y-8762555D02*
X4089229Y-8781603D01*
X4089229Y-8781603D02*
X4070182Y-8791127D01*
X4298753Y-8819698D02*
X4279706Y-8810174D01*
X4279706Y-8810174D02*
X4270182Y-8800650D01*
X4270182Y-8800650D02*
X4260658Y-8781603D01*
X4260658Y-8781603D02*
X4260658Y-8772079D01*
X4260658Y-8772079D02*
X4270182Y-8753031D01*
X4270182Y-8753031D02*
X4279706Y-8743508D01*
X4279706Y-8743508D02*
X4298753Y-8733984D01*
X4298753Y-8733984D02*
X4336849Y-8733984D01*
X4336849Y-8733984D02*
X4355896Y-8743508D01*
X4355896Y-8743508D02*
X4365420Y-8753031D01*
X4365420Y-8753031D02*
X4374944Y-8772079D01*
X4374944Y-8772079D02*
X4374944Y-8781603D01*
X4374944Y-8781603D02*
X4365420Y-8800650D01*
X4365420Y-8800650D02*
X4355896Y-8810174D01*
X4355896Y-8810174D02*
X4336849Y-8819698D01*
X4336849Y-8819698D02*
X4298753Y-8819698D01*
X4298753Y-8819698D02*
X4279706Y-8829222D01*
X4279706Y-8829222D02*
X4270182Y-8838746D01*
X4270182Y-8838746D02*
X4260658Y-8857793D01*
X4260658Y-8857793D02*
X4260658Y-8895889D01*
X4260658Y-8895889D02*
X4270182Y-8914936D01*
X4270182Y-8914936D02*
X4279706Y-8924460D01*
X4279706Y-8924460D02*
X4298753Y-8933984D01*
X4298753Y-8933984D02*
X4336849Y-8933984D01*
X4336849Y-8933984D02*
X4355896Y-8924460D01*
X4355896Y-8924460D02*
X4365420Y-8914936D01*
X4365420Y-8914936D02*
X4374944Y-8895889D01*
X4374944Y-8895889D02*
X4374944Y-8857793D01*
X4374944Y-8857793D02*
X4365420Y-8838746D01*
X4365420Y-8838746D02*
X4355896Y-8829222D01*
X4355896Y-8829222D02*
X4336849Y-8819698D01*
X4451134Y-8733984D02*
X4451134Y-8772079D01*
X4527325Y-8733984D02*
X4527325Y-8772079D01*
X4822563Y-9010174D02*
X4813039Y-9000650D01*
X4813039Y-9000650D02*
X4793991Y-8972079D01*
X4793991Y-8972079D02*
X4784468Y-8953031D01*
X4784468Y-8953031D02*
X4774944Y-8924460D01*
X4774944Y-8924460D02*
X4765420Y-8876841D01*
X4765420Y-8876841D02*
X4765420Y-8838746D01*
X4765420Y-8838746D02*
X4774944Y-8791127D01*
X4774944Y-8791127D02*
X4784468Y-8762555D01*
X4784468Y-8762555D02*
X4793991Y-8743508D01*
X4793991Y-8743508D02*
X4813039Y-8714936D01*
X4813039Y-8714936D02*
X4822563Y-8705412D01*
X4984468Y-8800650D02*
X4984468Y-8933984D01*
X4936849Y-8724460D02*
X4889230Y-8867317D01*
X4889230Y-8867317D02*
X5013039Y-8867317D01*
X5241611Y-8933984D02*
X5241611Y-8733984D01*
X5327325Y-8933984D02*
X5327325Y-8829222D01*
X5327325Y-8829222D02*
X5317801Y-8810174D01*
X5317801Y-8810174D02*
X5298753Y-8800650D01*
X5298753Y-8800650D02*
X5270182Y-8800650D01*
X5270182Y-8800650D02*
X5251134Y-8810174D01*
X5251134Y-8810174D02*
X5241611Y-8819698D01*
X5451134Y-8933984D02*
X5432087Y-8924460D01*
X5432087Y-8924460D02*
X5422563Y-8914936D01*
X5422563Y-8914936D02*
X5413039Y-8895889D01*
X5413039Y-8895889D02*
X5413039Y-8838746D01*
X5413039Y-8838746D02*
X5422563Y-8819698D01*
X5422563Y-8819698D02*
X5432087Y-8810174D01*
X5432087Y-8810174D02*
X5451134Y-8800650D01*
X5451134Y-8800650D02*
X5479706Y-8800650D01*
X5479706Y-8800650D02*
X5498753Y-8810174D01*
X5498753Y-8810174D02*
X5508277Y-8819698D01*
X5508277Y-8819698D02*
X5517801Y-8838746D01*
X5517801Y-8838746D02*
X5517801Y-8895889D01*
X5517801Y-8895889D02*
X5508277Y-8914936D01*
X5508277Y-8914936D02*
X5498753Y-8924460D01*
X5498753Y-8924460D02*
X5479706Y-8933984D01*
X5479706Y-8933984D02*
X5451134Y-8933984D01*
X5632087Y-8933984D02*
X5613039Y-8924460D01*
X5613039Y-8924460D02*
X5603515Y-8905412D01*
X5603515Y-8905412D02*
X5603515Y-8733984D01*
X5784468Y-8924460D02*
X5765420Y-8933984D01*
X5765420Y-8933984D02*
X5727325Y-8933984D01*
X5727325Y-8933984D02*
X5708277Y-8924460D01*
X5708277Y-8924460D02*
X5698753Y-8905412D01*
X5698753Y-8905412D02*
X5698753Y-8829222D01*
X5698753Y-8829222D02*
X5708277Y-8810174D01*
X5708277Y-8810174D02*
X5727325Y-8800650D01*
X5727325Y-8800650D02*
X5765420Y-8800650D01*
X5765420Y-8800650D02*
X5784468Y-8810174D01*
X5784468Y-8810174D02*
X5793991Y-8829222D01*
X5793991Y-8829222D02*
X5793991Y-8848270D01*
X5793991Y-8848270D02*
X5698753Y-8867317D01*
X5870182Y-8924460D02*
X5889230Y-8933984D01*
X5889230Y-8933984D02*
X5927325Y-8933984D01*
X5927325Y-8933984D02*
X5946372Y-8924460D01*
X5946372Y-8924460D02*
X5955896Y-8905412D01*
X5955896Y-8905412D02*
X5955896Y-8895889D01*
X5955896Y-8895889D02*
X5946372Y-8876841D01*
X5946372Y-8876841D02*
X5927325Y-8867317D01*
X5927325Y-8867317D02*
X5898753Y-8867317D01*
X5898753Y-8867317D02*
X5879706Y-8857793D01*
X5879706Y-8857793D02*
X5870182Y-8838746D01*
X5870182Y-8838746D02*
X5870182Y-8829222D01*
X5870182Y-8829222D02*
X5879706Y-8810174D01*
X5879706Y-8810174D02*
X5898753Y-8800650D01*
X5898753Y-8800650D02*
X5927325Y-8800650D01*
X5927325Y-8800650D02*
X5946372Y-8810174D01*
X6022563Y-9010174D02*
X6032087Y-9000650D01*
X6032087Y-9000650D02*
X6051134Y-8972079D01*
X6051134Y-8972079D02*
X6060658Y-8953031D01*
X6060658Y-8953031D02*
X6070182Y-8924460D01*
X6070182Y-8924460D02*
X6079706Y-8876841D01*
X6079706Y-8876841D02*
X6079706Y-8838746D01*
X6079706Y-8838746D02*
X6070182Y-8791127D01*
X6070182Y-8791127D02*
X6060658Y-8762555D01*
X6060658Y-8762555D02*
X6051134Y-8743508D01*
X6051134Y-8743508D02*
X6032087Y-8714936D01*
X6032087Y-8714936D02*
X6022563Y-8705412D01*
D13*
X1247500Y-9106500D02*
G75*
G02*
X1117500Y-9106500I-65000J0D01*
G01*
X1117500Y-9106500D02*
G75*
G02*
X1247500Y-9106500I65000J0D01*
G01*
D11*
X1613039Y-9197984D02*
X1498753Y-9197984D01*
X1555896Y-9197984D02*
X1555896Y-8997984D01*
X1555896Y-8997984D02*
X1536848Y-9026555D01*
X1536848Y-9026555D02*
X1517801Y-9045603D01*
X1517801Y-9045603D02*
X1498753Y-9055127D01*
X1698753Y-9178936D02*
X1708277Y-9188460D01*
X1708277Y-9188460D02*
X1698753Y-9197984D01*
X1698753Y-9197984D02*
X1689229Y-9188460D01*
X1689229Y-9188460D02*
X1698753Y-9178936D01*
X1698753Y-9178936D02*
X1698753Y-9197984D01*
X1774943Y-8997984D02*
X1898753Y-8997984D01*
X1898753Y-8997984D02*
X1832086Y-9074174D01*
X1832086Y-9074174D02*
X1860658Y-9074174D01*
X1860658Y-9074174D02*
X1879705Y-9083698D01*
X1879705Y-9083698D02*
X1889229Y-9093222D01*
X1889229Y-9093222D02*
X1898753Y-9112270D01*
X1898753Y-9112270D02*
X1898753Y-9159889D01*
X1898753Y-9159889D02*
X1889229Y-9178936D01*
X1889229Y-9178936D02*
X1879705Y-9188460D01*
X1879705Y-9188460D02*
X1860658Y-9197984D01*
X1860658Y-9197984D02*
X1803515Y-9197984D01*
X1803515Y-9197984D02*
X1784467Y-9188460D01*
X1784467Y-9188460D02*
X1774943Y-9178936D01*
X2022562Y-8997984D02*
X2041610Y-8997984D01*
X2041610Y-8997984D02*
X2060658Y-9007508D01*
X2060658Y-9007508D02*
X2070182Y-9017031D01*
X2070182Y-9017031D02*
X2079705Y-9036079D01*
X2079705Y-9036079D02*
X2089229Y-9074174D01*
X2089229Y-9074174D02*
X2089229Y-9121793D01*
X2089229Y-9121793D02*
X2079705Y-9159889D01*
X2079705Y-9159889D02*
X2070182Y-9178936D01*
X2070182Y-9178936D02*
X2060658Y-9188460D01*
X2060658Y-9188460D02*
X2041610Y-9197984D01*
X2041610Y-9197984D02*
X2022562Y-9197984D01*
X2022562Y-9197984D02*
X2003515Y-9188460D01*
X2003515Y-9188460D02*
X1993991Y-9178936D01*
X1993991Y-9178936D02*
X1984467Y-9159889D01*
X1984467Y-9159889D02*
X1974943Y-9121793D01*
X1974943Y-9121793D02*
X1974943Y-9074174D01*
X1974943Y-9074174D02*
X1984467Y-9036079D01*
X1984467Y-9036079D02*
X1993991Y-9017031D01*
X1993991Y-9017031D02*
X2003515Y-9007508D01*
X2003515Y-9007508D02*
X2022562Y-8997984D01*
X2213039Y-8997984D02*
X2232086Y-8997984D01*
X2232086Y-8997984D02*
X2251134Y-9007508D01*
X2251134Y-9007508D02*
X2260658Y-9017031D01*
X2260658Y-9017031D02*
X2270182Y-9036079D01*
X2270182Y-9036079D02*
X2279705Y-9074174D01*
X2279705Y-9074174D02*
X2279705Y-9121793D01*
X2279705Y-9121793D02*
X2270182Y-9159889D01*
X2270182Y-9159889D02*
X2260658Y-9178936D01*
X2260658Y-9178936D02*
X2251134Y-9188460D01*
X2251134Y-9188460D02*
X2232086Y-9197984D01*
X2232086Y-9197984D02*
X2213039Y-9197984D01*
X2213039Y-9197984D02*
X2193991Y-9188460D01*
X2193991Y-9188460D02*
X2184467Y-9178936D01*
X2184467Y-9178936D02*
X2174944Y-9159889D01*
X2174944Y-9159889D02*
X2165420Y-9121793D01*
X2165420Y-9121793D02*
X2165420Y-9074174D01*
X2165420Y-9074174D02*
X2174944Y-9036079D01*
X2174944Y-9036079D02*
X2184467Y-9017031D01*
X2184467Y-9017031D02*
X2193991Y-9007508D01*
X2193991Y-9007508D02*
X2213039Y-8997984D01*
X2365420Y-9197984D02*
X2365420Y-9064650D01*
X2365420Y-9083698D02*
X2374944Y-9074174D01*
X2374944Y-9074174D02*
X2393991Y-9064650D01*
X2393991Y-9064650D02*
X2422563Y-9064650D01*
X2422563Y-9064650D02*
X2441610Y-9074174D01*
X2441610Y-9074174D02*
X2451134Y-9093222D01*
X2451134Y-9093222D02*
X2451134Y-9197984D01*
X2451134Y-9093222D02*
X2460658Y-9074174D01*
X2460658Y-9074174D02*
X2479705Y-9064650D01*
X2479705Y-9064650D02*
X2508277Y-9064650D01*
X2508277Y-9064650D02*
X2527325Y-9074174D01*
X2527325Y-9074174D02*
X2536848Y-9093222D01*
X2536848Y-9093222D02*
X2536848Y-9197984D01*
X2632086Y-9197984D02*
X2632086Y-9064650D01*
X2632086Y-9083698D02*
X2641610Y-9074174D01*
X2641610Y-9074174D02*
X2660658Y-9064650D01*
X2660658Y-9064650D02*
X2689229Y-9064650D01*
X2689229Y-9064650D02*
X2708277Y-9074174D01*
X2708277Y-9074174D02*
X2717801Y-9093222D01*
X2717801Y-9093222D02*
X2717801Y-9197984D01*
X2717801Y-9093222D02*
X2727325Y-9074174D01*
X2727325Y-9074174D02*
X2746372Y-9064650D01*
X2746372Y-9064650D02*
X2774944Y-9064650D01*
X2774944Y-9064650D02*
X2793991Y-9074174D01*
X2793991Y-9074174D02*
X2803515Y-9093222D01*
X2803515Y-9093222D02*
X2803515Y-9197984D01*
X3193991Y-8988460D02*
X3022563Y-9245603D01*
X3451134Y-8997984D02*
X3470182Y-8997984D01*
X3470182Y-8997984D02*
X3489229Y-9007508D01*
X3489229Y-9007508D02*
X3498753Y-9017031D01*
X3498753Y-9017031D02*
X3508277Y-9036079D01*
X3508277Y-9036079D02*
X3517801Y-9074174D01*
X3517801Y-9074174D02*
X3517801Y-9121793D01*
X3517801Y-9121793D02*
X3508277Y-9159889D01*
X3508277Y-9159889D02*
X3498753Y-9178936D01*
X3498753Y-9178936D02*
X3489229Y-9188460D01*
X3489229Y-9188460D02*
X3470182Y-9197984D01*
X3470182Y-9197984D02*
X3451134Y-9197984D01*
X3451134Y-9197984D02*
X3432086Y-9188460D01*
X3432086Y-9188460D02*
X3422563Y-9178936D01*
X3422563Y-9178936D02*
X3413039Y-9159889D01*
X3413039Y-9159889D02*
X3403515Y-9121793D01*
X3403515Y-9121793D02*
X3403515Y-9074174D01*
X3403515Y-9074174D02*
X3413039Y-9036079D01*
X3413039Y-9036079D02*
X3422563Y-9017031D01*
X3422563Y-9017031D02*
X3432086Y-9007508D01*
X3432086Y-9007508D02*
X3451134Y-8997984D01*
X3603515Y-9178936D02*
X3613039Y-9188460D01*
X3613039Y-9188460D02*
X3603515Y-9197984D01*
X3603515Y-9197984D02*
X3593991Y-9188460D01*
X3593991Y-9188460D02*
X3603515Y-9178936D01*
X3603515Y-9178936D02*
X3603515Y-9197984D01*
X3736848Y-8997984D02*
X3755896Y-8997984D01*
X3755896Y-8997984D02*
X3774944Y-9007508D01*
X3774944Y-9007508D02*
X3784467Y-9017031D01*
X3784467Y-9017031D02*
X3793991Y-9036079D01*
X3793991Y-9036079D02*
X3803515Y-9074174D01*
X3803515Y-9074174D02*
X3803515Y-9121793D01*
X3803515Y-9121793D02*
X3793991Y-9159889D01*
X3793991Y-9159889D02*
X3784467Y-9178936D01*
X3784467Y-9178936D02*
X3774944Y-9188460D01*
X3774944Y-9188460D02*
X3755896Y-9197984D01*
X3755896Y-9197984D02*
X3736848Y-9197984D01*
X3736848Y-9197984D02*
X3717801Y-9188460D01*
X3717801Y-9188460D02*
X3708277Y-9178936D01*
X3708277Y-9178936D02*
X3698753Y-9159889D01*
X3698753Y-9159889D02*
X3689229Y-9121793D01*
X3689229Y-9121793D02*
X3689229Y-9074174D01*
X3689229Y-9074174D02*
X3698753Y-9036079D01*
X3698753Y-9036079D02*
X3708277Y-9017031D01*
X3708277Y-9017031D02*
X3717801Y-9007508D01*
X3717801Y-9007508D02*
X3736848Y-8997984D01*
X3984467Y-8997984D02*
X3889229Y-8997984D01*
X3889229Y-8997984D02*
X3879706Y-9093222D01*
X3879706Y-9093222D02*
X3889229Y-9083698D01*
X3889229Y-9083698D02*
X3908277Y-9074174D01*
X3908277Y-9074174D02*
X3955896Y-9074174D01*
X3955896Y-9074174D02*
X3974944Y-9083698D01*
X3974944Y-9083698D02*
X3984467Y-9093222D01*
X3984467Y-9093222D02*
X3993991Y-9112270D01*
X3993991Y-9112270D02*
X3993991Y-9159889D01*
X3993991Y-9159889D02*
X3984467Y-9178936D01*
X3984467Y-9178936D02*
X3974944Y-9188460D01*
X3974944Y-9188460D02*
X3955896Y-9197984D01*
X3955896Y-9197984D02*
X3908277Y-9197984D01*
X3908277Y-9197984D02*
X3889229Y-9188460D01*
X3889229Y-9188460D02*
X3879706Y-9178936D01*
X4184467Y-9197984D02*
X4070182Y-9197984D01*
X4127325Y-9197984D02*
X4127325Y-8997984D01*
X4127325Y-8997984D02*
X4108277Y-9026555D01*
X4108277Y-9026555D02*
X4089229Y-9045603D01*
X4089229Y-9045603D02*
X4070182Y-9055127D01*
X4260658Y-9017031D02*
X4270182Y-9007508D01*
X4270182Y-9007508D02*
X4289229Y-8997984D01*
X4289229Y-8997984D02*
X4336849Y-8997984D01*
X4336849Y-8997984D02*
X4355896Y-9007508D01*
X4355896Y-9007508D02*
X4365420Y-9017031D01*
X4365420Y-9017031D02*
X4374944Y-9036079D01*
X4374944Y-9036079D02*
X4374944Y-9055127D01*
X4374944Y-9055127D02*
X4365420Y-9083698D01*
X4365420Y-9083698D02*
X4251134Y-9197984D01*
X4251134Y-9197984D02*
X4374944Y-9197984D01*
X4451134Y-8997984D02*
X4451134Y-9036079D01*
X4527325Y-8997984D02*
X4527325Y-9036079D01*
X4822563Y-9274174D02*
X4813039Y-9264650D01*
X4813039Y-9264650D02*
X4793991Y-9236079D01*
X4793991Y-9236079D02*
X4784468Y-9217031D01*
X4784468Y-9217031D02*
X4774944Y-9188460D01*
X4774944Y-9188460D02*
X4765420Y-9140841D01*
X4765420Y-9140841D02*
X4765420Y-9102746D01*
X4765420Y-9102746D02*
X4774944Y-9055127D01*
X4774944Y-9055127D02*
X4784468Y-9026555D01*
X4784468Y-9026555D02*
X4793991Y-9007508D01*
X4793991Y-9007508D02*
X4813039Y-8978936D01*
X4813039Y-8978936D02*
X4822563Y-8969412D01*
X5003515Y-9197984D02*
X4889230Y-9197984D01*
X4946372Y-9197984D02*
X4946372Y-8997984D01*
X4946372Y-8997984D02*
X4927325Y-9026555D01*
X4927325Y-9026555D02*
X4908277Y-9045603D01*
X4908277Y-9045603D02*
X4889230Y-9055127D01*
X5079706Y-9017031D02*
X5089230Y-9007508D01*
X5089230Y-9007508D02*
X5108277Y-8997984D01*
X5108277Y-8997984D02*
X5155896Y-8997984D01*
X5155896Y-8997984D02*
X5174944Y-9007508D01*
X5174944Y-9007508D02*
X5184468Y-9017031D01*
X5184468Y-9017031D02*
X5193991Y-9036079D01*
X5193991Y-9036079D02*
X5193991Y-9055127D01*
X5193991Y-9055127D02*
X5184468Y-9083698D01*
X5184468Y-9083698D02*
X5070182Y-9197984D01*
X5070182Y-9197984D02*
X5193991Y-9197984D01*
X5432087Y-9197984D02*
X5432087Y-8997984D01*
X5517801Y-9197984D02*
X5517801Y-9093222D01*
X5517801Y-9093222D02*
X5508277Y-9074174D01*
X5508277Y-9074174D02*
X5489230Y-9064650D01*
X5489230Y-9064650D02*
X5460658Y-9064650D01*
X5460658Y-9064650D02*
X5441611Y-9074174D01*
X5441611Y-9074174D02*
X5432087Y-9083698D01*
X5641610Y-9197984D02*
X5622563Y-9188460D01*
X5622563Y-9188460D02*
X5613039Y-9178936D01*
X5613039Y-9178936D02*
X5603515Y-9159889D01*
X5603515Y-9159889D02*
X5603515Y-9102746D01*
X5603515Y-9102746D02*
X5613039Y-9083698D01*
X5613039Y-9083698D02*
X5622563Y-9074174D01*
X5622563Y-9074174D02*
X5641610Y-9064650D01*
X5641610Y-9064650D02*
X5670182Y-9064650D01*
X5670182Y-9064650D02*
X5689230Y-9074174D01*
X5689230Y-9074174D02*
X5698753Y-9083698D01*
X5698753Y-9083698D02*
X5708277Y-9102746D01*
X5708277Y-9102746D02*
X5708277Y-9159889D01*
X5708277Y-9159889D02*
X5698753Y-9178936D01*
X5698753Y-9178936D02*
X5689230Y-9188460D01*
X5689230Y-9188460D02*
X5670182Y-9197984D01*
X5670182Y-9197984D02*
X5641610Y-9197984D01*
X5822563Y-9197984D02*
X5803515Y-9188460D01*
X5803515Y-9188460D02*
X5793991Y-9169412D01*
X5793991Y-9169412D02*
X5793991Y-8997984D01*
X5974944Y-9188460D02*
X5955896Y-9197984D01*
X5955896Y-9197984D02*
X5917801Y-9197984D01*
X5917801Y-9197984D02*
X5898753Y-9188460D01*
X5898753Y-9188460D02*
X5889230Y-9169412D01*
X5889230Y-9169412D02*
X5889230Y-9093222D01*
X5889230Y-9093222D02*
X5898753Y-9074174D01*
X5898753Y-9074174D02*
X5917801Y-9064650D01*
X5917801Y-9064650D02*
X5955896Y-9064650D01*
X5955896Y-9064650D02*
X5974944Y-9074174D01*
X5974944Y-9074174D02*
X5984468Y-9093222D01*
X5984468Y-9093222D02*
X5984468Y-9112270D01*
X5984468Y-9112270D02*
X5889230Y-9131317D01*
X6060658Y-9188460D02*
X6079706Y-9197984D01*
X6079706Y-9197984D02*
X6117801Y-9197984D01*
X6117801Y-9197984D02*
X6136849Y-9188460D01*
X6136849Y-9188460D02*
X6146372Y-9169412D01*
X6146372Y-9169412D02*
X6146372Y-9159889D01*
X6146372Y-9159889D02*
X6136849Y-9140841D01*
X6136849Y-9140841D02*
X6117801Y-9131317D01*
X6117801Y-9131317D02*
X6089230Y-9131317D01*
X6089230Y-9131317D02*
X6070182Y-9121793D01*
X6070182Y-9121793D02*
X6060658Y-9102746D01*
X6060658Y-9102746D02*
X6060658Y-9093222D01*
X6060658Y-9093222D02*
X6070182Y-9074174D01*
X6070182Y-9074174D02*
X6089230Y-9064650D01*
X6089230Y-9064650D02*
X6117801Y-9064650D01*
X6117801Y-9064650D02*
X6136849Y-9074174D01*
X6213039Y-9274174D02*
X6222563Y-9264650D01*
X6222563Y-9264650D02*
X6241611Y-9236079D01*
X6241611Y-9236079D02*
X6251134Y-9217031D01*
X6251134Y-9217031D02*
X6260658Y-9188460D01*
X6260658Y-9188460D02*
X6270182Y-9140841D01*
X6270182Y-9140841D02*
X6270182Y-9102746D01*
X6270182Y-9102746D02*
X6260658Y-9055127D01*
X6260658Y-9055127D02*
X6251134Y-9026555D01*
X6251134Y-9026555D02*
X6241611Y-9007508D01*
X6241611Y-9007508D02*
X6222563Y-8978936D01*
X6222563Y-8978936D02*
X6213039Y-8969412D01*
M02*
