G04 #@! TF.GenerationSoftware,KiCad,Pcbnew,9.0.3*
G04 #@! TF.CreationDate,2025-08-26T17:38:58-07:00*
G04 #@! TF.ProjectId,sdi12_breakout,73646931-325f-4627-9265-616b6f75742e,V1*
G04 #@! TF.SameCoordinates,Original*
G04 #@! TF.FileFunction,Legend,Top*
G04 #@! TF.FilePolarity,Positive*
%FSLAX45Y45*%
G04 Gerber Fmt 4.5, Leading zero omitted, Abs format (unit mm)*
G04 Created by KiCad (PCBNEW 9.0.3) date 2025-08-26 17:38:58*
%MOMM*%
%LPD*%
G01*
G04 APERTURE LIST*
G04 Aperture macros list*
%AMRoundRect*
0 Rectangle with rounded corners*
0 $1 Rounding radius*
0 $2 $3 $4 $5 $6 $7 $8 $9 X,Y pos of 4 corners*
0 Add a 4 corners polygon primitive as box body*
4,1,4,$2,$3,$4,$5,$6,$7,$8,$9,$2,$3,0*
0 Add four circle primitives for the rounded corners*
1,1,$1+$1,$2,$3*
1,1,$1+$1,$4,$5*
1,1,$1+$1,$6,$7*
1,1,$1+$1,$8,$9*
0 Add four rect primitives between the rounded corners*
20,1,$1+$1,$2,$3,$4,$5,0*
20,1,$1+$1,$4,$5,$6,$7,0*
20,1,$1+$1,$6,$7,$8,$9,0*
20,1,$1+$1,$8,$9,$2,$3,0*%
G04 Aperture macros list end*
%ADD10C,0.150000*%
%ADD11C,0.120000*%
%ADD12RoundRect,0.250000X1.050000X-1.050000X1.050000X1.050000X-1.050000X1.050000X-1.050000X-1.050000X0*%
%ADD13C,2.600000*%
%ADD14RoundRect,0.250000X1.050000X1.050000X-1.050000X1.050000X-1.050000X-1.050000X1.050000X-1.050000X0*%
%ADD15C,1.700000*%
%ADD16R,2.200000X2.800000*%
%ADD17R,2.800000X2.800000*%
%ADD18RoundRect,0.250000X-1.050000X-1.050000X1.050000X-1.050000X1.050000X1.050000X-1.050000X1.050000X0*%
%ADD19R,2.800000X2.200000*%
%ADD20RoundRect,0.250000X-1.050000X1.050000X-1.050000X-1.050000X1.050000X-1.050000X1.050000X1.050000X0*%
G04 APERTURE END LIST*
D10*
X6928417Y-5195482D02*
X6928417Y-5266910D01*
X6928417Y-5266910D02*
X6923655Y-5281196D01*
X6923655Y-5281196D02*
X6914131Y-5290720D01*
X6914131Y-5290720D02*
X6899845Y-5295482D01*
X6899845Y-5295482D02*
X6890321Y-5295482D01*
X6971274Y-5205006D02*
X6976036Y-5200244D01*
X6976036Y-5200244D02*
X6985559Y-5195482D01*
X6985559Y-5195482D02*
X7009369Y-5195482D01*
X7009369Y-5195482D02*
X7018893Y-5200244D01*
X7018893Y-5200244D02*
X7023655Y-5205006D01*
X7023655Y-5205006D02*
X7028417Y-5214530D01*
X7028417Y-5214530D02*
X7028417Y-5224053D01*
X7028417Y-5224053D02*
X7023655Y-5238339D01*
X7023655Y-5238339D02*
X6966512Y-5295482D01*
X6966512Y-5295482D02*
X7028417Y-5295482D01*
X5316667Y-2508732D02*
X5316667Y-2580160D01*
X5316667Y-2580160D02*
X5311905Y-2594446D01*
X5311905Y-2594446D02*
X5302381Y-2603970D01*
X5302381Y-2603970D02*
X5288095Y-2608732D01*
X5288095Y-2608732D02*
X5278571Y-2608732D01*
X5407143Y-2542065D02*
X5407143Y-2608732D01*
X5383333Y-2503970D02*
X5359524Y-2575399D01*
X5359524Y-2575399D02*
X5421429Y-2575399D01*
X6116667Y-3725482D02*
X6116667Y-3796910D01*
X6116667Y-3796910D02*
X6111905Y-3811196D01*
X6111905Y-3811196D02*
X6102381Y-3820720D01*
X6102381Y-3820720D02*
X6088095Y-3825482D01*
X6088095Y-3825482D02*
X6078571Y-3825482D01*
X6154762Y-3725482D02*
X6221428Y-3725482D01*
X6221428Y-3725482D02*
X6178571Y-3825482D01*
X3216667Y-5445482D02*
X3216667Y-5516910D01*
X3216667Y-5516910D02*
X3211905Y-5531196D01*
X3211905Y-5531196D02*
X3202381Y-5540720D01*
X3202381Y-5540720D02*
X3188095Y-5545482D01*
X3188095Y-5545482D02*
X3178571Y-5545482D01*
X3311905Y-5445482D02*
X3264286Y-5445482D01*
X3264286Y-5445482D02*
X3259524Y-5493101D01*
X3259524Y-5493101D02*
X3264286Y-5488339D01*
X3264286Y-5488339D02*
X3273809Y-5483577D01*
X3273809Y-5483577D02*
X3297619Y-5483577D01*
X3297619Y-5483577D02*
X3307143Y-5488339D01*
X3307143Y-5488339D02*
X3311905Y-5493101D01*
X3311905Y-5493101D02*
X3316667Y-5502625D01*
X3316667Y-5502625D02*
X3316667Y-5526434D01*
X3316667Y-5526434D02*
X3311905Y-5535958D01*
X3311905Y-5535958D02*
X3307143Y-5540720D01*
X3307143Y-5540720D02*
X3297619Y-5545482D01*
X3297619Y-5545482D02*
X3273809Y-5545482D01*
X3273809Y-5545482D02*
X3264286Y-5540720D01*
X3264286Y-5540720D02*
X3259524Y-5535958D01*
X4316667Y-6995482D02*
X4316667Y-7066910D01*
X4316667Y-7066910D02*
X4311905Y-7081196D01*
X4311905Y-7081196D02*
X4302381Y-7090720D01*
X4302381Y-7090720D02*
X4288095Y-7095482D01*
X4288095Y-7095482D02*
X4278571Y-7095482D01*
X4354762Y-6995482D02*
X4416667Y-6995482D01*
X4416667Y-6995482D02*
X4383333Y-7033577D01*
X4383333Y-7033577D02*
X4397619Y-7033577D01*
X4397619Y-7033577D02*
X4407143Y-7038339D01*
X4407143Y-7038339D02*
X4411905Y-7043101D01*
X4411905Y-7043101D02*
X4416667Y-7052625D01*
X4416667Y-7052625D02*
X4416667Y-7076434D01*
X4416667Y-7076434D02*
X4411905Y-7085958D01*
X4411905Y-7085958D02*
X4407143Y-7090720D01*
X4407143Y-7090720D02*
X4397619Y-7095482D01*
X4397619Y-7095482D02*
X4369048Y-7095482D01*
X4369048Y-7095482D02*
X4359524Y-7090720D01*
X4359524Y-7090720D02*
X4354762Y-7085958D01*
X5766667Y-6195482D02*
X5766667Y-6266910D01*
X5766667Y-6266910D02*
X5761905Y-6281196D01*
X5761905Y-6281196D02*
X5752381Y-6290720D01*
X5752381Y-6290720D02*
X5738095Y-6295482D01*
X5738095Y-6295482D02*
X5728571Y-6295482D01*
X5857143Y-6195482D02*
X5838095Y-6195482D01*
X5838095Y-6195482D02*
X5828571Y-6200244D01*
X5828571Y-6200244D02*
X5823809Y-6205006D01*
X5823809Y-6205006D02*
X5814286Y-6219291D01*
X5814286Y-6219291D02*
X5809524Y-6238339D01*
X5809524Y-6238339D02*
X5809524Y-6276434D01*
X5809524Y-6276434D02*
X5814286Y-6285958D01*
X5814286Y-6285958D02*
X5819048Y-6290720D01*
X5819048Y-6290720D02*
X5828571Y-6295482D01*
X5828571Y-6295482D02*
X5847619Y-6295482D01*
X5847619Y-6295482D02*
X5857143Y-6290720D01*
X5857143Y-6290720D02*
X5861905Y-6285958D01*
X5861905Y-6285958D02*
X5866667Y-6276434D01*
X5866667Y-6276434D02*
X5866667Y-6252625D01*
X5866667Y-6252625D02*
X5861905Y-6243101D01*
X5861905Y-6243101D02*
X5857143Y-6238339D01*
X5857143Y-6238339D02*
X5847619Y-6233577D01*
X5847619Y-6233577D02*
X5828571Y-6233577D01*
X5828571Y-6233577D02*
X5819048Y-6238339D01*
X5819048Y-6238339D02*
X5814286Y-6243101D01*
X5814286Y-6243101D02*
X5809524Y-6252625D01*
X3866667Y-3245482D02*
X3866667Y-3316910D01*
X3866667Y-3316910D02*
X3861905Y-3331196D01*
X3861905Y-3331196D02*
X3852381Y-3340720D01*
X3852381Y-3340720D02*
X3838095Y-3345482D01*
X3838095Y-3345482D02*
X3828571Y-3345482D01*
X3928571Y-3288339D02*
X3919048Y-3283577D01*
X3919048Y-3283577D02*
X3914286Y-3278815D01*
X3914286Y-3278815D02*
X3909524Y-3269291D01*
X3909524Y-3269291D02*
X3909524Y-3264529D01*
X3909524Y-3264529D02*
X3914286Y-3255006D01*
X3914286Y-3255006D02*
X3919048Y-3250244D01*
X3919048Y-3250244D02*
X3928571Y-3245482D01*
X3928571Y-3245482D02*
X3947619Y-3245482D01*
X3947619Y-3245482D02*
X3957143Y-3250244D01*
X3957143Y-3250244D02*
X3961905Y-3255006D01*
X3961905Y-3255006D02*
X3966667Y-3264529D01*
X3966667Y-3264529D02*
X3966667Y-3269291D01*
X3966667Y-3269291D02*
X3961905Y-3278815D01*
X3961905Y-3278815D02*
X3957143Y-3283577D01*
X3957143Y-3283577D02*
X3947619Y-3288339D01*
X3947619Y-3288339D02*
X3928571Y-3288339D01*
X3928571Y-3288339D02*
X3919048Y-3293101D01*
X3919048Y-3293101D02*
X3914286Y-3297863D01*
X3914286Y-3297863D02*
X3909524Y-3307387D01*
X3909524Y-3307387D02*
X3909524Y-3326434D01*
X3909524Y-3326434D02*
X3914286Y-3335958D01*
X3914286Y-3335958D02*
X3919048Y-3340720D01*
X3919048Y-3340720D02*
X3928571Y-3345482D01*
X3928571Y-3345482D02*
X3947619Y-3345482D01*
X3947619Y-3345482D02*
X3957143Y-3340720D01*
X3957143Y-3340720D02*
X3961905Y-3335958D01*
X3961905Y-3335958D02*
X3966667Y-3326434D01*
X3966667Y-3326434D02*
X3966667Y-3307387D01*
X3966667Y-3307387D02*
X3961905Y-3297863D01*
X3961905Y-3297863D02*
X3957143Y-3293101D01*
X3957143Y-3293101D02*
X3947619Y-3288339D01*
X2429917Y-3995482D02*
X2429917Y-4066910D01*
X2429917Y-4066910D02*
X2425155Y-4081196D01*
X2425155Y-4081196D02*
X2415631Y-4090720D01*
X2415631Y-4090720D02*
X2401345Y-4095482D01*
X2401345Y-4095482D02*
X2391821Y-4095482D01*
X2529917Y-4095482D02*
X2472774Y-4095482D01*
X2501345Y-4095482D02*
X2501345Y-3995482D01*
X2501345Y-3995482D02*
X2491821Y-4009768D01*
X2491821Y-4009768D02*
X2482298Y-4019291D01*
X2482298Y-4019291D02*
X2472774Y-4024053D01*
D11*
X7099750Y-4488000D02*
X8023750Y-4488000D01*
X7099750Y-6012000D02*
X7099750Y-4488000D01*
X7861750Y-6012000D02*
X7861750Y-4488000D01*
X7971750Y-6012000D02*
X7971750Y-4488000D01*
X8023750Y-4488000D02*
X8023750Y-5720000D01*
X8023750Y-5780000D02*
X8023750Y-6012000D01*
X8023750Y-6012000D02*
X7099750Y-6012000D01*
X8084750Y-5794000D02*
X8023750Y-5750000D01*
X8084750Y-5706000D01*
X8084750Y-5794000D01*
G36*
X8084750Y-5794000D02*
G01*
X8023750Y-5750000D01*
X8084750Y-5706000D01*
X8084750Y-5794000D01*
G37*
X4588000Y-1451250D02*
X5820000Y-1451250D01*
X4588000Y-2375250D02*
X4588000Y-1451250D01*
X5880000Y-1451250D02*
X6112000Y-1451250D01*
X6112000Y-1451250D02*
X6112000Y-2375250D01*
X6112000Y-1503250D02*
X4588000Y-1503250D01*
X6112000Y-1613250D02*
X4588000Y-1613250D01*
X6112000Y-2375250D02*
X4588000Y-2375250D01*
X5850000Y-1451250D02*
X5806000Y-1390250D01*
X5894000Y-1390250D01*
X5850000Y-1451250D01*
G36*
X5850000Y-1451250D02*
G01*
X5806000Y-1390250D01*
X5894000Y-1390250D01*
X5850000Y-1451250D01*
G37*
X6280000Y-3470000D02*
X6400000Y-3470000D01*
X6280000Y-4090000D02*
X6280000Y-3470000D01*
X6720000Y-3470000D02*
X7370000Y-3470000D01*
X7170000Y-4090000D02*
X6280000Y-4090000D01*
X7370000Y-3470000D02*
X7370000Y-3270000D01*
X7630000Y-3470000D02*
X7630000Y-3270000D01*
X7630000Y-3470000D02*
X7750000Y-3470000D01*
X7750000Y-3470000D02*
X7750000Y-3520000D01*
X7750000Y-3520000D02*
X8000000Y-3520000D01*
X7750000Y-4040000D02*
X7750000Y-4090000D01*
X7750000Y-4090000D02*
X7430000Y-4090000D01*
X8000000Y-3520000D02*
X8000000Y-4040000D01*
X8000000Y-4040000D02*
X7750000Y-4040000D01*
X1390000Y-5240000D02*
X1640000Y-5240000D01*
X1390000Y-5760000D02*
X1390000Y-5240000D01*
X1640000Y-5190000D02*
X1960000Y-5190000D01*
X1640000Y-5240000D02*
X1640000Y-5190000D01*
X1640000Y-5760000D02*
X1390000Y-5760000D01*
X1640000Y-5810000D02*
X1640000Y-5760000D01*
X1760000Y-5810000D02*
X1640000Y-5810000D01*
X1760000Y-5810000D02*
X1760000Y-6010000D01*
X2020000Y-5810000D02*
X2020000Y-6010000D01*
X2220000Y-5190000D02*
X3110000Y-5190000D01*
X2670000Y-5810000D02*
X2020000Y-5810000D01*
X3110000Y-5190000D02*
X3110000Y-5810000D01*
X3110000Y-5810000D02*
X2990000Y-5810000D01*
X3588000Y-7188000D02*
X5112000Y-7188000D01*
X3588000Y-7950000D02*
X5112000Y-7950000D01*
X3588000Y-8060000D02*
X5112000Y-8060000D01*
X3588000Y-8112000D02*
X3588000Y-7188000D01*
X3820000Y-8112000D02*
X3588000Y-8112000D01*
X5112000Y-7188000D02*
X5112000Y-8112000D01*
X5112000Y-8112000D02*
X3880000Y-8112000D01*
X3894000Y-8173000D02*
X3806000Y-8173000D01*
X3850000Y-8112000D01*
X3894000Y-8173000D01*
G36*
X3894000Y-8173000D02*
G01*
X3806000Y-8173000D01*
X3850000Y-8112000D01*
X3894000Y-8173000D01*
G37*
X5490000Y-6340000D02*
X6110000Y-6340000D01*
X5490000Y-7230000D02*
X5490000Y-6340000D01*
X5490000Y-7810000D02*
X5490000Y-7490000D01*
X5540000Y-7810000D02*
X5490000Y-7810000D01*
X5540000Y-8060000D02*
X5540000Y-7810000D01*
X6060000Y-7810000D02*
X6060000Y-8060000D01*
X6060000Y-8060000D02*
X5540000Y-8060000D01*
X6110000Y-6340000D02*
X6110000Y-6460000D01*
X6110000Y-6780000D02*
X6110000Y-7430000D01*
X6110000Y-7430000D02*
X6310000Y-7430000D01*
X6110000Y-7690000D02*
X6110000Y-7810000D01*
X6110000Y-7690000D02*
X6310000Y-7690000D01*
X6110000Y-7810000D02*
X6060000Y-7810000D01*
X3590000Y-1690000D02*
X3640000Y-1690000D01*
X3590000Y-1810000D02*
X3390000Y-1810000D01*
X3590000Y-1810000D02*
X3590000Y-1690000D01*
X3590000Y-2070000D02*
X3390000Y-2070000D01*
X3590000Y-2720000D02*
X3590000Y-2070000D01*
X3590000Y-3160000D02*
X3590000Y-3040000D01*
X3640000Y-1440000D02*
X4160000Y-1440000D01*
X3640000Y-1690000D02*
X3640000Y-1440000D01*
X4160000Y-1440000D02*
X4160000Y-1690000D01*
X4160000Y-1690000D02*
X4210000Y-1690000D01*
X4210000Y-1690000D02*
X4210000Y-2010000D01*
X4210000Y-2270000D02*
X4210000Y-3160000D01*
X4210000Y-3160000D02*
X3590000Y-3160000D01*
X1401250Y-3288000D02*
X2325250Y-3288000D01*
X1401250Y-3520000D02*
X1401250Y-3288000D01*
X1401250Y-4812000D02*
X1401250Y-3580000D01*
X1453250Y-3288000D02*
X1453250Y-4812000D01*
X1563250Y-3288000D02*
X1563250Y-4812000D01*
X2325250Y-3288000D02*
X2325250Y-4812000D01*
X2325250Y-4812000D02*
X1401250Y-4812000D01*
X1401250Y-3550000D02*
X1340250Y-3594000D01*
X1340250Y-3506000D01*
X1401250Y-3550000D01*
G36*
X1401250Y-3550000D02*
G01*
X1340250Y-3594000D01*
X1340250Y-3506000D01*
X1401250Y-3550000D01*
G37*
%LPC*%
D12*
X7511750Y-5750000D03*
D13*
X7511750Y-5250000D03*
X7511750Y-4750000D03*
D14*
X5850000Y-1963250D03*
D13*
X5350000Y-1963250D03*
X4850000Y-1963250D03*
D15*
X7390000Y-3780000D03*
X6690000Y-3780000D03*
D16*
X7300000Y-4150000D03*
X7500000Y-3410000D03*
D17*
X6560000Y-3410000D03*
D15*
X2000000Y-5500000D03*
X2700000Y-5500000D03*
D16*
X2090000Y-5130000D03*
X1890000Y-5870000D03*
D17*
X2830000Y-5870000D03*
D18*
X3850000Y-7600000D03*
D13*
X4350000Y-7600000D03*
X4850000Y-7600000D03*
D15*
X5800000Y-7450000D03*
X5800000Y-6750000D03*
D19*
X5430000Y-7360000D03*
X6170000Y-7560000D03*
D17*
X6170000Y-6620000D03*
D15*
X3900000Y-2050000D03*
X3900000Y-2750000D03*
D19*
X4270000Y-2140000D03*
X3530000Y-1940000D03*
D17*
X3530000Y-2880000D03*
D20*
X1913250Y-3550000D03*
D13*
X1913250Y-4050000D03*
X1913250Y-4550000D03*
%LPD*%
M02*
