G04 #@! TF.GenerationSoftware,KiCad,Pcbnew,9.0.3*
G04 #@! TF.CreationDate,2025-08-26T17:47:51-07:00*
G04 #@! TF.ProjectId,sdi12_breakout,73646931-325f-4627-9265-616b6f75742e,V1*
G04 #@! TF.SameCoordinates,Original*
G04 #@! TF.FileFunction,Legend,Bot*
G04 #@! TF.FilePolarity,Positive*
%FSLAX45Y45*%
G04 Gerber Fmt 4.5, Leading zero omitted, Abs format (unit mm)*
G04 Created by KiCad (PCBNEW 9.0.3) date 2025-08-26 17:47:51*
%MOMM*%
%LPD*%
G01*
G04 APERTURE LIST*
G04 Aperture macros list*
%AMRoundRect*
0 Rectangle with rounded corners*
0 $1 Rounding radius*
0 $2 $3 $4 $5 $6 $7 $8 $9 X,Y pos of 4 corners*
0 Add a 4 corners polygon primitive as box body*
4,1,4,$2,$3,$4,$5,$6,$7,$8,$9,$2,$3,0*
0 Add four circle primitives for the rounded corners*
1,1,$1+$1,$2,$3*
1,1,$1+$1,$4,$5*
1,1,$1+$1,$6,$7*
1,1,$1+$1,$8,$9*
0 Add four rect primitives between the rounded corners*
20,1,$1+$1,$2,$3,$4,$5,0*
20,1,$1+$1,$4,$5,$6,$7,0*
20,1,$1+$1,$6,$7,$8,$9,0*
20,1,$1+$1,$8,$9,$2,$3,0*%
G04 Aperture macros list end*
%ADD10C,0.300000*%
%ADD11RoundRect,0.250000X1.050000X-1.050000X1.050000X1.050000X-1.050000X1.050000X-1.050000X-1.050000X0*%
%ADD12C,2.600000*%
%ADD13RoundRect,0.250000X1.050000X1.050000X-1.050000X1.050000X-1.050000X-1.050000X1.050000X-1.050000X0*%
%ADD14C,1.700000*%
%ADD15RoundRect,0.250000X-1.050000X-1.050000X1.050000X-1.050000X1.050000X1.050000X-1.050000X1.050000X0*%
%ADD16RoundRect,0.250000X-1.050000X1.050000X-1.050000X-1.050000X1.050000X-1.050000X1.050000X1.050000X0*%
G04 APERTURE END LIST*
D10*
X5544549Y-4177037D02*
X5494549Y-4177037D01*
X5473120Y-4255608D02*
X5544549Y-4255608D01*
X5544549Y-4255608D02*
X5544549Y-4105608D01*
X5544549Y-4105608D02*
X5473120Y-4105608D01*
X5408835Y-4255608D02*
X5408835Y-4105608D01*
X5408835Y-4105608D02*
X5323120Y-4255608D01*
X5323120Y-4255608D02*
X5323120Y-4105608D01*
X5273120Y-4105608D02*
X5187406Y-4105608D01*
X5230263Y-4255608D02*
X5230263Y-4105608D01*
X5144549Y-4248465D02*
X5123120Y-4255608D01*
X5123120Y-4255608D02*
X5087406Y-4255608D01*
X5087406Y-4255608D02*
X5073120Y-4248465D01*
X5073120Y-4248465D02*
X5065977Y-4241322D01*
X5065977Y-4241322D02*
X5058835Y-4227037D01*
X5058835Y-4227037D02*
X5058835Y-4212751D01*
X5058835Y-4212751D02*
X5065977Y-4198465D01*
X5065977Y-4198465D02*
X5073120Y-4191322D01*
X5073120Y-4191322D02*
X5087406Y-4184179D01*
X5087406Y-4184179D02*
X5115977Y-4177037D01*
X5115977Y-4177037D02*
X5130263Y-4169894D01*
X5130263Y-4169894D02*
X5137406Y-4162751D01*
X5137406Y-4162751D02*
X5144549Y-4148465D01*
X5144549Y-4148465D02*
X5144549Y-4134179D01*
X5144549Y-4134179D02*
X5137406Y-4119894D01*
X5137406Y-4119894D02*
X5130263Y-4112751D01*
X5130263Y-4112751D02*
X5115977Y-4105608D01*
X5115977Y-4105608D02*
X5080263Y-4105608D01*
X5080263Y-4105608D02*
X5058835Y-4112751D01*
X4887406Y-4248465D02*
X4865978Y-4255608D01*
X4865978Y-4255608D02*
X4830263Y-4255608D01*
X4830263Y-4255608D02*
X4815978Y-4248465D01*
X4815978Y-4248465D02*
X4808835Y-4241322D01*
X4808835Y-4241322D02*
X4801692Y-4227037D01*
X4801692Y-4227037D02*
X4801692Y-4212751D01*
X4801692Y-4212751D02*
X4808835Y-4198465D01*
X4808835Y-4198465D02*
X4815978Y-4191322D01*
X4815978Y-4191322D02*
X4830263Y-4184179D01*
X4830263Y-4184179D02*
X4858835Y-4177037D01*
X4858835Y-4177037D02*
X4873120Y-4169894D01*
X4873120Y-4169894D02*
X4880263Y-4162751D01*
X4880263Y-4162751D02*
X4887406Y-4148465D01*
X4887406Y-4148465D02*
X4887406Y-4134179D01*
X4887406Y-4134179D02*
X4880263Y-4119894D01*
X4880263Y-4119894D02*
X4873120Y-4112751D01*
X4873120Y-4112751D02*
X4858835Y-4105608D01*
X4858835Y-4105608D02*
X4823120Y-4105608D01*
X4823120Y-4105608D02*
X4801692Y-4112751D01*
X4737406Y-4255608D02*
X4737406Y-4105608D01*
X4737406Y-4105608D02*
X4701692Y-4105608D01*
X4701692Y-4105608D02*
X4680263Y-4112751D01*
X4680263Y-4112751D02*
X4665978Y-4127037D01*
X4665978Y-4127037D02*
X4658835Y-4141322D01*
X4658835Y-4141322D02*
X4651692Y-4169894D01*
X4651692Y-4169894D02*
X4651692Y-4191322D01*
X4651692Y-4191322D02*
X4658835Y-4219894D01*
X4658835Y-4219894D02*
X4665978Y-4234179D01*
X4665978Y-4234179D02*
X4680263Y-4248465D01*
X4680263Y-4248465D02*
X4701692Y-4255608D01*
X4701692Y-4255608D02*
X4737406Y-4255608D01*
X4587406Y-4255608D02*
X4587406Y-4105608D01*
X4437406Y-4255608D02*
X4523120Y-4255608D01*
X4480263Y-4255608D02*
X4480263Y-4105608D01*
X4480263Y-4105608D02*
X4494549Y-4127037D01*
X4494549Y-4127037D02*
X4508835Y-4141322D01*
X4508835Y-4141322D02*
X4523120Y-4148465D01*
X4380263Y-4119894D02*
X4373120Y-4112751D01*
X4373120Y-4112751D02*
X4358835Y-4105608D01*
X4358835Y-4105608D02*
X4323120Y-4105608D01*
X4323120Y-4105608D02*
X4308835Y-4112751D01*
X4308835Y-4112751D02*
X4301692Y-4119894D01*
X4301692Y-4119894D02*
X4294549Y-4134179D01*
X4294549Y-4134179D02*
X4294549Y-4148465D01*
X4294549Y-4148465D02*
X4301692Y-4169894D01*
X4301692Y-4169894D02*
X4387406Y-4255608D01*
X4387406Y-4255608D02*
X4294549Y-4255608D01*
X4065978Y-4177037D02*
X4044549Y-4184179D01*
X4044549Y-4184179D02*
X4037406Y-4191322D01*
X4037406Y-4191322D02*
X4030263Y-4205608D01*
X4030263Y-4205608D02*
X4030263Y-4227037D01*
X4030263Y-4227037D02*
X4037406Y-4241322D01*
X4037406Y-4241322D02*
X4044549Y-4248465D01*
X4044549Y-4248465D02*
X4058835Y-4255608D01*
X4058835Y-4255608D02*
X4115978Y-4255608D01*
X4115978Y-4255608D02*
X4115978Y-4105608D01*
X4115978Y-4105608D02*
X4065978Y-4105608D01*
X4065978Y-4105608D02*
X4051692Y-4112751D01*
X4051692Y-4112751D02*
X4044549Y-4119894D01*
X4044549Y-4119894D02*
X4037406Y-4134179D01*
X4037406Y-4134179D02*
X4037406Y-4148465D01*
X4037406Y-4148465D02*
X4044549Y-4162751D01*
X4044549Y-4162751D02*
X4051692Y-4169894D01*
X4051692Y-4169894D02*
X4065978Y-4177037D01*
X4065978Y-4177037D02*
X4115978Y-4177037D01*
X3965978Y-4255608D02*
X3965978Y-4155608D01*
X3965978Y-4184179D02*
X3958835Y-4169894D01*
X3958835Y-4169894D02*
X3951692Y-4162751D01*
X3951692Y-4162751D02*
X3937406Y-4155608D01*
X3937406Y-4155608D02*
X3923120Y-4155608D01*
X3815978Y-4248465D02*
X3830263Y-4255608D01*
X3830263Y-4255608D02*
X3858835Y-4255608D01*
X3858835Y-4255608D02*
X3873120Y-4248465D01*
X3873120Y-4248465D02*
X3880263Y-4234179D01*
X3880263Y-4234179D02*
X3880263Y-4177037D01*
X3880263Y-4177037D02*
X3873120Y-4162751D01*
X3873120Y-4162751D02*
X3858835Y-4155608D01*
X3858835Y-4155608D02*
X3830263Y-4155608D01*
X3830263Y-4155608D02*
X3815978Y-4162751D01*
X3815978Y-4162751D02*
X3808835Y-4177037D01*
X3808835Y-4177037D02*
X3808835Y-4191322D01*
X3808835Y-4191322D02*
X3880263Y-4205608D01*
X3680263Y-4255608D02*
X3680263Y-4177037D01*
X3680263Y-4177037D02*
X3687406Y-4162751D01*
X3687406Y-4162751D02*
X3701692Y-4155608D01*
X3701692Y-4155608D02*
X3730263Y-4155608D01*
X3730263Y-4155608D02*
X3744549Y-4162751D01*
X3680263Y-4248465D02*
X3694549Y-4255608D01*
X3694549Y-4255608D02*
X3730263Y-4255608D01*
X3730263Y-4255608D02*
X3744549Y-4248465D01*
X3744549Y-4248465D02*
X3751692Y-4234179D01*
X3751692Y-4234179D02*
X3751692Y-4219894D01*
X3751692Y-4219894D02*
X3744549Y-4205608D01*
X3744549Y-4205608D02*
X3730263Y-4198465D01*
X3730263Y-4198465D02*
X3694549Y-4198465D01*
X3694549Y-4198465D02*
X3680263Y-4191322D01*
X3608835Y-4255608D02*
X3608835Y-4105608D01*
X3594549Y-4198465D02*
X3551692Y-4255608D01*
X3551692Y-4155608D02*
X3608835Y-4212751D01*
X3465978Y-4255608D02*
X3480263Y-4248465D01*
X3480263Y-4248465D02*
X3487406Y-4241322D01*
X3487406Y-4241322D02*
X3494549Y-4227037D01*
X3494549Y-4227037D02*
X3494549Y-4184179D01*
X3494549Y-4184179D02*
X3487406Y-4169894D01*
X3487406Y-4169894D02*
X3480263Y-4162751D01*
X3480263Y-4162751D02*
X3465978Y-4155608D01*
X3465978Y-4155608D02*
X3444549Y-4155608D01*
X3444549Y-4155608D02*
X3430263Y-4162751D01*
X3430263Y-4162751D02*
X3423120Y-4169894D01*
X3423120Y-4169894D02*
X3415978Y-4184179D01*
X3415978Y-4184179D02*
X3415978Y-4227037D01*
X3415978Y-4227037D02*
X3423120Y-4241322D01*
X3423120Y-4241322D02*
X3430263Y-4248465D01*
X3430263Y-4248465D02*
X3444549Y-4255608D01*
X3444549Y-4255608D02*
X3465978Y-4255608D01*
X3287406Y-4155608D02*
X3287406Y-4255608D01*
X3351692Y-4155608D02*
X3351692Y-4234179D01*
X3351692Y-4234179D02*
X3344549Y-4248465D01*
X3344549Y-4248465D02*
X3330263Y-4255608D01*
X3330263Y-4255608D02*
X3308835Y-4255608D01*
X3308835Y-4255608D02*
X3294549Y-4248465D01*
X3294549Y-4248465D02*
X3287406Y-4241322D01*
X3237406Y-4155608D02*
X3180263Y-4155608D01*
X3215978Y-4105608D02*
X3215978Y-4234179D01*
X3215978Y-4234179D02*
X3208835Y-4248465D01*
X3208835Y-4248465D02*
X3194549Y-4255608D01*
X3194549Y-4255608D02*
X3180263Y-4255608D01*
X5544549Y-4397100D02*
X5544549Y-4525671D01*
X5544549Y-4525671D02*
X5551692Y-4539957D01*
X5551692Y-4539957D02*
X5565977Y-4547100D01*
X5565977Y-4547100D02*
X5573120Y-4547100D01*
X5544549Y-4347100D02*
X5551692Y-4354243D01*
X5551692Y-4354243D02*
X5544549Y-4361385D01*
X5544549Y-4361385D02*
X5537406Y-4354243D01*
X5537406Y-4354243D02*
X5544549Y-4347100D01*
X5544549Y-4347100D02*
X5544549Y-4361385D01*
X5401692Y-4497100D02*
X5473120Y-4497100D01*
X5473120Y-4497100D02*
X5473120Y-4347100D01*
X5287406Y-4497100D02*
X5287406Y-4418528D01*
X5287406Y-4418528D02*
X5294549Y-4404243D01*
X5294549Y-4404243D02*
X5308835Y-4397100D01*
X5308835Y-4397100D02*
X5337406Y-4397100D01*
X5337406Y-4397100D02*
X5351692Y-4404243D01*
X5287406Y-4489957D02*
X5301692Y-4497100D01*
X5301692Y-4497100D02*
X5337406Y-4497100D01*
X5337406Y-4497100D02*
X5351692Y-4489957D01*
X5351692Y-4489957D02*
X5358835Y-4475671D01*
X5358835Y-4475671D02*
X5358835Y-4461385D01*
X5358835Y-4461385D02*
X5351692Y-4447100D01*
X5351692Y-4447100D02*
X5337406Y-4439957D01*
X5337406Y-4439957D02*
X5301692Y-4439957D01*
X5301692Y-4439957D02*
X5287406Y-4432814D01*
X5215977Y-4497100D02*
X5215977Y-4347100D01*
X5215977Y-4404243D02*
X5201692Y-4397100D01*
X5201692Y-4397100D02*
X5173120Y-4397100D01*
X5173120Y-4397100D02*
X5158835Y-4404243D01*
X5158835Y-4404243D02*
X5151692Y-4411385D01*
X5151692Y-4411385D02*
X5144549Y-4425671D01*
X5144549Y-4425671D02*
X5144549Y-4468528D01*
X5144549Y-4468528D02*
X5151692Y-4482814D01*
X5151692Y-4482814D02*
X5158835Y-4489957D01*
X5158835Y-4489957D02*
X5173120Y-4497100D01*
X5173120Y-4497100D02*
X5201692Y-4497100D01*
X5201692Y-4497100D02*
X5215977Y-4489957D01*
X5551692Y-4602877D02*
X5544549Y-4595734D01*
X5544549Y-4595734D02*
X5530263Y-4588591D01*
X5530263Y-4588591D02*
X5494549Y-4588591D01*
X5494549Y-4588591D02*
X5480263Y-4595734D01*
X5480263Y-4595734D02*
X5473120Y-4602877D01*
X5473120Y-4602877D02*
X5465977Y-4617163D01*
X5465977Y-4617163D02*
X5465977Y-4631448D01*
X5465977Y-4631448D02*
X5473120Y-4652877D01*
X5473120Y-4652877D02*
X5558835Y-4738591D01*
X5558835Y-4738591D02*
X5465977Y-4738591D01*
X5373120Y-4588591D02*
X5358835Y-4588591D01*
X5358835Y-4588591D02*
X5344549Y-4595734D01*
X5344549Y-4595734D02*
X5337406Y-4602877D01*
X5337406Y-4602877D02*
X5330263Y-4617163D01*
X5330263Y-4617163D02*
X5323120Y-4645734D01*
X5323120Y-4645734D02*
X5323120Y-4681448D01*
X5323120Y-4681448D02*
X5330263Y-4710020D01*
X5330263Y-4710020D02*
X5337406Y-4724306D01*
X5337406Y-4724306D02*
X5344549Y-4731448D01*
X5344549Y-4731448D02*
X5358835Y-4738591D01*
X5358835Y-4738591D02*
X5373120Y-4738591D01*
X5373120Y-4738591D02*
X5387406Y-4731448D01*
X5387406Y-4731448D02*
X5394549Y-4724306D01*
X5394549Y-4724306D02*
X5401692Y-4710020D01*
X5401692Y-4710020D02*
X5408835Y-4681448D01*
X5408835Y-4681448D02*
X5408835Y-4645734D01*
X5408835Y-4645734D02*
X5401692Y-4617163D01*
X5401692Y-4617163D02*
X5394549Y-4602877D01*
X5394549Y-4602877D02*
X5387406Y-4595734D01*
X5387406Y-4595734D02*
X5373120Y-4588591D01*
X5265978Y-4602877D02*
X5258835Y-4595734D01*
X5258835Y-4595734D02*
X5244549Y-4588591D01*
X5244549Y-4588591D02*
X5208835Y-4588591D01*
X5208835Y-4588591D02*
X5194549Y-4595734D01*
X5194549Y-4595734D02*
X5187406Y-4602877D01*
X5187406Y-4602877D02*
X5180263Y-4617163D01*
X5180263Y-4617163D02*
X5180263Y-4631448D01*
X5180263Y-4631448D02*
X5187406Y-4652877D01*
X5187406Y-4652877D02*
X5273120Y-4738591D01*
X5273120Y-4738591D02*
X5180263Y-4738591D01*
X5044549Y-4588591D02*
X5115978Y-4588591D01*
X5115978Y-4588591D02*
X5123120Y-4660020D01*
X5123120Y-4660020D02*
X5115978Y-4652877D01*
X5115978Y-4652877D02*
X5101692Y-4645734D01*
X5101692Y-4645734D02*
X5065978Y-4645734D01*
X5065978Y-4645734D02*
X5051692Y-4652877D01*
X5051692Y-4652877D02*
X5044549Y-4660020D01*
X5044549Y-4660020D02*
X5037406Y-4674306D01*
X5037406Y-4674306D02*
X5037406Y-4710020D01*
X5037406Y-4710020D02*
X5044549Y-4724306D01*
X5044549Y-4724306D02*
X5051692Y-4731448D01*
X5051692Y-4731448D02*
X5065978Y-4738591D01*
X5065978Y-4738591D02*
X5101692Y-4738591D01*
X5101692Y-4738591D02*
X5115978Y-4731448D01*
X5115978Y-4731448D02*
X5123120Y-4724306D01*
X4973121Y-4681448D02*
X4858835Y-4681448D01*
X4758835Y-4588591D02*
X4744549Y-4588591D01*
X4744549Y-4588591D02*
X4730263Y-4595734D01*
X4730263Y-4595734D02*
X4723121Y-4602877D01*
X4723121Y-4602877D02*
X4715978Y-4617163D01*
X4715978Y-4617163D02*
X4708835Y-4645734D01*
X4708835Y-4645734D02*
X4708835Y-4681448D01*
X4708835Y-4681448D02*
X4715978Y-4710020D01*
X4715978Y-4710020D02*
X4723121Y-4724306D01*
X4723121Y-4724306D02*
X4730263Y-4731448D01*
X4730263Y-4731448D02*
X4744549Y-4738591D01*
X4744549Y-4738591D02*
X4758835Y-4738591D01*
X4758835Y-4738591D02*
X4773121Y-4731448D01*
X4773121Y-4731448D02*
X4780263Y-4724306D01*
X4780263Y-4724306D02*
X4787406Y-4710020D01*
X4787406Y-4710020D02*
X4794549Y-4681448D01*
X4794549Y-4681448D02*
X4794549Y-4645734D01*
X4794549Y-4645734D02*
X4787406Y-4617163D01*
X4787406Y-4617163D02*
X4780263Y-4602877D01*
X4780263Y-4602877D02*
X4773121Y-4595734D01*
X4773121Y-4595734D02*
X4758835Y-4588591D01*
X4623121Y-4652877D02*
X4637406Y-4645734D01*
X4637406Y-4645734D02*
X4644549Y-4638591D01*
X4644549Y-4638591D02*
X4651692Y-4624306D01*
X4651692Y-4624306D02*
X4651692Y-4617163D01*
X4651692Y-4617163D02*
X4644549Y-4602877D01*
X4644549Y-4602877D02*
X4637406Y-4595734D01*
X4637406Y-4595734D02*
X4623121Y-4588591D01*
X4623121Y-4588591D02*
X4594549Y-4588591D01*
X4594549Y-4588591D02*
X4580263Y-4595734D01*
X4580263Y-4595734D02*
X4573121Y-4602877D01*
X4573121Y-4602877D02*
X4565978Y-4617163D01*
X4565978Y-4617163D02*
X4565978Y-4624306D01*
X4565978Y-4624306D02*
X4573121Y-4638591D01*
X4573121Y-4638591D02*
X4580263Y-4645734D01*
X4580263Y-4645734D02*
X4594549Y-4652877D01*
X4594549Y-4652877D02*
X4623121Y-4652877D01*
X4623121Y-4652877D02*
X4637406Y-4660020D01*
X4637406Y-4660020D02*
X4644549Y-4667163D01*
X4644549Y-4667163D02*
X4651692Y-4681448D01*
X4651692Y-4681448D02*
X4651692Y-4710020D01*
X4651692Y-4710020D02*
X4644549Y-4724306D01*
X4644549Y-4724306D02*
X4637406Y-4731448D01*
X4637406Y-4731448D02*
X4623121Y-4738591D01*
X4623121Y-4738591D02*
X4594549Y-4738591D01*
X4594549Y-4738591D02*
X4580263Y-4731448D01*
X4580263Y-4731448D02*
X4573121Y-4724306D01*
X4573121Y-4724306D02*
X4565978Y-4710020D01*
X4565978Y-4710020D02*
X4565978Y-4681448D01*
X4565978Y-4681448D02*
X4573121Y-4667163D01*
X4573121Y-4667163D02*
X4580263Y-4660020D01*
X4580263Y-4660020D02*
X4594549Y-4652877D01*
X4501692Y-4681448D02*
X4387406Y-4681448D01*
X4323121Y-4602877D02*
X4315978Y-4595734D01*
X4315978Y-4595734D02*
X4301692Y-4588591D01*
X4301692Y-4588591D02*
X4265978Y-4588591D01*
X4265978Y-4588591D02*
X4251692Y-4595734D01*
X4251692Y-4595734D02*
X4244549Y-4602877D01*
X4244549Y-4602877D02*
X4237406Y-4617163D01*
X4237406Y-4617163D02*
X4237406Y-4631448D01*
X4237406Y-4631448D02*
X4244549Y-4652877D01*
X4244549Y-4652877D02*
X4330263Y-4738591D01*
X4330263Y-4738591D02*
X4237406Y-4738591D01*
X4144549Y-4588591D02*
X4130263Y-4588591D01*
X4130263Y-4588591D02*
X4115978Y-4595734D01*
X4115978Y-4595734D02*
X4108835Y-4602877D01*
X4108835Y-4602877D02*
X4101692Y-4617163D01*
X4101692Y-4617163D02*
X4094549Y-4645734D01*
X4094549Y-4645734D02*
X4094549Y-4681448D01*
X4094549Y-4681448D02*
X4101692Y-4710020D01*
X4101692Y-4710020D02*
X4108835Y-4724306D01*
X4108835Y-4724306D02*
X4115978Y-4731448D01*
X4115978Y-4731448D02*
X4130263Y-4738591D01*
X4130263Y-4738591D02*
X4144549Y-4738591D01*
X4144549Y-4738591D02*
X4158835Y-4731448D01*
X4158835Y-4731448D02*
X4165978Y-4724306D01*
X4165978Y-4724306D02*
X4173121Y-4710020D01*
X4173121Y-4710020D02*
X4180263Y-4681448D01*
X4180263Y-4681448D02*
X4180263Y-4645734D01*
X4180263Y-4645734D02*
X4173121Y-4617163D01*
X4173121Y-4617163D02*
X4165978Y-4602877D01*
X4165978Y-4602877D02*
X4158835Y-4595734D01*
X4158835Y-4595734D02*
X4144549Y-4588591D01*
X5565977Y-4830083D02*
X5515977Y-4980083D01*
X5515977Y-4980083D02*
X5465977Y-4830083D01*
X5337406Y-4980083D02*
X5423120Y-4980083D01*
X5380263Y-4980083D02*
X5380263Y-4830083D01*
X5380263Y-4830083D02*
X5394549Y-4851511D01*
X5394549Y-4851511D02*
X5408835Y-4865797D01*
X5408835Y-4865797D02*
X5423120Y-4872940D01*
%LPC*%
D11*
X7511750Y-5750000D03*
D12*
X7511750Y-5250000D03*
X7511750Y-4750000D03*
D13*
X5850000Y-1963250D03*
D12*
X5350000Y-1963250D03*
X4850000Y-1963250D03*
D14*
X7390000Y-3780000D03*
X6690000Y-3780000D03*
X2000000Y-5500000D03*
X2700000Y-5500000D03*
D15*
X3850000Y-7600000D03*
D12*
X4350000Y-7600000D03*
X4850000Y-7600000D03*
D14*
X5800000Y-7450000D03*
X5800000Y-6750000D03*
X3900000Y-2050000D03*
X3900000Y-2750000D03*
D16*
X1913250Y-3550000D03*
D12*
X1913250Y-4050000D03*
X1913250Y-4550000D03*
%LPD*%
M02*
