G04 #@! TF.GenerationSoftware,KiCad,Pcbnew,9.0.3*
G04 #@! TF.CreationDate,2025-08-26T17:56:25-07:00*
G04 #@! TF.ProjectId,i2c_breakout,6932635f-6272-4656-916b-6f75742e6b69,v1.0.0*
G04 #@! TF.SameCoordinates,Original*
G04 #@! TF.FileFunction,Legend,Bot*
G04 #@! TF.FilePolarity,Positive*
%FSLAX45Y45*%
G04 Gerber Fmt 4.5, Leading zero omitted, Abs format (unit mm)*
G04 Created by KiCad (PCBNEW 9.0.3) date 2025-08-26 17:56:25*
%MOMM*%
%LPD*%
G01*
G04 APERTURE LIST*
%ADD10C,0.150000*%
%ADD11C,5.700000*%
G04 APERTURE END LIST*
D10*
X14631084Y-6192528D02*
X14626322Y-6187766D01*
X14626322Y-6187766D02*
X14616798Y-6183004D01*
X14616798Y-6183004D02*
X14592989Y-6183004D01*
X14592989Y-6183004D02*
X14583465Y-6187766D01*
X14583465Y-6187766D02*
X14578703Y-6192528D01*
X14578703Y-6192528D02*
X14573941Y-6202052D01*
X14573941Y-6202052D02*
X14573941Y-6211576D01*
X14573941Y-6211576D02*
X14578703Y-6225861D01*
X14578703Y-6225861D02*
X14635846Y-6283004D01*
X14635846Y-6283004D02*
X14573941Y-6283004D01*
X14512036Y-6183004D02*
X14502512Y-6183004D01*
X14502512Y-6183004D02*
X14492989Y-6187766D01*
X14492989Y-6187766D02*
X14488227Y-6192528D01*
X14488227Y-6192528D02*
X14483465Y-6202052D01*
X14483465Y-6202052D02*
X14478703Y-6221099D01*
X14478703Y-6221099D02*
X14478703Y-6244909D01*
X14478703Y-6244909D02*
X14483465Y-6263957D01*
X14483465Y-6263957D02*
X14488227Y-6273480D01*
X14488227Y-6273480D02*
X14492989Y-6278242D01*
X14492989Y-6278242D02*
X14502512Y-6283004D01*
X14502512Y-6283004D02*
X14512036Y-6283004D01*
X14512036Y-6283004D02*
X14521560Y-6278242D01*
X14521560Y-6278242D02*
X14526322Y-6273480D01*
X14526322Y-6273480D02*
X14531084Y-6263957D01*
X14531084Y-6263957D02*
X14535846Y-6244909D01*
X14535846Y-6244909D02*
X14535846Y-6221099D01*
X14535846Y-6221099D02*
X14531084Y-6202052D01*
X14531084Y-6202052D02*
X14526322Y-6192528D01*
X14526322Y-6192528D02*
X14521560Y-6187766D01*
X14521560Y-6187766D02*
X14512036Y-6183004D01*
X14440608Y-6192528D02*
X14435846Y-6187766D01*
X14435846Y-6187766D02*
X14426322Y-6183004D01*
X14426322Y-6183004D02*
X14402512Y-6183004D01*
X14402512Y-6183004D02*
X14392989Y-6187766D01*
X14392989Y-6187766D02*
X14388227Y-6192528D01*
X14388227Y-6192528D02*
X14383465Y-6202052D01*
X14383465Y-6202052D02*
X14383465Y-6211576D01*
X14383465Y-6211576D02*
X14388227Y-6225861D01*
X14388227Y-6225861D02*
X14445370Y-6283004D01*
X14445370Y-6283004D02*
X14383465Y-6283004D01*
X14292989Y-6183004D02*
X14340608Y-6183004D01*
X14340608Y-6183004D02*
X14345370Y-6230623D01*
X14345370Y-6230623D02*
X14340608Y-6225861D01*
X14340608Y-6225861D02*
X14331084Y-6221099D01*
X14331084Y-6221099D02*
X14307274Y-6221099D01*
X14307274Y-6221099D02*
X14297751Y-6225861D01*
X14297751Y-6225861D02*
X14292989Y-6230623D01*
X14292989Y-6230623D02*
X14288227Y-6240147D01*
X14288227Y-6240147D02*
X14288227Y-6263957D01*
X14288227Y-6263957D02*
X14292989Y-6273480D01*
X14292989Y-6273480D02*
X14297751Y-6278242D01*
X14297751Y-6278242D02*
X14307274Y-6283004D01*
X14307274Y-6283004D02*
X14331084Y-6283004D01*
X14331084Y-6283004D02*
X14340608Y-6278242D01*
X14340608Y-6278242D02*
X14345370Y-6273480D01*
X14245370Y-6244909D02*
X14169179Y-6244909D01*
X14102512Y-6183004D02*
X14092989Y-6183004D01*
X14092989Y-6183004D02*
X14083465Y-6187766D01*
X14083465Y-6187766D02*
X14078703Y-6192528D01*
X14078703Y-6192528D02*
X14073941Y-6202052D01*
X14073941Y-6202052D02*
X14069179Y-6221099D01*
X14069179Y-6221099D02*
X14069179Y-6244909D01*
X14069179Y-6244909D02*
X14073941Y-6263957D01*
X14073941Y-6263957D02*
X14078703Y-6273480D01*
X14078703Y-6273480D02*
X14083465Y-6278242D01*
X14083465Y-6278242D02*
X14092989Y-6283004D01*
X14092989Y-6283004D02*
X14102512Y-6283004D01*
X14102512Y-6283004D02*
X14112036Y-6278242D01*
X14112036Y-6278242D02*
X14116798Y-6273480D01*
X14116798Y-6273480D02*
X14121560Y-6263957D01*
X14121560Y-6263957D02*
X14126322Y-6244909D01*
X14126322Y-6244909D02*
X14126322Y-6221099D01*
X14126322Y-6221099D02*
X14121560Y-6202052D01*
X14121560Y-6202052D02*
X14116798Y-6192528D01*
X14116798Y-6192528D02*
X14112036Y-6187766D01*
X14112036Y-6187766D02*
X14102512Y-6183004D01*
X14012036Y-6225861D02*
X14021560Y-6221099D01*
X14021560Y-6221099D02*
X14026322Y-6216338D01*
X14026322Y-6216338D02*
X14031084Y-6206814D01*
X14031084Y-6206814D02*
X14031084Y-6202052D01*
X14031084Y-6202052D02*
X14026322Y-6192528D01*
X14026322Y-6192528D02*
X14021560Y-6187766D01*
X14021560Y-6187766D02*
X14012036Y-6183004D01*
X14012036Y-6183004D02*
X13992989Y-6183004D01*
X13992989Y-6183004D02*
X13983465Y-6187766D01*
X13983465Y-6187766D02*
X13978703Y-6192528D01*
X13978703Y-6192528D02*
X13973941Y-6202052D01*
X13973941Y-6202052D02*
X13973941Y-6206814D01*
X13973941Y-6206814D02*
X13978703Y-6216338D01*
X13978703Y-6216338D02*
X13983465Y-6221099D01*
X13983465Y-6221099D02*
X13992989Y-6225861D01*
X13992989Y-6225861D02*
X14012036Y-6225861D01*
X14012036Y-6225861D02*
X14021560Y-6230623D01*
X14021560Y-6230623D02*
X14026322Y-6235385D01*
X14026322Y-6235385D02*
X14031084Y-6244909D01*
X14031084Y-6244909D02*
X14031084Y-6263957D01*
X14031084Y-6263957D02*
X14026322Y-6273480D01*
X14026322Y-6273480D02*
X14021560Y-6278242D01*
X14021560Y-6278242D02*
X14012036Y-6283004D01*
X14012036Y-6283004D02*
X13992989Y-6283004D01*
X13992989Y-6283004D02*
X13983465Y-6278242D01*
X13983465Y-6278242D02*
X13978703Y-6273480D01*
X13978703Y-6273480D02*
X13973941Y-6263957D01*
X13973941Y-6263957D02*
X13973941Y-6244909D01*
X13973941Y-6244909D02*
X13978703Y-6235385D01*
X13978703Y-6235385D02*
X13983465Y-6230623D01*
X13983465Y-6230623D02*
X13992989Y-6225861D01*
X13931084Y-6244909D02*
X13854893Y-6244909D01*
X13812036Y-6192528D02*
X13807274Y-6187766D01*
X13807274Y-6187766D02*
X13797751Y-6183004D01*
X13797751Y-6183004D02*
X13773941Y-6183004D01*
X13773941Y-6183004D02*
X13764417Y-6187766D01*
X13764417Y-6187766D02*
X13759655Y-6192528D01*
X13759655Y-6192528D02*
X13754893Y-6202052D01*
X13754893Y-6202052D02*
X13754893Y-6211576D01*
X13754893Y-6211576D02*
X13759655Y-6225861D01*
X13759655Y-6225861D02*
X13816798Y-6283004D01*
X13816798Y-6283004D02*
X13754893Y-6283004D01*
X13669179Y-6183004D02*
X13688227Y-6183004D01*
X13688227Y-6183004D02*
X13697751Y-6187766D01*
X13697751Y-6187766D02*
X13702512Y-6192528D01*
X13702512Y-6192528D02*
X13712036Y-6206814D01*
X13712036Y-6206814D02*
X13716798Y-6225861D01*
X13716798Y-6225861D02*
X13716798Y-6263957D01*
X13716798Y-6263957D02*
X13712036Y-6273480D01*
X13712036Y-6273480D02*
X13707274Y-6278242D01*
X13707274Y-6278242D02*
X13697751Y-6283004D01*
X13697751Y-6283004D02*
X13678703Y-6283004D01*
X13678703Y-6283004D02*
X13669179Y-6278242D01*
X13669179Y-6278242D02*
X13664417Y-6273480D01*
X13664417Y-6273480D02*
X13659655Y-6263957D01*
X13659655Y-6263957D02*
X13659655Y-6240147D01*
X13659655Y-6240147D02*
X13664417Y-6230623D01*
X13664417Y-6230623D02*
X13669179Y-6225861D01*
X13669179Y-6225861D02*
X13678703Y-6221099D01*
X13678703Y-6221099D02*
X13697751Y-6221099D01*
X13697751Y-6221099D02*
X13707274Y-6225861D01*
X13707274Y-6225861D02*
X13712036Y-6230623D01*
X13712036Y-6230623D02*
X13716798Y-6240147D01*
X14626322Y-6443999D02*
X14626322Y-6343999D01*
X14583465Y-6353522D02*
X14578703Y-6348761D01*
X14578703Y-6348761D02*
X14569179Y-6343999D01*
X14569179Y-6343999D02*
X14545370Y-6343999D01*
X14545370Y-6343999D02*
X14535846Y-6348761D01*
X14535846Y-6348761D02*
X14531084Y-6353522D01*
X14531084Y-6353522D02*
X14526322Y-6363046D01*
X14526322Y-6363046D02*
X14526322Y-6372570D01*
X14526322Y-6372570D02*
X14531084Y-6386856D01*
X14531084Y-6386856D02*
X14588227Y-6443999D01*
X14588227Y-6443999D02*
X14526322Y-6443999D01*
X14426322Y-6434475D02*
X14431084Y-6439237D01*
X14431084Y-6439237D02*
X14445370Y-6443999D01*
X14445370Y-6443999D02*
X14454893Y-6443999D01*
X14454893Y-6443999D02*
X14469179Y-6439237D01*
X14469179Y-6439237D02*
X14478703Y-6429713D01*
X14478703Y-6429713D02*
X14483465Y-6420189D01*
X14483465Y-6420189D02*
X14488227Y-6401141D01*
X14488227Y-6401141D02*
X14488227Y-6386856D01*
X14488227Y-6386856D02*
X14483465Y-6367808D01*
X14483465Y-6367808D02*
X14478703Y-6358284D01*
X14478703Y-6358284D02*
X14469179Y-6348761D01*
X14469179Y-6348761D02*
X14454893Y-6343999D01*
X14454893Y-6343999D02*
X14445370Y-6343999D01*
X14445370Y-6343999D02*
X14431084Y-6348761D01*
X14431084Y-6348761D02*
X14426322Y-6353522D01*
X14273941Y-6391618D02*
X14259655Y-6396380D01*
X14259655Y-6396380D02*
X14254893Y-6401141D01*
X14254893Y-6401141D02*
X14250132Y-6410665D01*
X14250132Y-6410665D02*
X14250132Y-6424951D01*
X14250132Y-6424951D02*
X14254893Y-6434475D01*
X14254893Y-6434475D02*
X14259655Y-6439237D01*
X14259655Y-6439237D02*
X14269179Y-6443999D01*
X14269179Y-6443999D02*
X14307274Y-6443999D01*
X14307274Y-6443999D02*
X14307274Y-6343999D01*
X14307274Y-6343999D02*
X14273941Y-6343999D01*
X14273941Y-6343999D02*
X14264417Y-6348761D01*
X14264417Y-6348761D02*
X14259655Y-6353522D01*
X14259655Y-6353522D02*
X14254893Y-6363046D01*
X14254893Y-6363046D02*
X14254893Y-6372570D01*
X14254893Y-6372570D02*
X14259655Y-6382094D01*
X14259655Y-6382094D02*
X14264417Y-6386856D01*
X14264417Y-6386856D02*
X14273941Y-6391618D01*
X14273941Y-6391618D02*
X14307274Y-6391618D01*
X14207274Y-6443999D02*
X14207274Y-6377332D01*
X14207274Y-6396380D02*
X14202512Y-6386856D01*
X14202512Y-6386856D02*
X14197751Y-6382094D01*
X14197751Y-6382094D02*
X14188227Y-6377332D01*
X14188227Y-6377332D02*
X14178703Y-6377332D01*
X14107274Y-6439237D02*
X14116798Y-6443999D01*
X14116798Y-6443999D02*
X14135846Y-6443999D01*
X14135846Y-6443999D02*
X14145370Y-6439237D01*
X14145370Y-6439237D02*
X14150131Y-6429713D01*
X14150131Y-6429713D02*
X14150131Y-6391618D01*
X14150131Y-6391618D02*
X14145370Y-6382094D01*
X14145370Y-6382094D02*
X14135846Y-6377332D01*
X14135846Y-6377332D02*
X14116798Y-6377332D01*
X14116798Y-6377332D02*
X14107274Y-6382094D01*
X14107274Y-6382094D02*
X14102512Y-6391618D01*
X14102512Y-6391618D02*
X14102512Y-6401141D01*
X14102512Y-6401141D02*
X14150131Y-6410665D01*
X14016798Y-6443999D02*
X14016798Y-6391618D01*
X14016798Y-6391618D02*
X14021560Y-6382094D01*
X14021560Y-6382094D02*
X14031084Y-6377332D01*
X14031084Y-6377332D02*
X14050131Y-6377332D01*
X14050131Y-6377332D02*
X14059655Y-6382094D01*
X14016798Y-6439237D02*
X14026322Y-6443999D01*
X14026322Y-6443999D02*
X14050131Y-6443999D01*
X14050131Y-6443999D02*
X14059655Y-6439237D01*
X14059655Y-6439237D02*
X14064417Y-6429713D01*
X14064417Y-6429713D02*
X14064417Y-6420189D01*
X14064417Y-6420189D02*
X14059655Y-6410665D01*
X14059655Y-6410665D02*
X14050131Y-6405903D01*
X14050131Y-6405903D02*
X14026322Y-6405903D01*
X14026322Y-6405903D02*
X14016798Y-6401141D01*
X13969179Y-6443999D02*
X13969179Y-6343999D01*
X13959655Y-6405903D02*
X13931084Y-6443999D01*
X13931084Y-6377332D02*
X13969179Y-6415427D01*
X13873941Y-6443999D02*
X13883465Y-6439237D01*
X13883465Y-6439237D02*
X13888227Y-6434475D01*
X13888227Y-6434475D02*
X13892989Y-6424951D01*
X13892989Y-6424951D02*
X13892989Y-6396380D01*
X13892989Y-6396380D02*
X13888227Y-6386856D01*
X13888227Y-6386856D02*
X13883465Y-6382094D01*
X13883465Y-6382094D02*
X13873941Y-6377332D01*
X13873941Y-6377332D02*
X13859655Y-6377332D01*
X13859655Y-6377332D02*
X13850131Y-6382094D01*
X13850131Y-6382094D02*
X13845370Y-6386856D01*
X13845370Y-6386856D02*
X13840608Y-6396380D01*
X13840608Y-6396380D02*
X13840608Y-6424951D01*
X13840608Y-6424951D02*
X13845370Y-6434475D01*
X13845370Y-6434475D02*
X13850131Y-6439237D01*
X13850131Y-6439237D02*
X13859655Y-6443999D01*
X13859655Y-6443999D02*
X13873941Y-6443999D01*
X13754893Y-6377332D02*
X13754893Y-6443999D01*
X13797750Y-6377332D02*
X13797750Y-6429713D01*
X13797750Y-6429713D02*
X13792989Y-6439237D01*
X13792989Y-6439237D02*
X13783465Y-6443999D01*
X13783465Y-6443999D02*
X13769179Y-6443999D01*
X13769179Y-6443999D02*
X13759655Y-6439237D01*
X13759655Y-6439237D02*
X13754893Y-6434475D01*
X13721560Y-6377332D02*
X13683465Y-6377332D01*
X13707274Y-6343999D02*
X13707274Y-6429713D01*
X13707274Y-6429713D02*
X13702512Y-6439237D01*
X13702512Y-6439237D02*
X13692989Y-6443999D01*
X13692989Y-6443999D02*
X13683465Y-6443999D01*
X13540608Y-6391618D02*
X13526322Y-6396380D01*
X13526322Y-6396380D02*
X13521560Y-6401141D01*
X13521560Y-6401141D02*
X13516798Y-6410665D01*
X13516798Y-6410665D02*
X13516798Y-6424951D01*
X13516798Y-6424951D02*
X13521560Y-6434475D01*
X13521560Y-6434475D02*
X13526322Y-6439237D01*
X13526322Y-6439237D02*
X13535846Y-6443999D01*
X13535846Y-6443999D02*
X13573941Y-6443999D01*
X13573941Y-6443999D02*
X13573941Y-6343999D01*
X13573941Y-6343999D02*
X13540608Y-6343999D01*
X13540608Y-6343999D02*
X13531084Y-6348761D01*
X13531084Y-6348761D02*
X13526322Y-6353522D01*
X13526322Y-6353522D02*
X13521560Y-6363046D01*
X13521560Y-6363046D02*
X13521560Y-6372570D01*
X13521560Y-6372570D02*
X13526322Y-6382094D01*
X13526322Y-6382094D02*
X13531084Y-6386856D01*
X13531084Y-6386856D02*
X13540608Y-6391618D01*
X13540608Y-6391618D02*
X13573941Y-6391618D01*
X13459655Y-6443999D02*
X13469179Y-6439237D01*
X13469179Y-6439237D02*
X13473941Y-6434475D01*
X13473941Y-6434475D02*
X13478703Y-6424951D01*
X13478703Y-6424951D02*
X13478703Y-6396380D01*
X13478703Y-6396380D02*
X13473941Y-6386856D01*
X13473941Y-6386856D02*
X13469179Y-6382094D01*
X13469179Y-6382094D02*
X13459655Y-6377332D01*
X13459655Y-6377332D02*
X13445369Y-6377332D01*
X13445369Y-6377332D02*
X13435846Y-6382094D01*
X13435846Y-6382094D02*
X13431084Y-6386856D01*
X13431084Y-6386856D02*
X13426322Y-6396380D01*
X13426322Y-6396380D02*
X13426322Y-6424951D01*
X13426322Y-6424951D02*
X13431084Y-6434475D01*
X13431084Y-6434475D02*
X13435846Y-6439237D01*
X13435846Y-6439237D02*
X13445369Y-6443999D01*
X13445369Y-6443999D02*
X13459655Y-6443999D01*
X13340608Y-6443999D02*
X13340608Y-6391618D01*
X13340608Y-6391618D02*
X13345369Y-6382094D01*
X13345369Y-6382094D02*
X13354893Y-6377332D01*
X13354893Y-6377332D02*
X13373941Y-6377332D01*
X13373941Y-6377332D02*
X13383465Y-6382094D01*
X13340608Y-6439237D02*
X13350131Y-6443999D01*
X13350131Y-6443999D02*
X13373941Y-6443999D01*
X13373941Y-6443999D02*
X13383465Y-6439237D01*
X13383465Y-6439237D02*
X13388227Y-6429713D01*
X13388227Y-6429713D02*
X13388227Y-6420189D01*
X13388227Y-6420189D02*
X13383465Y-6410665D01*
X13383465Y-6410665D02*
X13373941Y-6405903D01*
X13373941Y-6405903D02*
X13350131Y-6405903D01*
X13350131Y-6405903D02*
X13340608Y-6401141D01*
X13292988Y-6443999D02*
X13292988Y-6377332D01*
X13292988Y-6396380D02*
X13288227Y-6386856D01*
X13288227Y-6386856D02*
X13283465Y-6382094D01*
X13283465Y-6382094D02*
X13273941Y-6377332D01*
X13273941Y-6377332D02*
X13264417Y-6377332D01*
X13188227Y-6443999D02*
X13188227Y-6343999D01*
X13188227Y-6439237D02*
X13197750Y-6443999D01*
X13197750Y-6443999D02*
X13216798Y-6443999D01*
X13216798Y-6443999D02*
X13226322Y-6439237D01*
X13226322Y-6439237D02*
X13231084Y-6434475D01*
X13231084Y-6434475D02*
X13235846Y-6424951D01*
X13235846Y-6424951D02*
X13235846Y-6396380D01*
X13235846Y-6396380D02*
X13231084Y-6386856D01*
X13231084Y-6386856D02*
X13226322Y-6382094D01*
X13226322Y-6382094D02*
X13216798Y-6377332D01*
X13216798Y-6377332D02*
X13197750Y-6377332D01*
X13197750Y-6377332D02*
X13188227Y-6382094D01*
X14635846Y-6538326D02*
X14612036Y-6604993D01*
X14612036Y-6604993D02*
X14588227Y-6538326D01*
X14497751Y-6604993D02*
X14554893Y-6604993D01*
X14526322Y-6604993D02*
X14526322Y-6504993D01*
X14526322Y-6504993D02*
X14535846Y-6519279D01*
X14535846Y-6519279D02*
X14545370Y-6528803D01*
X14545370Y-6528803D02*
X14554893Y-6533564D01*
X14454893Y-6595469D02*
X14450131Y-6600231D01*
X14450131Y-6600231D02*
X14454893Y-6604993D01*
X14454893Y-6604993D02*
X14459655Y-6600231D01*
X14459655Y-6600231D02*
X14454893Y-6595469D01*
X14454893Y-6595469D02*
X14454893Y-6604993D01*
X14388227Y-6504993D02*
X14378703Y-6504993D01*
X14378703Y-6504993D02*
X14369179Y-6509755D01*
X14369179Y-6509755D02*
X14364417Y-6514517D01*
X14364417Y-6514517D02*
X14359655Y-6524041D01*
X14359655Y-6524041D02*
X14354893Y-6543088D01*
X14354893Y-6543088D02*
X14354893Y-6566898D01*
X14354893Y-6566898D02*
X14359655Y-6585945D01*
X14359655Y-6585945D02*
X14364417Y-6595469D01*
X14364417Y-6595469D02*
X14369179Y-6600231D01*
X14369179Y-6600231D02*
X14378703Y-6604993D01*
X14378703Y-6604993D02*
X14388227Y-6604993D01*
X14388227Y-6604993D02*
X14397751Y-6600231D01*
X14397751Y-6600231D02*
X14402512Y-6595469D01*
X14402512Y-6595469D02*
X14407274Y-6585945D01*
X14407274Y-6585945D02*
X14412036Y-6566898D01*
X14412036Y-6566898D02*
X14412036Y-6543088D01*
X14412036Y-6543088D02*
X14407274Y-6524041D01*
X14407274Y-6524041D02*
X14402512Y-6514517D01*
X14402512Y-6514517D02*
X14397751Y-6509755D01*
X14397751Y-6509755D02*
X14388227Y-6504993D01*
X14312036Y-6595469D02*
X14307274Y-6600231D01*
X14307274Y-6600231D02*
X14312036Y-6604993D01*
X14312036Y-6604993D02*
X14316798Y-6600231D01*
X14316798Y-6600231D02*
X14312036Y-6595469D01*
X14312036Y-6595469D02*
X14312036Y-6604993D01*
X14245370Y-6504993D02*
X14235846Y-6504993D01*
X14235846Y-6504993D02*
X14226322Y-6509755D01*
X14226322Y-6509755D02*
X14221560Y-6514517D01*
X14221560Y-6514517D02*
X14216798Y-6524041D01*
X14216798Y-6524041D02*
X14212036Y-6543088D01*
X14212036Y-6543088D02*
X14212036Y-6566898D01*
X14212036Y-6566898D02*
X14216798Y-6585945D01*
X14216798Y-6585945D02*
X14221560Y-6595469D01*
X14221560Y-6595469D02*
X14226322Y-6600231D01*
X14226322Y-6600231D02*
X14235846Y-6604993D01*
X14235846Y-6604993D02*
X14245370Y-6604993D01*
X14245370Y-6604993D02*
X14254893Y-6600231D01*
X14254893Y-6600231D02*
X14259655Y-6595469D01*
X14259655Y-6595469D02*
X14264417Y-6585945D01*
X14264417Y-6585945D02*
X14269179Y-6566898D01*
X14269179Y-6566898D02*
X14269179Y-6543088D01*
X14269179Y-6543088D02*
X14264417Y-6524041D01*
X14264417Y-6524041D02*
X14259655Y-6514517D01*
X14259655Y-6514517D02*
X14254893Y-6509755D01*
X14254893Y-6509755D02*
X14245370Y-6504993D01*
X14626322Y-6699321D02*
X14626322Y-6785035D01*
X14626322Y-6785035D02*
X14631084Y-6794559D01*
X14631084Y-6794559D02*
X14640608Y-6799321D01*
X14640608Y-6799321D02*
X14645370Y-6799321D01*
X14626322Y-6665987D02*
X14631084Y-6670749D01*
X14631084Y-6670749D02*
X14626322Y-6675511D01*
X14626322Y-6675511D02*
X14621560Y-6670749D01*
X14621560Y-6670749D02*
X14626322Y-6665987D01*
X14626322Y-6665987D02*
X14626322Y-6675511D01*
X14564417Y-6765987D02*
X14573941Y-6761226D01*
X14573941Y-6761226D02*
X14578703Y-6751702D01*
X14578703Y-6751702D02*
X14578703Y-6665987D01*
X14483465Y-6765987D02*
X14483465Y-6713606D01*
X14483465Y-6713606D02*
X14488227Y-6704083D01*
X14488227Y-6704083D02*
X14497751Y-6699321D01*
X14497751Y-6699321D02*
X14516798Y-6699321D01*
X14516798Y-6699321D02*
X14526322Y-6704083D01*
X14483465Y-6761226D02*
X14492989Y-6765987D01*
X14492989Y-6765987D02*
X14516798Y-6765987D01*
X14516798Y-6765987D02*
X14526322Y-6761226D01*
X14526322Y-6761226D02*
X14531084Y-6751702D01*
X14531084Y-6751702D02*
X14531084Y-6742178D01*
X14531084Y-6742178D02*
X14526322Y-6732654D01*
X14526322Y-6732654D02*
X14516798Y-6727892D01*
X14516798Y-6727892D02*
X14492989Y-6727892D01*
X14492989Y-6727892D02*
X14483465Y-6723130D01*
X14435846Y-6765987D02*
X14435846Y-6665987D01*
X14435846Y-6704083D02*
X14426322Y-6699321D01*
X14426322Y-6699321D02*
X14407274Y-6699321D01*
X14407274Y-6699321D02*
X14397751Y-6704083D01*
X14397751Y-6704083D02*
X14392989Y-6708845D01*
X14392989Y-6708845D02*
X14388227Y-6718368D01*
X14388227Y-6718368D02*
X14388227Y-6746940D01*
X14388227Y-6746940D02*
X14392989Y-6756464D01*
X14392989Y-6756464D02*
X14397751Y-6761226D01*
X14397751Y-6761226D02*
X14407274Y-6765987D01*
X14407274Y-6765987D02*
X14426322Y-6765987D01*
X14426322Y-6765987D02*
X14435846Y-6761226D01*
X14597751Y-6826982D02*
X14597751Y-6898410D01*
X14597751Y-6898410D02*
X14602512Y-6912696D01*
X14602512Y-6912696D02*
X14612036Y-6922220D01*
X14612036Y-6922220D02*
X14626322Y-6926982D01*
X14626322Y-6926982D02*
X14635846Y-6926982D01*
X14535846Y-6926982D02*
X14545370Y-6922220D01*
X14545370Y-6922220D02*
X14550131Y-6917458D01*
X14550131Y-6917458D02*
X14554893Y-6907934D01*
X14554893Y-6907934D02*
X14554893Y-6879363D01*
X14554893Y-6879363D02*
X14550131Y-6869839D01*
X14550131Y-6869839D02*
X14545370Y-6865077D01*
X14545370Y-6865077D02*
X14535846Y-6860315D01*
X14535846Y-6860315D02*
X14521560Y-6860315D01*
X14521560Y-6860315D02*
X14512036Y-6865077D01*
X14512036Y-6865077D02*
X14507274Y-6869839D01*
X14507274Y-6869839D02*
X14502512Y-6879363D01*
X14502512Y-6879363D02*
X14502512Y-6907934D01*
X14502512Y-6907934D02*
X14507274Y-6917458D01*
X14507274Y-6917458D02*
X14512036Y-6922220D01*
X14512036Y-6922220D02*
X14521560Y-6926982D01*
X14521560Y-6926982D02*
X14535846Y-6926982D01*
X14459655Y-6926982D02*
X14459655Y-6826982D01*
X14416798Y-6926982D02*
X14416798Y-6874601D01*
X14416798Y-6874601D02*
X14421560Y-6865077D01*
X14421560Y-6865077D02*
X14431084Y-6860315D01*
X14431084Y-6860315D02*
X14445370Y-6860315D01*
X14445370Y-6860315D02*
X14454893Y-6865077D01*
X14454893Y-6865077D02*
X14459655Y-6869839D01*
X14369179Y-6860315D02*
X14369179Y-6926982D01*
X14369179Y-6869839D02*
X14364417Y-6865077D01*
X14364417Y-6865077D02*
X14354893Y-6860315D01*
X14354893Y-6860315D02*
X14340608Y-6860315D01*
X14340608Y-6860315D02*
X14331084Y-6865077D01*
X14331084Y-6865077D02*
X14326322Y-6874601D01*
X14326322Y-6874601D02*
X14326322Y-6926982D01*
X14202512Y-6926982D02*
X14202512Y-6826982D01*
X14202512Y-6826982D02*
X14169179Y-6898410D01*
X14169179Y-6898410D02*
X14135846Y-6826982D01*
X14135846Y-6826982D02*
X14135846Y-6926982D01*
X14045370Y-6926982D02*
X14045370Y-6874601D01*
X14045370Y-6874601D02*
X14050131Y-6865077D01*
X14050131Y-6865077D02*
X14059655Y-6860315D01*
X14059655Y-6860315D02*
X14078703Y-6860315D01*
X14078703Y-6860315D02*
X14088227Y-6865077D01*
X14045370Y-6922220D02*
X14054893Y-6926982D01*
X14054893Y-6926982D02*
X14078703Y-6926982D01*
X14078703Y-6926982D02*
X14088227Y-6922220D01*
X14088227Y-6922220D02*
X14092989Y-6912696D01*
X14092989Y-6912696D02*
X14092989Y-6903172D01*
X14092989Y-6903172D02*
X14088227Y-6893648D01*
X14088227Y-6893648D02*
X14078703Y-6888887D01*
X14078703Y-6888887D02*
X14054893Y-6888887D01*
X14054893Y-6888887D02*
X14045370Y-6884125D01*
X13954893Y-6926982D02*
X13954893Y-6826982D01*
X13954893Y-6922220D02*
X13964417Y-6926982D01*
X13964417Y-6926982D02*
X13983465Y-6926982D01*
X13983465Y-6926982D02*
X13992989Y-6922220D01*
X13992989Y-6922220D02*
X13997750Y-6917458D01*
X13997750Y-6917458D02*
X14002512Y-6907934D01*
X14002512Y-6907934D02*
X14002512Y-6879363D01*
X14002512Y-6879363D02*
X13997750Y-6869839D01*
X13997750Y-6869839D02*
X13992989Y-6865077D01*
X13992989Y-6865077D02*
X13983465Y-6860315D01*
X13983465Y-6860315D02*
X13964417Y-6860315D01*
X13964417Y-6860315D02*
X13954893Y-6865077D01*
X13864417Y-6926982D02*
X13864417Y-6826982D01*
X13864417Y-6922220D02*
X13873941Y-6926982D01*
X13873941Y-6926982D02*
X13892989Y-6926982D01*
X13892989Y-6926982D02*
X13902512Y-6922220D01*
X13902512Y-6922220D02*
X13907274Y-6917458D01*
X13907274Y-6917458D02*
X13912036Y-6907934D01*
X13912036Y-6907934D02*
X13912036Y-6879363D01*
X13912036Y-6879363D02*
X13907274Y-6869839D01*
X13907274Y-6869839D02*
X13902512Y-6865077D01*
X13902512Y-6865077D02*
X13892989Y-6860315D01*
X13892989Y-6860315D02*
X13873941Y-6860315D01*
X13873941Y-6860315D02*
X13864417Y-6865077D01*
X13778703Y-6922220D02*
X13788227Y-6926982D01*
X13788227Y-6926982D02*
X13807274Y-6926982D01*
X13807274Y-6926982D02*
X13816798Y-6922220D01*
X13816798Y-6922220D02*
X13821560Y-6912696D01*
X13821560Y-6912696D02*
X13821560Y-6874601D01*
X13821560Y-6874601D02*
X13816798Y-6865077D01*
X13816798Y-6865077D02*
X13807274Y-6860315D01*
X13807274Y-6860315D02*
X13788227Y-6860315D01*
X13788227Y-6860315D02*
X13778703Y-6865077D01*
X13778703Y-6865077D02*
X13773941Y-6874601D01*
X13773941Y-6874601D02*
X13773941Y-6884125D01*
X13773941Y-6884125D02*
X13821560Y-6893648D01*
X13731084Y-6860315D02*
X13731084Y-6926982D01*
X13731084Y-6869839D02*
X13726322Y-6865077D01*
X13726322Y-6865077D02*
X13716798Y-6860315D01*
X13716798Y-6860315D02*
X13702512Y-6860315D01*
X13702512Y-6860315D02*
X13692989Y-6865077D01*
X13692989Y-6865077D02*
X13688227Y-6874601D01*
X13688227Y-6874601D02*
X13688227Y-6926982D01*
%LPC*%
D11*
X15350000Y-7850000D03*
X12750000Y-7850000D03*
X15350000Y-5250000D03*
X12750000Y-5250000D03*
%LPD*%
M02*
