G04 #@! TF.GenerationSoftware,KiCad,Pcbnew,9.0.3*
G04 #@! TF.CreationDate,2025-08-26T17:56:25-07:00*
G04 #@! TF.ProjectId,i2c_breakout,6932635f-6272-4656-916b-6f75742e6b69,v1.0.0*
G04 #@! TF.SameCoordinates,Original*
G04 #@! TF.FileFunction,Copper,L2,Bot*
G04 #@! TF.FilePolarity,Positive*
%FSLAX45Y45*%
G04 Gerber Fmt 4.5, Leading zero omitted, Abs format (unit mm)*
G04 Created by KiCad (PCBNEW 9.0.3) date 2025-08-26 17:56:25*
%MOMM*%
%LPD*%
G01*
G04 APERTURE LIST*
G04 #@! TA.AperFunction,ComponentPad*
%ADD10C,5.700000*%
G04 #@! TD*
G04 #@! TA.AperFunction,ViaPad*
%ADD11C,0.600000*%
G04 #@! TD*
G04 #@! TA.AperFunction,Conductor*
%ADD12C,0.500000*%
G04 #@! TD*
G04 APERTURE END LIST*
D10*
X15350000Y-7850000D03*
X12750000Y-7850000D03*
X15350000Y-5250000D03*
X12750000Y-5250000D03*
D11*
X12832500Y-6583750D03*
X13147500Y-6843750D03*
X15257500Y-6683750D03*
X14000000Y-5333750D03*
X14605000Y-6573750D03*
X13900000Y-7753750D03*
D12*
X13147500Y-6843750D02*
X13147500Y-6692500D01*
X13038750Y-6583750D02*
X12832500Y-6583750D01*
X13147500Y-6692500D02*
X13038750Y-6583750D01*
X14605000Y-6573750D02*
X14000000Y-5968750D01*
X14605000Y-6573750D02*
X13900000Y-7278750D01*
X14748750Y-6573750D02*
X14858750Y-6683750D01*
X14000000Y-5968750D02*
X14000000Y-5333750D01*
X14858750Y-6683750D02*
X15257500Y-6683750D01*
X13900000Y-7278750D02*
X13900000Y-7753750D01*
X14605000Y-6573750D02*
X14748750Y-6573750D01*
G04 #@! TA.AperFunction,Conductor*
G36*
X15400303Y-4850065D02*
G01*
X15433693Y-4851705D01*
X15434904Y-4851825D01*
X15445215Y-4853354D01*
X15467670Y-4856685D01*
X15468862Y-4856922D01*
X15500995Y-4864971D01*
X15502159Y-4865324D01*
X15509281Y-4867872D01*
X15533347Y-4876483D01*
X15534469Y-4876948D01*
X15564416Y-4891112D01*
X15565487Y-4891684D01*
X15593899Y-4908714D01*
X15594911Y-4909390D01*
X15621517Y-4929122D01*
X15622458Y-4929894D01*
X15647001Y-4952140D01*
X15647860Y-4952999D01*
X15666575Y-4973648D01*
X15670105Y-4977542D01*
X15670877Y-4978483D01*
X15690610Y-5005089D01*
X15691286Y-5006101D01*
X15704178Y-5027609D01*
X15708315Y-5034512D01*
X15708888Y-5035585D01*
X15723051Y-5065530D01*
X15723517Y-5066654D01*
X15734676Y-5097841D01*
X15735029Y-5099006D01*
X15743078Y-5131137D01*
X15743315Y-5132331D01*
X15748175Y-5165096D01*
X15748295Y-5166307D01*
X15749935Y-5199697D01*
X15749950Y-5200305D01*
X15749950Y-7899695D01*
X15749935Y-7900303D01*
X15748295Y-7933693D01*
X15748175Y-7934904D01*
X15743315Y-7967669D01*
X15743078Y-7968863D01*
X15735029Y-8000994D01*
X15734676Y-8002159D01*
X15723517Y-8033346D01*
X15723051Y-8034470D01*
X15708888Y-8064415D01*
X15708315Y-8065488D01*
X15691286Y-8093899D01*
X15690610Y-8094911D01*
X15670877Y-8121517D01*
X15670105Y-8122458D01*
X15647861Y-8147001D01*
X15647001Y-8147861D01*
X15622458Y-8170105D01*
X15621517Y-8170877D01*
X15594911Y-8190610D01*
X15593899Y-8191286D01*
X15565488Y-8208315D01*
X15564415Y-8208888D01*
X15534470Y-8223051D01*
X15533346Y-8223517D01*
X15502159Y-8234676D01*
X15500994Y-8235029D01*
X15468863Y-8243078D01*
X15467669Y-8243315D01*
X15434904Y-8248175D01*
X15433693Y-8248295D01*
X15402199Y-8249842D01*
X15400303Y-8249935D01*
X15399695Y-8249950D01*
X12700305Y-8249950D01*
X12699697Y-8249935D01*
X12697690Y-8249836D01*
X12666307Y-8248295D01*
X12665096Y-8248175D01*
X12632330Y-8243315D01*
X12631137Y-8243078D01*
X12599005Y-8235029D01*
X12597841Y-8234676D01*
X12566654Y-8223517D01*
X12565530Y-8223051D01*
X12535584Y-8208888D01*
X12534512Y-8208315D01*
X12506101Y-8191286D01*
X12505089Y-8190610D01*
X12478483Y-8170877D01*
X12477542Y-8170105D01*
X12473647Y-8166575D01*
X12452999Y-8147860D01*
X12452139Y-8147001D01*
X12429894Y-8122458D01*
X12429122Y-8121517D01*
X12409390Y-8094911D01*
X12408714Y-8093899D01*
X12391684Y-8065487D01*
X12391112Y-8064416D01*
X12376948Y-8034469D01*
X12376483Y-8033346D01*
X12365324Y-8002159D01*
X12364971Y-8000994D01*
X12364096Y-7997501D01*
X12356922Y-7968862D01*
X12356685Y-7967669D01*
X12351824Y-7934904D01*
X12351705Y-7933693D01*
X12350065Y-7900303D01*
X12350050Y-7899695D01*
X12350050Y-7745866D01*
X13819950Y-7745866D01*
X13819950Y-7746650D01*
X13819950Y-7761635D01*
X13823026Y-7777099D01*
X13823026Y-7777100D01*
X13829060Y-7791667D01*
X13829061Y-7791668D01*
X13837821Y-7804779D01*
X13837821Y-7804779D01*
X13848971Y-7815929D01*
X13848971Y-7815929D01*
X13862081Y-7824689D01*
X13862083Y-7824690D01*
X13876650Y-7830723D01*
X13876650Y-7830724D01*
X13892115Y-7833800D01*
X13892116Y-7833800D01*
X13892116Y-7833800D01*
X13907884Y-7833800D01*
X13907884Y-7833800D01*
X13923350Y-7830724D01*
X13937918Y-7824689D01*
X13951029Y-7815929D01*
X13962179Y-7804779D01*
X13970939Y-7791668D01*
X13976974Y-7777100D01*
X13980050Y-7761634D01*
X13980050Y-7745866D01*
X13980050Y-7745865D01*
X13980050Y-7745865D01*
X13976974Y-7730401D01*
X13976974Y-7730401D01*
X13976974Y-7730400D01*
X13975994Y-7728034D01*
X13975050Y-7723290D01*
X13975050Y-7314973D01*
X13977018Y-7308269D01*
X13978682Y-7306205D01*
X14632455Y-6652432D01*
X14638587Y-6649083D01*
X14641223Y-6648800D01*
X14712527Y-6648800D01*
X14719231Y-6650768D01*
X14721295Y-6652432D01*
X14810908Y-6742045D01*
X14810908Y-6742045D01*
X14816720Y-6745929D01*
X14816721Y-6745929D01*
X14816721Y-6745929D01*
X14823200Y-6750258D01*
X14836859Y-6755916D01*
X14836859Y-6755916D01*
X14836859Y-6755916D01*
X14851358Y-6758800D01*
X14851358Y-6758800D01*
X14851358Y-6758800D01*
X14866142Y-6758800D01*
X15227040Y-6758800D01*
X15231784Y-6759744D01*
X15234150Y-6760724D01*
X15234151Y-6760724D01*
X15234151Y-6760724D01*
X15249615Y-6763800D01*
X15249616Y-6763800D01*
X15249616Y-6763800D01*
X15265384Y-6763800D01*
X15265384Y-6763800D01*
X15280850Y-6760724D01*
X15295418Y-6754689D01*
X15308529Y-6745929D01*
X15319679Y-6734779D01*
X15328439Y-6721668D01*
X15334474Y-6707100D01*
X15337550Y-6691634D01*
X15337550Y-6675866D01*
X15337550Y-6675865D01*
X15337550Y-6675865D01*
X15334547Y-6660768D01*
X15334474Y-6660400D01*
X15334202Y-6659744D01*
X15328440Y-6645833D01*
X15328439Y-6645831D01*
X15319679Y-6632721D01*
X15319679Y-6632721D01*
X15308529Y-6621571D01*
X15308529Y-6621571D01*
X15295418Y-6612811D01*
X15295417Y-6612810D01*
X15280850Y-6606776D01*
X15280849Y-6606776D01*
X15265384Y-6603700D01*
X15265384Y-6603700D01*
X15249616Y-6603700D01*
X15249615Y-6603700D01*
X15234151Y-6606776D01*
X15234151Y-6606776D01*
X15234150Y-6606776D01*
X15234150Y-6606776D01*
X15231784Y-6607756D01*
X15227040Y-6608700D01*
X14894973Y-6608700D01*
X14888269Y-6606731D01*
X14886205Y-6605068D01*
X14796592Y-6515455D01*
X14796591Y-6515455D01*
X14789223Y-6510531D01*
X14789223Y-6510531D01*
X14784299Y-6507241D01*
X14770642Y-6501584D01*
X14770641Y-6501584D01*
X14756142Y-6498700D01*
X14756142Y-6498700D01*
X14641223Y-6498700D01*
X14634519Y-6496731D01*
X14632455Y-6495068D01*
X14078682Y-5941295D01*
X14075333Y-5935163D01*
X14075050Y-5932527D01*
X14075050Y-5364210D01*
X14075994Y-5359465D01*
X14076974Y-5357100D01*
X14080050Y-5341634D01*
X14080050Y-5325866D01*
X14080050Y-5325866D01*
X14080050Y-5325865D01*
X14076974Y-5310401D01*
X14076974Y-5310400D01*
X14076973Y-5310400D01*
X14070940Y-5295833D01*
X14070939Y-5295831D01*
X14062179Y-5282721D01*
X14062179Y-5282721D01*
X14051029Y-5271571D01*
X14051029Y-5271571D01*
X14037918Y-5262811D01*
X14037917Y-5262810D01*
X14023350Y-5256776D01*
X14023349Y-5256776D01*
X14007884Y-5253700D01*
X14007884Y-5253700D01*
X13992116Y-5253700D01*
X13992115Y-5253700D01*
X13976651Y-5256776D01*
X13976650Y-5256776D01*
X13962083Y-5262810D01*
X13962081Y-5262811D01*
X13948971Y-5271571D01*
X13948971Y-5271571D01*
X13937821Y-5282721D01*
X13937821Y-5282721D01*
X13929061Y-5295831D01*
X13929060Y-5295833D01*
X13923026Y-5310400D01*
X13923026Y-5310401D01*
X13919950Y-5325865D01*
X13919950Y-5341635D01*
X13923026Y-5357099D01*
X13923026Y-5357100D01*
X13924006Y-5359465D01*
X13924950Y-5364210D01*
X13924950Y-5976142D01*
X13924950Y-5976142D01*
X13924950Y-5976142D01*
X13927834Y-5990641D01*
X13927834Y-5990642D01*
X13933491Y-6004299D01*
X13936781Y-6009223D01*
X13936781Y-6009223D01*
X13941705Y-6016591D01*
X13941705Y-6016592D01*
X14490095Y-6564982D01*
X14493443Y-6571114D01*
X14492945Y-6578083D01*
X14490095Y-6582518D01*
X13841705Y-7230908D01*
X13841704Y-7230909D01*
X13836781Y-7238277D01*
X13836781Y-7238277D01*
X13833492Y-7243200D01*
X13833491Y-7243201D01*
X13827834Y-7256859D01*
X13827834Y-7256859D01*
X13824950Y-7271358D01*
X13824950Y-7723290D01*
X13824805Y-7724019D01*
X13824641Y-7726042D01*
X13824408Y-7727065D01*
X13823026Y-7730400D01*
X13819950Y-7745866D01*
X12350050Y-7745866D01*
X12350050Y-6575865D01*
X12752450Y-6575865D01*
X12752450Y-6591635D01*
X12755526Y-6607099D01*
X12755526Y-6607100D01*
X12761560Y-6621667D01*
X12761561Y-6621668D01*
X12770321Y-6634779D01*
X12770321Y-6634779D01*
X12781471Y-6645929D01*
X12781471Y-6645929D01*
X12794581Y-6654689D01*
X12794583Y-6654690D01*
X12804506Y-6658800D01*
X12809150Y-6660724D01*
X12824615Y-6663800D01*
X12824616Y-6663800D01*
X12824616Y-6663800D01*
X12840384Y-6663800D01*
X12840384Y-6663800D01*
X12848015Y-6662282D01*
X12855849Y-6660724D01*
X12855849Y-6660724D01*
X12855850Y-6660724D01*
X12858215Y-6659744D01*
X12862960Y-6658800D01*
X13002527Y-6658800D01*
X13009231Y-6660768D01*
X13011295Y-6662432D01*
X13068818Y-6719955D01*
X13072167Y-6726087D01*
X13072450Y-6728723D01*
X13072450Y-6813290D01*
X13071506Y-6818034D01*
X13070526Y-6820400D01*
X13070526Y-6820401D01*
X13070526Y-6820401D01*
X13067450Y-6835865D01*
X13067450Y-6851635D01*
X13070526Y-6867099D01*
X13070526Y-6867100D01*
X13076560Y-6881667D01*
X13076561Y-6881668D01*
X13085321Y-6894779D01*
X13085321Y-6894779D01*
X13096471Y-6905929D01*
X13096471Y-6905929D01*
X13109581Y-6914689D01*
X13109583Y-6914690D01*
X13124150Y-6920723D01*
X13124150Y-6920724D01*
X13139615Y-6923800D01*
X13139616Y-6923800D01*
X13139616Y-6923800D01*
X13155384Y-6923800D01*
X13155384Y-6923800D01*
X13170850Y-6920724D01*
X13185418Y-6914689D01*
X13198529Y-6905929D01*
X13209679Y-6894779D01*
X13218439Y-6881668D01*
X13224474Y-6867100D01*
X13227550Y-6851634D01*
X13227550Y-6835866D01*
X13227550Y-6835865D01*
X13227550Y-6835865D01*
X13224474Y-6820401D01*
X13224474Y-6820401D01*
X13224474Y-6820400D01*
X13223494Y-6818034D01*
X13222550Y-6813290D01*
X13222550Y-6685108D01*
X13219666Y-6670609D01*
X13219666Y-6670609D01*
X13219666Y-6670609D01*
X13219666Y-6670608D01*
X13214009Y-6656951D01*
X13214008Y-6656950D01*
X13205795Y-6644658D01*
X13205795Y-6644658D01*
X13195342Y-6634205D01*
X13168236Y-6607099D01*
X13086592Y-6525455D01*
X13086591Y-6525455D01*
X13079223Y-6520531D01*
X13079223Y-6520531D01*
X13074299Y-6517241D01*
X13060642Y-6511584D01*
X13060641Y-6511584D01*
X13046142Y-6508700D01*
X13046142Y-6508700D01*
X12862960Y-6508700D01*
X12858215Y-6507756D01*
X12855850Y-6506776D01*
X12855849Y-6506776D01*
X12855849Y-6506776D01*
X12840384Y-6503700D01*
X12840384Y-6503700D01*
X12824616Y-6503700D01*
X12824615Y-6503700D01*
X12809151Y-6506776D01*
X12809150Y-6506776D01*
X12794583Y-6512810D01*
X12794581Y-6512811D01*
X12781471Y-6521571D01*
X12781471Y-6521571D01*
X12770321Y-6532721D01*
X12770321Y-6532721D01*
X12761561Y-6545831D01*
X12761560Y-6545833D01*
X12755526Y-6560400D01*
X12755526Y-6560401D01*
X12752450Y-6575865D01*
X12350050Y-6575865D01*
X12350050Y-5200305D01*
X12350065Y-5199697D01*
X12351705Y-5166307D01*
X12351824Y-5165096D01*
X12356685Y-5132330D01*
X12356922Y-5131139D01*
X12364971Y-5099004D01*
X12365324Y-5097841D01*
X12376483Y-5066653D01*
X12376948Y-5065532D01*
X12391112Y-5035583D01*
X12391684Y-5034514D01*
X12408714Y-5006100D01*
X12409389Y-5005091D01*
X12429123Y-4978482D01*
X12429893Y-4977543D01*
X12452140Y-4952998D01*
X12452997Y-4952141D01*
X12477543Y-4929894D01*
X12478482Y-4929123D01*
X12505090Y-4909389D01*
X12506100Y-4908715D01*
X12534514Y-4891684D01*
X12535583Y-4891112D01*
X12565532Y-4876948D01*
X12566652Y-4876484D01*
X12597841Y-4865324D01*
X12599004Y-4864971D01*
X12631138Y-4856922D01*
X12632330Y-4856685D01*
X12665096Y-4851824D01*
X12666307Y-4851705D01*
X12699697Y-4850065D01*
X12700305Y-4850050D01*
X12706589Y-4850050D01*
X15393411Y-4850050D01*
X15399695Y-4850050D01*
X15400303Y-4850065D01*
G37*
G04 #@! TD.AperFunction*
M02*
