%TF.GenerationSoftware,KiCad,Pcbnew,9.0.3*%
%TF.CreationDate,2025-08-26T16:50:38-07:00*%
%TF.ProjectId,i2c_breakout,6932635f-6272-4656-916b-6f75742e6b69,v1.0.0*%
%TF.SameCoordinates,Original*%
%TF.FileFunction,Drillmap*%
%TF.FilePolarity,Positive*%
%FSLAX45Y45*%
G04 Gerber Fmt 4.5, Leading zero omitted, Abs format (unit mm)*
G04 Created by KiCad (PCBNEW 9.0.3) date 2025-08-26 16:50:38*
%MOMM*%
%LPD*%
G01*
G04 APERTURE LIST*
%ADD10C,0.050000*%
%ADD11C,0.200000*%
G04 APERTURE END LIST*
D10*
X12700000Y-8300000D02*
G75*
G02*
X12300000Y-7900000I0J400000D01*
G01*
X15400000Y-8300000D02*
X12700000Y-8300000D01*
X12300000Y-7900000D02*
X12300000Y-5200000D01*
X15400000Y-4800000D02*
G75*
G02*
X15800000Y-5200000I0J-400000D01*
G01*
X12700000Y-4800000D02*
X15400000Y-4800000D01*
X12300000Y-5200000D02*
G75*
G02*
X12700000Y-4800000I400000J0D01*
G01*
X15800000Y-5200000D02*
X15800000Y-7900000D01*
X15800000Y-7900000D02*
G75*
G02*
X15400000Y-8300000I-400000J0D01*
G01*
D11*
X12558277Y-8613984D02*
X12558277Y-8413984D01*
X12558277Y-8413984D02*
X12605896Y-8413984D01*
X12605896Y-8413984D02*
X12634467Y-8423508D01*
X12634467Y-8423508D02*
X12653515Y-8442555D01*
X12653515Y-8442555D02*
X12663039Y-8461603D01*
X12663039Y-8461603D02*
X12672562Y-8499698D01*
X12672562Y-8499698D02*
X12672562Y-8528270D01*
X12672562Y-8528270D02*
X12663039Y-8566365D01*
X12663039Y-8566365D02*
X12653515Y-8585412D01*
X12653515Y-8585412D02*
X12634467Y-8604460D01*
X12634467Y-8604460D02*
X12605896Y-8613984D01*
X12605896Y-8613984D02*
X12558277Y-8613984D01*
X12758277Y-8613984D02*
X12758277Y-8480650D01*
X12758277Y-8518746D02*
X12767801Y-8499698D01*
X12767801Y-8499698D02*
X12777324Y-8490174D01*
X12777324Y-8490174D02*
X12796372Y-8480650D01*
X12796372Y-8480650D02*
X12815420Y-8480650D01*
X12882086Y-8613984D02*
X12882086Y-8480650D01*
X12882086Y-8413984D02*
X12872562Y-8423508D01*
X12872562Y-8423508D02*
X12882086Y-8433031D01*
X12882086Y-8433031D02*
X12891610Y-8423508D01*
X12891610Y-8423508D02*
X12882086Y-8413984D01*
X12882086Y-8413984D02*
X12882086Y-8433031D01*
X13005896Y-8613984D02*
X12986848Y-8604460D01*
X12986848Y-8604460D02*
X12977324Y-8585412D01*
X12977324Y-8585412D02*
X12977324Y-8413984D01*
X13110658Y-8613984D02*
X13091610Y-8604460D01*
X13091610Y-8604460D02*
X13082086Y-8585412D01*
X13082086Y-8585412D02*
X13082086Y-8413984D01*
X13339229Y-8613984D02*
X13339229Y-8413984D01*
X13339229Y-8413984D02*
X13405896Y-8556841D01*
X13405896Y-8556841D02*
X13472562Y-8413984D01*
X13472562Y-8413984D02*
X13472562Y-8613984D01*
X13653515Y-8613984D02*
X13653515Y-8509222D01*
X13653515Y-8509222D02*
X13643991Y-8490174D01*
X13643991Y-8490174D02*
X13624943Y-8480650D01*
X13624943Y-8480650D02*
X13586848Y-8480650D01*
X13586848Y-8480650D02*
X13567801Y-8490174D01*
X13653515Y-8604460D02*
X13634467Y-8613984D01*
X13634467Y-8613984D02*
X13586848Y-8613984D01*
X13586848Y-8613984D02*
X13567801Y-8604460D01*
X13567801Y-8604460D02*
X13558277Y-8585412D01*
X13558277Y-8585412D02*
X13558277Y-8566365D01*
X13558277Y-8566365D02*
X13567801Y-8547317D01*
X13567801Y-8547317D02*
X13586848Y-8537793D01*
X13586848Y-8537793D02*
X13634467Y-8537793D01*
X13634467Y-8537793D02*
X13653515Y-8528270D01*
X13748753Y-8480650D02*
X13748753Y-8680650D01*
X13748753Y-8490174D02*
X13767801Y-8480650D01*
X13767801Y-8480650D02*
X13805896Y-8480650D01*
X13805896Y-8480650D02*
X13824943Y-8490174D01*
X13824943Y-8490174D02*
X13834467Y-8499698D01*
X13834467Y-8499698D02*
X13843991Y-8518746D01*
X13843991Y-8518746D02*
X13843991Y-8575889D01*
X13843991Y-8575889D02*
X13834467Y-8594936D01*
X13834467Y-8594936D02*
X13824943Y-8604460D01*
X13824943Y-8604460D02*
X13805896Y-8613984D01*
X13805896Y-8613984D02*
X13767801Y-8613984D01*
X13767801Y-8613984D02*
X13748753Y-8604460D01*
X13929705Y-8594936D02*
X13939229Y-8604460D01*
X13939229Y-8604460D02*
X13929705Y-8613984D01*
X13929705Y-8613984D02*
X13920182Y-8604460D01*
X13920182Y-8604460D02*
X13929705Y-8594936D01*
X13929705Y-8594936D02*
X13929705Y-8613984D01*
X13929705Y-8490174D02*
X13939229Y-8499698D01*
X13939229Y-8499698D02*
X13929705Y-8509222D01*
X13929705Y-8509222D02*
X13920182Y-8499698D01*
X13920182Y-8499698D02*
X13929705Y-8490174D01*
X13929705Y-8490174D02*
X13929705Y-8509222D01*
M02*
