%TF.GenerationSoftware,KiCad,Pcbnew,9.0.3*%
%TF.CreationDate,2025-08-26T16:50:38-07:00*%
%TF.ProjectId,i2c_breakout,6932635f-6272-4656-916b-6f75742e6b69,v1.0.0*%
%TF.SameCoordinates,Original*%
%TF.FileFunction,Drillmap*%
%TF.FilePolarity,Positive*%
%FSLAX45Y45*%
G04 Gerber Fmt 4.5, Leading zero omitted, Abs format (unit mm)*
G04 Created by KiCad (PCBNEW 9.0.3) date 2025-08-26 16:50:38*
%MOMM*%
%LPD*%
G01*
G04 APERTURE LIST*
%ADD10C,0.050000*%
%ADD11C,0.200000*%
%ADD12C,0.100000*%
%ADD13C,0.320000*%
G04 APERTURE END LIST*
D10*
X12700000Y-8300000D02*
G75*
G02*
X12300000Y-7900000I0J400000D01*
G01*
X15400000Y-8300000D02*
X12700000Y-8300000D01*
X12300000Y-7900000D02*
X12300000Y-5200000D01*
X15400000Y-4800000D02*
G75*
G02*
X15800000Y-5200000I0J-400000D01*
G01*
X12700000Y-4800000D02*
X15400000Y-4800000D01*
X12300000Y-5200000D02*
G75*
G02*
X12700000Y-4800000I400000J0D01*
G01*
X15800000Y-5200000D02*
X15800000Y-7900000D01*
X15800000Y-7900000D02*
G75*
G02*
X15400000Y-8300000I-400000J0D01*
G01*
D11*
D12*
X12817500Y-6568750D02*
X12847500Y-6598750D01*
X12847500Y-6568750D02*
X12817500Y-6598750D01*
X13132500Y-6828750D02*
X13162500Y-6858750D01*
X13162500Y-6828750D02*
X13132500Y-6858750D01*
X13885000Y-7738750D02*
X13915000Y-7768750D01*
X13915000Y-7738750D02*
X13885000Y-7768750D01*
X13985000Y-5318750D02*
X14015000Y-5348750D01*
X14015000Y-5318750D02*
X13985000Y-5348750D01*
X14590000Y-6558750D02*
X14620000Y-6588750D01*
X14620000Y-6558750D02*
X14590000Y-6588750D01*
X15242500Y-6668750D02*
X15272500Y-6698750D01*
X15272500Y-6668750D02*
X15242500Y-6698750D01*
D13*
X12910000Y-5250000D02*
G75*
G02*
X12590000Y-5250000I-160000J0D01*
G01*
X12590000Y-5250000D02*
G75*
G02*
X12910000Y-5250000I160000J0D01*
G01*
X12910000Y-7850000D02*
G75*
G02*
X12590000Y-7850000I-160000J0D01*
G01*
X12590000Y-7850000D02*
G75*
G02*
X12910000Y-7850000I160000J0D01*
G01*
X15510000Y-5250000D02*
G75*
G02*
X15190000Y-5250000I-160000J0D01*
G01*
X15190000Y-5250000D02*
G75*
G02*
X15510000Y-5250000I160000J0D01*
G01*
X15510000Y-7850000D02*
G75*
G02*
X15190000Y-7850000I-160000J0D01*
G01*
X15190000Y-7850000D02*
G75*
G02*
X15510000Y-7850000I160000J0D01*
G01*
D11*
X12558277Y-8613984D02*
X12558277Y-8413984D01*
X12558277Y-8413984D02*
X12605896Y-8413984D01*
X12605896Y-8413984D02*
X12634467Y-8423508D01*
X12634467Y-8423508D02*
X12653515Y-8442555D01*
X12653515Y-8442555D02*
X12663039Y-8461603D01*
X12663039Y-8461603D02*
X12672562Y-8499698D01*
X12672562Y-8499698D02*
X12672562Y-8528270D01*
X12672562Y-8528270D02*
X12663039Y-8566365D01*
X12663039Y-8566365D02*
X12653515Y-8585412D01*
X12653515Y-8585412D02*
X12634467Y-8604460D01*
X12634467Y-8604460D02*
X12605896Y-8613984D01*
X12605896Y-8613984D02*
X12558277Y-8613984D01*
X12758277Y-8613984D02*
X12758277Y-8480650D01*
X12758277Y-8518746D02*
X12767801Y-8499698D01*
X12767801Y-8499698D02*
X12777324Y-8490174D01*
X12777324Y-8490174D02*
X12796372Y-8480650D01*
X12796372Y-8480650D02*
X12815420Y-8480650D01*
X12882086Y-8613984D02*
X12882086Y-8480650D01*
X12882086Y-8413984D02*
X12872562Y-8423508D01*
X12872562Y-8423508D02*
X12882086Y-8433031D01*
X12882086Y-8433031D02*
X12891610Y-8423508D01*
X12891610Y-8423508D02*
X12882086Y-8413984D01*
X12882086Y-8413984D02*
X12882086Y-8433031D01*
X13005896Y-8613984D02*
X12986848Y-8604460D01*
X12986848Y-8604460D02*
X12977324Y-8585412D01*
X12977324Y-8585412D02*
X12977324Y-8413984D01*
X13110658Y-8613984D02*
X13091610Y-8604460D01*
X13091610Y-8604460D02*
X13082086Y-8585412D01*
X13082086Y-8585412D02*
X13082086Y-8413984D01*
X13339229Y-8613984D02*
X13339229Y-8413984D01*
X13339229Y-8413984D02*
X13405896Y-8556841D01*
X13405896Y-8556841D02*
X13472562Y-8413984D01*
X13472562Y-8413984D02*
X13472562Y-8613984D01*
X13653515Y-8613984D02*
X13653515Y-8509222D01*
X13653515Y-8509222D02*
X13643991Y-8490174D01*
X13643991Y-8490174D02*
X13624943Y-8480650D01*
X13624943Y-8480650D02*
X13586848Y-8480650D01*
X13586848Y-8480650D02*
X13567801Y-8490174D01*
X13653515Y-8604460D02*
X13634467Y-8613984D01*
X13634467Y-8613984D02*
X13586848Y-8613984D01*
X13586848Y-8613984D02*
X13567801Y-8604460D01*
X13567801Y-8604460D02*
X13558277Y-8585412D01*
X13558277Y-8585412D02*
X13558277Y-8566365D01*
X13558277Y-8566365D02*
X13567801Y-8547317D01*
X13567801Y-8547317D02*
X13586848Y-8537793D01*
X13586848Y-8537793D02*
X13634467Y-8537793D01*
X13634467Y-8537793D02*
X13653515Y-8528270D01*
X13748753Y-8480650D02*
X13748753Y-8680650D01*
X13748753Y-8490174D02*
X13767801Y-8480650D01*
X13767801Y-8480650D02*
X13805896Y-8480650D01*
X13805896Y-8480650D02*
X13824943Y-8490174D01*
X13824943Y-8490174D02*
X13834467Y-8499698D01*
X13834467Y-8499698D02*
X13843991Y-8518746D01*
X13843991Y-8518746D02*
X13843991Y-8575889D01*
X13843991Y-8575889D02*
X13834467Y-8594936D01*
X13834467Y-8594936D02*
X13824943Y-8604460D01*
X13824943Y-8604460D02*
X13805896Y-8613984D01*
X13805896Y-8613984D02*
X13767801Y-8613984D01*
X13767801Y-8613984D02*
X13748753Y-8604460D01*
X13929705Y-8594936D02*
X13939229Y-8604460D01*
X13939229Y-8604460D02*
X13929705Y-8613984D01*
X13929705Y-8613984D02*
X13920182Y-8604460D01*
X13920182Y-8604460D02*
X13929705Y-8594936D01*
X13929705Y-8594936D02*
X13929705Y-8613984D01*
X13929705Y-8490174D02*
X13939229Y-8499698D01*
X13939229Y-8499698D02*
X13929705Y-8509222D01*
X13929705Y-8509222D02*
X13920182Y-8499698D01*
X13920182Y-8499698D02*
X13929705Y-8490174D01*
X13929705Y-8490174D02*
X13929705Y-8509222D01*
D12*
X12267500Y-8927500D02*
X12297500Y-8957500D01*
X12297500Y-8927500D02*
X12267500Y-8957500D01*
D11*
X12596372Y-8833984D02*
X12615420Y-8833984D01*
X12615420Y-8833984D02*
X12634467Y-8843508D01*
X12634467Y-8843508D02*
X12643991Y-8853031D01*
X12643991Y-8853031D02*
X12653515Y-8872079D01*
X12653515Y-8872079D02*
X12663039Y-8910174D01*
X12663039Y-8910174D02*
X12663039Y-8957793D01*
X12663039Y-8957793D02*
X12653515Y-8995889D01*
X12653515Y-8995889D02*
X12643991Y-9014936D01*
X12643991Y-9014936D02*
X12634467Y-9024460D01*
X12634467Y-9024460D02*
X12615420Y-9033984D01*
X12615420Y-9033984D02*
X12596372Y-9033984D01*
X12596372Y-9033984D02*
X12577324Y-9024460D01*
X12577324Y-9024460D02*
X12567801Y-9014936D01*
X12567801Y-9014936D02*
X12558277Y-8995889D01*
X12558277Y-8995889D02*
X12548753Y-8957793D01*
X12548753Y-8957793D02*
X12548753Y-8910174D01*
X12548753Y-8910174D02*
X12558277Y-8872079D01*
X12558277Y-8872079D02*
X12567801Y-8853031D01*
X12567801Y-8853031D02*
X12577324Y-8843508D01*
X12577324Y-8843508D02*
X12596372Y-8833984D01*
X12748753Y-9014936D02*
X12758277Y-9024460D01*
X12758277Y-9024460D02*
X12748753Y-9033984D01*
X12748753Y-9033984D02*
X12739229Y-9024460D01*
X12739229Y-9024460D02*
X12748753Y-9014936D01*
X12748753Y-9014936D02*
X12748753Y-9033984D01*
X12824943Y-8833984D02*
X12948753Y-8833984D01*
X12948753Y-8833984D02*
X12882086Y-8910174D01*
X12882086Y-8910174D02*
X12910658Y-8910174D01*
X12910658Y-8910174D02*
X12929705Y-8919698D01*
X12929705Y-8919698D02*
X12939229Y-8929222D01*
X12939229Y-8929222D02*
X12948753Y-8948270D01*
X12948753Y-8948270D02*
X12948753Y-8995889D01*
X12948753Y-8995889D02*
X12939229Y-9014936D01*
X12939229Y-9014936D02*
X12929705Y-9024460D01*
X12929705Y-9024460D02*
X12910658Y-9033984D01*
X12910658Y-9033984D02*
X12853515Y-9033984D01*
X12853515Y-9033984D02*
X12834467Y-9024460D01*
X12834467Y-9024460D02*
X12824943Y-9014936D01*
X13072562Y-8833984D02*
X13091610Y-8833984D01*
X13091610Y-8833984D02*
X13110658Y-8843508D01*
X13110658Y-8843508D02*
X13120182Y-8853031D01*
X13120182Y-8853031D02*
X13129705Y-8872079D01*
X13129705Y-8872079D02*
X13139229Y-8910174D01*
X13139229Y-8910174D02*
X13139229Y-8957793D01*
X13139229Y-8957793D02*
X13129705Y-8995889D01*
X13129705Y-8995889D02*
X13120182Y-9014936D01*
X13120182Y-9014936D02*
X13110658Y-9024460D01*
X13110658Y-9024460D02*
X13091610Y-9033984D01*
X13091610Y-9033984D02*
X13072562Y-9033984D01*
X13072562Y-9033984D02*
X13053515Y-9024460D01*
X13053515Y-9024460D02*
X13043991Y-9014936D01*
X13043991Y-9014936D02*
X13034467Y-8995889D01*
X13034467Y-8995889D02*
X13024943Y-8957793D01*
X13024943Y-8957793D02*
X13024943Y-8910174D01*
X13024943Y-8910174D02*
X13034467Y-8872079D01*
X13034467Y-8872079D02*
X13043991Y-8853031D01*
X13043991Y-8853031D02*
X13053515Y-8843508D01*
X13053515Y-8843508D02*
X13072562Y-8833984D01*
X13263039Y-8833984D02*
X13282086Y-8833984D01*
X13282086Y-8833984D02*
X13301134Y-8843508D01*
X13301134Y-8843508D02*
X13310658Y-8853031D01*
X13310658Y-8853031D02*
X13320182Y-8872079D01*
X13320182Y-8872079D02*
X13329705Y-8910174D01*
X13329705Y-8910174D02*
X13329705Y-8957793D01*
X13329705Y-8957793D02*
X13320182Y-8995889D01*
X13320182Y-8995889D02*
X13310658Y-9014936D01*
X13310658Y-9014936D02*
X13301134Y-9024460D01*
X13301134Y-9024460D02*
X13282086Y-9033984D01*
X13282086Y-9033984D02*
X13263039Y-9033984D01*
X13263039Y-9033984D02*
X13243991Y-9024460D01*
X13243991Y-9024460D02*
X13234467Y-9014936D01*
X13234467Y-9014936D02*
X13224943Y-8995889D01*
X13224943Y-8995889D02*
X13215420Y-8957793D01*
X13215420Y-8957793D02*
X13215420Y-8910174D01*
X13215420Y-8910174D02*
X13224943Y-8872079D01*
X13224943Y-8872079D02*
X13234467Y-8853031D01*
X13234467Y-8853031D02*
X13243991Y-8843508D01*
X13243991Y-8843508D02*
X13263039Y-8833984D01*
X13415420Y-9033984D02*
X13415420Y-8900650D01*
X13415420Y-8919698D02*
X13424943Y-8910174D01*
X13424943Y-8910174D02*
X13443991Y-8900650D01*
X13443991Y-8900650D02*
X13472563Y-8900650D01*
X13472563Y-8900650D02*
X13491610Y-8910174D01*
X13491610Y-8910174D02*
X13501134Y-8929222D01*
X13501134Y-8929222D02*
X13501134Y-9033984D01*
X13501134Y-8929222D02*
X13510658Y-8910174D01*
X13510658Y-8910174D02*
X13529705Y-8900650D01*
X13529705Y-8900650D02*
X13558277Y-8900650D01*
X13558277Y-8900650D02*
X13577324Y-8910174D01*
X13577324Y-8910174D02*
X13586848Y-8929222D01*
X13586848Y-8929222D02*
X13586848Y-9033984D01*
X13682086Y-9033984D02*
X13682086Y-8900650D01*
X13682086Y-8919698D02*
X13691610Y-8910174D01*
X13691610Y-8910174D02*
X13710658Y-8900650D01*
X13710658Y-8900650D02*
X13739229Y-8900650D01*
X13739229Y-8900650D02*
X13758277Y-8910174D01*
X13758277Y-8910174D02*
X13767801Y-8929222D01*
X13767801Y-8929222D02*
X13767801Y-9033984D01*
X13767801Y-8929222D02*
X13777324Y-8910174D01*
X13777324Y-8910174D02*
X13796372Y-8900650D01*
X13796372Y-8900650D02*
X13824943Y-8900650D01*
X13824943Y-8900650D02*
X13843991Y-8910174D01*
X13843991Y-8910174D02*
X13853515Y-8929222D01*
X13853515Y-8929222D02*
X13853515Y-9033984D01*
X14243991Y-8824460D02*
X14072563Y-9081603D01*
X14501134Y-8833984D02*
X14520182Y-8833984D01*
X14520182Y-8833984D02*
X14539229Y-8843508D01*
X14539229Y-8843508D02*
X14548753Y-8853031D01*
X14548753Y-8853031D02*
X14558277Y-8872079D01*
X14558277Y-8872079D02*
X14567801Y-8910174D01*
X14567801Y-8910174D02*
X14567801Y-8957793D01*
X14567801Y-8957793D02*
X14558277Y-8995889D01*
X14558277Y-8995889D02*
X14548753Y-9014936D01*
X14548753Y-9014936D02*
X14539229Y-9024460D01*
X14539229Y-9024460D02*
X14520182Y-9033984D01*
X14520182Y-9033984D02*
X14501134Y-9033984D01*
X14501134Y-9033984D02*
X14482086Y-9024460D01*
X14482086Y-9024460D02*
X14472563Y-9014936D01*
X14472563Y-9014936D02*
X14463039Y-8995889D01*
X14463039Y-8995889D02*
X14453515Y-8957793D01*
X14453515Y-8957793D02*
X14453515Y-8910174D01*
X14453515Y-8910174D02*
X14463039Y-8872079D01*
X14463039Y-8872079D02*
X14472563Y-8853031D01*
X14472563Y-8853031D02*
X14482086Y-8843508D01*
X14482086Y-8843508D02*
X14501134Y-8833984D01*
X14653515Y-9014936D02*
X14663039Y-9024460D01*
X14663039Y-9024460D02*
X14653515Y-9033984D01*
X14653515Y-9033984D02*
X14643991Y-9024460D01*
X14643991Y-9024460D02*
X14653515Y-9014936D01*
X14653515Y-9014936D02*
X14653515Y-9033984D01*
X14786848Y-8833984D02*
X14805896Y-8833984D01*
X14805896Y-8833984D02*
X14824944Y-8843508D01*
X14824944Y-8843508D02*
X14834467Y-8853031D01*
X14834467Y-8853031D02*
X14843991Y-8872079D01*
X14843991Y-8872079D02*
X14853515Y-8910174D01*
X14853515Y-8910174D02*
X14853515Y-8957793D01*
X14853515Y-8957793D02*
X14843991Y-8995889D01*
X14843991Y-8995889D02*
X14834467Y-9014936D01*
X14834467Y-9014936D02*
X14824944Y-9024460D01*
X14824944Y-9024460D02*
X14805896Y-9033984D01*
X14805896Y-9033984D02*
X14786848Y-9033984D01*
X14786848Y-9033984D02*
X14767801Y-9024460D01*
X14767801Y-9024460D02*
X14758277Y-9014936D01*
X14758277Y-9014936D02*
X14748753Y-8995889D01*
X14748753Y-8995889D02*
X14739229Y-8957793D01*
X14739229Y-8957793D02*
X14739229Y-8910174D01*
X14739229Y-8910174D02*
X14748753Y-8872079D01*
X14748753Y-8872079D02*
X14758277Y-8853031D01*
X14758277Y-8853031D02*
X14767801Y-8843508D01*
X14767801Y-8843508D02*
X14786848Y-8833984D01*
X15043991Y-9033984D02*
X14929706Y-9033984D01*
X14986848Y-9033984D02*
X14986848Y-8833984D01*
X14986848Y-8833984D02*
X14967801Y-8862555D01*
X14967801Y-8862555D02*
X14948753Y-8881603D01*
X14948753Y-8881603D02*
X14929706Y-8891127D01*
X15234467Y-9033984D02*
X15120182Y-9033984D01*
X15177325Y-9033984D02*
X15177325Y-8833984D01*
X15177325Y-8833984D02*
X15158277Y-8862555D01*
X15158277Y-8862555D02*
X15139229Y-8881603D01*
X15139229Y-8881603D02*
X15120182Y-8891127D01*
X15348753Y-8919698D02*
X15329706Y-8910174D01*
X15329706Y-8910174D02*
X15320182Y-8900650D01*
X15320182Y-8900650D02*
X15310658Y-8881603D01*
X15310658Y-8881603D02*
X15310658Y-8872079D01*
X15310658Y-8872079D02*
X15320182Y-8853031D01*
X15320182Y-8853031D02*
X15329706Y-8843508D01*
X15329706Y-8843508D02*
X15348753Y-8833984D01*
X15348753Y-8833984D02*
X15386848Y-8833984D01*
X15386848Y-8833984D02*
X15405896Y-8843508D01*
X15405896Y-8843508D02*
X15415420Y-8853031D01*
X15415420Y-8853031D02*
X15424944Y-8872079D01*
X15424944Y-8872079D02*
X15424944Y-8881603D01*
X15424944Y-8881603D02*
X15415420Y-8900650D01*
X15415420Y-8900650D02*
X15405896Y-8910174D01*
X15405896Y-8910174D02*
X15386848Y-8919698D01*
X15386848Y-8919698D02*
X15348753Y-8919698D01*
X15348753Y-8919698D02*
X15329706Y-8929222D01*
X15329706Y-8929222D02*
X15320182Y-8938746D01*
X15320182Y-8938746D02*
X15310658Y-8957793D01*
X15310658Y-8957793D02*
X15310658Y-8995889D01*
X15310658Y-8995889D02*
X15320182Y-9014936D01*
X15320182Y-9014936D02*
X15329706Y-9024460D01*
X15329706Y-9024460D02*
X15348753Y-9033984D01*
X15348753Y-9033984D02*
X15386848Y-9033984D01*
X15386848Y-9033984D02*
X15405896Y-9024460D01*
X15405896Y-9024460D02*
X15415420Y-9014936D01*
X15415420Y-9014936D02*
X15424944Y-8995889D01*
X15424944Y-8995889D02*
X15424944Y-8957793D01*
X15424944Y-8957793D02*
X15415420Y-8938746D01*
X15415420Y-8938746D02*
X15405896Y-8929222D01*
X15405896Y-8929222D02*
X15386848Y-8919698D01*
X15501134Y-8833984D02*
X15501134Y-8872079D01*
X15577325Y-8833984D02*
X15577325Y-8872079D01*
X15872563Y-9110174D02*
X15863039Y-9100650D01*
X15863039Y-9100650D02*
X15843991Y-9072079D01*
X15843991Y-9072079D02*
X15834468Y-9053031D01*
X15834468Y-9053031D02*
X15824944Y-9024460D01*
X15824944Y-9024460D02*
X15815420Y-8976841D01*
X15815420Y-8976841D02*
X15815420Y-8938746D01*
X15815420Y-8938746D02*
X15824944Y-8891127D01*
X15824944Y-8891127D02*
X15834468Y-8862555D01*
X15834468Y-8862555D02*
X15843991Y-8843508D01*
X15843991Y-8843508D02*
X15863039Y-8814936D01*
X15863039Y-8814936D02*
X15872563Y-8805412D01*
X16034468Y-8833984D02*
X15996372Y-8833984D01*
X15996372Y-8833984D02*
X15977325Y-8843508D01*
X15977325Y-8843508D02*
X15967801Y-8853031D01*
X15967801Y-8853031D02*
X15948753Y-8881603D01*
X15948753Y-8881603D02*
X15939229Y-8919698D01*
X15939229Y-8919698D02*
X15939229Y-8995889D01*
X15939229Y-8995889D02*
X15948753Y-9014936D01*
X15948753Y-9014936D02*
X15958277Y-9024460D01*
X15958277Y-9024460D02*
X15977325Y-9033984D01*
X15977325Y-9033984D02*
X16015420Y-9033984D01*
X16015420Y-9033984D02*
X16034468Y-9024460D01*
X16034468Y-9024460D02*
X16043991Y-9014936D01*
X16043991Y-9014936D02*
X16053515Y-8995889D01*
X16053515Y-8995889D02*
X16053515Y-8948270D01*
X16053515Y-8948270D02*
X16043991Y-8929222D01*
X16043991Y-8929222D02*
X16034468Y-8919698D01*
X16034468Y-8919698D02*
X16015420Y-8910174D01*
X16015420Y-8910174D02*
X15977325Y-8910174D01*
X15977325Y-8910174D02*
X15958277Y-8919698D01*
X15958277Y-8919698D02*
X15948753Y-8929222D01*
X15948753Y-8929222D02*
X15939229Y-8948270D01*
X16291610Y-9033984D02*
X16291610Y-8833984D01*
X16377325Y-9033984D02*
X16377325Y-8929222D01*
X16377325Y-8929222D02*
X16367801Y-8910174D01*
X16367801Y-8910174D02*
X16348753Y-8900650D01*
X16348753Y-8900650D02*
X16320182Y-8900650D01*
X16320182Y-8900650D02*
X16301134Y-8910174D01*
X16301134Y-8910174D02*
X16291610Y-8919698D01*
X16501134Y-9033984D02*
X16482087Y-9024460D01*
X16482087Y-9024460D02*
X16472563Y-9014936D01*
X16472563Y-9014936D02*
X16463039Y-8995889D01*
X16463039Y-8995889D02*
X16463039Y-8938746D01*
X16463039Y-8938746D02*
X16472563Y-8919698D01*
X16472563Y-8919698D02*
X16482087Y-8910174D01*
X16482087Y-8910174D02*
X16501134Y-8900650D01*
X16501134Y-8900650D02*
X16529706Y-8900650D01*
X16529706Y-8900650D02*
X16548753Y-8910174D01*
X16548753Y-8910174D02*
X16558277Y-8919698D01*
X16558277Y-8919698D02*
X16567801Y-8938746D01*
X16567801Y-8938746D02*
X16567801Y-8995889D01*
X16567801Y-8995889D02*
X16558277Y-9014936D01*
X16558277Y-9014936D02*
X16548753Y-9024460D01*
X16548753Y-9024460D02*
X16529706Y-9033984D01*
X16529706Y-9033984D02*
X16501134Y-9033984D01*
X16682087Y-9033984D02*
X16663039Y-9024460D01*
X16663039Y-9024460D02*
X16653515Y-9005412D01*
X16653515Y-9005412D02*
X16653515Y-8833984D01*
X16834468Y-9024460D02*
X16815420Y-9033984D01*
X16815420Y-9033984D02*
X16777325Y-9033984D01*
X16777325Y-9033984D02*
X16758277Y-9024460D01*
X16758277Y-9024460D02*
X16748753Y-9005412D01*
X16748753Y-9005412D02*
X16748753Y-8929222D01*
X16748753Y-8929222D02*
X16758277Y-8910174D01*
X16758277Y-8910174D02*
X16777325Y-8900650D01*
X16777325Y-8900650D02*
X16815420Y-8900650D01*
X16815420Y-8900650D02*
X16834468Y-8910174D01*
X16834468Y-8910174D02*
X16843992Y-8929222D01*
X16843992Y-8929222D02*
X16843992Y-8948270D01*
X16843992Y-8948270D02*
X16748753Y-8967317D01*
X16920182Y-9024460D02*
X16939230Y-9033984D01*
X16939230Y-9033984D02*
X16977325Y-9033984D01*
X16977325Y-9033984D02*
X16996373Y-9024460D01*
X16996373Y-9024460D02*
X17005896Y-9005412D01*
X17005896Y-9005412D02*
X17005896Y-8995889D01*
X17005896Y-8995889D02*
X16996373Y-8976841D01*
X16996373Y-8976841D02*
X16977325Y-8967317D01*
X16977325Y-8967317D02*
X16948753Y-8967317D01*
X16948753Y-8967317D02*
X16929706Y-8957793D01*
X16929706Y-8957793D02*
X16920182Y-8938746D01*
X16920182Y-8938746D02*
X16920182Y-8929222D01*
X16920182Y-8929222D02*
X16929706Y-8910174D01*
X16929706Y-8910174D02*
X16948753Y-8900650D01*
X16948753Y-8900650D02*
X16977325Y-8900650D01*
X16977325Y-8900650D02*
X16996373Y-8910174D01*
X17072563Y-9110174D02*
X17082087Y-9100650D01*
X17082087Y-9100650D02*
X17101134Y-9072079D01*
X17101134Y-9072079D02*
X17110658Y-9053031D01*
X17110658Y-9053031D02*
X17120182Y-9024460D01*
X17120182Y-9024460D02*
X17129706Y-8976841D01*
X17129706Y-8976841D02*
X17129706Y-8938746D01*
X17129706Y-8938746D02*
X17120182Y-8891127D01*
X17120182Y-8891127D02*
X17110658Y-8862555D01*
X17110658Y-8862555D02*
X17101134Y-8843508D01*
X17101134Y-8843508D02*
X17082087Y-8814936D01*
X17082087Y-8814936D02*
X17072563Y-8805412D01*
X12297500Y-9206500D02*
G75*
G02*
X12097500Y-9206500I-100000J0D01*
G01*
X12097500Y-9206500D02*
G75*
G02*
X12297500Y-9206500I100000J0D01*
G01*
X12539229Y-9097984D02*
X12663039Y-9097984D01*
X12663039Y-9097984D02*
X12596372Y-9174174D01*
X12596372Y-9174174D02*
X12624943Y-9174174D01*
X12624943Y-9174174D02*
X12643991Y-9183698D01*
X12643991Y-9183698D02*
X12653515Y-9193222D01*
X12653515Y-9193222D02*
X12663039Y-9212270D01*
X12663039Y-9212270D02*
X12663039Y-9259889D01*
X12663039Y-9259889D02*
X12653515Y-9278936D01*
X12653515Y-9278936D02*
X12643991Y-9288460D01*
X12643991Y-9288460D02*
X12624943Y-9297984D01*
X12624943Y-9297984D02*
X12567801Y-9297984D01*
X12567801Y-9297984D02*
X12548753Y-9288460D01*
X12548753Y-9288460D02*
X12539229Y-9278936D01*
X12748753Y-9278936D02*
X12758277Y-9288460D01*
X12758277Y-9288460D02*
X12748753Y-9297984D01*
X12748753Y-9297984D02*
X12739229Y-9288460D01*
X12739229Y-9288460D02*
X12748753Y-9278936D01*
X12748753Y-9278936D02*
X12748753Y-9297984D01*
X12834467Y-9117031D02*
X12843991Y-9107508D01*
X12843991Y-9107508D02*
X12863039Y-9097984D01*
X12863039Y-9097984D02*
X12910658Y-9097984D01*
X12910658Y-9097984D02*
X12929705Y-9107508D01*
X12929705Y-9107508D02*
X12939229Y-9117031D01*
X12939229Y-9117031D02*
X12948753Y-9136079D01*
X12948753Y-9136079D02*
X12948753Y-9155127D01*
X12948753Y-9155127D02*
X12939229Y-9183698D01*
X12939229Y-9183698D02*
X12824943Y-9297984D01*
X12824943Y-9297984D02*
X12948753Y-9297984D01*
X13072562Y-9097984D02*
X13091610Y-9097984D01*
X13091610Y-9097984D02*
X13110658Y-9107508D01*
X13110658Y-9107508D02*
X13120182Y-9117031D01*
X13120182Y-9117031D02*
X13129705Y-9136079D01*
X13129705Y-9136079D02*
X13139229Y-9174174D01*
X13139229Y-9174174D02*
X13139229Y-9221793D01*
X13139229Y-9221793D02*
X13129705Y-9259889D01*
X13129705Y-9259889D02*
X13120182Y-9278936D01*
X13120182Y-9278936D02*
X13110658Y-9288460D01*
X13110658Y-9288460D02*
X13091610Y-9297984D01*
X13091610Y-9297984D02*
X13072562Y-9297984D01*
X13072562Y-9297984D02*
X13053515Y-9288460D01*
X13053515Y-9288460D02*
X13043991Y-9278936D01*
X13043991Y-9278936D02*
X13034467Y-9259889D01*
X13034467Y-9259889D02*
X13024943Y-9221793D01*
X13024943Y-9221793D02*
X13024943Y-9174174D01*
X13024943Y-9174174D02*
X13034467Y-9136079D01*
X13034467Y-9136079D02*
X13043991Y-9117031D01*
X13043991Y-9117031D02*
X13053515Y-9107508D01*
X13053515Y-9107508D02*
X13072562Y-9097984D01*
X13263039Y-9097984D02*
X13282086Y-9097984D01*
X13282086Y-9097984D02*
X13301134Y-9107508D01*
X13301134Y-9107508D02*
X13310658Y-9117031D01*
X13310658Y-9117031D02*
X13320182Y-9136079D01*
X13320182Y-9136079D02*
X13329705Y-9174174D01*
X13329705Y-9174174D02*
X13329705Y-9221793D01*
X13329705Y-9221793D02*
X13320182Y-9259889D01*
X13320182Y-9259889D02*
X13310658Y-9278936D01*
X13310658Y-9278936D02*
X13301134Y-9288460D01*
X13301134Y-9288460D02*
X13282086Y-9297984D01*
X13282086Y-9297984D02*
X13263039Y-9297984D01*
X13263039Y-9297984D02*
X13243991Y-9288460D01*
X13243991Y-9288460D02*
X13234467Y-9278936D01*
X13234467Y-9278936D02*
X13224943Y-9259889D01*
X13224943Y-9259889D02*
X13215420Y-9221793D01*
X13215420Y-9221793D02*
X13215420Y-9174174D01*
X13215420Y-9174174D02*
X13224943Y-9136079D01*
X13224943Y-9136079D02*
X13234467Y-9117031D01*
X13234467Y-9117031D02*
X13243991Y-9107508D01*
X13243991Y-9107508D02*
X13263039Y-9097984D01*
X13415420Y-9297984D02*
X13415420Y-9164650D01*
X13415420Y-9183698D02*
X13424943Y-9174174D01*
X13424943Y-9174174D02*
X13443991Y-9164650D01*
X13443991Y-9164650D02*
X13472563Y-9164650D01*
X13472563Y-9164650D02*
X13491610Y-9174174D01*
X13491610Y-9174174D02*
X13501134Y-9193222D01*
X13501134Y-9193222D02*
X13501134Y-9297984D01*
X13501134Y-9193222D02*
X13510658Y-9174174D01*
X13510658Y-9174174D02*
X13529705Y-9164650D01*
X13529705Y-9164650D02*
X13558277Y-9164650D01*
X13558277Y-9164650D02*
X13577324Y-9174174D01*
X13577324Y-9174174D02*
X13586848Y-9193222D01*
X13586848Y-9193222D02*
X13586848Y-9297984D01*
X13682086Y-9297984D02*
X13682086Y-9164650D01*
X13682086Y-9183698D02*
X13691610Y-9174174D01*
X13691610Y-9174174D02*
X13710658Y-9164650D01*
X13710658Y-9164650D02*
X13739229Y-9164650D01*
X13739229Y-9164650D02*
X13758277Y-9174174D01*
X13758277Y-9174174D02*
X13767801Y-9193222D01*
X13767801Y-9193222D02*
X13767801Y-9297984D01*
X13767801Y-9193222D02*
X13777324Y-9174174D01*
X13777324Y-9174174D02*
X13796372Y-9164650D01*
X13796372Y-9164650D02*
X13824943Y-9164650D01*
X13824943Y-9164650D02*
X13843991Y-9174174D01*
X13843991Y-9174174D02*
X13853515Y-9193222D01*
X13853515Y-9193222D02*
X13853515Y-9297984D01*
X14243991Y-9088460D02*
X14072563Y-9345603D01*
X14501134Y-9097984D02*
X14520182Y-9097984D01*
X14520182Y-9097984D02*
X14539229Y-9107508D01*
X14539229Y-9107508D02*
X14548753Y-9117031D01*
X14548753Y-9117031D02*
X14558277Y-9136079D01*
X14558277Y-9136079D02*
X14567801Y-9174174D01*
X14567801Y-9174174D02*
X14567801Y-9221793D01*
X14567801Y-9221793D02*
X14558277Y-9259889D01*
X14558277Y-9259889D02*
X14548753Y-9278936D01*
X14548753Y-9278936D02*
X14539229Y-9288460D01*
X14539229Y-9288460D02*
X14520182Y-9297984D01*
X14520182Y-9297984D02*
X14501134Y-9297984D01*
X14501134Y-9297984D02*
X14482086Y-9288460D01*
X14482086Y-9288460D02*
X14472563Y-9278936D01*
X14472563Y-9278936D02*
X14463039Y-9259889D01*
X14463039Y-9259889D02*
X14453515Y-9221793D01*
X14453515Y-9221793D02*
X14453515Y-9174174D01*
X14453515Y-9174174D02*
X14463039Y-9136079D01*
X14463039Y-9136079D02*
X14472563Y-9117031D01*
X14472563Y-9117031D02*
X14482086Y-9107508D01*
X14482086Y-9107508D02*
X14501134Y-9097984D01*
X14653515Y-9278936D02*
X14663039Y-9288460D01*
X14663039Y-9288460D02*
X14653515Y-9297984D01*
X14653515Y-9297984D02*
X14643991Y-9288460D01*
X14643991Y-9288460D02*
X14653515Y-9278936D01*
X14653515Y-9278936D02*
X14653515Y-9297984D01*
X14853515Y-9297984D02*
X14739229Y-9297984D01*
X14796372Y-9297984D02*
X14796372Y-9097984D01*
X14796372Y-9097984D02*
X14777325Y-9126555D01*
X14777325Y-9126555D02*
X14758277Y-9145603D01*
X14758277Y-9145603D02*
X14739229Y-9155127D01*
X14929706Y-9117031D02*
X14939229Y-9107508D01*
X14939229Y-9107508D02*
X14958277Y-9097984D01*
X14958277Y-9097984D02*
X15005896Y-9097984D01*
X15005896Y-9097984D02*
X15024944Y-9107508D01*
X15024944Y-9107508D02*
X15034467Y-9117031D01*
X15034467Y-9117031D02*
X15043991Y-9136079D01*
X15043991Y-9136079D02*
X15043991Y-9155127D01*
X15043991Y-9155127D02*
X15034467Y-9183698D01*
X15034467Y-9183698D02*
X14920182Y-9297984D01*
X14920182Y-9297984D02*
X15043991Y-9297984D01*
X15215420Y-9097984D02*
X15177325Y-9097984D01*
X15177325Y-9097984D02*
X15158277Y-9107508D01*
X15158277Y-9107508D02*
X15148753Y-9117031D01*
X15148753Y-9117031D02*
X15129706Y-9145603D01*
X15129706Y-9145603D02*
X15120182Y-9183698D01*
X15120182Y-9183698D02*
X15120182Y-9259889D01*
X15120182Y-9259889D02*
X15129706Y-9278936D01*
X15129706Y-9278936D02*
X15139229Y-9288460D01*
X15139229Y-9288460D02*
X15158277Y-9297984D01*
X15158277Y-9297984D02*
X15196372Y-9297984D01*
X15196372Y-9297984D02*
X15215420Y-9288460D01*
X15215420Y-9288460D02*
X15224944Y-9278936D01*
X15224944Y-9278936D02*
X15234467Y-9259889D01*
X15234467Y-9259889D02*
X15234467Y-9212270D01*
X15234467Y-9212270D02*
X15224944Y-9193222D01*
X15224944Y-9193222D02*
X15215420Y-9183698D01*
X15215420Y-9183698D02*
X15196372Y-9174174D01*
X15196372Y-9174174D02*
X15158277Y-9174174D01*
X15158277Y-9174174D02*
X15139229Y-9183698D01*
X15139229Y-9183698D02*
X15129706Y-9193222D01*
X15129706Y-9193222D02*
X15120182Y-9212270D01*
X15358277Y-9097984D02*
X15377325Y-9097984D01*
X15377325Y-9097984D02*
X15396372Y-9107508D01*
X15396372Y-9107508D02*
X15405896Y-9117031D01*
X15405896Y-9117031D02*
X15415420Y-9136079D01*
X15415420Y-9136079D02*
X15424944Y-9174174D01*
X15424944Y-9174174D02*
X15424944Y-9221793D01*
X15424944Y-9221793D02*
X15415420Y-9259889D01*
X15415420Y-9259889D02*
X15405896Y-9278936D01*
X15405896Y-9278936D02*
X15396372Y-9288460D01*
X15396372Y-9288460D02*
X15377325Y-9297984D01*
X15377325Y-9297984D02*
X15358277Y-9297984D01*
X15358277Y-9297984D02*
X15339229Y-9288460D01*
X15339229Y-9288460D02*
X15329706Y-9278936D01*
X15329706Y-9278936D02*
X15320182Y-9259889D01*
X15320182Y-9259889D02*
X15310658Y-9221793D01*
X15310658Y-9221793D02*
X15310658Y-9174174D01*
X15310658Y-9174174D02*
X15320182Y-9136079D01*
X15320182Y-9136079D02*
X15329706Y-9117031D01*
X15329706Y-9117031D02*
X15339229Y-9107508D01*
X15339229Y-9107508D02*
X15358277Y-9097984D01*
X15501134Y-9097984D02*
X15501134Y-9136079D01*
X15577325Y-9097984D02*
X15577325Y-9136079D01*
X15872563Y-9374174D02*
X15863039Y-9364650D01*
X15863039Y-9364650D02*
X15843991Y-9336079D01*
X15843991Y-9336079D02*
X15834468Y-9317031D01*
X15834468Y-9317031D02*
X15824944Y-9288460D01*
X15824944Y-9288460D02*
X15815420Y-9240841D01*
X15815420Y-9240841D02*
X15815420Y-9202746D01*
X15815420Y-9202746D02*
X15824944Y-9155127D01*
X15824944Y-9155127D02*
X15834468Y-9126555D01*
X15834468Y-9126555D02*
X15843991Y-9107508D01*
X15843991Y-9107508D02*
X15863039Y-9078936D01*
X15863039Y-9078936D02*
X15872563Y-9069412D01*
X16034468Y-9164650D02*
X16034468Y-9297984D01*
X15986848Y-9088460D02*
X15939229Y-9231317D01*
X15939229Y-9231317D02*
X16063039Y-9231317D01*
X16291610Y-9297984D02*
X16291610Y-9097984D01*
X16377325Y-9297984D02*
X16377325Y-9193222D01*
X16377325Y-9193222D02*
X16367801Y-9174174D01*
X16367801Y-9174174D02*
X16348753Y-9164650D01*
X16348753Y-9164650D02*
X16320182Y-9164650D01*
X16320182Y-9164650D02*
X16301134Y-9174174D01*
X16301134Y-9174174D02*
X16291610Y-9183698D01*
X16501134Y-9297984D02*
X16482087Y-9288460D01*
X16482087Y-9288460D02*
X16472563Y-9278936D01*
X16472563Y-9278936D02*
X16463039Y-9259889D01*
X16463039Y-9259889D02*
X16463039Y-9202746D01*
X16463039Y-9202746D02*
X16472563Y-9183698D01*
X16472563Y-9183698D02*
X16482087Y-9174174D01*
X16482087Y-9174174D02*
X16501134Y-9164650D01*
X16501134Y-9164650D02*
X16529706Y-9164650D01*
X16529706Y-9164650D02*
X16548753Y-9174174D01*
X16548753Y-9174174D02*
X16558277Y-9183698D01*
X16558277Y-9183698D02*
X16567801Y-9202746D01*
X16567801Y-9202746D02*
X16567801Y-9259889D01*
X16567801Y-9259889D02*
X16558277Y-9278936D01*
X16558277Y-9278936D02*
X16548753Y-9288460D01*
X16548753Y-9288460D02*
X16529706Y-9297984D01*
X16529706Y-9297984D02*
X16501134Y-9297984D01*
X16682087Y-9297984D02*
X16663039Y-9288460D01*
X16663039Y-9288460D02*
X16653515Y-9269412D01*
X16653515Y-9269412D02*
X16653515Y-9097984D01*
X16834468Y-9288460D02*
X16815420Y-9297984D01*
X16815420Y-9297984D02*
X16777325Y-9297984D01*
X16777325Y-9297984D02*
X16758277Y-9288460D01*
X16758277Y-9288460D02*
X16748753Y-9269412D01*
X16748753Y-9269412D02*
X16748753Y-9193222D01*
X16748753Y-9193222D02*
X16758277Y-9174174D01*
X16758277Y-9174174D02*
X16777325Y-9164650D01*
X16777325Y-9164650D02*
X16815420Y-9164650D01*
X16815420Y-9164650D02*
X16834468Y-9174174D01*
X16834468Y-9174174D02*
X16843992Y-9193222D01*
X16843992Y-9193222D02*
X16843992Y-9212270D01*
X16843992Y-9212270D02*
X16748753Y-9231317D01*
X16920182Y-9288460D02*
X16939230Y-9297984D01*
X16939230Y-9297984D02*
X16977325Y-9297984D01*
X16977325Y-9297984D02*
X16996373Y-9288460D01*
X16996373Y-9288460D02*
X17005896Y-9269412D01*
X17005896Y-9269412D02*
X17005896Y-9259889D01*
X17005896Y-9259889D02*
X16996373Y-9240841D01*
X16996373Y-9240841D02*
X16977325Y-9231317D01*
X16977325Y-9231317D02*
X16948753Y-9231317D01*
X16948753Y-9231317D02*
X16929706Y-9221793D01*
X16929706Y-9221793D02*
X16920182Y-9202746D01*
X16920182Y-9202746D02*
X16920182Y-9193222D01*
X16920182Y-9193222D02*
X16929706Y-9174174D01*
X16929706Y-9174174D02*
X16948753Y-9164650D01*
X16948753Y-9164650D02*
X16977325Y-9164650D01*
X16977325Y-9164650D02*
X16996373Y-9174174D01*
X17072563Y-9374174D02*
X17082087Y-9364650D01*
X17082087Y-9364650D02*
X17101134Y-9336079D01*
X17101134Y-9336079D02*
X17110658Y-9317031D01*
X17110658Y-9317031D02*
X17120182Y-9288460D01*
X17120182Y-9288460D02*
X17129706Y-9240841D01*
X17129706Y-9240841D02*
X17129706Y-9202746D01*
X17129706Y-9202746D02*
X17120182Y-9155127D01*
X17120182Y-9155127D02*
X17110658Y-9126555D01*
X17110658Y-9126555D02*
X17101134Y-9107508D01*
X17101134Y-9107508D02*
X17082087Y-9078936D01*
X17082087Y-9078936D02*
X17072563Y-9069412D01*
M02*
