G04 #@! TF.GenerationSoftware,KiCad,Pcbnew,9.0.3*
G04 #@! TF.CreationDate,2025-08-26T16:33:49-07:00*
G04 #@! TF.ProjectId,i2c_breakout,6932635f-6272-4656-916b-6f75742e6b69,v1.0.0*
G04 #@! TF.SameCoordinates,Original*
G04 #@! TF.FileFunction,Copper,L1,Top*
G04 #@! TF.FilePolarity,Positive*
%FSLAX45Y45*%
G04 Gerber Fmt 4.5, Leading zero omitted, Abs format (unit mm)*
G04 Created by KiCad (PCBNEW 9.0.3) date 2025-08-26 16:33:49*
%MOMM*%
%LPD*%
G01*
G04 APERTURE LIST*
G04 Aperture macros list*
%AMRoundRect*
0 Rectangle with rounded corners*
0 $1 Rounding radius*
0 $2 $3 $4 $5 $6 $7 $8 $9 X,Y pos of 4 corners*
0 Add a 4 corners polygon primitive as box body*
4,1,4,$2,$3,$4,$5,$6,$7,$8,$9,$2,$3,0*
0 Add four circle primitives for the rounded corners*
1,1,$1+$1,$2,$3*
1,1,$1+$1,$4,$5*
1,1,$1+$1,$6,$7*
1,1,$1+$1,$8,$9*
0 Add four rect primitives between the rounded corners*
20,1,$1+$1,$2,$3,$4,$5,0*
20,1,$1+$1,$4,$5,$6,$7,0*
20,1,$1+$1,$6,$7,$8,$9,0*
20,1,$1+$1,$8,$9,$2,$3,0*%
%AMFreePoly0*
4,1,6,1.000000,0.000000,0.500000,-0.750000,-0.500000,-0.750000,-0.500000,0.750000,0.500000,0.750000,1.000000,0.000000,1.000000,0.000000,$1*%
%AMFreePoly1*
4,1,7,0.700000,0.000000,1.200000,-0.750000,-1.200000,-0.750000,-0.700000,0.000000,-1.200000,0.750000,1.200000,0.750000,0.700000,0.000000,0.700000,0.000000,$1*%
G04 Aperture macros list end*
G04 #@! TA.AperFunction,ComponentPad*
%ADD10C,5.700000*%
G04 #@! TD*
G04 #@! TA.AperFunction,SMDPad,CuDef*
%ADD11RoundRect,0.150000X0.150000X0.625000X-0.150000X0.625000X-0.150000X-0.625000X0.150000X-0.625000X0*%
G04 #@! TD*
G04 #@! TA.AperFunction,SMDPad,CuDef*
%ADD12RoundRect,0.250000X0.350000X0.650000X-0.350000X0.650000X-0.350000X-0.650000X0.350000X-0.650000X0*%
G04 #@! TD*
G04 #@! TA.AperFunction,SMDPad,CuDef*
%ADD13RoundRect,0.375000X-0.625000X-0.375000X0.625000X-0.375000X0.625000X0.375000X-0.625000X0.375000X0*%
G04 #@! TD*
G04 #@! TA.AperFunction,SMDPad,CuDef*
%ADD14RoundRect,0.500000X-0.500000X-1.400000X0.500000X-1.400000X0.500000X1.400000X-0.500000X1.400000X0*%
G04 #@! TD*
G04 #@! TA.AperFunction,SMDPad,CuDef*
%ADD15RoundRect,0.225000X-0.225000X-0.250000X0.225000X-0.250000X0.225000X0.250000X-0.225000X0.250000X0*%
G04 #@! TD*
G04 #@! TA.AperFunction,SMDPad,CuDef*
%ADD16RoundRect,0.150000X-0.625000X0.150000X-0.625000X-0.150000X0.625000X-0.150000X0.625000X0.150000X0*%
G04 #@! TD*
G04 #@! TA.AperFunction,SMDPad,CuDef*
%ADD17RoundRect,0.250000X-0.650000X0.350000X-0.650000X-0.350000X0.650000X-0.350000X0.650000X0.350000X0*%
G04 #@! TD*
G04 #@! TA.AperFunction,SMDPad,CuDef*
%ADD18RoundRect,0.150000X0.625000X-0.150000X0.625000X0.150000X-0.625000X0.150000X-0.625000X-0.150000X0*%
G04 #@! TD*
G04 #@! TA.AperFunction,SMDPad,CuDef*
%ADD19RoundRect,0.250000X0.650000X-0.350000X0.650000X0.350000X-0.650000X0.350000X-0.650000X-0.350000X0*%
G04 #@! TD*
G04 #@! TA.AperFunction,SMDPad,CuDef*
%ADD20RoundRect,0.150000X-0.150000X-0.625000X0.150000X-0.625000X0.150000X0.625000X-0.150000X0.625000X0*%
G04 #@! TD*
G04 #@! TA.AperFunction,SMDPad,CuDef*
%ADD21RoundRect,0.250000X-0.350000X-0.650000X0.350000X-0.650000X0.350000X0.650000X-0.350000X0.650000X0*%
G04 #@! TD*
G04 #@! TA.AperFunction,SMDPad,CuDef*
%ADD22RoundRect,0.225000X0.225000X0.250000X-0.225000X0.250000X-0.225000X-0.250000X0.225000X-0.250000X0*%
G04 #@! TD*
G04 #@! TA.AperFunction,SMDPad,CuDef*
%ADD23FreePoly0,270.000000*%
G04 #@! TD*
G04 #@! TA.AperFunction,SMDPad,CuDef*
%ADD24FreePoly1,270.000000*%
G04 #@! TD*
G04 #@! TA.AperFunction,SMDPad,CuDef*
%ADD25FreePoly0,90.000000*%
G04 #@! TD*
G04 #@! TA.AperFunction,ViaPad*
%ADD26C,0.600000*%
G04 #@! TD*
G04 #@! TA.AperFunction,Conductor*
%ADD27C,0.500000*%
G04 #@! TD*
G04 #@! TA.AperFunction,Conductor*
%ADD28C,0.200000*%
G04 #@! TD*
G04 APERTURE END LIST*
D10*
X15350000Y-7850000D03*
D11*
X14100000Y-5333750D03*
X14000000Y-5333750D03*
X13900000Y-5333750D03*
X13800000Y-5333750D03*
D12*
X14230000Y-4946250D03*
X13670000Y-4946250D03*
D10*
X12750000Y-7850000D03*
D13*
X13615000Y-6323750D03*
X13615000Y-6553750D03*
D14*
X14245000Y-6553750D03*
D13*
X13615000Y-6783750D03*
D15*
X13147500Y-6843750D03*
X13302500Y-6843750D03*
D16*
X12832500Y-6483750D03*
X12832500Y-6583750D03*
X12832500Y-6683750D03*
X12832500Y-6783750D03*
D17*
X12445000Y-6353750D03*
X12445000Y-6913750D03*
D10*
X15350000Y-5250000D03*
D18*
X15257500Y-6783750D03*
X15257500Y-6683750D03*
X15257500Y-6583750D03*
X15257500Y-6483750D03*
D19*
X15645000Y-6913750D03*
X15645000Y-6353750D03*
D20*
X13800000Y-7753750D03*
X13900000Y-7753750D03*
X14000000Y-7753750D03*
X14100000Y-7753750D03*
D21*
X13670000Y-8141250D03*
X14230000Y-8141250D03*
D22*
X13315000Y-6373750D03*
X13160000Y-6373750D03*
D23*
X14605000Y-6373750D03*
D24*
X14605000Y-6573750D03*
D25*
X14605000Y-6773750D03*
D10*
X12750000Y-5250000D03*
D26*
X12832500Y-6583750D03*
X13147500Y-6843750D03*
X15257500Y-6683750D03*
X14000000Y-5333750D03*
X14605000Y-6573750D03*
X13900000Y-7753750D03*
D27*
X13615000Y-6553750D02*
X14245000Y-6553750D01*
X13315000Y-6443750D02*
X13425000Y-6553750D01*
X14245000Y-6553750D02*
X14425000Y-6373750D01*
X13315000Y-6373750D02*
X13315000Y-6443750D01*
X13425000Y-6553750D02*
X13615000Y-6553750D01*
X14425000Y-6373750D02*
X14605000Y-6373750D01*
X13240100Y-6751150D02*
X13582400Y-6751150D01*
X13582400Y-6751150D02*
X13615000Y-6783750D01*
X13147500Y-6843750D02*
X13240100Y-6751150D01*
X13625000Y-6793750D02*
X14585000Y-6793750D01*
X13615000Y-6783750D02*
X13625000Y-6793750D01*
X14585000Y-6793750D02*
X14605000Y-6773750D01*
D28*
X14134097Y-7861350D02*
X14030100Y-7861350D01*
X15365100Y-6553650D02*
X15335000Y-6583750D01*
X14030100Y-7861350D02*
X14000000Y-7831250D01*
X15365100Y-6449653D02*
X15365100Y-6553650D01*
X12910000Y-6683750D02*
X12979900Y-6613850D01*
X13765903Y-5226150D02*
X13869900Y-5226150D01*
X13900000Y-5411250D02*
X14741800Y-6253050D01*
X13900000Y-5256250D02*
X13900000Y-5333750D01*
X12979900Y-6012153D02*
X13765903Y-5226150D01*
X15335000Y-6583750D02*
X15257500Y-6583750D01*
X14741800Y-6253050D02*
X15168497Y-6253050D01*
X15257500Y-6583750D02*
X15215803Y-6583750D01*
X14160100Y-7835347D02*
X14134097Y-7861350D01*
X15168497Y-6253050D02*
X15365100Y-6449653D01*
X15215803Y-6583750D02*
X14160100Y-7639453D01*
X12979900Y-6613850D02*
X12979900Y-6012153D01*
X14160100Y-7639453D02*
X14160100Y-7835347D01*
X13869900Y-5226150D02*
X13900000Y-5256250D01*
X14000000Y-7831250D02*
X14000000Y-7753750D01*
X12832500Y-6683750D02*
X12910000Y-6683750D01*
X13900000Y-5333750D02*
X13900000Y-5411250D01*
X13800000Y-5411250D02*
X14681900Y-6293150D01*
X12832500Y-6783750D02*
X12910000Y-6783750D01*
X13800000Y-5333750D02*
X13800000Y-5411250D01*
X12910000Y-6783750D02*
X13020000Y-6673750D01*
X13020000Y-6113750D02*
X13800000Y-5333750D01*
X14100000Y-7599553D02*
X14100000Y-7753750D01*
X15257500Y-6483750D02*
X15215803Y-6483750D01*
X14681900Y-6293150D02*
X15066900Y-6293150D01*
X15066900Y-6293150D02*
X15257500Y-6483750D01*
X13020000Y-6673750D02*
X13020000Y-6113750D01*
X15215803Y-6483750D02*
X14100000Y-7599553D01*
G04 #@! TA.AperFunction,Conductor*
G36*
X13555860Y-4852019D02*
G01*
X13560436Y-4857299D01*
X13561430Y-4864215D01*
X13561171Y-4865315D01*
X13561191Y-4865319D01*
X13561049Y-4865981D01*
X13560000Y-4876251D01*
X13560000Y-4921250D01*
X13780000Y-4921250D01*
X13780000Y-4876253D01*
X13780000Y-4876251D01*
X13778950Y-4865980D01*
X13778809Y-4865318D01*
X13779036Y-4865269D01*
X13778833Y-4859369D01*
X13782405Y-4853364D01*
X13788657Y-4850244D01*
X13790844Y-4850050D01*
X14109156Y-4850050D01*
X14115860Y-4852019D01*
X14120436Y-4857299D01*
X14121430Y-4864215D01*
X14121171Y-4865315D01*
X14121191Y-4865319D01*
X14121049Y-4865981D01*
X14120000Y-4876251D01*
X14120000Y-4921250D01*
X14340000Y-4921250D01*
X14340000Y-4876253D01*
X14340000Y-4876251D01*
X14338950Y-4865980D01*
X14338809Y-4865318D01*
X14339036Y-4865269D01*
X14338833Y-4859369D01*
X14342405Y-4853364D01*
X14348657Y-4850244D01*
X14350844Y-4850050D01*
X15393411Y-4850050D01*
X15399695Y-4850050D01*
X15400303Y-4850065D01*
X15433693Y-4851705D01*
X15434904Y-4851825D01*
X15436212Y-4852019D01*
X15467670Y-4856685D01*
X15468862Y-4856922D01*
X15500995Y-4864971D01*
X15502159Y-4865324D01*
X15509281Y-4867872D01*
X15533347Y-4876483D01*
X15534469Y-4876948D01*
X15564416Y-4891112D01*
X15565487Y-4891684D01*
X15593899Y-4908714D01*
X15594911Y-4909390D01*
X15621517Y-4929122D01*
X15622458Y-4929894D01*
X15647001Y-4952140D01*
X15647860Y-4952999D01*
X15664402Y-4971250D01*
X15670105Y-4977542D01*
X15670877Y-4978483D01*
X15690610Y-5005089D01*
X15691286Y-5006101D01*
X15704178Y-5027609D01*
X15708315Y-5034512D01*
X15708888Y-5035585D01*
X15723051Y-5065530D01*
X15723517Y-5066654D01*
X15734676Y-5097841D01*
X15735029Y-5099006D01*
X15743078Y-5131137D01*
X15743315Y-5132331D01*
X15748175Y-5165096D01*
X15748295Y-5166307D01*
X15749935Y-5199697D01*
X15749950Y-5200305D01*
X15749950Y-6235806D01*
X15747981Y-6242509D01*
X15742701Y-6247085D01*
X15735785Y-6248079D01*
X15733650Y-6247576D01*
X15725270Y-6244799D01*
X15725269Y-6244799D01*
X15714999Y-6243750D01*
X15670000Y-6243750D01*
X15670000Y-6463750D01*
X15714997Y-6463750D01*
X15714999Y-6463750D01*
X15725269Y-6462701D01*
X15733649Y-6459924D01*
X15740632Y-6459683D01*
X15746637Y-6463257D01*
X15749756Y-6469509D01*
X15749950Y-6471694D01*
X15749950Y-6795806D01*
X15747981Y-6802509D01*
X15742701Y-6807085D01*
X15735785Y-6808079D01*
X15733650Y-6807576D01*
X15725270Y-6804799D01*
X15725269Y-6804799D01*
X15714999Y-6803750D01*
X15670000Y-6803750D01*
X15670000Y-7023750D01*
X15714997Y-7023750D01*
X15714999Y-7023750D01*
X15725269Y-7022701D01*
X15733649Y-7019924D01*
X15740632Y-7019683D01*
X15746637Y-7023257D01*
X15749756Y-7029509D01*
X15749950Y-7031694D01*
X15749950Y-7899695D01*
X15749935Y-7900303D01*
X15748295Y-7933693D01*
X15748175Y-7934904D01*
X15743315Y-7967669D01*
X15743078Y-7968863D01*
X15735029Y-8000994D01*
X15734676Y-8002159D01*
X15723517Y-8033346D01*
X15723051Y-8034470D01*
X15708888Y-8064415D01*
X15708315Y-8065488D01*
X15691286Y-8093899D01*
X15690610Y-8094911D01*
X15670877Y-8121517D01*
X15670105Y-8122458D01*
X15647861Y-8147001D01*
X15647001Y-8147861D01*
X15622458Y-8170105D01*
X15621517Y-8170877D01*
X15594911Y-8190610D01*
X15593899Y-8191286D01*
X15565488Y-8208315D01*
X15564415Y-8208888D01*
X15534470Y-8223051D01*
X15533346Y-8223517D01*
X15502159Y-8234676D01*
X15500994Y-8235029D01*
X15468863Y-8243078D01*
X15467669Y-8243315D01*
X15434904Y-8248175D01*
X15433693Y-8248295D01*
X15402199Y-8249842D01*
X15400303Y-8249935D01*
X15399695Y-8249950D01*
X14346702Y-8249950D01*
X14339998Y-8247981D01*
X14335422Y-8242701D01*
X14334428Y-8235785D01*
X14334931Y-8233650D01*
X14338950Y-8221520D01*
X14338951Y-8221519D01*
X14340000Y-8211249D01*
X14340000Y-8211247D01*
X14340000Y-8166250D01*
X14120000Y-8166250D01*
X14120000Y-8211249D01*
X14121049Y-8221520D01*
X14125069Y-8233650D01*
X14125309Y-8240632D01*
X14121736Y-8246637D01*
X14115484Y-8249756D01*
X14113298Y-8249950D01*
X13786702Y-8249950D01*
X13779998Y-8247981D01*
X13775422Y-8242701D01*
X13774428Y-8235785D01*
X13774931Y-8233650D01*
X13778950Y-8221520D01*
X13778951Y-8221519D01*
X13780000Y-8211249D01*
X13780000Y-8211247D01*
X13780000Y-8166250D01*
X13560000Y-8166250D01*
X13560000Y-8211249D01*
X13561049Y-8221520D01*
X13565069Y-8233650D01*
X13565309Y-8240632D01*
X13561736Y-8246637D01*
X13555484Y-8249756D01*
X13553298Y-8249950D01*
X12700305Y-8249950D01*
X12699697Y-8249935D01*
X12697690Y-8249836D01*
X12666307Y-8248295D01*
X12665096Y-8248175D01*
X12632330Y-8243315D01*
X12631137Y-8243078D01*
X12599005Y-8235029D01*
X12597841Y-8234676D01*
X12566654Y-8223517D01*
X12565530Y-8223051D01*
X12535584Y-8208888D01*
X12534512Y-8208315D01*
X12506101Y-8191286D01*
X12505089Y-8190610D01*
X12478483Y-8170877D01*
X12477542Y-8170105D01*
X12473288Y-8166250D01*
X12452999Y-8147860D01*
X12452139Y-8147001D01*
X12429894Y-8122458D01*
X12429122Y-8121517D01*
X12409390Y-8094911D01*
X12408714Y-8093899D01*
X12395139Y-8071251D01*
X13560000Y-8071251D01*
X13560000Y-8116250D01*
X13645000Y-8116250D01*
X13695000Y-8116250D01*
X13780000Y-8116250D01*
X13780000Y-8071253D01*
X13780000Y-8071251D01*
X14120000Y-8071251D01*
X14120000Y-8116250D01*
X14205000Y-8116250D01*
X14255000Y-8116250D01*
X14340000Y-8116250D01*
X14340000Y-8071253D01*
X14340000Y-8071251D01*
X14338950Y-8060980D01*
X14333436Y-8044338D01*
X14333436Y-8044337D01*
X14324231Y-8029415D01*
X14311834Y-8017018D01*
X14296912Y-8007814D01*
X14296912Y-8007814D01*
X14280270Y-8002299D01*
X14280269Y-8002299D01*
X14269999Y-8001250D01*
X14255000Y-8001250D01*
X14255000Y-8116250D01*
X14205000Y-8116250D01*
X14205000Y-8001250D01*
X14190003Y-8001250D01*
X14190001Y-8001250D01*
X14179730Y-8002299D01*
X14163088Y-8007814D01*
X14163087Y-8007814D01*
X14148165Y-8017018D01*
X14135768Y-8029415D01*
X14126564Y-8044337D01*
X14126564Y-8044338D01*
X14121049Y-8060980D01*
X14121049Y-8060981D01*
X14120000Y-8071251D01*
X13780000Y-8071251D01*
X13780000Y-8071251D01*
X13778950Y-8060980D01*
X13773436Y-8044338D01*
X13773436Y-8044337D01*
X13764231Y-8029415D01*
X13751834Y-8017018D01*
X13736912Y-8007814D01*
X13736912Y-8007814D01*
X13720270Y-8002299D01*
X13720269Y-8002299D01*
X13709999Y-8001250D01*
X13695000Y-8001250D01*
X13695000Y-8116250D01*
X13645000Y-8116250D01*
X13645000Y-8001250D01*
X13630003Y-8001250D01*
X13630001Y-8001250D01*
X13619730Y-8002299D01*
X13603088Y-8007814D01*
X13603087Y-8007814D01*
X13588165Y-8017018D01*
X13575768Y-8029415D01*
X13566564Y-8044337D01*
X13566564Y-8044338D01*
X13561049Y-8060980D01*
X13561049Y-8060981D01*
X13560000Y-8071251D01*
X12395139Y-8071251D01*
X12391684Y-8065487D01*
X12391112Y-8064416D01*
X12376948Y-8034469D01*
X12376483Y-8033346D01*
X12375076Y-8029415D01*
X12365374Y-8002299D01*
X12365324Y-8002159D01*
X12364971Y-8000994D01*
X12364096Y-7997501D01*
X12356922Y-7968862D01*
X12356685Y-7967669D01*
X12351824Y-7934904D01*
X12351705Y-7933693D01*
X12350900Y-7917307D01*
X12350065Y-7900303D01*
X12350050Y-7899695D01*
X12350050Y-7822815D01*
X13720000Y-7822815D01*
X13720290Y-7826499D01*
X13720290Y-7826499D01*
X13724872Y-7842269D01*
X13724872Y-7842270D01*
X13733231Y-7856405D01*
X13733232Y-7856406D01*
X13744844Y-7868018D01*
X13744845Y-7868018D01*
X13758980Y-7876378D01*
X13774751Y-7880960D01*
X13774751Y-7880960D01*
X13775000Y-7880979D01*
X13775000Y-7880979D01*
X13775000Y-7778750D01*
X13720000Y-7778750D01*
X13720000Y-7822815D01*
X12350050Y-7822815D01*
X12350050Y-7684685D01*
X13720000Y-7684685D01*
X13720000Y-7728750D01*
X13775000Y-7728750D01*
X13775000Y-7626520D01*
X13774750Y-7626540D01*
X13758981Y-7631122D01*
X13758980Y-7631122D01*
X13744845Y-7639481D01*
X13744844Y-7639482D01*
X13733232Y-7651094D01*
X13733231Y-7651095D01*
X13724872Y-7665230D01*
X13724872Y-7665231D01*
X13720290Y-7681000D01*
X13720290Y-7681001D01*
X13720000Y-7684685D01*
X12350050Y-7684685D01*
X12350050Y-7034893D01*
X12352018Y-7028189D01*
X12357299Y-7023614D01*
X12364056Y-7022642D01*
X12364057Y-7022632D01*
X12364099Y-7022636D01*
X12364215Y-7022619D01*
X12364585Y-7022686D01*
X12375002Y-7023750D01*
X12420000Y-7023750D01*
X12470000Y-7023750D01*
X12514997Y-7023750D01*
X12514999Y-7023750D01*
X12525270Y-7022700D01*
X12541912Y-7017186D01*
X12541912Y-7017186D01*
X12556834Y-7007981D01*
X12569231Y-6995584D01*
X12578436Y-6980662D01*
X12578436Y-6980662D01*
X12583950Y-6964020D01*
X12583951Y-6964019D01*
X12585000Y-6953749D01*
X12585000Y-6953747D01*
X12585000Y-6938750D01*
X12470000Y-6938750D01*
X12470000Y-7023750D01*
X12420000Y-7023750D01*
X12420000Y-7023750D01*
X12420000Y-6888750D01*
X12470000Y-6888750D01*
X12585000Y-6888750D01*
X12585000Y-6873753D01*
X12585000Y-6873751D01*
X12583950Y-6863480D01*
X12578436Y-6846838D01*
X12578436Y-6846837D01*
X12569231Y-6831915D01*
X12556834Y-6819518D01*
X12541912Y-6810314D01*
X12541912Y-6810314D01*
X12525270Y-6804799D01*
X12525269Y-6804799D01*
X12514999Y-6803750D01*
X12470000Y-6803750D01*
X12470000Y-6888750D01*
X12420000Y-6888750D01*
X12420000Y-6803750D01*
X12375003Y-6803750D01*
X12375001Y-6803750D01*
X12364057Y-6804868D01*
X12364035Y-6804656D01*
X12358077Y-6804210D01*
X12352498Y-6800004D01*
X12350079Y-6793449D01*
X12350050Y-6792607D01*
X12350050Y-6562180D01*
X12704950Y-6562180D01*
X12704950Y-6605320D01*
X12705240Y-6609007D01*
X12705240Y-6609007D01*
X12709825Y-6624789D01*
X12711392Y-6627438D01*
X12713110Y-6634211D01*
X12711392Y-6640062D01*
X12709825Y-6642711D01*
X12705240Y-6658493D01*
X12705240Y-6658493D01*
X12704950Y-6662180D01*
X12704950Y-6705320D01*
X12705240Y-6709007D01*
X12705240Y-6709007D01*
X12709825Y-6724789D01*
X12711392Y-6727438D01*
X12713110Y-6734211D01*
X12711392Y-6740062D01*
X12711112Y-6740535D01*
X12709825Y-6742711D01*
X12705240Y-6758493D01*
X12705240Y-6758493D01*
X12704950Y-6762180D01*
X12704950Y-6805320D01*
X12705240Y-6809007D01*
X12705240Y-6809007D01*
X12709825Y-6824789D01*
X12709825Y-6824790D01*
X12709826Y-6824790D01*
X12712234Y-6828862D01*
X12718192Y-6838936D01*
X12718192Y-6838937D01*
X12729813Y-6850558D01*
X12729813Y-6850558D01*
X12729813Y-6850558D01*
X12743960Y-6858924D01*
X12748122Y-6860134D01*
X12759743Y-6863510D01*
X12759743Y-6863510D01*
X12759743Y-6863510D01*
X12763431Y-6863800D01*
X12763431Y-6863800D01*
X12901569Y-6863800D01*
X12901569Y-6863800D01*
X12905257Y-6863510D01*
X12905257Y-6863510D01*
X12905257Y-6863510D01*
X12912076Y-6861529D01*
X12921040Y-6858924D01*
X12935186Y-6850558D01*
X12946808Y-6838936D01*
X12955174Y-6824790D01*
X12955175Y-6824788D01*
X12955219Y-6824687D01*
X12955346Y-6824499D01*
X12955572Y-6824118D01*
X12955595Y-6824132D01*
X12955624Y-6824090D01*
X12955716Y-6823668D01*
X12957827Y-6820847D01*
X12957831Y-6820843D01*
X12958052Y-6820622D01*
X12958052Y-6820621D01*
X12958452Y-6820222D01*
X13055851Y-6722823D01*
X13055851Y-6722822D01*
X13056871Y-6721802D01*
X13056872Y-6721802D01*
X13068052Y-6710621D01*
X13075958Y-6696928D01*
X13080050Y-6681656D01*
X13080050Y-6470714D01*
X13082018Y-6464010D01*
X13087299Y-6459435D01*
X13094215Y-6458440D01*
X13098960Y-6460160D01*
X13106651Y-6464904D01*
X13106652Y-6464905D01*
X13122739Y-6470235D01*
X13132668Y-6471250D01*
X13135000Y-6471250D01*
X13135000Y-6276250D01*
X13132669Y-6276250D01*
X13132667Y-6276250D01*
X13122739Y-6277264D01*
X13106652Y-6282595D01*
X13106651Y-6282596D01*
X13098960Y-6287340D01*
X13092220Y-6289184D01*
X13085554Y-6287092D01*
X13081077Y-6281727D01*
X13080050Y-6276786D01*
X13080050Y-6143760D01*
X13082018Y-6137056D01*
X13083682Y-6134992D01*
X13254572Y-5964101D01*
X13752482Y-5466191D01*
X13758614Y-5462843D01*
X13765583Y-5463341D01*
X13770018Y-5466192D01*
X14555858Y-6252032D01*
X14559207Y-6258164D01*
X14558709Y-6265133D01*
X14554521Y-6270727D01*
X14547975Y-6273168D01*
X14547090Y-6273200D01*
X14530000Y-6273200D01*
X14522806Y-6273714D01*
X14509000Y-6277768D01*
X14496897Y-6285547D01*
X14496896Y-6285547D01*
X14489208Y-6294420D01*
X14483330Y-6298198D01*
X14479837Y-6298700D01*
X14417608Y-6298700D01*
X14403109Y-6301584D01*
X14403108Y-6301584D01*
X14389451Y-6307241D01*
X14389450Y-6307242D01*
X14377158Y-6315455D01*
X14364985Y-6327628D01*
X14358853Y-6330976D01*
X14351884Y-6330478D01*
X14350476Y-6329851D01*
X14332305Y-6320359D01*
X14323639Y-6317879D01*
X14312742Y-6314761D01*
X14312741Y-6314761D01*
X14312741Y-6314761D01*
X14306110Y-6314172D01*
X14300804Y-6313700D01*
X14300803Y-6313700D01*
X14189197Y-6313700D01*
X14189196Y-6313700D01*
X14189196Y-6313700D01*
X14188620Y-6313751D01*
X14177258Y-6314761D01*
X14157695Y-6320359D01*
X14148677Y-6325070D01*
X14139659Y-6329780D01*
X14139659Y-6329780D01*
X14139659Y-6329780D01*
X14123889Y-6342639D01*
X14111030Y-6358409D01*
X14111030Y-6358409D01*
X14107274Y-6365600D01*
X14101609Y-6376445D01*
X14096011Y-6396008D01*
X14096011Y-6396009D01*
X14094950Y-6407947D01*
X14094950Y-6466300D01*
X14092981Y-6473004D01*
X14087701Y-6477579D01*
X14082550Y-6478700D01*
X13764294Y-6478700D01*
X13757590Y-6476731D01*
X13753185Y-6471809D01*
X13751703Y-6468820D01*
X13739772Y-6453978D01*
X13739772Y-6453978D01*
X13732811Y-6448382D01*
X13728820Y-6442648D01*
X13728562Y-6435666D01*
X13732119Y-6429653D01*
X13732811Y-6429053D01*
X13739737Y-6423487D01*
X13739737Y-6423487D01*
X13751661Y-6408652D01*
X13751661Y-6408652D01*
X13760117Y-6391602D01*
X13764710Y-6373132D01*
X13765000Y-6368860D01*
X13765000Y-6348750D01*
X13465000Y-6348750D01*
X13465000Y-6368860D01*
X13465290Y-6373132D01*
X13469883Y-6391602D01*
X13478339Y-6408652D01*
X13478339Y-6408652D01*
X13490263Y-6423486D01*
X13497188Y-6429053D01*
X13501180Y-6434787D01*
X13501438Y-6441770D01*
X13497880Y-6447783D01*
X13497188Y-6448383D01*
X13493756Y-6451142D01*
X13490511Y-6453750D01*
X13490228Y-6453978D01*
X13478297Y-6468820D01*
X13476815Y-6471809D01*
X13475737Y-6472975D01*
X13475077Y-6474420D01*
X13473414Y-6475489D01*
X13472072Y-6476941D01*
X13470463Y-6477385D01*
X13469199Y-6478198D01*
X13465706Y-6478700D01*
X13461223Y-6478700D01*
X13454519Y-6476731D01*
X13452455Y-6475068D01*
X13409931Y-6432545D01*
X13406583Y-6426412D01*
X13406929Y-6419876D01*
X13407888Y-6416982D01*
X13409035Y-6413521D01*
X13410050Y-6403584D01*
X13410050Y-6343916D01*
X13409035Y-6333979D01*
X13403700Y-6317880D01*
X13403700Y-6317880D01*
X13403700Y-6317879D01*
X13394797Y-6303446D01*
X13394797Y-6303445D01*
X13382804Y-6291453D01*
X13382804Y-6291453D01*
X13378801Y-6288984D01*
X13368370Y-6282550D01*
X13368370Y-6282550D01*
X13368370Y-6282550D01*
X13368369Y-6282550D01*
X13356572Y-6278640D01*
X13465000Y-6278640D01*
X13465000Y-6298750D01*
X13590000Y-6298750D01*
X13640000Y-6298750D01*
X13765000Y-6298750D01*
X13765000Y-6278640D01*
X13764710Y-6274367D01*
X13760117Y-6255898D01*
X13751661Y-6238848D01*
X13751661Y-6238847D01*
X13739737Y-6224013D01*
X13739737Y-6224013D01*
X13724902Y-6212089D01*
X13724902Y-6212089D01*
X13707852Y-6203633D01*
X13689382Y-6199040D01*
X13685110Y-6198750D01*
X13640000Y-6198750D01*
X13640000Y-6298750D01*
X13590000Y-6298750D01*
X13590000Y-6198750D01*
X13544890Y-6198750D01*
X13540617Y-6199040D01*
X13522148Y-6203633D01*
X13505098Y-6212089D01*
X13505097Y-6212089D01*
X13490263Y-6224013D01*
X13490263Y-6224013D01*
X13478339Y-6238847D01*
X13478339Y-6238848D01*
X13469883Y-6255898D01*
X13465290Y-6274367D01*
X13465000Y-6278640D01*
X13356572Y-6278640D01*
X13352271Y-6277215D01*
X13342335Y-6276200D01*
X13287666Y-6276200D01*
X13287664Y-6276200D01*
X13277729Y-6277215D01*
X13277729Y-6277215D01*
X13261630Y-6282550D01*
X13261629Y-6282550D01*
X13247196Y-6291453D01*
X13247195Y-6291453D01*
X13246232Y-6292416D01*
X13240100Y-6295765D01*
X13233131Y-6295266D01*
X13228696Y-6292416D01*
X13227773Y-6291493D01*
X13227773Y-6291492D01*
X13213349Y-6282596D01*
X13213348Y-6282595D01*
X13197261Y-6277264D01*
X13187332Y-6276250D01*
X13185000Y-6276250D01*
X13185000Y-6471250D01*
X13187331Y-6471250D01*
X13187332Y-6471250D01*
X13197261Y-6470235D01*
X13213348Y-6464905D01*
X13213349Y-6464904D01*
X13224296Y-6458152D01*
X13225938Y-6457703D01*
X13227375Y-6456790D01*
X13229238Y-6456800D01*
X13231035Y-6456308D01*
X13232659Y-6456818D01*
X13234362Y-6456827D01*
X13235924Y-6457842D01*
X13237702Y-6458400D01*
X13238825Y-6459728D01*
X13240220Y-6460635D01*
X13241377Y-6462745D01*
X13242112Y-6463614D01*
X13242683Y-6464882D01*
X13242834Y-6465641D01*
X13248492Y-6479299D01*
X13250018Y-6481584D01*
X13250591Y-6482442D01*
X13256705Y-6491592D01*
X13256705Y-6491592D01*
X13323606Y-6558493D01*
X13377158Y-6612045D01*
X13381905Y-6615217D01*
X13389450Y-6620258D01*
X13389451Y-6620258D01*
X13389451Y-6620258D01*
X13400389Y-6624789D01*
X13403109Y-6625916D01*
X13403109Y-6625916D01*
X13403109Y-6625916D01*
X13417608Y-6628800D01*
X13417608Y-6628800D01*
X13417608Y-6628800D01*
X13432392Y-6628800D01*
X13465706Y-6628800D01*
X13472410Y-6630768D01*
X13476815Y-6635691D01*
X13478297Y-6638679D01*
X13481537Y-6642710D01*
X13490228Y-6653522D01*
X13490866Y-6654035D01*
X13494858Y-6659770D01*
X13495116Y-6666752D01*
X13491558Y-6672765D01*
X13485314Y-6675900D01*
X13483097Y-6676100D01*
X13232708Y-6676100D01*
X13229824Y-6676673D01*
X13229824Y-6676673D01*
X13218209Y-6678984D01*
X13218209Y-6678984D01*
X13211759Y-6681656D01*
X13204551Y-6684641D01*
X13204550Y-6684642D01*
X13199627Y-6687931D01*
X13199627Y-6687931D01*
X13192258Y-6692855D01*
X13142545Y-6742568D01*
X13136413Y-6745917D01*
X13133777Y-6746200D01*
X13120166Y-6746200D01*
X13120164Y-6746200D01*
X13110229Y-6747215D01*
X13110229Y-6747215D01*
X13094130Y-6752550D01*
X13094129Y-6752550D01*
X13079696Y-6761453D01*
X13079695Y-6761453D01*
X13067703Y-6773445D01*
X13067703Y-6773446D01*
X13058800Y-6787879D01*
X13058800Y-6787880D01*
X13053465Y-6803979D01*
X13052450Y-6813915D01*
X13052450Y-6873584D01*
X13052450Y-6873585D01*
X13053465Y-6883521D01*
X13053465Y-6883521D01*
X13058800Y-6899619D01*
X13058800Y-6899620D01*
X13067703Y-6914054D01*
X13067703Y-6914054D01*
X13079695Y-6926047D01*
X13079696Y-6926047D01*
X13094129Y-6934950D01*
X13094130Y-6934950D01*
X13094130Y-6934950D01*
X13110229Y-6940285D01*
X13120165Y-6941300D01*
X13174834Y-6941300D01*
X13174835Y-6941300D01*
X13174835Y-6941300D01*
X13180276Y-6940744D01*
X13184771Y-6940285D01*
X13200870Y-6934950D01*
X13215304Y-6926047D01*
X13216267Y-6925084D01*
X13222399Y-6921736D01*
X13229368Y-6922233D01*
X13233803Y-6925084D01*
X13234727Y-6926007D01*
X13234727Y-6926007D01*
X13249151Y-6934904D01*
X13249152Y-6934905D01*
X13265239Y-6940235D01*
X13275168Y-6941250D01*
X13327500Y-6941250D01*
X13329831Y-6941250D01*
X13329832Y-6941250D01*
X13339761Y-6940235D01*
X13355848Y-6934905D01*
X13355849Y-6934904D01*
X13370273Y-6926007D01*
X13370273Y-6926007D01*
X13382257Y-6914023D01*
X13382257Y-6914023D01*
X13391154Y-6899599D01*
X13391155Y-6899598D01*
X13396485Y-6883511D01*
X13397500Y-6873582D01*
X13397500Y-6873581D01*
X13397500Y-6868750D01*
X13327500Y-6868750D01*
X13327500Y-6941250D01*
X13275168Y-6941250D01*
X13277500Y-6941250D01*
X13277500Y-6856150D01*
X13279468Y-6849446D01*
X13284749Y-6844871D01*
X13289900Y-6843750D01*
X13302500Y-6843750D01*
X13302500Y-6838600D01*
X13304468Y-6831896D01*
X13309749Y-6827321D01*
X13314900Y-6826200D01*
X13453820Y-6826200D01*
X13460524Y-6828168D01*
X13465100Y-6833449D01*
X13465854Y-6835607D01*
X13469702Y-6851079D01*
X13469836Y-6851620D01*
X13478297Y-6868679D01*
X13478297Y-6868679D01*
X13490228Y-6883522D01*
X13490228Y-6883522D01*
X13505070Y-6895453D01*
X13505071Y-6895453D01*
X13522130Y-6903914D01*
X13522130Y-6903914D01*
X13522131Y-6903914D01*
X13540611Y-6908510D01*
X13544888Y-6908800D01*
X13685112Y-6908800D01*
X13689389Y-6908510D01*
X13707869Y-6903914D01*
X13724930Y-6895453D01*
X13739772Y-6883522D01*
X13747599Y-6873785D01*
X13747883Y-6873431D01*
X13753618Y-6869439D01*
X13757548Y-6868800D01*
X14505501Y-6868800D01*
X14510652Y-6869921D01*
X14515758Y-6872252D01*
X14515758Y-6872252D01*
X14515758Y-6872252D01*
X14530000Y-6874300D01*
X14530000Y-6874300D01*
X14680000Y-6874300D01*
X14687194Y-6873785D01*
X14700999Y-6869732D01*
X14713103Y-6861953D01*
X14722525Y-6851079D01*
X14728502Y-6837992D01*
X14730550Y-6823750D01*
X14730550Y-6723750D01*
X14730149Y-6717398D01*
X14728866Y-6712739D01*
X14728547Y-6707682D01*
X14730550Y-6693750D01*
X14730550Y-6453750D01*
X14730550Y-6453750D01*
X14730550Y-6453748D01*
X14729908Y-6445717D01*
X14729907Y-6445716D01*
X14729907Y-6445716D01*
X14729021Y-6442875D01*
X14728585Y-6437418D01*
X14728832Y-6435698D01*
X14730550Y-6423750D01*
X14730550Y-6365600D01*
X14732518Y-6358896D01*
X14737799Y-6354321D01*
X14742950Y-6353200D01*
X15036890Y-6353200D01*
X15043594Y-6355168D01*
X15045658Y-6356832D01*
X15128900Y-6440073D01*
X15132248Y-6446205D01*
X15132039Y-6452300D01*
X15130240Y-6458493D01*
X15130240Y-6458494D01*
X15129950Y-6462180D01*
X15129950Y-6479543D01*
X15127981Y-6486247D01*
X15126318Y-6488311D01*
X14051948Y-7562681D01*
X14051948Y-7562682D01*
X14046936Y-7571363D01*
X14046936Y-7571363D01*
X14044042Y-7576374D01*
X14044042Y-7576374D01*
X14044042Y-7576375D01*
X14039950Y-7591647D01*
X14039950Y-7591648D01*
X14039950Y-7608458D01*
X14039950Y-7608459D01*
X14039950Y-7614304D01*
X14037981Y-7621008D01*
X14032701Y-7625583D01*
X14025785Y-7626578D01*
X14025323Y-7626502D01*
X14025258Y-7626490D01*
X14021570Y-7626200D01*
X14021569Y-7626200D01*
X13978431Y-7626200D01*
X13978430Y-7626200D01*
X13974743Y-7626490D01*
X13974743Y-7626490D01*
X13958961Y-7631075D01*
X13956312Y-7632642D01*
X13949539Y-7634360D01*
X13943688Y-7632642D01*
X13941039Y-7631075D01*
X13925257Y-7626490D01*
X13925257Y-7626490D01*
X13921570Y-7626200D01*
X13921569Y-7626200D01*
X13878431Y-7626200D01*
X13878430Y-7626200D01*
X13874743Y-7626490D01*
X13874743Y-7626490D01*
X13858960Y-7631075D01*
X13858959Y-7631076D01*
X13856263Y-7632671D01*
X13849490Y-7634389D01*
X13843639Y-7632671D01*
X13841020Y-7631122D01*
X13841019Y-7631122D01*
X13825249Y-7626540D01*
X13825250Y-7626540D01*
X13825000Y-7626520D01*
X13825000Y-7662845D01*
X13824508Y-7666304D01*
X13820240Y-7680993D01*
X13820240Y-7680993D01*
X13819950Y-7684680D01*
X13819950Y-7822820D01*
X13820240Y-7826507D01*
X13820240Y-7826507D01*
X13824508Y-7841195D01*
X13825000Y-7844655D01*
X13825000Y-7880979D01*
X13825000Y-7880979D01*
X13825249Y-7880960D01*
X13841020Y-7876378D01*
X13843639Y-7874829D01*
X13850411Y-7873111D01*
X13856263Y-7874829D01*
X13858960Y-7876424D01*
X13858960Y-7876424D01*
X13858960Y-7876424D01*
X13874743Y-7881010D01*
X13874743Y-7881010D01*
X13874743Y-7881010D01*
X13878431Y-7881300D01*
X13878431Y-7881300D01*
X13921569Y-7881300D01*
X13921569Y-7881300D01*
X13925257Y-7881010D01*
X13925257Y-7881010D01*
X13925257Y-7881010D01*
X13931894Y-7879082D01*
X13941040Y-7876424D01*
X13942021Y-7875844D01*
X13943688Y-7874858D01*
X13944835Y-7874567D01*
X13945791Y-7873868D01*
X13948160Y-7873724D01*
X13950460Y-7873140D01*
X13951759Y-7873505D01*
X13952765Y-7873444D01*
X13955678Y-7874605D01*
X13956058Y-7874712D01*
X13956185Y-7874783D01*
X13958960Y-7876424D01*
X13959284Y-7876518D01*
X13960198Y-7877030D01*
X13960811Y-7877656D01*
X13962908Y-7879082D01*
X13964872Y-7881045D01*
X13964872Y-7881046D01*
X13993228Y-7909402D01*
X13993229Y-7909402D01*
X13993229Y-7909402D01*
X14006921Y-7917307D01*
X14006922Y-7917308D01*
X14022194Y-7921400D01*
X14022195Y-7921400D01*
X14038765Y-7921400D01*
X14038767Y-7921400D01*
X14125430Y-7921400D01*
X14125431Y-7921400D01*
X14126191Y-7921400D01*
X14142002Y-7921400D01*
X14142002Y-7921400D01*
X14157275Y-7917308D01*
X14162287Y-7914414D01*
X14170968Y-7909402D01*
X14182149Y-7898222D01*
X14182149Y-7898221D01*
X14208152Y-7872218D01*
X14216058Y-7858525D01*
X14220150Y-7843252D01*
X14220150Y-7827441D01*
X14220150Y-7826681D01*
X14220150Y-7826680D01*
X14220150Y-7669463D01*
X14222118Y-7662759D01*
X14223781Y-7660695D01*
X14930728Y-6953749D01*
X15505000Y-6953749D01*
X15506049Y-6964020D01*
X15511564Y-6980662D01*
X15511564Y-6980662D01*
X15520768Y-6995584D01*
X15533165Y-7007981D01*
X15548087Y-7017186D01*
X15548088Y-7017186D01*
X15564730Y-7022700D01*
X15564731Y-7022701D01*
X15575002Y-7023750D01*
X15620000Y-7023750D01*
X15620000Y-7023750D01*
X15620000Y-6938750D01*
X15505000Y-6938750D01*
X15505000Y-6953749D01*
X14930728Y-6953749D01*
X15010725Y-6873751D01*
X15505000Y-6873751D01*
X15505000Y-6888750D01*
X15620000Y-6888750D01*
X15620000Y-6803750D01*
X15575003Y-6803750D01*
X15575001Y-6803750D01*
X15564730Y-6804799D01*
X15548088Y-6810314D01*
X15548087Y-6810314D01*
X15533165Y-6819518D01*
X15520768Y-6831915D01*
X15511564Y-6846837D01*
X15511564Y-6846838D01*
X15506049Y-6863480D01*
X15506049Y-6863481D01*
X15505000Y-6873751D01*
X15010725Y-6873751D01*
X15075726Y-6808750D01*
X15130270Y-6808750D01*
X15130290Y-6808999D01*
X15134872Y-6824770D01*
X15143231Y-6838905D01*
X15143232Y-6838906D01*
X15154844Y-6850518D01*
X15154845Y-6850518D01*
X15168980Y-6858878D01*
X15168981Y-6858878D01*
X15184750Y-6863460D01*
X15184751Y-6863460D01*
X15188435Y-6863750D01*
X15188437Y-6863750D01*
X15232500Y-6863750D01*
X15282500Y-6863750D01*
X15326563Y-6863750D01*
X15326565Y-6863750D01*
X15330249Y-6863460D01*
X15330249Y-6863460D01*
X15336869Y-6861537D01*
X15336896Y-6861529D01*
X15346020Y-6858878D01*
X15360155Y-6850518D01*
X15360156Y-6850518D01*
X15371768Y-6838906D01*
X15371768Y-6838905D01*
X15380128Y-6824770D01*
X15384710Y-6808999D01*
X15384729Y-6808750D01*
X15384729Y-6808750D01*
X15282500Y-6808750D01*
X15282500Y-6863750D01*
X15232500Y-6863750D01*
X15232500Y-6808750D01*
X15130270Y-6808750D01*
X15130270Y-6808750D01*
X15075726Y-6808750D01*
X15122095Y-6762382D01*
X15128227Y-6759033D01*
X15130863Y-6758750D01*
X15166595Y-6758750D01*
X15170054Y-6759242D01*
X15184743Y-6763510D01*
X15184743Y-6763510D01*
X15184743Y-6763510D01*
X15188431Y-6763800D01*
X15188431Y-6763800D01*
X15326569Y-6763800D01*
X15326569Y-6763800D01*
X15330257Y-6763510D01*
X15330257Y-6763510D01*
X15330257Y-6763510D01*
X15344945Y-6759242D01*
X15348405Y-6758750D01*
X15384729Y-6758750D01*
X15384729Y-6758750D01*
X15384710Y-6758501D01*
X15384710Y-6758500D01*
X15380128Y-6742731D01*
X15380128Y-6742730D01*
X15378579Y-6740111D01*
X15376861Y-6733339D01*
X15378579Y-6727487D01*
X15380174Y-6724790D01*
X15384614Y-6709508D01*
X15384760Y-6709007D01*
X15384760Y-6709007D01*
X15385050Y-6705320D01*
X15385050Y-6705319D01*
X15385050Y-6662181D01*
X15384760Y-6658493D01*
X15380174Y-6642710D01*
X15378608Y-6640062D01*
X15378317Y-6638915D01*
X15377618Y-6637959D01*
X15377474Y-6635590D01*
X15376890Y-6633290D01*
X15377255Y-6631991D01*
X15377194Y-6630985D01*
X15378355Y-6628072D01*
X15378462Y-6627692D01*
X15378533Y-6627565D01*
X15380174Y-6624790D01*
X15380268Y-6624466D01*
X15380780Y-6623551D01*
X15381407Y-6622938D01*
X15382832Y-6620842D01*
X15383052Y-6620622D01*
X15383052Y-6620621D01*
X15383415Y-6620258D01*
X15384796Y-6618878D01*
X15384796Y-6618877D01*
X15413152Y-6590521D01*
X15421058Y-6576828D01*
X15425150Y-6561556D01*
X15425150Y-6545744D01*
X15425150Y-6544985D01*
X15425150Y-6544983D01*
X15425150Y-6441748D01*
X15425150Y-6441747D01*
X15424701Y-6440073D01*
X15423529Y-6435698D01*
X15421058Y-6426475D01*
X15414748Y-6415547D01*
X15413152Y-6412782D01*
X15401972Y-6401601D01*
X15401971Y-6401601D01*
X15394119Y-6393749D01*
X15505000Y-6393749D01*
X15506049Y-6404020D01*
X15511564Y-6420662D01*
X15511564Y-6420662D01*
X15520768Y-6435584D01*
X15533165Y-6447981D01*
X15548087Y-6457186D01*
X15548088Y-6457186D01*
X15564730Y-6462700D01*
X15564731Y-6462701D01*
X15575002Y-6463750D01*
X15620000Y-6463750D01*
X15620000Y-6463750D01*
X15620000Y-6378750D01*
X15505000Y-6378750D01*
X15505000Y-6393749D01*
X15394119Y-6393749D01*
X15314122Y-6313751D01*
X15505000Y-6313751D01*
X15505000Y-6328750D01*
X15620000Y-6328750D01*
X15620000Y-6243750D01*
X15575003Y-6243750D01*
X15575001Y-6243750D01*
X15564730Y-6244799D01*
X15548088Y-6250314D01*
X15548087Y-6250314D01*
X15533165Y-6259518D01*
X15520768Y-6271915D01*
X15511564Y-6286837D01*
X15511564Y-6286838D01*
X15506049Y-6303480D01*
X15506049Y-6303481D01*
X15505000Y-6313751D01*
X15314122Y-6313751D01*
X15217256Y-6216885D01*
X15217256Y-6216885D01*
X15205368Y-6204998D01*
X15205368Y-6204998D01*
X15196687Y-6199986D01*
X15196687Y-6199986D01*
X15196687Y-6199986D01*
X15191675Y-6197092D01*
X15176402Y-6193000D01*
X15160591Y-6193000D01*
X15159831Y-6193000D01*
X15159830Y-6193000D01*
X14771810Y-6193000D01*
X14765106Y-6191031D01*
X14763042Y-6189368D01*
X14052355Y-5478682D01*
X14049007Y-5472549D01*
X14049505Y-5465580D01*
X14053692Y-5459987D01*
X14060239Y-5457545D01*
X14064583Y-5458006D01*
X14074750Y-5460960D01*
X14074751Y-5460960D01*
X14075000Y-5460980D01*
X14075000Y-5460980D01*
X14125000Y-5460980D01*
X14125000Y-5460980D01*
X14125249Y-5460960D01*
X14141020Y-5456378D01*
X14155155Y-5448019D01*
X14155156Y-5448018D01*
X14166768Y-5436406D01*
X14166768Y-5436405D01*
X14175128Y-5422270D01*
X14175128Y-5422269D01*
X14179710Y-5406500D01*
X14179710Y-5406499D01*
X14180000Y-5402815D01*
X14180000Y-5402813D01*
X14180000Y-5358750D01*
X14125000Y-5358750D01*
X14125000Y-5460980D01*
X14075000Y-5460980D01*
X14075000Y-5424655D01*
X14075492Y-5421196D01*
X14079760Y-5406507D01*
X14079760Y-5406507D01*
X14080050Y-5402820D01*
X14080050Y-5402819D01*
X14080050Y-5308750D01*
X14125000Y-5308750D01*
X14180000Y-5308750D01*
X14180000Y-5264687D01*
X14180000Y-5264685D01*
X14179710Y-5261001D01*
X14179710Y-5261000D01*
X14175128Y-5245231D01*
X14175128Y-5245230D01*
X14166768Y-5231095D01*
X14166768Y-5231094D01*
X14155156Y-5219482D01*
X14155155Y-5219481D01*
X14141020Y-5211122D01*
X14141019Y-5211122D01*
X14125249Y-5206540D01*
X14125250Y-5206540D01*
X14125000Y-5206520D01*
X14125000Y-5308750D01*
X14080050Y-5308750D01*
X14080050Y-5264681D01*
X14079760Y-5260993D01*
X14079760Y-5260993D01*
X14075492Y-5246305D01*
X14075000Y-5242845D01*
X14075000Y-5206520D01*
X14074750Y-5206540D01*
X14058981Y-5211122D01*
X14058980Y-5211122D01*
X14056361Y-5212671D01*
X14049588Y-5214389D01*
X14043737Y-5212671D01*
X14041040Y-5211076D01*
X14041039Y-5211075D01*
X14025257Y-5206490D01*
X14025257Y-5206490D01*
X14021570Y-5206200D01*
X14021569Y-5206200D01*
X13978431Y-5206200D01*
X13978430Y-5206200D01*
X13974743Y-5206490D01*
X13974743Y-5206490D01*
X13958961Y-5211075D01*
X13956312Y-5212642D01*
X13955164Y-5212933D01*
X13954209Y-5213632D01*
X13951840Y-5213776D01*
X13949539Y-5214360D01*
X13948241Y-5213995D01*
X13947235Y-5214056D01*
X13944322Y-5212895D01*
X13943942Y-5212788D01*
X13943814Y-5212716D01*
X13941040Y-5211076D01*
X13940716Y-5210981D01*
X13939802Y-5210470D01*
X13939189Y-5209844D01*
X13937092Y-5208418D01*
X13919696Y-5191023D01*
X13919696Y-5191022D01*
X13906772Y-5178098D01*
X13906771Y-5178098D01*
X13898090Y-5173086D01*
X13898090Y-5173086D01*
X13898090Y-5173086D01*
X13893078Y-5170192D01*
X13877806Y-5166100D01*
X13861994Y-5166100D01*
X13861235Y-5166100D01*
X13861233Y-5166100D01*
X13774570Y-5166100D01*
X13774568Y-5166100D01*
X13773809Y-5166100D01*
X13757997Y-5166100D01*
X13747262Y-5168977D01*
X13742724Y-5170192D01*
X13742724Y-5170193D01*
X13737713Y-5173086D01*
X13737713Y-5173086D01*
X13733372Y-5175592D01*
X13729032Y-5178098D01*
X13729031Y-5178098D01*
X12931848Y-5975281D01*
X12931848Y-5975282D01*
X12926836Y-5983963D01*
X12926836Y-5983963D01*
X12923942Y-5988974D01*
X12923942Y-5988974D01*
X12923942Y-5988975D01*
X12919850Y-6004247D01*
X12919850Y-6004248D01*
X12919850Y-6021058D01*
X12919850Y-6021059D01*
X12919850Y-6391837D01*
X12917881Y-6398541D01*
X12912601Y-6403116D01*
X12905881Y-6404082D01*
X12905881Y-6404090D01*
X12905848Y-6404087D01*
X12905685Y-6404111D01*
X12905256Y-6404040D01*
X12901565Y-6403750D01*
X12857500Y-6403750D01*
X12857500Y-6471350D01*
X12855531Y-6478054D01*
X12850251Y-6482629D01*
X12845100Y-6483750D01*
X12832500Y-6483750D01*
X12832500Y-6491300D01*
X12830531Y-6498004D01*
X12825251Y-6502579D01*
X12820100Y-6503700D01*
X12763430Y-6503700D01*
X12759743Y-6503990D01*
X12759743Y-6503990D01*
X12745054Y-6508258D01*
X12741595Y-6508750D01*
X12705270Y-6508750D01*
X12705270Y-6508750D01*
X12705290Y-6508999D01*
X12705290Y-6508999D01*
X12709872Y-6524769D01*
X12709872Y-6524770D01*
X12711421Y-6527389D01*
X12713139Y-6534161D01*
X12711421Y-6540013D01*
X12709826Y-6542709D01*
X12709825Y-6542710D01*
X12705240Y-6558493D01*
X12705240Y-6558493D01*
X12704950Y-6562180D01*
X12350050Y-6562180D01*
X12350050Y-6474893D01*
X12352018Y-6468189D01*
X12357299Y-6463614D01*
X12364056Y-6462642D01*
X12364057Y-6462632D01*
X12364099Y-6462636D01*
X12364215Y-6462619D01*
X12364585Y-6462686D01*
X12375002Y-6463750D01*
X12420000Y-6463750D01*
X12470000Y-6463750D01*
X12514997Y-6463750D01*
X12514999Y-6463750D01*
X12525270Y-6462700D01*
X12537192Y-6458750D01*
X12705270Y-6458750D01*
X12705270Y-6458750D01*
X12807500Y-6458750D01*
X12807500Y-6403750D01*
X12763435Y-6403750D01*
X12759751Y-6404040D01*
X12759750Y-6404040D01*
X12743981Y-6408622D01*
X12743980Y-6408622D01*
X12729845Y-6416981D01*
X12729844Y-6416982D01*
X12718232Y-6428594D01*
X12718231Y-6428595D01*
X12709872Y-6442730D01*
X12705290Y-6458501D01*
X12705270Y-6458750D01*
X12537192Y-6458750D01*
X12541912Y-6457186D01*
X12541912Y-6457186D01*
X12549297Y-6452630D01*
X12556834Y-6447981D01*
X12569231Y-6435584D01*
X12578436Y-6420662D01*
X12578436Y-6420662D01*
X12583950Y-6404020D01*
X12583951Y-6404019D01*
X12585000Y-6393749D01*
X12585000Y-6393747D01*
X12585000Y-6378750D01*
X12470000Y-6378750D01*
X12470000Y-6463750D01*
X12420000Y-6463750D01*
X12420000Y-6463750D01*
X12420000Y-6328750D01*
X12470000Y-6328750D01*
X12585000Y-6328750D01*
X12585000Y-6313753D01*
X12585000Y-6313751D01*
X12583950Y-6303480D01*
X12578436Y-6286838D01*
X12578436Y-6286837D01*
X12569231Y-6271915D01*
X12556834Y-6259518D01*
X12541912Y-6250314D01*
X12541912Y-6250314D01*
X12525270Y-6244799D01*
X12525269Y-6244799D01*
X12514999Y-6243750D01*
X12470000Y-6243750D01*
X12470000Y-6328750D01*
X12420000Y-6328750D01*
X12420000Y-6243750D01*
X12375003Y-6243750D01*
X12375001Y-6243750D01*
X12364057Y-6244868D01*
X12364035Y-6244656D01*
X12358077Y-6244210D01*
X12352498Y-6240004D01*
X12350079Y-6233449D01*
X12350050Y-6232607D01*
X12350050Y-5200305D01*
X12350065Y-5199697D01*
X12351514Y-5170192D01*
X12351705Y-5166307D01*
X12351824Y-5165096D01*
X12356685Y-5132330D01*
X12356922Y-5131139D01*
X12364971Y-5099004D01*
X12365324Y-5097841D01*
X12369471Y-5086250D01*
X12376483Y-5066653D01*
X12376948Y-5065532D01*
X12391112Y-5035583D01*
X12391684Y-5034514D01*
X12402632Y-5016249D01*
X13560000Y-5016249D01*
X13561049Y-5026520D01*
X13566564Y-5043162D01*
X13566564Y-5043162D01*
X13575768Y-5058085D01*
X13588165Y-5070482D01*
X13603087Y-5079686D01*
X13603088Y-5079686D01*
X13619730Y-5085201D01*
X13619731Y-5085201D01*
X13630002Y-5086250D01*
X13645000Y-5086250D01*
X13695000Y-5086250D01*
X13709997Y-5086250D01*
X13709999Y-5086250D01*
X13720270Y-5085201D01*
X13736912Y-5079686D01*
X13736912Y-5079686D01*
X13751834Y-5070482D01*
X13764231Y-5058085D01*
X13773436Y-5043162D01*
X13773436Y-5043162D01*
X13778950Y-5026520D01*
X13778951Y-5026519D01*
X13780000Y-5016249D01*
X14120000Y-5016249D01*
X14121049Y-5026520D01*
X14126564Y-5043162D01*
X14126564Y-5043162D01*
X14135768Y-5058085D01*
X14148165Y-5070482D01*
X14163087Y-5079686D01*
X14163088Y-5079686D01*
X14179730Y-5085201D01*
X14179731Y-5085201D01*
X14190002Y-5086250D01*
X14205000Y-5086250D01*
X14255000Y-5086250D01*
X14269997Y-5086250D01*
X14269999Y-5086250D01*
X14280270Y-5085201D01*
X14296912Y-5079686D01*
X14296912Y-5079686D01*
X14311834Y-5070482D01*
X14324231Y-5058085D01*
X14333436Y-5043162D01*
X14333436Y-5043162D01*
X14338950Y-5026520D01*
X14338951Y-5026519D01*
X14340000Y-5016249D01*
X14340000Y-5016247D01*
X14340000Y-4971250D01*
X14255000Y-4971250D01*
X14255000Y-5086250D01*
X14205000Y-5086250D01*
X14205000Y-5086250D01*
X14205000Y-4971250D01*
X14120000Y-4971250D01*
X14120000Y-5016249D01*
X13780000Y-5016249D01*
X13780000Y-5016247D01*
X13780000Y-4971250D01*
X13695000Y-4971250D01*
X13695000Y-5086250D01*
X13645000Y-5086250D01*
X13645000Y-5086250D01*
X13645000Y-4971250D01*
X13560000Y-4971250D01*
X13560000Y-5016249D01*
X12402632Y-5016249D01*
X12408714Y-5006100D01*
X12409389Y-5005091D01*
X12429123Y-4978482D01*
X12429893Y-4977543D01*
X12452141Y-4952996D01*
X12452997Y-4952141D01*
X12477543Y-4929894D01*
X12478482Y-4929123D01*
X12505090Y-4909389D01*
X12506100Y-4908715D01*
X12534514Y-4891684D01*
X12535583Y-4891112D01*
X12565532Y-4876948D01*
X12566652Y-4876484D01*
X12597841Y-4865324D01*
X12599004Y-4864971D01*
X12631138Y-4856922D01*
X12632330Y-4856685D01*
X12665096Y-4851824D01*
X12666307Y-4851705D01*
X12699697Y-4850065D01*
X12700305Y-4850050D01*
X12706589Y-4850050D01*
X13549156Y-4850050D01*
X13555860Y-4852019D01*
G37*
G04 #@! TD.AperFunction*
M02*
