G04 #@! TF.GenerationSoftware,KiCad,Pcbnew,9.0.3*
G04 #@! TF.CreationDate,2025-08-26T16:50:38-07:00*
G04 #@! TF.ProjectId,i2c_breakout,6932635f-6272-4656-916b-6f75742e6b69,v1.0.0*
G04 #@! TF.SameCoordinates,Original*
G04 #@! TF.FileFunction,Soldermask,Top*
G04 #@! TF.FilePolarity,Negative*
%FSLAX45Y45*%
G04 Gerber Fmt 4.5, Leading zero omitted, Abs format (unit mm)*
G04 Created by KiCad (PCBNEW 9.0.3) date 2025-08-26 16:50:38*
%MOMM*%
%LPD*%
G01*
G04 APERTURE LIST*
G04 Aperture macros list*
%AMRoundRect*
0 Rectangle with rounded corners*
0 $1 Rounding radius*
0 $2 $3 $4 $5 $6 $7 $8 $9 X,Y pos of 4 corners*
0 Add a 4 corners polygon primitive as box body*
4,1,4,$2,$3,$4,$5,$6,$7,$8,$9,$2,$3,0*
0 Add four circle primitives for the rounded corners*
1,1,$1+$1,$2,$3*
1,1,$1+$1,$4,$5*
1,1,$1+$1,$6,$7*
1,1,$1+$1,$8,$9*
0 Add four rect primitives between the rounded corners*
20,1,$1+$1,$2,$3,$4,$5,0*
20,1,$1+$1,$4,$5,$6,$7,0*
20,1,$1+$1,$6,$7,$8,$9,0*
20,1,$1+$1,$8,$9,$2,$3,0*%
%AMFreePoly0*
4,1,6,1.000000,0.000000,0.500000,-0.750000,-0.500000,-0.750000,-0.500000,0.750000,0.500000,0.750000,1.000000,0.000000,1.000000,0.000000,$1*%
G04 Aperture macros list end*
%ADD10C,5.700000*%
%ADD11RoundRect,0.150000X0.150000X0.625000X-0.150000X0.625000X-0.150000X-0.625000X0.150000X-0.625000X0*%
%ADD12RoundRect,0.250000X0.350000X0.650000X-0.350000X0.650000X-0.350000X-0.650000X0.350000X-0.650000X0*%
%ADD13RoundRect,0.375000X-0.625000X-0.375000X0.625000X-0.375000X0.625000X0.375000X-0.625000X0.375000X0*%
%ADD14RoundRect,0.500000X-0.500000X-1.400000X0.500000X-1.400000X0.500000X1.400000X-0.500000X1.400000X0*%
%ADD15RoundRect,0.225000X-0.225000X-0.250000X0.225000X-0.250000X0.225000X0.250000X-0.225000X0.250000X0*%
%ADD16RoundRect,0.150000X-0.625000X0.150000X-0.625000X-0.150000X0.625000X-0.150000X0.625000X0.150000X0*%
%ADD17RoundRect,0.250000X-0.650000X0.350000X-0.650000X-0.350000X0.650000X-0.350000X0.650000X0.350000X0*%
%ADD18RoundRect,0.150000X0.625000X-0.150000X0.625000X0.150000X-0.625000X0.150000X-0.625000X-0.150000X0*%
%ADD19RoundRect,0.250000X0.650000X-0.350000X0.650000X0.350000X-0.650000X0.350000X-0.650000X-0.350000X0*%
%ADD20RoundRect,0.150000X-0.150000X-0.625000X0.150000X-0.625000X0.150000X0.625000X-0.150000X0.625000X0*%
%ADD21RoundRect,0.250000X-0.350000X-0.650000X0.350000X-0.650000X0.350000X0.650000X-0.350000X0.650000X0*%
%ADD22RoundRect,0.225000X0.225000X0.250000X-0.225000X0.250000X-0.225000X-0.250000X0.225000X-0.250000X0*%
%ADD23FreePoly0,270.000000*%
%ADD24FreePoly0,90.000000*%
G04 APERTURE END LIST*
G36*
X14680000Y-6323750D02*
G01*
X14530000Y-6323750D01*
X14530000Y-6823750D01*
X14680000Y-6823750D01*
X14680000Y-6323750D01*
G37*
D10*
X15350000Y-7850000D03*
D11*
X14100000Y-5333750D03*
X14000000Y-5333750D03*
X13900000Y-5333750D03*
X13800000Y-5333750D03*
D12*
X14230000Y-4946250D03*
X13670000Y-4946250D03*
D10*
X12750000Y-7850000D03*
D13*
X13615000Y-6323750D03*
X13615000Y-6553750D03*
D14*
X14245000Y-6553750D03*
D13*
X13615000Y-6783750D03*
D15*
X13147500Y-6843750D03*
X13302500Y-6843750D03*
D16*
X12832500Y-6483750D03*
X12832500Y-6583750D03*
X12832500Y-6683750D03*
X12832500Y-6783750D03*
D17*
X12445000Y-6353750D03*
X12445000Y-6913750D03*
D10*
X15350000Y-5250000D03*
D18*
X15257500Y-6783750D03*
X15257500Y-6683750D03*
X15257500Y-6583750D03*
X15257500Y-6483750D03*
D19*
X15645000Y-6913750D03*
X15645000Y-6353750D03*
D20*
X13800000Y-7753750D03*
X13900000Y-7753750D03*
X14000000Y-7753750D03*
X14100000Y-7753750D03*
D21*
X13670000Y-8141250D03*
X14230000Y-8141250D03*
D22*
X13315000Y-6373750D03*
X13160000Y-6373750D03*
D23*
X14605000Y-6373750D03*
D24*
X14605000Y-6773750D03*
D10*
X12750000Y-5250000D03*
M02*
