G04 #@! TF.GenerationSoftware,KiCad,Pcbnew,9.0.3*
G04 #@! TF.CreationDate,2025-08-26T17:56:25-07:00*
G04 #@! TF.ProjectId,i2c_breakout,6932635f-6272-4656-916b-6f75742e6b69,v1.0.0*
G04 #@! TF.SameCoordinates,Original*
G04 #@! TF.FileFunction,Legend,Top*
G04 #@! TF.FilePolarity,Positive*
%FSLAX45Y45*%
G04 Gerber Fmt 4.5, Leading zero omitted, Abs format (unit mm)*
G04 Created by KiCad (PCBNEW 9.0.3) date 2025-08-26 17:56:25*
%MOMM*%
%LPD*%
G01*
G04 APERTURE LIST*
G04 Aperture macros list*
%AMRoundRect*
0 Rectangle with rounded corners*
0 $1 Rounding radius*
0 $2 $3 $4 $5 $6 $7 $8 $9 X,Y pos of 4 corners*
0 Add a 4 corners polygon primitive as box body*
4,1,4,$2,$3,$4,$5,$6,$7,$8,$9,$2,$3,0*
0 Add four circle primitives for the rounded corners*
1,1,$1+$1,$2,$3*
1,1,$1+$1,$4,$5*
1,1,$1+$1,$6,$7*
1,1,$1+$1,$8,$9*
0 Add four rect primitives between the rounded corners*
20,1,$1+$1,$2,$3,$4,$5,0*
20,1,$1+$1,$4,$5,$6,$7,0*
20,1,$1+$1,$6,$7,$8,$9,0*
20,1,$1+$1,$8,$9,$2,$3,0*%
%AMFreePoly0*
4,1,6,1.000000,0.000000,0.500000,-0.750000,-0.500000,-0.750000,-0.500000,0.750000,0.500000,0.750000,1.000000,0.000000,1.000000,0.000000,$1*%
G04 Aperture macros list end*
%ADD10C,0.150000*%
%ADD11C,0.120000*%
%ADD12C,5.700000*%
%ADD13RoundRect,0.150000X0.150000X0.625000X-0.150000X0.625000X-0.150000X-0.625000X0.150000X-0.625000X0*%
%ADD14RoundRect,0.250000X0.350000X0.650000X-0.350000X0.650000X-0.350000X-0.650000X0.350000X-0.650000X0*%
%ADD15RoundRect,0.375000X-0.625000X-0.375000X0.625000X-0.375000X0.625000X0.375000X-0.625000X0.375000X0*%
%ADD16RoundRect,0.500000X-0.500000X-1.400000X0.500000X-1.400000X0.500000X1.400000X-0.500000X1.400000X0*%
%ADD17RoundRect,0.225000X-0.225000X-0.250000X0.225000X-0.250000X0.225000X0.250000X-0.225000X0.250000X0*%
%ADD18RoundRect,0.150000X-0.625000X0.150000X-0.625000X-0.150000X0.625000X-0.150000X0.625000X0.150000X0*%
%ADD19RoundRect,0.250000X-0.650000X0.350000X-0.650000X-0.350000X0.650000X-0.350000X0.650000X0.350000X0*%
%ADD20RoundRect,0.150000X0.625000X-0.150000X0.625000X0.150000X-0.625000X0.150000X-0.625000X-0.150000X0*%
%ADD21RoundRect,0.250000X0.650000X-0.350000X0.650000X0.350000X-0.650000X0.350000X-0.650000X-0.350000X0*%
%ADD22RoundRect,0.150000X-0.150000X-0.625000X0.150000X-0.625000X0.150000X0.625000X-0.150000X0.625000X0*%
%ADD23RoundRect,0.250000X-0.350000X-0.650000X0.350000X-0.650000X0.350000X0.650000X-0.350000X0.650000X0*%
%ADD24RoundRect,0.225000X0.225000X0.250000X-0.225000X0.250000X-0.225000X-0.250000X0.225000X-0.250000X0*%
%ADD25FreePoly0,270.000000*%
%ADD26FreePoly0,90.000000*%
G04 APERTURE END LIST*
D10*
X12458678Y-6160732D02*
X12458678Y-6060732D01*
X12506297Y-6094065D02*
X12506297Y-6160732D01*
X12506297Y-6103589D02*
X12511059Y-6098827D01*
X12511059Y-6098827D02*
X12520583Y-6094065D01*
X12520583Y-6094065D02*
X12534868Y-6094065D01*
X12534868Y-6094065D02*
X12544392Y-6098827D01*
X12544392Y-6098827D02*
X12549154Y-6108351D01*
X12549154Y-6108351D02*
X12549154Y-6160732D01*
X12596773Y-6094065D02*
X12596773Y-6194065D01*
X12596773Y-6098827D02*
X12606297Y-6094065D01*
X12606297Y-6094065D02*
X12625344Y-6094065D01*
X12625344Y-6094065D02*
X12634868Y-6098827D01*
X12634868Y-6098827D02*
X12639630Y-6103589D01*
X12639630Y-6103589D02*
X12644392Y-6113113D01*
X12644392Y-6113113D02*
X12644392Y-6141684D01*
X12644392Y-6141684D02*
X12639630Y-6151208D01*
X12639630Y-6151208D02*
X12634868Y-6155970D01*
X12634868Y-6155970D02*
X12625344Y-6160732D01*
X12625344Y-6160732D02*
X12606297Y-6160732D01*
X12606297Y-6160732D02*
X12596773Y-6155970D01*
X12730106Y-6094065D02*
X12730106Y-6160732D01*
X12687249Y-6094065D02*
X12687249Y-6146446D01*
X12687249Y-6146446D02*
X12692011Y-6155970D01*
X12692011Y-6155970D02*
X12701535Y-6160732D01*
X12701535Y-6160732D02*
X12715821Y-6160732D01*
X12715821Y-6160732D02*
X12725344Y-6155970D01*
X12725344Y-6155970D02*
X12730106Y-6151208D01*
X12763440Y-6094065D02*
X12801535Y-6094065D01*
X12777725Y-6060732D02*
X12777725Y-6146446D01*
X12777725Y-6146446D02*
X12782487Y-6155970D01*
X12782487Y-6155970D02*
X12792011Y-6160732D01*
X12792011Y-6160732D02*
X12801535Y-6160732D01*
X14789154Y-6320732D02*
X14851059Y-6320732D01*
X14851059Y-6320732D02*
X14817725Y-6358827D01*
X14817725Y-6358827D02*
X14832011Y-6358827D01*
X14832011Y-6358827D02*
X14841535Y-6363589D01*
X14841535Y-6363589D02*
X14846297Y-6368351D01*
X14846297Y-6368351D02*
X14851059Y-6377875D01*
X14851059Y-6377875D02*
X14851059Y-6401684D01*
X14851059Y-6401684D02*
X14846297Y-6411208D01*
X14846297Y-6411208D02*
X14841535Y-6415970D01*
X14841535Y-6415970D02*
X14832011Y-6420732D01*
X14832011Y-6420732D02*
X14803440Y-6420732D01*
X14803440Y-6420732D02*
X14793916Y-6415970D01*
X14793916Y-6415970D02*
X14789154Y-6411208D01*
X14879630Y-6320732D02*
X14912964Y-6420732D01*
X14912964Y-6420732D02*
X14946297Y-6320732D01*
X14970106Y-6320732D02*
X15032011Y-6320732D01*
X15032011Y-6320732D02*
X14998678Y-6358827D01*
X14998678Y-6358827D02*
X15012964Y-6358827D01*
X15012964Y-6358827D02*
X15022487Y-6363589D01*
X15022487Y-6363589D02*
X15027249Y-6368351D01*
X15027249Y-6368351D02*
X15032011Y-6377875D01*
X15032011Y-6377875D02*
X15032011Y-6401684D01*
X15032011Y-6401684D02*
X15027249Y-6411208D01*
X15027249Y-6411208D02*
X15022487Y-6415970D01*
X15022487Y-6415970D02*
X15012964Y-6420732D01*
X15012964Y-6420732D02*
X14984392Y-6420732D01*
X14984392Y-6420732D02*
X14974868Y-6415970D01*
X14974868Y-6415970D02*
X14970106Y-6411208D01*
X13752725Y-7436982D02*
X13771773Y-7436982D01*
X13771773Y-7436982D02*
X13781297Y-7441744D01*
X13781297Y-7441744D02*
X13790821Y-7451268D01*
X13790821Y-7451268D02*
X13795583Y-7470315D01*
X13795583Y-7470315D02*
X13795583Y-7503648D01*
X13795583Y-7503648D02*
X13790821Y-7522696D01*
X13790821Y-7522696D02*
X13781297Y-7532220D01*
X13781297Y-7532220D02*
X13771773Y-7536982D01*
X13771773Y-7536982D02*
X13752725Y-7536982D01*
X13752725Y-7536982D02*
X13743202Y-7532220D01*
X13743202Y-7532220D02*
X13733678Y-7522696D01*
X13733678Y-7522696D02*
X13728916Y-7503648D01*
X13728916Y-7503648D02*
X13728916Y-7470315D01*
X13728916Y-7470315D02*
X13733678Y-7451268D01*
X13733678Y-7451268D02*
X13743202Y-7441744D01*
X13743202Y-7441744D02*
X13752725Y-7436982D01*
X13881297Y-7470315D02*
X13881297Y-7536982D01*
X13838440Y-7470315D02*
X13838440Y-7522696D01*
X13838440Y-7522696D02*
X13843202Y-7532220D01*
X13843202Y-7532220D02*
X13852725Y-7536982D01*
X13852725Y-7536982D02*
X13867011Y-7536982D01*
X13867011Y-7536982D02*
X13876535Y-7532220D01*
X13876535Y-7532220D02*
X13881297Y-7527458D01*
X13914630Y-7470315D02*
X13952725Y-7470315D01*
X13928916Y-7436982D02*
X13928916Y-7522696D01*
X13928916Y-7522696D02*
X13933678Y-7532220D01*
X13933678Y-7532220D02*
X13943202Y-7536982D01*
X13943202Y-7536982D02*
X13952725Y-7536982D01*
X13986059Y-7470315D02*
X13986059Y-7570315D01*
X13986059Y-7475077D02*
X13995583Y-7470315D01*
X13995583Y-7470315D02*
X14014630Y-7470315D01*
X14014630Y-7470315D02*
X14024154Y-7475077D01*
X14024154Y-7475077D02*
X14028916Y-7479839D01*
X14028916Y-7479839D02*
X14033678Y-7489363D01*
X14033678Y-7489363D02*
X14033678Y-7517934D01*
X14033678Y-7517934D02*
X14028916Y-7527458D01*
X14028916Y-7527458D02*
X14024154Y-7532220D01*
X14024154Y-7532220D02*
X14014630Y-7536982D01*
X14014630Y-7536982D02*
X13995583Y-7536982D01*
X13995583Y-7536982D02*
X13986059Y-7532220D01*
X14119392Y-7470315D02*
X14119392Y-7536982D01*
X14076535Y-7470315D02*
X14076535Y-7522696D01*
X14076535Y-7522696D02*
X14081297Y-7532220D01*
X14081297Y-7532220D02*
X14090821Y-7536982D01*
X14090821Y-7536982D02*
X14105106Y-7536982D01*
X14105106Y-7536982D02*
X14114630Y-7532220D01*
X14114630Y-7532220D02*
X14119392Y-7527458D01*
X14152726Y-7470315D02*
X14190821Y-7470315D01*
X14167011Y-7436982D02*
X14167011Y-7522696D01*
X14167011Y-7522696D02*
X14171773Y-7532220D01*
X14171773Y-7532220D02*
X14181297Y-7536982D01*
X14181297Y-7536982D02*
X14190821Y-7536982D01*
X15250225Y-6040732D02*
X15269273Y-6040732D01*
X15269273Y-6040732D02*
X15278797Y-6045494D01*
X15278797Y-6045494D02*
X15288321Y-6055018D01*
X15288321Y-6055018D02*
X15293083Y-6074065D01*
X15293083Y-6074065D02*
X15293083Y-6107398D01*
X15293083Y-6107398D02*
X15288321Y-6126446D01*
X15288321Y-6126446D02*
X15278797Y-6135970D01*
X15278797Y-6135970D02*
X15269273Y-6140732D01*
X15269273Y-6140732D02*
X15250225Y-6140732D01*
X15250225Y-6140732D02*
X15240702Y-6135970D01*
X15240702Y-6135970D02*
X15231178Y-6126446D01*
X15231178Y-6126446D02*
X15226416Y-6107398D01*
X15226416Y-6107398D02*
X15226416Y-6074065D01*
X15226416Y-6074065D02*
X15231178Y-6055018D01*
X15231178Y-6055018D02*
X15240702Y-6045494D01*
X15240702Y-6045494D02*
X15250225Y-6040732D01*
X15378797Y-6074065D02*
X15378797Y-6140732D01*
X15335940Y-6074065D02*
X15335940Y-6126446D01*
X15335940Y-6126446D02*
X15340702Y-6135970D01*
X15340702Y-6135970D02*
X15350225Y-6140732D01*
X15350225Y-6140732D02*
X15364511Y-6140732D01*
X15364511Y-6140732D02*
X15374035Y-6135970D01*
X15374035Y-6135970D02*
X15378797Y-6131208D01*
X15412130Y-6074065D02*
X15450225Y-6074065D01*
X15426416Y-6040732D02*
X15426416Y-6126446D01*
X15426416Y-6126446D02*
X15431178Y-6135970D01*
X15431178Y-6135970D02*
X15440702Y-6140732D01*
X15440702Y-6140732D02*
X15450225Y-6140732D01*
X15483559Y-6074065D02*
X15483559Y-6174065D01*
X15483559Y-6078827D02*
X15493083Y-6074065D01*
X15493083Y-6074065D02*
X15512130Y-6074065D01*
X15512130Y-6074065D02*
X15521654Y-6078827D01*
X15521654Y-6078827D02*
X15526416Y-6083589D01*
X15526416Y-6083589D02*
X15531178Y-6093113D01*
X15531178Y-6093113D02*
X15531178Y-6121684D01*
X15531178Y-6121684D02*
X15526416Y-6131208D01*
X15526416Y-6131208D02*
X15521654Y-6135970D01*
X15521654Y-6135970D02*
X15512130Y-6140732D01*
X15512130Y-6140732D02*
X15493083Y-6140732D01*
X15493083Y-6140732D02*
X15483559Y-6135970D01*
X15616892Y-6074065D02*
X15616892Y-6140732D01*
X15574035Y-6074065D02*
X15574035Y-6126446D01*
X15574035Y-6126446D02*
X15578797Y-6135970D01*
X15578797Y-6135970D02*
X15588321Y-6140732D01*
X15588321Y-6140732D02*
X15602606Y-6140732D01*
X15602606Y-6140732D02*
X15612130Y-6135970D01*
X15612130Y-6135970D02*
X15616892Y-6131208D01*
X15650226Y-6074065D02*
X15688321Y-6074065D01*
X15664511Y-6040732D02*
X15664511Y-6126446D01*
X15664511Y-6126446D02*
X15669273Y-6135970D01*
X15669273Y-6135970D02*
X15678797Y-6140732D01*
X15678797Y-6140732D02*
X15688321Y-6140732D01*
X14804392Y-6720732D02*
X14837725Y-6820732D01*
X14837725Y-6820732D02*
X14871059Y-6720732D01*
X14947249Y-6815970D02*
X14937725Y-6820732D01*
X14937725Y-6820732D02*
X14918678Y-6820732D01*
X14918678Y-6820732D02*
X14909154Y-6815970D01*
X14909154Y-6815970D02*
X14904392Y-6811208D01*
X14904392Y-6811208D02*
X14899630Y-6801684D01*
X14899630Y-6801684D02*
X14899630Y-6773113D01*
X14899630Y-6773113D02*
X14904392Y-6763589D01*
X14904392Y-6763589D02*
X14909154Y-6758827D01*
X14909154Y-6758827D02*
X14918678Y-6754065D01*
X14918678Y-6754065D02*
X14937725Y-6754065D01*
X14937725Y-6754065D02*
X14947249Y-6758827D01*
X15032964Y-6815970D02*
X15023440Y-6820732D01*
X15023440Y-6820732D02*
X15004392Y-6820732D01*
X15004392Y-6820732D02*
X14994868Y-6815970D01*
X14994868Y-6815970D02*
X14990106Y-6811208D01*
X14990106Y-6811208D02*
X14985345Y-6801684D01*
X14985345Y-6801684D02*
X14985345Y-6773113D01*
X14985345Y-6773113D02*
X14990106Y-6763589D01*
X14990106Y-6763589D02*
X14994868Y-6758827D01*
X14994868Y-6758827D02*
X15004392Y-6754065D01*
X15004392Y-6754065D02*
X15023440Y-6754065D01*
X15023440Y-6754065D02*
X15032964Y-6758827D01*
X13732725Y-5696982D02*
X13751773Y-5696982D01*
X13751773Y-5696982D02*
X13761297Y-5701744D01*
X13761297Y-5701744D02*
X13770821Y-5711268D01*
X13770821Y-5711268D02*
X13775583Y-5730315D01*
X13775583Y-5730315D02*
X13775583Y-5763648D01*
X13775583Y-5763648D02*
X13770821Y-5782696D01*
X13770821Y-5782696D02*
X13761297Y-5792220D01*
X13761297Y-5792220D02*
X13751773Y-5796982D01*
X13751773Y-5796982D02*
X13732725Y-5796982D01*
X13732725Y-5796982D02*
X13723202Y-5792220D01*
X13723202Y-5792220D02*
X13713678Y-5782696D01*
X13713678Y-5782696D02*
X13708916Y-5763648D01*
X13708916Y-5763648D02*
X13708916Y-5730315D01*
X13708916Y-5730315D02*
X13713678Y-5711268D01*
X13713678Y-5711268D02*
X13723202Y-5701744D01*
X13723202Y-5701744D02*
X13732725Y-5696982D01*
X13861297Y-5730315D02*
X13861297Y-5796982D01*
X13818440Y-5730315D02*
X13818440Y-5782696D01*
X13818440Y-5782696D02*
X13823202Y-5792220D01*
X13823202Y-5792220D02*
X13832725Y-5796982D01*
X13832725Y-5796982D02*
X13847011Y-5796982D01*
X13847011Y-5796982D02*
X13856535Y-5792220D01*
X13856535Y-5792220D02*
X13861297Y-5787458D01*
X13894630Y-5730315D02*
X13932725Y-5730315D01*
X13908916Y-5696982D02*
X13908916Y-5782696D01*
X13908916Y-5782696D02*
X13913678Y-5792220D01*
X13913678Y-5792220D02*
X13923202Y-5796982D01*
X13923202Y-5796982D02*
X13932725Y-5796982D01*
X13966059Y-5730315D02*
X13966059Y-5830315D01*
X13966059Y-5735077D02*
X13975583Y-5730315D01*
X13975583Y-5730315D02*
X13994630Y-5730315D01*
X13994630Y-5730315D02*
X14004154Y-5735077D01*
X14004154Y-5735077D02*
X14008916Y-5739839D01*
X14008916Y-5739839D02*
X14013678Y-5749363D01*
X14013678Y-5749363D02*
X14013678Y-5777934D01*
X14013678Y-5777934D02*
X14008916Y-5787458D01*
X14008916Y-5787458D02*
X14004154Y-5792220D01*
X14004154Y-5792220D02*
X13994630Y-5796982D01*
X13994630Y-5796982D02*
X13975583Y-5796982D01*
X13975583Y-5796982D02*
X13966059Y-5792220D01*
X14099392Y-5730315D02*
X14099392Y-5796982D01*
X14056535Y-5730315D02*
X14056535Y-5782696D01*
X14056535Y-5782696D02*
X14061297Y-5792220D01*
X14061297Y-5792220D02*
X14070821Y-5796982D01*
X14070821Y-5796982D02*
X14085106Y-5796982D01*
X14085106Y-5796982D02*
X14094630Y-5792220D01*
X14094630Y-5792220D02*
X14099392Y-5787458D01*
X14132726Y-5730315D02*
X14170821Y-5730315D01*
X14147011Y-5696982D02*
X14147011Y-5782696D01*
X14147011Y-5782696D02*
X14151773Y-5792220D01*
X14151773Y-5792220D02*
X14161297Y-5796982D01*
X14161297Y-5796982D02*
X14170821Y-5796982D01*
X13906667Y-5515482D02*
X13906667Y-5586910D01*
X13906667Y-5586910D02*
X13901905Y-5601196D01*
X13901905Y-5601196D02*
X13892381Y-5610720D01*
X13892381Y-5610720D02*
X13878095Y-5615482D01*
X13878095Y-5615482D02*
X13868571Y-5615482D01*
X13949524Y-5525006D02*
X13954286Y-5520244D01*
X13954286Y-5520244D02*
X13963809Y-5515482D01*
X13963809Y-5515482D02*
X13987619Y-5515482D01*
X13987619Y-5515482D02*
X13997143Y-5520244D01*
X13997143Y-5520244D02*
X14001905Y-5525006D01*
X14001905Y-5525006D02*
X14006667Y-5534530D01*
X14006667Y-5534530D02*
X14006667Y-5544053D01*
X14006667Y-5544053D02*
X14001905Y-5558339D01*
X14001905Y-5558339D02*
X13944762Y-5615482D01*
X13944762Y-5615482D02*
X14006667Y-5615482D01*
X13853809Y-6049232D02*
X13853809Y-6130184D01*
X13853809Y-6130184D02*
X13858571Y-6139708D01*
X13858571Y-6139708D02*
X13863333Y-6144470D01*
X13863333Y-6144470D02*
X13872857Y-6149232D01*
X13872857Y-6149232D02*
X13891905Y-6149232D01*
X13891905Y-6149232D02*
X13901428Y-6144470D01*
X13901428Y-6144470D02*
X13906190Y-6139708D01*
X13906190Y-6139708D02*
X13910952Y-6130184D01*
X13910952Y-6130184D02*
X13910952Y-6049232D01*
X13953809Y-6058756D02*
X13958571Y-6053994D01*
X13958571Y-6053994D02*
X13968095Y-6049232D01*
X13968095Y-6049232D02*
X13991905Y-6049232D01*
X13991905Y-6049232D02*
X14001428Y-6053994D01*
X14001428Y-6053994D02*
X14006190Y-6058756D01*
X14006190Y-6058756D02*
X14010952Y-6068279D01*
X14010952Y-6068279D02*
X14010952Y-6077803D01*
X14010952Y-6077803D02*
X14006190Y-6092089D01*
X14006190Y-6092089D02*
X13949048Y-6149232D01*
X13949048Y-6149232D02*
X14010952Y-6149232D01*
X13208333Y-6736708D02*
X13203571Y-6741470D01*
X13203571Y-6741470D02*
X13189286Y-6746232D01*
X13189286Y-6746232D02*
X13179762Y-6746232D01*
X13179762Y-6746232D02*
X13165476Y-6741470D01*
X13165476Y-6741470D02*
X13155952Y-6731946D01*
X13155952Y-6731946D02*
X13151190Y-6722422D01*
X13151190Y-6722422D02*
X13146429Y-6703375D01*
X13146429Y-6703375D02*
X13146429Y-6689089D01*
X13146429Y-6689089D02*
X13151190Y-6670041D01*
X13151190Y-6670041D02*
X13155952Y-6660518D01*
X13155952Y-6660518D02*
X13165476Y-6650994D01*
X13165476Y-6650994D02*
X13179762Y-6646232D01*
X13179762Y-6646232D02*
X13189286Y-6646232D01*
X13189286Y-6646232D02*
X13203571Y-6650994D01*
X13203571Y-6650994D02*
X13208333Y-6655756D01*
X13246429Y-6655756D02*
X13251190Y-6650994D01*
X13251190Y-6650994D02*
X13260714Y-6646232D01*
X13260714Y-6646232D02*
X13284524Y-6646232D01*
X13284524Y-6646232D02*
X13294048Y-6650994D01*
X13294048Y-6650994D02*
X13298809Y-6655756D01*
X13298809Y-6655756D02*
X13303571Y-6665279D01*
X13303571Y-6665279D02*
X13303571Y-6674803D01*
X13303571Y-6674803D02*
X13298809Y-6689089D01*
X13298809Y-6689089D02*
X13241667Y-6746232D01*
X13241667Y-6746232D02*
X13303571Y-6746232D01*
X12591667Y-5899232D02*
X12591667Y-5970660D01*
X12591667Y-5970660D02*
X12586905Y-5984946D01*
X12586905Y-5984946D02*
X12577381Y-5994470D01*
X12577381Y-5994470D02*
X12563095Y-5999232D01*
X12563095Y-5999232D02*
X12553571Y-5999232D01*
X12691667Y-5999232D02*
X12634524Y-5999232D01*
X12663095Y-5999232D02*
X12663095Y-5899232D01*
X12663095Y-5899232D02*
X12653571Y-5913518D01*
X12653571Y-5913518D02*
X12644048Y-5923041D01*
X12644048Y-5923041D02*
X12634524Y-5927803D01*
X15404167Y-5859232D02*
X15404167Y-5930660D01*
X15404167Y-5930660D02*
X15399405Y-5944946D01*
X15399405Y-5944946D02*
X15389881Y-5954470D01*
X15389881Y-5954470D02*
X15375595Y-5959232D01*
X15375595Y-5959232D02*
X15366071Y-5959232D01*
X15442262Y-5859232D02*
X15504167Y-5859232D01*
X15504167Y-5859232D02*
X15470833Y-5897327D01*
X15470833Y-5897327D02*
X15485119Y-5897327D01*
X15485119Y-5897327D02*
X15494643Y-5902089D01*
X15494643Y-5902089D02*
X15499405Y-5906851D01*
X15499405Y-5906851D02*
X15504167Y-5916375D01*
X15504167Y-5916375D02*
X15504167Y-5940184D01*
X15504167Y-5940184D02*
X15499405Y-5949708D01*
X15499405Y-5949708D02*
X15494643Y-5954470D01*
X15494643Y-5954470D02*
X15485119Y-5959232D01*
X15485119Y-5959232D02*
X15456548Y-5959232D01*
X15456548Y-5959232D02*
X15447024Y-5954470D01*
X15447024Y-5954470D02*
X15442262Y-5949708D01*
X13911667Y-7295482D02*
X13911667Y-7366910D01*
X13911667Y-7366910D02*
X13906905Y-7381196D01*
X13906905Y-7381196D02*
X13897381Y-7390720D01*
X13897381Y-7390720D02*
X13883095Y-7395482D01*
X13883095Y-7395482D02*
X13873571Y-7395482D01*
X14002143Y-7328815D02*
X14002143Y-7395482D01*
X13978333Y-7290720D02*
X13954524Y-7362148D01*
X13954524Y-7362148D02*
X14016428Y-7362148D01*
X13218333Y-6250708D02*
X13213571Y-6255470D01*
X13213571Y-6255470D02*
X13199286Y-6260232D01*
X13199286Y-6260232D02*
X13189762Y-6260232D01*
X13189762Y-6260232D02*
X13175476Y-6255470D01*
X13175476Y-6255470D02*
X13165952Y-6245946D01*
X13165952Y-6245946D02*
X13161190Y-6236422D01*
X13161190Y-6236422D02*
X13156429Y-6217375D01*
X13156429Y-6217375D02*
X13156429Y-6203089D01*
X13156429Y-6203089D02*
X13161190Y-6184041D01*
X13161190Y-6184041D02*
X13165952Y-6174518D01*
X13165952Y-6174518D02*
X13175476Y-6164994D01*
X13175476Y-6164994D02*
X13189762Y-6160232D01*
X13189762Y-6160232D02*
X13199286Y-6160232D01*
X13199286Y-6160232D02*
X13213571Y-6164994D01*
X13213571Y-6164994D02*
X13218333Y-6169756D01*
X13313571Y-6260232D02*
X13256429Y-6260232D01*
X13285000Y-6260232D02*
X13285000Y-6160232D01*
X13285000Y-6160232D02*
X13275476Y-6174518D01*
X13275476Y-6174518D02*
X13265952Y-6184041D01*
X13265952Y-6184041D02*
X13256429Y-6188803D01*
X14521667Y-6119232D02*
X14521667Y-6190660D01*
X14521667Y-6190660D02*
X14516905Y-6204946D01*
X14516905Y-6204946D02*
X14507381Y-6214470D01*
X14507381Y-6214470D02*
X14493095Y-6219232D01*
X14493095Y-6219232D02*
X14483571Y-6219232D01*
X14569286Y-6219232D02*
X14569286Y-6119232D01*
X14569286Y-6119232D02*
X14607381Y-6119232D01*
X14607381Y-6119232D02*
X14616905Y-6123994D01*
X14616905Y-6123994D02*
X14621667Y-6128756D01*
X14621667Y-6128756D02*
X14626428Y-6138279D01*
X14626428Y-6138279D02*
X14626428Y-6152565D01*
X14626428Y-6152565D02*
X14621667Y-6162089D01*
X14621667Y-6162089D02*
X14616905Y-6166851D01*
X14616905Y-6166851D02*
X14607381Y-6171613D01*
X14607381Y-6171613D02*
X14569286Y-6171613D01*
X14721667Y-6219232D02*
X14664524Y-6219232D01*
X14693095Y-6219232D02*
X14693095Y-6119232D01*
X14693095Y-6119232D02*
X14683571Y-6133518D01*
X14683571Y-6133518D02*
X14674048Y-6143041D01*
X14674048Y-6143041D02*
X14664524Y-6147803D01*
D11*
X13639000Y-5062250D02*
X13639000Y-5312250D01*
X13639000Y-5312250D02*
X13744000Y-5312250D01*
X14144000Y-4865250D02*
X13756000Y-4865250D01*
X14156000Y-5312250D02*
X14156000Y-5411250D01*
X14261000Y-5062250D02*
X14261000Y-5312250D01*
X14261000Y-5312250D02*
X14156000Y-5312250D01*
X13745000Y-6212750D02*
X14121000Y-6212750D01*
X13745000Y-6894750D02*
X14121000Y-6894750D01*
X14121000Y-6212750D02*
X14121000Y-6338750D01*
X14121000Y-6894750D02*
X14121000Y-6768750D01*
X13617000Y-6222750D02*
X13593000Y-6189750D01*
X13641000Y-6189750D01*
X13617000Y-6222750D01*
G36*
X13617000Y-6222750D02*
G01*
X13593000Y-6189750D01*
X13641000Y-6189750D01*
X13617000Y-6222750D01*
G37*
X13210942Y-6792750D02*
X13239058Y-6792750D01*
X13210942Y-6894750D02*
X13239058Y-6894750D01*
X12364000Y-6439750D02*
X12364000Y-6827750D01*
X12561000Y-6322750D02*
X12811000Y-6322750D01*
X12561000Y-6944750D02*
X12811000Y-6944750D01*
X12811000Y-6322750D02*
X12811000Y-6427750D01*
X12811000Y-6427750D02*
X12910000Y-6427750D01*
X12811000Y-6944750D02*
X12811000Y-6839750D01*
X15279000Y-6322750D02*
X15279000Y-6427750D01*
X15279000Y-6839750D02*
X15180000Y-6839750D01*
X15279000Y-6944750D02*
X15279000Y-6839750D01*
X15529000Y-6322750D02*
X15279000Y-6322750D01*
X15529000Y-6944750D02*
X15279000Y-6944750D01*
X15726000Y-6827750D02*
X15726000Y-6439750D01*
X13639000Y-7775250D02*
X13744000Y-7775250D01*
X13639000Y-8025250D02*
X13639000Y-7775250D01*
X13744000Y-7775250D02*
X13744000Y-7676250D01*
X13756000Y-8222250D02*
X14144000Y-8222250D01*
X14261000Y-7775250D02*
X14156000Y-7775250D01*
X14261000Y-8025250D02*
X14261000Y-7775250D01*
X13251558Y-6322750D02*
X13223442Y-6322750D01*
X13251558Y-6424750D02*
X13223442Y-6424750D01*
X14455000Y-6403750D02*
X14455000Y-6463750D01*
X14455000Y-6463750D02*
X14485000Y-6433750D01*
X14485000Y-6433750D02*
X14455000Y-6403750D01*
X14510000Y-6298750D02*
X14705000Y-6298750D01*
X14510000Y-6848750D02*
X14510000Y-6298750D01*
X14705000Y-6298750D02*
X14705000Y-6848750D01*
X14705000Y-6848750D02*
X14510000Y-6848750D01*
%LPC*%
G36*
X14680000Y-6323750D02*
G01*
X14530000Y-6323750D01*
X14530000Y-6823750D01*
X14680000Y-6823750D01*
X14680000Y-6323750D01*
G37*
D12*
X15350000Y-7850000D03*
D13*
X14100000Y-5333750D03*
X14000000Y-5333750D03*
X13900000Y-5333750D03*
X13800000Y-5333750D03*
D14*
X14230000Y-4946250D03*
X13670000Y-4946250D03*
D12*
X12750000Y-7850000D03*
D15*
X13615000Y-6323750D03*
X13615000Y-6553750D03*
D16*
X14245000Y-6553750D03*
D15*
X13615000Y-6783750D03*
D17*
X13147500Y-6843750D03*
X13302500Y-6843750D03*
D18*
X12832500Y-6483750D03*
X12832500Y-6583750D03*
X12832500Y-6683750D03*
X12832500Y-6783750D03*
D19*
X12445000Y-6353750D03*
X12445000Y-6913750D03*
D12*
X15350000Y-5250000D03*
D20*
X15257500Y-6783750D03*
X15257500Y-6683750D03*
X15257500Y-6583750D03*
X15257500Y-6483750D03*
D21*
X15645000Y-6913750D03*
X15645000Y-6353750D03*
D22*
X13800000Y-7753750D03*
X13900000Y-7753750D03*
X14000000Y-7753750D03*
X14100000Y-7753750D03*
D23*
X13670000Y-8141250D03*
X14230000Y-8141250D03*
D24*
X13315000Y-6373750D03*
X13160000Y-6373750D03*
D25*
X14605000Y-6373750D03*
D26*
X14605000Y-6773750D03*
D12*
X12750000Y-5250000D03*
%LPD*%
M02*
