%TF.GenerationSoftware,KiCad,Pcbnew,9.0.3*%
%TF.CreationDate,2025-08-26T17:27:59-07:00*%
%TF.ProjectId,battery_connector,62617474-6572-4795-9f63-6f6e6e656374,V1*%
%TF.SameCoordinates,Original*%
%TF.FileFunction,Drillmap*%
%TF.FilePolarity,Positive*%
%FSLAX45Y45*%
G04 Gerber Fmt 4.5, Leading zero omitted, Abs format (unit mm)*
G04 Created by KiCad (PCBNEW 9.0.3) date 2025-08-26 17:27:59*
%MOMM*%
%LPD*%
G01*
G04 APERTURE LIST*
%ADD10C,0.050000*%
%ADD11C,0.200000*%
G04 APERTURE END LIST*
D10*
X1500000Y-2250000D02*
X3700000Y-2250000D01*
X3700000Y-5350000D01*
X1500000Y-5350000D01*
X1500000Y-2250000D01*
D11*
X1758277Y-5663984D02*
X1758277Y-5463984D01*
X1758277Y-5463984D02*
X1805896Y-5463984D01*
X1805896Y-5463984D02*
X1834467Y-5473508D01*
X1834467Y-5473508D02*
X1853515Y-5492555D01*
X1853515Y-5492555D02*
X1863039Y-5511603D01*
X1863039Y-5511603D02*
X1872562Y-5549698D01*
X1872562Y-5549698D02*
X1872562Y-5578270D01*
X1872562Y-5578270D02*
X1863039Y-5616365D01*
X1863039Y-5616365D02*
X1853515Y-5635412D01*
X1853515Y-5635412D02*
X1834467Y-5654460D01*
X1834467Y-5654460D02*
X1805896Y-5663984D01*
X1805896Y-5663984D02*
X1758277Y-5663984D01*
X1958277Y-5663984D02*
X1958277Y-5530650D01*
X1958277Y-5568746D02*
X1967801Y-5549698D01*
X1967801Y-5549698D02*
X1977324Y-5540174D01*
X1977324Y-5540174D02*
X1996372Y-5530650D01*
X1996372Y-5530650D02*
X2015420Y-5530650D01*
X2082086Y-5663984D02*
X2082086Y-5530650D01*
X2082086Y-5463984D02*
X2072562Y-5473508D01*
X2072562Y-5473508D02*
X2082086Y-5483031D01*
X2082086Y-5483031D02*
X2091610Y-5473508D01*
X2091610Y-5473508D02*
X2082086Y-5463984D01*
X2082086Y-5463984D02*
X2082086Y-5483031D01*
X2205896Y-5663984D02*
X2186848Y-5654460D01*
X2186848Y-5654460D02*
X2177324Y-5635412D01*
X2177324Y-5635412D02*
X2177324Y-5463984D01*
X2310658Y-5663984D02*
X2291610Y-5654460D01*
X2291610Y-5654460D02*
X2282086Y-5635412D01*
X2282086Y-5635412D02*
X2282086Y-5463984D01*
X2539229Y-5663984D02*
X2539229Y-5463984D01*
X2539229Y-5463984D02*
X2605896Y-5606841D01*
X2605896Y-5606841D02*
X2672563Y-5463984D01*
X2672563Y-5463984D02*
X2672563Y-5663984D01*
X2853515Y-5663984D02*
X2853515Y-5559222D01*
X2853515Y-5559222D02*
X2843991Y-5540174D01*
X2843991Y-5540174D02*
X2824943Y-5530650D01*
X2824943Y-5530650D02*
X2786848Y-5530650D01*
X2786848Y-5530650D02*
X2767801Y-5540174D01*
X2853515Y-5654460D02*
X2834467Y-5663984D01*
X2834467Y-5663984D02*
X2786848Y-5663984D01*
X2786848Y-5663984D02*
X2767801Y-5654460D01*
X2767801Y-5654460D02*
X2758277Y-5635412D01*
X2758277Y-5635412D02*
X2758277Y-5616365D01*
X2758277Y-5616365D02*
X2767801Y-5597317D01*
X2767801Y-5597317D02*
X2786848Y-5587793D01*
X2786848Y-5587793D02*
X2834467Y-5587793D01*
X2834467Y-5587793D02*
X2853515Y-5578270D01*
X2948753Y-5530650D02*
X2948753Y-5730650D01*
X2948753Y-5540174D02*
X2967801Y-5530650D01*
X2967801Y-5530650D02*
X3005896Y-5530650D01*
X3005896Y-5530650D02*
X3024943Y-5540174D01*
X3024943Y-5540174D02*
X3034467Y-5549698D01*
X3034467Y-5549698D02*
X3043991Y-5568746D01*
X3043991Y-5568746D02*
X3043991Y-5625888D01*
X3043991Y-5625888D02*
X3034467Y-5644936D01*
X3034467Y-5644936D02*
X3024943Y-5654460D01*
X3024943Y-5654460D02*
X3005896Y-5663984D01*
X3005896Y-5663984D02*
X2967801Y-5663984D01*
X2967801Y-5663984D02*
X2948753Y-5654460D01*
X3129705Y-5644936D02*
X3139229Y-5654460D01*
X3139229Y-5654460D02*
X3129705Y-5663984D01*
X3129705Y-5663984D02*
X3120182Y-5654460D01*
X3120182Y-5654460D02*
X3129705Y-5644936D01*
X3129705Y-5644936D02*
X3129705Y-5663984D01*
X3129705Y-5540174D02*
X3139229Y-5549698D01*
X3139229Y-5549698D02*
X3129705Y-5559222D01*
X3129705Y-5559222D02*
X3120182Y-5549698D01*
X3120182Y-5549698D02*
X3129705Y-5540174D01*
X3129705Y-5540174D02*
X3129705Y-5559222D01*
M02*
