%TF.GenerationSoftware,KiCad,Pcbnew,9.0.3*%
%TF.CreationDate,2025-08-26T17:27:59-07:00*%
%TF.ProjectId,battery_connector,62617474-6572-4795-9f63-6f6e6e656374,V1*%
%TF.SameCoordinates,Original*%
%TF.FileFunction,Drillmap*%
%TF.FilePolarity,Positive*%
%FSLAX45Y45*%
G04 Gerber Fmt 4.5, Leading zero omitted, Abs format (unit mm)*
G04 Created by KiCad (PCBNEW 9.0.3) date 2025-08-26 17:27:59*
%MOMM*%
%LPD*%
G01*
G04 APERTURE LIST*
%ADD10C,0.050000*%
%ADD11C,0.200000*%
%ADD12C,0.100000*%
G04 APERTURE END LIST*
D10*
X1500000Y-2250000D02*
X3700000Y-2250000D01*
X3700000Y-5350000D01*
X1500000Y-5350000D01*
X1500000Y-2250000D01*
D11*
D12*
X2430555Y-3964121D02*
X2460555Y-3994121D01*
X2460555Y-3964121D02*
X2430555Y-3994121D01*
X2431361Y-4049780D02*
X2461361Y-4079780D01*
X2461361Y-4049780D02*
X2431361Y-4079780D01*
X2635000Y-3710000D02*
X2665000Y-3740000D01*
X2665000Y-3710000D02*
X2635000Y-3740000D01*
X2650790Y-4269210D02*
X2680790Y-4299210D01*
X2680790Y-4269210D02*
X2650790Y-4299210D01*
X2735000Y-3335000D02*
X2765000Y-3365000D01*
X2765000Y-3335000D02*
X2735000Y-3365000D01*
X2949283Y-4270717D02*
X2979283Y-4300717D01*
X2979283Y-4270717D02*
X2949283Y-4300717D01*
X3035000Y-3710000D02*
X3065000Y-3740000D01*
X3065000Y-3710000D02*
X3035000Y-3740000D01*
X3035000Y-4085000D02*
X3065000Y-4115000D01*
X3065000Y-4085000D02*
X3035000Y-4115000D01*
X3093217Y-4626783D02*
X3123217Y-4656783D01*
X3123217Y-4626783D02*
X3093217Y-4656783D01*
X3199283Y-4520717D02*
X3229283Y-4550717D01*
X3229283Y-4520717D02*
X3199283Y-4550717D01*
X3411500Y-2757000D02*
G75*
G02*
X3311500Y-2757000I-50000J0D01*
G01*
X3311500Y-2757000D02*
G75*
G02*
X3411500Y-2757000I50000J0D01*
G01*
X3411500Y-3011000D02*
G75*
G02*
X3311500Y-3011000I-50000J0D01*
G01*
X3311500Y-3011000D02*
G75*
G02*
X3411500Y-3011000I50000J0D01*
G01*
X3411500Y-3265000D02*
G75*
G02*
X3311500Y-3265000I-50000J0D01*
G01*
X3311500Y-3265000D02*
G75*
G02*
X3411500Y-3265000I50000J0D01*
G01*
X3411500Y-3519000D02*
G75*
G02*
X3311500Y-3519000I-50000J0D01*
G01*
X3311500Y-3519000D02*
G75*
G02*
X3411500Y-3519000I50000J0D01*
G01*
X3411500Y-3773000D02*
G75*
G02*
X3311500Y-3773000I-50000J0D01*
G01*
X3311500Y-3773000D02*
G75*
G02*
X3411500Y-3773000I50000J0D01*
G01*
X3411500Y-4027000D02*
G75*
G02*
X3311500Y-4027000I-50000J0D01*
G01*
X3311500Y-4027000D02*
G75*
G02*
X3411500Y-4027000I50000J0D01*
G01*
X3411500Y-4281000D02*
G75*
G02*
X3311500Y-4281000I-50000J0D01*
G01*
X3311500Y-4281000D02*
G75*
G02*
X3411500Y-4281000I50000J0D01*
G01*
X3411500Y-4535000D02*
G75*
G02*
X3311500Y-4535000I-50000J0D01*
G01*
X3311500Y-4535000D02*
G75*
G02*
X3411500Y-4535000I50000J0D01*
G01*
X3411500Y-4789000D02*
G75*
G02*
X3311500Y-4789000I-50000J0D01*
G01*
X3311500Y-4789000D02*
G75*
G02*
X3411500Y-4789000I50000J0D01*
G01*
X3411500Y-5043000D02*
G75*
G02*
X3311500Y-5043000I-50000J0D01*
G01*
X3311500Y-5043000D02*
G75*
G02*
X3411500Y-5043000I50000J0D01*
G01*
D11*
X1758277Y-5663984D02*
X1758277Y-5463984D01*
X1758277Y-5463984D02*
X1805896Y-5463984D01*
X1805896Y-5463984D02*
X1834467Y-5473508D01*
X1834467Y-5473508D02*
X1853515Y-5492555D01*
X1853515Y-5492555D02*
X1863039Y-5511603D01*
X1863039Y-5511603D02*
X1872562Y-5549698D01*
X1872562Y-5549698D02*
X1872562Y-5578270D01*
X1872562Y-5578270D02*
X1863039Y-5616365D01*
X1863039Y-5616365D02*
X1853515Y-5635412D01*
X1853515Y-5635412D02*
X1834467Y-5654460D01*
X1834467Y-5654460D02*
X1805896Y-5663984D01*
X1805896Y-5663984D02*
X1758277Y-5663984D01*
X1958277Y-5663984D02*
X1958277Y-5530650D01*
X1958277Y-5568746D02*
X1967801Y-5549698D01*
X1967801Y-5549698D02*
X1977324Y-5540174D01*
X1977324Y-5540174D02*
X1996372Y-5530650D01*
X1996372Y-5530650D02*
X2015420Y-5530650D01*
X2082086Y-5663984D02*
X2082086Y-5530650D01*
X2082086Y-5463984D02*
X2072562Y-5473508D01*
X2072562Y-5473508D02*
X2082086Y-5483031D01*
X2082086Y-5483031D02*
X2091610Y-5473508D01*
X2091610Y-5473508D02*
X2082086Y-5463984D01*
X2082086Y-5463984D02*
X2082086Y-5483031D01*
X2205896Y-5663984D02*
X2186848Y-5654460D01*
X2186848Y-5654460D02*
X2177324Y-5635412D01*
X2177324Y-5635412D02*
X2177324Y-5463984D01*
X2310658Y-5663984D02*
X2291610Y-5654460D01*
X2291610Y-5654460D02*
X2282086Y-5635412D01*
X2282086Y-5635412D02*
X2282086Y-5463984D01*
X2539229Y-5663984D02*
X2539229Y-5463984D01*
X2539229Y-5463984D02*
X2605896Y-5606841D01*
X2605896Y-5606841D02*
X2672563Y-5463984D01*
X2672563Y-5463984D02*
X2672563Y-5663984D01*
X2853515Y-5663984D02*
X2853515Y-5559222D01*
X2853515Y-5559222D02*
X2843991Y-5540174D01*
X2843991Y-5540174D02*
X2824943Y-5530650D01*
X2824943Y-5530650D02*
X2786848Y-5530650D01*
X2786848Y-5530650D02*
X2767801Y-5540174D01*
X2853515Y-5654460D02*
X2834467Y-5663984D01*
X2834467Y-5663984D02*
X2786848Y-5663984D01*
X2786848Y-5663984D02*
X2767801Y-5654460D01*
X2767801Y-5654460D02*
X2758277Y-5635412D01*
X2758277Y-5635412D02*
X2758277Y-5616365D01*
X2758277Y-5616365D02*
X2767801Y-5597317D01*
X2767801Y-5597317D02*
X2786848Y-5587793D01*
X2786848Y-5587793D02*
X2834467Y-5587793D01*
X2834467Y-5587793D02*
X2853515Y-5578270D01*
X2948753Y-5530650D02*
X2948753Y-5730650D01*
X2948753Y-5540174D02*
X2967801Y-5530650D01*
X2967801Y-5530650D02*
X3005896Y-5530650D01*
X3005896Y-5530650D02*
X3024943Y-5540174D01*
X3024943Y-5540174D02*
X3034467Y-5549698D01*
X3034467Y-5549698D02*
X3043991Y-5568746D01*
X3043991Y-5568746D02*
X3043991Y-5625888D01*
X3043991Y-5625888D02*
X3034467Y-5644936D01*
X3034467Y-5644936D02*
X3024943Y-5654460D01*
X3024943Y-5654460D02*
X3005896Y-5663984D01*
X3005896Y-5663984D02*
X2967801Y-5663984D01*
X2967801Y-5663984D02*
X2948753Y-5654460D01*
X3129705Y-5644936D02*
X3139229Y-5654460D01*
X3139229Y-5654460D02*
X3129705Y-5663984D01*
X3129705Y-5663984D02*
X3120182Y-5654460D01*
X3120182Y-5654460D02*
X3129705Y-5644936D01*
X3129705Y-5644936D02*
X3129705Y-5663984D01*
X3129705Y-5540174D02*
X3139229Y-5549698D01*
X3139229Y-5549698D02*
X3129705Y-5559222D01*
X3129705Y-5559222D02*
X3120182Y-5549698D01*
X3120182Y-5549698D02*
X3129705Y-5540174D01*
X3129705Y-5540174D02*
X3129705Y-5559222D01*
D12*
X1467500Y-5977500D02*
X1497500Y-6007500D01*
X1497500Y-5977500D02*
X1467500Y-6007500D01*
D11*
X1796372Y-5883984D02*
X1815420Y-5883984D01*
X1815420Y-5883984D02*
X1834467Y-5893508D01*
X1834467Y-5893508D02*
X1843991Y-5903031D01*
X1843991Y-5903031D02*
X1853515Y-5922079D01*
X1853515Y-5922079D02*
X1863039Y-5960174D01*
X1863039Y-5960174D02*
X1863039Y-6007793D01*
X1863039Y-6007793D02*
X1853515Y-6045888D01*
X1853515Y-6045888D02*
X1843991Y-6064936D01*
X1843991Y-6064936D02*
X1834467Y-6074460D01*
X1834467Y-6074460D02*
X1815420Y-6083984D01*
X1815420Y-6083984D02*
X1796372Y-6083984D01*
X1796372Y-6083984D02*
X1777324Y-6074460D01*
X1777324Y-6074460D02*
X1767801Y-6064936D01*
X1767801Y-6064936D02*
X1758277Y-6045888D01*
X1758277Y-6045888D02*
X1748753Y-6007793D01*
X1748753Y-6007793D02*
X1748753Y-5960174D01*
X1748753Y-5960174D02*
X1758277Y-5922079D01*
X1758277Y-5922079D02*
X1767801Y-5903031D01*
X1767801Y-5903031D02*
X1777324Y-5893508D01*
X1777324Y-5893508D02*
X1796372Y-5883984D01*
X1948753Y-6064936D02*
X1958277Y-6074460D01*
X1958277Y-6074460D02*
X1948753Y-6083984D01*
X1948753Y-6083984D02*
X1939229Y-6074460D01*
X1939229Y-6074460D02*
X1948753Y-6064936D01*
X1948753Y-6064936D02*
X1948753Y-6083984D01*
X2024943Y-5883984D02*
X2148753Y-5883984D01*
X2148753Y-5883984D02*
X2082086Y-5960174D01*
X2082086Y-5960174D02*
X2110658Y-5960174D01*
X2110658Y-5960174D02*
X2129705Y-5969698D01*
X2129705Y-5969698D02*
X2139229Y-5979222D01*
X2139229Y-5979222D02*
X2148753Y-5998269D01*
X2148753Y-5998269D02*
X2148753Y-6045888D01*
X2148753Y-6045888D02*
X2139229Y-6064936D01*
X2139229Y-6064936D02*
X2129705Y-6074460D01*
X2129705Y-6074460D02*
X2110658Y-6083984D01*
X2110658Y-6083984D02*
X2053515Y-6083984D01*
X2053515Y-6083984D02*
X2034467Y-6074460D01*
X2034467Y-6074460D02*
X2024943Y-6064936D01*
X2272563Y-5883984D02*
X2291610Y-5883984D01*
X2291610Y-5883984D02*
X2310658Y-5893508D01*
X2310658Y-5893508D02*
X2320182Y-5903031D01*
X2320182Y-5903031D02*
X2329705Y-5922079D01*
X2329705Y-5922079D02*
X2339229Y-5960174D01*
X2339229Y-5960174D02*
X2339229Y-6007793D01*
X2339229Y-6007793D02*
X2329705Y-6045888D01*
X2329705Y-6045888D02*
X2320182Y-6064936D01*
X2320182Y-6064936D02*
X2310658Y-6074460D01*
X2310658Y-6074460D02*
X2291610Y-6083984D01*
X2291610Y-6083984D02*
X2272563Y-6083984D01*
X2272563Y-6083984D02*
X2253515Y-6074460D01*
X2253515Y-6074460D02*
X2243991Y-6064936D01*
X2243991Y-6064936D02*
X2234467Y-6045888D01*
X2234467Y-6045888D02*
X2224944Y-6007793D01*
X2224944Y-6007793D02*
X2224944Y-5960174D01*
X2224944Y-5960174D02*
X2234467Y-5922079D01*
X2234467Y-5922079D02*
X2243991Y-5903031D01*
X2243991Y-5903031D02*
X2253515Y-5893508D01*
X2253515Y-5893508D02*
X2272563Y-5883984D01*
X2463039Y-5883984D02*
X2482086Y-5883984D01*
X2482086Y-5883984D02*
X2501134Y-5893508D01*
X2501134Y-5893508D02*
X2510658Y-5903031D01*
X2510658Y-5903031D02*
X2520182Y-5922079D01*
X2520182Y-5922079D02*
X2529705Y-5960174D01*
X2529705Y-5960174D02*
X2529705Y-6007793D01*
X2529705Y-6007793D02*
X2520182Y-6045888D01*
X2520182Y-6045888D02*
X2510658Y-6064936D01*
X2510658Y-6064936D02*
X2501134Y-6074460D01*
X2501134Y-6074460D02*
X2482086Y-6083984D01*
X2482086Y-6083984D02*
X2463039Y-6083984D01*
X2463039Y-6083984D02*
X2443991Y-6074460D01*
X2443991Y-6074460D02*
X2434467Y-6064936D01*
X2434467Y-6064936D02*
X2424944Y-6045888D01*
X2424944Y-6045888D02*
X2415420Y-6007793D01*
X2415420Y-6007793D02*
X2415420Y-5960174D01*
X2415420Y-5960174D02*
X2424944Y-5922079D01*
X2424944Y-5922079D02*
X2434467Y-5903031D01*
X2434467Y-5903031D02*
X2443991Y-5893508D01*
X2443991Y-5893508D02*
X2463039Y-5883984D01*
X2615420Y-6083984D02*
X2615420Y-5950650D01*
X2615420Y-5969698D02*
X2624944Y-5960174D01*
X2624944Y-5960174D02*
X2643991Y-5950650D01*
X2643991Y-5950650D02*
X2672563Y-5950650D01*
X2672563Y-5950650D02*
X2691610Y-5960174D01*
X2691610Y-5960174D02*
X2701134Y-5979222D01*
X2701134Y-5979222D02*
X2701134Y-6083984D01*
X2701134Y-5979222D02*
X2710658Y-5960174D01*
X2710658Y-5960174D02*
X2729705Y-5950650D01*
X2729705Y-5950650D02*
X2758277Y-5950650D01*
X2758277Y-5950650D02*
X2777325Y-5960174D01*
X2777325Y-5960174D02*
X2786848Y-5979222D01*
X2786848Y-5979222D02*
X2786848Y-6083984D01*
X2882086Y-6083984D02*
X2882086Y-5950650D01*
X2882086Y-5969698D02*
X2891610Y-5960174D01*
X2891610Y-5960174D02*
X2910658Y-5950650D01*
X2910658Y-5950650D02*
X2939229Y-5950650D01*
X2939229Y-5950650D02*
X2958277Y-5960174D01*
X2958277Y-5960174D02*
X2967801Y-5979222D01*
X2967801Y-5979222D02*
X2967801Y-6083984D01*
X2967801Y-5979222D02*
X2977324Y-5960174D01*
X2977324Y-5960174D02*
X2996372Y-5950650D01*
X2996372Y-5950650D02*
X3024943Y-5950650D01*
X3024943Y-5950650D02*
X3043991Y-5960174D01*
X3043991Y-5960174D02*
X3053515Y-5979222D01*
X3053515Y-5979222D02*
X3053515Y-6083984D01*
X3443991Y-5874460D02*
X3272563Y-6131603D01*
X3701134Y-5883984D02*
X3720182Y-5883984D01*
X3720182Y-5883984D02*
X3739229Y-5893508D01*
X3739229Y-5893508D02*
X3748753Y-5903031D01*
X3748753Y-5903031D02*
X3758277Y-5922079D01*
X3758277Y-5922079D02*
X3767801Y-5960174D01*
X3767801Y-5960174D02*
X3767801Y-6007793D01*
X3767801Y-6007793D02*
X3758277Y-6045888D01*
X3758277Y-6045888D02*
X3748753Y-6064936D01*
X3748753Y-6064936D02*
X3739229Y-6074460D01*
X3739229Y-6074460D02*
X3720182Y-6083984D01*
X3720182Y-6083984D02*
X3701134Y-6083984D01*
X3701134Y-6083984D02*
X3682086Y-6074460D01*
X3682086Y-6074460D02*
X3672563Y-6064936D01*
X3672563Y-6064936D02*
X3663039Y-6045888D01*
X3663039Y-6045888D02*
X3653515Y-6007793D01*
X3653515Y-6007793D02*
X3653515Y-5960174D01*
X3653515Y-5960174D02*
X3663039Y-5922079D01*
X3663039Y-5922079D02*
X3672563Y-5903031D01*
X3672563Y-5903031D02*
X3682086Y-5893508D01*
X3682086Y-5893508D02*
X3701134Y-5883984D01*
X3853515Y-6064936D02*
X3863039Y-6074460D01*
X3863039Y-6074460D02*
X3853515Y-6083984D01*
X3853515Y-6083984D02*
X3843991Y-6074460D01*
X3843991Y-6074460D02*
X3853515Y-6064936D01*
X3853515Y-6064936D02*
X3853515Y-6083984D01*
X3986848Y-5883984D02*
X4005896Y-5883984D01*
X4005896Y-5883984D02*
X4024944Y-5893508D01*
X4024944Y-5893508D02*
X4034467Y-5903031D01*
X4034467Y-5903031D02*
X4043991Y-5922079D01*
X4043991Y-5922079D02*
X4053515Y-5960174D01*
X4053515Y-5960174D02*
X4053515Y-6007793D01*
X4053515Y-6007793D02*
X4043991Y-6045888D01*
X4043991Y-6045888D02*
X4034467Y-6064936D01*
X4034467Y-6064936D02*
X4024944Y-6074460D01*
X4024944Y-6074460D02*
X4005896Y-6083984D01*
X4005896Y-6083984D02*
X3986848Y-6083984D01*
X3986848Y-6083984D02*
X3967801Y-6074460D01*
X3967801Y-6074460D02*
X3958277Y-6064936D01*
X3958277Y-6064936D02*
X3948753Y-6045888D01*
X3948753Y-6045888D02*
X3939229Y-6007793D01*
X3939229Y-6007793D02*
X3939229Y-5960174D01*
X3939229Y-5960174D02*
X3948753Y-5922079D01*
X3948753Y-5922079D02*
X3958277Y-5903031D01*
X3958277Y-5903031D02*
X3967801Y-5893508D01*
X3967801Y-5893508D02*
X3986848Y-5883984D01*
X4243991Y-6083984D02*
X4129706Y-6083984D01*
X4186848Y-6083984D02*
X4186848Y-5883984D01*
X4186848Y-5883984D02*
X4167801Y-5912555D01*
X4167801Y-5912555D02*
X4148753Y-5931603D01*
X4148753Y-5931603D02*
X4129706Y-5941127D01*
X4434468Y-6083984D02*
X4320182Y-6083984D01*
X4377325Y-6083984D02*
X4377325Y-5883984D01*
X4377325Y-5883984D02*
X4358277Y-5912555D01*
X4358277Y-5912555D02*
X4339229Y-5931603D01*
X4339229Y-5931603D02*
X4320182Y-5941127D01*
X4548753Y-5969698D02*
X4529706Y-5960174D01*
X4529706Y-5960174D02*
X4520182Y-5950650D01*
X4520182Y-5950650D02*
X4510658Y-5931603D01*
X4510658Y-5931603D02*
X4510658Y-5922079D01*
X4510658Y-5922079D02*
X4520182Y-5903031D01*
X4520182Y-5903031D02*
X4529706Y-5893508D01*
X4529706Y-5893508D02*
X4548753Y-5883984D01*
X4548753Y-5883984D02*
X4586849Y-5883984D01*
X4586849Y-5883984D02*
X4605896Y-5893508D01*
X4605896Y-5893508D02*
X4615420Y-5903031D01*
X4615420Y-5903031D02*
X4624944Y-5922079D01*
X4624944Y-5922079D02*
X4624944Y-5931603D01*
X4624944Y-5931603D02*
X4615420Y-5950650D01*
X4615420Y-5950650D02*
X4605896Y-5960174D01*
X4605896Y-5960174D02*
X4586849Y-5969698D01*
X4586849Y-5969698D02*
X4548753Y-5969698D01*
X4548753Y-5969698D02*
X4529706Y-5979222D01*
X4529706Y-5979222D02*
X4520182Y-5988746D01*
X4520182Y-5988746D02*
X4510658Y-6007793D01*
X4510658Y-6007793D02*
X4510658Y-6045888D01*
X4510658Y-6045888D02*
X4520182Y-6064936D01*
X4520182Y-6064936D02*
X4529706Y-6074460D01*
X4529706Y-6074460D02*
X4548753Y-6083984D01*
X4548753Y-6083984D02*
X4586849Y-6083984D01*
X4586849Y-6083984D02*
X4605896Y-6074460D01*
X4605896Y-6074460D02*
X4615420Y-6064936D01*
X4615420Y-6064936D02*
X4624944Y-6045888D01*
X4624944Y-6045888D02*
X4624944Y-6007793D01*
X4624944Y-6007793D02*
X4615420Y-5988746D01*
X4615420Y-5988746D02*
X4605896Y-5979222D01*
X4605896Y-5979222D02*
X4586849Y-5969698D01*
X4701134Y-5883984D02*
X4701134Y-5922079D01*
X4777325Y-5883984D02*
X4777325Y-5922079D01*
X5072563Y-6160174D02*
X5063039Y-6150650D01*
X5063039Y-6150650D02*
X5043991Y-6122079D01*
X5043991Y-6122079D02*
X5034468Y-6103031D01*
X5034468Y-6103031D02*
X5024944Y-6074460D01*
X5024944Y-6074460D02*
X5015420Y-6026841D01*
X5015420Y-6026841D02*
X5015420Y-5988746D01*
X5015420Y-5988746D02*
X5024944Y-5941127D01*
X5024944Y-5941127D02*
X5034468Y-5912555D01*
X5034468Y-5912555D02*
X5043991Y-5893508D01*
X5043991Y-5893508D02*
X5063039Y-5864936D01*
X5063039Y-5864936D02*
X5072563Y-5855412D01*
X5253515Y-6083984D02*
X5139230Y-6083984D01*
X5196372Y-6083984D02*
X5196372Y-5883984D01*
X5196372Y-5883984D02*
X5177325Y-5912555D01*
X5177325Y-5912555D02*
X5158277Y-5931603D01*
X5158277Y-5931603D02*
X5139230Y-5941127D01*
X5377325Y-5883984D02*
X5396372Y-5883984D01*
X5396372Y-5883984D02*
X5415420Y-5893508D01*
X5415420Y-5893508D02*
X5424944Y-5903031D01*
X5424944Y-5903031D02*
X5434468Y-5922079D01*
X5434468Y-5922079D02*
X5443991Y-5960174D01*
X5443991Y-5960174D02*
X5443991Y-6007793D01*
X5443991Y-6007793D02*
X5434468Y-6045888D01*
X5434468Y-6045888D02*
X5424944Y-6064936D01*
X5424944Y-6064936D02*
X5415420Y-6074460D01*
X5415420Y-6074460D02*
X5396372Y-6083984D01*
X5396372Y-6083984D02*
X5377325Y-6083984D01*
X5377325Y-6083984D02*
X5358277Y-6074460D01*
X5358277Y-6074460D02*
X5348753Y-6064936D01*
X5348753Y-6064936D02*
X5339230Y-6045888D01*
X5339230Y-6045888D02*
X5329706Y-6007793D01*
X5329706Y-6007793D02*
X5329706Y-5960174D01*
X5329706Y-5960174D02*
X5339230Y-5922079D01*
X5339230Y-5922079D02*
X5348753Y-5903031D01*
X5348753Y-5903031D02*
X5358277Y-5893508D01*
X5358277Y-5893508D02*
X5377325Y-5883984D01*
X5682087Y-6083984D02*
X5682087Y-5883984D01*
X5767801Y-6083984D02*
X5767801Y-5979222D01*
X5767801Y-5979222D02*
X5758277Y-5960174D01*
X5758277Y-5960174D02*
X5739230Y-5950650D01*
X5739230Y-5950650D02*
X5710658Y-5950650D01*
X5710658Y-5950650D02*
X5691610Y-5960174D01*
X5691610Y-5960174D02*
X5682087Y-5969698D01*
X5891610Y-6083984D02*
X5872563Y-6074460D01*
X5872563Y-6074460D02*
X5863039Y-6064936D01*
X5863039Y-6064936D02*
X5853515Y-6045888D01*
X5853515Y-6045888D02*
X5853515Y-5988746D01*
X5853515Y-5988746D02*
X5863039Y-5969698D01*
X5863039Y-5969698D02*
X5872563Y-5960174D01*
X5872563Y-5960174D02*
X5891610Y-5950650D01*
X5891610Y-5950650D02*
X5920182Y-5950650D01*
X5920182Y-5950650D02*
X5939230Y-5960174D01*
X5939230Y-5960174D02*
X5948753Y-5969698D01*
X5948753Y-5969698D02*
X5958277Y-5988746D01*
X5958277Y-5988746D02*
X5958277Y-6045888D01*
X5958277Y-6045888D02*
X5948753Y-6064936D01*
X5948753Y-6064936D02*
X5939230Y-6074460D01*
X5939230Y-6074460D02*
X5920182Y-6083984D01*
X5920182Y-6083984D02*
X5891610Y-6083984D01*
X6072563Y-6083984D02*
X6053515Y-6074460D01*
X6053515Y-6074460D02*
X6043991Y-6055412D01*
X6043991Y-6055412D02*
X6043991Y-5883984D01*
X6224944Y-6074460D02*
X6205896Y-6083984D01*
X6205896Y-6083984D02*
X6167801Y-6083984D01*
X6167801Y-6083984D02*
X6148753Y-6074460D01*
X6148753Y-6074460D02*
X6139230Y-6055412D01*
X6139230Y-6055412D02*
X6139230Y-5979222D01*
X6139230Y-5979222D02*
X6148753Y-5960174D01*
X6148753Y-5960174D02*
X6167801Y-5950650D01*
X6167801Y-5950650D02*
X6205896Y-5950650D01*
X6205896Y-5950650D02*
X6224944Y-5960174D01*
X6224944Y-5960174D02*
X6234468Y-5979222D01*
X6234468Y-5979222D02*
X6234468Y-5998269D01*
X6234468Y-5998269D02*
X6139230Y-6017317D01*
X6310658Y-6074460D02*
X6329706Y-6083984D01*
X6329706Y-6083984D02*
X6367801Y-6083984D01*
X6367801Y-6083984D02*
X6386849Y-6074460D01*
X6386849Y-6074460D02*
X6396372Y-6055412D01*
X6396372Y-6055412D02*
X6396372Y-6045888D01*
X6396372Y-6045888D02*
X6386849Y-6026841D01*
X6386849Y-6026841D02*
X6367801Y-6017317D01*
X6367801Y-6017317D02*
X6339230Y-6017317D01*
X6339230Y-6017317D02*
X6320182Y-6007793D01*
X6320182Y-6007793D02*
X6310658Y-5988746D01*
X6310658Y-5988746D02*
X6310658Y-5979222D01*
X6310658Y-5979222D02*
X6320182Y-5960174D01*
X6320182Y-5960174D02*
X6339230Y-5950650D01*
X6339230Y-5950650D02*
X6367801Y-5950650D01*
X6367801Y-5950650D02*
X6386849Y-5960174D01*
X6463039Y-6160174D02*
X6472563Y-6150650D01*
X6472563Y-6150650D02*
X6491611Y-6122079D01*
X6491611Y-6122079D02*
X6501134Y-6103031D01*
X6501134Y-6103031D02*
X6510658Y-6074460D01*
X6510658Y-6074460D02*
X6520182Y-6026841D01*
X6520182Y-6026841D02*
X6520182Y-5988746D01*
X6520182Y-5988746D02*
X6510658Y-5941127D01*
X6510658Y-5941127D02*
X6501134Y-5912555D01*
X6501134Y-5912555D02*
X6491611Y-5893508D01*
X6491611Y-5893508D02*
X6472563Y-5864936D01*
X6472563Y-5864936D02*
X6463039Y-5855412D01*
D12*
X1497500Y-6256500D02*
G75*
G02*
X1397500Y-6256500I-50000J0D01*
G01*
X1397500Y-6256500D02*
G75*
G02*
X1497500Y-6256500I50000J0D01*
G01*
D11*
X1863039Y-6347984D02*
X1748753Y-6347984D01*
X1805896Y-6347984D02*
X1805896Y-6147984D01*
X1805896Y-6147984D02*
X1786848Y-6176555D01*
X1786848Y-6176555D02*
X1767801Y-6195603D01*
X1767801Y-6195603D02*
X1748753Y-6205127D01*
X1948753Y-6328936D02*
X1958277Y-6338460D01*
X1958277Y-6338460D02*
X1948753Y-6347984D01*
X1948753Y-6347984D02*
X1939229Y-6338460D01*
X1939229Y-6338460D02*
X1948753Y-6328936D01*
X1948753Y-6328936D02*
X1948753Y-6347984D01*
X2082086Y-6147984D02*
X2101134Y-6147984D01*
X2101134Y-6147984D02*
X2120182Y-6157508D01*
X2120182Y-6157508D02*
X2129705Y-6167031D01*
X2129705Y-6167031D02*
X2139229Y-6186079D01*
X2139229Y-6186079D02*
X2148753Y-6224174D01*
X2148753Y-6224174D02*
X2148753Y-6271793D01*
X2148753Y-6271793D02*
X2139229Y-6309888D01*
X2139229Y-6309888D02*
X2129705Y-6328936D01*
X2129705Y-6328936D02*
X2120182Y-6338460D01*
X2120182Y-6338460D02*
X2101134Y-6347984D01*
X2101134Y-6347984D02*
X2082086Y-6347984D01*
X2082086Y-6347984D02*
X2063039Y-6338460D01*
X2063039Y-6338460D02*
X2053515Y-6328936D01*
X2053515Y-6328936D02*
X2043991Y-6309888D01*
X2043991Y-6309888D02*
X2034467Y-6271793D01*
X2034467Y-6271793D02*
X2034467Y-6224174D01*
X2034467Y-6224174D02*
X2043991Y-6186079D01*
X2043991Y-6186079D02*
X2053515Y-6167031D01*
X2053515Y-6167031D02*
X2063039Y-6157508D01*
X2063039Y-6157508D02*
X2082086Y-6147984D01*
X2272563Y-6147984D02*
X2291610Y-6147984D01*
X2291610Y-6147984D02*
X2310658Y-6157508D01*
X2310658Y-6157508D02*
X2320182Y-6167031D01*
X2320182Y-6167031D02*
X2329705Y-6186079D01*
X2329705Y-6186079D02*
X2339229Y-6224174D01*
X2339229Y-6224174D02*
X2339229Y-6271793D01*
X2339229Y-6271793D02*
X2329705Y-6309888D01*
X2329705Y-6309888D02*
X2320182Y-6328936D01*
X2320182Y-6328936D02*
X2310658Y-6338460D01*
X2310658Y-6338460D02*
X2291610Y-6347984D01*
X2291610Y-6347984D02*
X2272563Y-6347984D01*
X2272563Y-6347984D02*
X2253515Y-6338460D01*
X2253515Y-6338460D02*
X2243991Y-6328936D01*
X2243991Y-6328936D02*
X2234467Y-6309888D01*
X2234467Y-6309888D02*
X2224944Y-6271793D01*
X2224944Y-6271793D02*
X2224944Y-6224174D01*
X2224944Y-6224174D02*
X2234467Y-6186079D01*
X2234467Y-6186079D02*
X2243991Y-6167031D01*
X2243991Y-6167031D02*
X2253515Y-6157508D01*
X2253515Y-6157508D02*
X2272563Y-6147984D01*
X2463039Y-6147984D02*
X2482086Y-6147984D01*
X2482086Y-6147984D02*
X2501134Y-6157508D01*
X2501134Y-6157508D02*
X2510658Y-6167031D01*
X2510658Y-6167031D02*
X2520182Y-6186079D01*
X2520182Y-6186079D02*
X2529705Y-6224174D01*
X2529705Y-6224174D02*
X2529705Y-6271793D01*
X2529705Y-6271793D02*
X2520182Y-6309888D01*
X2520182Y-6309888D02*
X2510658Y-6328936D01*
X2510658Y-6328936D02*
X2501134Y-6338460D01*
X2501134Y-6338460D02*
X2482086Y-6347984D01*
X2482086Y-6347984D02*
X2463039Y-6347984D01*
X2463039Y-6347984D02*
X2443991Y-6338460D01*
X2443991Y-6338460D02*
X2434467Y-6328936D01*
X2434467Y-6328936D02*
X2424944Y-6309888D01*
X2424944Y-6309888D02*
X2415420Y-6271793D01*
X2415420Y-6271793D02*
X2415420Y-6224174D01*
X2415420Y-6224174D02*
X2424944Y-6186079D01*
X2424944Y-6186079D02*
X2434467Y-6167031D01*
X2434467Y-6167031D02*
X2443991Y-6157508D01*
X2443991Y-6157508D02*
X2463039Y-6147984D01*
X2615420Y-6347984D02*
X2615420Y-6214650D01*
X2615420Y-6233698D02*
X2624944Y-6224174D01*
X2624944Y-6224174D02*
X2643991Y-6214650D01*
X2643991Y-6214650D02*
X2672563Y-6214650D01*
X2672563Y-6214650D02*
X2691610Y-6224174D01*
X2691610Y-6224174D02*
X2701134Y-6243222D01*
X2701134Y-6243222D02*
X2701134Y-6347984D01*
X2701134Y-6243222D02*
X2710658Y-6224174D01*
X2710658Y-6224174D02*
X2729705Y-6214650D01*
X2729705Y-6214650D02*
X2758277Y-6214650D01*
X2758277Y-6214650D02*
X2777325Y-6224174D01*
X2777325Y-6224174D02*
X2786848Y-6243222D01*
X2786848Y-6243222D02*
X2786848Y-6347984D01*
X2882086Y-6347984D02*
X2882086Y-6214650D01*
X2882086Y-6233698D02*
X2891610Y-6224174D01*
X2891610Y-6224174D02*
X2910658Y-6214650D01*
X2910658Y-6214650D02*
X2939229Y-6214650D01*
X2939229Y-6214650D02*
X2958277Y-6224174D01*
X2958277Y-6224174D02*
X2967801Y-6243222D01*
X2967801Y-6243222D02*
X2967801Y-6347984D01*
X2967801Y-6243222D02*
X2977324Y-6224174D01*
X2977324Y-6224174D02*
X2996372Y-6214650D01*
X2996372Y-6214650D02*
X3024943Y-6214650D01*
X3024943Y-6214650D02*
X3043991Y-6224174D01*
X3043991Y-6224174D02*
X3053515Y-6243222D01*
X3053515Y-6243222D02*
X3053515Y-6347984D01*
X3443991Y-6138460D02*
X3272563Y-6395603D01*
X3701134Y-6147984D02*
X3720182Y-6147984D01*
X3720182Y-6147984D02*
X3739229Y-6157508D01*
X3739229Y-6157508D02*
X3748753Y-6167031D01*
X3748753Y-6167031D02*
X3758277Y-6186079D01*
X3758277Y-6186079D02*
X3767801Y-6224174D01*
X3767801Y-6224174D02*
X3767801Y-6271793D01*
X3767801Y-6271793D02*
X3758277Y-6309888D01*
X3758277Y-6309888D02*
X3748753Y-6328936D01*
X3748753Y-6328936D02*
X3739229Y-6338460D01*
X3739229Y-6338460D02*
X3720182Y-6347984D01*
X3720182Y-6347984D02*
X3701134Y-6347984D01*
X3701134Y-6347984D02*
X3682086Y-6338460D01*
X3682086Y-6338460D02*
X3672563Y-6328936D01*
X3672563Y-6328936D02*
X3663039Y-6309888D01*
X3663039Y-6309888D02*
X3653515Y-6271793D01*
X3653515Y-6271793D02*
X3653515Y-6224174D01*
X3653515Y-6224174D02*
X3663039Y-6186079D01*
X3663039Y-6186079D02*
X3672563Y-6167031D01*
X3672563Y-6167031D02*
X3682086Y-6157508D01*
X3682086Y-6157508D02*
X3701134Y-6147984D01*
X3853515Y-6328936D02*
X3863039Y-6338460D01*
X3863039Y-6338460D02*
X3853515Y-6347984D01*
X3853515Y-6347984D02*
X3843991Y-6338460D01*
X3843991Y-6338460D02*
X3853515Y-6328936D01*
X3853515Y-6328936D02*
X3853515Y-6347984D01*
X3986848Y-6147984D02*
X4005896Y-6147984D01*
X4005896Y-6147984D02*
X4024944Y-6157508D01*
X4024944Y-6157508D02*
X4034467Y-6167031D01*
X4034467Y-6167031D02*
X4043991Y-6186079D01*
X4043991Y-6186079D02*
X4053515Y-6224174D01*
X4053515Y-6224174D02*
X4053515Y-6271793D01*
X4053515Y-6271793D02*
X4043991Y-6309888D01*
X4043991Y-6309888D02*
X4034467Y-6328936D01*
X4034467Y-6328936D02*
X4024944Y-6338460D01*
X4024944Y-6338460D02*
X4005896Y-6347984D01*
X4005896Y-6347984D02*
X3986848Y-6347984D01*
X3986848Y-6347984D02*
X3967801Y-6338460D01*
X3967801Y-6338460D02*
X3958277Y-6328936D01*
X3958277Y-6328936D02*
X3948753Y-6309888D01*
X3948753Y-6309888D02*
X3939229Y-6271793D01*
X3939229Y-6271793D02*
X3939229Y-6224174D01*
X3939229Y-6224174D02*
X3948753Y-6186079D01*
X3948753Y-6186079D02*
X3958277Y-6167031D01*
X3958277Y-6167031D02*
X3967801Y-6157508D01*
X3967801Y-6157508D02*
X3986848Y-6147984D01*
X4120182Y-6147984D02*
X4243991Y-6147984D01*
X4243991Y-6147984D02*
X4177325Y-6224174D01*
X4177325Y-6224174D02*
X4205896Y-6224174D01*
X4205896Y-6224174D02*
X4224944Y-6233698D01*
X4224944Y-6233698D02*
X4234468Y-6243222D01*
X4234468Y-6243222D02*
X4243991Y-6262269D01*
X4243991Y-6262269D02*
X4243991Y-6309888D01*
X4243991Y-6309888D02*
X4234468Y-6328936D01*
X4234468Y-6328936D02*
X4224944Y-6338460D01*
X4224944Y-6338460D02*
X4205896Y-6347984D01*
X4205896Y-6347984D02*
X4148753Y-6347984D01*
X4148753Y-6347984D02*
X4129706Y-6338460D01*
X4129706Y-6338460D02*
X4120182Y-6328936D01*
X4339229Y-6347984D02*
X4377325Y-6347984D01*
X4377325Y-6347984D02*
X4396372Y-6338460D01*
X4396372Y-6338460D02*
X4405896Y-6328936D01*
X4405896Y-6328936D02*
X4424944Y-6300365D01*
X4424944Y-6300365D02*
X4434468Y-6262269D01*
X4434468Y-6262269D02*
X4434468Y-6186079D01*
X4434468Y-6186079D02*
X4424944Y-6167031D01*
X4424944Y-6167031D02*
X4415420Y-6157508D01*
X4415420Y-6157508D02*
X4396372Y-6147984D01*
X4396372Y-6147984D02*
X4358277Y-6147984D01*
X4358277Y-6147984D02*
X4339229Y-6157508D01*
X4339229Y-6157508D02*
X4329706Y-6167031D01*
X4329706Y-6167031D02*
X4320182Y-6186079D01*
X4320182Y-6186079D02*
X4320182Y-6233698D01*
X4320182Y-6233698D02*
X4329706Y-6252746D01*
X4329706Y-6252746D02*
X4339229Y-6262269D01*
X4339229Y-6262269D02*
X4358277Y-6271793D01*
X4358277Y-6271793D02*
X4396372Y-6271793D01*
X4396372Y-6271793D02*
X4415420Y-6262269D01*
X4415420Y-6262269D02*
X4424944Y-6252746D01*
X4424944Y-6252746D02*
X4434468Y-6233698D01*
X4605896Y-6214650D02*
X4605896Y-6347984D01*
X4558277Y-6138460D02*
X4510658Y-6281317D01*
X4510658Y-6281317D02*
X4634468Y-6281317D01*
X4701134Y-6147984D02*
X4701134Y-6186079D01*
X4777325Y-6147984D02*
X4777325Y-6186079D01*
X5072563Y-6424174D02*
X5063039Y-6414650D01*
X5063039Y-6414650D02*
X5043991Y-6386079D01*
X5043991Y-6386079D02*
X5034468Y-6367031D01*
X5034468Y-6367031D02*
X5024944Y-6338460D01*
X5024944Y-6338460D02*
X5015420Y-6290841D01*
X5015420Y-6290841D02*
X5015420Y-6252746D01*
X5015420Y-6252746D02*
X5024944Y-6205127D01*
X5024944Y-6205127D02*
X5034468Y-6176555D01*
X5034468Y-6176555D02*
X5043991Y-6157508D01*
X5043991Y-6157508D02*
X5063039Y-6128936D01*
X5063039Y-6128936D02*
X5072563Y-6119412D01*
X5253515Y-6347984D02*
X5139230Y-6347984D01*
X5196372Y-6347984D02*
X5196372Y-6147984D01*
X5196372Y-6147984D02*
X5177325Y-6176555D01*
X5177325Y-6176555D02*
X5158277Y-6195603D01*
X5158277Y-6195603D02*
X5139230Y-6205127D01*
X5377325Y-6147984D02*
X5396372Y-6147984D01*
X5396372Y-6147984D02*
X5415420Y-6157508D01*
X5415420Y-6157508D02*
X5424944Y-6167031D01*
X5424944Y-6167031D02*
X5434468Y-6186079D01*
X5434468Y-6186079D02*
X5443991Y-6224174D01*
X5443991Y-6224174D02*
X5443991Y-6271793D01*
X5443991Y-6271793D02*
X5434468Y-6309888D01*
X5434468Y-6309888D02*
X5424944Y-6328936D01*
X5424944Y-6328936D02*
X5415420Y-6338460D01*
X5415420Y-6338460D02*
X5396372Y-6347984D01*
X5396372Y-6347984D02*
X5377325Y-6347984D01*
X5377325Y-6347984D02*
X5358277Y-6338460D01*
X5358277Y-6338460D02*
X5348753Y-6328936D01*
X5348753Y-6328936D02*
X5339230Y-6309888D01*
X5339230Y-6309888D02*
X5329706Y-6271793D01*
X5329706Y-6271793D02*
X5329706Y-6224174D01*
X5329706Y-6224174D02*
X5339230Y-6186079D01*
X5339230Y-6186079D02*
X5348753Y-6167031D01*
X5348753Y-6167031D02*
X5358277Y-6157508D01*
X5358277Y-6157508D02*
X5377325Y-6147984D01*
X5682087Y-6347984D02*
X5682087Y-6147984D01*
X5767801Y-6347984D02*
X5767801Y-6243222D01*
X5767801Y-6243222D02*
X5758277Y-6224174D01*
X5758277Y-6224174D02*
X5739230Y-6214650D01*
X5739230Y-6214650D02*
X5710658Y-6214650D01*
X5710658Y-6214650D02*
X5691610Y-6224174D01*
X5691610Y-6224174D02*
X5682087Y-6233698D01*
X5891610Y-6347984D02*
X5872563Y-6338460D01*
X5872563Y-6338460D02*
X5863039Y-6328936D01*
X5863039Y-6328936D02*
X5853515Y-6309888D01*
X5853515Y-6309888D02*
X5853515Y-6252746D01*
X5853515Y-6252746D02*
X5863039Y-6233698D01*
X5863039Y-6233698D02*
X5872563Y-6224174D01*
X5872563Y-6224174D02*
X5891610Y-6214650D01*
X5891610Y-6214650D02*
X5920182Y-6214650D01*
X5920182Y-6214650D02*
X5939230Y-6224174D01*
X5939230Y-6224174D02*
X5948753Y-6233698D01*
X5948753Y-6233698D02*
X5958277Y-6252746D01*
X5958277Y-6252746D02*
X5958277Y-6309888D01*
X5958277Y-6309888D02*
X5948753Y-6328936D01*
X5948753Y-6328936D02*
X5939230Y-6338460D01*
X5939230Y-6338460D02*
X5920182Y-6347984D01*
X5920182Y-6347984D02*
X5891610Y-6347984D01*
X6072563Y-6347984D02*
X6053515Y-6338460D01*
X6053515Y-6338460D02*
X6043991Y-6319412D01*
X6043991Y-6319412D02*
X6043991Y-6147984D01*
X6224944Y-6338460D02*
X6205896Y-6347984D01*
X6205896Y-6347984D02*
X6167801Y-6347984D01*
X6167801Y-6347984D02*
X6148753Y-6338460D01*
X6148753Y-6338460D02*
X6139230Y-6319412D01*
X6139230Y-6319412D02*
X6139230Y-6243222D01*
X6139230Y-6243222D02*
X6148753Y-6224174D01*
X6148753Y-6224174D02*
X6167801Y-6214650D01*
X6167801Y-6214650D02*
X6205896Y-6214650D01*
X6205896Y-6214650D02*
X6224944Y-6224174D01*
X6224944Y-6224174D02*
X6234468Y-6243222D01*
X6234468Y-6243222D02*
X6234468Y-6262269D01*
X6234468Y-6262269D02*
X6139230Y-6281317D01*
X6310658Y-6338460D02*
X6329706Y-6347984D01*
X6329706Y-6347984D02*
X6367801Y-6347984D01*
X6367801Y-6347984D02*
X6386849Y-6338460D01*
X6386849Y-6338460D02*
X6396372Y-6319412D01*
X6396372Y-6319412D02*
X6396372Y-6309888D01*
X6396372Y-6309888D02*
X6386849Y-6290841D01*
X6386849Y-6290841D02*
X6367801Y-6281317D01*
X6367801Y-6281317D02*
X6339230Y-6281317D01*
X6339230Y-6281317D02*
X6320182Y-6271793D01*
X6320182Y-6271793D02*
X6310658Y-6252746D01*
X6310658Y-6252746D02*
X6310658Y-6243222D01*
X6310658Y-6243222D02*
X6320182Y-6224174D01*
X6320182Y-6224174D02*
X6339230Y-6214650D01*
X6339230Y-6214650D02*
X6367801Y-6214650D01*
X6367801Y-6214650D02*
X6386849Y-6224174D01*
X6463039Y-6424174D02*
X6472563Y-6414650D01*
X6472563Y-6414650D02*
X6491611Y-6386079D01*
X6491611Y-6386079D02*
X6501134Y-6367031D01*
X6501134Y-6367031D02*
X6510658Y-6338460D01*
X6510658Y-6338460D02*
X6520182Y-6290841D01*
X6520182Y-6290841D02*
X6520182Y-6252746D01*
X6520182Y-6252746D02*
X6510658Y-6205127D01*
X6510658Y-6205127D02*
X6501134Y-6176555D01*
X6501134Y-6176555D02*
X6491611Y-6157508D01*
X6491611Y-6157508D02*
X6472563Y-6128936D01*
X6472563Y-6128936D02*
X6463039Y-6119412D01*
M02*
