G04 #@! TF.GenerationSoftware,KiCad,Pcbnew,9.0.3*
G04 #@! TF.CreationDate,2025-08-26T17:27:59-07:00*
G04 #@! TF.ProjectId,battery_connector,62617474-6572-4795-9f63-6f6e6e656374,V1*
G04 #@! TF.SameCoordinates,Original*
G04 #@! TF.FileFunction,Copper,L1,Top*
G04 #@! TF.FilePolarity,Positive*
%FSLAX45Y45*%
G04 Gerber Fmt 4.5, Leading zero omitted, Abs format (unit mm)*
G04 Created by KiCad (PCBNEW 9.0.3) date 2025-08-26 17:27:59*
%MOMM*%
%LPD*%
G01*
G04 APERTURE LIST*
G04 Aperture macros list*
%AMRoundRect*
0 Rectangle with rounded corners*
0 $1 Rounding radius*
0 $2 $3 $4 $5 $6 $7 $8 $9 X,Y pos of 4 corners*
0 Add a 4 corners polygon primitive as box body*
4,1,4,$2,$3,$4,$5,$6,$7,$8,$9,$2,$3,0*
0 Add four circle primitives for the rounded corners*
1,1,$1+$1,$2,$3*
1,1,$1+$1,$4,$5*
1,1,$1+$1,$6,$7*
1,1,$1+$1,$8,$9*
0 Add four rect primitives between the rounded corners*
20,1,$1+$1,$2,$3,$4,$5,0*
20,1,$1+$1,$4,$5,$6,$7,0*
20,1,$1+$1,$6,$7,$8,$9,0*
20,1,$1+$1,$8,$9,$2,$3,0*%
G04 Aperture macros list end*
G04 #@! TA.AperFunction,SMDPad,CuDef*
%ADD10RoundRect,0.150000X-0.625000X0.150000X-0.625000X-0.150000X0.625000X-0.150000X0.625000X0.150000X0*%
G04 #@! TD*
G04 #@! TA.AperFunction,SMDPad,CuDef*
%ADD11RoundRect,0.250000X-0.650000X0.350000X-0.650000X-0.350000X0.650000X-0.350000X0.650000X0.350000X0*%
G04 #@! TD*
G04 #@! TA.AperFunction,ComponentPad*
%ADD12R,1.700000X1.700000*%
G04 #@! TD*
G04 #@! TA.AperFunction,ComponentPad*
%ADD13C,1.700000*%
G04 #@! TD*
G04 #@! TA.AperFunction,ViaPad*
%ADD14C,0.600000*%
G04 #@! TD*
G04 #@! TA.AperFunction,Conductor*
%ADD15C,0.200000*%
G04 #@! TD*
G04 #@! TA.AperFunction,Conductor*
%ADD16C,0.500000*%
G04 #@! TD*
G04 APERTURE END LIST*
D10*
X2150000Y-3700000D03*
X2150000Y-3800000D03*
X2150000Y-3900000D03*
X2150000Y-4000000D03*
X2150000Y-4100000D03*
D11*
X1762500Y-3570000D03*
X1762500Y-4230000D03*
D12*
X3361500Y-2757000D03*
D13*
X3361500Y-3011000D03*
X3361500Y-3265000D03*
X3361500Y-3519000D03*
X3361500Y-3773000D03*
X3361500Y-4027000D03*
X3361500Y-4281000D03*
X3361500Y-4535000D03*
X3361500Y-4789000D03*
X3361500Y-5043000D03*
D14*
X2964283Y-4285717D03*
X3050000Y-3725000D03*
X2665790Y-4284210D03*
X2446361Y-4064780D03*
X2445555Y-3979121D03*
X3108217Y-4641783D03*
X3214283Y-4535717D03*
X2650000Y-3725000D03*
X3050000Y-4100000D03*
X2750000Y-3350000D03*
D15*
X3155500Y-3725000D02*
X3361500Y-3519000D01*
X3242500Y-4400000D02*
X3361500Y-4281000D01*
X2481581Y-4100000D02*
X2665790Y-4284210D01*
X2964283Y-4285717D02*
X3014283Y-4285717D01*
X3128566Y-4400000D02*
X3242500Y-4400000D01*
X2411142Y-4100000D02*
X2446361Y-4064780D01*
X2150000Y-4100000D02*
X2411142Y-4100000D01*
X3014283Y-4285717D02*
X3128566Y-4400000D01*
X2150000Y-4100000D02*
X2481581Y-4100000D01*
X3050000Y-3725000D02*
X3155500Y-3725000D01*
X2650000Y-3725000D02*
X2989900Y-3725000D01*
X3360783Y-4535717D02*
X3361500Y-4535000D01*
X2424677Y-4000000D02*
X2445555Y-3979121D01*
X3025106Y-3664900D02*
X3074894Y-3664900D01*
X3346100Y-3403900D02*
X3361500Y-3388500D01*
X3246400Y-3471324D02*
X3313824Y-3403900D01*
X3246400Y-3503600D02*
X3246400Y-3471324D01*
X3079997Y-3670003D02*
X3246400Y-3503600D01*
X3074894Y-3664900D02*
X3079997Y-3670003D01*
X2150000Y-4000000D02*
X2466434Y-4000000D01*
X3313824Y-3403900D02*
X3346100Y-3403900D01*
X2989900Y-3700106D02*
X3025106Y-3664900D01*
X2150000Y-4000000D02*
X2424677Y-4000000D01*
X3214283Y-4535717D02*
X3360783Y-4535717D01*
X2466434Y-4000000D02*
X3108217Y-4641783D01*
X2989900Y-3725000D02*
X2989900Y-3700106D01*
X3361500Y-3388500D02*
X3361500Y-3265000D01*
D16*
X3134500Y-3800000D02*
X3361500Y-4027000D01*
X3334500Y-3800000D02*
X3361500Y-3773000D01*
X2150000Y-3800000D02*
X3334500Y-3800000D01*
X2150000Y-3800000D02*
X3134500Y-3800000D01*
X1900000Y-3712910D02*
X1900000Y-3011000D01*
X2087090Y-3900000D02*
X1900000Y-3712910D01*
X1900000Y-3011000D02*
X3361500Y-3011000D01*
X2472500Y-3900000D02*
X3361500Y-4789000D01*
X2150000Y-3900000D02*
X2087090Y-3900000D01*
X2150000Y-3900000D02*
X2472500Y-3900000D01*
D15*
X2150000Y-3700000D02*
X2100000Y-3700000D01*
G04 #@! TA.AperFunction,Conductor*
G36*
X3104981Y-3877018D02*
G01*
X3107045Y-3878682D01*
X3224482Y-3996119D01*
X3227831Y-4002251D01*
X3227962Y-4006827D01*
X3226450Y-4016371D01*
X3226450Y-4016371D01*
X3226450Y-4037629D01*
X3229775Y-4058624D01*
X3236211Y-4078430D01*
X3236344Y-4078841D01*
X3245995Y-4097782D01*
X3258489Y-4114979D01*
X3273521Y-4130011D01*
X3290718Y-4142505D01*
X3291595Y-4142952D01*
X3296674Y-4147749D01*
X3298354Y-4154531D01*
X3296100Y-4161145D01*
X3291595Y-4165048D01*
X3290718Y-4165495D01*
X3273521Y-4177989D01*
X3258489Y-4193021D01*
X3245995Y-4210218D01*
X3236344Y-4229159D01*
X3229775Y-4249376D01*
X3226450Y-4270371D01*
X3226450Y-4291629D01*
X3229775Y-4312624D01*
X3229775Y-4312625D01*
X3231149Y-4316852D01*
X3231192Y-4318373D01*
X3231724Y-4319799D01*
X3231290Y-4321795D01*
X3231349Y-4323836D01*
X3230540Y-4325245D01*
X3230239Y-4326627D01*
X3228124Y-4329452D01*
X3221258Y-4336318D01*
X3215126Y-4339667D01*
X3212490Y-4339950D01*
X3158576Y-4339950D01*
X3151872Y-4337982D01*
X3149808Y-4336318D01*
X3063042Y-4249552D01*
X3063042Y-4249552D01*
X3051155Y-4237665D01*
X3051155Y-4237665D01*
X3042473Y-4232653D01*
X3042473Y-4232653D01*
X3042473Y-4232653D01*
X3037462Y-4229759D01*
X3035220Y-4229159D01*
X3022188Y-4225667D01*
X3021383Y-4225561D01*
X3021402Y-4225415D01*
X3015556Y-4223698D01*
X3015370Y-4223577D01*
X3002202Y-4214778D01*
X3002200Y-4214777D01*
X2987633Y-4208743D01*
X2987632Y-4208743D01*
X2972168Y-4205667D01*
X2972167Y-4205667D01*
X2956399Y-4205667D01*
X2956399Y-4205667D01*
X2940934Y-4208743D01*
X2940933Y-4208743D01*
X2926366Y-4214777D01*
X2926365Y-4214778D01*
X2915074Y-4222322D01*
X2908406Y-4224410D01*
X2901668Y-4222561D01*
X2899417Y-4220780D01*
X2574855Y-3896218D01*
X2571506Y-3890086D01*
X2572005Y-3883117D01*
X2576192Y-3877523D01*
X2582738Y-3875082D01*
X2583623Y-3875050D01*
X3098277Y-3875050D01*
X3104981Y-3877018D01*
G37*
G04 #@! TD.AperFunction*
G04 #@! TA.AperFunction,Conductor*
G36*
X3243303Y-3086204D02*
G01*
X3243839Y-3086095D01*
X3246620Y-3087178D01*
X3249482Y-3088018D01*
X3249975Y-3088484D01*
X3250350Y-3088630D01*
X3252810Y-3091161D01*
X3258489Y-3098979D01*
X3273521Y-3114011D01*
X3290718Y-3126505D01*
X3291595Y-3126952D01*
X3296674Y-3131749D01*
X3298354Y-3138531D01*
X3296100Y-3145145D01*
X3291595Y-3149048D01*
X3290718Y-3149495D01*
X3273521Y-3161989D01*
X3258489Y-3177021D01*
X3245995Y-3194218D01*
X3236344Y-3213158D01*
X3229775Y-3233376D01*
X3226450Y-3254371D01*
X3226450Y-3275629D01*
X3229775Y-3296624D01*
X3236344Y-3316841D01*
X3245995Y-3335782D01*
X3258489Y-3352979D01*
X3260387Y-3354877D01*
X3263736Y-3361009D01*
X3263237Y-3367978D01*
X3260387Y-3372413D01*
X3198348Y-3434452D01*
X3198348Y-3434452D01*
X3194403Y-3441286D01*
X3190442Y-3448145D01*
X3186350Y-3463418D01*
X3186350Y-3463418D01*
X3186350Y-3473590D01*
X3184381Y-3480294D01*
X3182718Y-3482358D01*
X3063858Y-3601218D01*
X3061166Y-3602688D01*
X3058584Y-3604348D01*
X3057964Y-3604437D01*
X3057726Y-3604567D01*
X3055090Y-3604850D01*
X3033773Y-3604850D01*
X3033771Y-3604850D01*
X3033011Y-3604850D01*
X3017200Y-3604850D01*
X3003179Y-3608607D01*
X3001927Y-3608942D01*
X2988234Y-3616848D01*
X2988234Y-3616848D01*
X2943764Y-3661318D01*
X2937632Y-3664667D01*
X2934996Y-3664950D01*
X2707977Y-3664950D01*
X2701273Y-3662981D01*
X2701088Y-3662860D01*
X2687919Y-3654061D01*
X2687917Y-3654060D01*
X2673350Y-3648026D01*
X2673349Y-3648026D01*
X2657885Y-3644950D01*
X2657884Y-3644950D01*
X2642116Y-3644950D01*
X2642116Y-3644950D01*
X2626651Y-3648026D01*
X2626650Y-3648026D01*
X2612083Y-3654060D01*
X2612081Y-3654061D01*
X2598971Y-3662821D01*
X2598971Y-3662821D01*
X2587821Y-3673971D01*
X2587821Y-3673971D01*
X2579061Y-3687081D01*
X2579060Y-3687083D01*
X2573026Y-3701650D01*
X2573026Y-3701651D01*
X2570377Y-3714969D01*
X2567138Y-3721160D01*
X2561067Y-3724618D01*
X2558215Y-3724950D01*
X2240733Y-3724950D01*
X2237273Y-3724458D01*
X2222757Y-3720240D01*
X2222757Y-3720240D01*
X2219070Y-3719950D01*
X2219069Y-3719950D01*
X2080931Y-3719950D01*
X2080930Y-3719950D01*
X2077243Y-3720240D01*
X2077243Y-3720240D01*
X2062554Y-3724508D01*
X2059095Y-3725000D01*
X2023363Y-3725000D01*
X2016659Y-3723031D01*
X2014595Y-3721368D01*
X1981429Y-3688202D01*
X1978682Y-3685455D01*
X1975333Y-3679323D01*
X1975050Y-3676687D01*
X1975050Y-3675000D01*
X2022770Y-3675000D01*
X2022770Y-3675000D01*
X2125000Y-3675000D01*
X2175000Y-3675000D01*
X2277230Y-3675000D01*
X2277230Y-3675000D01*
X2277210Y-3674751D01*
X2272628Y-3658980D01*
X2264269Y-3644845D01*
X2264268Y-3644844D01*
X2252656Y-3633232D01*
X2252655Y-3633231D01*
X2238520Y-3624872D01*
X2238519Y-3624872D01*
X2222750Y-3620290D01*
X2222749Y-3620290D01*
X2219065Y-3620000D01*
X2175000Y-3620000D01*
X2175000Y-3675000D01*
X2125000Y-3675000D01*
X2125000Y-3620000D01*
X2080935Y-3620000D01*
X2077251Y-3620290D01*
X2077250Y-3620290D01*
X2061481Y-3624872D01*
X2061480Y-3624872D01*
X2047345Y-3633231D01*
X2047344Y-3633232D01*
X2035732Y-3644844D01*
X2035731Y-3644845D01*
X2027372Y-3658980D01*
X2022790Y-3674751D01*
X2022770Y-3675000D01*
X1975050Y-3675000D01*
X1975050Y-3098450D01*
X1977018Y-3091746D01*
X1982299Y-3087171D01*
X1987450Y-3086050D01*
X3242778Y-3086050D01*
X3243303Y-3086204D01*
G37*
G04 #@! TD.AperFunction*
G04 #@! TA.AperFunction,Conductor*
G36*
X3644254Y-2302019D02*
G01*
X3648829Y-2307299D01*
X3649950Y-2312450D01*
X3649950Y-5287550D01*
X3647981Y-5294254D01*
X3642701Y-5298829D01*
X3637550Y-5299950D01*
X1562450Y-5299950D01*
X1555746Y-5297982D01*
X1551171Y-5292701D01*
X1550050Y-5287550D01*
X1550050Y-4189998D01*
X1622450Y-4189998D01*
X1622450Y-4270000D01*
X1622450Y-4270002D01*
X1623500Y-4280280D01*
X1623500Y-4280280D01*
X1627261Y-4291629D01*
X1629019Y-4296933D01*
X1638229Y-4311866D01*
X1650634Y-4324271D01*
X1665567Y-4333481D01*
X1682220Y-4339000D01*
X1692499Y-4340050D01*
X1832501Y-4340050D01*
X1842780Y-4339000D01*
X1859433Y-4333481D01*
X1874366Y-4324271D01*
X1886771Y-4311866D01*
X1895981Y-4296933D01*
X1901500Y-4280280D01*
X1902550Y-4270001D01*
X1902550Y-4189999D01*
X1901500Y-4179720D01*
X1895981Y-4163067D01*
X1886771Y-4148134D01*
X1874366Y-4135729D01*
X1859433Y-4126519D01*
X1842780Y-4121000D01*
X1842779Y-4121000D01*
X1832501Y-4119950D01*
X1692500Y-4119950D01*
X1692498Y-4119950D01*
X1682220Y-4121000D01*
X1682220Y-4121000D01*
X1665567Y-4126518D01*
X1665566Y-4126519D01*
X1650634Y-4135729D01*
X1638229Y-4148134D01*
X1629019Y-4163066D01*
X1629018Y-4163067D01*
X1626235Y-4171467D01*
X1623500Y-4179720D01*
X1623500Y-4179720D01*
X1623500Y-4179720D01*
X1622450Y-4189998D01*
X1550050Y-4189998D01*
X1550050Y-3529998D01*
X1622450Y-3529998D01*
X1622450Y-3610000D01*
X1622450Y-3610002D01*
X1623500Y-3620280D01*
X1623500Y-3620280D01*
X1625022Y-3624872D01*
X1629019Y-3636933D01*
X1638229Y-3651866D01*
X1650634Y-3664271D01*
X1665567Y-3673481D01*
X1682220Y-3679000D01*
X1692499Y-3680050D01*
X1812550Y-3680050D01*
X1819254Y-3682018D01*
X1823829Y-3687299D01*
X1824950Y-3692450D01*
X1824950Y-3720302D01*
X1824950Y-3720302D01*
X1824950Y-3720302D01*
X1827834Y-3734801D01*
X1827834Y-3734802D01*
X1830557Y-3741376D01*
X1833492Y-3748459D01*
X1835146Y-3750936D01*
X1835963Y-3752158D01*
X1841705Y-3760752D01*
X1841705Y-3760752D01*
X2025202Y-3944249D01*
X2028551Y-3950381D01*
X2028052Y-3957350D01*
X2027627Y-3958241D01*
X2027635Y-3958245D01*
X2027325Y-3958961D01*
X2022740Y-3974743D01*
X2022740Y-3974743D01*
X2022450Y-3978430D01*
X2022450Y-4021570D01*
X2022740Y-4025257D01*
X2022740Y-4025257D01*
X2027325Y-4041039D01*
X2028892Y-4043688D01*
X2030610Y-4050461D01*
X2028892Y-4056312D01*
X2027325Y-4058961D01*
X2022740Y-4074743D01*
X2022740Y-4074743D01*
X2022450Y-4078430D01*
X2022450Y-4121570D01*
X2022740Y-4125257D01*
X2022740Y-4125257D01*
X2027325Y-4141039D01*
X2027325Y-4141040D01*
X2035692Y-4155186D01*
X2035692Y-4155187D01*
X2047313Y-4166808D01*
X2047313Y-4166808D01*
X2047313Y-4166808D01*
X2061460Y-4175174D01*
X2065622Y-4176384D01*
X2077243Y-4179760D01*
X2077243Y-4179760D01*
X2077243Y-4179760D01*
X2080931Y-4180050D01*
X2080931Y-4180050D01*
X2219069Y-4180050D01*
X2219069Y-4180050D01*
X2222757Y-4179760D01*
X2222757Y-4179760D01*
X2222757Y-4179760D01*
X2228850Y-4177990D01*
X2238540Y-4175174D01*
X2252687Y-4166808D01*
X2255813Y-4163682D01*
X2261945Y-4160333D01*
X2264581Y-4160050D01*
X2403236Y-4160050D01*
X2403236Y-4160050D01*
X2419047Y-4160050D01*
X2419048Y-4160050D01*
X2451571Y-4160050D01*
X2458275Y-4162018D01*
X2460339Y-4163682D01*
X2582333Y-4285676D01*
X2585681Y-4291808D01*
X2585727Y-4292025D01*
X2588817Y-4307559D01*
X2588817Y-4307560D01*
X2594851Y-4322127D01*
X2594851Y-4322128D01*
X2603611Y-4335238D01*
X2603612Y-4335239D01*
X2614761Y-4346388D01*
X2614762Y-4346389D01*
X2627872Y-4355149D01*
X2627873Y-4355149D01*
X2642440Y-4361183D01*
X2642441Y-4361183D01*
X2657906Y-4364260D01*
X2657906Y-4364260D01*
X2657906Y-4364260D01*
X2673675Y-4364260D01*
X2673675Y-4364260D01*
X2689140Y-4361183D01*
X2703708Y-4355149D01*
X2715000Y-4347604D01*
X2721667Y-4345517D01*
X2728405Y-4347365D01*
X2730657Y-4349147D01*
X3024759Y-4643249D01*
X3028108Y-4649381D01*
X3028153Y-4649598D01*
X3031243Y-4665132D01*
X3031243Y-4665133D01*
X3037277Y-4679700D01*
X3037278Y-4679702D01*
X3046038Y-4692812D01*
X3046038Y-4692812D01*
X3057188Y-4703962D01*
X3057188Y-4703962D01*
X3070298Y-4712722D01*
X3070300Y-4712723D01*
X3083567Y-4718218D01*
X3084867Y-4718757D01*
X3100332Y-4721833D01*
X3100332Y-4721833D01*
X3100333Y-4721833D01*
X3116101Y-4721833D01*
X3116101Y-4721833D01*
X3131567Y-4718757D01*
X3146135Y-4712723D01*
X3157426Y-4705178D01*
X3164094Y-4703090D01*
X3170832Y-4704939D01*
X3173083Y-4706720D01*
X3224482Y-4758119D01*
X3227831Y-4764251D01*
X3227962Y-4768827D01*
X3226450Y-4778371D01*
X3226450Y-4799629D01*
X3229775Y-4820624D01*
X3236344Y-4840841D01*
X3245995Y-4859782D01*
X3258489Y-4876979D01*
X3273521Y-4892011D01*
X3290718Y-4904505D01*
X3290718Y-4904505D01*
X3290718Y-4904505D01*
X3291649Y-4904979D01*
X3296729Y-4909777D01*
X3298409Y-4916559D01*
X3296155Y-4923172D01*
X3291650Y-4927076D01*
X3290745Y-4927538D01*
X3290744Y-4927538D01*
X3285328Y-4931473D01*
X3285328Y-4931473D01*
X3348559Y-4994704D01*
X3342201Y-4996408D01*
X3330799Y-5002990D01*
X3321490Y-5012299D01*
X3314907Y-5023701D01*
X3313204Y-5030059D01*
X3249973Y-4966828D01*
X3249973Y-4966828D01*
X3246038Y-4972244D01*
X3236390Y-4991178D01*
X3229824Y-5011387D01*
X3229824Y-5011387D01*
X3226500Y-5032375D01*
X3226500Y-5053625D01*
X3229824Y-5074613D01*
X3229824Y-5074613D01*
X3236390Y-5094822D01*
X3246037Y-5113755D01*
X3249973Y-5119172D01*
X3313204Y-5055941D01*
X3314907Y-5062299D01*
X3321490Y-5073701D01*
X3330799Y-5083010D01*
X3342201Y-5089593D01*
X3348559Y-5091296D01*
X3285328Y-5154527D01*
X3285328Y-5154527D01*
X3290745Y-5158462D01*
X3309678Y-5168110D01*
X3329887Y-5174676D01*
X3350875Y-5178000D01*
X3372125Y-5178000D01*
X3393113Y-5174676D01*
X3393113Y-5174676D01*
X3413322Y-5168110D01*
X3432255Y-5158462D01*
X3437672Y-5154527D01*
X3437672Y-5154527D01*
X3374441Y-5091296D01*
X3380799Y-5089593D01*
X3392201Y-5083010D01*
X3401510Y-5073701D01*
X3408092Y-5062299D01*
X3409796Y-5055941D01*
X3473027Y-5119172D01*
X3473027Y-5119172D01*
X3476962Y-5113755D01*
X3486609Y-5094822D01*
X3493176Y-5074613D01*
X3493176Y-5074613D01*
X3496500Y-5053625D01*
X3496500Y-5032375D01*
X3493176Y-5011387D01*
X3493176Y-5011387D01*
X3486609Y-4991178D01*
X3476962Y-4972245D01*
X3473027Y-4966828D01*
X3473027Y-4966828D01*
X3409796Y-5030059D01*
X3408092Y-5023701D01*
X3401510Y-5012299D01*
X3392201Y-5002990D01*
X3380799Y-4996408D01*
X3374441Y-4994704D01*
X3437672Y-4931473D01*
X3432255Y-4927537D01*
X3432255Y-4927537D01*
X3431350Y-4927076D01*
X3426271Y-4922279D01*
X3424591Y-4915497D01*
X3426845Y-4908883D01*
X3431351Y-4904979D01*
X3432282Y-4904505D01*
X3440201Y-4898752D01*
X3449479Y-4892011D01*
X3449479Y-4892011D01*
X3449479Y-4892010D01*
X3464510Y-4876979D01*
X3464511Y-4876979D01*
X3464511Y-4876979D01*
X3477005Y-4859782D01*
X3477005Y-4859782D01*
X3477005Y-4859782D01*
X3486656Y-4840841D01*
X3493225Y-4820624D01*
X3496550Y-4799629D01*
X3496550Y-4778371D01*
X3493225Y-4757376D01*
X3486656Y-4737159D01*
X3477005Y-4718218D01*
X3477005Y-4718218D01*
X3477005Y-4718218D01*
X3464511Y-4701021D01*
X3449479Y-4685989D01*
X3432282Y-4673495D01*
X3432211Y-4673459D01*
X3431405Y-4673049D01*
X3426326Y-4668251D01*
X3424646Y-4661469D01*
X3426900Y-4654856D01*
X3431405Y-4650952D01*
X3432282Y-4650505D01*
X3434479Y-4648909D01*
X3449479Y-4638011D01*
X3449479Y-4638011D01*
X3449479Y-4638010D01*
X3464510Y-4622979D01*
X3464511Y-4622979D01*
X3464511Y-4622979D01*
X3477005Y-4605782D01*
X3477005Y-4605782D01*
X3477005Y-4605782D01*
X3486656Y-4586841D01*
X3493225Y-4566624D01*
X3496550Y-4545629D01*
X3496550Y-4524371D01*
X3493225Y-4503376D01*
X3486656Y-4483159D01*
X3477005Y-4464218D01*
X3477005Y-4464218D01*
X3477005Y-4464218D01*
X3464511Y-4447021D01*
X3449479Y-4431989D01*
X3432282Y-4419495D01*
X3432211Y-4419459D01*
X3431405Y-4419049D01*
X3426326Y-4414251D01*
X3424646Y-4407469D01*
X3426900Y-4400856D01*
X3431405Y-4396952D01*
X3432282Y-4396505D01*
X3434479Y-4394909D01*
X3449479Y-4384011D01*
X3449479Y-4384011D01*
X3449479Y-4384010D01*
X3464510Y-4368979D01*
X3464511Y-4368979D01*
X3464511Y-4368979D01*
X3477005Y-4351782D01*
X3477005Y-4351782D01*
X3477005Y-4351782D01*
X3486656Y-4332841D01*
X3493225Y-4312624D01*
X3496550Y-4291629D01*
X3496550Y-4270371D01*
X3493225Y-4249376D01*
X3486656Y-4229159D01*
X3477005Y-4210218D01*
X3477005Y-4210218D01*
X3477005Y-4210218D01*
X3464511Y-4193021D01*
X3449479Y-4177989D01*
X3432282Y-4165495D01*
X3432211Y-4165459D01*
X3431405Y-4165048D01*
X3426326Y-4160251D01*
X3424646Y-4153469D01*
X3426900Y-4146856D01*
X3431405Y-4142951D01*
X3432282Y-4142505D01*
X3441608Y-4135729D01*
X3449479Y-4130011D01*
X3449479Y-4130011D01*
X3449479Y-4130010D01*
X3464510Y-4114979D01*
X3464511Y-4114979D01*
X3464511Y-4114979D01*
X3477005Y-4097782D01*
X3477005Y-4097782D01*
X3477005Y-4097782D01*
X3486656Y-4078841D01*
X3493225Y-4058624D01*
X3496550Y-4037629D01*
X3496550Y-4016371D01*
X3493225Y-3995376D01*
X3486656Y-3975159D01*
X3477005Y-3956218D01*
X3477005Y-3956218D01*
X3477005Y-3956218D01*
X3464511Y-3939021D01*
X3449479Y-3923989D01*
X3432282Y-3911495D01*
X3432211Y-3911459D01*
X3431405Y-3911048D01*
X3426326Y-3906251D01*
X3424646Y-3899469D01*
X3426900Y-3892856D01*
X3431405Y-3888951D01*
X3432282Y-3888505D01*
X3448092Y-3877018D01*
X3449479Y-3876011D01*
X3449479Y-3876011D01*
X3449479Y-3876010D01*
X3464510Y-3860979D01*
X3464511Y-3860979D01*
X3464511Y-3860979D01*
X3477005Y-3843782D01*
X3477005Y-3843782D01*
X3477005Y-3843782D01*
X3486656Y-3824841D01*
X3493225Y-3804624D01*
X3496550Y-3783629D01*
X3496550Y-3762371D01*
X3493225Y-3741376D01*
X3486656Y-3721159D01*
X3477005Y-3702218D01*
X3477005Y-3702218D01*
X3477005Y-3702218D01*
X3464511Y-3685021D01*
X3449479Y-3669989D01*
X3432282Y-3657495D01*
X3432211Y-3657459D01*
X3431405Y-3657048D01*
X3426326Y-3652251D01*
X3424646Y-3645469D01*
X3426900Y-3638856D01*
X3431405Y-3634951D01*
X3432282Y-3634505D01*
X3434479Y-3632909D01*
X3449479Y-3622011D01*
X3449479Y-3622011D01*
X3449479Y-3622010D01*
X3464510Y-3606979D01*
X3464511Y-3606979D01*
X3464511Y-3606979D01*
X3477005Y-3589782D01*
X3477005Y-3589782D01*
X3477005Y-3589782D01*
X3486656Y-3570841D01*
X3493225Y-3550624D01*
X3496550Y-3529629D01*
X3496550Y-3508371D01*
X3493225Y-3487376D01*
X3486656Y-3467159D01*
X3477005Y-3448218D01*
X3477005Y-3448218D01*
X3477005Y-3448218D01*
X3464511Y-3431021D01*
X3449479Y-3415989D01*
X3432281Y-3403495D01*
X3432281Y-3403495D01*
X3431405Y-3403048D01*
X3426326Y-3398250D01*
X3424646Y-3391468D01*
X3426900Y-3384855D01*
X3431406Y-3380951D01*
X3432282Y-3380505D01*
X3449479Y-3368010D01*
X3464510Y-3352979D01*
X3464511Y-3352979D01*
X3464511Y-3352979D01*
X3477005Y-3335782D01*
X3477005Y-3335782D01*
X3477005Y-3335782D01*
X3486656Y-3316841D01*
X3493225Y-3296624D01*
X3496550Y-3275629D01*
X3496550Y-3254371D01*
X3493225Y-3233376D01*
X3486656Y-3213159D01*
X3477005Y-3194218D01*
X3477005Y-3194218D01*
X3477005Y-3194218D01*
X3464511Y-3177021D01*
X3449479Y-3161989D01*
X3432282Y-3149495D01*
X3432211Y-3149459D01*
X3431405Y-3149048D01*
X3426326Y-3144251D01*
X3424646Y-3137469D01*
X3426900Y-3130856D01*
X3431405Y-3126951D01*
X3432282Y-3126505D01*
X3434479Y-3124909D01*
X3449479Y-3114011D01*
X3449479Y-3114011D01*
X3449479Y-3114010D01*
X3464510Y-3098979D01*
X3464511Y-3098979D01*
X3464511Y-3098979D01*
X3477005Y-3081782D01*
X3477005Y-3081782D01*
X3477005Y-3081782D01*
X3486656Y-3062841D01*
X3493225Y-3042624D01*
X3496550Y-3021629D01*
X3496550Y-3000371D01*
X3493225Y-2979376D01*
X3486656Y-2959159D01*
X3477005Y-2940218D01*
X3477005Y-2940218D01*
X3477005Y-2940218D01*
X3464511Y-2923021D01*
X3453118Y-2911628D01*
X3449770Y-2905496D01*
X3450268Y-2898527D01*
X3454455Y-2892934D01*
X3457553Y-2891242D01*
X3470709Y-2886335D01*
X3470709Y-2886335D01*
X3482219Y-2877719D01*
X3482219Y-2877719D01*
X3490835Y-2866209D01*
X3490835Y-2866209D01*
X3495860Y-2852738D01*
X3495860Y-2852737D01*
X3496500Y-2846784D01*
X3496500Y-2846783D01*
X3496500Y-2782000D01*
X3404801Y-2782000D01*
X3408092Y-2776299D01*
X3411500Y-2763583D01*
X3411500Y-2750417D01*
X3408092Y-2737701D01*
X3404801Y-2732000D01*
X3496500Y-2732000D01*
X3496500Y-2667217D01*
X3496500Y-2667216D01*
X3495860Y-2661263D01*
X3495860Y-2661262D01*
X3490835Y-2647791D01*
X3490835Y-2647791D01*
X3482219Y-2636281D01*
X3482219Y-2636281D01*
X3470709Y-2627665D01*
X3470709Y-2627665D01*
X3457238Y-2622640D01*
X3457237Y-2622640D01*
X3451284Y-2622000D01*
X3386500Y-2622000D01*
X3386500Y-2713699D01*
X3380799Y-2710408D01*
X3368083Y-2707000D01*
X3354917Y-2707000D01*
X3342201Y-2710408D01*
X3336500Y-2713699D01*
X3336500Y-2622000D01*
X3271715Y-2622000D01*
X3265763Y-2622640D01*
X3265762Y-2622640D01*
X3252291Y-2627665D01*
X3252291Y-2627665D01*
X3240781Y-2636281D01*
X3240781Y-2636281D01*
X3232165Y-2647791D01*
X3232164Y-2647791D01*
X3227140Y-2661262D01*
X3227140Y-2661263D01*
X3226500Y-2667216D01*
X3226500Y-2732000D01*
X3318199Y-2732000D01*
X3314907Y-2737701D01*
X3311500Y-2750417D01*
X3311500Y-2763583D01*
X3314907Y-2776299D01*
X3318199Y-2782000D01*
X3226500Y-2782000D01*
X3226500Y-2846784D01*
X3227140Y-2852737D01*
X3227140Y-2852738D01*
X3232164Y-2866209D01*
X3232165Y-2866209D01*
X3240781Y-2877719D01*
X3240781Y-2877719D01*
X3252291Y-2886335D01*
X3252291Y-2886335D01*
X3265447Y-2891242D01*
X3271040Y-2895429D01*
X3273482Y-2901976D01*
X3271997Y-2908803D01*
X3269882Y-2911628D01*
X3258489Y-2923021D01*
X3252810Y-2930838D01*
X3247277Y-2935105D01*
X3242778Y-2935950D01*
X1892608Y-2935950D01*
X1878109Y-2938834D01*
X1878108Y-2938834D01*
X1864451Y-2944491D01*
X1864450Y-2944492D01*
X1852158Y-2952705D01*
X1852158Y-2952705D01*
X1841705Y-2963158D01*
X1841705Y-2963158D01*
X1833492Y-2975450D01*
X1833491Y-2975451D01*
X1827834Y-2989108D01*
X1827834Y-2989109D01*
X1824950Y-3003608D01*
X1824950Y-3447550D01*
X1822981Y-3454254D01*
X1817701Y-3458829D01*
X1812550Y-3459950D01*
X1692500Y-3459950D01*
X1692498Y-3459950D01*
X1682220Y-3461000D01*
X1682220Y-3461000D01*
X1665567Y-3466518D01*
X1665566Y-3466519D01*
X1650634Y-3475729D01*
X1638229Y-3488134D01*
X1629019Y-3503066D01*
X1629019Y-3503067D01*
X1623500Y-3519720D01*
X1623500Y-3519720D01*
X1623500Y-3519720D01*
X1622450Y-3529998D01*
X1550050Y-3529998D01*
X1550050Y-2312450D01*
X1552018Y-2305746D01*
X1557299Y-2301171D01*
X1562450Y-2300050D01*
X3637550Y-2300050D01*
X3644254Y-2302019D01*
G37*
G04 #@! TD.AperFunction*
M02*
