%TF.GenerationSoftware,KiCad,Pcbnew,9.0.3*%
%TF.CreationDate,2025-08-26T17:04:27-07:00*%
%TF.ProjectId,newbatt,6e657762-6174-4742-9e6b-696361645f70,3*%
%TF.SameCoordinates,Original*%
%TF.FileFunction,Drillmap*%
%TF.FilePolarity,Positive*%
%FSLAX45Y45*%
G04 Gerber Fmt 4.5, Leading zero omitted, Abs format (unit mm)*
G04 Created by KiCad (PCBNEW 9.0.3) date 2025-08-26 17:04:27*
%MOMM*%
%LPD*%
G01*
G04 APERTURE LIST*
%ADD10C,0.050000*%
%ADD11C,0.200000*%
%ADD12C,0.100000*%
%ADD13C,0.320000*%
G04 APERTURE END LIST*
D10*
X15400000Y-5900000D02*
G75*
G02*
X15300000Y-6000000I-100000J0D01*
G01*
X1500000Y-1600000D02*
G75*
G02*
X1600000Y-1500000I100000J0D01*
G01*
X1500000Y-1600000D02*
X1500000Y-5900000D01*
X15400000Y-5900000D02*
X15400000Y-1600000D01*
X1600000Y-1500000D02*
X15300000Y-1500000D01*
X1600000Y-6000000D02*
G75*
G02*
X1500000Y-5900000I0J100000D01*
G01*
X1600000Y-6000000D02*
X15300000Y-6000000D01*
X15300000Y-1500000D02*
G75*
G02*
X15400000Y-1600000I0J-100000D01*
G01*
D11*
D12*
X12562300Y-3529820D02*
X12587700Y-3555220D01*
X12587700Y-3529820D02*
X12562300Y-3555220D01*
X12562300Y-3608560D02*
X12587700Y-3633960D01*
X12587700Y-3608560D02*
X12562300Y-3633960D01*
X12562300Y-3687300D02*
X12587700Y-3712700D01*
X12587700Y-3687300D02*
X12562300Y-3712700D01*
X11550000Y-2632500D02*
G75*
G02*
X11520000Y-2632500I-15000J0D01*
G01*
X11520000Y-2632500D02*
G75*
G02*
X11550000Y-2632500I15000J0D01*
G01*
X11680000Y-2632500D02*
G75*
G02*
X11650000Y-2632500I-15000J0D01*
G01*
X11650000Y-2632500D02*
G75*
G02*
X11680000Y-2632500I15000J0D01*
G01*
X11730000Y-2375000D02*
G75*
G02*
X11700000Y-2375000I-15000J0D01*
G01*
X11700000Y-2375000D02*
G75*
G02*
X11730000Y-2375000I15000J0D01*
G01*
X11805000Y-4060000D02*
G75*
G02*
X11775000Y-4060000I-15000J0D01*
G01*
X11775000Y-4060000D02*
G75*
G02*
X11805000Y-4060000I15000J0D01*
G01*
X11835000Y-3790000D02*
G75*
G02*
X11805000Y-3790000I-15000J0D01*
G01*
X11805000Y-3790000D02*
G75*
G02*
X11835000Y-3790000I15000J0D01*
G01*
X12215000Y-4695000D02*
G75*
G02*
X12185000Y-4695000I-15000J0D01*
G01*
X12185000Y-4695000D02*
G75*
G02*
X12215000Y-4695000I15000J0D01*
G01*
X12290000Y-2850000D02*
G75*
G02*
X12260000Y-2850000I-15000J0D01*
G01*
X12260000Y-2850000D02*
G75*
G02*
X12290000Y-2850000I15000J0D01*
G01*
X12330000Y-2490000D02*
G75*
G02*
X12300000Y-2490000I-15000J0D01*
G01*
X12300000Y-2490000D02*
G75*
G02*
X12330000Y-2490000I15000J0D01*
G01*
X12425000Y-4060000D02*
G75*
G02*
X12395000Y-4060000I-15000J0D01*
G01*
X12395000Y-4060000D02*
G75*
G02*
X12425000Y-4060000I15000J0D01*
G01*
X12815000Y-3375000D02*
G75*
G02*
X12785000Y-3375000I-15000J0D01*
G01*
X12785000Y-3375000D02*
G75*
G02*
X12815000Y-3375000I15000J0D01*
G01*
X12825000Y-4920000D02*
G75*
G02*
X12795000Y-4920000I-15000J0D01*
G01*
X12795000Y-4920000D02*
G75*
G02*
X12825000Y-4920000I15000J0D01*
G01*
X12940000Y-3550000D02*
G75*
G02*
X12910000Y-3550000I-15000J0D01*
G01*
X12910000Y-3550000D02*
G75*
G02*
X12940000Y-3550000I15000J0D01*
G01*
X13245000Y-2040000D02*
G75*
G02*
X13215000Y-2040000I-15000J0D01*
G01*
X13215000Y-2040000D02*
G75*
G02*
X13245000Y-2040000I15000J0D01*
G01*
X13315000Y-4300000D02*
G75*
G02*
X13285000Y-4300000I-15000J0D01*
G01*
X13285000Y-4300000D02*
G75*
G02*
X13315000Y-4300000I15000J0D01*
G01*
X13365000Y-4450000D02*
G75*
G02*
X13335000Y-4450000I-15000J0D01*
G01*
X13335000Y-4450000D02*
G75*
G02*
X13365000Y-4450000I15000J0D01*
G01*
X13445000Y-3450000D02*
G75*
G02*
X13415000Y-3450000I-15000J0D01*
G01*
X13415000Y-3450000D02*
G75*
G02*
X13445000Y-3450000I15000J0D01*
G01*
X13690000Y-3375000D02*
G75*
G02*
X13660000Y-3375000I-15000J0D01*
G01*
X13660000Y-3375000D02*
G75*
G02*
X13690000Y-3375000I15000J0D01*
G01*
X13865000Y-3750000D02*
G75*
G02*
X13835000Y-3750000I-15000J0D01*
G01*
X13835000Y-3750000D02*
G75*
G02*
X13865000Y-3750000I15000J0D01*
G01*
X13965000Y-4200000D02*
G75*
G02*
X13935000Y-4200000I-15000J0D01*
G01*
X13935000Y-4200000D02*
G75*
G02*
X13965000Y-4200000I15000J0D01*
G01*
X14135000Y-3550000D02*
G75*
G02*
X14105000Y-3550000I-15000J0D01*
G01*
X14105000Y-3550000D02*
G75*
G02*
X14135000Y-3550000I15000J0D01*
G01*
X10510000Y-3603500D02*
X10510000Y-3703500D01*
X10460000Y-3653500D02*
X10560000Y-3653500D01*
X10510000Y-3857500D02*
X10510000Y-3957500D01*
X10460000Y-3907500D02*
X10560000Y-3907500D01*
D13*
X2063138Y-2088138D02*
X2063138Y-1861862D01*
X1836862Y-1861862D01*
X1836862Y-2088138D01*
X2063138Y-2088138D01*
X2063138Y-5638138D02*
X2063138Y-5411862D01*
X1836862Y-5411862D01*
X1836862Y-5638138D01*
X2063138Y-5638138D01*
X15063138Y-2088138D02*
X15063138Y-1861862D01*
X14836862Y-1861862D01*
X14836862Y-2088138D01*
X15063138Y-2088138D01*
X15063138Y-5638138D02*
X15063138Y-5411862D01*
X14836862Y-5411862D01*
X14836862Y-5638138D01*
X15063138Y-5638138D01*
D11*
X1758277Y-6313984D02*
X1758277Y-6113984D01*
X1758277Y-6113984D02*
X1805896Y-6113984D01*
X1805896Y-6113984D02*
X1834467Y-6123508D01*
X1834467Y-6123508D02*
X1853515Y-6142555D01*
X1853515Y-6142555D02*
X1863039Y-6161603D01*
X1863039Y-6161603D02*
X1872562Y-6199698D01*
X1872562Y-6199698D02*
X1872562Y-6228269D01*
X1872562Y-6228269D02*
X1863039Y-6266365D01*
X1863039Y-6266365D02*
X1853515Y-6285412D01*
X1853515Y-6285412D02*
X1834467Y-6304460D01*
X1834467Y-6304460D02*
X1805896Y-6313984D01*
X1805896Y-6313984D02*
X1758277Y-6313984D01*
X1958277Y-6313984D02*
X1958277Y-6180650D01*
X1958277Y-6218746D02*
X1967801Y-6199698D01*
X1967801Y-6199698D02*
X1977324Y-6190174D01*
X1977324Y-6190174D02*
X1996372Y-6180650D01*
X1996372Y-6180650D02*
X2015420Y-6180650D01*
X2082086Y-6313984D02*
X2082086Y-6180650D01*
X2082086Y-6113984D02*
X2072562Y-6123508D01*
X2072562Y-6123508D02*
X2082086Y-6133031D01*
X2082086Y-6133031D02*
X2091610Y-6123508D01*
X2091610Y-6123508D02*
X2082086Y-6113984D01*
X2082086Y-6113984D02*
X2082086Y-6133031D01*
X2205896Y-6313984D02*
X2186848Y-6304460D01*
X2186848Y-6304460D02*
X2177324Y-6285412D01*
X2177324Y-6285412D02*
X2177324Y-6113984D01*
X2310658Y-6313984D02*
X2291610Y-6304460D01*
X2291610Y-6304460D02*
X2282086Y-6285412D01*
X2282086Y-6285412D02*
X2282086Y-6113984D01*
X2539229Y-6313984D02*
X2539229Y-6113984D01*
X2539229Y-6113984D02*
X2605896Y-6256841D01*
X2605896Y-6256841D02*
X2672563Y-6113984D01*
X2672563Y-6113984D02*
X2672563Y-6313984D01*
X2853515Y-6313984D02*
X2853515Y-6209222D01*
X2853515Y-6209222D02*
X2843991Y-6190174D01*
X2843991Y-6190174D02*
X2824943Y-6180650D01*
X2824943Y-6180650D02*
X2786848Y-6180650D01*
X2786848Y-6180650D02*
X2767801Y-6190174D01*
X2853515Y-6304460D02*
X2834467Y-6313984D01*
X2834467Y-6313984D02*
X2786848Y-6313984D01*
X2786848Y-6313984D02*
X2767801Y-6304460D01*
X2767801Y-6304460D02*
X2758277Y-6285412D01*
X2758277Y-6285412D02*
X2758277Y-6266365D01*
X2758277Y-6266365D02*
X2767801Y-6247317D01*
X2767801Y-6247317D02*
X2786848Y-6237793D01*
X2786848Y-6237793D02*
X2834467Y-6237793D01*
X2834467Y-6237793D02*
X2853515Y-6228269D01*
X2948753Y-6180650D02*
X2948753Y-6380650D01*
X2948753Y-6190174D02*
X2967801Y-6180650D01*
X2967801Y-6180650D02*
X3005896Y-6180650D01*
X3005896Y-6180650D02*
X3024943Y-6190174D01*
X3024943Y-6190174D02*
X3034467Y-6199698D01*
X3034467Y-6199698D02*
X3043991Y-6218746D01*
X3043991Y-6218746D02*
X3043991Y-6275888D01*
X3043991Y-6275888D02*
X3034467Y-6294936D01*
X3034467Y-6294936D02*
X3024943Y-6304460D01*
X3024943Y-6304460D02*
X3005896Y-6313984D01*
X3005896Y-6313984D02*
X2967801Y-6313984D01*
X2967801Y-6313984D02*
X2948753Y-6304460D01*
X3129705Y-6294936D02*
X3139229Y-6304460D01*
X3139229Y-6304460D02*
X3129705Y-6313984D01*
X3129705Y-6313984D02*
X3120182Y-6304460D01*
X3120182Y-6304460D02*
X3129705Y-6294936D01*
X3129705Y-6294936D02*
X3129705Y-6313984D01*
X3129705Y-6190174D02*
X3139229Y-6199698D01*
X3139229Y-6199698D02*
X3129705Y-6209222D01*
X3129705Y-6209222D02*
X3120182Y-6199698D01*
X3120182Y-6199698D02*
X3129705Y-6190174D01*
X3129705Y-6190174D02*
X3129705Y-6209222D01*
D12*
X1472100Y-6629800D02*
X1497500Y-6655200D01*
X1497500Y-6629800D02*
X1472100Y-6655200D01*
D11*
X1796372Y-6533984D02*
X1815420Y-6533984D01*
X1815420Y-6533984D02*
X1834467Y-6543508D01*
X1834467Y-6543508D02*
X1843991Y-6553031D01*
X1843991Y-6553031D02*
X1853515Y-6572079D01*
X1853515Y-6572079D02*
X1863039Y-6610174D01*
X1863039Y-6610174D02*
X1863039Y-6657793D01*
X1863039Y-6657793D02*
X1853515Y-6695888D01*
X1853515Y-6695888D02*
X1843991Y-6714936D01*
X1843991Y-6714936D02*
X1834467Y-6724460D01*
X1834467Y-6724460D02*
X1815420Y-6733984D01*
X1815420Y-6733984D02*
X1796372Y-6733984D01*
X1796372Y-6733984D02*
X1777324Y-6724460D01*
X1777324Y-6724460D02*
X1767801Y-6714936D01*
X1767801Y-6714936D02*
X1758277Y-6695888D01*
X1758277Y-6695888D02*
X1748753Y-6657793D01*
X1748753Y-6657793D02*
X1748753Y-6610174D01*
X1748753Y-6610174D02*
X1758277Y-6572079D01*
X1758277Y-6572079D02*
X1767801Y-6553031D01*
X1767801Y-6553031D02*
X1777324Y-6543508D01*
X1777324Y-6543508D02*
X1796372Y-6533984D01*
X1948753Y-6714936D02*
X1958277Y-6724460D01*
X1958277Y-6724460D02*
X1948753Y-6733984D01*
X1948753Y-6733984D02*
X1939229Y-6724460D01*
X1939229Y-6724460D02*
X1948753Y-6714936D01*
X1948753Y-6714936D02*
X1948753Y-6733984D01*
X2034467Y-6553031D02*
X2043991Y-6543508D01*
X2043991Y-6543508D02*
X2063039Y-6533984D01*
X2063039Y-6533984D02*
X2110658Y-6533984D01*
X2110658Y-6533984D02*
X2129705Y-6543508D01*
X2129705Y-6543508D02*
X2139229Y-6553031D01*
X2139229Y-6553031D02*
X2148753Y-6572079D01*
X2148753Y-6572079D02*
X2148753Y-6591127D01*
X2148753Y-6591127D02*
X2139229Y-6619698D01*
X2139229Y-6619698D02*
X2024943Y-6733984D01*
X2024943Y-6733984D02*
X2148753Y-6733984D01*
X2329705Y-6533984D02*
X2234467Y-6533984D01*
X2234467Y-6533984D02*
X2224944Y-6629222D01*
X2224944Y-6629222D02*
X2234467Y-6619698D01*
X2234467Y-6619698D02*
X2253515Y-6610174D01*
X2253515Y-6610174D02*
X2301134Y-6610174D01*
X2301134Y-6610174D02*
X2320182Y-6619698D01*
X2320182Y-6619698D02*
X2329705Y-6629222D01*
X2329705Y-6629222D02*
X2339229Y-6648269D01*
X2339229Y-6648269D02*
X2339229Y-6695888D01*
X2339229Y-6695888D02*
X2329705Y-6714936D01*
X2329705Y-6714936D02*
X2320182Y-6724460D01*
X2320182Y-6724460D02*
X2301134Y-6733984D01*
X2301134Y-6733984D02*
X2253515Y-6733984D01*
X2253515Y-6733984D02*
X2234467Y-6724460D01*
X2234467Y-6724460D02*
X2224944Y-6714936D01*
X2510658Y-6600650D02*
X2510658Y-6733984D01*
X2463039Y-6524460D02*
X2415420Y-6667317D01*
X2415420Y-6667317D02*
X2539229Y-6667317D01*
X2615420Y-6733984D02*
X2615420Y-6600650D01*
X2615420Y-6619698D02*
X2624944Y-6610174D01*
X2624944Y-6610174D02*
X2643991Y-6600650D01*
X2643991Y-6600650D02*
X2672563Y-6600650D01*
X2672563Y-6600650D02*
X2691610Y-6610174D01*
X2691610Y-6610174D02*
X2701134Y-6629222D01*
X2701134Y-6629222D02*
X2701134Y-6733984D01*
X2701134Y-6629222D02*
X2710658Y-6610174D01*
X2710658Y-6610174D02*
X2729705Y-6600650D01*
X2729705Y-6600650D02*
X2758277Y-6600650D01*
X2758277Y-6600650D02*
X2777325Y-6610174D01*
X2777325Y-6610174D02*
X2786848Y-6629222D01*
X2786848Y-6629222D02*
X2786848Y-6733984D01*
X2882086Y-6733984D02*
X2882086Y-6600650D01*
X2882086Y-6619698D02*
X2891610Y-6610174D01*
X2891610Y-6610174D02*
X2910658Y-6600650D01*
X2910658Y-6600650D02*
X2939229Y-6600650D01*
X2939229Y-6600650D02*
X2958277Y-6610174D01*
X2958277Y-6610174D02*
X2967801Y-6629222D01*
X2967801Y-6629222D02*
X2967801Y-6733984D01*
X2967801Y-6629222D02*
X2977324Y-6610174D01*
X2977324Y-6610174D02*
X2996372Y-6600650D01*
X2996372Y-6600650D02*
X3024943Y-6600650D01*
X3024943Y-6600650D02*
X3043991Y-6610174D01*
X3043991Y-6610174D02*
X3053515Y-6629222D01*
X3053515Y-6629222D02*
X3053515Y-6733984D01*
X3443991Y-6524460D02*
X3272563Y-6781603D01*
X3701134Y-6533984D02*
X3720182Y-6533984D01*
X3720182Y-6533984D02*
X3739229Y-6543508D01*
X3739229Y-6543508D02*
X3748753Y-6553031D01*
X3748753Y-6553031D02*
X3758277Y-6572079D01*
X3758277Y-6572079D02*
X3767801Y-6610174D01*
X3767801Y-6610174D02*
X3767801Y-6657793D01*
X3767801Y-6657793D02*
X3758277Y-6695888D01*
X3758277Y-6695888D02*
X3748753Y-6714936D01*
X3748753Y-6714936D02*
X3739229Y-6724460D01*
X3739229Y-6724460D02*
X3720182Y-6733984D01*
X3720182Y-6733984D02*
X3701134Y-6733984D01*
X3701134Y-6733984D02*
X3682086Y-6724460D01*
X3682086Y-6724460D02*
X3672563Y-6714936D01*
X3672563Y-6714936D02*
X3663039Y-6695888D01*
X3663039Y-6695888D02*
X3653515Y-6657793D01*
X3653515Y-6657793D02*
X3653515Y-6610174D01*
X3653515Y-6610174D02*
X3663039Y-6572079D01*
X3663039Y-6572079D02*
X3672563Y-6553031D01*
X3672563Y-6553031D02*
X3682086Y-6543508D01*
X3682086Y-6543508D02*
X3701134Y-6533984D01*
X3853515Y-6714936D02*
X3863039Y-6724460D01*
X3863039Y-6724460D02*
X3853515Y-6733984D01*
X3853515Y-6733984D02*
X3843991Y-6724460D01*
X3843991Y-6724460D02*
X3853515Y-6714936D01*
X3853515Y-6714936D02*
X3853515Y-6733984D01*
X3986848Y-6533984D02*
X4005896Y-6533984D01*
X4005896Y-6533984D02*
X4024944Y-6543508D01*
X4024944Y-6543508D02*
X4034467Y-6553031D01*
X4034467Y-6553031D02*
X4043991Y-6572079D01*
X4043991Y-6572079D02*
X4053515Y-6610174D01*
X4053515Y-6610174D02*
X4053515Y-6657793D01*
X4053515Y-6657793D02*
X4043991Y-6695888D01*
X4043991Y-6695888D02*
X4034467Y-6714936D01*
X4034467Y-6714936D02*
X4024944Y-6724460D01*
X4024944Y-6724460D02*
X4005896Y-6733984D01*
X4005896Y-6733984D02*
X3986848Y-6733984D01*
X3986848Y-6733984D02*
X3967801Y-6724460D01*
X3967801Y-6724460D02*
X3958277Y-6714936D01*
X3958277Y-6714936D02*
X3948753Y-6695888D01*
X3948753Y-6695888D02*
X3939229Y-6657793D01*
X3939229Y-6657793D02*
X3939229Y-6610174D01*
X3939229Y-6610174D02*
X3948753Y-6572079D01*
X3948753Y-6572079D02*
X3958277Y-6553031D01*
X3958277Y-6553031D02*
X3967801Y-6543508D01*
X3967801Y-6543508D02*
X3986848Y-6533984D01*
X4243991Y-6733984D02*
X4129706Y-6733984D01*
X4186848Y-6733984D02*
X4186848Y-6533984D01*
X4186848Y-6533984D02*
X4167801Y-6562555D01*
X4167801Y-6562555D02*
X4148753Y-6581603D01*
X4148753Y-6581603D02*
X4129706Y-6591127D01*
X4367801Y-6533984D02*
X4386849Y-6533984D01*
X4386849Y-6533984D02*
X4405896Y-6543508D01*
X4405896Y-6543508D02*
X4415420Y-6553031D01*
X4415420Y-6553031D02*
X4424944Y-6572079D01*
X4424944Y-6572079D02*
X4434468Y-6610174D01*
X4434468Y-6610174D02*
X4434468Y-6657793D01*
X4434468Y-6657793D02*
X4424944Y-6695888D01*
X4424944Y-6695888D02*
X4415420Y-6714936D01*
X4415420Y-6714936D02*
X4405896Y-6724460D01*
X4405896Y-6724460D02*
X4386849Y-6733984D01*
X4386849Y-6733984D02*
X4367801Y-6733984D01*
X4367801Y-6733984D02*
X4348753Y-6724460D01*
X4348753Y-6724460D02*
X4339229Y-6714936D01*
X4339229Y-6714936D02*
X4329706Y-6695888D01*
X4329706Y-6695888D02*
X4320182Y-6657793D01*
X4320182Y-6657793D02*
X4320182Y-6610174D01*
X4320182Y-6610174D02*
X4329706Y-6572079D01*
X4329706Y-6572079D02*
X4339229Y-6553031D01*
X4339229Y-6553031D02*
X4348753Y-6543508D01*
X4348753Y-6543508D02*
X4367801Y-6533984D01*
X4558277Y-6533984D02*
X4577325Y-6533984D01*
X4577325Y-6533984D02*
X4596372Y-6543508D01*
X4596372Y-6543508D02*
X4605896Y-6553031D01*
X4605896Y-6553031D02*
X4615420Y-6572079D01*
X4615420Y-6572079D02*
X4624944Y-6610174D01*
X4624944Y-6610174D02*
X4624944Y-6657793D01*
X4624944Y-6657793D02*
X4615420Y-6695888D01*
X4615420Y-6695888D02*
X4605896Y-6714936D01*
X4605896Y-6714936D02*
X4596372Y-6724460D01*
X4596372Y-6724460D02*
X4577325Y-6733984D01*
X4577325Y-6733984D02*
X4558277Y-6733984D01*
X4558277Y-6733984D02*
X4539229Y-6724460D01*
X4539229Y-6724460D02*
X4529706Y-6714936D01*
X4529706Y-6714936D02*
X4520182Y-6695888D01*
X4520182Y-6695888D02*
X4510658Y-6657793D01*
X4510658Y-6657793D02*
X4510658Y-6610174D01*
X4510658Y-6610174D02*
X4520182Y-6572079D01*
X4520182Y-6572079D02*
X4529706Y-6553031D01*
X4529706Y-6553031D02*
X4539229Y-6543508D01*
X4539229Y-6543508D02*
X4558277Y-6533984D01*
X4701134Y-6533984D02*
X4701134Y-6572079D01*
X4777325Y-6533984D02*
X4777325Y-6572079D01*
X5072563Y-6810174D02*
X5063039Y-6800650D01*
X5063039Y-6800650D02*
X5043991Y-6772079D01*
X5043991Y-6772079D02*
X5034468Y-6753031D01*
X5034468Y-6753031D02*
X5024944Y-6724460D01*
X5024944Y-6724460D02*
X5015420Y-6676841D01*
X5015420Y-6676841D02*
X5015420Y-6638746D01*
X5015420Y-6638746D02*
X5024944Y-6591127D01*
X5024944Y-6591127D02*
X5034468Y-6562555D01*
X5034468Y-6562555D02*
X5043991Y-6543508D01*
X5043991Y-6543508D02*
X5063039Y-6514936D01*
X5063039Y-6514936D02*
X5072563Y-6505412D01*
X5129706Y-6533984D02*
X5253515Y-6533984D01*
X5253515Y-6533984D02*
X5186849Y-6610174D01*
X5186849Y-6610174D02*
X5215420Y-6610174D01*
X5215420Y-6610174D02*
X5234468Y-6619698D01*
X5234468Y-6619698D02*
X5243991Y-6629222D01*
X5243991Y-6629222D02*
X5253515Y-6648269D01*
X5253515Y-6648269D02*
X5253515Y-6695888D01*
X5253515Y-6695888D02*
X5243991Y-6714936D01*
X5243991Y-6714936D02*
X5234468Y-6724460D01*
X5234468Y-6724460D02*
X5215420Y-6733984D01*
X5215420Y-6733984D02*
X5158277Y-6733984D01*
X5158277Y-6733984D02*
X5139230Y-6724460D01*
X5139230Y-6724460D02*
X5129706Y-6714936D01*
X5491611Y-6733984D02*
X5491611Y-6533984D01*
X5577325Y-6733984D02*
X5577325Y-6629222D01*
X5577325Y-6629222D02*
X5567801Y-6610174D01*
X5567801Y-6610174D02*
X5548753Y-6600650D01*
X5548753Y-6600650D02*
X5520182Y-6600650D01*
X5520182Y-6600650D02*
X5501134Y-6610174D01*
X5501134Y-6610174D02*
X5491611Y-6619698D01*
X5701134Y-6733984D02*
X5682087Y-6724460D01*
X5682087Y-6724460D02*
X5672563Y-6714936D01*
X5672563Y-6714936D02*
X5663039Y-6695888D01*
X5663039Y-6695888D02*
X5663039Y-6638746D01*
X5663039Y-6638746D02*
X5672563Y-6619698D01*
X5672563Y-6619698D02*
X5682087Y-6610174D01*
X5682087Y-6610174D02*
X5701134Y-6600650D01*
X5701134Y-6600650D02*
X5729706Y-6600650D01*
X5729706Y-6600650D02*
X5748753Y-6610174D01*
X5748753Y-6610174D02*
X5758277Y-6619698D01*
X5758277Y-6619698D02*
X5767801Y-6638746D01*
X5767801Y-6638746D02*
X5767801Y-6695888D01*
X5767801Y-6695888D02*
X5758277Y-6714936D01*
X5758277Y-6714936D02*
X5748753Y-6724460D01*
X5748753Y-6724460D02*
X5729706Y-6733984D01*
X5729706Y-6733984D02*
X5701134Y-6733984D01*
X5882087Y-6733984D02*
X5863039Y-6724460D01*
X5863039Y-6724460D02*
X5853515Y-6705412D01*
X5853515Y-6705412D02*
X5853515Y-6533984D01*
X6034468Y-6724460D02*
X6015420Y-6733984D01*
X6015420Y-6733984D02*
X5977325Y-6733984D01*
X5977325Y-6733984D02*
X5958277Y-6724460D01*
X5958277Y-6724460D02*
X5948753Y-6705412D01*
X5948753Y-6705412D02*
X5948753Y-6629222D01*
X5948753Y-6629222D02*
X5958277Y-6610174D01*
X5958277Y-6610174D02*
X5977325Y-6600650D01*
X5977325Y-6600650D02*
X6015420Y-6600650D01*
X6015420Y-6600650D02*
X6034468Y-6610174D01*
X6034468Y-6610174D02*
X6043991Y-6629222D01*
X6043991Y-6629222D02*
X6043991Y-6648269D01*
X6043991Y-6648269D02*
X5948753Y-6667317D01*
X6120182Y-6724460D02*
X6139230Y-6733984D01*
X6139230Y-6733984D02*
X6177325Y-6733984D01*
X6177325Y-6733984D02*
X6196372Y-6724460D01*
X6196372Y-6724460D02*
X6205896Y-6705412D01*
X6205896Y-6705412D02*
X6205896Y-6695888D01*
X6205896Y-6695888D02*
X6196372Y-6676841D01*
X6196372Y-6676841D02*
X6177325Y-6667317D01*
X6177325Y-6667317D02*
X6148753Y-6667317D01*
X6148753Y-6667317D02*
X6129706Y-6657793D01*
X6129706Y-6657793D02*
X6120182Y-6638746D01*
X6120182Y-6638746D02*
X6120182Y-6629222D01*
X6120182Y-6629222D02*
X6129706Y-6610174D01*
X6129706Y-6610174D02*
X6148753Y-6600650D01*
X6148753Y-6600650D02*
X6177325Y-6600650D01*
X6177325Y-6600650D02*
X6196372Y-6610174D01*
X6272563Y-6810174D02*
X6282087Y-6800650D01*
X6282087Y-6800650D02*
X6301134Y-6772079D01*
X6301134Y-6772079D02*
X6310658Y-6753031D01*
X6310658Y-6753031D02*
X6320182Y-6724460D01*
X6320182Y-6724460D02*
X6329706Y-6676841D01*
X6329706Y-6676841D02*
X6329706Y-6638746D01*
X6329706Y-6638746D02*
X6320182Y-6591127D01*
X6320182Y-6591127D02*
X6310658Y-6562555D01*
X6310658Y-6562555D02*
X6301134Y-6543508D01*
X6301134Y-6543508D02*
X6282087Y-6514936D01*
X6282087Y-6514936D02*
X6272563Y-6505412D01*
D12*
X1497500Y-6906500D02*
G75*
G02*
X1467500Y-6906500I-15000J0D01*
G01*
X1467500Y-6906500D02*
G75*
G02*
X1497500Y-6906500I15000J0D01*
G01*
D11*
X1796372Y-6797984D02*
X1815420Y-6797984D01*
X1815420Y-6797984D02*
X1834467Y-6807508D01*
X1834467Y-6807508D02*
X1843991Y-6817031D01*
X1843991Y-6817031D02*
X1853515Y-6836079D01*
X1853515Y-6836079D02*
X1863039Y-6874174D01*
X1863039Y-6874174D02*
X1863039Y-6921793D01*
X1863039Y-6921793D02*
X1853515Y-6959888D01*
X1853515Y-6959888D02*
X1843991Y-6978936D01*
X1843991Y-6978936D02*
X1834467Y-6988460D01*
X1834467Y-6988460D02*
X1815420Y-6997984D01*
X1815420Y-6997984D02*
X1796372Y-6997984D01*
X1796372Y-6997984D02*
X1777324Y-6988460D01*
X1777324Y-6988460D02*
X1767801Y-6978936D01*
X1767801Y-6978936D02*
X1758277Y-6959888D01*
X1758277Y-6959888D02*
X1748753Y-6921793D01*
X1748753Y-6921793D02*
X1748753Y-6874174D01*
X1748753Y-6874174D02*
X1758277Y-6836079D01*
X1758277Y-6836079D02*
X1767801Y-6817031D01*
X1767801Y-6817031D02*
X1777324Y-6807508D01*
X1777324Y-6807508D02*
X1796372Y-6797984D01*
X1948753Y-6978936D02*
X1958277Y-6988460D01*
X1958277Y-6988460D02*
X1948753Y-6997984D01*
X1948753Y-6997984D02*
X1939229Y-6988460D01*
X1939229Y-6988460D02*
X1948753Y-6978936D01*
X1948753Y-6978936D02*
X1948753Y-6997984D01*
X2024943Y-6797984D02*
X2148753Y-6797984D01*
X2148753Y-6797984D02*
X2082086Y-6874174D01*
X2082086Y-6874174D02*
X2110658Y-6874174D01*
X2110658Y-6874174D02*
X2129705Y-6883698D01*
X2129705Y-6883698D02*
X2139229Y-6893222D01*
X2139229Y-6893222D02*
X2148753Y-6912269D01*
X2148753Y-6912269D02*
X2148753Y-6959888D01*
X2148753Y-6959888D02*
X2139229Y-6978936D01*
X2139229Y-6978936D02*
X2129705Y-6988460D01*
X2129705Y-6988460D02*
X2110658Y-6997984D01*
X2110658Y-6997984D02*
X2053515Y-6997984D01*
X2053515Y-6997984D02*
X2034467Y-6988460D01*
X2034467Y-6988460D02*
X2024943Y-6978936D01*
X2272563Y-6797984D02*
X2291610Y-6797984D01*
X2291610Y-6797984D02*
X2310658Y-6807508D01*
X2310658Y-6807508D02*
X2320182Y-6817031D01*
X2320182Y-6817031D02*
X2329705Y-6836079D01*
X2329705Y-6836079D02*
X2339229Y-6874174D01*
X2339229Y-6874174D02*
X2339229Y-6921793D01*
X2339229Y-6921793D02*
X2329705Y-6959888D01*
X2329705Y-6959888D02*
X2320182Y-6978936D01*
X2320182Y-6978936D02*
X2310658Y-6988460D01*
X2310658Y-6988460D02*
X2291610Y-6997984D01*
X2291610Y-6997984D02*
X2272563Y-6997984D01*
X2272563Y-6997984D02*
X2253515Y-6988460D01*
X2253515Y-6988460D02*
X2243991Y-6978936D01*
X2243991Y-6978936D02*
X2234467Y-6959888D01*
X2234467Y-6959888D02*
X2224944Y-6921793D01*
X2224944Y-6921793D02*
X2224944Y-6874174D01*
X2224944Y-6874174D02*
X2234467Y-6836079D01*
X2234467Y-6836079D02*
X2243991Y-6817031D01*
X2243991Y-6817031D02*
X2253515Y-6807508D01*
X2253515Y-6807508D02*
X2272563Y-6797984D01*
X2463039Y-6797984D02*
X2482086Y-6797984D01*
X2482086Y-6797984D02*
X2501134Y-6807508D01*
X2501134Y-6807508D02*
X2510658Y-6817031D01*
X2510658Y-6817031D02*
X2520182Y-6836079D01*
X2520182Y-6836079D02*
X2529705Y-6874174D01*
X2529705Y-6874174D02*
X2529705Y-6921793D01*
X2529705Y-6921793D02*
X2520182Y-6959888D01*
X2520182Y-6959888D02*
X2510658Y-6978936D01*
X2510658Y-6978936D02*
X2501134Y-6988460D01*
X2501134Y-6988460D02*
X2482086Y-6997984D01*
X2482086Y-6997984D02*
X2463039Y-6997984D01*
X2463039Y-6997984D02*
X2443991Y-6988460D01*
X2443991Y-6988460D02*
X2434467Y-6978936D01*
X2434467Y-6978936D02*
X2424944Y-6959888D01*
X2424944Y-6959888D02*
X2415420Y-6921793D01*
X2415420Y-6921793D02*
X2415420Y-6874174D01*
X2415420Y-6874174D02*
X2424944Y-6836079D01*
X2424944Y-6836079D02*
X2434467Y-6817031D01*
X2434467Y-6817031D02*
X2443991Y-6807508D01*
X2443991Y-6807508D02*
X2463039Y-6797984D01*
X2615420Y-6997984D02*
X2615420Y-6864650D01*
X2615420Y-6883698D02*
X2624944Y-6874174D01*
X2624944Y-6874174D02*
X2643991Y-6864650D01*
X2643991Y-6864650D02*
X2672563Y-6864650D01*
X2672563Y-6864650D02*
X2691610Y-6874174D01*
X2691610Y-6874174D02*
X2701134Y-6893222D01*
X2701134Y-6893222D02*
X2701134Y-6997984D01*
X2701134Y-6893222D02*
X2710658Y-6874174D01*
X2710658Y-6874174D02*
X2729705Y-6864650D01*
X2729705Y-6864650D02*
X2758277Y-6864650D01*
X2758277Y-6864650D02*
X2777325Y-6874174D01*
X2777325Y-6874174D02*
X2786848Y-6893222D01*
X2786848Y-6893222D02*
X2786848Y-6997984D01*
X2882086Y-6997984D02*
X2882086Y-6864650D01*
X2882086Y-6883698D02*
X2891610Y-6874174D01*
X2891610Y-6874174D02*
X2910658Y-6864650D01*
X2910658Y-6864650D02*
X2939229Y-6864650D01*
X2939229Y-6864650D02*
X2958277Y-6874174D01*
X2958277Y-6874174D02*
X2967801Y-6893222D01*
X2967801Y-6893222D02*
X2967801Y-6997984D01*
X2967801Y-6893222D02*
X2977324Y-6874174D01*
X2977324Y-6874174D02*
X2996372Y-6864650D01*
X2996372Y-6864650D02*
X3024943Y-6864650D01*
X3024943Y-6864650D02*
X3043991Y-6874174D01*
X3043991Y-6874174D02*
X3053515Y-6893222D01*
X3053515Y-6893222D02*
X3053515Y-6997984D01*
X3443991Y-6788460D02*
X3272563Y-7045603D01*
X3701134Y-6797984D02*
X3720182Y-6797984D01*
X3720182Y-6797984D02*
X3739229Y-6807508D01*
X3739229Y-6807508D02*
X3748753Y-6817031D01*
X3748753Y-6817031D02*
X3758277Y-6836079D01*
X3758277Y-6836079D02*
X3767801Y-6874174D01*
X3767801Y-6874174D02*
X3767801Y-6921793D01*
X3767801Y-6921793D02*
X3758277Y-6959888D01*
X3758277Y-6959888D02*
X3748753Y-6978936D01*
X3748753Y-6978936D02*
X3739229Y-6988460D01*
X3739229Y-6988460D02*
X3720182Y-6997984D01*
X3720182Y-6997984D02*
X3701134Y-6997984D01*
X3701134Y-6997984D02*
X3682086Y-6988460D01*
X3682086Y-6988460D02*
X3672563Y-6978936D01*
X3672563Y-6978936D02*
X3663039Y-6959888D01*
X3663039Y-6959888D02*
X3653515Y-6921793D01*
X3653515Y-6921793D02*
X3653515Y-6874174D01*
X3653515Y-6874174D02*
X3663039Y-6836079D01*
X3663039Y-6836079D02*
X3672563Y-6817031D01*
X3672563Y-6817031D02*
X3682086Y-6807508D01*
X3682086Y-6807508D02*
X3701134Y-6797984D01*
X3853515Y-6978936D02*
X3863039Y-6988460D01*
X3863039Y-6988460D02*
X3853515Y-6997984D01*
X3853515Y-6997984D02*
X3843991Y-6988460D01*
X3843991Y-6988460D02*
X3853515Y-6978936D01*
X3853515Y-6978936D02*
X3853515Y-6997984D01*
X3986848Y-6797984D02*
X4005896Y-6797984D01*
X4005896Y-6797984D02*
X4024944Y-6807508D01*
X4024944Y-6807508D02*
X4034467Y-6817031D01*
X4034467Y-6817031D02*
X4043991Y-6836079D01*
X4043991Y-6836079D02*
X4053515Y-6874174D01*
X4053515Y-6874174D02*
X4053515Y-6921793D01*
X4053515Y-6921793D02*
X4043991Y-6959888D01*
X4043991Y-6959888D02*
X4034467Y-6978936D01*
X4034467Y-6978936D02*
X4024944Y-6988460D01*
X4024944Y-6988460D02*
X4005896Y-6997984D01*
X4005896Y-6997984D02*
X3986848Y-6997984D01*
X3986848Y-6997984D02*
X3967801Y-6988460D01*
X3967801Y-6988460D02*
X3958277Y-6978936D01*
X3958277Y-6978936D02*
X3948753Y-6959888D01*
X3948753Y-6959888D02*
X3939229Y-6921793D01*
X3939229Y-6921793D02*
X3939229Y-6874174D01*
X3939229Y-6874174D02*
X3948753Y-6836079D01*
X3948753Y-6836079D02*
X3958277Y-6817031D01*
X3958277Y-6817031D02*
X3967801Y-6807508D01*
X3967801Y-6807508D02*
X3986848Y-6797984D01*
X4243991Y-6997984D02*
X4129706Y-6997984D01*
X4186848Y-6997984D02*
X4186848Y-6797984D01*
X4186848Y-6797984D02*
X4167801Y-6826555D01*
X4167801Y-6826555D02*
X4148753Y-6845603D01*
X4148753Y-6845603D02*
X4129706Y-6855127D01*
X4434468Y-6997984D02*
X4320182Y-6997984D01*
X4377325Y-6997984D02*
X4377325Y-6797984D01*
X4377325Y-6797984D02*
X4358277Y-6826555D01*
X4358277Y-6826555D02*
X4339229Y-6845603D01*
X4339229Y-6845603D02*
X4320182Y-6855127D01*
X4548753Y-6883698D02*
X4529706Y-6874174D01*
X4529706Y-6874174D02*
X4520182Y-6864650D01*
X4520182Y-6864650D02*
X4510658Y-6845603D01*
X4510658Y-6845603D02*
X4510658Y-6836079D01*
X4510658Y-6836079D02*
X4520182Y-6817031D01*
X4520182Y-6817031D02*
X4529706Y-6807508D01*
X4529706Y-6807508D02*
X4548753Y-6797984D01*
X4548753Y-6797984D02*
X4586849Y-6797984D01*
X4586849Y-6797984D02*
X4605896Y-6807508D01*
X4605896Y-6807508D02*
X4615420Y-6817031D01*
X4615420Y-6817031D02*
X4624944Y-6836079D01*
X4624944Y-6836079D02*
X4624944Y-6845603D01*
X4624944Y-6845603D02*
X4615420Y-6864650D01*
X4615420Y-6864650D02*
X4605896Y-6874174D01*
X4605896Y-6874174D02*
X4586849Y-6883698D01*
X4586849Y-6883698D02*
X4548753Y-6883698D01*
X4548753Y-6883698D02*
X4529706Y-6893222D01*
X4529706Y-6893222D02*
X4520182Y-6902746D01*
X4520182Y-6902746D02*
X4510658Y-6921793D01*
X4510658Y-6921793D02*
X4510658Y-6959888D01*
X4510658Y-6959888D02*
X4520182Y-6978936D01*
X4520182Y-6978936D02*
X4529706Y-6988460D01*
X4529706Y-6988460D02*
X4548753Y-6997984D01*
X4548753Y-6997984D02*
X4586849Y-6997984D01*
X4586849Y-6997984D02*
X4605896Y-6988460D01*
X4605896Y-6988460D02*
X4615420Y-6978936D01*
X4615420Y-6978936D02*
X4624944Y-6959888D01*
X4624944Y-6959888D02*
X4624944Y-6921793D01*
X4624944Y-6921793D02*
X4615420Y-6902746D01*
X4615420Y-6902746D02*
X4605896Y-6893222D01*
X4605896Y-6893222D02*
X4586849Y-6883698D01*
X4701134Y-6797984D02*
X4701134Y-6836079D01*
X4777325Y-6797984D02*
X4777325Y-6836079D01*
X5072563Y-7074174D02*
X5063039Y-7064650D01*
X5063039Y-7064650D02*
X5043991Y-7036079D01*
X5043991Y-7036079D02*
X5034468Y-7017031D01*
X5034468Y-7017031D02*
X5024944Y-6988460D01*
X5024944Y-6988460D02*
X5015420Y-6940841D01*
X5015420Y-6940841D02*
X5015420Y-6902746D01*
X5015420Y-6902746D02*
X5024944Y-6855127D01*
X5024944Y-6855127D02*
X5034468Y-6826555D01*
X5034468Y-6826555D02*
X5043991Y-6807508D01*
X5043991Y-6807508D02*
X5063039Y-6778936D01*
X5063039Y-6778936D02*
X5072563Y-6769412D01*
X5139230Y-6817031D02*
X5148753Y-6807508D01*
X5148753Y-6807508D02*
X5167801Y-6797984D01*
X5167801Y-6797984D02*
X5215420Y-6797984D01*
X5215420Y-6797984D02*
X5234468Y-6807508D01*
X5234468Y-6807508D02*
X5243991Y-6817031D01*
X5243991Y-6817031D02*
X5253515Y-6836079D01*
X5253515Y-6836079D02*
X5253515Y-6855127D01*
X5253515Y-6855127D02*
X5243991Y-6883698D01*
X5243991Y-6883698D02*
X5129706Y-6997984D01*
X5129706Y-6997984D02*
X5253515Y-6997984D01*
X5377325Y-6797984D02*
X5396372Y-6797984D01*
X5396372Y-6797984D02*
X5415420Y-6807508D01*
X5415420Y-6807508D02*
X5424944Y-6817031D01*
X5424944Y-6817031D02*
X5434468Y-6836079D01*
X5434468Y-6836079D02*
X5443991Y-6874174D01*
X5443991Y-6874174D02*
X5443991Y-6921793D01*
X5443991Y-6921793D02*
X5434468Y-6959888D01*
X5434468Y-6959888D02*
X5424944Y-6978936D01*
X5424944Y-6978936D02*
X5415420Y-6988460D01*
X5415420Y-6988460D02*
X5396372Y-6997984D01*
X5396372Y-6997984D02*
X5377325Y-6997984D01*
X5377325Y-6997984D02*
X5358277Y-6988460D01*
X5358277Y-6988460D02*
X5348753Y-6978936D01*
X5348753Y-6978936D02*
X5339230Y-6959888D01*
X5339230Y-6959888D02*
X5329706Y-6921793D01*
X5329706Y-6921793D02*
X5329706Y-6874174D01*
X5329706Y-6874174D02*
X5339230Y-6836079D01*
X5339230Y-6836079D02*
X5348753Y-6817031D01*
X5348753Y-6817031D02*
X5358277Y-6807508D01*
X5358277Y-6807508D02*
X5377325Y-6797984D01*
X5682087Y-6997984D02*
X5682087Y-6797984D01*
X5767801Y-6997984D02*
X5767801Y-6893222D01*
X5767801Y-6893222D02*
X5758277Y-6874174D01*
X5758277Y-6874174D02*
X5739230Y-6864650D01*
X5739230Y-6864650D02*
X5710658Y-6864650D01*
X5710658Y-6864650D02*
X5691610Y-6874174D01*
X5691610Y-6874174D02*
X5682087Y-6883698D01*
X5891610Y-6997984D02*
X5872563Y-6988460D01*
X5872563Y-6988460D02*
X5863039Y-6978936D01*
X5863039Y-6978936D02*
X5853515Y-6959888D01*
X5853515Y-6959888D02*
X5853515Y-6902746D01*
X5853515Y-6902746D02*
X5863039Y-6883698D01*
X5863039Y-6883698D02*
X5872563Y-6874174D01*
X5872563Y-6874174D02*
X5891610Y-6864650D01*
X5891610Y-6864650D02*
X5920182Y-6864650D01*
X5920182Y-6864650D02*
X5939230Y-6874174D01*
X5939230Y-6874174D02*
X5948753Y-6883698D01*
X5948753Y-6883698D02*
X5958277Y-6902746D01*
X5958277Y-6902746D02*
X5958277Y-6959888D01*
X5958277Y-6959888D02*
X5948753Y-6978936D01*
X5948753Y-6978936D02*
X5939230Y-6988460D01*
X5939230Y-6988460D02*
X5920182Y-6997984D01*
X5920182Y-6997984D02*
X5891610Y-6997984D01*
X6072563Y-6997984D02*
X6053515Y-6988460D01*
X6053515Y-6988460D02*
X6043991Y-6969412D01*
X6043991Y-6969412D02*
X6043991Y-6797984D01*
X6224944Y-6988460D02*
X6205896Y-6997984D01*
X6205896Y-6997984D02*
X6167801Y-6997984D01*
X6167801Y-6997984D02*
X6148753Y-6988460D01*
X6148753Y-6988460D02*
X6139230Y-6969412D01*
X6139230Y-6969412D02*
X6139230Y-6893222D01*
X6139230Y-6893222D02*
X6148753Y-6874174D01*
X6148753Y-6874174D02*
X6167801Y-6864650D01*
X6167801Y-6864650D02*
X6205896Y-6864650D01*
X6205896Y-6864650D02*
X6224944Y-6874174D01*
X6224944Y-6874174D02*
X6234468Y-6893222D01*
X6234468Y-6893222D02*
X6234468Y-6912269D01*
X6234468Y-6912269D02*
X6139230Y-6931317D01*
X6310658Y-6988460D02*
X6329706Y-6997984D01*
X6329706Y-6997984D02*
X6367801Y-6997984D01*
X6367801Y-6997984D02*
X6386849Y-6988460D01*
X6386849Y-6988460D02*
X6396372Y-6969412D01*
X6396372Y-6969412D02*
X6396372Y-6959888D01*
X6396372Y-6959888D02*
X6386849Y-6940841D01*
X6386849Y-6940841D02*
X6367801Y-6931317D01*
X6367801Y-6931317D02*
X6339230Y-6931317D01*
X6339230Y-6931317D02*
X6320182Y-6921793D01*
X6320182Y-6921793D02*
X6310658Y-6902746D01*
X6310658Y-6902746D02*
X6310658Y-6893222D01*
X6310658Y-6893222D02*
X6320182Y-6874174D01*
X6320182Y-6874174D02*
X6339230Y-6864650D01*
X6339230Y-6864650D02*
X6367801Y-6864650D01*
X6367801Y-6864650D02*
X6386849Y-6874174D01*
X6463039Y-7074174D02*
X6472563Y-7064650D01*
X6472563Y-7064650D02*
X6491611Y-7036079D01*
X6491611Y-7036079D02*
X6501134Y-7017031D01*
X6501134Y-7017031D02*
X6510658Y-6988460D01*
X6510658Y-6988460D02*
X6520182Y-6940841D01*
X6520182Y-6940841D02*
X6520182Y-6902746D01*
X6520182Y-6902746D02*
X6510658Y-6855127D01*
X6510658Y-6855127D02*
X6501134Y-6826555D01*
X6501134Y-6826555D02*
X6491611Y-6807508D01*
X6491611Y-6807508D02*
X6472563Y-6778936D01*
X6472563Y-6778936D02*
X6463039Y-6769412D01*
D12*
X1447500Y-7120500D02*
X1447500Y-7220500D01*
X1397500Y-7170500D02*
X1497500Y-7170500D01*
D11*
X1863039Y-7261984D02*
X1748753Y-7261984D01*
X1805896Y-7261984D02*
X1805896Y-7061984D01*
X1805896Y-7061984D02*
X1786848Y-7090555D01*
X1786848Y-7090555D02*
X1767801Y-7109603D01*
X1767801Y-7109603D02*
X1748753Y-7119127D01*
X1948753Y-7242936D02*
X1958277Y-7252460D01*
X1958277Y-7252460D02*
X1948753Y-7261984D01*
X1948753Y-7261984D02*
X1939229Y-7252460D01*
X1939229Y-7252460D02*
X1948753Y-7242936D01*
X1948753Y-7242936D02*
X1948753Y-7261984D01*
X2082086Y-7061984D02*
X2101134Y-7061984D01*
X2101134Y-7061984D02*
X2120182Y-7071508D01*
X2120182Y-7071508D02*
X2129705Y-7081031D01*
X2129705Y-7081031D02*
X2139229Y-7100079D01*
X2139229Y-7100079D02*
X2148753Y-7138174D01*
X2148753Y-7138174D02*
X2148753Y-7185793D01*
X2148753Y-7185793D02*
X2139229Y-7223888D01*
X2139229Y-7223888D02*
X2129705Y-7242936D01*
X2129705Y-7242936D02*
X2120182Y-7252460D01*
X2120182Y-7252460D02*
X2101134Y-7261984D01*
X2101134Y-7261984D02*
X2082086Y-7261984D01*
X2082086Y-7261984D02*
X2063039Y-7252460D01*
X2063039Y-7252460D02*
X2053515Y-7242936D01*
X2053515Y-7242936D02*
X2043991Y-7223888D01*
X2043991Y-7223888D02*
X2034467Y-7185793D01*
X2034467Y-7185793D02*
X2034467Y-7138174D01*
X2034467Y-7138174D02*
X2043991Y-7100079D01*
X2043991Y-7100079D02*
X2053515Y-7081031D01*
X2053515Y-7081031D02*
X2063039Y-7071508D01*
X2063039Y-7071508D02*
X2082086Y-7061984D01*
X2272563Y-7061984D02*
X2291610Y-7061984D01*
X2291610Y-7061984D02*
X2310658Y-7071508D01*
X2310658Y-7071508D02*
X2320182Y-7081031D01*
X2320182Y-7081031D02*
X2329705Y-7100079D01*
X2329705Y-7100079D02*
X2339229Y-7138174D01*
X2339229Y-7138174D02*
X2339229Y-7185793D01*
X2339229Y-7185793D02*
X2329705Y-7223888D01*
X2329705Y-7223888D02*
X2320182Y-7242936D01*
X2320182Y-7242936D02*
X2310658Y-7252460D01*
X2310658Y-7252460D02*
X2291610Y-7261984D01*
X2291610Y-7261984D02*
X2272563Y-7261984D01*
X2272563Y-7261984D02*
X2253515Y-7252460D01*
X2253515Y-7252460D02*
X2243991Y-7242936D01*
X2243991Y-7242936D02*
X2234467Y-7223888D01*
X2234467Y-7223888D02*
X2224944Y-7185793D01*
X2224944Y-7185793D02*
X2224944Y-7138174D01*
X2224944Y-7138174D02*
X2234467Y-7100079D01*
X2234467Y-7100079D02*
X2243991Y-7081031D01*
X2243991Y-7081031D02*
X2253515Y-7071508D01*
X2253515Y-7071508D02*
X2272563Y-7061984D01*
X2463039Y-7061984D02*
X2482086Y-7061984D01*
X2482086Y-7061984D02*
X2501134Y-7071508D01*
X2501134Y-7071508D02*
X2510658Y-7081031D01*
X2510658Y-7081031D02*
X2520182Y-7100079D01*
X2520182Y-7100079D02*
X2529705Y-7138174D01*
X2529705Y-7138174D02*
X2529705Y-7185793D01*
X2529705Y-7185793D02*
X2520182Y-7223888D01*
X2520182Y-7223888D02*
X2510658Y-7242936D01*
X2510658Y-7242936D02*
X2501134Y-7252460D01*
X2501134Y-7252460D02*
X2482086Y-7261984D01*
X2482086Y-7261984D02*
X2463039Y-7261984D01*
X2463039Y-7261984D02*
X2443991Y-7252460D01*
X2443991Y-7252460D02*
X2434467Y-7242936D01*
X2434467Y-7242936D02*
X2424944Y-7223888D01*
X2424944Y-7223888D02*
X2415420Y-7185793D01*
X2415420Y-7185793D02*
X2415420Y-7138174D01*
X2415420Y-7138174D02*
X2424944Y-7100079D01*
X2424944Y-7100079D02*
X2434467Y-7081031D01*
X2434467Y-7081031D02*
X2443991Y-7071508D01*
X2443991Y-7071508D02*
X2463039Y-7061984D01*
X2615420Y-7261984D02*
X2615420Y-7128650D01*
X2615420Y-7147698D02*
X2624944Y-7138174D01*
X2624944Y-7138174D02*
X2643991Y-7128650D01*
X2643991Y-7128650D02*
X2672563Y-7128650D01*
X2672563Y-7128650D02*
X2691610Y-7138174D01*
X2691610Y-7138174D02*
X2701134Y-7157222D01*
X2701134Y-7157222D02*
X2701134Y-7261984D01*
X2701134Y-7157222D02*
X2710658Y-7138174D01*
X2710658Y-7138174D02*
X2729705Y-7128650D01*
X2729705Y-7128650D02*
X2758277Y-7128650D01*
X2758277Y-7128650D02*
X2777325Y-7138174D01*
X2777325Y-7138174D02*
X2786848Y-7157222D01*
X2786848Y-7157222D02*
X2786848Y-7261984D01*
X2882086Y-7261984D02*
X2882086Y-7128650D01*
X2882086Y-7147698D02*
X2891610Y-7138174D01*
X2891610Y-7138174D02*
X2910658Y-7128650D01*
X2910658Y-7128650D02*
X2939229Y-7128650D01*
X2939229Y-7128650D02*
X2958277Y-7138174D01*
X2958277Y-7138174D02*
X2967801Y-7157222D01*
X2967801Y-7157222D02*
X2967801Y-7261984D01*
X2967801Y-7157222D02*
X2977324Y-7138174D01*
X2977324Y-7138174D02*
X2996372Y-7128650D01*
X2996372Y-7128650D02*
X3024943Y-7128650D01*
X3024943Y-7128650D02*
X3043991Y-7138174D01*
X3043991Y-7138174D02*
X3053515Y-7157222D01*
X3053515Y-7157222D02*
X3053515Y-7261984D01*
X3443991Y-7052460D02*
X3272563Y-7309603D01*
X3701134Y-7061984D02*
X3720182Y-7061984D01*
X3720182Y-7061984D02*
X3739229Y-7071508D01*
X3739229Y-7071508D02*
X3748753Y-7081031D01*
X3748753Y-7081031D02*
X3758277Y-7100079D01*
X3758277Y-7100079D02*
X3767801Y-7138174D01*
X3767801Y-7138174D02*
X3767801Y-7185793D01*
X3767801Y-7185793D02*
X3758277Y-7223888D01*
X3758277Y-7223888D02*
X3748753Y-7242936D01*
X3748753Y-7242936D02*
X3739229Y-7252460D01*
X3739229Y-7252460D02*
X3720182Y-7261984D01*
X3720182Y-7261984D02*
X3701134Y-7261984D01*
X3701134Y-7261984D02*
X3682086Y-7252460D01*
X3682086Y-7252460D02*
X3672563Y-7242936D01*
X3672563Y-7242936D02*
X3663039Y-7223888D01*
X3663039Y-7223888D02*
X3653515Y-7185793D01*
X3653515Y-7185793D02*
X3653515Y-7138174D01*
X3653515Y-7138174D02*
X3663039Y-7100079D01*
X3663039Y-7100079D02*
X3672563Y-7081031D01*
X3672563Y-7081031D02*
X3682086Y-7071508D01*
X3682086Y-7071508D02*
X3701134Y-7061984D01*
X3853515Y-7242936D02*
X3863039Y-7252460D01*
X3863039Y-7252460D02*
X3853515Y-7261984D01*
X3853515Y-7261984D02*
X3843991Y-7252460D01*
X3843991Y-7252460D02*
X3853515Y-7242936D01*
X3853515Y-7242936D02*
X3853515Y-7261984D01*
X3986848Y-7061984D02*
X4005896Y-7061984D01*
X4005896Y-7061984D02*
X4024944Y-7071508D01*
X4024944Y-7071508D02*
X4034467Y-7081031D01*
X4034467Y-7081031D02*
X4043991Y-7100079D01*
X4043991Y-7100079D02*
X4053515Y-7138174D01*
X4053515Y-7138174D02*
X4053515Y-7185793D01*
X4053515Y-7185793D02*
X4043991Y-7223888D01*
X4043991Y-7223888D02*
X4034467Y-7242936D01*
X4034467Y-7242936D02*
X4024944Y-7252460D01*
X4024944Y-7252460D02*
X4005896Y-7261984D01*
X4005896Y-7261984D02*
X3986848Y-7261984D01*
X3986848Y-7261984D02*
X3967801Y-7252460D01*
X3967801Y-7252460D02*
X3958277Y-7242936D01*
X3958277Y-7242936D02*
X3948753Y-7223888D01*
X3948753Y-7223888D02*
X3939229Y-7185793D01*
X3939229Y-7185793D02*
X3939229Y-7138174D01*
X3939229Y-7138174D02*
X3948753Y-7100079D01*
X3948753Y-7100079D02*
X3958277Y-7081031D01*
X3958277Y-7081031D02*
X3967801Y-7071508D01*
X3967801Y-7071508D02*
X3986848Y-7061984D01*
X4120182Y-7061984D02*
X4243991Y-7061984D01*
X4243991Y-7061984D02*
X4177325Y-7138174D01*
X4177325Y-7138174D02*
X4205896Y-7138174D01*
X4205896Y-7138174D02*
X4224944Y-7147698D01*
X4224944Y-7147698D02*
X4234468Y-7157222D01*
X4234468Y-7157222D02*
X4243991Y-7176269D01*
X4243991Y-7176269D02*
X4243991Y-7223888D01*
X4243991Y-7223888D02*
X4234468Y-7242936D01*
X4234468Y-7242936D02*
X4224944Y-7252460D01*
X4224944Y-7252460D02*
X4205896Y-7261984D01*
X4205896Y-7261984D02*
X4148753Y-7261984D01*
X4148753Y-7261984D02*
X4129706Y-7252460D01*
X4129706Y-7252460D02*
X4120182Y-7242936D01*
X4339229Y-7261984D02*
X4377325Y-7261984D01*
X4377325Y-7261984D02*
X4396372Y-7252460D01*
X4396372Y-7252460D02*
X4405896Y-7242936D01*
X4405896Y-7242936D02*
X4424944Y-7214365D01*
X4424944Y-7214365D02*
X4434468Y-7176269D01*
X4434468Y-7176269D02*
X4434468Y-7100079D01*
X4434468Y-7100079D02*
X4424944Y-7081031D01*
X4424944Y-7081031D02*
X4415420Y-7071508D01*
X4415420Y-7071508D02*
X4396372Y-7061984D01*
X4396372Y-7061984D02*
X4358277Y-7061984D01*
X4358277Y-7061984D02*
X4339229Y-7071508D01*
X4339229Y-7071508D02*
X4329706Y-7081031D01*
X4329706Y-7081031D02*
X4320182Y-7100079D01*
X4320182Y-7100079D02*
X4320182Y-7147698D01*
X4320182Y-7147698D02*
X4329706Y-7166746D01*
X4329706Y-7166746D02*
X4339229Y-7176269D01*
X4339229Y-7176269D02*
X4358277Y-7185793D01*
X4358277Y-7185793D02*
X4396372Y-7185793D01*
X4396372Y-7185793D02*
X4415420Y-7176269D01*
X4415420Y-7176269D02*
X4424944Y-7166746D01*
X4424944Y-7166746D02*
X4434468Y-7147698D01*
X4605896Y-7128650D02*
X4605896Y-7261984D01*
X4558277Y-7052460D02*
X4510658Y-7195317D01*
X4510658Y-7195317D02*
X4634468Y-7195317D01*
X4701134Y-7061984D02*
X4701134Y-7100079D01*
X4777325Y-7061984D02*
X4777325Y-7100079D01*
X5072563Y-7338174D02*
X5063039Y-7328650D01*
X5063039Y-7328650D02*
X5043991Y-7300079D01*
X5043991Y-7300079D02*
X5034468Y-7281031D01*
X5034468Y-7281031D02*
X5024944Y-7252460D01*
X5024944Y-7252460D02*
X5015420Y-7204841D01*
X5015420Y-7204841D02*
X5015420Y-7166746D01*
X5015420Y-7166746D02*
X5024944Y-7119127D01*
X5024944Y-7119127D02*
X5034468Y-7090555D01*
X5034468Y-7090555D02*
X5043991Y-7071508D01*
X5043991Y-7071508D02*
X5063039Y-7042936D01*
X5063039Y-7042936D02*
X5072563Y-7033412D01*
X5139230Y-7081031D02*
X5148753Y-7071508D01*
X5148753Y-7071508D02*
X5167801Y-7061984D01*
X5167801Y-7061984D02*
X5215420Y-7061984D01*
X5215420Y-7061984D02*
X5234468Y-7071508D01*
X5234468Y-7071508D02*
X5243991Y-7081031D01*
X5243991Y-7081031D02*
X5253515Y-7100079D01*
X5253515Y-7100079D02*
X5253515Y-7119127D01*
X5253515Y-7119127D02*
X5243991Y-7147698D01*
X5243991Y-7147698D02*
X5129706Y-7261984D01*
X5129706Y-7261984D02*
X5253515Y-7261984D01*
X5491611Y-7261984D02*
X5491611Y-7061984D01*
X5577325Y-7261984D02*
X5577325Y-7157222D01*
X5577325Y-7157222D02*
X5567801Y-7138174D01*
X5567801Y-7138174D02*
X5548753Y-7128650D01*
X5548753Y-7128650D02*
X5520182Y-7128650D01*
X5520182Y-7128650D02*
X5501134Y-7138174D01*
X5501134Y-7138174D02*
X5491611Y-7147698D01*
X5701134Y-7261984D02*
X5682087Y-7252460D01*
X5682087Y-7252460D02*
X5672563Y-7242936D01*
X5672563Y-7242936D02*
X5663039Y-7223888D01*
X5663039Y-7223888D02*
X5663039Y-7166746D01*
X5663039Y-7166746D02*
X5672563Y-7147698D01*
X5672563Y-7147698D02*
X5682087Y-7138174D01*
X5682087Y-7138174D02*
X5701134Y-7128650D01*
X5701134Y-7128650D02*
X5729706Y-7128650D01*
X5729706Y-7128650D02*
X5748753Y-7138174D01*
X5748753Y-7138174D02*
X5758277Y-7147698D01*
X5758277Y-7147698D02*
X5767801Y-7166746D01*
X5767801Y-7166746D02*
X5767801Y-7223888D01*
X5767801Y-7223888D02*
X5758277Y-7242936D01*
X5758277Y-7242936D02*
X5748753Y-7252460D01*
X5748753Y-7252460D02*
X5729706Y-7261984D01*
X5729706Y-7261984D02*
X5701134Y-7261984D01*
X5882087Y-7261984D02*
X5863039Y-7252460D01*
X5863039Y-7252460D02*
X5853515Y-7233412D01*
X5853515Y-7233412D02*
X5853515Y-7061984D01*
X6034468Y-7252460D02*
X6015420Y-7261984D01*
X6015420Y-7261984D02*
X5977325Y-7261984D01*
X5977325Y-7261984D02*
X5958277Y-7252460D01*
X5958277Y-7252460D02*
X5948753Y-7233412D01*
X5948753Y-7233412D02*
X5948753Y-7157222D01*
X5948753Y-7157222D02*
X5958277Y-7138174D01*
X5958277Y-7138174D02*
X5977325Y-7128650D01*
X5977325Y-7128650D02*
X6015420Y-7128650D01*
X6015420Y-7128650D02*
X6034468Y-7138174D01*
X6034468Y-7138174D02*
X6043991Y-7157222D01*
X6043991Y-7157222D02*
X6043991Y-7176269D01*
X6043991Y-7176269D02*
X5948753Y-7195317D01*
X6120182Y-7252460D02*
X6139230Y-7261984D01*
X6139230Y-7261984D02*
X6177325Y-7261984D01*
X6177325Y-7261984D02*
X6196372Y-7252460D01*
X6196372Y-7252460D02*
X6205896Y-7233412D01*
X6205896Y-7233412D02*
X6205896Y-7223888D01*
X6205896Y-7223888D02*
X6196372Y-7204841D01*
X6196372Y-7204841D02*
X6177325Y-7195317D01*
X6177325Y-7195317D02*
X6148753Y-7195317D01*
X6148753Y-7195317D02*
X6129706Y-7185793D01*
X6129706Y-7185793D02*
X6120182Y-7166746D01*
X6120182Y-7166746D02*
X6120182Y-7157222D01*
X6120182Y-7157222D02*
X6129706Y-7138174D01*
X6129706Y-7138174D02*
X6148753Y-7128650D01*
X6148753Y-7128650D02*
X6177325Y-7128650D01*
X6177325Y-7128650D02*
X6196372Y-7138174D01*
X6272563Y-7338174D02*
X6282087Y-7328650D01*
X6282087Y-7328650D02*
X6301134Y-7300079D01*
X6301134Y-7300079D02*
X6310658Y-7281031D01*
X6310658Y-7281031D02*
X6320182Y-7252460D01*
X6320182Y-7252460D02*
X6329706Y-7204841D01*
X6329706Y-7204841D02*
X6329706Y-7166746D01*
X6329706Y-7166746D02*
X6320182Y-7119127D01*
X6320182Y-7119127D02*
X6310658Y-7090555D01*
X6310658Y-7090555D02*
X6301134Y-7071508D01*
X6301134Y-7071508D02*
X6282087Y-7042936D01*
X6282087Y-7042936D02*
X6272563Y-7033412D01*
X1468211Y-7505211D02*
X1468211Y-7363789D01*
X1326789Y-7363789D01*
X1326789Y-7505211D01*
X1468211Y-7505211D01*
X1739229Y-7325984D02*
X1863039Y-7325984D01*
X1863039Y-7325984D02*
X1796372Y-7402174D01*
X1796372Y-7402174D02*
X1824943Y-7402174D01*
X1824943Y-7402174D02*
X1843991Y-7411698D01*
X1843991Y-7411698D02*
X1853515Y-7421222D01*
X1853515Y-7421222D02*
X1863039Y-7440269D01*
X1863039Y-7440269D02*
X1863039Y-7487888D01*
X1863039Y-7487888D02*
X1853515Y-7506936D01*
X1853515Y-7506936D02*
X1843991Y-7516460D01*
X1843991Y-7516460D02*
X1824943Y-7525984D01*
X1824943Y-7525984D02*
X1767801Y-7525984D01*
X1767801Y-7525984D02*
X1748753Y-7516460D01*
X1748753Y-7516460D02*
X1739229Y-7506936D01*
X1948753Y-7506936D02*
X1958277Y-7516460D01*
X1958277Y-7516460D02*
X1948753Y-7525984D01*
X1948753Y-7525984D02*
X1939229Y-7516460D01*
X1939229Y-7516460D02*
X1948753Y-7506936D01*
X1948753Y-7506936D02*
X1948753Y-7525984D01*
X2034467Y-7345031D02*
X2043991Y-7335508D01*
X2043991Y-7335508D02*
X2063039Y-7325984D01*
X2063039Y-7325984D02*
X2110658Y-7325984D01*
X2110658Y-7325984D02*
X2129705Y-7335508D01*
X2129705Y-7335508D02*
X2139229Y-7345031D01*
X2139229Y-7345031D02*
X2148753Y-7364079D01*
X2148753Y-7364079D02*
X2148753Y-7383127D01*
X2148753Y-7383127D02*
X2139229Y-7411698D01*
X2139229Y-7411698D02*
X2024943Y-7525984D01*
X2024943Y-7525984D02*
X2148753Y-7525984D01*
X2272563Y-7325984D02*
X2291610Y-7325984D01*
X2291610Y-7325984D02*
X2310658Y-7335508D01*
X2310658Y-7335508D02*
X2320182Y-7345031D01*
X2320182Y-7345031D02*
X2329705Y-7364079D01*
X2329705Y-7364079D02*
X2339229Y-7402174D01*
X2339229Y-7402174D02*
X2339229Y-7449793D01*
X2339229Y-7449793D02*
X2329705Y-7487888D01*
X2329705Y-7487888D02*
X2320182Y-7506936D01*
X2320182Y-7506936D02*
X2310658Y-7516460D01*
X2310658Y-7516460D02*
X2291610Y-7525984D01*
X2291610Y-7525984D02*
X2272563Y-7525984D01*
X2272563Y-7525984D02*
X2253515Y-7516460D01*
X2253515Y-7516460D02*
X2243991Y-7506936D01*
X2243991Y-7506936D02*
X2234467Y-7487888D01*
X2234467Y-7487888D02*
X2224944Y-7449793D01*
X2224944Y-7449793D02*
X2224944Y-7402174D01*
X2224944Y-7402174D02*
X2234467Y-7364079D01*
X2234467Y-7364079D02*
X2243991Y-7345031D01*
X2243991Y-7345031D02*
X2253515Y-7335508D01*
X2253515Y-7335508D02*
X2272563Y-7325984D01*
X2463039Y-7325984D02*
X2482086Y-7325984D01*
X2482086Y-7325984D02*
X2501134Y-7335508D01*
X2501134Y-7335508D02*
X2510658Y-7345031D01*
X2510658Y-7345031D02*
X2520182Y-7364079D01*
X2520182Y-7364079D02*
X2529705Y-7402174D01*
X2529705Y-7402174D02*
X2529705Y-7449793D01*
X2529705Y-7449793D02*
X2520182Y-7487888D01*
X2520182Y-7487888D02*
X2510658Y-7506936D01*
X2510658Y-7506936D02*
X2501134Y-7516460D01*
X2501134Y-7516460D02*
X2482086Y-7525984D01*
X2482086Y-7525984D02*
X2463039Y-7525984D01*
X2463039Y-7525984D02*
X2443991Y-7516460D01*
X2443991Y-7516460D02*
X2434467Y-7506936D01*
X2434467Y-7506936D02*
X2424944Y-7487888D01*
X2424944Y-7487888D02*
X2415420Y-7449793D01*
X2415420Y-7449793D02*
X2415420Y-7402174D01*
X2415420Y-7402174D02*
X2424944Y-7364079D01*
X2424944Y-7364079D02*
X2434467Y-7345031D01*
X2434467Y-7345031D02*
X2443991Y-7335508D01*
X2443991Y-7335508D02*
X2463039Y-7325984D01*
X2615420Y-7525984D02*
X2615420Y-7392650D01*
X2615420Y-7411698D02*
X2624944Y-7402174D01*
X2624944Y-7402174D02*
X2643991Y-7392650D01*
X2643991Y-7392650D02*
X2672563Y-7392650D01*
X2672563Y-7392650D02*
X2691610Y-7402174D01*
X2691610Y-7402174D02*
X2701134Y-7421222D01*
X2701134Y-7421222D02*
X2701134Y-7525984D01*
X2701134Y-7421222D02*
X2710658Y-7402174D01*
X2710658Y-7402174D02*
X2729705Y-7392650D01*
X2729705Y-7392650D02*
X2758277Y-7392650D01*
X2758277Y-7392650D02*
X2777325Y-7402174D01*
X2777325Y-7402174D02*
X2786848Y-7421222D01*
X2786848Y-7421222D02*
X2786848Y-7525984D01*
X2882086Y-7525984D02*
X2882086Y-7392650D01*
X2882086Y-7411698D02*
X2891610Y-7402174D01*
X2891610Y-7402174D02*
X2910658Y-7392650D01*
X2910658Y-7392650D02*
X2939229Y-7392650D01*
X2939229Y-7392650D02*
X2958277Y-7402174D01*
X2958277Y-7402174D02*
X2967801Y-7421222D01*
X2967801Y-7421222D02*
X2967801Y-7525984D01*
X2967801Y-7421222D02*
X2977324Y-7402174D01*
X2977324Y-7402174D02*
X2996372Y-7392650D01*
X2996372Y-7392650D02*
X3024943Y-7392650D01*
X3024943Y-7392650D02*
X3043991Y-7402174D01*
X3043991Y-7402174D02*
X3053515Y-7421222D01*
X3053515Y-7421222D02*
X3053515Y-7525984D01*
X3443991Y-7316460D02*
X3272563Y-7573603D01*
X3701134Y-7325984D02*
X3720182Y-7325984D01*
X3720182Y-7325984D02*
X3739229Y-7335508D01*
X3739229Y-7335508D02*
X3748753Y-7345031D01*
X3748753Y-7345031D02*
X3758277Y-7364079D01*
X3758277Y-7364079D02*
X3767801Y-7402174D01*
X3767801Y-7402174D02*
X3767801Y-7449793D01*
X3767801Y-7449793D02*
X3758277Y-7487888D01*
X3758277Y-7487888D02*
X3748753Y-7506936D01*
X3748753Y-7506936D02*
X3739229Y-7516460D01*
X3739229Y-7516460D02*
X3720182Y-7525984D01*
X3720182Y-7525984D02*
X3701134Y-7525984D01*
X3701134Y-7525984D02*
X3682086Y-7516460D01*
X3682086Y-7516460D02*
X3672563Y-7506936D01*
X3672563Y-7506936D02*
X3663039Y-7487888D01*
X3663039Y-7487888D02*
X3653515Y-7449793D01*
X3653515Y-7449793D02*
X3653515Y-7402174D01*
X3653515Y-7402174D02*
X3663039Y-7364079D01*
X3663039Y-7364079D02*
X3672563Y-7345031D01*
X3672563Y-7345031D02*
X3682086Y-7335508D01*
X3682086Y-7335508D02*
X3701134Y-7325984D01*
X3853515Y-7506936D02*
X3863039Y-7516460D01*
X3863039Y-7516460D02*
X3853515Y-7525984D01*
X3853515Y-7525984D02*
X3843991Y-7516460D01*
X3843991Y-7516460D02*
X3853515Y-7506936D01*
X3853515Y-7506936D02*
X3853515Y-7525984D01*
X4053515Y-7525984D02*
X3939229Y-7525984D01*
X3996372Y-7525984D02*
X3996372Y-7325984D01*
X3996372Y-7325984D02*
X3977325Y-7354555D01*
X3977325Y-7354555D02*
X3958277Y-7373603D01*
X3958277Y-7373603D02*
X3939229Y-7383127D01*
X4129706Y-7345031D02*
X4139229Y-7335508D01*
X4139229Y-7335508D02*
X4158277Y-7325984D01*
X4158277Y-7325984D02*
X4205896Y-7325984D01*
X4205896Y-7325984D02*
X4224944Y-7335508D01*
X4224944Y-7335508D02*
X4234468Y-7345031D01*
X4234468Y-7345031D02*
X4243991Y-7364079D01*
X4243991Y-7364079D02*
X4243991Y-7383127D01*
X4243991Y-7383127D02*
X4234468Y-7411698D01*
X4234468Y-7411698D02*
X4120182Y-7525984D01*
X4120182Y-7525984D02*
X4243991Y-7525984D01*
X4415420Y-7325984D02*
X4377325Y-7325984D01*
X4377325Y-7325984D02*
X4358277Y-7335508D01*
X4358277Y-7335508D02*
X4348753Y-7345031D01*
X4348753Y-7345031D02*
X4329706Y-7373603D01*
X4329706Y-7373603D02*
X4320182Y-7411698D01*
X4320182Y-7411698D02*
X4320182Y-7487888D01*
X4320182Y-7487888D02*
X4329706Y-7506936D01*
X4329706Y-7506936D02*
X4339229Y-7516460D01*
X4339229Y-7516460D02*
X4358277Y-7525984D01*
X4358277Y-7525984D02*
X4396372Y-7525984D01*
X4396372Y-7525984D02*
X4415420Y-7516460D01*
X4415420Y-7516460D02*
X4424944Y-7506936D01*
X4424944Y-7506936D02*
X4434468Y-7487888D01*
X4434468Y-7487888D02*
X4434468Y-7440269D01*
X4434468Y-7440269D02*
X4424944Y-7421222D01*
X4424944Y-7421222D02*
X4415420Y-7411698D01*
X4415420Y-7411698D02*
X4396372Y-7402174D01*
X4396372Y-7402174D02*
X4358277Y-7402174D01*
X4358277Y-7402174D02*
X4339229Y-7411698D01*
X4339229Y-7411698D02*
X4329706Y-7421222D01*
X4329706Y-7421222D02*
X4320182Y-7440269D01*
X4558277Y-7325984D02*
X4577325Y-7325984D01*
X4577325Y-7325984D02*
X4596372Y-7335508D01*
X4596372Y-7335508D02*
X4605896Y-7345031D01*
X4605896Y-7345031D02*
X4615420Y-7364079D01*
X4615420Y-7364079D02*
X4624944Y-7402174D01*
X4624944Y-7402174D02*
X4624944Y-7449793D01*
X4624944Y-7449793D02*
X4615420Y-7487888D01*
X4615420Y-7487888D02*
X4605896Y-7506936D01*
X4605896Y-7506936D02*
X4596372Y-7516460D01*
X4596372Y-7516460D02*
X4577325Y-7525984D01*
X4577325Y-7525984D02*
X4558277Y-7525984D01*
X4558277Y-7525984D02*
X4539229Y-7516460D01*
X4539229Y-7516460D02*
X4529706Y-7506936D01*
X4529706Y-7506936D02*
X4520182Y-7487888D01*
X4520182Y-7487888D02*
X4510658Y-7449793D01*
X4510658Y-7449793D02*
X4510658Y-7402174D01*
X4510658Y-7402174D02*
X4520182Y-7364079D01*
X4520182Y-7364079D02*
X4529706Y-7345031D01*
X4529706Y-7345031D02*
X4539229Y-7335508D01*
X4539229Y-7335508D02*
X4558277Y-7325984D01*
X4701134Y-7325984D02*
X4701134Y-7364079D01*
X4777325Y-7325984D02*
X4777325Y-7364079D01*
X5072563Y-7602174D02*
X5063039Y-7592650D01*
X5063039Y-7592650D02*
X5043991Y-7564079D01*
X5043991Y-7564079D02*
X5034468Y-7545031D01*
X5034468Y-7545031D02*
X5024944Y-7516460D01*
X5024944Y-7516460D02*
X5015420Y-7468841D01*
X5015420Y-7468841D02*
X5015420Y-7430746D01*
X5015420Y-7430746D02*
X5024944Y-7383127D01*
X5024944Y-7383127D02*
X5034468Y-7354555D01*
X5034468Y-7354555D02*
X5043991Y-7335508D01*
X5043991Y-7335508D02*
X5063039Y-7306936D01*
X5063039Y-7306936D02*
X5072563Y-7297412D01*
X5234468Y-7392650D02*
X5234468Y-7525984D01*
X5186849Y-7316460D02*
X5139230Y-7459317D01*
X5139230Y-7459317D02*
X5263039Y-7459317D01*
X5491611Y-7525984D02*
X5491611Y-7325984D01*
X5577325Y-7525984D02*
X5577325Y-7421222D01*
X5577325Y-7421222D02*
X5567801Y-7402174D01*
X5567801Y-7402174D02*
X5548753Y-7392650D01*
X5548753Y-7392650D02*
X5520182Y-7392650D01*
X5520182Y-7392650D02*
X5501134Y-7402174D01*
X5501134Y-7402174D02*
X5491611Y-7411698D01*
X5701134Y-7525984D02*
X5682087Y-7516460D01*
X5682087Y-7516460D02*
X5672563Y-7506936D01*
X5672563Y-7506936D02*
X5663039Y-7487888D01*
X5663039Y-7487888D02*
X5663039Y-7430746D01*
X5663039Y-7430746D02*
X5672563Y-7411698D01*
X5672563Y-7411698D02*
X5682087Y-7402174D01*
X5682087Y-7402174D02*
X5701134Y-7392650D01*
X5701134Y-7392650D02*
X5729706Y-7392650D01*
X5729706Y-7392650D02*
X5748753Y-7402174D01*
X5748753Y-7402174D02*
X5758277Y-7411698D01*
X5758277Y-7411698D02*
X5767801Y-7430746D01*
X5767801Y-7430746D02*
X5767801Y-7487888D01*
X5767801Y-7487888D02*
X5758277Y-7506936D01*
X5758277Y-7506936D02*
X5748753Y-7516460D01*
X5748753Y-7516460D02*
X5729706Y-7525984D01*
X5729706Y-7525984D02*
X5701134Y-7525984D01*
X5882087Y-7525984D02*
X5863039Y-7516460D01*
X5863039Y-7516460D02*
X5853515Y-7497412D01*
X5853515Y-7497412D02*
X5853515Y-7325984D01*
X6034468Y-7516460D02*
X6015420Y-7525984D01*
X6015420Y-7525984D02*
X5977325Y-7525984D01*
X5977325Y-7525984D02*
X5958277Y-7516460D01*
X5958277Y-7516460D02*
X5948753Y-7497412D01*
X5948753Y-7497412D02*
X5948753Y-7421222D01*
X5948753Y-7421222D02*
X5958277Y-7402174D01*
X5958277Y-7402174D02*
X5977325Y-7392650D01*
X5977325Y-7392650D02*
X6015420Y-7392650D01*
X6015420Y-7392650D02*
X6034468Y-7402174D01*
X6034468Y-7402174D02*
X6043991Y-7421222D01*
X6043991Y-7421222D02*
X6043991Y-7440269D01*
X6043991Y-7440269D02*
X5948753Y-7459317D01*
X6120182Y-7516460D02*
X6139230Y-7525984D01*
X6139230Y-7525984D02*
X6177325Y-7525984D01*
X6177325Y-7525984D02*
X6196372Y-7516460D01*
X6196372Y-7516460D02*
X6205896Y-7497412D01*
X6205896Y-7497412D02*
X6205896Y-7487888D01*
X6205896Y-7487888D02*
X6196372Y-7468841D01*
X6196372Y-7468841D02*
X6177325Y-7459317D01*
X6177325Y-7459317D02*
X6148753Y-7459317D01*
X6148753Y-7459317D02*
X6129706Y-7449793D01*
X6129706Y-7449793D02*
X6120182Y-7430746D01*
X6120182Y-7430746D02*
X6120182Y-7421222D01*
X6120182Y-7421222D02*
X6129706Y-7402174D01*
X6129706Y-7402174D02*
X6148753Y-7392650D01*
X6148753Y-7392650D02*
X6177325Y-7392650D01*
X6177325Y-7392650D02*
X6196372Y-7402174D01*
X6272563Y-7602174D02*
X6282087Y-7592650D01*
X6282087Y-7592650D02*
X6301134Y-7564079D01*
X6301134Y-7564079D02*
X6310658Y-7545031D01*
X6310658Y-7545031D02*
X6320182Y-7516460D01*
X6320182Y-7516460D02*
X6329706Y-7468841D01*
X6329706Y-7468841D02*
X6329706Y-7430746D01*
X6329706Y-7430746D02*
X6320182Y-7383127D01*
X6320182Y-7383127D02*
X6310658Y-7354555D01*
X6310658Y-7354555D02*
X6301134Y-7335508D01*
X6301134Y-7335508D02*
X6282087Y-7306936D01*
X6282087Y-7306936D02*
X6272563Y-7297412D01*
M02*
