%TF.GenerationSoftware,KiCad,Pcbnew,8.0.5*%
%TF.CreationDate,2024-12-07T16:14:34-08:00*%
%TF.ProjectId,newbatt,6e657762-6174-4742-9e6b-696361645f70,3*%
%TF.SameCoordinates,Original*%
%TF.FileFunction,Legend,Top*%
%TF.FilePolarity,Positive*%
%FSLAX46Y46*%
G04 Gerber Fmt 4.6, Leading zero omitted, Abs format (unit mm)*
G04 Created by KiCad (PCBNEW 8.0.5) date 2024-12-07 16:14:34*
%MOMM*%
%LPD*%
G01*
G04 APERTURE LIST*
%ADD10C,0.250000*%
%ADD11C,0.150000*%
%ADD12C,0.120000*%
%ADD13C,0.127000*%
%ADD14C,0.152400*%
%ADD15C,0.200000*%
G04 APERTURE END LIST*
D10*
X77750000Y-46500000D02*
X77750000Y-51500000D01*
X75250000Y-26000000D02*
X80250000Y-26000000D01*
X46750000Y-49000000D02*
X51750000Y-49000000D01*
X46750000Y-26000000D02*
X51750000Y-26000000D01*
X75250000Y-49000000D02*
X80250000Y-49000000D01*
X77750000Y-23500000D02*
X77750000Y-28500000D01*
D11*
X102902380Y-16295180D02*
X102711904Y-16295180D01*
X102711904Y-16295180D02*
X102616666Y-16247561D01*
X102616666Y-16247561D02*
X102521428Y-16152323D01*
X102521428Y-16152323D02*
X102473809Y-15961847D01*
X102473809Y-15961847D02*
X102473809Y-15628514D01*
X102473809Y-15628514D02*
X102521428Y-15438038D01*
X102521428Y-15438038D02*
X102616666Y-15342800D01*
X102616666Y-15342800D02*
X102711904Y-15295180D01*
X102711904Y-15295180D02*
X102902380Y-15295180D01*
X102902380Y-15295180D02*
X102997618Y-15342800D01*
X102997618Y-15342800D02*
X103092856Y-15438038D01*
X103092856Y-15438038D02*
X103140475Y-15628514D01*
X103140475Y-15628514D02*
X103140475Y-15961847D01*
X103140475Y-15961847D02*
X103092856Y-16152323D01*
X103092856Y-16152323D02*
X102997618Y-16247561D01*
X102997618Y-16247561D02*
X102902380Y-16295180D01*
X101711904Y-15818990D02*
X102045237Y-15818990D01*
X102045237Y-15295180D02*
X102045237Y-16295180D01*
X102045237Y-16295180D02*
X101569047Y-16295180D01*
X100854761Y-15818990D02*
X101188094Y-15818990D01*
X101188094Y-15295180D02*
X101188094Y-16295180D01*
X101188094Y-16295180D02*
X100711904Y-16295180D01*
X132607143Y-58454819D02*
X132940476Y-59454819D01*
X132940476Y-59454819D02*
X133273809Y-58454819D01*
X133940476Y-58931009D02*
X134083333Y-58978628D01*
X134083333Y-58978628D02*
X134130952Y-59026247D01*
X134130952Y-59026247D02*
X134178571Y-59121485D01*
X134178571Y-59121485D02*
X134178571Y-59264342D01*
X134178571Y-59264342D02*
X134130952Y-59359580D01*
X134130952Y-59359580D02*
X134083333Y-59407200D01*
X134083333Y-59407200D02*
X133988095Y-59454819D01*
X133988095Y-59454819D02*
X133607143Y-59454819D01*
X133607143Y-59454819D02*
X133607143Y-58454819D01*
X133607143Y-58454819D02*
X133940476Y-58454819D01*
X133940476Y-58454819D02*
X134035714Y-58502438D01*
X134035714Y-58502438D02*
X134083333Y-58550057D01*
X134083333Y-58550057D02*
X134130952Y-58645295D01*
X134130952Y-58645295D02*
X134130952Y-58740533D01*
X134130952Y-58740533D02*
X134083333Y-58835771D01*
X134083333Y-58835771D02*
X134035714Y-58883390D01*
X134035714Y-58883390D02*
X133940476Y-58931009D01*
X133940476Y-58931009D02*
X133607143Y-58931009D01*
X134559524Y-59169104D02*
X135035714Y-59169104D01*
X134464286Y-59454819D02*
X134797619Y-58454819D01*
X134797619Y-58454819D02*
X135130952Y-59454819D01*
X135321429Y-58454819D02*
X135892857Y-58454819D01*
X135607143Y-59454819D02*
X135607143Y-58454819D01*
X136940476Y-58407200D02*
X136083334Y-59692914D01*
X137226191Y-58550057D02*
X137273810Y-58502438D01*
X137273810Y-58502438D02*
X137369048Y-58454819D01*
X137369048Y-58454819D02*
X137607143Y-58454819D01*
X137607143Y-58454819D02*
X137702381Y-58502438D01*
X137702381Y-58502438D02*
X137750000Y-58550057D01*
X137750000Y-58550057D02*
X137797619Y-58645295D01*
X137797619Y-58645295D02*
X137797619Y-58740533D01*
X137797619Y-58740533D02*
X137750000Y-58883390D01*
X137750000Y-58883390D02*
X137178572Y-59454819D01*
X137178572Y-59454819D02*
X137797619Y-59454819D01*
X123614285Y-15390419D02*
X123661904Y-15342800D01*
X123661904Y-15342800D02*
X123804761Y-15295180D01*
X123804761Y-15295180D02*
X123899999Y-15295180D01*
X123899999Y-15295180D02*
X124042856Y-15342800D01*
X124042856Y-15342800D02*
X124138094Y-15438038D01*
X124138094Y-15438038D02*
X124185713Y-15533276D01*
X124185713Y-15533276D02*
X124233332Y-15723752D01*
X124233332Y-15723752D02*
X124233332Y-15866609D01*
X124233332Y-15866609D02*
X124185713Y-16057085D01*
X124185713Y-16057085D02*
X124138094Y-16152323D01*
X124138094Y-16152323D02*
X124042856Y-16247561D01*
X124042856Y-16247561D02*
X123899999Y-16295180D01*
X123899999Y-16295180D02*
X123804761Y-16295180D01*
X123804761Y-16295180D02*
X123661904Y-16247561D01*
X123661904Y-16247561D02*
X123614285Y-16199942D01*
X123185713Y-15295180D02*
X123185713Y-16295180D01*
X123185713Y-15818990D02*
X122614285Y-15818990D01*
X122614285Y-15295180D02*
X122614285Y-16295180D01*
X121614285Y-16247561D02*
X121709523Y-16295180D01*
X121709523Y-16295180D02*
X121852380Y-16295180D01*
X121852380Y-16295180D02*
X121995237Y-16247561D01*
X121995237Y-16247561D02*
X122090475Y-16152323D01*
X122090475Y-16152323D02*
X122138094Y-16057085D01*
X122138094Y-16057085D02*
X122185713Y-15866609D01*
X122185713Y-15866609D02*
X122185713Y-15723752D01*
X122185713Y-15723752D02*
X122138094Y-15533276D01*
X122138094Y-15533276D02*
X122090475Y-15438038D01*
X122090475Y-15438038D02*
X121995237Y-15342800D01*
X121995237Y-15342800D02*
X121852380Y-15295180D01*
X121852380Y-15295180D02*
X121757142Y-15295180D01*
X121757142Y-15295180D02*
X121614285Y-15342800D01*
X121614285Y-15342800D02*
X121566666Y-15390419D01*
X121566666Y-15390419D02*
X121566666Y-15723752D01*
X121566666Y-15723752D02*
X121757142Y-15723752D01*
X124323809Y-16572800D02*
X121476190Y-16572800D01*
X140604762Y-33854819D02*
X140938095Y-34854819D01*
X140938095Y-34854819D02*
X141271428Y-33854819D01*
X141604762Y-34854819D02*
X141604762Y-33854819D01*
X142080952Y-34854819D02*
X142080952Y-33854819D01*
X142080952Y-33854819D02*
X142652380Y-34854819D01*
X142652380Y-34854819D02*
X142652380Y-33854819D01*
X114569047Y-16295180D02*
X114378571Y-16295180D01*
X114378571Y-16295180D02*
X114283333Y-16247561D01*
X114283333Y-16247561D02*
X114188095Y-16152323D01*
X114188095Y-16152323D02*
X114140476Y-15961847D01*
X114140476Y-15961847D02*
X114140476Y-15628514D01*
X114140476Y-15628514D02*
X114188095Y-15438038D01*
X114188095Y-15438038D02*
X114283333Y-15342800D01*
X114283333Y-15342800D02*
X114378571Y-15295180D01*
X114378571Y-15295180D02*
X114569047Y-15295180D01*
X114569047Y-15295180D02*
X114664285Y-15342800D01*
X114664285Y-15342800D02*
X114759523Y-15438038D01*
X114759523Y-15438038D02*
X114807142Y-15628514D01*
X114807142Y-15628514D02*
X114807142Y-15961847D01*
X114807142Y-15961847D02*
X114759523Y-16152323D01*
X114759523Y-16152323D02*
X114664285Y-16247561D01*
X114664285Y-16247561D02*
X114569047Y-16295180D01*
X113711904Y-15295180D02*
X113711904Y-16295180D01*
X113711904Y-16295180D02*
X113140476Y-15295180D01*
X113140476Y-15295180D02*
X113140476Y-16295180D01*
X118161904Y-15295180D02*
X118161904Y-16295180D01*
X118161904Y-16295180D02*
X117780952Y-16295180D01*
X117780952Y-16295180D02*
X117685714Y-16247561D01*
X117685714Y-16247561D02*
X117638095Y-16199942D01*
X117638095Y-16199942D02*
X117590476Y-16104704D01*
X117590476Y-16104704D02*
X117590476Y-15961847D01*
X117590476Y-15961847D02*
X117638095Y-15866609D01*
X117638095Y-15866609D02*
X117685714Y-15818990D01*
X117685714Y-15818990D02*
X117780952Y-15771371D01*
X117780952Y-15771371D02*
X118161904Y-15771371D01*
X116638095Y-16247561D02*
X116733333Y-16295180D01*
X116733333Y-16295180D02*
X116876190Y-16295180D01*
X116876190Y-16295180D02*
X117019047Y-16247561D01*
X117019047Y-16247561D02*
X117114285Y-16152323D01*
X117114285Y-16152323D02*
X117161904Y-16057085D01*
X117161904Y-16057085D02*
X117209523Y-15866609D01*
X117209523Y-15866609D02*
X117209523Y-15723752D01*
X117209523Y-15723752D02*
X117161904Y-15533276D01*
X117161904Y-15533276D02*
X117114285Y-15438038D01*
X117114285Y-15438038D02*
X117019047Y-15342800D01*
X117019047Y-15342800D02*
X116876190Y-15295180D01*
X116876190Y-15295180D02*
X116780952Y-15295180D01*
X116780952Y-15295180D02*
X116638095Y-15342800D01*
X116638095Y-15342800D02*
X116590476Y-15390419D01*
X116590476Y-15390419D02*
X116590476Y-15723752D01*
X116590476Y-15723752D02*
X116780952Y-15723752D01*
X118300000Y-16572800D02*
X116500000Y-16572800D01*
X133738095Y-56954819D02*
X134309523Y-56954819D01*
X134023809Y-57954819D02*
X134023809Y-56954819D01*
X134642857Y-57954819D02*
X134642857Y-56954819D01*
X134642857Y-56954819D02*
X135023809Y-56954819D01*
X135023809Y-56954819D02*
X135119047Y-57002438D01*
X135119047Y-57002438D02*
X135166666Y-57050057D01*
X135166666Y-57050057D02*
X135214285Y-57145295D01*
X135214285Y-57145295D02*
X135214285Y-57288152D01*
X135214285Y-57288152D02*
X135166666Y-57383390D01*
X135166666Y-57383390D02*
X135119047Y-57431009D01*
X135119047Y-57431009D02*
X135023809Y-57478628D01*
X135023809Y-57478628D02*
X134642857Y-57478628D01*
X135595238Y-57050057D02*
X135642857Y-57002438D01*
X135642857Y-57002438D02*
X135738095Y-56954819D01*
X135738095Y-56954819D02*
X135976190Y-56954819D01*
X135976190Y-56954819D02*
X136071428Y-57002438D01*
X136071428Y-57002438D02*
X136119047Y-57050057D01*
X136119047Y-57050057D02*
X136166666Y-57145295D01*
X136166666Y-57145295D02*
X136166666Y-57240533D01*
X136166666Y-57240533D02*
X136119047Y-57383390D01*
X136119047Y-57383390D02*
X135547619Y-57954819D01*
X135547619Y-57954819D02*
X136166666Y-57954819D01*
X109404819Y-37833333D02*
X110119104Y-37833333D01*
X110119104Y-37833333D02*
X110261961Y-37880952D01*
X110261961Y-37880952D02*
X110357200Y-37976190D01*
X110357200Y-37976190D02*
X110404819Y-38119047D01*
X110404819Y-38119047D02*
X110404819Y-38214285D01*
X110404819Y-37357142D02*
X109404819Y-37357142D01*
X109404819Y-37357142D02*
X109404819Y-36976190D01*
X109404819Y-36976190D02*
X109452438Y-36880952D01*
X109452438Y-36880952D02*
X109500057Y-36833333D01*
X109500057Y-36833333D02*
X109595295Y-36785714D01*
X109595295Y-36785714D02*
X109738152Y-36785714D01*
X109738152Y-36785714D02*
X109833390Y-36833333D01*
X109833390Y-36833333D02*
X109881009Y-36880952D01*
X109881009Y-36880952D02*
X109928628Y-36976190D01*
X109928628Y-36976190D02*
X109928628Y-37357142D01*
X109833390Y-36214285D02*
X109785771Y-36309523D01*
X109785771Y-36309523D02*
X109738152Y-36357142D01*
X109738152Y-36357142D02*
X109642914Y-36404761D01*
X109642914Y-36404761D02*
X109595295Y-36404761D01*
X109595295Y-36404761D02*
X109500057Y-36357142D01*
X109500057Y-36357142D02*
X109452438Y-36309523D01*
X109452438Y-36309523D02*
X109404819Y-36214285D01*
X109404819Y-36214285D02*
X109404819Y-36023809D01*
X109404819Y-36023809D02*
X109452438Y-35928571D01*
X109452438Y-35928571D02*
X109500057Y-35880952D01*
X109500057Y-35880952D02*
X109595295Y-35833333D01*
X109595295Y-35833333D02*
X109642914Y-35833333D01*
X109642914Y-35833333D02*
X109738152Y-35880952D01*
X109738152Y-35880952D02*
X109785771Y-35928571D01*
X109785771Y-35928571D02*
X109833390Y-36023809D01*
X109833390Y-36023809D02*
X109833390Y-36214285D01*
X109833390Y-36214285D02*
X109881009Y-36309523D01*
X109881009Y-36309523D02*
X109928628Y-36357142D01*
X109928628Y-36357142D02*
X110023866Y-36404761D01*
X110023866Y-36404761D02*
X110214342Y-36404761D01*
X110214342Y-36404761D02*
X110309580Y-36357142D01*
X110309580Y-36357142D02*
X110357200Y-36309523D01*
X110357200Y-36309523D02*
X110404819Y-36214285D01*
X110404819Y-36214285D02*
X110404819Y-36023809D01*
X110404819Y-36023809D02*
X110357200Y-35928571D01*
X110357200Y-35928571D02*
X110309580Y-35880952D01*
X110309580Y-35880952D02*
X110214342Y-35833333D01*
X110214342Y-35833333D02*
X110023866Y-35833333D01*
X110023866Y-35833333D02*
X109928628Y-35880952D01*
X109928628Y-35880952D02*
X109881009Y-35928571D01*
X109881009Y-35928571D02*
X109833390Y-36023809D01*
X107666009Y-46138333D02*
X107666009Y-46471666D01*
X108189819Y-46471666D02*
X107189819Y-46471666D01*
X107189819Y-46471666D02*
X107189819Y-45995476D01*
X108189819Y-45090714D02*
X108189819Y-45662142D01*
X108189819Y-45376428D02*
X107189819Y-45376428D01*
X107189819Y-45376428D02*
X107332676Y-45471666D01*
X107332676Y-45471666D02*
X107427914Y-45566904D01*
X107427914Y-45566904D02*
X107475533Y-45662142D01*
X148738095Y-51854819D02*
X148738095Y-50854819D01*
X148738095Y-51331009D02*
X149309523Y-51331009D01*
X149309523Y-51854819D02*
X149309523Y-50854819D01*
X150214285Y-51188152D02*
X150214285Y-51854819D01*
X149976190Y-50807200D02*
X149738095Y-51521485D01*
X149738095Y-51521485D02*
X150357142Y-51521485D01*
X18738095Y-16354819D02*
X18738095Y-15354819D01*
X18738095Y-15831009D02*
X19309523Y-15831009D01*
X19309523Y-16354819D02*
X19309523Y-15354819D01*
X20309523Y-16354819D02*
X19738095Y-16354819D01*
X20023809Y-16354819D02*
X20023809Y-15354819D01*
X20023809Y-15354819D02*
X19928571Y-15497676D01*
X19928571Y-15497676D02*
X19833333Y-15592914D01*
X19833333Y-15592914D02*
X19738095Y-15640533D01*
X107792800Y-18854295D02*
X107745180Y-18997152D01*
X107745180Y-18997152D02*
X107745180Y-19235247D01*
X107745180Y-19235247D02*
X107792800Y-19330485D01*
X107792800Y-19330485D02*
X107840419Y-19378104D01*
X107840419Y-19378104D02*
X107935657Y-19425723D01*
X107935657Y-19425723D02*
X108030895Y-19425723D01*
X108030895Y-19425723D02*
X108126133Y-19378104D01*
X108126133Y-19378104D02*
X108173752Y-19330485D01*
X108173752Y-19330485D02*
X108221371Y-19235247D01*
X108221371Y-19235247D02*
X108268990Y-19044771D01*
X108268990Y-19044771D02*
X108316609Y-18949533D01*
X108316609Y-18949533D02*
X108364228Y-18901914D01*
X108364228Y-18901914D02*
X108459466Y-18854295D01*
X108459466Y-18854295D02*
X108554704Y-18854295D01*
X108554704Y-18854295D02*
X108649942Y-18901914D01*
X108649942Y-18901914D02*
X108697561Y-18949533D01*
X108697561Y-18949533D02*
X108745180Y-19044771D01*
X108745180Y-19044771D02*
X108745180Y-19282866D01*
X108745180Y-19282866D02*
X108697561Y-19425723D01*
X107745180Y-20378104D02*
X107745180Y-19806676D01*
X107745180Y-20092390D02*
X108745180Y-20092390D01*
X108745180Y-20092390D02*
X108602323Y-19997152D01*
X108602323Y-19997152D02*
X108507085Y-19901914D01*
X108507085Y-19901914D02*
X108459466Y-19806676D01*
X112946980Y-16746000D02*
X112708885Y-16746000D01*
X112804123Y-16507905D02*
X112708885Y-16746000D01*
X112708885Y-16746000D02*
X112804123Y-16984095D01*
X112518409Y-16603143D02*
X112708885Y-16746000D01*
X112708885Y-16746000D02*
X112518409Y-16888857D01*
X111856619Y-16745999D02*
X112094714Y-16745999D01*
X111999476Y-16984094D02*
X112094714Y-16745999D01*
X112094714Y-16745999D02*
X111999476Y-16507904D01*
X112285190Y-16888856D02*
X112094714Y-16745999D01*
X112094714Y-16745999D02*
X112285190Y-16603142D01*
X124424819Y-25666666D02*
X123948628Y-25999999D01*
X124424819Y-26238094D02*
X123424819Y-26238094D01*
X123424819Y-26238094D02*
X123424819Y-25857142D01*
X123424819Y-25857142D02*
X123472438Y-25761904D01*
X123472438Y-25761904D02*
X123520057Y-25714285D01*
X123520057Y-25714285D02*
X123615295Y-25666666D01*
X123615295Y-25666666D02*
X123758152Y-25666666D01*
X123758152Y-25666666D02*
X123853390Y-25714285D01*
X123853390Y-25714285D02*
X123901009Y-25761904D01*
X123901009Y-25761904D02*
X123948628Y-25857142D01*
X123948628Y-25857142D02*
X123948628Y-26238094D01*
X123520057Y-25285713D02*
X123472438Y-25238094D01*
X123472438Y-25238094D02*
X123424819Y-25142856D01*
X123424819Y-25142856D02*
X123424819Y-24904761D01*
X123424819Y-24904761D02*
X123472438Y-24809523D01*
X123472438Y-24809523D02*
X123520057Y-24761904D01*
X123520057Y-24761904D02*
X123615295Y-24714285D01*
X123615295Y-24714285D02*
X123710533Y-24714285D01*
X123710533Y-24714285D02*
X123853390Y-24761904D01*
X123853390Y-24761904D02*
X124424819Y-25333332D01*
X124424819Y-25333332D02*
X124424819Y-24714285D01*
X87949285Y-36121009D02*
X88092142Y-36168628D01*
X88092142Y-36168628D02*
X88139761Y-36216247D01*
X88139761Y-36216247D02*
X88187380Y-36311485D01*
X88187380Y-36311485D02*
X88187380Y-36454342D01*
X88187380Y-36454342D02*
X88139761Y-36549580D01*
X88139761Y-36549580D02*
X88092142Y-36597200D01*
X88092142Y-36597200D02*
X87996904Y-36644819D01*
X87996904Y-36644819D02*
X87615952Y-36644819D01*
X87615952Y-36644819D02*
X87615952Y-35644819D01*
X87615952Y-35644819D02*
X87949285Y-35644819D01*
X87949285Y-35644819D02*
X88044523Y-35692438D01*
X88044523Y-35692438D02*
X88092142Y-35740057D01*
X88092142Y-35740057D02*
X88139761Y-35835295D01*
X88139761Y-35835295D02*
X88139761Y-35930533D01*
X88139761Y-35930533D02*
X88092142Y-36025771D01*
X88092142Y-36025771D02*
X88044523Y-36073390D01*
X88044523Y-36073390D02*
X87949285Y-36121009D01*
X87949285Y-36121009D02*
X87615952Y-36121009D01*
X88473095Y-35644819D02*
X89044523Y-35644819D01*
X88758809Y-36644819D02*
X88758809Y-35644819D01*
X89330238Y-35740057D02*
X89377857Y-35692438D01*
X89377857Y-35692438D02*
X89473095Y-35644819D01*
X89473095Y-35644819D02*
X89711190Y-35644819D01*
X89711190Y-35644819D02*
X89806428Y-35692438D01*
X89806428Y-35692438D02*
X89854047Y-35740057D01*
X89854047Y-35740057D02*
X89901666Y-35835295D01*
X89901666Y-35835295D02*
X89901666Y-35930533D01*
X89901666Y-35930533D02*
X89854047Y-36073390D01*
X89854047Y-36073390D02*
X89282619Y-36644819D01*
X89282619Y-36644819D02*
X89901666Y-36644819D01*
X87949285Y-59121009D02*
X88092142Y-59168628D01*
X88092142Y-59168628D02*
X88139761Y-59216247D01*
X88139761Y-59216247D02*
X88187380Y-59311485D01*
X88187380Y-59311485D02*
X88187380Y-59454342D01*
X88187380Y-59454342D02*
X88139761Y-59549580D01*
X88139761Y-59549580D02*
X88092142Y-59597200D01*
X88092142Y-59597200D02*
X87996904Y-59644819D01*
X87996904Y-59644819D02*
X87615952Y-59644819D01*
X87615952Y-59644819D02*
X87615952Y-58644819D01*
X87615952Y-58644819D02*
X87949285Y-58644819D01*
X87949285Y-58644819D02*
X88044523Y-58692438D01*
X88044523Y-58692438D02*
X88092142Y-58740057D01*
X88092142Y-58740057D02*
X88139761Y-58835295D01*
X88139761Y-58835295D02*
X88139761Y-58930533D01*
X88139761Y-58930533D02*
X88092142Y-59025771D01*
X88092142Y-59025771D02*
X88044523Y-59073390D01*
X88044523Y-59073390D02*
X87949285Y-59121009D01*
X87949285Y-59121009D02*
X87615952Y-59121009D01*
X88473095Y-58644819D02*
X89044523Y-58644819D01*
X88758809Y-59644819D02*
X88758809Y-58644819D01*
X89901666Y-59644819D02*
X89330238Y-59644819D01*
X89615952Y-59644819D02*
X89615952Y-58644819D01*
X89615952Y-58644819D02*
X89520714Y-58787676D01*
X89520714Y-58787676D02*
X89425476Y-58882914D01*
X89425476Y-58882914D02*
X89330238Y-58930533D01*
X124238095Y-44004819D02*
X124238095Y-44814342D01*
X124238095Y-44814342D02*
X124285714Y-44909580D01*
X124285714Y-44909580D02*
X124333333Y-44957200D01*
X124333333Y-44957200D02*
X124428571Y-45004819D01*
X124428571Y-45004819D02*
X124619047Y-45004819D01*
X124619047Y-45004819D02*
X124714285Y-44957200D01*
X124714285Y-44957200D02*
X124761904Y-44909580D01*
X124761904Y-44909580D02*
X124809523Y-44814342D01*
X124809523Y-44814342D02*
X124809523Y-44004819D01*
X125761904Y-44004819D02*
X125285714Y-44004819D01*
X125285714Y-44004819D02*
X125238095Y-44481009D01*
X125238095Y-44481009D02*
X125285714Y-44433390D01*
X125285714Y-44433390D02*
X125380952Y-44385771D01*
X125380952Y-44385771D02*
X125619047Y-44385771D01*
X125619047Y-44385771D02*
X125714285Y-44433390D01*
X125714285Y-44433390D02*
X125761904Y-44481009D01*
X125761904Y-44481009D02*
X125809523Y-44576247D01*
X125809523Y-44576247D02*
X125809523Y-44814342D01*
X125809523Y-44814342D02*
X125761904Y-44909580D01*
X125761904Y-44909580D02*
X125714285Y-44957200D01*
X125714285Y-44957200D02*
X125619047Y-45004819D01*
X125619047Y-45004819D02*
X125380952Y-45004819D01*
X125380952Y-45004819D02*
X125285714Y-44957200D01*
X125285714Y-44957200D02*
X125238095Y-44909580D01*
X127654819Y-38833333D02*
X128369104Y-38833333D01*
X128369104Y-38833333D02*
X128511961Y-38880952D01*
X128511961Y-38880952D02*
X128607200Y-38976190D01*
X128607200Y-38976190D02*
X128654819Y-39119047D01*
X128654819Y-39119047D02*
X128654819Y-39214285D01*
X128654819Y-38357142D02*
X127654819Y-38357142D01*
X127654819Y-38357142D02*
X127654819Y-37976190D01*
X127654819Y-37976190D02*
X127702438Y-37880952D01*
X127702438Y-37880952D02*
X127750057Y-37833333D01*
X127750057Y-37833333D02*
X127845295Y-37785714D01*
X127845295Y-37785714D02*
X127988152Y-37785714D01*
X127988152Y-37785714D02*
X128083390Y-37833333D01*
X128083390Y-37833333D02*
X128131009Y-37880952D01*
X128131009Y-37880952D02*
X128178628Y-37976190D01*
X128178628Y-37976190D02*
X128178628Y-38357142D01*
X128654819Y-36833333D02*
X128654819Y-37404761D01*
X128654819Y-37119047D02*
X127654819Y-37119047D01*
X127654819Y-37119047D02*
X127797676Y-37214285D01*
X127797676Y-37214285D02*
X127892914Y-37309523D01*
X127892914Y-37309523D02*
X127940533Y-37404761D01*
X148738095Y-16354819D02*
X148738095Y-15354819D01*
X148738095Y-15831009D02*
X149309523Y-15831009D01*
X149309523Y-16354819D02*
X149309523Y-15354819D01*
X149690476Y-15354819D02*
X150309523Y-15354819D01*
X150309523Y-15354819D02*
X149976190Y-15735771D01*
X149976190Y-15735771D02*
X150119047Y-15735771D01*
X150119047Y-15735771D02*
X150214285Y-15783390D01*
X150214285Y-15783390D02*
X150261904Y-15831009D01*
X150261904Y-15831009D02*
X150309523Y-15926247D01*
X150309523Y-15926247D02*
X150309523Y-16164342D01*
X150309523Y-16164342D02*
X150261904Y-16259580D01*
X150261904Y-16259580D02*
X150214285Y-16307200D01*
X150214285Y-16307200D02*
X150119047Y-16354819D01*
X150119047Y-16354819D02*
X149833333Y-16354819D01*
X149833333Y-16354819D02*
X149738095Y-16307200D01*
X149738095Y-16307200D02*
X149690476Y-16259580D01*
X122889580Y-27366666D02*
X122937200Y-27414285D01*
X122937200Y-27414285D02*
X122984819Y-27557142D01*
X122984819Y-27557142D02*
X122984819Y-27652380D01*
X122984819Y-27652380D02*
X122937200Y-27795237D01*
X122937200Y-27795237D02*
X122841961Y-27890475D01*
X122841961Y-27890475D02*
X122746723Y-27938094D01*
X122746723Y-27938094D02*
X122556247Y-27985713D01*
X122556247Y-27985713D02*
X122413390Y-27985713D01*
X122413390Y-27985713D02*
X122222914Y-27938094D01*
X122222914Y-27938094D02*
X122127676Y-27890475D01*
X122127676Y-27890475D02*
X122032438Y-27795237D01*
X122032438Y-27795237D02*
X121984819Y-27652380D01*
X121984819Y-27652380D02*
X121984819Y-27557142D01*
X121984819Y-27557142D02*
X122032438Y-27414285D01*
X122032438Y-27414285D02*
X122080057Y-27366666D01*
X122080057Y-26985713D02*
X122032438Y-26938094D01*
X122032438Y-26938094D02*
X121984819Y-26842856D01*
X121984819Y-26842856D02*
X121984819Y-26604761D01*
X121984819Y-26604761D02*
X122032438Y-26509523D01*
X122032438Y-26509523D02*
X122080057Y-26461904D01*
X122080057Y-26461904D02*
X122175295Y-26414285D01*
X122175295Y-26414285D02*
X122270533Y-26414285D01*
X122270533Y-26414285D02*
X122413390Y-26461904D01*
X122413390Y-26461904D02*
X122984819Y-27033332D01*
X122984819Y-27033332D02*
X122984819Y-26414285D01*
X121258333Y-33159580D02*
X121210714Y-33207200D01*
X121210714Y-33207200D02*
X121067857Y-33254819D01*
X121067857Y-33254819D02*
X120972619Y-33254819D01*
X120972619Y-33254819D02*
X120829762Y-33207200D01*
X120829762Y-33207200D02*
X120734524Y-33111961D01*
X120734524Y-33111961D02*
X120686905Y-33016723D01*
X120686905Y-33016723D02*
X120639286Y-32826247D01*
X120639286Y-32826247D02*
X120639286Y-32683390D01*
X120639286Y-32683390D02*
X120686905Y-32492914D01*
X120686905Y-32492914D02*
X120734524Y-32397676D01*
X120734524Y-32397676D02*
X120829762Y-32302438D01*
X120829762Y-32302438D02*
X120972619Y-32254819D01*
X120972619Y-32254819D02*
X121067857Y-32254819D01*
X121067857Y-32254819D02*
X121210714Y-32302438D01*
X121210714Y-32302438D02*
X121258333Y-32350057D01*
X122210714Y-33254819D02*
X121639286Y-33254819D01*
X121925000Y-33254819D02*
X121925000Y-32254819D01*
X121925000Y-32254819D02*
X121829762Y-32397676D01*
X121829762Y-32397676D02*
X121734524Y-32492914D01*
X121734524Y-32492914D02*
X121639286Y-32540533D01*
X121884819Y-36166666D02*
X121408628Y-36499999D01*
X121884819Y-36738094D02*
X120884819Y-36738094D01*
X120884819Y-36738094D02*
X120884819Y-36357142D01*
X120884819Y-36357142D02*
X120932438Y-36261904D01*
X120932438Y-36261904D02*
X120980057Y-36214285D01*
X120980057Y-36214285D02*
X121075295Y-36166666D01*
X121075295Y-36166666D02*
X121218152Y-36166666D01*
X121218152Y-36166666D02*
X121313390Y-36214285D01*
X121313390Y-36214285D02*
X121361009Y-36261904D01*
X121361009Y-36261904D02*
X121408628Y-36357142D01*
X121408628Y-36357142D02*
X121408628Y-36738094D01*
X121884819Y-35214285D02*
X121884819Y-35785713D01*
X121884819Y-35499999D02*
X120884819Y-35499999D01*
X120884819Y-35499999D02*
X121027676Y-35595237D01*
X121027676Y-35595237D02*
X121122914Y-35690475D01*
X121122914Y-35690475D02*
X121170533Y-35785713D01*
X119789580Y-47417857D02*
X119837200Y-47465476D01*
X119837200Y-47465476D02*
X119884819Y-47608333D01*
X119884819Y-47608333D02*
X119884819Y-47703571D01*
X119884819Y-47703571D02*
X119837200Y-47846428D01*
X119837200Y-47846428D02*
X119741961Y-47941666D01*
X119741961Y-47941666D02*
X119646723Y-47989285D01*
X119646723Y-47989285D02*
X119456247Y-48036904D01*
X119456247Y-48036904D02*
X119313390Y-48036904D01*
X119313390Y-48036904D02*
X119122914Y-47989285D01*
X119122914Y-47989285D02*
X119027676Y-47941666D01*
X119027676Y-47941666D02*
X118932438Y-47846428D01*
X118932438Y-47846428D02*
X118884819Y-47703571D01*
X118884819Y-47703571D02*
X118884819Y-47608333D01*
X118884819Y-47608333D02*
X118932438Y-47465476D01*
X118932438Y-47465476D02*
X118980057Y-47417857D01*
X119884819Y-46465476D02*
X119884819Y-47036904D01*
X119884819Y-46751190D02*
X118884819Y-46751190D01*
X118884819Y-46751190D02*
X119027676Y-46846428D01*
X119027676Y-46846428D02*
X119122914Y-46941666D01*
X119122914Y-46941666D02*
X119170533Y-47036904D01*
X118884819Y-46132142D02*
X118884819Y-45465476D01*
X118884819Y-45465476D02*
X119884819Y-45894047D01*
X114804819Y-22333333D02*
X115519104Y-22333333D01*
X115519104Y-22333333D02*
X115661961Y-22380952D01*
X115661961Y-22380952D02*
X115757200Y-22476190D01*
X115757200Y-22476190D02*
X115804819Y-22619047D01*
X115804819Y-22619047D02*
X115804819Y-22714285D01*
X115804819Y-21857142D02*
X114804819Y-21857142D01*
X114804819Y-21857142D02*
X114804819Y-21476190D01*
X114804819Y-21476190D02*
X114852438Y-21380952D01*
X114852438Y-21380952D02*
X114900057Y-21333333D01*
X114900057Y-21333333D02*
X114995295Y-21285714D01*
X114995295Y-21285714D02*
X115138152Y-21285714D01*
X115138152Y-21285714D02*
X115233390Y-21333333D01*
X115233390Y-21333333D02*
X115281009Y-21380952D01*
X115281009Y-21380952D02*
X115328628Y-21476190D01*
X115328628Y-21476190D02*
X115328628Y-21857142D01*
X114804819Y-20952380D02*
X114804819Y-20333333D01*
X114804819Y-20333333D02*
X115185771Y-20666666D01*
X115185771Y-20666666D02*
X115185771Y-20523809D01*
X115185771Y-20523809D02*
X115233390Y-20428571D01*
X115233390Y-20428571D02*
X115281009Y-20380952D01*
X115281009Y-20380952D02*
X115376247Y-20333333D01*
X115376247Y-20333333D02*
X115614342Y-20333333D01*
X115614342Y-20333333D02*
X115709580Y-20380952D01*
X115709580Y-20380952D02*
X115757200Y-20428571D01*
X115757200Y-20428571D02*
X115804819Y-20523809D01*
X115804819Y-20523809D02*
X115804819Y-20809523D01*
X115804819Y-20809523D02*
X115757200Y-20904761D01*
X115757200Y-20904761D02*
X115709580Y-20952380D01*
X140438095Y-35106819D02*
X141009523Y-35106819D01*
X140723809Y-36106819D02*
X140723809Y-35106819D01*
X141342857Y-36106819D02*
X141342857Y-35106819D01*
X141342857Y-35106819D02*
X141723809Y-35106819D01*
X141723809Y-35106819D02*
X141819047Y-35154438D01*
X141819047Y-35154438D02*
X141866666Y-35202057D01*
X141866666Y-35202057D02*
X141914285Y-35297295D01*
X141914285Y-35297295D02*
X141914285Y-35440152D01*
X141914285Y-35440152D02*
X141866666Y-35535390D01*
X141866666Y-35535390D02*
X141819047Y-35583009D01*
X141819047Y-35583009D02*
X141723809Y-35630628D01*
X141723809Y-35630628D02*
X141342857Y-35630628D01*
X142866666Y-36106819D02*
X142295238Y-36106819D01*
X142580952Y-36106819D02*
X142580952Y-35106819D01*
X142580952Y-35106819D02*
X142485714Y-35249676D01*
X142485714Y-35249676D02*
X142390476Y-35344914D01*
X142390476Y-35344914D02*
X142295238Y-35392533D01*
X121284819Y-18238094D02*
X120284819Y-18238094D01*
X120284819Y-18238094D02*
X120284819Y-17999999D01*
X120284819Y-17999999D02*
X120332438Y-17857142D01*
X120332438Y-17857142D02*
X120427676Y-17761904D01*
X120427676Y-17761904D02*
X120522914Y-17714285D01*
X120522914Y-17714285D02*
X120713390Y-17666666D01*
X120713390Y-17666666D02*
X120856247Y-17666666D01*
X120856247Y-17666666D02*
X121046723Y-17714285D01*
X121046723Y-17714285D02*
X121141961Y-17761904D01*
X121141961Y-17761904D02*
X121237200Y-17857142D01*
X121237200Y-17857142D02*
X121284819Y-17999999D01*
X121284819Y-17999999D02*
X121284819Y-18238094D01*
X120380057Y-17285713D02*
X120332438Y-17238094D01*
X120332438Y-17238094D02*
X120284819Y-17142856D01*
X120284819Y-17142856D02*
X120284819Y-16904761D01*
X120284819Y-16904761D02*
X120332438Y-16809523D01*
X120332438Y-16809523D02*
X120380057Y-16761904D01*
X120380057Y-16761904D02*
X120475295Y-16714285D01*
X120475295Y-16714285D02*
X120570533Y-16714285D01*
X120570533Y-16714285D02*
X120713390Y-16761904D01*
X120713390Y-16761904D02*
X121284819Y-17333332D01*
X121284819Y-17333332D02*
X121284819Y-16714285D01*
X121452380Y-41254819D02*
X121119047Y-40778628D01*
X120880952Y-41254819D02*
X120880952Y-40254819D01*
X120880952Y-40254819D02*
X121261904Y-40254819D01*
X121261904Y-40254819D02*
X121357142Y-40302438D01*
X121357142Y-40302438D02*
X121404761Y-40350057D01*
X121404761Y-40350057D02*
X121452380Y-40445295D01*
X121452380Y-40445295D02*
X121452380Y-40588152D01*
X121452380Y-40588152D02*
X121404761Y-40683390D01*
X121404761Y-40683390D02*
X121357142Y-40731009D01*
X121357142Y-40731009D02*
X121261904Y-40778628D01*
X121261904Y-40778628D02*
X120880952Y-40778628D01*
X121738095Y-40254819D02*
X122309523Y-40254819D01*
X122023809Y-41254819D02*
X122023809Y-40254819D01*
X123166666Y-41254819D02*
X122595238Y-41254819D01*
X122880952Y-41254819D02*
X122880952Y-40254819D01*
X122880952Y-40254819D02*
X122785714Y-40397676D01*
X122785714Y-40397676D02*
X122690476Y-40492914D01*
X122690476Y-40492914D02*
X122595238Y-40540533D01*
X131616666Y-29154819D02*
X131616666Y-29869104D01*
X131616666Y-29869104D02*
X131569047Y-30011961D01*
X131569047Y-30011961D02*
X131473809Y-30107200D01*
X131473809Y-30107200D02*
X131330952Y-30154819D01*
X131330952Y-30154819D02*
X131235714Y-30154819D01*
X132616666Y-30154819D02*
X132045238Y-30154819D01*
X132330952Y-30154819D02*
X132330952Y-29154819D01*
X132330952Y-29154819D02*
X132235714Y-29297676D01*
X132235714Y-29297676D02*
X132140476Y-29392914D01*
X132140476Y-29392914D02*
X132045238Y-29440533D01*
X124988095Y-38417419D02*
X124988095Y-39226942D01*
X124988095Y-39226942D02*
X125035714Y-39322180D01*
X125035714Y-39322180D02*
X125083333Y-39369800D01*
X125083333Y-39369800D02*
X125178571Y-39417419D01*
X125178571Y-39417419D02*
X125369047Y-39417419D01*
X125369047Y-39417419D02*
X125464285Y-39369800D01*
X125464285Y-39369800D02*
X125511904Y-39322180D01*
X125511904Y-39322180D02*
X125559523Y-39226942D01*
X125559523Y-39226942D02*
X125559523Y-38417419D01*
X126559523Y-39417419D02*
X125988095Y-39417419D01*
X126273809Y-39417419D02*
X126273809Y-38417419D01*
X126273809Y-38417419D02*
X126178571Y-38560276D01*
X126178571Y-38560276D02*
X126083333Y-38655514D01*
X126083333Y-38655514D02*
X125988095Y-38703133D01*
X118424819Y-25666666D02*
X117948628Y-25999999D01*
X118424819Y-26238094D02*
X117424819Y-26238094D01*
X117424819Y-26238094D02*
X117424819Y-25857142D01*
X117424819Y-25857142D02*
X117472438Y-25761904D01*
X117472438Y-25761904D02*
X117520057Y-25714285D01*
X117520057Y-25714285D02*
X117615295Y-25666666D01*
X117615295Y-25666666D02*
X117758152Y-25666666D01*
X117758152Y-25666666D02*
X117853390Y-25714285D01*
X117853390Y-25714285D02*
X117901009Y-25761904D01*
X117901009Y-25761904D02*
X117948628Y-25857142D01*
X117948628Y-25857142D02*
X117948628Y-26238094D01*
X117424819Y-25333332D02*
X117424819Y-24714285D01*
X117424819Y-24714285D02*
X117805771Y-25047618D01*
X117805771Y-25047618D02*
X117805771Y-24904761D01*
X117805771Y-24904761D02*
X117853390Y-24809523D01*
X117853390Y-24809523D02*
X117901009Y-24761904D01*
X117901009Y-24761904D02*
X117996247Y-24714285D01*
X117996247Y-24714285D02*
X118234342Y-24714285D01*
X118234342Y-24714285D02*
X118329580Y-24761904D01*
X118329580Y-24761904D02*
X118377200Y-24809523D01*
X118377200Y-24809523D02*
X118424819Y-24904761D01*
X118424819Y-24904761D02*
X118424819Y-25190475D01*
X118424819Y-25190475D02*
X118377200Y-25285713D01*
X118377200Y-25285713D02*
X118329580Y-25333332D01*
X120804819Y-22333333D02*
X121519104Y-22333333D01*
X121519104Y-22333333D02*
X121661961Y-22380952D01*
X121661961Y-22380952D02*
X121757200Y-22476190D01*
X121757200Y-22476190D02*
X121804819Y-22619047D01*
X121804819Y-22619047D02*
X121804819Y-22714285D01*
X121804819Y-21857142D02*
X120804819Y-21857142D01*
X120804819Y-21857142D02*
X120804819Y-21476190D01*
X120804819Y-21476190D02*
X120852438Y-21380952D01*
X120852438Y-21380952D02*
X120900057Y-21333333D01*
X120900057Y-21333333D02*
X120995295Y-21285714D01*
X120995295Y-21285714D02*
X121138152Y-21285714D01*
X121138152Y-21285714D02*
X121233390Y-21333333D01*
X121233390Y-21333333D02*
X121281009Y-21380952D01*
X121281009Y-21380952D02*
X121328628Y-21476190D01*
X121328628Y-21476190D02*
X121328628Y-21857142D01*
X120900057Y-20904761D02*
X120852438Y-20857142D01*
X120852438Y-20857142D02*
X120804819Y-20761904D01*
X120804819Y-20761904D02*
X120804819Y-20523809D01*
X120804819Y-20523809D02*
X120852438Y-20428571D01*
X120852438Y-20428571D02*
X120900057Y-20380952D01*
X120900057Y-20380952D02*
X120995295Y-20333333D01*
X120995295Y-20333333D02*
X121090533Y-20333333D01*
X121090533Y-20333333D02*
X121233390Y-20380952D01*
X121233390Y-20380952D02*
X121804819Y-20952380D01*
X121804819Y-20952380D02*
X121804819Y-20333333D01*
X127284819Y-18238094D02*
X126284819Y-18238094D01*
X126284819Y-18238094D02*
X126284819Y-17999999D01*
X126284819Y-17999999D02*
X126332438Y-17857142D01*
X126332438Y-17857142D02*
X126427676Y-17761904D01*
X126427676Y-17761904D02*
X126522914Y-17714285D01*
X126522914Y-17714285D02*
X126713390Y-17666666D01*
X126713390Y-17666666D02*
X126856247Y-17666666D01*
X126856247Y-17666666D02*
X127046723Y-17714285D01*
X127046723Y-17714285D02*
X127141961Y-17761904D01*
X127141961Y-17761904D02*
X127237200Y-17857142D01*
X127237200Y-17857142D02*
X127284819Y-17999999D01*
X127284819Y-17999999D02*
X127284819Y-18238094D01*
X127284819Y-16714285D02*
X127284819Y-17285713D01*
X127284819Y-16999999D02*
X126284819Y-16999999D01*
X126284819Y-16999999D02*
X126427676Y-17095237D01*
X126427676Y-17095237D02*
X126522914Y-17190475D01*
X126522914Y-17190475D02*
X126570533Y-17285713D01*
X107054819Y-39360713D02*
X107054819Y-38789285D01*
X108054819Y-39074999D02*
X107054819Y-39074999D01*
X108054819Y-38455951D02*
X107054819Y-38455951D01*
X107531009Y-38455951D02*
X107531009Y-37884523D01*
X108054819Y-37884523D02*
X107054819Y-37884523D01*
X108054819Y-36884523D02*
X108054819Y-37455951D01*
X108054819Y-37170237D02*
X107054819Y-37170237D01*
X107054819Y-37170237D02*
X107197676Y-37265475D01*
X107197676Y-37265475D02*
X107292914Y-37360713D01*
X107292914Y-37360713D02*
X107340533Y-37455951D01*
X141884819Y-47666666D02*
X141408628Y-47999999D01*
X141884819Y-48238094D02*
X140884819Y-48238094D01*
X140884819Y-48238094D02*
X140884819Y-47857142D01*
X140884819Y-47857142D02*
X140932438Y-47761904D01*
X140932438Y-47761904D02*
X140980057Y-47714285D01*
X140980057Y-47714285D02*
X141075295Y-47666666D01*
X141075295Y-47666666D02*
X141218152Y-47666666D01*
X141218152Y-47666666D02*
X141313390Y-47714285D01*
X141313390Y-47714285D02*
X141361009Y-47761904D01*
X141361009Y-47761904D02*
X141408628Y-47857142D01*
X141408628Y-47857142D02*
X141408628Y-48238094D01*
X141218152Y-46809523D02*
X141884819Y-46809523D01*
X140837200Y-47047618D02*
X141551485Y-47285713D01*
X141551485Y-47285713D02*
X141551485Y-46666666D01*
X141884819Y-52666666D02*
X141408628Y-52999999D01*
X141884819Y-53238094D02*
X140884819Y-53238094D01*
X140884819Y-53238094D02*
X140884819Y-52857142D01*
X140884819Y-52857142D02*
X140932438Y-52761904D01*
X140932438Y-52761904D02*
X140980057Y-52714285D01*
X140980057Y-52714285D02*
X141075295Y-52666666D01*
X141075295Y-52666666D02*
X141218152Y-52666666D01*
X141218152Y-52666666D02*
X141313390Y-52714285D01*
X141313390Y-52714285D02*
X141361009Y-52761904D01*
X141361009Y-52761904D02*
X141408628Y-52857142D01*
X141408628Y-52857142D02*
X141408628Y-53238094D01*
X140884819Y-51761904D02*
X140884819Y-52238094D01*
X140884819Y-52238094D02*
X141361009Y-52285713D01*
X141361009Y-52285713D02*
X141313390Y-52238094D01*
X141313390Y-52238094D02*
X141265771Y-52142856D01*
X141265771Y-52142856D02*
X141265771Y-51904761D01*
X141265771Y-51904761D02*
X141313390Y-51809523D01*
X141313390Y-51809523D02*
X141361009Y-51761904D01*
X141361009Y-51761904D02*
X141456247Y-51714285D01*
X141456247Y-51714285D02*
X141694342Y-51714285D01*
X141694342Y-51714285D02*
X141789580Y-51761904D01*
X141789580Y-51761904D02*
X141837200Y-51809523D01*
X141837200Y-51809523D02*
X141884819Y-51904761D01*
X141884819Y-51904761D02*
X141884819Y-52142856D01*
X141884819Y-52142856D02*
X141837200Y-52238094D01*
X141837200Y-52238094D02*
X141789580Y-52285713D01*
X131257142Y-33524819D02*
X130923809Y-33048628D01*
X130685714Y-33524819D02*
X130685714Y-32524819D01*
X130685714Y-32524819D02*
X131066666Y-32524819D01*
X131066666Y-32524819D02*
X131161904Y-32572438D01*
X131161904Y-32572438D02*
X131209523Y-32620057D01*
X131209523Y-32620057D02*
X131257142Y-32715295D01*
X131257142Y-32715295D02*
X131257142Y-32858152D01*
X131257142Y-32858152D02*
X131209523Y-32953390D01*
X131209523Y-32953390D02*
X131161904Y-33001009D01*
X131161904Y-33001009D02*
X131066666Y-33048628D01*
X131066666Y-33048628D02*
X130685714Y-33048628D01*
X132209523Y-33524819D02*
X131638095Y-33524819D01*
X131923809Y-33524819D02*
X131923809Y-32524819D01*
X131923809Y-32524819D02*
X131828571Y-32667676D01*
X131828571Y-32667676D02*
X131733333Y-32762914D01*
X131733333Y-32762914D02*
X131638095Y-32810533D01*
X133114285Y-32524819D02*
X132638095Y-32524819D01*
X132638095Y-32524819D02*
X132590476Y-33001009D01*
X132590476Y-33001009D02*
X132638095Y-32953390D01*
X132638095Y-32953390D02*
X132733333Y-32905771D01*
X132733333Y-32905771D02*
X132971428Y-32905771D01*
X132971428Y-32905771D02*
X133066666Y-32953390D01*
X133066666Y-32953390D02*
X133114285Y-33001009D01*
X133114285Y-33001009D02*
X133161904Y-33096247D01*
X133161904Y-33096247D02*
X133161904Y-33334342D01*
X133161904Y-33334342D02*
X133114285Y-33429580D01*
X133114285Y-33429580D02*
X133066666Y-33477200D01*
X133066666Y-33477200D02*
X132971428Y-33524819D01*
X132971428Y-33524819D02*
X132733333Y-33524819D01*
X132733333Y-33524819D02*
X132638095Y-33477200D01*
X132638095Y-33477200D02*
X132590476Y-33429580D01*
X18738095Y-51854819D02*
X18738095Y-50854819D01*
X18738095Y-51331009D02*
X19309523Y-51331009D01*
X19309523Y-51854819D02*
X19309523Y-50854819D01*
X19738095Y-50950057D02*
X19785714Y-50902438D01*
X19785714Y-50902438D02*
X19880952Y-50854819D01*
X19880952Y-50854819D02*
X20119047Y-50854819D01*
X20119047Y-50854819D02*
X20214285Y-50902438D01*
X20214285Y-50902438D02*
X20261904Y-50950057D01*
X20261904Y-50950057D02*
X20309523Y-51045295D01*
X20309523Y-51045295D02*
X20309523Y-51140533D01*
X20309523Y-51140533D02*
X20261904Y-51283390D01*
X20261904Y-51283390D02*
X19690476Y-51854819D01*
X19690476Y-51854819D02*
X20309523Y-51854819D01*
X131789580Y-47417857D02*
X131837200Y-47465476D01*
X131837200Y-47465476D02*
X131884819Y-47608333D01*
X131884819Y-47608333D02*
X131884819Y-47703571D01*
X131884819Y-47703571D02*
X131837200Y-47846428D01*
X131837200Y-47846428D02*
X131741961Y-47941666D01*
X131741961Y-47941666D02*
X131646723Y-47989285D01*
X131646723Y-47989285D02*
X131456247Y-48036904D01*
X131456247Y-48036904D02*
X131313390Y-48036904D01*
X131313390Y-48036904D02*
X131122914Y-47989285D01*
X131122914Y-47989285D02*
X131027676Y-47941666D01*
X131027676Y-47941666D02*
X130932438Y-47846428D01*
X130932438Y-47846428D02*
X130884819Y-47703571D01*
X130884819Y-47703571D02*
X130884819Y-47608333D01*
X130884819Y-47608333D02*
X130932438Y-47465476D01*
X130932438Y-47465476D02*
X130980057Y-47417857D01*
X131884819Y-46465476D02*
X131884819Y-47036904D01*
X131884819Y-46751190D02*
X130884819Y-46751190D01*
X130884819Y-46751190D02*
X131027676Y-46846428D01*
X131027676Y-46846428D02*
X131122914Y-46941666D01*
X131122914Y-46941666D02*
X131170533Y-47036904D01*
X131313390Y-45894047D02*
X131265771Y-45989285D01*
X131265771Y-45989285D02*
X131218152Y-46036904D01*
X131218152Y-46036904D02*
X131122914Y-46084523D01*
X131122914Y-46084523D02*
X131075295Y-46084523D01*
X131075295Y-46084523D02*
X130980057Y-46036904D01*
X130980057Y-46036904D02*
X130932438Y-45989285D01*
X130932438Y-45989285D02*
X130884819Y-45894047D01*
X130884819Y-45894047D02*
X130884819Y-45703571D01*
X130884819Y-45703571D02*
X130932438Y-45608333D01*
X130932438Y-45608333D02*
X130980057Y-45560714D01*
X130980057Y-45560714D02*
X131075295Y-45513095D01*
X131075295Y-45513095D02*
X131122914Y-45513095D01*
X131122914Y-45513095D02*
X131218152Y-45560714D01*
X131218152Y-45560714D02*
X131265771Y-45608333D01*
X131265771Y-45608333D02*
X131313390Y-45703571D01*
X131313390Y-45703571D02*
X131313390Y-45894047D01*
X131313390Y-45894047D02*
X131361009Y-45989285D01*
X131361009Y-45989285D02*
X131408628Y-46036904D01*
X131408628Y-46036904D02*
X131503866Y-46084523D01*
X131503866Y-46084523D02*
X131694342Y-46084523D01*
X131694342Y-46084523D02*
X131789580Y-46036904D01*
X131789580Y-46036904D02*
X131837200Y-45989285D01*
X131837200Y-45989285D02*
X131884819Y-45894047D01*
X131884819Y-45894047D02*
X131884819Y-45703571D01*
X131884819Y-45703571D02*
X131837200Y-45608333D01*
X131837200Y-45608333D02*
X131789580Y-45560714D01*
X131789580Y-45560714D02*
X131694342Y-45513095D01*
X131694342Y-45513095D02*
X131503866Y-45513095D01*
X131503866Y-45513095D02*
X131408628Y-45560714D01*
X131408628Y-45560714D02*
X131361009Y-45608333D01*
X131361009Y-45608333D02*
X131313390Y-45703571D01*
D12*
%TO.C,TP2*%
X140950000Y-57750000D02*
G75*
G02*
X139050000Y-57750000I-950000J0D01*
G01*
X139050000Y-57750000D02*
G75*
G02*
X140950000Y-57750000I950000J0D01*
G01*
%TO.C,JP8*%
X110750000Y-37700000D02*
X110750000Y-36300000D01*
X111450000Y-35600000D02*
X112050000Y-35600000D01*
X112050000Y-38400000D02*
X111450000Y-38400000D01*
X112750000Y-36300000D02*
X112750000Y-37700000D01*
X110750000Y-36300000D02*
G75*
G02*
X111450000Y-35600000I700000J0D01*
G01*
X111450000Y-38400000D02*
G75*
G02*
X110750000Y-37700000I-1J699999D01*
G01*
X112050000Y-35600000D02*
G75*
G02*
X112750000Y-36300000I0J-700000D01*
G01*
X112750000Y-37700000D02*
G75*
G02*
X112050000Y-38400000I-699999J-1D01*
G01*
D13*
%TO.C,F1*%
X109145000Y-30650000D02*
X109145000Y-25650000D01*
X109145000Y-48350000D02*
X109145000Y-43350000D01*
X114355000Y-25650000D02*
X114355000Y-30650000D01*
X114355000Y-43350000D02*
X114355000Y-48350000D01*
D14*
%TO.C,S1*%
X103818500Y-17736600D02*
X103818500Y-21495800D01*
X103818500Y-21495800D02*
X107587860Y-21495800D01*
X105087860Y-17736600D02*
X103818500Y-17736600D01*
X108812140Y-21495800D02*
X112581500Y-21495800D01*
X110087860Y-17736600D02*
X106312140Y-17736600D01*
X112581500Y-17736600D02*
X111312140Y-17736600D01*
X112581500Y-21495800D02*
X112581500Y-17736600D01*
D12*
%TO.C,R2*%
X124877500Y-25737258D02*
X124877500Y-25262742D01*
X125922500Y-25737258D02*
X125922500Y-25262742D01*
D13*
%TO.C,BT2*%
X28385000Y-21500000D02*
X28385000Y-24000000D01*
X28385000Y-21500000D02*
X31835000Y-21500000D01*
X28385000Y-30500000D02*
X28385000Y-28000000D01*
X28385000Y-30500000D02*
X31835000Y-30500000D01*
X31835000Y-17700000D02*
X41385000Y-17700000D01*
X31835000Y-21500000D02*
X31835000Y-17700000D01*
X31835000Y-30500000D02*
X31835000Y-34300000D01*
X31835000Y-34300000D02*
X41385000Y-34300000D01*
X41385000Y-17700000D02*
X41385000Y-23000000D01*
X41385000Y-34300000D02*
X41385000Y-29000000D01*
X85785000Y-17700000D02*
X85785000Y-23000000D01*
X85785000Y-34300000D02*
X85785000Y-29000000D01*
X95335000Y-17700000D02*
X85785000Y-17700000D01*
X95335000Y-21500000D02*
X95335000Y-17700000D01*
X95335000Y-30500000D02*
X95335000Y-34300000D01*
X95335000Y-34300000D02*
X85785000Y-34300000D01*
X98785000Y-21500000D02*
X95335000Y-21500000D01*
X98785000Y-21500000D02*
X98785000Y-24000000D01*
X98785000Y-30500000D02*
X95335000Y-30500000D01*
X98785000Y-30500000D02*
X98785000Y-28000000D01*
%TO.C,BT1*%
X28385000Y-44500000D02*
X28385000Y-47000000D01*
X28385000Y-44500000D02*
X31835000Y-44500000D01*
X28385000Y-53500000D02*
X28385000Y-51000000D01*
X28385000Y-53500000D02*
X31835000Y-53500000D01*
X31835000Y-40700000D02*
X41385000Y-40700000D01*
X31835000Y-44500000D02*
X31835000Y-40700000D01*
X31835000Y-53500000D02*
X31835000Y-57300000D01*
X31835000Y-57300000D02*
X41385000Y-57300000D01*
X41385000Y-40700000D02*
X41385000Y-46000000D01*
X41385000Y-57300000D02*
X41385000Y-52000000D01*
X85785000Y-40700000D02*
X85785000Y-46000000D01*
X85785000Y-57300000D02*
X85785000Y-52000000D01*
X95335000Y-40700000D02*
X85785000Y-40700000D01*
X95335000Y-44500000D02*
X95335000Y-40700000D01*
X95335000Y-53500000D02*
X95335000Y-57300000D01*
X95335000Y-57300000D02*
X85785000Y-57300000D01*
X98785000Y-44500000D02*
X95335000Y-44500000D01*
X98785000Y-44500000D02*
X98785000Y-47000000D01*
X98785000Y-53500000D02*
X95335000Y-53500000D01*
X98785000Y-53500000D02*
X98785000Y-51000000D01*
D12*
%TO.C,U5*%
X125000000Y-45390000D02*
X124200000Y-45390000D01*
X125000000Y-45390000D02*
X125800000Y-45390000D01*
X125000000Y-48510000D02*
X124200000Y-48510000D01*
X125000000Y-48510000D02*
X125800000Y-48510000D01*
X123700000Y-45440000D02*
X123460000Y-45110000D01*
X123940000Y-45110000D01*
X123700000Y-45440000D01*
G36*
X123700000Y-45440000D02*
G01*
X123460000Y-45110000D01*
X123940000Y-45110000D01*
X123700000Y-45440000D01*
G37*
%TO.C,JP1*%
X129000000Y-38700000D02*
X129000000Y-37300000D01*
X129700000Y-36600000D02*
X130300000Y-36600000D01*
X130300000Y-39400000D02*
X129700000Y-39400000D01*
X131000000Y-37300000D02*
X131000000Y-38700000D01*
X129000000Y-37300000D02*
G75*
G02*
X129700000Y-36600000I700000J0D01*
G01*
X129700000Y-39400000D02*
G75*
G02*
X129000000Y-38700000I-1J699999D01*
G01*
X130300000Y-36600000D02*
G75*
G02*
X131000000Y-37300000I0J-700000D01*
G01*
X131000000Y-38700000D02*
G75*
G02*
X130300000Y-39400000I-699999J-1D01*
G01*
%TO.C,C2*%
X120590000Y-27059420D02*
X120590000Y-27340580D01*
X121610000Y-27059420D02*
X121610000Y-27340580D01*
%TO.C,C1*%
X124065580Y-32290000D02*
X123784420Y-32290000D01*
X124065580Y-33310000D02*
X123784420Y-33310000D01*
%TO.C,R1*%
X119477500Y-35762742D02*
X119477500Y-36237258D01*
X120522500Y-35762742D02*
X120522500Y-36237258D01*
%TO.C,C17*%
X117490000Y-46634420D02*
X117490000Y-46915580D01*
X118510000Y-46634420D02*
X118510000Y-46915580D01*
%TO.C,J2*%
X149500000Y-24740000D02*
X150610000Y-24740000D01*
X150610000Y-24740000D02*
X150610000Y-26070000D01*
%TO.C,JP3*%
X116150000Y-22200000D02*
X116150000Y-20800000D01*
X116850000Y-20100000D02*
X117450000Y-20100000D01*
X117450000Y-22900000D02*
X116850000Y-22900000D01*
X118150000Y-20800000D02*
X118150000Y-22200000D01*
X116150000Y-20800000D02*
G75*
G02*
X116850000Y-20100000I700000J0D01*
G01*
X116850000Y-22900000D02*
G75*
G02*
X116150000Y-22200000I-1J699999D01*
G01*
X117450000Y-20100000D02*
G75*
G02*
X118150000Y-20800000I0J-700000D01*
G01*
X118150000Y-22200000D02*
G75*
G02*
X117450000Y-22900000I-699999J-1D01*
G01*
%TO.C,TP1*%
X142650000Y-37300000D02*
G75*
G02*
X140750000Y-37300000I-950000J0D01*
G01*
X140750000Y-37300000D02*
G75*
G02*
X142650000Y-37300000I950000J0D01*
G01*
%TO.C,D2*%
X118665000Y-16015000D02*
X118665000Y-18300000D01*
X120135000Y-16015000D02*
X118665000Y-16015000D01*
X120135000Y-18300000D02*
X120135000Y-16015000D01*
%TO.C,RT1*%
X119477500Y-39562742D02*
X119477500Y-40037258D01*
X120522500Y-39562742D02*
X120522500Y-40037258D01*
D13*
%TO.C,J1*%
X133500000Y-15600000D02*
X133500000Y-18950000D01*
X133500000Y-25000000D02*
X133500000Y-21850000D01*
X133500000Y-30500000D02*
X133500000Y-28000000D01*
X136350000Y-30500000D02*
X133500000Y-30500000D01*
X136350000Y-30500000D02*
X136350000Y-30000000D01*
X142600000Y-15600000D02*
X133500000Y-15600000D01*
X142600000Y-15600000D02*
X142600000Y-18900000D01*
X142600000Y-24900000D02*
X142600000Y-21900000D01*
X142600000Y-27900000D02*
X142600000Y-30000000D01*
X142600000Y-30000000D02*
X136350000Y-30000000D01*
D15*
X143600000Y-18500000D02*
G75*
G02*
X143400000Y-18500000I-100000J0D01*
G01*
X143400000Y-18500000D02*
G75*
G02*
X143600000Y-18500000I100000J0D01*
G01*
D14*
%TO.C,U1*%
X124695900Y-37762000D02*
X125120747Y-37762000D01*
X125120747Y-34663200D02*
X124695900Y-34663200D01*
X126379253Y-37762000D02*
X126804100Y-37762000D01*
X126804100Y-34663200D02*
X126379253Y-34663200D01*
X124058360Y-35286429D02*
G75*
G02*
X124058360Y-35138771I-18860J73829D01*
G01*
D12*
%TO.C,R3*%
X118877500Y-25737258D02*
X118877500Y-25262742D01*
X119922500Y-25737258D02*
X119922500Y-25262742D01*
%TO.C,JP2*%
X122150000Y-22200000D02*
X122150000Y-20800000D01*
X122850000Y-20100000D02*
X123450000Y-20100000D01*
X123450000Y-22900000D02*
X122850000Y-22900000D01*
X124150000Y-20800000D02*
X124150000Y-22200000D01*
X122150000Y-20800000D02*
G75*
G02*
X122850000Y-20100000I700000J0D01*
G01*
X122850000Y-22900000D02*
G75*
G02*
X122150000Y-22200000I-1J699999D01*
G01*
X123450000Y-20100000D02*
G75*
G02*
X124150000Y-20800000I0J-700000D01*
G01*
X124150000Y-22200000D02*
G75*
G02*
X123450000Y-22900000I-699999J-1D01*
G01*
%TO.C,D1*%
X124665000Y-16015000D02*
X124665000Y-18300000D01*
X126135000Y-16015000D02*
X124665000Y-16015000D01*
X126135000Y-18300000D02*
X126135000Y-16015000D01*
%TO.C,TH1*%
X103770000Y-37805000D02*
X103770000Y-35205000D01*
X106430000Y-35205000D02*
X103770000Y-35205000D01*
X106430000Y-37805000D02*
X103770000Y-37805000D01*
X106430000Y-37805000D02*
X106430000Y-35205000D01*
X106430000Y-39075000D02*
X106430000Y-40405000D01*
X106430000Y-40405000D02*
X105100000Y-40405000D01*
%TO.C,R4*%
X139477500Y-47262742D02*
X139477500Y-47737258D01*
X140522500Y-47262742D02*
X140522500Y-47737258D01*
%TO.C,R5*%
X139477500Y-52262742D02*
X139477500Y-52737258D01*
X140522500Y-52262742D02*
X140522500Y-52737258D01*
%TO.C,R15*%
X131662742Y-33977500D02*
X132137258Y-33977500D01*
X131662742Y-35022500D02*
X132137258Y-35022500D01*
%TO.C,C18*%
X129490000Y-46634420D02*
X129490000Y-46915580D01*
X130510000Y-46634420D02*
X130510000Y-46915580D01*
%TD*%
M02*
